G04 EAGLE Gerber RS-274X export*
G75*
%MOMM*%
%FSLAX34Y34*%
%LPD*%
%INSolderpaste Bottom*%
%IPPOS*%
%AMOC8*
5,1,8,0,0,1.08239X$1,22.5*%
G01*
%ADD10C,0.102000*%


D10*
X121200Y54890D02*
X115020Y54890D01*
X115020Y56870D01*
X121200Y56870D01*
X121200Y54890D01*
X121200Y55859D02*
X115020Y55859D01*
X115020Y56828D02*
X121200Y56828D01*
X121200Y59890D02*
X115020Y59890D01*
X115020Y61870D01*
X121200Y61870D01*
X121200Y59890D01*
X121200Y60859D02*
X115020Y60859D01*
X115020Y61828D02*
X121200Y61828D01*
X121200Y64890D02*
X115020Y64890D01*
X115020Y66870D01*
X121200Y66870D01*
X121200Y64890D01*
X121200Y65859D02*
X115020Y65859D01*
X115020Y66828D02*
X121200Y66828D01*
X121200Y69890D02*
X115020Y69890D01*
X115020Y71870D01*
X121200Y71870D01*
X121200Y69890D01*
X121200Y70859D02*
X115020Y70859D01*
X115020Y71828D02*
X121200Y71828D01*
X132220Y69890D02*
X138400Y69890D01*
X132220Y69890D02*
X132220Y71870D01*
X138400Y71870D01*
X138400Y69890D01*
X138400Y70859D02*
X132220Y70859D01*
X132220Y71828D02*
X138400Y71828D01*
X138400Y64890D02*
X132220Y64890D01*
X132220Y66870D01*
X138400Y66870D01*
X138400Y64890D01*
X138400Y65859D02*
X132220Y65859D01*
X132220Y66828D02*
X138400Y66828D01*
X138400Y59890D02*
X132220Y59890D01*
X132220Y61870D01*
X138400Y61870D01*
X138400Y59890D01*
X138400Y60859D02*
X132220Y60859D01*
X132220Y61828D02*
X138400Y61828D01*
X138400Y54890D02*
X132220Y54890D01*
X132220Y56870D01*
X138400Y56870D01*
X138400Y54890D01*
X138400Y55859D02*
X132220Y55859D01*
X132220Y56828D02*
X138400Y56828D01*
X374100Y54890D02*
X380280Y54890D01*
X374100Y54890D02*
X374100Y56870D01*
X380280Y56870D01*
X380280Y54890D01*
X380280Y55859D02*
X374100Y55859D01*
X374100Y56828D02*
X380280Y56828D01*
X380280Y59890D02*
X374100Y59890D01*
X374100Y61870D01*
X380280Y61870D01*
X380280Y59890D01*
X380280Y60859D02*
X374100Y60859D01*
X374100Y61828D02*
X380280Y61828D01*
X380280Y64890D02*
X374100Y64890D01*
X374100Y66870D01*
X380280Y66870D01*
X380280Y64890D01*
X380280Y65859D02*
X374100Y65859D01*
X374100Y66828D02*
X380280Y66828D01*
X380280Y69890D02*
X374100Y69890D01*
X374100Y71870D01*
X380280Y71870D01*
X380280Y69890D01*
X380280Y70859D02*
X374100Y70859D01*
X374100Y71828D02*
X380280Y71828D01*
X391300Y69890D02*
X397480Y69890D01*
X391300Y69890D02*
X391300Y71870D01*
X397480Y71870D01*
X397480Y69890D01*
X397480Y70859D02*
X391300Y70859D01*
X391300Y71828D02*
X397480Y71828D01*
X397480Y64890D02*
X391300Y64890D01*
X391300Y66870D01*
X397480Y66870D01*
X397480Y64890D01*
X397480Y65859D02*
X391300Y65859D01*
X391300Y66828D02*
X397480Y66828D01*
X397480Y59890D02*
X391300Y59890D01*
X391300Y61870D01*
X397480Y61870D01*
X397480Y59890D01*
X397480Y60859D02*
X391300Y60859D01*
X391300Y61828D02*
X397480Y61828D01*
X397480Y54890D02*
X391300Y54890D01*
X391300Y56870D01*
X397480Y56870D01*
X397480Y54890D01*
X397480Y55859D02*
X391300Y55859D01*
X391300Y56828D02*
X397480Y56828D01*
X633180Y54890D02*
X639360Y54890D01*
X633180Y54890D02*
X633180Y56870D01*
X639360Y56870D01*
X639360Y54890D01*
X639360Y55859D02*
X633180Y55859D01*
X633180Y56828D02*
X639360Y56828D01*
X639360Y59890D02*
X633180Y59890D01*
X633180Y61870D01*
X639360Y61870D01*
X639360Y59890D01*
X639360Y60859D02*
X633180Y60859D01*
X633180Y61828D02*
X639360Y61828D01*
X639360Y64890D02*
X633180Y64890D01*
X633180Y66870D01*
X639360Y66870D01*
X639360Y64890D01*
X639360Y65859D02*
X633180Y65859D01*
X633180Y66828D02*
X639360Y66828D01*
X639360Y69890D02*
X633180Y69890D01*
X633180Y71870D01*
X639360Y71870D01*
X639360Y69890D01*
X639360Y70859D02*
X633180Y70859D01*
X633180Y71828D02*
X639360Y71828D01*
X650380Y69890D02*
X656560Y69890D01*
X650380Y69890D02*
X650380Y71870D01*
X656560Y71870D01*
X656560Y69890D01*
X656560Y70859D02*
X650380Y70859D01*
X650380Y71828D02*
X656560Y71828D01*
X656560Y64890D02*
X650380Y64890D01*
X650380Y66870D01*
X656560Y66870D01*
X656560Y64890D01*
X656560Y65859D02*
X650380Y65859D01*
X650380Y66828D02*
X656560Y66828D01*
X656560Y59890D02*
X650380Y59890D01*
X650380Y61870D01*
X656560Y61870D01*
X656560Y59890D01*
X656560Y60859D02*
X650380Y60859D01*
X650380Y61828D02*
X656560Y61828D01*
X656560Y54890D02*
X650380Y54890D01*
X650380Y56870D01*
X656560Y56870D01*
X656560Y54890D01*
X656560Y55859D02*
X650380Y55859D01*
X650380Y56828D02*
X656560Y56828D01*
X892260Y54890D02*
X898440Y54890D01*
X892260Y54890D02*
X892260Y56870D01*
X898440Y56870D01*
X898440Y54890D01*
X898440Y55859D02*
X892260Y55859D01*
X892260Y56828D02*
X898440Y56828D01*
X898440Y59890D02*
X892260Y59890D01*
X892260Y61870D01*
X898440Y61870D01*
X898440Y59890D01*
X898440Y60859D02*
X892260Y60859D01*
X892260Y61828D02*
X898440Y61828D01*
X898440Y64890D02*
X892260Y64890D01*
X892260Y66870D01*
X898440Y66870D01*
X898440Y64890D01*
X898440Y65859D02*
X892260Y65859D01*
X892260Y66828D02*
X898440Y66828D01*
X898440Y69890D02*
X892260Y69890D01*
X892260Y71870D01*
X898440Y71870D01*
X898440Y69890D01*
X898440Y70859D02*
X892260Y70859D01*
X892260Y71828D02*
X898440Y71828D01*
X909460Y69890D02*
X915640Y69890D01*
X909460Y69890D02*
X909460Y71870D01*
X915640Y71870D01*
X915640Y69890D01*
X915640Y70859D02*
X909460Y70859D01*
X909460Y71828D02*
X915640Y71828D01*
X915640Y64890D02*
X909460Y64890D01*
X909460Y66870D01*
X915640Y66870D01*
X915640Y64890D01*
X915640Y65859D02*
X909460Y65859D01*
X909460Y66828D02*
X915640Y66828D01*
X915640Y59890D02*
X909460Y59890D01*
X909460Y61870D01*
X915640Y61870D01*
X915640Y59890D01*
X915640Y60859D02*
X909460Y60859D01*
X909460Y61828D02*
X915640Y61828D01*
X915640Y54890D02*
X909460Y54890D01*
X909460Y56870D01*
X915640Y56870D01*
X915640Y54890D01*
X915640Y55859D02*
X909460Y55859D01*
X909460Y56828D02*
X915640Y56828D01*
X121200Y186970D02*
X115020Y186970D01*
X115020Y188950D01*
X121200Y188950D01*
X121200Y186970D01*
X121200Y187939D02*
X115020Y187939D01*
X115020Y188908D02*
X121200Y188908D01*
X121200Y191970D02*
X115020Y191970D01*
X115020Y193950D01*
X121200Y193950D01*
X121200Y191970D01*
X121200Y192939D02*
X115020Y192939D01*
X115020Y193908D02*
X121200Y193908D01*
X121200Y196970D02*
X115020Y196970D01*
X115020Y198950D01*
X121200Y198950D01*
X121200Y196970D01*
X121200Y197939D02*
X115020Y197939D01*
X115020Y198908D02*
X121200Y198908D01*
X121200Y201970D02*
X115020Y201970D01*
X115020Y203950D01*
X121200Y203950D01*
X121200Y201970D01*
X121200Y202939D02*
X115020Y202939D01*
X115020Y203908D02*
X121200Y203908D01*
X132220Y201970D02*
X138400Y201970D01*
X132220Y201970D02*
X132220Y203950D01*
X138400Y203950D01*
X138400Y201970D01*
X138400Y202939D02*
X132220Y202939D01*
X132220Y203908D02*
X138400Y203908D01*
X138400Y196970D02*
X132220Y196970D01*
X132220Y198950D01*
X138400Y198950D01*
X138400Y196970D01*
X138400Y197939D02*
X132220Y197939D01*
X132220Y198908D02*
X138400Y198908D01*
X138400Y191970D02*
X132220Y191970D01*
X132220Y193950D01*
X138400Y193950D01*
X138400Y191970D01*
X138400Y192939D02*
X132220Y192939D01*
X132220Y193908D02*
X138400Y193908D01*
X138400Y186970D02*
X132220Y186970D01*
X132220Y188950D01*
X138400Y188950D01*
X138400Y186970D01*
X138400Y187939D02*
X132220Y187939D01*
X132220Y188908D02*
X138400Y188908D01*
X374100Y186970D02*
X380280Y186970D01*
X374100Y186970D02*
X374100Y188950D01*
X380280Y188950D01*
X380280Y186970D01*
X380280Y187939D02*
X374100Y187939D01*
X374100Y188908D02*
X380280Y188908D01*
X380280Y191970D02*
X374100Y191970D01*
X374100Y193950D01*
X380280Y193950D01*
X380280Y191970D01*
X380280Y192939D02*
X374100Y192939D01*
X374100Y193908D02*
X380280Y193908D01*
X380280Y196970D02*
X374100Y196970D01*
X374100Y198950D01*
X380280Y198950D01*
X380280Y196970D01*
X380280Y197939D02*
X374100Y197939D01*
X374100Y198908D02*
X380280Y198908D01*
X380280Y201970D02*
X374100Y201970D01*
X374100Y203950D01*
X380280Y203950D01*
X380280Y201970D01*
X380280Y202939D02*
X374100Y202939D01*
X374100Y203908D02*
X380280Y203908D01*
X391300Y201970D02*
X397480Y201970D01*
X391300Y201970D02*
X391300Y203950D01*
X397480Y203950D01*
X397480Y201970D01*
X397480Y202939D02*
X391300Y202939D01*
X391300Y203908D02*
X397480Y203908D01*
X397480Y196970D02*
X391300Y196970D01*
X391300Y198950D01*
X397480Y198950D01*
X397480Y196970D01*
X397480Y197939D02*
X391300Y197939D01*
X391300Y198908D02*
X397480Y198908D01*
X397480Y191970D02*
X391300Y191970D01*
X391300Y193950D01*
X397480Y193950D01*
X397480Y191970D01*
X397480Y192939D02*
X391300Y192939D01*
X391300Y193908D02*
X397480Y193908D01*
X397480Y186970D02*
X391300Y186970D01*
X391300Y188950D01*
X397480Y188950D01*
X397480Y186970D01*
X397480Y187939D02*
X391300Y187939D01*
X391300Y188908D02*
X397480Y188908D01*
X633180Y186970D02*
X639360Y186970D01*
X633180Y186970D02*
X633180Y188950D01*
X639360Y188950D01*
X639360Y186970D01*
X639360Y187939D02*
X633180Y187939D01*
X633180Y188908D02*
X639360Y188908D01*
X639360Y191970D02*
X633180Y191970D01*
X633180Y193950D01*
X639360Y193950D01*
X639360Y191970D01*
X639360Y192939D02*
X633180Y192939D01*
X633180Y193908D02*
X639360Y193908D01*
X639360Y196970D02*
X633180Y196970D01*
X633180Y198950D01*
X639360Y198950D01*
X639360Y196970D01*
X639360Y197939D02*
X633180Y197939D01*
X633180Y198908D02*
X639360Y198908D01*
X639360Y201970D02*
X633180Y201970D01*
X633180Y203950D01*
X639360Y203950D01*
X639360Y201970D01*
X639360Y202939D02*
X633180Y202939D01*
X633180Y203908D02*
X639360Y203908D01*
X650380Y201970D02*
X656560Y201970D01*
X650380Y201970D02*
X650380Y203950D01*
X656560Y203950D01*
X656560Y201970D01*
X656560Y202939D02*
X650380Y202939D01*
X650380Y203908D02*
X656560Y203908D01*
X656560Y196970D02*
X650380Y196970D01*
X650380Y198950D01*
X656560Y198950D01*
X656560Y196970D01*
X656560Y197939D02*
X650380Y197939D01*
X650380Y198908D02*
X656560Y198908D01*
X656560Y191970D02*
X650380Y191970D01*
X650380Y193950D01*
X656560Y193950D01*
X656560Y191970D01*
X656560Y192939D02*
X650380Y192939D01*
X650380Y193908D02*
X656560Y193908D01*
X656560Y186970D02*
X650380Y186970D01*
X650380Y188950D01*
X656560Y188950D01*
X656560Y186970D01*
X656560Y187939D02*
X650380Y187939D01*
X650380Y188908D02*
X656560Y188908D01*
X892260Y186970D02*
X898440Y186970D01*
X892260Y186970D02*
X892260Y188950D01*
X898440Y188950D01*
X898440Y186970D01*
X898440Y187939D02*
X892260Y187939D01*
X892260Y188908D02*
X898440Y188908D01*
X898440Y191970D02*
X892260Y191970D01*
X892260Y193950D01*
X898440Y193950D01*
X898440Y191970D01*
X898440Y192939D02*
X892260Y192939D01*
X892260Y193908D02*
X898440Y193908D01*
X898440Y196970D02*
X892260Y196970D01*
X892260Y198950D01*
X898440Y198950D01*
X898440Y196970D01*
X898440Y197939D02*
X892260Y197939D01*
X892260Y198908D02*
X898440Y198908D01*
X898440Y201970D02*
X892260Y201970D01*
X892260Y203950D01*
X898440Y203950D01*
X898440Y201970D01*
X898440Y202939D02*
X892260Y202939D01*
X892260Y203908D02*
X898440Y203908D01*
X909460Y201970D02*
X915640Y201970D01*
X909460Y201970D02*
X909460Y203950D01*
X915640Y203950D01*
X915640Y201970D01*
X915640Y202939D02*
X909460Y202939D01*
X909460Y203908D02*
X915640Y203908D01*
X915640Y196970D02*
X909460Y196970D01*
X909460Y198950D01*
X915640Y198950D01*
X915640Y196970D01*
X915640Y197939D02*
X909460Y197939D01*
X909460Y198908D02*
X915640Y198908D01*
X915640Y191970D02*
X909460Y191970D01*
X909460Y193950D01*
X915640Y193950D01*
X915640Y191970D01*
X915640Y192939D02*
X909460Y192939D01*
X909460Y193908D02*
X915640Y193908D01*
X915640Y186970D02*
X909460Y186970D01*
X909460Y188950D01*
X915640Y188950D01*
X915640Y186970D01*
X915640Y187939D02*
X909460Y187939D01*
X909460Y188908D02*
X915640Y188908D01*
X121200Y319050D02*
X115020Y319050D01*
X115020Y321030D01*
X121200Y321030D01*
X121200Y319050D01*
X121200Y320019D02*
X115020Y320019D01*
X115020Y320988D02*
X121200Y320988D01*
X121200Y324050D02*
X115020Y324050D01*
X115020Y326030D01*
X121200Y326030D01*
X121200Y324050D01*
X121200Y325019D02*
X115020Y325019D01*
X115020Y325988D02*
X121200Y325988D01*
X121200Y329050D02*
X115020Y329050D01*
X115020Y331030D01*
X121200Y331030D01*
X121200Y329050D01*
X121200Y330019D02*
X115020Y330019D01*
X115020Y330988D02*
X121200Y330988D01*
X121200Y334050D02*
X115020Y334050D01*
X115020Y336030D01*
X121200Y336030D01*
X121200Y334050D01*
X121200Y335019D02*
X115020Y335019D01*
X115020Y335988D02*
X121200Y335988D01*
X132220Y334050D02*
X138400Y334050D01*
X132220Y334050D02*
X132220Y336030D01*
X138400Y336030D01*
X138400Y334050D01*
X138400Y335019D02*
X132220Y335019D01*
X132220Y335988D02*
X138400Y335988D01*
X138400Y329050D02*
X132220Y329050D01*
X132220Y331030D01*
X138400Y331030D01*
X138400Y329050D01*
X138400Y330019D02*
X132220Y330019D01*
X132220Y330988D02*
X138400Y330988D01*
X138400Y324050D02*
X132220Y324050D01*
X132220Y326030D01*
X138400Y326030D01*
X138400Y324050D01*
X138400Y325019D02*
X132220Y325019D01*
X132220Y325988D02*
X138400Y325988D01*
X138400Y319050D02*
X132220Y319050D01*
X132220Y321030D01*
X138400Y321030D01*
X138400Y319050D01*
X138400Y320019D02*
X132220Y320019D01*
X132220Y320988D02*
X138400Y320988D01*
X374100Y319050D02*
X380280Y319050D01*
X374100Y319050D02*
X374100Y321030D01*
X380280Y321030D01*
X380280Y319050D01*
X380280Y320019D02*
X374100Y320019D01*
X374100Y320988D02*
X380280Y320988D01*
X380280Y324050D02*
X374100Y324050D01*
X374100Y326030D01*
X380280Y326030D01*
X380280Y324050D01*
X380280Y325019D02*
X374100Y325019D01*
X374100Y325988D02*
X380280Y325988D01*
X380280Y329050D02*
X374100Y329050D01*
X374100Y331030D01*
X380280Y331030D01*
X380280Y329050D01*
X380280Y330019D02*
X374100Y330019D01*
X374100Y330988D02*
X380280Y330988D01*
X380280Y334050D02*
X374100Y334050D01*
X374100Y336030D01*
X380280Y336030D01*
X380280Y334050D01*
X380280Y335019D02*
X374100Y335019D01*
X374100Y335988D02*
X380280Y335988D01*
X391300Y334050D02*
X397480Y334050D01*
X391300Y334050D02*
X391300Y336030D01*
X397480Y336030D01*
X397480Y334050D01*
X397480Y335019D02*
X391300Y335019D01*
X391300Y335988D02*
X397480Y335988D01*
X397480Y329050D02*
X391300Y329050D01*
X391300Y331030D01*
X397480Y331030D01*
X397480Y329050D01*
X397480Y330019D02*
X391300Y330019D01*
X391300Y330988D02*
X397480Y330988D01*
X397480Y324050D02*
X391300Y324050D01*
X391300Y326030D01*
X397480Y326030D01*
X397480Y324050D01*
X397480Y325019D02*
X391300Y325019D01*
X391300Y325988D02*
X397480Y325988D01*
X397480Y319050D02*
X391300Y319050D01*
X391300Y321030D01*
X397480Y321030D01*
X397480Y319050D01*
X397480Y320019D02*
X391300Y320019D01*
X391300Y320988D02*
X397480Y320988D01*
X633180Y319050D02*
X639360Y319050D01*
X633180Y319050D02*
X633180Y321030D01*
X639360Y321030D01*
X639360Y319050D01*
X639360Y320019D02*
X633180Y320019D01*
X633180Y320988D02*
X639360Y320988D01*
X639360Y324050D02*
X633180Y324050D01*
X633180Y326030D01*
X639360Y326030D01*
X639360Y324050D01*
X639360Y325019D02*
X633180Y325019D01*
X633180Y325988D02*
X639360Y325988D01*
X639360Y329050D02*
X633180Y329050D01*
X633180Y331030D01*
X639360Y331030D01*
X639360Y329050D01*
X639360Y330019D02*
X633180Y330019D01*
X633180Y330988D02*
X639360Y330988D01*
X639360Y334050D02*
X633180Y334050D01*
X633180Y336030D01*
X639360Y336030D01*
X639360Y334050D01*
X639360Y335019D02*
X633180Y335019D01*
X633180Y335988D02*
X639360Y335988D01*
X650380Y334050D02*
X656560Y334050D01*
X650380Y334050D02*
X650380Y336030D01*
X656560Y336030D01*
X656560Y334050D01*
X656560Y335019D02*
X650380Y335019D01*
X650380Y335988D02*
X656560Y335988D01*
X656560Y329050D02*
X650380Y329050D01*
X650380Y331030D01*
X656560Y331030D01*
X656560Y329050D01*
X656560Y330019D02*
X650380Y330019D01*
X650380Y330988D02*
X656560Y330988D01*
X656560Y324050D02*
X650380Y324050D01*
X650380Y326030D01*
X656560Y326030D01*
X656560Y324050D01*
X656560Y325019D02*
X650380Y325019D01*
X650380Y325988D02*
X656560Y325988D01*
X656560Y319050D02*
X650380Y319050D01*
X650380Y321030D01*
X656560Y321030D01*
X656560Y319050D01*
X656560Y320019D02*
X650380Y320019D01*
X650380Y320988D02*
X656560Y320988D01*
X892260Y319050D02*
X898440Y319050D01*
X892260Y319050D02*
X892260Y321030D01*
X898440Y321030D01*
X898440Y319050D01*
X898440Y320019D02*
X892260Y320019D01*
X892260Y320988D02*
X898440Y320988D01*
X898440Y324050D02*
X892260Y324050D01*
X892260Y326030D01*
X898440Y326030D01*
X898440Y324050D01*
X898440Y325019D02*
X892260Y325019D01*
X892260Y325988D02*
X898440Y325988D01*
X898440Y329050D02*
X892260Y329050D01*
X892260Y331030D01*
X898440Y331030D01*
X898440Y329050D01*
X898440Y330019D02*
X892260Y330019D01*
X892260Y330988D02*
X898440Y330988D01*
X898440Y334050D02*
X892260Y334050D01*
X892260Y336030D01*
X898440Y336030D01*
X898440Y334050D01*
X898440Y335019D02*
X892260Y335019D01*
X892260Y335988D02*
X898440Y335988D01*
X909460Y334050D02*
X915640Y334050D01*
X909460Y334050D02*
X909460Y336030D01*
X915640Y336030D01*
X915640Y334050D01*
X915640Y335019D02*
X909460Y335019D01*
X909460Y335988D02*
X915640Y335988D01*
X915640Y329050D02*
X909460Y329050D01*
X909460Y331030D01*
X915640Y331030D01*
X915640Y329050D01*
X915640Y330019D02*
X909460Y330019D01*
X909460Y330988D02*
X915640Y330988D01*
X915640Y324050D02*
X909460Y324050D01*
X909460Y326030D01*
X915640Y326030D01*
X915640Y324050D01*
X915640Y325019D02*
X909460Y325019D01*
X909460Y325988D02*
X915640Y325988D01*
X915640Y319050D02*
X909460Y319050D01*
X909460Y321030D01*
X915640Y321030D01*
X915640Y319050D01*
X915640Y320019D02*
X909460Y320019D01*
X909460Y320988D02*
X915640Y320988D01*
X121200Y451130D02*
X115020Y451130D01*
X115020Y453110D01*
X121200Y453110D01*
X121200Y451130D01*
X121200Y452099D02*
X115020Y452099D01*
X115020Y453068D02*
X121200Y453068D01*
X121200Y456130D02*
X115020Y456130D01*
X115020Y458110D01*
X121200Y458110D01*
X121200Y456130D01*
X121200Y457099D02*
X115020Y457099D01*
X115020Y458068D02*
X121200Y458068D01*
X121200Y461130D02*
X115020Y461130D01*
X115020Y463110D01*
X121200Y463110D01*
X121200Y461130D01*
X121200Y462099D02*
X115020Y462099D01*
X115020Y463068D02*
X121200Y463068D01*
X121200Y466130D02*
X115020Y466130D01*
X115020Y468110D01*
X121200Y468110D01*
X121200Y466130D01*
X121200Y467099D02*
X115020Y467099D01*
X115020Y468068D02*
X121200Y468068D01*
X132220Y466130D02*
X138400Y466130D01*
X132220Y466130D02*
X132220Y468110D01*
X138400Y468110D01*
X138400Y466130D01*
X138400Y467099D02*
X132220Y467099D01*
X132220Y468068D02*
X138400Y468068D01*
X138400Y461130D02*
X132220Y461130D01*
X132220Y463110D01*
X138400Y463110D01*
X138400Y461130D01*
X138400Y462099D02*
X132220Y462099D01*
X132220Y463068D02*
X138400Y463068D01*
X138400Y456130D02*
X132220Y456130D01*
X132220Y458110D01*
X138400Y458110D01*
X138400Y456130D01*
X138400Y457099D02*
X132220Y457099D01*
X132220Y458068D02*
X138400Y458068D01*
X138400Y451130D02*
X132220Y451130D01*
X132220Y453110D01*
X138400Y453110D01*
X138400Y451130D01*
X138400Y452099D02*
X132220Y452099D01*
X132220Y453068D02*
X138400Y453068D01*
X374100Y451130D02*
X380280Y451130D01*
X374100Y451130D02*
X374100Y453110D01*
X380280Y453110D01*
X380280Y451130D01*
X380280Y452099D02*
X374100Y452099D01*
X374100Y453068D02*
X380280Y453068D01*
X380280Y456130D02*
X374100Y456130D01*
X374100Y458110D01*
X380280Y458110D01*
X380280Y456130D01*
X380280Y457099D02*
X374100Y457099D01*
X374100Y458068D02*
X380280Y458068D01*
X380280Y461130D02*
X374100Y461130D01*
X374100Y463110D01*
X380280Y463110D01*
X380280Y461130D01*
X380280Y462099D02*
X374100Y462099D01*
X374100Y463068D02*
X380280Y463068D01*
X380280Y466130D02*
X374100Y466130D01*
X374100Y468110D01*
X380280Y468110D01*
X380280Y466130D01*
X380280Y467099D02*
X374100Y467099D01*
X374100Y468068D02*
X380280Y468068D01*
X391300Y466130D02*
X397480Y466130D01*
X391300Y466130D02*
X391300Y468110D01*
X397480Y468110D01*
X397480Y466130D01*
X397480Y467099D02*
X391300Y467099D01*
X391300Y468068D02*
X397480Y468068D01*
X397480Y461130D02*
X391300Y461130D01*
X391300Y463110D01*
X397480Y463110D01*
X397480Y461130D01*
X397480Y462099D02*
X391300Y462099D01*
X391300Y463068D02*
X397480Y463068D01*
X397480Y456130D02*
X391300Y456130D01*
X391300Y458110D01*
X397480Y458110D01*
X397480Y456130D01*
X397480Y457099D02*
X391300Y457099D01*
X391300Y458068D02*
X397480Y458068D01*
X397480Y451130D02*
X391300Y451130D01*
X391300Y453110D01*
X397480Y453110D01*
X397480Y451130D01*
X397480Y452099D02*
X391300Y452099D01*
X391300Y453068D02*
X397480Y453068D01*
X633180Y451130D02*
X639360Y451130D01*
X633180Y451130D02*
X633180Y453110D01*
X639360Y453110D01*
X639360Y451130D01*
X639360Y452099D02*
X633180Y452099D01*
X633180Y453068D02*
X639360Y453068D01*
X639360Y456130D02*
X633180Y456130D01*
X633180Y458110D01*
X639360Y458110D01*
X639360Y456130D01*
X639360Y457099D02*
X633180Y457099D01*
X633180Y458068D02*
X639360Y458068D01*
X639360Y461130D02*
X633180Y461130D01*
X633180Y463110D01*
X639360Y463110D01*
X639360Y461130D01*
X639360Y462099D02*
X633180Y462099D01*
X633180Y463068D02*
X639360Y463068D01*
X639360Y466130D02*
X633180Y466130D01*
X633180Y468110D01*
X639360Y468110D01*
X639360Y466130D01*
X639360Y467099D02*
X633180Y467099D01*
X633180Y468068D02*
X639360Y468068D01*
X650380Y466130D02*
X656560Y466130D01*
X650380Y466130D02*
X650380Y468110D01*
X656560Y468110D01*
X656560Y466130D01*
X656560Y467099D02*
X650380Y467099D01*
X650380Y468068D02*
X656560Y468068D01*
X656560Y461130D02*
X650380Y461130D01*
X650380Y463110D01*
X656560Y463110D01*
X656560Y461130D01*
X656560Y462099D02*
X650380Y462099D01*
X650380Y463068D02*
X656560Y463068D01*
X656560Y456130D02*
X650380Y456130D01*
X650380Y458110D01*
X656560Y458110D01*
X656560Y456130D01*
X656560Y457099D02*
X650380Y457099D01*
X650380Y458068D02*
X656560Y458068D01*
X656560Y451130D02*
X650380Y451130D01*
X650380Y453110D01*
X656560Y453110D01*
X656560Y451130D01*
X656560Y452099D02*
X650380Y452099D01*
X650380Y453068D02*
X656560Y453068D01*
X892260Y451130D02*
X898440Y451130D01*
X892260Y451130D02*
X892260Y453110D01*
X898440Y453110D01*
X898440Y451130D01*
X898440Y452099D02*
X892260Y452099D01*
X892260Y453068D02*
X898440Y453068D01*
X898440Y456130D02*
X892260Y456130D01*
X892260Y458110D01*
X898440Y458110D01*
X898440Y456130D01*
X898440Y457099D02*
X892260Y457099D01*
X892260Y458068D02*
X898440Y458068D01*
X898440Y461130D02*
X892260Y461130D01*
X892260Y463110D01*
X898440Y463110D01*
X898440Y461130D01*
X898440Y462099D02*
X892260Y462099D01*
X892260Y463068D02*
X898440Y463068D01*
X898440Y466130D02*
X892260Y466130D01*
X892260Y468110D01*
X898440Y468110D01*
X898440Y466130D01*
X898440Y467099D02*
X892260Y467099D01*
X892260Y468068D02*
X898440Y468068D01*
X909460Y466130D02*
X915640Y466130D01*
X909460Y466130D02*
X909460Y468110D01*
X915640Y468110D01*
X915640Y466130D01*
X915640Y467099D02*
X909460Y467099D01*
X909460Y468068D02*
X915640Y468068D01*
X915640Y461130D02*
X909460Y461130D01*
X909460Y463110D01*
X915640Y463110D01*
X915640Y461130D01*
X915640Y462099D02*
X909460Y462099D01*
X909460Y463068D02*
X915640Y463068D01*
X915640Y456130D02*
X909460Y456130D01*
X909460Y458110D01*
X915640Y458110D01*
X915640Y456130D01*
X915640Y457099D02*
X909460Y457099D01*
X909460Y458068D02*
X915640Y458068D01*
X915640Y451130D02*
X909460Y451130D01*
X909460Y453110D01*
X915640Y453110D01*
X915640Y451130D01*
X915640Y452099D02*
X909460Y452099D01*
X909460Y453068D02*
X915640Y453068D01*
X121200Y583210D02*
X115020Y583210D01*
X115020Y585190D01*
X121200Y585190D01*
X121200Y583210D01*
X121200Y584179D02*
X115020Y584179D01*
X115020Y585148D02*
X121200Y585148D01*
X121200Y588210D02*
X115020Y588210D01*
X115020Y590190D01*
X121200Y590190D01*
X121200Y588210D01*
X121200Y589179D02*
X115020Y589179D01*
X115020Y590148D02*
X121200Y590148D01*
X121200Y593210D02*
X115020Y593210D01*
X115020Y595190D01*
X121200Y595190D01*
X121200Y593210D01*
X121200Y594179D02*
X115020Y594179D01*
X115020Y595148D02*
X121200Y595148D01*
X121200Y598210D02*
X115020Y598210D01*
X115020Y600190D01*
X121200Y600190D01*
X121200Y598210D01*
X121200Y599179D02*
X115020Y599179D01*
X115020Y600148D02*
X121200Y600148D01*
X132220Y598210D02*
X138400Y598210D01*
X132220Y598210D02*
X132220Y600190D01*
X138400Y600190D01*
X138400Y598210D01*
X138400Y599179D02*
X132220Y599179D01*
X132220Y600148D02*
X138400Y600148D01*
X138400Y593210D02*
X132220Y593210D01*
X132220Y595190D01*
X138400Y595190D01*
X138400Y593210D01*
X138400Y594179D02*
X132220Y594179D01*
X132220Y595148D02*
X138400Y595148D01*
X138400Y588210D02*
X132220Y588210D01*
X132220Y590190D01*
X138400Y590190D01*
X138400Y588210D01*
X138400Y589179D02*
X132220Y589179D01*
X132220Y590148D02*
X138400Y590148D01*
X138400Y583210D02*
X132220Y583210D01*
X132220Y585190D01*
X138400Y585190D01*
X138400Y583210D01*
X138400Y584179D02*
X132220Y584179D01*
X132220Y585148D02*
X138400Y585148D01*
X374100Y583210D02*
X380280Y583210D01*
X374100Y583210D02*
X374100Y585190D01*
X380280Y585190D01*
X380280Y583210D01*
X380280Y584179D02*
X374100Y584179D01*
X374100Y585148D02*
X380280Y585148D01*
X380280Y588210D02*
X374100Y588210D01*
X374100Y590190D01*
X380280Y590190D01*
X380280Y588210D01*
X380280Y589179D02*
X374100Y589179D01*
X374100Y590148D02*
X380280Y590148D01*
X380280Y593210D02*
X374100Y593210D01*
X374100Y595190D01*
X380280Y595190D01*
X380280Y593210D01*
X380280Y594179D02*
X374100Y594179D01*
X374100Y595148D02*
X380280Y595148D01*
X380280Y598210D02*
X374100Y598210D01*
X374100Y600190D01*
X380280Y600190D01*
X380280Y598210D01*
X380280Y599179D02*
X374100Y599179D01*
X374100Y600148D02*
X380280Y600148D01*
X391300Y598210D02*
X397480Y598210D01*
X391300Y598210D02*
X391300Y600190D01*
X397480Y600190D01*
X397480Y598210D01*
X397480Y599179D02*
X391300Y599179D01*
X391300Y600148D02*
X397480Y600148D01*
X397480Y593210D02*
X391300Y593210D01*
X391300Y595190D01*
X397480Y595190D01*
X397480Y593210D01*
X397480Y594179D02*
X391300Y594179D01*
X391300Y595148D02*
X397480Y595148D01*
X397480Y588210D02*
X391300Y588210D01*
X391300Y590190D01*
X397480Y590190D01*
X397480Y588210D01*
X397480Y589179D02*
X391300Y589179D01*
X391300Y590148D02*
X397480Y590148D01*
X397480Y583210D02*
X391300Y583210D01*
X391300Y585190D01*
X397480Y585190D01*
X397480Y583210D01*
X397480Y584179D02*
X391300Y584179D01*
X391300Y585148D02*
X397480Y585148D01*
X633180Y583210D02*
X639360Y583210D01*
X633180Y583210D02*
X633180Y585190D01*
X639360Y585190D01*
X639360Y583210D01*
X639360Y584179D02*
X633180Y584179D01*
X633180Y585148D02*
X639360Y585148D01*
X639360Y588210D02*
X633180Y588210D01*
X633180Y590190D01*
X639360Y590190D01*
X639360Y588210D01*
X639360Y589179D02*
X633180Y589179D01*
X633180Y590148D02*
X639360Y590148D01*
X639360Y593210D02*
X633180Y593210D01*
X633180Y595190D01*
X639360Y595190D01*
X639360Y593210D01*
X639360Y594179D02*
X633180Y594179D01*
X633180Y595148D02*
X639360Y595148D01*
X639360Y598210D02*
X633180Y598210D01*
X633180Y600190D01*
X639360Y600190D01*
X639360Y598210D01*
X639360Y599179D02*
X633180Y599179D01*
X633180Y600148D02*
X639360Y600148D01*
X650380Y598210D02*
X656560Y598210D01*
X650380Y598210D02*
X650380Y600190D01*
X656560Y600190D01*
X656560Y598210D01*
X656560Y599179D02*
X650380Y599179D01*
X650380Y600148D02*
X656560Y600148D01*
X656560Y593210D02*
X650380Y593210D01*
X650380Y595190D01*
X656560Y595190D01*
X656560Y593210D01*
X656560Y594179D02*
X650380Y594179D01*
X650380Y595148D02*
X656560Y595148D01*
X656560Y588210D02*
X650380Y588210D01*
X650380Y590190D01*
X656560Y590190D01*
X656560Y588210D01*
X656560Y589179D02*
X650380Y589179D01*
X650380Y590148D02*
X656560Y590148D01*
X656560Y583210D02*
X650380Y583210D01*
X650380Y585190D01*
X656560Y585190D01*
X656560Y583210D01*
X656560Y584179D02*
X650380Y584179D01*
X650380Y585148D02*
X656560Y585148D01*
X892260Y583210D02*
X898440Y583210D01*
X892260Y583210D02*
X892260Y585190D01*
X898440Y585190D01*
X898440Y583210D01*
X898440Y584179D02*
X892260Y584179D01*
X892260Y585148D02*
X898440Y585148D01*
X898440Y588210D02*
X892260Y588210D01*
X892260Y590190D01*
X898440Y590190D01*
X898440Y588210D01*
X898440Y589179D02*
X892260Y589179D01*
X892260Y590148D02*
X898440Y590148D01*
X898440Y593210D02*
X892260Y593210D01*
X892260Y595190D01*
X898440Y595190D01*
X898440Y593210D01*
X898440Y594179D02*
X892260Y594179D01*
X892260Y595148D02*
X898440Y595148D01*
X898440Y598210D02*
X892260Y598210D01*
X892260Y600190D01*
X898440Y600190D01*
X898440Y598210D01*
X898440Y599179D02*
X892260Y599179D01*
X892260Y600148D02*
X898440Y600148D01*
X909460Y598210D02*
X915640Y598210D01*
X909460Y598210D02*
X909460Y600190D01*
X915640Y600190D01*
X915640Y598210D01*
X915640Y599179D02*
X909460Y599179D01*
X909460Y600148D02*
X915640Y600148D01*
X915640Y593210D02*
X909460Y593210D01*
X909460Y595190D01*
X915640Y595190D01*
X915640Y593210D01*
X915640Y594179D02*
X909460Y594179D01*
X909460Y595148D02*
X915640Y595148D01*
X915640Y588210D02*
X909460Y588210D01*
X909460Y590190D01*
X915640Y590190D01*
X915640Y588210D01*
X915640Y589179D02*
X909460Y589179D01*
X909460Y590148D02*
X915640Y590148D01*
X915640Y583210D02*
X909460Y583210D01*
X909460Y585190D01*
X915640Y585190D01*
X915640Y583210D01*
X915640Y584179D02*
X909460Y584179D01*
X909460Y585148D02*
X915640Y585148D01*
X121200Y715290D02*
X115020Y715290D01*
X115020Y717270D01*
X121200Y717270D01*
X121200Y715290D01*
X121200Y716259D02*
X115020Y716259D01*
X115020Y717228D02*
X121200Y717228D01*
X121200Y720290D02*
X115020Y720290D01*
X115020Y722270D01*
X121200Y722270D01*
X121200Y720290D01*
X121200Y721259D02*
X115020Y721259D01*
X115020Y722228D02*
X121200Y722228D01*
X121200Y725290D02*
X115020Y725290D01*
X115020Y727270D01*
X121200Y727270D01*
X121200Y725290D01*
X121200Y726259D02*
X115020Y726259D01*
X115020Y727228D02*
X121200Y727228D01*
X121200Y730290D02*
X115020Y730290D01*
X115020Y732270D01*
X121200Y732270D01*
X121200Y730290D01*
X121200Y731259D02*
X115020Y731259D01*
X115020Y732228D02*
X121200Y732228D01*
X132220Y730290D02*
X138400Y730290D01*
X132220Y730290D02*
X132220Y732270D01*
X138400Y732270D01*
X138400Y730290D01*
X138400Y731259D02*
X132220Y731259D01*
X132220Y732228D02*
X138400Y732228D01*
X138400Y725290D02*
X132220Y725290D01*
X132220Y727270D01*
X138400Y727270D01*
X138400Y725290D01*
X138400Y726259D02*
X132220Y726259D01*
X132220Y727228D02*
X138400Y727228D01*
X138400Y720290D02*
X132220Y720290D01*
X132220Y722270D01*
X138400Y722270D01*
X138400Y720290D01*
X138400Y721259D02*
X132220Y721259D01*
X132220Y722228D02*
X138400Y722228D01*
X138400Y715290D02*
X132220Y715290D01*
X132220Y717270D01*
X138400Y717270D01*
X138400Y715290D01*
X138400Y716259D02*
X132220Y716259D01*
X132220Y717228D02*
X138400Y717228D01*
X374100Y715290D02*
X380280Y715290D01*
X374100Y715290D02*
X374100Y717270D01*
X380280Y717270D01*
X380280Y715290D01*
X380280Y716259D02*
X374100Y716259D01*
X374100Y717228D02*
X380280Y717228D01*
X380280Y720290D02*
X374100Y720290D01*
X374100Y722270D01*
X380280Y722270D01*
X380280Y720290D01*
X380280Y721259D02*
X374100Y721259D01*
X374100Y722228D02*
X380280Y722228D01*
X380280Y725290D02*
X374100Y725290D01*
X374100Y727270D01*
X380280Y727270D01*
X380280Y725290D01*
X380280Y726259D02*
X374100Y726259D01*
X374100Y727228D02*
X380280Y727228D01*
X380280Y730290D02*
X374100Y730290D01*
X374100Y732270D01*
X380280Y732270D01*
X380280Y730290D01*
X380280Y731259D02*
X374100Y731259D01*
X374100Y732228D02*
X380280Y732228D01*
X391300Y730290D02*
X397480Y730290D01*
X391300Y730290D02*
X391300Y732270D01*
X397480Y732270D01*
X397480Y730290D01*
X397480Y731259D02*
X391300Y731259D01*
X391300Y732228D02*
X397480Y732228D01*
X397480Y725290D02*
X391300Y725290D01*
X391300Y727270D01*
X397480Y727270D01*
X397480Y725290D01*
X397480Y726259D02*
X391300Y726259D01*
X391300Y727228D02*
X397480Y727228D01*
X397480Y720290D02*
X391300Y720290D01*
X391300Y722270D01*
X397480Y722270D01*
X397480Y720290D01*
X397480Y721259D02*
X391300Y721259D01*
X391300Y722228D02*
X397480Y722228D01*
X397480Y715290D02*
X391300Y715290D01*
X391300Y717270D01*
X397480Y717270D01*
X397480Y715290D01*
X397480Y716259D02*
X391300Y716259D01*
X391300Y717228D02*
X397480Y717228D01*
X633180Y715290D02*
X639360Y715290D01*
X633180Y715290D02*
X633180Y717270D01*
X639360Y717270D01*
X639360Y715290D01*
X639360Y716259D02*
X633180Y716259D01*
X633180Y717228D02*
X639360Y717228D01*
X639360Y720290D02*
X633180Y720290D01*
X633180Y722270D01*
X639360Y722270D01*
X639360Y720290D01*
X639360Y721259D02*
X633180Y721259D01*
X633180Y722228D02*
X639360Y722228D01*
X639360Y725290D02*
X633180Y725290D01*
X633180Y727270D01*
X639360Y727270D01*
X639360Y725290D01*
X639360Y726259D02*
X633180Y726259D01*
X633180Y727228D02*
X639360Y727228D01*
X639360Y730290D02*
X633180Y730290D01*
X633180Y732270D01*
X639360Y732270D01*
X639360Y730290D01*
X639360Y731259D02*
X633180Y731259D01*
X633180Y732228D02*
X639360Y732228D01*
X650380Y730290D02*
X656560Y730290D01*
X650380Y730290D02*
X650380Y732270D01*
X656560Y732270D01*
X656560Y730290D01*
X656560Y731259D02*
X650380Y731259D01*
X650380Y732228D02*
X656560Y732228D01*
X656560Y725290D02*
X650380Y725290D01*
X650380Y727270D01*
X656560Y727270D01*
X656560Y725290D01*
X656560Y726259D02*
X650380Y726259D01*
X650380Y727228D02*
X656560Y727228D01*
X656560Y720290D02*
X650380Y720290D01*
X650380Y722270D01*
X656560Y722270D01*
X656560Y720290D01*
X656560Y721259D02*
X650380Y721259D01*
X650380Y722228D02*
X656560Y722228D01*
X656560Y715290D02*
X650380Y715290D01*
X650380Y717270D01*
X656560Y717270D01*
X656560Y715290D01*
X656560Y716259D02*
X650380Y716259D01*
X650380Y717228D02*
X656560Y717228D01*
X892260Y715290D02*
X898440Y715290D01*
X892260Y715290D02*
X892260Y717270D01*
X898440Y717270D01*
X898440Y715290D01*
X898440Y716259D02*
X892260Y716259D01*
X892260Y717228D02*
X898440Y717228D01*
X898440Y720290D02*
X892260Y720290D01*
X892260Y722270D01*
X898440Y722270D01*
X898440Y720290D01*
X898440Y721259D02*
X892260Y721259D01*
X892260Y722228D02*
X898440Y722228D01*
X898440Y725290D02*
X892260Y725290D01*
X892260Y727270D01*
X898440Y727270D01*
X898440Y725290D01*
X898440Y726259D02*
X892260Y726259D01*
X892260Y727228D02*
X898440Y727228D01*
X898440Y730290D02*
X892260Y730290D01*
X892260Y732270D01*
X898440Y732270D01*
X898440Y730290D01*
X898440Y731259D02*
X892260Y731259D01*
X892260Y732228D02*
X898440Y732228D01*
X909460Y730290D02*
X915640Y730290D01*
X909460Y730290D02*
X909460Y732270D01*
X915640Y732270D01*
X915640Y730290D01*
X915640Y731259D02*
X909460Y731259D01*
X909460Y732228D02*
X915640Y732228D01*
X915640Y725290D02*
X909460Y725290D01*
X909460Y727270D01*
X915640Y727270D01*
X915640Y725290D01*
X915640Y726259D02*
X909460Y726259D01*
X909460Y727228D02*
X915640Y727228D01*
X915640Y720290D02*
X909460Y720290D01*
X909460Y722270D01*
X915640Y722270D01*
X915640Y720290D01*
X915640Y721259D02*
X909460Y721259D01*
X909460Y722228D02*
X915640Y722228D01*
X915640Y715290D02*
X909460Y715290D01*
X909460Y717270D01*
X915640Y717270D01*
X915640Y715290D01*
X915640Y716259D02*
X909460Y716259D01*
X909460Y717228D02*
X915640Y717228D01*
X121200Y847370D02*
X115020Y847370D01*
X115020Y849350D01*
X121200Y849350D01*
X121200Y847370D01*
X121200Y848339D02*
X115020Y848339D01*
X115020Y849308D02*
X121200Y849308D01*
X121200Y852370D02*
X115020Y852370D01*
X115020Y854350D01*
X121200Y854350D01*
X121200Y852370D01*
X121200Y853339D02*
X115020Y853339D01*
X115020Y854308D02*
X121200Y854308D01*
X121200Y857370D02*
X115020Y857370D01*
X115020Y859350D01*
X121200Y859350D01*
X121200Y857370D01*
X121200Y858339D02*
X115020Y858339D01*
X115020Y859308D02*
X121200Y859308D01*
X121200Y862370D02*
X115020Y862370D01*
X115020Y864350D01*
X121200Y864350D01*
X121200Y862370D01*
X121200Y863339D02*
X115020Y863339D01*
X115020Y864308D02*
X121200Y864308D01*
X132220Y862370D02*
X138400Y862370D01*
X132220Y862370D02*
X132220Y864350D01*
X138400Y864350D01*
X138400Y862370D01*
X138400Y863339D02*
X132220Y863339D01*
X132220Y864308D02*
X138400Y864308D01*
X138400Y857370D02*
X132220Y857370D01*
X132220Y859350D01*
X138400Y859350D01*
X138400Y857370D01*
X138400Y858339D02*
X132220Y858339D01*
X132220Y859308D02*
X138400Y859308D01*
X138400Y852370D02*
X132220Y852370D01*
X132220Y854350D01*
X138400Y854350D01*
X138400Y852370D01*
X138400Y853339D02*
X132220Y853339D01*
X132220Y854308D02*
X138400Y854308D01*
X138400Y847370D02*
X132220Y847370D01*
X132220Y849350D01*
X138400Y849350D01*
X138400Y847370D01*
X138400Y848339D02*
X132220Y848339D01*
X132220Y849308D02*
X138400Y849308D01*
X374100Y847370D02*
X380280Y847370D01*
X374100Y847370D02*
X374100Y849350D01*
X380280Y849350D01*
X380280Y847370D01*
X380280Y848339D02*
X374100Y848339D01*
X374100Y849308D02*
X380280Y849308D01*
X380280Y852370D02*
X374100Y852370D01*
X374100Y854350D01*
X380280Y854350D01*
X380280Y852370D01*
X380280Y853339D02*
X374100Y853339D01*
X374100Y854308D02*
X380280Y854308D01*
X380280Y857370D02*
X374100Y857370D01*
X374100Y859350D01*
X380280Y859350D01*
X380280Y857370D01*
X380280Y858339D02*
X374100Y858339D01*
X374100Y859308D02*
X380280Y859308D01*
X380280Y862370D02*
X374100Y862370D01*
X374100Y864350D01*
X380280Y864350D01*
X380280Y862370D01*
X380280Y863339D02*
X374100Y863339D01*
X374100Y864308D02*
X380280Y864308D01*
X391300Y862370D02*
X397480Y862370D01*
X391300Y862370D02*
X391300Y864350D01*
X397480Y864350D01*
X397480Y862370D01*
X397480Y863339D02*
X391300Y863339D01*
X391300Y864308D02*
X397480Y864308D01*
X397480Y857370D02*
X391300Y857370D01*
X391300Y859350D01*
X397480Y859350D01*
X397480Y857370D01*
X397480Y858339D02*
X391300Y858339D01*
X391300Y859308D02*
X397480Y859308D01*
X397480Y852370D02*
X391300Y852370D01*
X391300Y854350D01*
X397480Y854350D01*
X397480Y852370D01*
X397480Y853339D02*
X391300Y853339D01*
X391300Y854308D02*
X397480Y854308D01*
X397480Y847370D02*
X391300Y847370D01*
X391300Y849350D01*
X397480Y849350D01*
X397480Y847370D01*
X397480Y848339D02*
X391300Y848339D01*
X391300Y849308D02*
X397480Y849308D01*
X633180Y847370D02*
X639360Y847370D01*
X633180Y847370D02*
X633180Y849350D01*
X639360Y849350D01*
X639360Y847370D01*
X639360Y848339D02*
X633180Y848339D01*
X633180Y849308D02*
X639360Y849308D01*
X639360Y852370D02*
X633180Y852370D01*
X633180Y854350D01*
X639360Y854350D01*
X639360Y852370D01*
X639360Y853339D02*
X633180Y853339D01*
X633180Y854308D02*
X639360Y854308D01*
X639360Y857370D02*
X633180Y857370D01*
X633180Y859350D01*
X639360Y859350D01*
X639360Y857370D01*
X639360Y858339D02*
X633180Y858339D01*
X633180Y859308D02*
X639360Y859308D01*
X639360Y862370D02*
X633180Y862370D01*
X633180Y864350D01*
X639360Y864350D01*
X639360Y862370D01*
X639360Y863339D02*
X633180Y863339D01*
X633180Y864308D02*
X639360Y864308D01*
X650380Y862370D02*
X656560Y862370D01*
X650380Y862370D02*
X650380Y864350D01*
X656560Y864350D01*
X656560Y862370D01*
X656560Y863339D02*
X650380Y863339D01*
X650380Y864308D02*
X656560Y864308D01*
X656560Y857370D02*
X650380Y857370D01*
X650380Y859350D01*
X656560Y859350D01*
X656560Y857370D01*
X656560Y858339D02*
X650380Y858339D01*
X650380Y859308D02*
X656560Y859308D01*
X656560Y852370D02*
X650380Y852370D01*
X650380Y854350D01*
X656560Y854350D01*
X656560Y852370D01*
X656560Y853339D02*
X650380Y853339D01*
X650380Y854308D02*
X656560Y854308D01*
X656560Y847370D02*
X650380Y847370D01*
X650380Y849350D01*
X656560Y849350D01*
X656560Y847370D01*
X656560Y848339D02*
X650380Y848339D01*
X650380Y849308D02*
X656560Y849308D01*
X892260Y847370D02*
X898440Y847370D01*
X892260Y847370D02*
X892260Y849350D01*
X898440Y849350D01*
X898440Y847370D01*
X898440Y848339D02*
X892260Y848339D01*
X892260Y849308D02*
X898440Y849308D01*
X898440Y852370D02*
X892260Y852370D01*
X892260Y854350D01*
X898440Y854350D01*
X898440Y852370D01*
X898440Y853339D02*
X892260Y853339D01*
X892260Y854308D02*
X898440Y854308D01*
X898440Y857370D02*
X892260Y857370D01*
X892260Y859350D01*
X898440Y859350D01*
X898440Y857370D01*
X898440Y858339D02*
X892260Y858339D01*
X892260Y859308D02*
X898440Y859308D01*
X898440Y862370D02*
X892260Y862370D01*
X892260Y864350D01*
X898440Y864350D01*
X898440Y862370D01*
X898440Y863339D02*
X892260Y863339D01*
X892260Y864308D02*
X898440Y864308D01*
X909460Y862370D02*
X915640Y862370D01*
X909460Y862370D02*
X909460Y864350D01*
X915640Y864350D01*
X915640Y862370D01*
X915640Y863339D02*
X909460Y863339D01*
X909460Y864308D02*
X915640Y864308D01*
X915640Y857370D02*
X909460Y857370D01*
X909460Y859350D01*
X915640Y859350D01*
X915640Y857370D01*
X915640Y858339D02*
X909460Y858339D01*
X909460Y859308D02*
X915640Y859308D01*
X915640Y852370D02*
X909460Y852370D01*
X909460Y854350D01*
X915640Y854350D01*
X915640Y852370D01*
X915640Y853339D02*
X909460Y853339D01*
X909460Y854308D02*
X915640Y854308D01*
X915640Y847370D02*
X909460Y847370D01*
X909460Y849350D01*
X915640Y849350D01*
X915640Y847370D01*
X915640Y848339D02*
X909460Y848339D01*
X909460Y849308D02*
X915640Y849308D01*
X121200Y979450D02*
X115020Y979450D01*
X115020Y981430D01*
X121200Y981430D01*
X121200Y979450D01*
X121200Y980419D02*
X115020Y980419D01*
X115020Y981388D02*
X121200Y981388D01*
X121200Y984450D02*
X115020Y984450D01*
X115020Y986430D01*
X121200Y986430D01*
X121200Y984450D01*
X121200Y985419D02*
X115020Y985419D01*
X115020Y986388D02*
X121200Y986388D01*
X121200Y989450D02*
X115020Y989450D01*
X115020Y991430D01*
X121200Y991430D01*
X121200Y989450D01*
X121200Y990419D02*
X115020Y990419D01*
X115020Y991388D02*
X121200Y991388D01*
X121200Y994450D02*
X115020Y994450D01*
X115020Y996430D01*
X121200Y996430D01*
X121200Y994450D01*
X121200Y995419D02*
X115020Y995419D01*
X115020Y996388D02*
X121200Y996388D01*
X132220Y994450D02*
X138400Y994450D01*
X132220Y994450D02*
X132220Y996430D01*
X138400Y996430D01*
X138400Y994450D01*
X138400Y995419D02*
X132220Y995419D01*
X132220Y996388D02*
X138400Y996388D01*
X138400Y989450D02*
X132220Y989450D01*
X132220Y991430D01*
X138400Y991430D01*
X138400Y989450D01*
X138400Y990419D02*
X132220Y990419D01*
X132220Y991388D02*
X138400Y991388D01*
X138400Y984450D02*
X132220Y984450D01*
X132220Y986430D01*
X138400Y986430D01*
X138400Y984450D01*
X138400Y985419D02*
X132220Y985419D01*
X132220Y986388D02*
X138400Y986388D01*
X138400Y979450D02*
X132220Y979450D01*
X132220Y981430D01*
X138400Y981430D01*
X138400Y979450D01*
X138400Y980419D02*
X132220Y980419D01*
X132220Y981388D02*
X138400Y981388D01*
X374100Y979450D02*
X380280Y979450D01*
X374100Y979450D02*
X374100Y981430D01*
X380280Y981430D01*
X380280Y979450D01*
X380280Y980419D02*
X374100Y980419D01*
X374100Y981388D02*
X380280Y981388D01*
X380280Y984450D02*
X374100Y984450D01*
X374100Y986430D01*
X380280Y986430D01*
X380280Y984450D01*
X380280Y985419D02*
X374100Y985419D01*
X374100Y986388D02*
X380280Y986388D01*
X380280Y989450D02*
X374100Y989450D01*
X374100Y991430D01*
X380280Y991430D01*
X380280Y989450D01*
X380280Y990419D02*
X374100Y990419D01*
X374100Y991388D02*
X380280Y991388D01*
X380280Y994450D02*
X374100Y994450D01*
X374100Y996430D01*
X380280Y996430D01*
X380280Y994450D01*
X380280Y995419D02*
X374100Y995419D01*
X374100Y996388D02*
X380280Y996388D01*
X391300Y994450D02*
X397480Y994450D01*
X391300Y994450D02*
X391300Y996430D01*
X397480Y996430D01*
X397480Y994450D01*
X397480Y995419D02*
X391300Y995419D01*
X391300Y996388D02*
X397480Y996388D01*
X397480Y989450D02*
X391300Y989450D01*
X391300Y991430D01*
X397480Y991430D01*
X397480Y989450D01*
X397480Y990419D02*
X391300Y990419D01*
X391300Y991388D02*
X397480Y991388D01*
X397480Y984450D02*
X391300Y984450D01*
X391300Y986430D01*
X397480Y986430D01*
X397480Y984450D01*
X397480Y985419D02*
X391300Y985419D01*
X391300Y986388D02*
X397480Y986388D01*
X397480Y979450D02*
X391300Y979450D01*
X391300Y981430D01*
X397480Y981430D01*
X397480Y979450D01*
X397480Y980419D02*
X391300Y980419D01*
X391300Y981388D02*
X397480Y981388D01*
X633180Y979450D02*
X639360Y979450D01*
X633180Y979450D02*
X633180Y981430D01*
X639360Y981430D01*
X639360Y979450D01*
X639360Y980419D02*
X633180Y980419D01*
X633180Y981388D02*
X639360Y981388D01*
X639360Y984450D02*
X633180Y984450D01*
X633180Y986430D01*
X639360Y986430D01*
X639360Y984450D01*
X639360Y985419D02*
X633180Y985419D01*
X633180Y986388D02*
X639360Y986388D01*
X639360Y989450D02*
X633180Y989450D01*
X633180Y991430D01*
X639360Y991430D01*
X639360Y989450D01*
X639360Y990419D02*
X633180Y990419D01*
X633180Y991388D02*
X639360Y991388D01*
X639360Y994450D02*
X633180Y994450D01*
X633180Y996430D01*
X639360Y996430D01*
X639360Y994450D01*
X639360Y995419D02*
X633180Y995419D01*
X633180Y996388D02*
X639360Y996388D01*
X650380Y994450D02*
X656560Y994450D01*
X650380Y994450D02*
X650380Y996430D01*
X656560Y996430D01*
X656560Y994450D01*
X656560Y995419D02*
X650380Y995419D01*
X650380Y996388D02*
X656560Y996388D01*
X656560Y989450D02*
X650380Y989450D01*
X650380Y991430D01*
X656560Y991430D01*
X656560Y989450D01*
X656560Y990419D02*
X650380Y990419D01*
X650380Y991388D02*
X656560Y991388D01*
X656560Y984450D02*
X650380Y984450D01*
X650380Y986430D01*
X656560Y986430D01*
X656560Y984450D01*
X656560Y985419D02*
X650380Y985419D01*
X650380Y986388D02*
X656560Y986388D01*
X656560Y979450D02*
X650380Y979450D01*
X650380Y981430D01*
X656560Y981430D01*
X656560Y979450D01*
X656560Y980419D02*
X650380Y980419D01*
X650380Y981388D02*
X656560Y981388D01*
X892260Y979450D02*
X898440Y979450D01*
X892260Y979450D02*
X892260Y981430D01*
X898440Y981430D01*
X898440Y979450D01*
X898440Y980419D02*
X892260Y980419D01*
X892260Y981388D02*
X898440Y981388D01*
X898440Y984450D02*
X892260Y984450D01*
X892260Y986430D01*
X898440Y986430D01*
X898440Y984450D01*
X898440Y985419D02*
X892260Y985419D01*
X892260Y986388D02*
X898440Y986388D01*
X898440Y989450D02*
X892260Y989450D01*
X892260Y991430D01*
X898440Y991430D01*
X898440Y989450D01*
X898440Y990419D02*
X892260Y990419D01*
X892260Y991388D02*
X898440Y991388D01*
X898440Y994450D02*
X892260Y994450D01*
X892260Y996430D01*
X898440Y996430D01*
X898440Y994450D01*
X898440Y995419D02*
X892260Y995419D01*
X892260Y996388D02*
X898440Y996388D01*
X909460Y994450D02*
X915640Y994450D01*
X909460Y994450D02*
X909460Y996430D01*
X915640Y996430D01*
X915640Y994450D01*
X915640Y995419D02*
X909460Y995419D01*
X909460Y996388D02*
X915640Y996388D01*
X915640Y989450D02*
X909460Y989450D01*
X909460Y991430D01*
X915640Y991430D01*
X915640Y989450D01*
X915640Y990419D02*
X909460Y990419D01*
X909460Y991388D02*
X915640Y991388D01*
X915640Y984450D02*
X909460Y984450D01*
X909460Y986430D01*
X915640Y986430D01*
X915640Y984450D01*
X915640Y985419D02*
X909460Y985419D01*
X909460Y986388D02*
X915640Y986388D01*
X915640Y979450D02*
X909460Y979450D01*
X909460Y981430D01*
X915640Y981430D01*
X915640Y979450D01*
X915640Y980419D02*
X909460Y980419D01*
X909460Y981388D02*
X915640Y981388D01*
X121200Y1111530D02*
X115020Y1111530D01*
X115020Y1113510D01*
X121200Y1113510D01*
X121200Y1111530D01*
X121200Y1112499D02*
X115020Y1112499D01*
X115020Y1113468D02*
X121200Y1113468D01*
X121200Y1116530D02*
X115020Y1116530D01*
X115020Y1118510D01*
X121200Y1118510D01*
X121200Y1116530D01*
X121200Y1117499D02*
X115020Y1117499D01*
X115020Y1118468D02*
X121200Y1118468D01*
X121200Y1121530D02*
X115020Y1121530D01*
X115020Y1123510D01*
X121200Y1123510D01*
X121200Y1121530D01*
X121200Y1122499D02*
X115020Y1122499D01*
X115020Y1123468D02*
X121200Y1123468D01*
X121200Y1126530D02*
X115020Y1126530D01*
X115020Y1128510D01*
X121200Y1128510D01*
X121200Y1126530D01*
X121200Y1127499D02*
X115020Y1127499D01*
X115020Y1128468D02*
X121200Y1128468D01*
X132220Y1126530D02*
X138400Y1126530D01*
X132220Y1126530D02*
X132220Y1128510D01*
X138400Y1128510D01*
X138400Y1126530D01*
X138400Y1127499D02*
X132220Y1127499D01*
X132220Y1128468D02*
X138400Y1128468D01*
X138400Y1121530D02*
X132220Y1121530D01*
X132220Y1123510D01*
X138400Y1123510D01*
X138400Y1121530D01*
X138400Y1122499D02*
X132220Y1122499D01*
X132220Y1123468D02*
X138400Y1123468D01*
X138400Y1116530D02*
X132220Y1116530D01*
X132220Y1118510D01*
X138400Y1118510D01*
X138400Y1116530D01*
X138400Y1117499D02*
X132220Y1117499D01*
X132220Y1118468D02*
X138400Y1118468D01*
X138400Y1111530D02*
X132220Y1111530D01*
X132220Y1113510D01*
X138400Y1113510D01*
X138400Y1111530D01*
X138400Y1112499D02*
X132220Y1112499D01*
X132220Y1113468D02*
X138400Y1113468D01*
X374100Y1111530D02*
X380280Y1111530D01*
X374100Y1111530D02*
X374100Y1113510D01*
X380280Y1113510D01*
X380280Y1111530D01*
X380280Y1112499D02*
X374100Y1112499D01*
X374100Y1113468D02*
X380280Y1113468D01*
X380280Y1116530D02*
X374100Y1116530D01*
X374100Y1118510D01*
X380280Y1118510D01*
X380280Y1116530D01*
X380280Y1117499D02*
X374100Y1117499D01*
X374100Y1118468D02*
X380280Y1118468D01*
X380280Y1121530D02*
X374100Y1121530D01*
X374100Y1123510D01*
X380280Y1123510D01*
X380280Y1121530D01*
X380280Y1122499D02*
X374100Y1122499D01*
X374100Y1123468D02*
X380280Y1123468D01*
X380280Y1126530D02*
X374100Y1126530D01*
X374100Y1128510D01*
X380280Y1128510D01*
X380280Y1126530D01*
X380280Y1127499D02*
X374100Y1127499D01*
X374100Y1128468D02*
X380280Y1128468D01*
X391300Y1126530D02*
X397480Y1126530D01*
X391300Y1126530D02*
X391300Y1128510D01*
X397480Y1128510D01*
X397480Y1126530D01*
X397480Y1127499D02*
X391300Y1127499D01*
X391300Y1128468D02*
X397480Y1128468D01*
X397480Y1121530D02*
X391300Y1121530D01*
X391300Y1123510D01*
X397480Y1123510D01*
X397480Y1121530D01*
X397480Y1122499D02*
X391300Y1122499D01*
X391300Y1123468D02*
X397480Y1123468D01*
X397480Y1116530D02*
X391300Y1116530D01*
X391300Y1118510D01*
X397480Y1118510D01*
X397480Y1116530D01*
X397480Y1117499D02*
X391300Y1117499D01*
X391300Y1118468D02*
X397480Y1118468D01*
X397480Y1111530D02*
X391300Y1111530D01*
X391300Y1113510D01*
X397480Y1113510D01*
X397480Y1111530D01*
X397480Y1112499D02*
X391300Y1112499D01*
X391300Y1113468D02*
X397480Y1113468D01*
X633180Y1111530D02*
X639360Y1111530D01*
X633180Y1111530D02*
X633180Y1113510D01*
X639360Y1113510D01*
X639360Y1111530D01*
X639360Y1112499D02*
X633180Y1112499D01*
X633180Y1113468D02*
X639360Y1113468D01*
X639360Y1116530D02*
X633180Y1116530D01*
X633180Y1118510D01*
X639360Y1118510D01*
X639360Y1116530D01*
X639360Y1117499D02*
X633180Y1117499D01*
X633180Y1118468D02*
X639360Y1118468D01*
X639360Y1121530D02*
X633180Y1121530D01*
X633180Y1123510D01*
X639360Y1123510D01*
X639360Y1121530D01*
X639360Y1122499D02*
X633180Y1122499D01*
X633180Y1123468D02*
X639360Y1123468D01*
X639360Y1126530D02*
X633180Y1126530D01*
X633180Y1128510D01*
X639360Y1128510D01*
X639360Y1126530D01*
X639360Y1127499D02*
X633180Y1127499D01*
X633180Y1128468D02*
X639360Y1128468D01*
X650380Y1126530D02*
X656560Y1126530D01*
X650380Y1126530D02*
X650380Y1128510D01*
X656560Y1128510D01*
X656560Y1126530D01*
X656560Y1127499D02*
X650380Y1127499D01*
X650380Y1128468D02*
X656560Y1128468D01*
X656560Y1121530D02*
X650380Y1121530D01*
X650380Y1123510D01*
X656560Y1123510D01*
X656560Y1121530D01*
X656560Y1122499D02*
X650380Y1122499D01*
X650380Y1123468D02*
X656560Y1123468D01*
X656560Y1116530D02*
X650380Y1116530D01*
X650380Y1118510D01*
X656560Y1118510D01*
X656560Y1116530D01*
X656560Y1117499D02*
X650380Y1117499D01*
X650380Y1118468D02*
X656560Y1118468D01*
X656560Y1111530D02*
X650380Y1111530D01*
X650380Y1113510D01*
X656560Y1113510D01*
X656560Y1111530D01*
X656560Y1112499D02*
X650380Y1112499D01*
X650380Y1113468D02*
X656560Y1113468D01*
X892260Y1111530D02*
X898440Y1111530D01*
X892260Y1111530D02*
X892260Y1113510D01*
X898440Y1113510D01*
X898440Y1111530D01*
X898440Y1112499D02*
X892260Y1112499D01*
X892260Y1113468D02*
X898440Y1113468D01*
X898440Y1116530D02*
X892260Y1116530D01*
X892260Y1118510D01*
X898440Y1118510D01*
X898440Y1116530D01*
X898440Y1117499D02*
X892260Y1117499D01*
X892260Y1118468D02*
X898440Y1118468D01*
X898440Y1121530D02*
X892260Y1121530D01*
X892260Y1123510D01*
X898440Y1123510D01*
X898440Y1121530D01*
X898440Y1122499D02*
X892260Y1122499D01*
X892260Y1123468D02*
X898440Y1123468D01*
X898440Y1126530D02*
X892260Y1126530D01*
X892260Y1128510D01*
X898440Y1128510D01*
X898440Y1126530D01*
X898440Y1127499D02*
X892260Y1127499D01*
X892260Y1128468D02*
X898440Y1128468D01*
X909460Y1126530D02*
X915640Y1126530D01*
X909460Y1126530D02*
X909460Y1128510D01*
X915640Y1128510D01*
X915640Y1126530D01*
X915640Y1127499D02*
X909460Y1127499D01*
X909460Y1128468D02*
X915640Y1128468D01*
X915640Y1121530D02*
X909460Y1121530D01*
X909460Y1123510D01*
X915640Y1123510D01*
X915640Y1121530D01*
X915640Y1122499D02*
X909460Y1122499D01*
X909460Y1123468D02*
X915640Y1123468D01*
X915640Y1116530D02*
X909460Y1116530D01*
X909460Y1118510D01*
X915640Y1118510D01*
X915640Y1116530D01*
X915640Y1117499D02*
X909460Y1117499D01*
X909460Y1118468D02*
X915640Y1118468D01*
X915640Y1111530D02*
X909460Y1111530D01*
X909460Y1113510D01*
X915640Y1113510D01*
X915640Y1111530D01*
X915640Y1112499D02*
X909460Y1112499D01*
X909460Y1113468D02*
X915640Y1113468D01*
X121200Y1243610D02*
X115020Y1243610D01*
X115020Y1245590D01*
X121200Y1245590D01*
X121200Y1243610D01*
X121200Y1244579D02*
X115020Y1244579D01*
X115020Y1245548D02*
X121200Y1245548D01*
X121200Y1248610D02*
X115020Y1248610D01*
X115020Y1250590D01*
X121200Y1250590D01*
X121200Y1248610D01*
X121200Y1249579D02*
X115020Y1249579D01*
X115020Y1250548D02*
X121200Y1250548D01*
X121200Y1253610D02*
X115020Y1253610D01*
X115020Y1255590D01*
X121200Y1255590D01*
X121200Y1253610D01*
X121200Y1254579D02*
X115020Y1254579D01*
X115020Y1255548D02*
X121200Y1255548D01*
X121200Y1258610D02*
X115020Y1258610D01*
X115020Y1260590D01*
X121200Y1260590D01*
X121200Y1258610D01*
X121200Y1259579D02*
X115020Y1259579D01*
X115020Y1260548D02*
X121200Y1260548D01*
X132220Y1258610D02*
X138400Y1258610D01*
X132220Y1258610D02*
X132220Y1260590D01*
X138400Y1260590D01*
X138400Y1258610D01*
X138400Y1259579D02*
X132220Y1259579D01*
X132220Y1260548D02*
X138400Y1260548D01*
X138400Y1253610D02*
X132220Y1253610D01*
X132220Y1255590D01*
X138400Y1255590D01*
X138400Y1253610D01*
X138400Y1254579D02*
X132220Y1254579D01*
X132220Y1255548D02*
X138400Y1255548D01*
X138400Y1248610D02*
X132220Y1248610D01*
X132220Y1250590D01*
X138400Y1250590D01*
X138400Y1248610D01*
X138400Y1249579D02*
X132220Y1249579D01*
X132220Y1250548D02*
X138400Y1250548D01*
X138400Y1243610D02*
X132220Y1243610D01*
X132220Y1245590D01*
X138400Y1245590D01*
X138400Y1243610D01*
X138400Y1244579D02*
X132220Y1244579D01*
X132220Y1245548D02*
X138400Y1245548D01*
X374100Y1243610D02*
X380280Y1243610D01*
X374100Y1243610D02*
X374100Y1245590D01*
X380280Y1245590D01*
X380280Y1243610D01*
X380280Y1244579D02*
X374100Y1244579D01*
X374100Y1245548D02*
X380280Y1245548D01*
X380280Y1248610D02*
X374100Y1248610D01*
X374100Y1250590D01*
X380280Y1250590D01*
X380280Y1248610D01*
X380280Y1249579D02*
X374100Y1249579D01*
X374100Y1250548D02*
X380280Y1250548D01*
X380280Y1253610D02*
X374100Y1253610D01*
X374100Y1255590D01*
X380280Y1255590D01*
X380280Y1253610D01*
X380280Y1254579D02*
X374100Y1254579D01*
X374100Y1255548D02*
X380280Y1255548D01*
X380280Y1258610D02*
X374100Y1258610D01*
X374100Y1260590D01*
X380280Y1260590D01*
X380280Y1258610D01*
X380280Y1259579D02*
X374100Y1259579D01*
X374100Y1260548D02*
X380280Y1260548D01*
X391300Y1258610D02*
X397480Y1258610D01*
X391300Y1258610D02*
X391300Y1260590D01*
X397480Y1260590D01*
X397480Y1258610D01*
X397480Y1259579D02*
X391300Y1259579D01*
X391300Y1260548D02*
X397480Y1260548D01*
X397480Y1253610D02*
X391300Y1253610D01*
X391300Y1255590D01*
X397480Y1255590D01*
X397480Y1253610D01*
X397480Y1254579D02*
X391300Y1254579D01*
X391300Y1255548D02*
X397480Y1255548D01*
X397480Y1248610D02*
X391300Y1248610D01*
X391300Y1250590D01*
X397480Y1250590D01*
X397480Y1248610D01*
X397480Y1249579D02*
X391300Y1249579D01*
X391300Y1250548D02*
X397480Y1250548D01*
X397480Y1243610D02*
X391300Y1243610D01*
X391300Y1245590D01*
X397480Y1245590D01*
X397480Y1243610D01*
X397480Y1244579D02*
X391300Y1244579D01*
X391300Y1245548D02*
X397480Y1245548D01*
X633180Y1243610D02*
X639360Y1243610D01*
X633180Y1243610D02*
X633180Y1245590D01*
X639360Y1245590D01*
X639360Y1243610D01*
X639360Y1244579D02*
X633180Y1244579D01*
X633180Y1245548D02*
X639360Y1245548D01*
X639360Y1248610D02*
X633180Y1248610D01*
X633180Y1250590D01*
X639360Y1250590D01*
X639360Y1248610D01*
X639360Y1249579D02*
X633180Y1249579D01*
X633180Y1250548D02*
X639360Y1250548D01*
X639360Y1253610D02*
X633180Y1253610D01*
X633180Y1255590D01*
X639360Y1255590D01*
X639360Y1253610D01*
X639360Y1254579D02*
X633180Y1254579D01*
X633180Y1255548D02*
X639360Y1255548D01*
X639360Y1258610D02*
X633180Y1258610D01*
X633180Y1260590D01*
X639360Y1260590D01*
X639360Y1258610D01*
X639360Y1259579D02*
X633180Y1259579D01*
X633180Y1260548D02*
X639360Y1260548D01*
X650380Y1258610D02*
X656560Y1258610D01*
X650380Y1258610D02*
X650380Y1260590D01*
X656560Y1260590D01*
X656560Y1258610D01*
X656560Y1259579D02*
X650380Y1259579D01*
X650380Y1260548D02*
X656560Y1260548D01*
X656560Y1253610D02*
X650380Y1253610D01*
X650380Y1255590D01*
X656560Y1255590D01*
X656560Y1253610D01*
X656560Y1254579D02*
X650380Y1254579D01*
X650380Y1255548D02*
X656560Y1255548D01*
X656560Y1248610D02*
X650380Y1248610D01*
X650380Y1250590D01*
X656560Y1250590D01*
X656560Y1248610D01*
X656560Y1249579D02*
X650380Y1249579D01*
X650380Y1250548D02*
X656560Y1250548D01*
X656560Y1243610D02*
X650380Y1243610D01*
X650380Y1245590D01*
X656560Y1245590D01*
X656560Y1243610D01*
X656560Y1244579D02*
X650380Y1244579D01*
X650380Y1245548D02*
X656560Y1245548D01*
X892260Y1243610D02*
X898440Y1243610D01*
X892260Y1243610D02*
X892260Y1245590D01*
X898440Y1245590D01*
X898440Y1243610D01*
X898440Y1244579D02*
X892260Y1244579D01*
X892260Y1245548D02*
X898440Y1245548D01*
X898440Y1248610D02*
X892260Y1248610D01*
X892260Y1250590D01*
X898440Y1250590D01*
X898440Y1248610D01*
X898440Y1249579D02*
X892260Y1249579D01*
X892260Y1250548D02*
X898440Y1250548D01*
X898440Y1253610D02*
X892260Y1253610D01*
X892260Y1255590D01*
X898440Y1255590D01*
X898440Y1253610D01*
X898440Y1254579D02*
X892260Y1254579D01*
X892260Y1255548D02*
X898440Y1255548D01*
X898440Y1258610D02*
X892260Y1258610D01*
X892260Y1260590D01*
X898440Y1260590D01*
X898440Y1258610D01*
X898440Y1259579D02*
X892260Y1259579D01*
X892260Y1260548D02*
X898440Y1260548D01*
X909460Y1258610D02*
X915640Y1258610D01*
X909460Y1258610D02*
X909460Y1260590D01*
X915640Y1260590D01*
X915640Y1258610D01*
X915640Y1259579D02*
X909460Y1259579D01*
X909460Y1260548D02*
X915640Y1260548D01*
X915640Y1253610D02*
X909460Y1253610D01*
X909460Y1255590D01*
X915640Y1255590D01*
X915640Y1253610D01*
X915640Y1254579D02*
X909460Y1254579D01*
X909460Y1255548D02*
X915640Y1255548D01*
X915640Y1248610D02*
X909460Y1248610D01*
X909460Y1250590D01*
X915640Y1250590D01*
X915640Y1248610D01*
X915640Y1249579D02*
X909460Y1249579D01*
X909460Y1250548D02*
X915640Y1250548D01*
X915640Y1243610D02*
X909460Y1243610D01*
X909460Y1245590D01*
X915640Y1245590D01*
X915640Y1243610D01*
X915640Y1244579D02*
X909460Y1244579D01*
X909460Y1245548D02*
X915640Y1245548D01*
X121200Y1375690D02*
X115020Y1375690D01*
X115020Y1377670D01*
X121200Y1377670D01*
X121200Y1375690D01*
X121200Y1376659D02*
X115020Y1376659D01*
X115020Y1377628D02*
X121200Y1377628D01*
X121200Y1380690D02*
X115020Y1380690D01*
X115020Y1382670D01*
X121200Y1382670D01*
X121200Y1380690D01*
X121200Y1381659D02*
X115020Y1381659D01*
X115020Y1382628D02*
X121200Y1382628D01*
X121200Y1385690D02*
X115020Y1385690D01*
X115020Y1387670D01*
X121200Y1387670D01*
X121200Y1385690D01*
X121200Y1386659D02*
X115020Y1386659D01*
X115020Y1387628D02*
X121200Y1387628D01*
X121200Y1390690D02*
X115020Y1390690D01*
X115020Y1392670D01*
X121200Y1392670D01*
X121200Y1390690D01*
X121200Y1391659D02*
X115020Y1391659D01*
X115020Y1392628D02*
X121200Y1392628D01*
X132220Y1390690D02*
X138400Y1390690D01*
X132220Y1390690D02*
X132220Y1392670D01*
X138400Y1392670D01*
X138400Y1390690D01*
X138400Y1391659D02*
X132220Y1391659D01*
X132220Y1392628D02*
X138400Y1392628D01*
X138400Y1385690D02*
X132220Y1385690D01*
X132220Y1387670D01*
X138400Y1387670D01*
X138400Y1385690D01*
X138400Y1386659D02*
X132220Y1386659D01*
X132220Y1387628D02*
X138400Y1387628D01*
X138400Y1380690D02*
X132220Y1380690D01*
X132220Y1382670D01*
X138400Y1382670D01*
X138400Y1380690D01*
X138400Y1381659D02*
X132220Y1381659D01*
X132220Y1382628D02*
X138400Y1382628D01*
X138400Y1375690D02*
X132220Y1375690D01*
X132220Y1377670D01*
X138400Y1377670D01*
X138400Y1375690D01*
X138400Y1376659D02*
X132220Y1376659D01*
X132220Y1377628D02*
X138400Y1377628D01*
X374100Y1375690D02*
X380280Y1375690D01*
X374100Y1375690D02*
X374100Y1377670D01*
X380280Y1377670D01*
X380280Y1375690D01*
X380280Y1376659D02*
X374100Y1376659D01*
X374100Y1377628D02*
X380280Y1377628D01*
X380280Y1380690D02*
X374100Y1380690D01*
X374100Y1382670D01*
X380280Y1382670D01*
X380280Y1380690D01*
X380280Y1381659D02*
X374100Y1381659D01*
X374100Y1382628D02*
X380280Y1382628D01*
X380280Y1385690D02*
X374100Y1385690D01*
X374100Y1387670D01*
X380280Y1387670D01*
X380280Y1385690D01*
X380280Y1386659D02*
X374100Y1386659D01*
X374100Y1387628D02*
X380280Y1387628D01*
X380280Y1390690D02*
X374100Y1390690D01*
X374100Y1392670D01*
X380280Y1392670D01*
X380280Y1390690D01*
X380280Y1391659D02*
X374100Y1391659D01*
X374100Y1392628D02*
X380280Y1392628D01*
X391300Y1390690D02*
X397480Y1390690D01*
X391300Y1390690D02*
X391300Y1392670D01*
X397480Y1392670D01*
X397480Y1390690D01*
X397480Y1391659D02*
X391300Y1391659D01*
X391300Y1392628D02*
X397480Y1392628D01*
X397480Y1385690D02*
X391300Y1385690D01*
X391300Y1387670D01*
X397480Y1387670D01*
X397480Y1385690D01*
X397480Y1386659D02*
X391300Y1386659D01*
X391300Y1387628D02*
X397480Y1387628D01*
X397480Y1380690D02*
X391300Y1380690D01*
X391300Y1382670D01*
X397480Y1382670D01*
X397480Y1380690D01*
X397480Y1381659D02*
X391300Y1381659D01*
X391300Y1382628D02*
X397480Y1382628D01*
X397480Y1375690D02*
X391300Y1375690D01*
X391300Y1377670D01*
X397480Y1377670D01*
X397480Y1375690D01*
X397480Y1376659D02*
X391300Y1376659D01*
X391300Y1377628D02*
X397480Y1377628D01*
X633180Y1375690D02*
X639360Y1375690D01*
X633180Y1375690D02*
X633180Y1377670D01*
X639360Y1377670D01*
X639360Y1375690D01*
X639360Y1376659D02*
X633180Y1376659D01*
X633180Y1377628D02*
X639360Y1377628D01*
X639360Y1380690D02*
X633180Y1380690D01*
X633180Y1382670D01*
X639360Y1382670D01*
X639360Y1380690D01*
X639360Y1381659D02*
X633180Y1381659D01*
X633180Y1382628D02*
X639360Y1382628D01*
X639360Y1385690D02*
X633180Y1385690D01*
X633180Y1387670D01*
X639360Y1387670D01*
X639360Y1385690D01*
X639360Y1386659D02*
X633180Y1386659D01*
X633180Y1387628D02*
X639360Y1387628D01*
X639360Y1390690D02*
X633180Y1390690D01*
X633180Y1392670D01*
X639360Y1392670D01*
X639360Y1390690D01*
X639360Y1391659D02*
X633180Y1391659D01*
X633180Y1392628D02*
X639360Y1392628D01*
X650380Y1390690D02*
X656560Y1390690D01*
X650380Y1390690D02*
X650380Y1392670D01*
X656560Y1392670D01*
X656560Y1390690D01*
X656560Y1391659D02*
X650380Y1391659D01*
X650380Y1392628D02*
X656560Y1392628D01*
X656560Y1385690D02*
X650380Y1385690D01*
X650380Y1387670D01*
X656560Y1387670D01*
X656560Y1385690D01*
X656560Y1386659D02*
X650380Y1386659D01*
X650380Y1387628D02*
X656560Y1387628D01*
X656560Y1380690D02*
X650380Y1380690D01*
X650380Y1382670D01*
X656560Y1382670D01*
X656560Y1380690D01*
X656560Y1381659D02*
X650380Y1381659D01*
X650380Y1382628D02*
X656560Y1382628D01*
X656560Y1375690D02*
X650380Y1375690D01*
X650380Y1377670D01*
X656560Y1377670D01*
X656560Y1375690D01*
X656560Y1376659D02*
X650380Y1376659D01*
X650380Y1377628D02*
X656560Y1377628D01*
X892260Y1375690D02*
X898440Y1375690D01*
X892260Y1375690D02*
X892260Y1377670D01*
X898440Y1377670D01*
X898440Y1375690D01*
X898440Y1376659D02*
X892260Y1376659D01*
X892260Y1377628D02*
X898440Y1377628D01*
X898440Y1380690D02*
X892260Y1380690D01*
X892260Y1382670D01*
X898440Y1382670D01*
X898440Y1380690D01*
X898440Y1381659D02*
X892260Y1381659D01*
X892260Y1382628D02*
X898440Y1382628D01*
X898440Y1385690D02*
X892260Y1385690D01*
X892260Y1387670D01*
X898440Y1387670D01*
X898440Y1385690D01*
X898440Y1386659D02*
X892260Y1386659D01*
X892260Y1387628D02*
X898440Y1387628D01*
X898440Y1390690D02*
X892260Y1390690D01*
X892260Y1392670D01*
X898440Y1392670D01*
X898440Y1390690D01*
X898440Y1391659D02*
X892260Y1391659D01*
X892260Y1392628D02*
X898440Y1392628D01*
X909460Y1390690D02*
X915640Y1390690D01*
X909460Y1390690D02*
X909460Y1392670D01*
X915640Y1392670D01*
X915640Y1390690D01*
X915640Y1391659D02*
X909460Y1391659D01*
X909460Y1392628D02*
X915640Y1392628D01*
X915640Y1385690D02*
X909460Y1385690D01*
X909460Y1387670D01*
X915640Y1387670D01*
X915640Y1385690D01*
X915640Y1386659D02*
X909460Y1386659D01*
X909460Y1387628D02*
X915640Y1387628D01*
X915640Y1380690D02*
X909460Y1380690D01*
X909460Y1382670D01*
X915640Y1382670D01*
X915640Y1380690D01*
X915640Y1381659D02*
X909460Y1381659D01*
X909460Y1382628D02*
X915640Y1382628D01*
X915640Y1375690D02*
X909460Y1375690D01*
X909460Y1377670D01*
X915640Y1377670D01*
X915640Y1375690D01*
X915640Y1376659D02*
X909460Y1376659D01*
X909460Y1377628D02*
X915640Y1377628D01*
X121200Y1507770D02*
X115020Y1507770D01*
X115020Y1509750D01*
X121200Y1509750D01*
X121200Y1507770D01*
X121200Y1508739D02*
X115020Y1508739D01*
X115020Y1509708D02*
X121200Y1509708D01*
X121200Y1512770D02*
X115020Y1512770D01*
X115020Y1514750D01*
X121200Y1514750D01*
X121200Y1512770D01*
X121200Y1513739D02*
X115020Y1513739D01*
X115020Y1514708D02*
X121200Y1514708D01*
X121200Y1517770D02*
X115020Y1517770D01*
X115020Y1519750D01*
X121200Y1519750D01*
X121200Y1517770D01*
X121200Y1518739D02*
X115020Y1518739D01*
X115020Y1519708D02*
X121200Y1519708D01*
X121200Y1522770D02*
X115020Y1522770D01*
X115020Y1524750D01*
X121200Y1524750D01*
X121200Y1522770D01*
X121200Y1523739D02*
X115020Y1523739D01*
X115020Y1524708D02*
X121200Y1524708D01*
X132220Y1522770D02*
X138400Y1522770D01*
X132220Y1522770D02*
X132220Y1524750D01*
X138400Y1524750D01*
X138400Y1522770D01*
X138400Y1523739D02*
X132220Y1523739D01*
X132220Y1524708D02*
X138400Y1524708D01*
X138400Y1517770D02*
X132220Y1517770D01*
X132220Y1519750D01*
X138400Y1519750D01*
X138400Y1517770D01*
X138400Y1518739D02*
X132220Y1518739D01*
X132220Y1519708D02*
X138400Y1519708D01*
X138400Y1512770D02*
X132220Y1512770D01*
X132220Y1514750D01*
X138400Y1514750D01*
X138400Y1512770D01*
X138400Y1513739D02*
X132220Y1513739D01*
X132220Y1514708D02*
X138400Y1514708D01*
X138400Y1507770D02*
X132220Y1507770D01*
X132220Y1509750D01*
X138400Y1509750D01*
X138400Y1507770D01*
X138400Y1508739D02*
X132220Y1508739D01*
X132220Y1509708D02*
X138400Y1509708D01*
X374100Y1507770D02*
X380280Y1507770D01*
X374100Y1507770D02*
X374100Y1509750D01*
X380280Y1509750D01*
X380280Y1507770D01*
X380280Y1508739D02*
X374100Y1508739D01*
X374100Y1509708D02*
X380280Y1509708D01*
X380280Y1512770D02*
X374100Y1512770D01*
X374100Y1514750D01*
X380280Y1514750D01*
X380280Y1512770D01*
X380280Y1513739D02*
X374100Y1513739D01*
X374100Y1514708D02*
X380280Y1514708D01*
X380280Y1517770D02*
X374100Y1517770D01*
X374100Y1519750D01*
X380280Y1519750D01*
X380280Y1517770D01*
X380280Y1518739D02*
X374100Y1518739D01*
X374100Y1519708D02*
X380280Y1519708D01*
X380280Y1522770D02*
X374100Y1522770D01*
X374100Y1524750D01*
X380280Y1524750D01*
X380280Y1522770D01*
X380280Y1523739D02*
X374100Y1523739D01*
X374100Y1524708D02*
X380280Y1524708D01*
X391300Y1522770D02*
X397480Y1522770D01*
X391300Y1522770D02*
X391300Y1524750D01*
X397480Y1524750D01*
X397480Y1522770D01*
X397480Y1523739D02*
X391300Y1523739D01*
X391300Y1524708D02*
X397480Y1524708D01*
X397480Y1517770D02*
X391300Y1517770D01*
X391300Y1519750D01*
X397480Y1519750D01*
X397480Y1517770D01*
X397480Y1518739D02*
X391300Y1518739D01*
X391300Y1519708D02*
X397480Y1519708D01*
X397480Y1512770D02*
X391300Y1512770D01*
X391300Y1514750D01*
X397480Y1514750D01*
X397480Y1512770D01*
X397480Y1513739D02*
X391300Y1513739D01*
X391300Y1514708D02*
X397480Y1514708D01*
X397480Y1507770D02*
X391300Y1507770D01*
X391300Y1509750D01*
X397480Y1509750D01*
X397480Y1507770D01*
X397480Y1508739D02*
X391300Y1508739D01*
X391300Y1509708D02*
X397480Y1509708D01*
X633180Y1507770D02*
X639360Y1507770D01*
X633180Y1507770D02*
X633180Y1509750D01*
X639360Y1509750D01*
X639360Y1507770D01*
X639360Y1508739D02*
X633180Y1508739D01*
X633180Y1509708D02*
X639360Y1509708D01*
X639360Y1512770D02*
X633180Y1512770D01*
X633180Y1514750D01*
X639360Y1514750D01*
X639360Y1512770D01*
X639360Y1513739D02*
X633180Y1513739D01*
X633180Y1514708D02*
X639360Y1514708D01*
X639360Y1517770D02*
X633180Y1517770D01*
X633180Y1519750D01*
X639360Y1519750D01*
X639360Y1517770D01*
X639360Y1518739D02*
X633180Y1518739D01*
X633180Y1519708D02*
X639360Y1519708D01*
X639360Y1522770D02*
X633180Y1522770D01*
X633180Y1524750D01*
X639360Y1524750D01*
X639360Y1522770D01*
X639360Y1523739D02*
X633180Y1523739D01*
X633180Y1524708D02*
X639360Y1524708D01*
X650380Y1522770D02*
X656560Y1522770D01*
X650380Y1522770D02*
X650380Y1524750D01*
X656560Y1524750D01*
X656560Y1522770D01*
X656560Y1523739D02*
X650380Y1523739D01*
X650380Y1524708D02*
X656560Y1524708D01*
X656560Y1517770D02*
X650380Y1517770D01*
X650380Y1519750D01*
X656560Y1519750D01*
X656560Y1517770D01*
X656560Y1518739D02*
X650380Y1518739D01*
X650380Y1519708D02*
X656560Y1519708D01*
X656560Y1512770D02*
X650380Y1512770D01*
X650380Y1514750D01*
X656560Y1514750D01*
X656560Y1512770D01*
X656560Y1513739D02*
X650380Y1513739D01*
X650380Y1514708D02*
X656560Y1514708D01*
X656560Y1507770D02*
X650380Y1507770D01*
X650380Y1509750D01*
X656560Y1509750D01*
X656560Y1507770D01*
X656560Y1508739D02*
X650380Y1508739D01*
X650380Y1509708D02*
X656560Y1509708D01*
X892260Y1507770D02*
X898440Y1507770D01*
X892260Y1507770D02*
X892260Y1509750D01*
X898440Y1509750D01*
X898440Y1507770D01*
X898440Y1508739D02*
X892260Y1508739D01*
X892260Y1509708D02*
X898440Y1509708D01*
X898440Y1512770D02*
X892260Y1512770D01*
X892260Y1514750D01*
X898440Y1514750D01*
X898440Y1512770D01*
X898440Y1513739D02*
X892260Y1513739D01*
X892260Y1514708D02*
X898440Y1514708D01*
X898440Y1517770D02*
X892260Y1517770D01*
X892260Y1519750D01*
X898440Y1519750D01*
X898440Y1517770D01*
X898440Y1518739D02*
X892260Y1518739D01*
X892260Y1519708D02*
X898440Y1519708D01*
X898440Y1522770D02*
X892260Y1522770D01*
X892260Y1524750D01*
X898440Y1524750D01*
X898440Y1522770D01*
X898440Y1523739D02*
X892260Y1523739D01*
X892260Y1524708D02*
X898440Y1524708D01*
X909460Y1522770D02*
X915640Y1522770D01*
X909460Y1522770D02*
X909460Y1524750D01*
X915640Y1524750D01*
X915640Y1522770D01*
X915640Y1523739D02*
X909460Y1523739D01*
X909460Y1524708D02*
X915640Y1524708D01*
X915640Y1517770D02*
X909460Y1517770D01*
X909460Y1519750D01*
X915640Y1519750D01*
X915640Y1517770D01*
X915640Y1518739D02*
X909460Y1518739D01*
X909460Y1519708D02*
X915640Y1519708D01*
X915640Y1512770D02*
X909460Y1512770D01*
X909460Y1514750D01*
X915640Y1514750D01*
X915640Y1512770D01*
X915640Y1513739D02*
X909460Y1513739D01*
X909460Y1514708D02*
X915640Y1514708D01*
X915640Y1507770D02*
X909460Y1507770D01*
X909460Y1509750D01*
X915640Y1509750D01*
X915640Y1507770D01*
X915640Y1508739D02*
X909460Y1508739D01*
X909460Y1509708D02*
X915640Y1509708D01*
M02*
