M48
;GenerationSoftware,Autodesk,EAGLE,9.6.2*%
;CreationDate,2023-07-21T23:23:04Z*%
FMAT,2
ICI,OFF
METRIC,TZ,000.000
T3C0.305
T2C1.016
T1C3.048
%
G90
M71
T1
X22860Y68580
X100584Y147828
X22860Y2540
X2540Y2540
X48768Y2540
X28448Y2540
X74676Y2540
X54356Y2540
X100584Y2540
X80264Y2540
X22860Y15748
X2540Y15748
X48768Y15748
X28448Y15748
X74676Y15748
X54356Y15748
X100584Y15748
X80264Y15748
X22860Y28956
X2540Y28956
X48768Y28956
X28448Y28956
X74676Y28956
X54356Y28956
X100584Y28956
X80264Y28956
X22860Y42164
X2540Y42164
X48768Y42164
X28448Y42164
X74676Y42164
X54356Y42164
X100584Y42164
X80264Y42164
X22860Y55372
X2540Y55372
X48768Y55372
X28448Y55372
X74676Y55372
X54356Y55372
X100584Y55372
X80264Y55372
X48768Y134620
X2540Y68580
X48768Y68580
X28448Y68580
X74676Y68580
X54356Y68580
X100584Y68580
X80264Y68580
X22860Y81788
X2540Y81788
X48768Y81788
X28448Y81788
X74676Y81788
X54356Y81788
X100584Y81788
X80264Y81788
X22860Y94996
X2540Y94996
X48768Y94996
X28448Y94996
X74676Y94996
X54356Y94996
X100584Y94996
X80264Y94996
X22860Y108204
X2540Y108204
X48768Y108204
X28448Y108204
X74676Y108204
X54356Y108204
X100584Y108204
X80264Y108204
X22860Y121412
X2540Y121412
X48768Y121412
X28448Y121412
X74676Y121412
X54356Y121412
X100584Y121412
X80264Y121412
X22860Y134620
X2540Y134620
X80264Y147828
X28448Y134620
X74676Y134620
X54356Y134620
X100584Y134620
X80264Y134620
X22860Y147828
X2540Y147828
X48768Y147828
X28448Y147828
X74676Y147828
X54356Y147828
T2
X33528Y1270
X95504Y146558
X7620Y1270
X10160Y1270
X12700Y1270
X15240Y1270
X17780Y1270
X36068Y1270
X38608Y1270
X41148Y1270
X43688Y1270
X59436Y1270
X61976Y1270
X64516Y1270
X67056Y1270
X69596Y1270
X85344Y1270
X87884Y1270
X90424Y1270
X92964Y1270
X95504Y1270
X7620Y14478
X10160Y14478
X12700Y14478
X15240Y14478
X17780Y14478
X33528Y14478
X36068Y14478
X38608Y14478
X41148Y14478
X43688Y14478
X59436Y14478
X61976Y14478
X64516Y14478
X67056Y14478
X69596Y14478
X85344Y14478
X87884Y14478
X90424Y14478
X92964Y14478
X95504Y14478
X7620Y27686
X10160Y27686
X12700Y27686
X15240Y27686
X17780Y27686
X33528Y27686
X36068Y27686
X38608Y27686
X41148Y27686
X43688Y27686
X59436Y27686
X61976Y27686
X64516Y27686
X67056Y27686
X69596Y27686
X85344Y27686
X87884Y27686
X90424Y27686
X92964Y27686
X95504Y27686
X7620Y40894
X10160Y40894
X12700Y40894
X15240Y40894
X17780Y40894
X33528Y40894
X36068Y40894
X38608Y40894
X41148Y40894
X43688Y40894
X59436Y40894
X61976Y40894
X64516Y40894
X67056Y40894
X69596Y40894
X85344Y40894
X87884Y40894
X90424Y40894
X92964Y40894
X95504Y40894
X7620Y54102
X10160Y54102
X12700Y54102
X15240Y54102
X17780Y54102
X33528Y54102
X36068Y54102
X38608Y54102
X41148Y54102
X43688Y54102
X59436Y54102
X61976Y54102
X64516Y54102
X67056Y54102
X69596Y54102
X85344Y54102
X87884Y54102
X90424Y54102
X92964Y54102
X95504Y54102
X7620Y67310
X10160Y67310
X12700Y67310
X15240Y67310
X17780Y67310
X33528Y67310
X36068Y67310
X38608Y67310
X41148Y67310
X43688Y67310
X59436Y67310
X61976Y67310
X64516Y67310
X67056Y67310
X69596Y67310
X85344Y67310
X87884Y67310
X90424Y67310
X92964Y67310
X95504Y67310
X7620Y80518
X10160Y80518
X12700Y80518
X15240Y80518
X17780Y80518
X33528Y80518
X36068Y80518
X38608Y80518
X41148Y80518
X43688Y80518
X59436Y80518
X61976Y80518
X64516Y80518
X67056Y80518
X69596Y80518
X85344Y80518
X87884Y80518
X90424Y80518
X92964Y80518
X95504Y80518
X7620Y93726
X10160Y93726
X12700Y93726
X15240Y93726
X17780Y93726
X33528Y93726
X36068Y93726
X38608Y93726
X41148Y93726
X43688Y93726
X59436Y93726
X61976Y93726
X64516Y93726
X67056Y93726
X69596Y93726
X85344Y93726
X87884Y93726
X90424Y93726
X92964Y93726
X95504Y93726
X7620Y106934
X10160Y106934
X12700Y106934
X15240Y106934
X17780Y106934
X33528Y106934
X36068Y106934
X38608Y106934
X41148Y106934
X43688Y106934
X59436Y106934
X61976Y106934
X64516Y106934
X67056Y106934
X69596Y106934
X85344Y106934
X87884Y106934
X90424Y106934
X92964Y106934
X95504Y106934
X7620Y120142
X10160Y120142
X12700Y120142
X15240Y120142
X17780Y120142
X33528Y120142
X36068Y120142
X38608Y120142
X41148Y120142
X43688Y120142
X59436Y120142
X61976Y120142
X64516Y120142
X67056Y120142
X69596Y120142
X85344Y120142
X87884Y120142
X90424Y120142
X92964Y120142
X95504Y120142
X7620Y133350
X10160Y133350
X12700Y133350
X15240Y133350
X17780Y133350
X33528Y133350
X36068Y133350
X38608Y133350
X41148Y133350
X43688Y133350
X59436Y133350
X61976Y133350
X64516Y133350
X67056Y133350
X69596Y133350
X85344Y133350
X87884Y133350
X90424Y133350
X92964Y133350
X95504Y133350
X7620Y146558
X10160Y146558
X12700Y146558
X15240Y146558
X17780Y146558
X33528Y146558
X36068Y146558
X38608Y146558
X41148Y146558
X43688Y146558
X59436Y146558
X61976Y146558
X64516Y146558
X67056Y146558
X69596Y146558
X85344Y146558
X87884Y146558
X90424Y146558
X92964Y146558
T3
X60782Y34442
X61976Y34671
X68199Y31877
X68199Y33655
X74117Y34823
X62713Y32004
X66091Y35357
X66751Y34341
X56464Y32893
X66370Y32918
X62814Y32766
X59436Y32258
X73279Y37465
X67208Y37338
X58141Y36601
X63144Y37465
X91694Y30226
X86614Y30226
X85344Y31496
X92329Y37338
X99949Y37465
X94742Y34417
X92304Y33630
X91872Y36144
X78994Y35306
X98044Y27686
X90449Y37490
X94234Y30226
X96774Y30226
X90424Y34036
X82169Y37719
X97409Y32817
X86690Y34442
X87884Y34671
X94107Y31877
X94107Y33655
X100025Y34823
X88621Y32004
X91999Y35357
X92659Y34341
X82372Y32893
X92278Y32918
X88722Y32766
X85344Y32258
X99187Y37465
X93116Y37338
X84049Y36601
X89052Y37465
X13970Y43434
X8890Y43434
X7620Y44704
X14605Y50546
X22225Y50673
X17018Y47625
X14580Y46838
X14148Y49352
X1270Y48514
X20320Y40894
X12725Y50698
X16510Y43434
X19050Y43434
X12700Y47244
X4445Y50927
X19685Y46025
X8966Y47650
X10160Y47879
X16383Y45085
X16383Y46863
X22301Y48031
X10897Y45212
X14275Y48565
X14935Y47549
X4648Y46101
X14554Y46126
X10998Y45974
X7620Y45466
X21463Y50673
X15392Y50546
X6325Y49809
X11328Y50673
X39878Y43434
X34798Y43434
X33528Y44704
X40513Y50546
X48133Y50673
X42926Y47625
X40488Y46838
X40056Y49352
X27178Y48514
X46228Y40894
X38633Y50698
X42418Y43434
X44958Y43434
X38608Y47244
X30353Y50927
X45593Y46025
X34874Y47650
X36068Y47879
X42291Y45085
X42291Y46863
X48209Y48031
X36805Y45212
X40183Y48565
X40843Y47549
X30556Y46101
X40462Y46126
X36906Y45974
X33528Y45466
X47371Y50673
X41300Y50546
X32233Y49809
X37236Y50673
X65786Y43434
X60706Y43434
X59436Y44704
X66421Y50546
X74041Y50673
X68834Y47625
X66396Y46838
X65964Y49352
X53086Y48514
X72136Y40894
X64541Y50698
X68326Y43434
X70866Y43434
X64516Y47244
X56261Y50927
X71501Y46025
X60782Y47650
X61976Y47879
X68199Y45085
X68199Y46863
X74117Y48031
X62713Y45212
X66091Y48565
X66751Y47549
X56464Y46101
X66370Y46126
X62814Y45974
X59436Y45466
X73279Y50673
X67208Y50546
X58141Y49809
X63144Y50673
X91694Y43434
X86614Y43434
X85344Y44704
X92329Y50546
X99949Y50673
X94742Y47625
X92304Y46838
X91872Y49352
X78994Y48514
X98044Y40894
X90449Y50698
X94234Y43434
X96774Y43434
X90424Y47244
X82169Y50927
X97409Y46025
X86690Y47650
X87884Y47879
X94107Y45085
X94107Y46863
X100025Y48031
X88621Y45212
X91999Y48565
X92659Y47549
X82372Y46101
X92278Y46126
X88722Y45974
X85344Y45466
X99187Y50673
X93116Y50546
X84049Y49809
X89052Y50673
X13970Y56642
X8890Y56642
X7620Y57912
X14605Y63754
X22225Y63881
X17018Y60833
X14580Y60046
X14148Y62560
X1270Y61722
X20320Y54102
X12725Y63906
X16510Y56642
X19050Y56642
X12700Y60452
X4445Y64135
X19685Y59233
X8966Y60858
X10160Y61087
X16383Y58293
X16383Y60071
X22301Y61239
X10897Y58420
X14275Y61773
X14935Y60757
X4648Y59309
X14554Y59334
X10998Y59182
X7620Y58674
X21463Y63881
X15392Y63754
X6325Y63017
X11328Y63881
X39878Y56642
X34798Y56642
X33528Y57912
X40513Y63754
X48133Y63881
X42926Y60833
X40488Y60046
X40056Y62560
X27178Y61722
X46228Y54102
X38633Y63906
X42418Y56642
X44958Y56642
X38608Y60452
X30353Y64135
X45593Y59233
X34874Y60858
X36068Y61087
X42291Y58293
X42291Y60071
X48209Y61239
X36805Y58420
X40183Y61773
X40843Y60757
X30556Y59309
X40462Y59334
X36906Y59182
X33528Y58674
X47371Y63881
X41300Y63754
X32233Y63017
X37236Y63881
X65786Y56642
X60706Y56642
X59436Y57912
X66421Y63754
X74041Y63881
X68834Y60833
X66396Y60046
X65964Y62560
X53086Y61722
X72136Y54102
X64541Y63906
X68326Y56642
X70866Y56642
X64516Y60452
X56261Y64135
X71501Y59233
X60782Y60858
X61976Y61087
X68199Y58293
X68199Y60071
X74117Y61239
X62713Y58420
X66091Y61773
X66751Y60757
X56464Y59309
X66370Y59334
X62814Y59182
X59436Y58674
X73279Y63881
X67208Y63754
X58141Y63017
X63144Y63881
X91694Y56642
X86614Y56642
X85344Y57912
X92329Y63754
X99949Y63881
X94742Y60833
X92304Y60046
X91872Y62560
X78994Y61722
X98044Y54102
X90449Y63906
X94234Y56642
X96774Y56642
X90424Y60452
X82169Y64135
X97409Y59233
X86690Y60858
X87884Y61087
X94107Y58293
X94107Y60071
X100025Y61239
X88621Y58420
X91999Y61773
X92659Y60757
X82372Y59309
X92278Y59334
X88722Y59182
X85344Y58674
X99187Y63881
X93116Y63754
X84049Y63017
X89052Y63881
X13970Y69850
X8890Y69850
X7620Y71120
X14605Y76962
X22225Y77089
X17018Y74041
X14580Y73254
X14148Y75768
X1270Y74930
X20320Y67310
X12725Y77114
X16510Y69850
X19050Y69850
X12700Y73660
X4445Y77343
X19685Y72441
X8966Y74066
X10160Y74295
X16383Y71501
X16383Y73279
X22301Y74447
X10897Y71628
X14275Y74981
X14935Y73965
X4648Y72517
X14554Y72542
X10998Y72390
X7620Y71882
X21463Y77089
X15392Y76962
X6325Y76225
X11328Y77089
X39878Y69850
X34798Y69850
X33528Y71120
X40513Y76962
X48133Y77089
X42926Y74041
X40488Y73254
X40056Y75768
X27178Y74930
X46228Y67310
X38633Y77114
X42418Y69850
X44958Y69850
X38608Y73660
X30353Y77343
X45593Y72441
X34874Y74066
X36068Y74295
X42291Y71501
X42291Y73279
X48209Y74447
X36805Y71628
X40183Y74981
X40843Y73965
X30556Y72517
X40462Y72542
X36906Y72390
X33528Y71882
X47371Y77089
X41300Y76962
X32233Y76225
X37236Y77089
X65786Y69850
X60706Y69850
X59436Y71120
X66421Y76962
X74041Y77089
X68834Y74041
X66396Y73254
X65964Y75768
X53086Y74930
X72136Y67310
X64541Y77114
X68326Y69850
X70866Y69850
X64516Y73660
X56261Y77343
X71501Y72441
X60782Y74066
X61976Y74295
X68199Y71501
X68199Y73279
X74117Y74447
X62713Y71628
X66091Y74981
X66751Y73965
X56464Y72517
X66370Y72542
X62814Y72390
X59436Y71882
X73279Y77089
X67208Y76962
X58141Y76225
X63144Y77089
X91694Y69850
X86614Y69850
X85344Y71120
X92329Y76962
X99949Y77089
X94742Y74041
X92304Y73254
X91872Y75768
X78994Y74930
X98044Y67310
X90449Y77114
X94234Y69850
X96774Y69850
X90424Y73660
X82169Y77343
X97409Y72441
X86690Y74066
X87884Y74295
X94107Y71501
X94107Y73279
X100025Y74447
X88621Y71628
X91999Y74981
X92659Y73965
X82372Y72517
X92278Y72542
X88722Y72390
X85344Y71882
X99187Y77089
X93116Y76962
X84049Y76225
X89052Y77089
X13970Y83058
X8890Y83058
X7620Y84328
X14605Y90170
X22225Y90297
X17018Y87249
X14580Y86462
X14148Y88976
X1270Y88138
X20320Y80518
X12725Y90322
X16510Y83058
X19050Y83058
X12700Y86868
X4445Y90551
X19685Y85649
X8966Y87274
X10160Y87503
X16383Y84709
X16383Y86487
X22301Y87655
X10897Y84836
X14275Y88189
X14935Y87173
X4648Y85725
X14554Y85750
X10998Y85598
X7620Y85090
X21463Y90297
X15392Y90170
X6325Y89433
X11328Y90297
X39878Y83058
X34798Y83058
X33528Y84328
X40513Y90170
X48133Y90297
X42926Y87249
X40488Y86462
X40056Y88976
X27178Y88138
X46228Y80518
X38633Y90322
X42418Y83058
X44958Y83058
X38608Y86868
X30353Y90551
X45593Y85649
X34874Y87274
X36068Y87503
X42291Y84709
X42291Y86487
X48209Y87655
X36805Y84836
X40183Y88189
X40843Y87173
X30556Y85725
X40462Y85750
X36906Y85598
X33528Y85090
X47371Y90297
X41300Y90170
X32233Y89433
X37236Y90297
X65786Y83058
X60706Y83058
X59436Y84328
X66421Y90170
X74041Y90297
X68834Y87249
X66396Y86462
X65964Y88976
X53086Y88138
X72136Y80518
X64541Y90322
X68326Y83058
X70866Y83058
X64516Y86868
X56261Y90551
X71501Y85649
X60782Y87274
X61976Y87503
X68199Y84709
X68199Y86487
X74117Y87655
X62713Y84836
X66091Y88189
X66751Y87173
X56464Y85725
X66370Y85750
X62814Y85598
X59436Y85090
X73279Y90297
X67208Y90170
X58141Y89433
X63144Y90297
X91694Y83058
X86614Y83058
X85344Y84328
X92329Y90170
X99949Y90297
X94742Y87249
X92304Y86462
X91872Y88976
X78994Y88138
X98044Y80518
X90449Y90322
X94234Y83058
X96774Y83058
X90424Y86868
X82169Y90551
X97409Y85649
X86690Y87274
X87884Y87503
X94107Y84709
X94107Y86487
X100025Y87655
X88621Y84836
X91999Y88189
X92659Y87173
X82372Y85725
X92278Y85750
X88722Y85598
X85344Y85090
X99187Y90297
X93116Y90170
X84049Y89433
X89052Y90297
X13970Y96266
X8890Y96266
X7620Y97536
X14605Y103378
X22225Y103505
X17018Y100457
X14580Y99670
X14148Y102184
X1270Y101346
X20320Y93726
X12725Y103530
X16510Y96266
X19050Y96266
X12700Y100076
X4445Y103759
X19685Y98857
X8966Y100482
X10160Y100711
X16383Y97917
X16383Y99695
X22301Y100863
X10897Y98044
X14275Y101397
X14935Y100381
X4648Y98933
X14554Y98958
X10998Y98806
X7620Y98298
X21463Y103505
X15392Y103378
X6325Y102641
X11328Y103505
X39878Y96266
X34798Y96266
X33528Y97536
X40513Y103378
X48133Y103505
X42926Y100457
X40488Y99670
X40056Y102184
X90449Y24282
X46228Y93726
X38633Y103530
X42418Y96266
X44958Y96266
X38608Y100076
X30353Y103759
X45593Y98857
X34874Y100482
X36068Y100711
X42291Y97917
X42291Y99695
X48209Y100863
X36805Y98044
X40183Y101397
X40843Y100381
X30556Y98933
X40462Y98958
X36906Y98806
X33528Y98298
X47371Y103505
X41300Y103378
X32233Y102641
X37236Y103505
X65786Y96266
X60706Y96266
X59436Y97536
X66421Y103378
X74041Y103505
X68834Y100457
X66396Y99670
X65964Y102184
X53086Y101346
X72136Y93726
X64541Y103530
X68326Y96266
X70866Y96266
X64516Y100076
X56261Y103759
X71501Y98857
X60782Y100482
X61976Y100711
X68199Y97917
X68199Y99695
X74117Y100863
X62713Y98044
X66091Y101397
X66751Y100381
X56464Y98933
X66370Y98958
X62814Y98806
X59436Y98298
X73279Y103505
X67208Y103378
X58141Y102641
X63144Y103505
X91694Y96266
X86614Y96266
X85344Y97536
X92329Y103378
X99949Y103505
X94742Y100457
X92304Y99670
X91872Y102184
X78994Y101346
X98044Y93726
X90449Y103530
X94234Y96266
X96774Y96266
X90424Y100076
X82169Y103759
X97409Y98857
X86690Y100482
X87884Y100711
X94107Y97917
X94107Y99695
X100025Y100863
X88621Y98044
X91999Y101397
X92659Y100381
X82372Y98933
X92278Y98958
X88722Y98806
X85344Y98298
X99187Y103505
X93116Y103378
X84049Y102641
X89052Y103505
X13970Y109474
X8890Y109474
X7620Y110744
X14605Y116586
X22225Y116713
X17018Y113665
X14580Y112878
X14148Y115392
X1270Y114554
X20320Y106934
X12725Y116738
X16510Y109474
X19050Y109474
X12700Y113284
X4445Y116967
X19685Y112065
X8966Y113690
X10160Y113919
X16383Y111125
X16383Y112903
X22301Y114071
X10897Y111252
X14275Y114605
X14935Y113589
X4648Y112141
X14554Y112166
X10998Y112014
X7620Y111506
X21463Y116713
X15392Y116586
X6325Y115849
X11328Y116713
X39878Y109474
X34798Y109474
X33528Y110744
X40513Y116586
X48133Y116713
X42926Y113665
X40488Y112878
X40056Y115392
X27178Y114554
X46228Y106934
X38633Y116738
X42418Y109474
X44958Y109474
X38608Y113284
X30353Y116967
X45593Y112065
X34874Y113690
X36068Y113919
X42291Y111125
X42291Y112903
X48209Y114071
X36805Y111252
X40183Y114605
X40843Y113589
X30556Y112141
X40462Y112166
X36906Y112014
X33528Y111506
X47371Y116713
X41300Y116586
X32233Y115849
X37236Y116713
X65786Y109474
X60706Y109474
X59436Y110744
X66421Y116586
X74041Y116713
X68834Y113665
X66396Y112878
X65964Y115392
X53086Y114554
X72136Y106934
X64541Y116738
X68326Y109474
X70866Y109474
X64516Y113284
X56261Y116967
X71501Y112065
X60782Y113690
X61976Y113919
X68199Y111125
X68199Y112903
X74117Y114071
X62713Y111252
X66091Y114605
X66751Y113589
X56464Y112141
X66370Y112166
X62814Y112014
X59436Y111506
X73279Y116713
X67208Y116586
X58141Y115849
X63144Y116713
X91694Y109474
X86614Y109474
X85344Y110744
X92329Y116586
X99949Y116713
X94742Y113665
X92304Y112878
X91872Y115392
X78994Y114554
X98044Y106934
X90449Y116738
X94234Y109474
X96774Y109474
X90424Y113284
X82169Y116967
X97409Y112065
X86690Y113690
X87884Y113919
X94107Y111125
X94107Y112903
X100025Y114071
X88621Y111252
X91999Y114605
X92659Y113589
X82372Y112141
X92278Y112166
X88722Y112014
X85344Y111506
X99187Y116713
X93116Y116586
X84049Y115849
X89052Y116713
X13970Y122682
X8890Y122682
X7620Y123952
X14605Y129794
X22225Y129921
X17018Y126873
X14580Y126086
X14148Y128600
X1270Y127762
X20320Y120142
X12725Y129946
X16510Y122682
X19050Y122682
X12700Y126492
X4445Y130175
X19685Y125273
X8966Y126898
X10160Y127127
X16383Y124333
X16383Y126111
X22301Y127279
X10897Y124460
X14275Y127813
X14935Y126797
X4648Y125349
X14554Y125374
X10998Y125222
X7620Y124714
X21463Y129921
X15392Y129794
X6325Y129057
X11328Y129921
X39878Y122682
X34798Y122682
X33528Y123952
X40513Y129794
X48133Y129921
X42926Y126873
X40488Y126086
X40056Y128600
X27178Y127762
X46228Y120142
X38633Y129946
X42418Y122682
X44958Y122682
X38608Y126492
X30353Y130175
X45593Y125273
X34874Y126898
X36068Y127127
X42291Y124333
X42291Y126111
X48209Y127279
X36805Y124460
X40183Y127813
X40843Y126797
X30556Y125349
X40462Y125374
X36906Y125222
X33528Y124714
X47371Y129921
X41300Y129794
X32233Y129057
X37236Y129921
X65786Y122682
X60706Y122682
X59436Y123952
X66421Y129794
X74041Y129921
X68834Y126873
X66396Y126086
X65964Y128600
X53086Y127762
X72136Y120142
X64541Y129946
X68326Y122682
X70866Y122682
X64516Y126492
X56261Y130175
X71501Y125273
X60782Y126898
X61976Y127127
X68199Y124333
X68199Y126111
X74117Y127279
X62713Y124460
X66091Y127813
X66751Y126797
X56464Y125349
X66370Y125374
X62814Y125222
X59436Y124714
X73279Y129921
X67208Y129794
X58141Y129057
X63144Y129921
X91694Y122682
X86614Y122682
X85344Y123952
X92329Y129794
X99949Y129921
X94742Y126873
X92304Y126086
X91872Y128600
X78994Y127762
X98044Y120142
X90449Y129946
X94234Y122682
X96774Y122682
X90424Y126492
X82169Y130175
X97409Y125273
X86690Y126898
X87884Y127127
X94107Y124333
X94107Y126111
X100025Y127279
X88621Y124460
X91999Y127813
X92659Y126797
X82372Y125349
X92278Y125374
X88722Y125222
X85344Y124714
X99187Y129921
X93116Y129794
X84049Y129057
X89052Y129921
X13970Y135890
X8890Y135890
X7620Y137160
X14605Y143002
X22225Y143129
X17018Y140081
X14580Y139294
X14148Y141808
X1270Y140970
X20320Y133350
X12725Y143154
X16510Y135890
X19050Y135890
X12700Y139700
X4445Y143383
X19685Y138481
X8966Y140106
X10160Y140335
X16383Y137541
X16383Y139319
X22301Y140487
X10897Y137668
X14275Y141021
X14935Y140005
X4648Y138557
X14554Y138582
X10998Y138430
X7620Y137922
X21463Y143129
X15392Y143002
X6325Y142265
X11328Y143129
X39878Y135890
X34798Y135890
X33528Y137160
X40513Y143002
X48133Y143129
X42926Y140081
X40488Y139294
X40056Y141808
X27178Y140970
X46228Y133350
X38633Y143154
X42418Y135890
X44958Y135890
X38608Y139700
X30353Y143383
X45593Y138481
X34874Y140106
X36068Y140335
X42291Y137541
X42291Y139319
X48209Y140487
X36805Y137668
X40183Y141021
X40843Y140005
X30556Y138557
X40462Y138582
X36906Y138430
X33528Y137922
X47371Y143129
X41300Y143002
X32233Y142265
X37236Y143129
X65786Y135890
X60706Y135890
X59436Y137160
X66421Y143002
X74041Y143129
X68834Y140081
X66396Y139294
X65964Y141808
X53086Y140970
X72136Y133350
X64541Y143154
X68326Y135890
X70866Y135890
X64516Y139700
X56261Y143383
X71501Y138481
X60782Y140106
X61976Y140335
X68199Y137541
X68199Y139319
X74117Y140487
X62713Y137668
X66091Y141021
X66751Y140005
X56464Y138557
X66370Y138582
X62814Y138430
X59436Y137922
X73279Y143129
X67208Y143002
X58141Y142265
X63144Y143129
X91694Y135890
X86614Y135890
X85344Y137160
X92329Y143002
X99949Y143129
X94742Y140081
X92304Y139294
X91872Y141808
X78994Y140970
X98044Y133350
X90449Y143154
X94234Y135890
X96774Y135890
X90424Y139700
X82169Y143383
X97409Y138481
X86690Y140106
X87884Y140335
X94107Y137541
X94107Y139319
X100025Y140487
X88621Y137668
X91999Y141021
X92659Y140005
X82372Y138557
X92278Y138582
X88722Y138430
X13970Y3810
X99187Y143129
X93116Y143002
X84049Y142265
X89052Y143129
X13970Y149098
X8890Y149098
X7620Y150368
X14605Y156210
X22225Y156337
X17018Y153289
X14580Y152502
X14148Y155016
X1270Y154178
X20320Y146558
X12725Y156362
X16510Y149098
X19050Y149098
X12700Y152908
X4445Y156591
X19685Y151689
X8966Y153314
X10160Y153543
X16383Y150749
X16383Y152527
X22301Y153695
X10897Y150876
X14275Y154229
X14935Y153213
X4648Y151765
X14554Y151790
X10998Y151638
X7620Y151130
X21463Y156337
X15392Y156210
X6325Y155473
X11328Y156337
X39878Y149098
X34798Y149098
X33528Y150368
X40513Y156210
X48133Y156337
X42926Y153289
X40488Y152502
X40056Y155016
X27178Y154178
X46228Y146558
X38633Y156362
X42418Y149098
X44958Y149098
X38608Y152908
X30353Y156591
X45593Y151689
X34874Y153314
X36068Y153543
X42291Y150749
X42291Y152527
X48209Y153695
X36805Y150876
X40183Y154229
X40843Y153213
X30556Y151765
X40462Y151790
X36906Y151638
X33528Y151130
X47371Y156337
X41300Y156210
X32233Y155473
X37236Y156337
X65786Y149098
X60706Y149098
X59436Y150368
X66421Y156210
X74041Y156337
X68834Y153289
X66396Y152502
X65964Y155016
X53086Y154178
X72136Y146558
X64541Y156362
X68326Y149098
X70866Y149098
X64516Y152908
X56261Y156591
X71501Y151689
X60782Y153314
X61976Y153543
X68199Y150749
X68199Y152527
X74117Y153695
X62713Y150876
X66091Y154229
X66751Y153213
X56464Y151765
X66370Y151790
X62814Y151638
X59436Y151130
X73279Y156337
X67208Y156210
X58141Y155473
X63144Y156337
X91694Y149098
X86614Y149098
X85344Y150368
X92329Y156210
X99949Y156337
X94742Y153289
X92304Y152502
X91872Y155016
X78994Y154178
X98044Y146558
X90449Y156362
X94234Y149098
X96774Y149098
X90424Y152908
X82169Y156591
X97409Y151689
X86690Y153314
X87884Y153543
X94107Y150749
X94107Y152527
X100025Y153695
X88621Y150876
X91999Y154229
X92659Y153213
X82372Y151765
X92278Y151790
X88722Y151638
X85344Y151130
X99187Y156337
X93116Y156210
X84049Y155473
X89052Y156337
X8890Y3810
X7620Y5080
X14605Y10922
X22225Y11049
X17018Y8001
X14580Y7214
X14148Y9728
X1270Y8890
X20320Y1270
X12725Y11074
X16510Y3810
X19050Y3810
X12700Y7620
X4445Y11303
X19685Y6401
X8966Y8026
X10160Y8255
X16383Y5461
X16383Y7239
X22301Y8407
X10897Y5588
X14275Y8941
X14935Y7925
X4648Y6477
X14554Y6502
X10998Y6350
X7620Y5842
X21463Y11049
X15392Y10922
X6325Y10185
X11328Y11049
X39878Y3810
X34798Y3810
X33528Y5080
X40513Y10922
X48133Y11049
X42926Y8001
X40488Y7214
X40056Y9728
X27178Y8890
X46228Y1270
X38633Y11074
X42418Y3810
X44958Y3810
X38608Y7620
X30353Y11303
X45593Y6401
X34874Y8026
X36068Y8255
X42291Y5461
X42291Y7239
X48209Y8407
X36805Y5588
X40183Y8941
X40843Y7925
X30556Y6477
X40462Y6502
X36906Y6350
X33528Y5842
X47371Y11049
X41300Y10922
X32233Y10185
X37236Y11049
X65786Y3810
X60706Y3810
X59436Y5080
X66421Y10922
X74041Y11049
X68834Y8001
X66396Y7214
X65964Y9728
X53086Y8890
X72136Y1270
X64541Y11074
X68326Y3810
X70866Y3810
X64516Y7620
X56261Y11303
X71501Y6401
X60782Y8026
X61976Y8255
X68199Y5461
X68199Y7239
X74117Y8407
X62713Y5588
X66091Y8941
X66751Y7925
X56464Y6477
X66370Y6502
X62814Y6350
X59436Y5842
X73279Y11049
X67208Y10922
X58141Y10185
X63144Y11049
X91694Y3810
X86614Y3810
X85344Y5080
X92329Y10922
X99949Y11049
X94742Y8001
X27178Y101346
X92304Y7214
X91872Y9728
X78994Y8890
X98044Y1270
X90449Y11074
X94234Y3810
X96774Y3810
X90424Y7620
X82169Y11303
X97409Y6401
X86690Y8026
X87884Y8255
X94107Y5461
X94107Y7239
X100025Y8407
X88621Y5588
X91999Y8941
X92659Y7925
X82372Y6477
X92278Y6502
X88722Y6350
X85344Y5842
X99187Y11049
X93116Y10922
X84049Y10185
X89052Y11049
X13970Y17018
X8890Y17018
X7620Y18288
X14605Y24130
X22225Y24257
X17018Y21209
X14580Y20422
X14148Y22936
X1270Y22098
X20320Y14478
X12725Y24282
X16510Y17018
X19050Y17018
X12700Y20828
X4445Y24511
X19685Y19609
X8966Y21234
X10160Y21463
X16383Y18669
X16383Y20447
X22301Y21615
X10897Y18796
X14275Y22149
X14935Y21133
X4648Y19685
X14554Y19710
X10998Y19558
X7620Y19050
X21463Y24257
X15392Y24130
X6325Y23393
X11328Y24257
X39878Y17018
X34798Y17018
X33528Y18288
X40513Y24130
X48133Y24257
X42926Y21209
X40488Y20422
X40056Y22936
X27178Y22098
X46228Y14478
X38633Y24282
X42418Y17018
X44958Y17018
X38608Y20828
X30353Y24511
X45593Y19609
X34874Y21234
X36068Y21463
X42291Y18669
X42291Y20447
X48209Y21615
X36805Y18796
X40183Y22149
X40843Y21133
X30556Y19685
X40462Y19710
X36906Y19558
X33528Y19050
X47371Y24257
X41300Y24130
X32233Y23393
X37236Y24257
X65786Y17018
X60706Y17018
X59436Y18288
X66421Y24130
X74041Y24257
X68834Y21209
X66396Y20422
X65964Y22936
X53086Y22098
X72136Y14478
X64541Y24282
X68326Y17018
X70866Y17018
X64516Y20828
X56261Y24511
X71501Y19609
X60782Y21234
X61976Y21463
X68199Y18669
X68199Y20447
X74117Y21615
X62713Y18796
X66091Y22149
X66751Y21133
X56464Y19685
X66370Y19710
X62814Y19558
X59436Y19050
X73279Y24257
X67208Y24130
X58141Y23393
X63144Y24257
X91694Y17018
X86614Y17018
X85344Y18288
X92329Y24130
X99949Y24257
X94742Y21209
X92304Y20422
X91872Y22936
X78994Y22098
X98044Y14478
X94234Y17018
X96774Y17018
X90424Y20828
X82169Y24511
X97409Y19609
X86690Y21234
X87884Y21463
X94107Y18669
X94107Y20447
X100025Y21615
X88621Y18796
X91999Y22149
X92659Y21133
X82372Y19685
X92278Y19710
X88722Y19558
X85344Y19050
X99187Y24257
X93116Y24130
X84049Y23393
X89052Y24257
X13970Y30226
X8890Y30226
X7620Y31496
X14605Y37338
X22225Y37465
X17018Y34417
X14580Y33630
X14148Y36144
X1270Y35306
X20320Y27686
X12725Y37490
X16510Y30226
X19050Y30226
X12700Y34036
X4445Y37719
X19685Y32817
X8966Y34442
X10160Y34671
X16383Y31877
X16383Y33655
X22301Y34823
X10897Y32004
X14275Y35357
X14935Y34341
X4648Y32893
X14554Y32918
X10998Y32766
X7620Y32258
X21463Y37465
X15392Y37338
X6325Y36601
X11328Y37465
X39878Y30226
X34798Y30226
X33528Y31496
X40513Y37338
X48133Y37465
X42926Y34417
X40488Y33630
X40056Y36144
X27178Y35306
X46228Y27686
X38633Y37490
X42418Y30226
X44958Y30226
X38608Y34036
X30353Y37719
X45593Y32817
X34874Y34442
X36068Y34671
X42291Y31877
X42291Y33655
X48209Y34823
X36805Y32004
X40183Y35357
X40843Y34341
X30556Y32893
X40462Y32918
X36906Y32766
X33528Y32258
X47371Y37465
X41300Y37338
X32233Y36601
X37236Y37465
X65786Y30226
X60706Y30226
X59436Y31496
X66421Y37338
X74041Y37465
X68834Y34417
X66396Y33630
X65964Y36144
X53086Y35306
X72136Y27686
X64541Y37490
X68326Y30226
X70866Y30226
X64516Y34036
X56261Y37719
X71501Y32817
X85344Y137922
M30