G04 EAGLE Gerber RS-274X export*
G75*
%MOMM*%
%FSLAX34Y34*%
%LPD*%
%INSilkscreen Top*%
%IPPOS*%
%AMOC8*
5,1,8,0,0,1.08239X$1,22.5*%
G01*
%ADD10C,0.203200*%
%ADD11C,0.366319*%

G36*
X133526Y20794D02*
X133526Y20794D01*
X133539Y20794D01*
X133839Y21194D01*
X133839Y21202D01*
X133843Y21205D01*
X133839Y21209D01*
X133839Y21216D01*
X133849Y21224D01*
X133849Y55024D01*
X133846Y55028D01*
X133849Y55031D01*
X133649Y56431D01*
X133648Y56432D01*
X133649Y56432D01*
X133549Y57032D01*
X133541Y57039D01*
X133544Y57046D01*
X133245Y57645D01*
X132945Y58343D01*
X132941Y58346D01*
X132942Y58349D01*
X132642Y58849D01*
X132641Y58850D01*
X132641Y58851D01*
X132241Y59451D01*
X132234Y59454D01*
X132235Y59459D01*
X131735Y59959D01*
X131731Y59959D01*
X131731Y59962D01*
X130731Y60762D01*
X130723Y60763D01*
X130722Y60768D01*
X129522Y61368D01*
X129515Y61367D01*
X129514Y61371D01*
X128815Y61571D01*
X128216Y61771D01*
X128209Y61769D01*
X128207Y61773D01*
X127507Y61873D01*
X127502Y61870D01*
X127500Y61873D01*
X126800Y61873D01*
X126796Y61870D01*
X126793Y61873D01*
X126093Y61773D01*
X126092Y61772D01*
X126092Y61773D01*
X125492Y61673D01*
X125489Y61669D01*
X125486Y61671D01*
X124786Y61471D01*
X124785Y61470D01*
X124784Y61471D01*
X124184Y61271D01*
X124181Y61266D01*
X124178Y61268D01*
X123578Y60968D01*
X123576Y60964D01*
X123573Y60965D01*
X122973Y60565D01*
X122972Y60562D01*
X122969Y60562D01*
X122469Y60162D01*
X122468Y60158D01*
X122465Y60159D01*
X121965Y59659D01*
X121965Y59655D01*
X121962Y59655D01*
X121562Y59155D01*
X121561Y59151D01*
X121559Y59151D01*
X121159Y58551D01*
X121159Y58547D01*
X121156Y58546D01*
X120556Y57346D01*
X120557Y57341D01*
X120553Y57340D01*
X120353Y56740D01*
X120355Y56733D01*
X120351Y56731D01*
X120151Y55331D01*
X120154Y55326D01*
X120151Y55324D01*
X120151Y21124D01*
X120170Y21098D01*
X120170Y21085D01*
X120570Y20785D01*
X120592Y20785D01*
X120600Y20775D01*
X133500Y20775D01*
X133526Y20794D01*
G37*
G36*
X83201Y20965D02*
X83201Y20965D01*
X83199Y20968D01*
X83203Y20970D01*
X83303Y21570D01*
X83300Y21575D01*
X83303Y21578D01*
X83303Y58778D01*
X83267Y58825D01*
X83260Y58820D01*
X83254Y58827D01*
X69754Y58827D01*
X69707Y58791D01*
X69709Y58788D01*
X69705Y58786D01*
X69605Y58186D01*
X69608Y58181D01*
X69605Y58178D01*
X69605Y24378D01*
X69610Y24371D01*
X69607Y24362D01*
X69620Y24358D01*
X69641Y24331D01*
X69660Y24345D01*
X69662Y24344D01*
X69625Y24318D01*
X69620Y24301D01*
X69607Y24291D01*
X69612Y24284D01*
X69605Y24278D01*
X69605Y20978D01*
X69641Y20931D01*
X69648Y20936D01*
X69654Y20929D01*
X83154Y20929D01*
X83201Y20965D01*
G37*
G36*
X108238Y21004D02*
X108238Y21004D01*
X108246Y21006D01*
X108446Y21506D01*
X108442Y21519D01*
X108449Y21524D01*
X108449Y58124D01*
X108413Y58171D01*
X108410Y58169D01*
X108408Y58173D01*
X107808Y58273D01*
X107803Y58270D01*
X107800Y58273D01*
X94900Y58273D01*
X94853Y58237D01*
X94855Y58234D01*
X94851Y58232D01*
X94751Y57632D01*
X94754Y57627D01*
X94751Y57624D01*
X94751Y21224D01*
X94780Y21186D01*
X94782Y21178D01*
X95282Y20978D01*
X95295Y20982D01*
X95300Y20975D01*
X108200Y20975D01*
X108238Y21004D01*
G37*
G36*
X159401Y20687D02*
X159401Y20687D01*
X159398Y20691D01*
X159403Y20693D01*
X159503Y21393D01*
X159500Y21398D01*
X159503Y21400D01*
X159503Y52500D01*
X159500Y52504D01*
X159503Y52507D01*
X159403Y53207D01*
X159399Y53211D01*
X159401Y53214D01*
X159201Y53914D01*
X159200Y53915D01*
X159201Y53916D01*
X158801Y55116D01*
X158793Y55121D01*
X158795Y55127D01*
X157995Y56327D01*
X157992Y56328D01*
X157992Y56331D01*
X157592Y56831D01*
X157585Y56833D01*
X157585Y56838D01*
X157085Y57238D01*
X156486Y57738D01*
X156480Y57738D01*
X156479Y57742D01*
X155979Y58042D01*
X155976Y58042D01*
X155976Y58044D01*
X155376Y58344D01*
X155369Y58343D01*
X155368Y58347D01*
X154669Y58547D01*
X154070Y58747D01*
X154063Y58745D01*
X154061Y58749D01*
X152661Y58949D01*
X152652Y58944D01*
X152647Y58949D01*
X151947Y58849D01*
X151946Y58848D01*
X151946Y58849D01*
X151346Y58749D01*
X150647Y58649D01*
X150639Y58641D01*
X150632Y58644D01*
X148832Y57744D01*
X148829Y57737D01*
X148823Y57738D01*
X148323Y57338D01*
X148322Y57334D01*
X148319Y57335D01*
X147319Y56335D01*
X147319Y56331D01*
X147316Y56331D01*
X146916Y55831D01*
X146915Y55823D01*
X146910Y55822D01*
X146310Y54622D01*
X146311Y54615D01*
X146307Y54614D01*
X146107Y53915D01*
X145907Y53316D01*
X145909Y53309D01*
X145905Y53307D01*
X145805Y52607D01*
X145808Y52602D01*
X145805Y52600D01*
X145805Y20800D01*
X145841Y20753D01*
X145844Y20755D01*
X145846Y20751D01*
X146446Y20651D01*
X146451Y20654D01*
X146454Y20651D01*
X159354Y20651D01*
X159401Y20687D01*
G37*
G36*
X184438Y20510D02*
X184438Y20510D01*
X184446Y20512D01*
X184646Y21012D01*
X184642Y21025D01*
X184649Y21030D01*
X184649Y50130D01*
X184646Y50134D01*
X184649Y50137D01*
X184549Y50837D01*
X184545Y50841D01*
X184547Y50844D01*
X184347Y51544D01*
X184346Y51545D01*
X184347Y51546D01*
X183947Y52746D01*
X183939Y52751D01*
X183941Y52757D01*
X183141Y53957D01*
X183138Y53958D01*
X183138Y53961D01*
X182738Y54461D01*
X182731Y54463D01*
X182731Y54468D01*
X182233Y54867D01*
X181735Y55365D01*
X181723Y55366D01*
X181722Y55374D01*
X179922Y56274D01*
X179911Y56272D01*
X179907Y56279D01*
X179207Y56379D01*
X178508Y56479D01*
X177908Y56579D01*
X177898Y56573D01*
X177893Y56579D01*
X177197Y56479D01*
X176500Y56479D01*
X176491Y56472D01*
X176484Y56477D01*
X175885Y56277D01*
X175186Y56077D01*
X175182Y56072D01*
X175178Y56074D01*
X174578Y55774D01*
X174576Y55770D01*
X174573Y55771D01*
X173973Y55371D01*
X173972Y55368D01*
X173969Y55368D01*
X172969Y54568D01*
X172968Y54564D01*
X172965Y54565D01*
X172465Y54065D01*
X172464Y54058D01*
X172459Y54057D01*
X172059Y53457D01*
X172059Y53456D01*
X172058Y53455D01*
X171758Y52955D01*
X171758Y52951D01*
X171757Y52950D01*
X171755Y52949D01*
X171455Y52249D01*
X171456Y52246D01*
X171453Y52246D01*
X171253Y51646D01*
X171254Y51644D01*
X171253Y51644D01*
X171053Y50944D01*
X171056Y50934D01*
X171051Y50930D01*
X171051Y50333D01*
X170951Y49637D01*
X170954Y49632D01*
X170951Y49630D01*
X170951Y20630D01*
X170987Y20583D01*
X170990Y20585D01*
X170992Y20581D01*
X171592Y20481D01*
X171597Y20484D01*
X171600Y20481D01*
X184400Y20481D01*
X184438Y20510D01*
G37*
G36*
X219580Y76900D02*
X219580Y76900D01*
X219602Y76903D01*
X219610Y76920D01*
X219619Y76925D01*
X219617Y76935D01*
X219624Y76950D01*
X219636Y77366D01*
X219636Y77367D01*
X219636Y80546D01*
X219630Y80555D01*
X219633Y80566D01*
X219613Y80582D01*
X219600Y80603D01*
X219589Y80601D01*
X219580Y80608D01*
X219537Y80594D01*
X219532Y80593D01*
X219532Y80592D01*
X219531Y80592D01*
X219214Y80294D01*
X218803Y79979D01*
X218338Y79757D01*
X217835Y79637D01*
X217318Y79603D01*
X216800Y79651D01*
X216295Y79769D01*
X215811Y79954D01*
X215362Y80211D01*
X214976Y80556D01*
X214651Y80960D01*
X214386Y81406D01*
X214179Y81882D01*
X214054Y82388D01*
X213981Y82906D01*
X213945Y83427D01*
X213985Y83948D01*
X214068Y84464D01*
X214200Y84968D01*
X214416Y85440D01*
X214698Y85875D01*
X215040Y86263D01*
X215440Y86590D01*
X215893Y86842D01*
X216386Y87001D01*
X216898Y87089D01*
X217417Y87122D01*
X217932Y87066D01*
X218427Y86917D01*
X218885Y86680D01*
X219290Y86351D01*
X219291Y86350D01*
X219292Y86349D01*
X219536Y86164D01*
X219544Y86164D01*
X219548Y86157D01*
X219576Y86161D01*
X219604Y86159D01*
X219607Y86166D01*
X219615Y86167D01*
X219636Y86214D01*
X219636Y86819D01*
X219647Y87045D01*
X221947Y87045D01*
X221943Y86799D01*
X221951Y86787D01*
X221971Y77141D01*
X221971Y77140D01*
X221971Y77138D01*
X221980Y76948D01*
X221992Y76931D01*
X221995Y76910D01*
X222013Y76902D01*
X222020Y76893D01*
X222029Y76895D01*
X222043Y76889D01*
X244621Y76891D01*
X244623Y76892D01*
X244627Y76891D01*
X245681Y76997D01*
X245684Y76999D01*
X245688Y76998D01*
X246203Y77110D01*
X246206Y77112D01*
X246210Y77111D01*
X247215Y77440D01*
X247219Y77444D01*
X247226Y77445D01*
X248157Y77950D01*
X248159Y77954D01*
X248166Y77956D01*
X248995Y78612D01*
X248996Y78615D01*
X249000Y78617D01*
X249377Y78985D01*
X249378Y78988D01*
X249382Y78990D01*
X250049Y79813D01*
X250049Y79818D01*
X250055Y79822D01*
X250561Y80753D01*
X250560Y80758D01*
X250564Y80762D01*
X250748Y81256D01*
X250747Y81258D01*
X250749Y81260D01*
X250906Y81765D01*
X250905Y81767D01*
X250907Y81769D01*
X251031Y82282D01*
X251029Y82286D01*
X251032Y82290D01*
X251139Y83344D01*
X251136Y83349D01*
X251139Y83356D01*
X251049Y84410D01*
X251048Y84412D01*
X251049Y84416D01*
X250958Y84935D01*
X250956Y84938D01*
X250956Y84943D01*
X250642Y85955D01*
X250638Y85958D01*
X250638Y85966D01*
X250137Y86899D01*
X250134Y86900D01*
X250133Y86905D01*
X249830Y87337D01*
X249828Y87338D01*
X249827Y87341D01*
X249490Y87750D01*
X249489Y87750D01*
X249488Y87752D01*
X249458Y87786D01*
X249401Y87848D01*
X249401Y87849D01*
X249344Y87911D01*
X249287Y87974D01*
X249174Y88099D01*
X249174Y88100D01*
X249134Y88143D01*
X249130Y88144D01*
X249127Y88150D01*
X248310Y88824D01*
X248305Y88824D01*
X248301Y88830D01*
X247376Y89345D01*
X247373Y89345D01*
X247369Y89348D01*
X246883Y89550D01*
X246880Y89550D01*
X246876Y89553D01*
X245862Y89854D01*
X245857Y89853D01*
X245851Y89856D01*
X244796Y89963D01*
X244607Y89982D01*
X244604Y89980D01*
X244601Y89982D01*
X217585Y89982D01*
X217583Y89980D01*
X217579Y89982D01*
X216525Y89877D01*
X216522Y89875D01*
X216519Y89876D01*
X216002Y89772D01*
X216000Y89770D01*
X215995Y89771D01*
X214987Y89448D01*
X214983Y89444D01*
X214976Y89444D01*
X214045Y88938D01*
X214043Y88935D01*
X214037Y88934D01*
X213613Y88620D01*
X213612Y88619D01*
X213610Y88618D01*
X213201Y88281D01*
X213201Y88279D01*
X213198Y88278D01*
X212816Y87915D01*
X212815Y87911D01*
X212811Y87909D01*
X212138Y87091D01*
X212138Y87086D01*
X212132Y87081D01*
X211626Y86150D01*
X211626Y86146D01*
X211623Y86142D01*
X211433Y85651D01*
X211433Y85649D01*
X211431Y85646D01*
X211274Y85141D01*
X211275Y85139D01*
X211273Y85138D01*
X211142Y84626D01*
X211144Y84622D01*
X211141Y84617D01*
X211034Y83563D01*
X211036Y83559D01*
X211034Y83553D01*
X211063Y83026D01*
X211064Y83025D01*
X211063Y83023D01*
X211116Y82496D01*
X211117Y82495D01*
X211117Y82493D01*
X211200Y81972D01*
X211203Y81969D01*
X211202Y81963D01*
X211516Y80951D01*
X211520Y80948D01*
X211521Y80941D01*
X212015Y80005D01*
X212018Y80003D01*
X212018Y79999D01*
X212315Y79563D01*
X212318Y79562D01*
X212319Y79557D01*
X212436Y79420D01*
X212490Y79357D01*
X212543Y79295D01*
X212704Y79106D01*
X212757Y79044D01*
X212811Y78981D01*
X212864Y78918D01*
X213006Y78752D01*
X213010Y78751D01*
X213013Y78745D01*
X213831Y78070D01*
X213835Y78070D01*
X213840Y78064D01*
X214761Y77544D01*
X214764Y77544D01*
X214767Y77541D01*
X215251Y77332D01*
X215254Y77332D01*
X215257Y77329D01*
X216270Y77020D01*
X216275Y77022D01*
X216282Y77018D01*
X217336Y76912D01*
X217338Y76913D01*
X217340Y76912D01*
X217868Y76889D01*
X217869Y76889D01*
X217871Y76889D01*
X219562Y76889D01*
X219580Y76900D01*
G37*
G36*
X223711Y46411D02*
X223711Y46411D01*
X223773Y46413D01*
X223795Y46426D01*
X223821Y46430D01*
X223892Y46478D01*
X223925Y46496D01*
X223931Y46504D01*
X223941Y46511D01*
X224441Y47011D01*
X224460Y47042D01*
X224498Y47084D01*
X224774Y47544D01*
X225241Y48011D01*
X225249Y48024D01*
X225264Y48037D01*
X225753Y48623D01*
X226941Y49811D01*
X226948Y49822D01*
X226961Y49833D01*
X228151Y51222D01*
X229108Y52178D01*
X230006Y52717D01*
X230503Y52800D01*
X232372Y52800D01*
X232398Y52806D01*
X232435Y52805D01*
X233635Y53005D01*
X233650Y53012D01*
X233672Y53013D01*
X234772Y53313D01*
X234789Y53322D01*
X234813Y53327D01*
X235813Y53727D01*
X235835Y53742D01*
X235868Y53754D01*
X236868Y54354D01*
X236888Y54374D01*
X236922Y54394D01*
X237722Y55094D01*
X237729Y55103D01*
X237741Y55111D01*
X238541Y55911D01*
X238552Y55929D01*
X238572Y55947D01*
X239272Y56847D01*
X239283Y56870D01*
X239304Y56895D01*
X240304Y58695D01*
X240315Y58731D01*
X240340Y58783D01*
X240840Y60683D01*
X240841Y60715D01*
X240852Y60758D01*
X240952Y62458D01*
X240945Y62494D01*
X240946Y62550D01*
X240646Y64150D01*
X240637Y64171D01*
X240633Y64200D01*
X240133Y65700D01*
X240114Y65731D01*
X240093Y65784D01*
X239393Y66884D01*
X239374Y66903D01*
X239356Y66933D01*
X239131Y67186D01*
X238793Y67566D01*
X238556Y67833D01*
X238524Y67855D01*
X238474Y67902D01*
X237674Y68402D01*
X237644Y68413D01*
X237624Y68427D01*
X237589Y68433D01*
X237544Y68453D01*
X237527Y68453D01*
X237510Y68458D01*
X237478Y68454D01*
X237472Y68454D01*
X237464Y68452D01*
X237441Y68449D01*
X237371Y68447D01*
X237356Y68438D01*
X237338Y68436D01*
X237308Y68416D01*
X237303Y68415D01*
X237289Y68403D01*
X237280Y68397D01*
X237219Y68364D01*
X237209Y68349D01*
X237194Y68339D01*
X237178Y68311D01*
X237170Y68305D01*
X237156Y68274D01*
X237119Y68222D01*
X237116Y68203D01*
X237108Y68189D01*
X237106Y68163D01*
X237099Y68146D01*
X237100Y68121D01*
X237092Y68080D01*
X237092Y67242D01*
X237020Y67026D01*
X236960Y66905D01*
X236767Y66712D01*
X236610Y66660D01*
X236419Y66660D01*
X235705Y66839D01*
X235363Y67010D01*
X235092Y67191D01*
X234722Y67468D01*
X234168Y68022D01*
X233825Y68536D01*
X233752Y68827D01*
X233752Y69318D01*
X233824Y69534D01*
X233902Y69689D01*
X234052Y69915D01*
X234373Y70155D01*
X234696Y70317D01*
X235147Y70407D01*
X235154Y70411D01*
X235164Y70411D01*
X235519Y70500D01*
X235982Y70500D01*
X236102Y70440D01*
X236117Y70436D01*
X236130Y70427D01*
X236264Y70401D01*
X236271Y70400D01*
X236272Y70400D01*
X236372Y70400D01*
X236397Y70406D01*
X236423Y70403D01*
X236481Y70425D01*
X236541Y70439D01*
X236561Y70456D01*
X236585Y70465D01*
X236627Y70510D01*
X236674Y70549D01*
X236685Y70573D01*
X236702Y70592D01*
X236720Y70651D01*
X236745Y70708D01*
X236744Y70733D01*
X236752Y70758D01*
X236741Y70819D01*
X236739Y70881D01*
X236726Y70903D01*
X236722Y70929D01*
X236674Y71000D01*
X236656Y71033D01*
X236648Y71039D01*
X236641Y71049D01*
X236541Y71149D01*
X236521Y71161D01*
X236500Y71184D01*
X236100Y71484D01*
X236074Y71496D01*
X236042Y71520D01*
X234642Y72220D01*
X234630Y72223D01*
X234621Y72229D01*
X234592Y72235D01*
X234555Y72251D01*
X233655Y72451D01*
X233621Y72451D01*
X233572Y72460D01*
X232572Y72460D01*
X232544Y72454D01*
X232504Y72454D01*
X231404Y72254D01*
X231369Y72239D01*
X231312Y72221D01*
X231297Y72217D01*
X231294Y72215D01*
X231290Y72214D01*
X230190Y71614D01*
X230170Y71596D01*
X230139Y71580D01*
X229239Y70880D01*
X229219Y70856D01*
X229150Y70782D01*
X228650Y69982D01*
X228638Y69948D01*
X228611Y69900D01*
X228311Y69000D01*
X228308Y68963D01*
X228292Y68880D01*
X228292Y68080D01*
X228299Y68047D01*
X228301Y67998D01*
X228501Y67098D01*
X228518Y67062D01*
X228540Y66995D01*
X229040Y66095D01*
X229062Y66071D01*
X229086Y66030D01*
X229786Y65230D01*
X229787Y65229D01*
X229788Y65227D01*
X230588Y64327D01*
X230596Y64322D01*
X230603Y64311D01*
X231245Y63669D01*
X231492Y63011D01*
X231492Y62442D01*
X231333Y61965D01*
X231012Y61564D01*
X230516Y61233D01*
X229825Y61060D01*
X229110Y61060D01*
X228681Y61146D01*
X228286Y61304D01*
X227768Y61822D01*
X227617Y62049D01*
X227552Y62242D01*
X227552Y62518D01*
X227604Y62675D01*
X228077Y63148D01*
X228292Y63219D01*
X228312Y63232D01*
X228342Y63240D01*
X228742Y63440D01*
X228771Y63464D01*
X228841Y63511D01*
X228941Y63611D01*
X228954Y63632D01*
X228973Y63648D01*
X228999Y63705D01*
X229032Y63758D01*
X229035Y63783D01*
X229045Y63806D01*
X229043Y63869D01*
X229049Y63931D01*
X229040Y63954D01*
X229039Y63979D01*
X229009Y64034D01*
X228987Y64093D01*
X228969Y64110D01*
X228957Y64132D01*
X228887Y64186D01*
X228860Y64210D01*
X228851Y64213D01*
X228842Y64220D01*
X228442Y64420D01*
X228427Y64424D01*
X228414Y64433D01*
X228280Y64459D01*
X228274Y64460D01*
X228273Y64460D01*
X228272Y64460D01*
X227072Y64460D01*
X227046Y64454D01*
X227010Y64455D01*
X226410Y64355D01*
X226404Y64353D01*
X226397Y64353D01*
X225897Y64253D01*
X225871Y64241D01*
X225831Y64233D01*
X225331Y64033D01*
X225300Y64011D01*
X225244Y63984D01*
X224844Y63684D01*
X224840Y63680D01*
X224834Y63677D01*
X224334Y63277D01*
X224317Y63254D01*
X224246Y63176D01*
X223646Y62176D01*
X223634Y62140D01*
X223606Y62084D01*
X223406Y61384D01*
X223405Y61359D01*
X223395Y61327D01*
X223295Y60527D01*
X223297Y60506D01*
X223292Y60480D01*
X223292Y46780D01*
X223298Y46755D01*
X223295Y46729D01*
X223317Y46672D01*
X223331Y46611D01*
X223348Y46591D01*
X223357Y46567D01*
X223402Y46525D01*
X223441Y46478D01*
X223465Y46467D01*
X223484Y46450D01*
X223543Y46432D01*
X223600Y46407D01*
X223625Y46408D01*
X223650Y46400D01*
X223711Y46411D01*
G37*
G36*
X90920Y214180D02*
X90920Y214180D01*
X91002Y214181D01*
X91006Y214183D01*
X91011Y214183D01*
X91083Y214222D01*
X91156Y214260D01*
X91159Y214264D01*
X91163Y214266D01*
X91210Y214333D01*
X91259Y214400D01*
X91260Y214404D01*
X91263Y214408D01*
X91290Y214550D01*
X91290Y223732D01*
X91441Y223581D01*
X91457Y223571D01*
X91472Y223553D01*
X91972Y223153D01*
X91993Y223143D01*
X92014Y223124D01*
X92514Y222824D01*
X92547Y222814D01*
X92590Y222789D01*
X93790Y222389D01*
X93815Y222387D01*
X93848Y222375D01*
X94448Y222275D01*
X94474Y222277D01*
X94510Y222270D01*
X95110Y222270D01*
X95121Y222272D01*
X95135Y222271D01*
X96635Y222371D01*
X96673Y222382D01*
X96747Y222395D01*
X98047Y222895D01*
X98077Y222916D01*
X98128Y222939D01*
X99128Y223639D01*
X99147Y223660D01*
X99179Y223681D01*
X100079Y224581D01*
X100097Y224610D01*
X100131Y224646D01*
X100831Y225746D01*
X100840Y225772D01*
X100861Y225804D01*
X101361Y227004D01*
X101367Y227040D01*
X101386Y227096D01*
X101586Y228496D01*
X101585Y228508D01*
X101589Y228523D01*
X101689Y229923D01*
X101687Y229935D01*
X101690Y229950D01*
X101690Y231350D01*
X101683Y231382D01*
X101682Y231430D01*
X101382Y232830D01*
X101371Y232853D01*
X101365Y232887D01*
X100865Y234187D01*
X100850Y234208D01*
X100838Y234242D01*
X100138Y235442D01*
X100113Y235469D01*
X100079Y235519D01*
X99179Y236419D01*
X99150Y236437D01*
X99114Y236471D01*
X98014Y237171D01*
X97984Y237181D01*
X97947Y237205D01*
X96647Y237705D01*
X96610Y237710D01*
X96557Y237727D01*
X94957Y237927D01*
X94918Y237923D01*
X94848Y237925D01*
X93048Y237625D01*
X93011Y237610D01*
X92940Y237590D01*
X92411Y237326D01*
X92340Y237290D01*
X92330Y237282D01*
X92314Y237276D01*
X91314Y236676D01*
X91294Y236656D01*
X91213Y236588D01*
X91090Y236434D01*
X91090Y237150D01*
X91090Y237151D01*
X91090Y237152D01*
X91071Y237232D01*
X91051Y237319D01*
X91050Y237320D01*
X91050Y237321D01*
X90996Y237385D01*
X90941Y237452D01*
X90940Y237453D01*
X90939Y237454D01*
X90860Y237489D01*
X90782Y237523D01*
X90781Y237523D01*
X90780Y237524D01*
X90635Y237523D01*
X90135Y237423D01*
X90128Y237419D01*
X90118Y237419D01*
X89727Y237321D01*
X88772Y237130D01*
X88410Y237130D01*
X88380Y237123D01*
X88335Y237123D01*
X87835Y237023D01*
X87828Y237019D01*
X87818Y237019D01*
X87427Y236921D01*
X86935Y236823D01*
X86923Y236817D01*
X86909Y236817D01*
X86845Y236782D01*
X86778Y236751D01*
X86769Y236740D01*
X86757Y236734D01*
X86715Y236674D01*
X86668Y236617D01*
X86665Y236603D01*
X86657Y236592D01*
X86630Y236450D01*
X86630Y218050D01*
X86647Y217976D01*
X86660Y217901D01*
X86667Y217891D01*
X86669Y217881D01*
X86693Y217852D01*
X86741Y217781D01*
X87241Y217281D01*
X87257Y217271D01*
X87272Y217253D01*
X87756Y216866D01*
X88641Y215981D01*
X88657Y215971D01*
X88672Y215953D01*
X89656Y215166D01*
X90141Y214681D01*
X90157Y214671D01*
X90172Y214653D01*
X90672Y214253D01*
X90677Y214251D01*
X90679Y214248D01*
X90754Y214214D01*
X90829Y214179D01*
X90833Y214179D01*
X90838Y214177D01*
X90920Y214180D01*
G37*
G36*
X107647Y222178D02*
X107647Y222178D01*
X107730Y222189D01*
X107972Y222270D01*
X108610Y222270D01*
X108647Y222278D01*
X108730Y222289D01*
X108972Y222370D01*
X109210Y222370D01*
X109247Y222378D01*
X109330Y222389D01*
X109616Y222485D01*
X110002Y222581D01*
X110014Y222587D01*
X110030Y222589D01*
X110330Y222689D01*
X110363Y222709D01*
X110421Y222734D01*
X110701Y222921D01*
X110800Y222970D01*
X110880Y223010D01*
X110896Y223023D01*
X110921Y223034D01*
X111179Y223205D01*
X111430Y223289D01*
X111463Y223309D01*
X111521Y223334D01*
X111730Y223473D01*
X111730Y223450D01*
X111747Y223376D01*
X111760Y223301D01*
X111767Y223291D01*
X111769Y223281D01*
X111793Y223252D01*
X111841Y223181D01*
X111847Y223175D01*
X111860Y223101D01*
X111867Y223091D01*
X111869Y223081D01*
X111893Y223052D01*
X111930Y222998D01*
X111930Y222950D01*
X111941Y222900D01*
X111943Y222849D01*
X111961Y222817D01*
X111969Y222781D01*
X112002Y222742D01*
X112026Y222697D01*
X112056Y222676D01*
X112079Y222648D01*
X112126Y222627D01*
X112168Y222597D01*
X112210Y222589D01*
X112238Y222577D01*
X112268Y222578D01*
X112310Y222570D01*
X116210Y222570D01*
X116260Y222581D01*
X116311Y222583D01*
X116343Y222601D01*
X116379Y222609D01*
X116418Y222642D01*
X116463Y222666D01*
X116484Y222696D01*
X116512Y222719D01*
X116533Y222766D01*
X116563Y222808D01*
X116571Y222850D01*
X116583Y222878D01*
X116582Y222908D01*
X116590Y222950D01*
X116590Y223050D01*
X116587Y223065D01*
X116589Y223080D01*
X116552Y223212D01*
X116551Y223219D01*
X116550Y223219D01*
X116550Y223220D01*
X116490Y223340D01*
X116490Y223350D01*
X116487Y223365D01*
X116489Y223380D01*
X116452Y223512D01*
X116451Y223519D01*
X116450Y223519D01*
X116450Y223520D01*
X116390Y223640D01*
X116390Y223650D01*
X116387Y223665D01*
X116389Y223680D01*
X116352Y223812D01*
X116351Y223819D01*
X116350Y223819D01*
X116350Y223820D01*
X116290Y223940D01*
X116290Y224250D01*
X116287Y224265D01*
X116289Y224280D01*
X116252Y224412D01*
X116251Y224419D01*
X116250Y224419D01*
X116250Y224420D01*
X116190Y224540D01*
X116190Y233450D01*
X116184Y233476D01*
X116185Y233513D01*
X115985Y234713D01*
X115970Y234749D01*
X115950Y234820D01*
X115757Y235206D01*
X115563Y235691D01*
X115561Y235695D01*
X115560Y235699D01*
X115479Y235819D01*
X114779Y236519D01*
X114759Y236531D01*
X114738Y236554D01*
X114338Y236854D01*
X114312Y236866D01*
X114280Y236890D01*
X113880Y237090D01*
X113866Y237093D01*
X113851Y237103D01*
X113351Y237303D01*
X113329Y237306D01*
X113302Y237319D01*
X112916Y237415D01*
X112330Y237611D01*
X112309Y237613D01*
X112285Y237623D01*
X111785Y237723D01*
X111753Y237722D01*
X111710Y237730D01*
X111241Y237730D01*
X110673Y237825D01*
X110646Y237823D01*
X110610Y237830D01*
X108410Y237830D01*
X108384Y237824D01*
X108348Y237825D01*
X106548Y237525D01*
X106517Y237512D01*
X106469Y237503D01*
X105469Y237103D01*
X105447Y237088D01*
X105414Y237076D01*
X104914Y236776D01*
X104902Y236764D01*
X104882Y236754D01*
X104082Y236154D01*
X104067Y236136D01*
X104041Y236119D01*
X103641Y235719D01*
X103629Y235699D01*
X103606Y235678D01*
X103306Y235278D01*
X103299Y235262D01*
X103284Y235246D01*
X102984Y234746D01*
X102974Y234713D01*
X102949Y234670D01*
X102749Y234070D01*
X102747Y234049D01*
X102741Y234033D01*
X102739Y234030D01*
X102737Y234025D01*
X102637Y233525D01*
X102637Y233515D01*
X102634Y233504D01*
X102534Y232804D01*
X102540Y232727D01*
X102543Y232649D01*
X102548Y232641D01*
X102549Y232631D01*
X102589Y232565D01*
X102626Y232497D01*
X102634Y232492D01*
X102639Y232483D01*
X102705Y232442D01*
X102768Y232397D01*
X102778Y232395D01*
X102785Y232391D01*
X102821Y232387D01*
X102910Y232370D01*
X106810Y232370D01*
X106860Y232381D01*
X106911Y232383D01*
X106943Y232401D01*
X106979Y232409D01*
X107018Y232442D01*
X107063Y232466D01*
X107084Y232496D01*
X107112Y232519D01*
X107133Y232566D01*
X107163Y232608D01*
X107171Y232650D01*
X107183Y232678D01*
X107182Y232708D01*
X107190Y232750D01*
X107190Y232960D01*
X107250Y233080D01*
X107254Y233095D01*
X107263Y233108D01*
X107289Y233242D01*
X107290Y233249D01*
X107290Y233250D01*
X107290Y233460D01*
X107423Y233725D01*
X107935Y234238D01*
X108200Y234370D01*
X108310Y234370D01*
X108347Y234378D01*
X108430Y234389D01*
X108672Y234470D01*
X109110Y234470D01*
X109147Y234478D01*
X109230Y234489D01*
X109381Y234539D01*
X109440Y234510D01*
X109455Y234506D01*
X109468Y234497D01*
X109602Y234471D01*
X109609Y234470D01*
X109610Y234470D01*
X110220Y234470D01*
X110340Y234410D01*
X110355Y234406D01*
X110368Y234397D01*
X110502Y234371D01*
X110509Y234370D01*
X110510Y234370D01*
X110620Y234370D01*
X111085Y234138D01*
X111298Y233925D01*
X111430Y233660D01*
X111430Y233550D01*
X111438Y233513D01*
X111449Y233430D01*
X111530Y233188D01*
X111530Y232988D01*
X111454Y232609D01*
X111238Y232322D01*
X110931Y232091D01*
X110422Y231922D01*
X109759Y231827D01*
X108967Y231728D01*
X108068Y231628D01*
X108051Y231622D01*
X108028Y231621D01*
X107145Y231425D01*
X106363Y231327D01*
X106348Y231322D01*
X106328Y231321D01*
X105428Y231121D01*
X105407Y231111D01*
X105377Y231106D01*
X104577Y230806D01*
X104555Y230791D01*
X104521Y230780D01*
X103821Y230380D01*
X103793Y230354D01*
X103741Y230319D01*
X103141Y229719D01*
X103127Y229696D01*
X103101Y229671D01*
X102601Y228971D01*
X102586Y228935D01*
X102549Y228870D01*
X102249Y227970D01*
X102248Y227953D01*
X102245Y227946D01*
X102245Y227932D01*
X102231Y227884D01*
X102131Y226784D01*
X102133Y226769D01*
X102130Y226750D01*
X102130Y226250D01*
X102137Y226220D01*
X102137Y226175D01*
X102237Y225675D01*
X102241Y225668D01*
X102241Y225658D01*
X102441Y224858D01*
X102457Y224828D01*
X102470Y224780D01*
X102670Y224380D01*
X102688Y224358D01*
X102706Y224322D01*
X103006Y223922D01*
X103024Y223907D01*
X103041Y223881D01*
X103641Y223281D01*
X103668Y223265D01*
X103699Y223234D01*
X103999Y223034D01*
X104019Y223026D01*
X104040Y223010D01*
X104840Y222610D01*
X104873Y222602D01*
X104918Y222581D01*
X105277Y222491D01*
X105640Y222310D01*
X105655Y222306D01*
X105668Y222297D01*
X105802Y222271D01*
X105809Y222270D01*
X105810Y222270D01*
X106272Y222270D01*
X106735Y222177D01*
X106767Y222178D01*
X106810Y222170D01*
X107610Y222170D01*
X107647Y222178D01*
G37*
G36*
X132460Y222581D02*
X132460Y222581D01*
X132511Y222583D01*
X132543Y222601D01*
X132579Y222609D01*
X132618Y222642D01*
X132663Y222666D01*
X132684Y222696D01*
X132712Y222719D01*
X132733Y222766D01*
X132763Y222808D01*
X132771Y222850D01*
X132783Y222878D01*
X132782Y222908D01*
X132790Y222950D01*
X132790Y227693D01*
X133837Y228739D01*
X137485Y222752D01*
X137510Y222727D01*
X137526Y222697D01*
X137569Y222667D01*
X137607Y222629D01*
X137640Y222617D01*
X137668Y222597D01*
X137734Y222585D01*
X137770Y222572D01*
X137788Y222574D01*
X137810Y222570D01*
X142510Y222570D01*
X142582Y222587D01*
X142654Y222598D01*
X142665Y222606D01*
X142679Y222609D01*
X142735Y222656D01*
X142795Y222699D01*
X142802Y222711D01*
X142812Y222719D01*
X142842Y222787D01*
X142877Y222851D01*
X142878Y222865D01*
X142883Y222878D01*
X142880Y222951D01*
X142883Y223024D01*
X142877Y223038D01*
X142877Y223051D01*
X142858Y223085D01*
X142828Y223158D01*
X137099Y231897D01*
X142176Y236879D01*
X142191Y236902D01*
X142212Y236919D01*
X142237Y236974D01*
X142269Y237025D01*
X142272Y237052D01*
X142283Y237078D01*
X142281Y237138D01*
X142287Y237197D01*
X142278Y237223D01*
X142277Y237251D01*
X142248Y237303D01*
X142227Y237360D01*
X142207Y237379D01*
X142194Y237403D01*
X142145Y237437D01*
X142101Y237479D01*
X142075Y237487D01*
X142052Y237503D01*
X141972Y237518D01*
X141936Y237529D01*
X141924Y237528D01*
X141910Y237530D01*
X137310Y237530D01*
X137232Y237512D01*
X137154Y237497D01*
X137148Y237492D01*
X137141Y237491D01*
X137116Y237470D01*
X137036Y237413D01*
X132790Y232995D01*
X132790Y242550D01*
X132776Y242612D01*
X132769Y242674D01*
X132756Y242695D01*
X132751Y242719D01*
X132710Y242768D01*
X132677Y242821D01*
X132656Y242834D01*
X132641Y242852D01*
X132583Y242878D01*
X132529Y242911D01*
X132505Y242913D01*
X132482Y242923D01*
X132419Y242921D01*
X132356Y242926D01*
X132331Y242918D01*
X132309Y242917D01*
X132276Y242899D01*
X132219Y242879D01*
X128419Y240679D01*
X128391Y240652D01*
X128357Y240634D01*
X128329Y240594D01*
X128293Y240560D01*
X128280Y240524D01*
X128257Y240492D01*
X128246Y240433D01*
X128233Y240398D01*
X128235Y240377D01*
X128230Y240350D01*
X128230Y222950D01*
X128241Y222900D01*
X128243Y222849D01*
X128261Y222817D01*
X128269Y222781D01*
X128302Y222742D01*
X128326Y222697D01*
X128356Y222676D01*
X128379Y222648D01*
X128426Y222627D01*
X128468Y222597D01*
X128510Y222589D01*
X128538Y222577D01*
X128568Y222578D01*
X128610Y222570D01*
X132410Y222570D01*
X132460Y222581D01*
G37*
G36*
X171860Y222581D02*
X171860Y222581D01*
X171911Y222583D01*
X171943Y222601D01*
X171979Y222609D01*
X172018Y222642D01*
X172063Y222666D01*
X172084Y222696D01*
X172112Y222719D01*
X172133Y222766D01*
X172163Y222808D01*
X172171Y222850D01*
X172183Y222878D01*
X172182Y222908D01*
X172190Y222950D01*
X172190Y231308D01*
X172379Y232156D01*
X172562Y232797D01*
X172823Y233232D01*
X173164Y233659D01*
X173540Y233884D01*
X174806Y234065D01*
X175856Y233890D01*
X176138Y233678D01*
X176394Y233338D01*
X176662Y232890D01*
X176838Y232362D01*
X176930Y231723D01*
X176930Y222950D01*
X176941Y222900D01*
X176943Y222849D01*
X176961Y222817D01*
X176969Y222781D01*
X177002Y222742D01*
X177026Y222697D01*
X177056Y222676D01*
X177079Y222648D01*
X177126Y222627D01*
X177168Y222597D01*
X177210Y222589D01*
X177238Y222577D01*
X177268Y222578D01*
X177310Y222570D01*
X181210Y222570D01*
X181260Y222581D01*
X181311Y222583D01*
X181343Y222601D01*
X181379Y222609D01*
X181418Y222642D01*
X181463Y222666D01*
X181484Y222696D01*
X181512Y222719D01*
X181533Y222766D01*
X181563Y222808D01*
X181571Y222850D01*
X181583Y222878D01*
X181582Y222908D01*
X181590Y222950D01*
X181590Y231650D01*
X181587Y231663D01*
X181589Y231679D01*
X181489Y232979D01*
X181488Y232982D01*
X181489Y232984D01*
X181389Y234084D01*
X181376Y234122D01*
X181363Y234191D01*
X180963Y235191D01*
X180951Y235209D01*
X180942Y235235D01*
X180442Y236135D01*
X180416Y236163D01*
X180379Y236219D01*
X179779Y236819D01*
X179746Y236839D01*
X179695Y236882D01*
X178795Y237382D01*
X178758Y237393D01*
X178702Y237419D01*
X177502Y237719D01*
X177485Y237719D01*
X177464Y237726D01*
X176064Y237926D01*
X176025Y237923D01*
X175948Y237925D01*
X174748Y237725D01*
X174724Y237715D01*
X174690Y237711D01*
X173490Y237311D01*
X173461Y237293D01*
X173414Y237276D01*
X172914Y236976D01*
X172908Y236970D01*
X172899Y236966D01*
X172299Y236566D01*
X172273Y236538D01*
X172213Y236488D01*
X171990Y236209D01*
X171990Y237150D01*
X171979Y237200D01*
X171977Y237251D01*
X171959Y237283D01*
X171951Y237319D01*
X171918Y237358D01*
X171894Y237403D01*
X171864Y237424D01*
X171841Y237452D01*
X171794Y237473D01*
X171752Y237503D01*
X171710Y237511D01*
X171682Y237523D01*
X171652Y237522D01*
X171610Y237530D01*
X168010Y237530D01*
X167970Y237521D01*
X167930Y237522D01*
X167887Y237502D01*
X167841Y237491D01*
X167810Y237465D01*
X167773Y237448D01*
X167744Y237411D01*
X167708Y237381D01*
X167691Y237344D01*
X167666Y237312D01*
X167652Y237256D01*
X167637Y237222D01*
X167638Y237200D01*
X167630Y237171D01*
X167530Y235371D01*
X167532Y235362D01*
X167530Y235350D01*
X167530Y222950D01*
X167541Y222900D01*
X167543Y222849D01*
X167561Y222817D01*
X167569Y222781D01*
X167602Y222742D01*
X167626Y222697D01*
X167656Y222676D01*
X167679Y222648D01*
X167726Y222627D01*
X167768Y222597D01*
X167810Y222589D01*
X167838Y222577D01*
X167868Y222578D01*
X167910Y222570D01*
X171810Y222570D01*
X171860Y222581D01*
G37*
G36*
X158464Y222274D02*
X158464Y222274D01*
X158468Y222275D01*
X158473Y222275D01*
X159073Y222375D01*
X159096Y222385D01*
X159130Y222389D01*
X160330Y222789D01*
X160359Y222807D01*
X160406Y222824D01*
X160906Y223124D01*
X160932Y223149D01*
X160979Y223181D01*
X161464Y223666D01*
X161730Y223879D01*
X161730Y222950D01*
X161741Y222900D01*
X161743Y222849D01*
X161761Y222817D01*
X161769Y222781D01*
X161802Y222742D01*
X161826Y222697D01*
X161856Y222676D01*
X161879Y222648D01*
X161926Y222627D01*
X161968Y222597D01*
X162010Y222589D01*
X162038Y222577D01*
X162068Y222578D01*
X162110Y222570D01*
X165810Y222570D01*
X165860Y222581D01*
X165911Y222583D01*
X165943Y222601D01*
X165979Y222609D01*
X166018Y222642D01*
X166063Y222666D01*
X166084Y222696D01*
X166112Y222719D01*
X166133Y222766D01*
X166163Y222808D01*
X166171Y222850D01*
X166183Y222878D01*
X166182Y222908D01*
X166190Y222950D01*
X166190Y237150D01*
X166179Y237200D01*
X166177Y237251D01*
X166159Y237283D01*
X166151Y237319D01*
X166118Y237358D01*
X166094Y237403D01*
X166064Y237424D01*
X166041Y237452D01*
X165994Y237473D01*
X165952Y237503D01*
X165910Y237511D01*
X165882Y237523D01*
X165852Y237522D01*
X165810Y237530D01*
X162010Y237530D01*
X161960Y237519D01*
X161909Y237517D01*
X161877Y237499D01*
X161841Y237491D01*
X161802Y237458D01*
X161757Y237434D01*
X161736Y237404D01*
X161708Y237381D01*
X161687Y237334D01*
X161657Y237292D01*
X161649Y237250D01*
X161637Y237222D01*
X161638Y237192D01*
X161630Y237150D01*
X161630Y229769D01*
X161532Y228790D01*
X161436Y227924D01*
X161258Y227303D01*
X161008Y226886D01*
X160574Y226452D01*
X160176Y226213D01*
X159653Y226126D01*
X159010Y226034D01*
X158374Y226125D01*
X157969Y226206D01*
X157660Y226438D01*
X157334Y226764D01*
X157167Y227181D01*
X156982Y227738D01*
X156890Y228377D01*
X156890Y237150D01*
X156879Y237200D01*
X156877Y237251D01*
X156859Y237283D01*
X156851Y237319D01*
X156818Y237358D01*
X156794Y237403D01*
X156764Y237424D01*
X156741Y237452D01*
X156694Y237473D01*
X156652Y237503D01*
X156610Y237511D01*
X156582Y237523D01*
X156552Y237522D01*
X156510Y237530D01*
X152610Y237530D01*
X152560Y237519D01*
X152509Y237517D01*
X152477Y237499D01*
X152441Y237491D01*
X152402Y237458D01*
X152357Y237434D01*
X152336Y237404D01*
X152308Y237381D01*
X152287Y237334D01*
X152257Y237292D01*
X152249Y237250D01*
X152237Y237222D01*
X152238Y237192D01*
X152230Y237150D01*
X152230Y227150D01*
X152236Y227122D01*
X152236Y227082D01*
X152436Y225982D01*
X152443Y225965D01*
X152446Y225941D01*
X152746Y224941D01*
X152762Y224912D01*
X152778Y224865D01*
X153278Y223965D01*
X153297Y223944D01*
X153363Y223861D01*
X154063Y223261D01*
X154091Y223247D01*
X154125Y223218D01*
X155025Y222718D01*
X155060Y222708D01*
X155110Y222683D01*
X156210Y222383D01*
X156231Y222382D01*
X156256Y222374D01*
X157656Y222174D01*
X157695Y222177D01*
X157764Y222174D01*
X158464Y222274D01*
G37*
G36*
X80136Y222276D02*
X80136Y222276D01*
X80173Y222275D01*
X81373Y222475D01*
X81400Y222486D01*
X81440Y222493D01*
X82540Y222893D01*
X82556Y222903D01*
X82580Y222910D01*
X82900Y223070D01*
X83580Y223410D01*
X83602Y223428D01*
X83638Y223446D01*
X84438Y224046D01*
X84460Y224072D01*
X84526Y224139D01*
X85126Y225039D01*
X85134Y225059D01*
X85150Y225080D01*
X85650Y226080D01*
X85650Y226081D01*
X85651Y226081D01*
X85689Y226221D01*
X85789Y227521D01*
X85785Y227550D01*
X85788Y227592D01*
X85688Y228492D01*
X85676Y228527D01*
X85666Y228584D01*
X85366Y229384D01*
X85347Y229413D01*
X85326Y229461D01*
X84926Y230061D01*
X84898Y230088D01*
X84853Y230142D01*
X84253Y230642D01*
X84228Y230655D01*
X84199Y230680D01*
X83499Y231080D01*
X83480Y231086D01*
X83460Y231100D01*
X82760Y231400D01*
X82752Y231401D01*
X82744Y231406D01*
X81944Y231706D01*
X81920Y231709D01*
X81893Y231721D01*
X80998Y231920D01*
X80202Y232119D01*
X80182Y232119D01*
X80157Y232127D01*
X79386Y232224D01*
X78023Y232613D01*
X77489Y232791D01*
X77182Y233022D01*
X76966Y233309D01*
X76900Y233641D01*
X76975Y233944D01*
X77030Y234106D01*
X77479Y234405D01*
X77672Y234470D01*
X78010Y234470D01*
X78047Y234478D01*
X78130Y234489D01*
X78372Y234570D01*
X79172Y234570D01*
X79627Y234479D01*
X79977Y234391D01*
X80285Y234238D01*
X80767Y233756D01*
X80839Y233467D01*
X80937Y232975D01*
X80943Y232963D01*
X80943Y232949D01*
X80979Y232885D01*
X81009Y232818D01*
X81020Y232809D01*
X81026Y232797D01*
X81086Y232755D01*
X81143Y232708D01*
X81157Y232705D01*
X81168Y232697D01*
X81310Y232670D01*
X85010Y232670D01*
X85093Y232689D01*
X85175Y232707D01*
X85176Y232709D01*
X85179Y232709D01*
X85244Y232763D01*
X85310Y232816D01*
X85311Y232818D01*
X85312Y232819D01*
X85347Y232896D01*
X85382Y232973D01*
X85382Y232976D01*
X85383Y232978D01*
X85383Y232994D01*
X85384Y233118D01*
X85184Y234218D01*
X85171Y234247D01*
X85163Y234291D01*
X84763Y235291D01*
X84743Y235320D01*
X84696Y235400D01*
X83996Y236200D01*
X83983Y236210D01*
X83982Y236212D01*
X83967Y236223D01*
X83938Y236254D01*
X83138Y236854D01*
X83117Y236863D01*
X83095Y236882D01*
X82195Y237382D01*
X82162Y237392D01*
X82119Y237414D01*
X81119Y237714D01*
X81088Y237716D01*
X81044Y237729D01*
X78844Y237929D01*
X78817Y237925D01*
X78778Y237929D01*
X77578Y237829D01*
X77577Y237829D01*
X77576Y237829D01*
X76476Y237729D01*
X76445Y237719D01*
X76401Y237714D01*
X75401Y237414D01*
X75372Y237398D01*
X75325Y237382D01*
X74425Y236882D01*
X74409Y236867D01*
X74382Y236854D01*
X73582Y236254D01*
X73560Y236228D01*
X73521Y236197D01*
X72921Y235497D01*
X72904Y235465D01*
X72857Y235391D01*
X72457Y234391D01*
X72452Y234357D01*
X72434Y234308D01*
X72234Y233008D01*
X72237Y232969D01*
X72233Y232903D01*
X72333Y232103D01*
X72342Y232079D01*
X72343Y232056D01*
X72350Y232043D01*
X72354Y232017D01*
X72654Y231217D01*
X72659Y231210D01*
X72660Y231201D01*
X72741Y231081D01*
X73741Y230081D01*
X73774Y230061D01*
X73821Y230020D01*
X74521Y229620D01*
X74547Y229612D01*
X74577Y229594D01*
X75377Y229294D01*
X75395Y229292D01*
X75418Y229281D01*
X76197Y229086D01*
X76977Y228794D01*
X77003Y228791D01*
X77035Y228777D01*
X78032Y228578D01*
X78916Y228381D01*
X80257Y227998D01*
X80674Y227748D01*
X80915Y227508D01*
X81057Y227294D01*
X81130Y227003D01*
X81130Y226640D01*
X80998Y226375D01*
X80516Y225893D01*
X80218Y225819D01*
X80198Y225809D01*
X80169Y225803D01*
X79737Y225630D01*
X79410Y225630D01*
X79374Y225622D01*
X79318Y225619D01*
X78994Y225538D01*
X78479Y225624D01*
X78019Y225716D01*
X77098Y226084D01*
X76823Y226290D01*
X76663Y226691D01*
X76655Y226703D01*
X76650Y226720D01*
X76476Y227069D01*
X76385Y227613D01*
X76377Y227631D01*
X76377Y227651D01*
X76344Y227710D01*
X76318Y227772D01*
X76303Y227786D01*
X76294Y227803D01*
X76239Y227842D01*
X76188Y227886D01*
X76168Y227891D01*
X76152Y227903D01*
X76047Y227923D01*
X76020Y227930D01*
X76016Y227929D01*
X76010Y227930D01*
X72310Y227930D01*
X72230Y227912D01*
X72150Y227895D01*
X72146Y227892D01*
X72141Y227891D01*
X72078Y227839D01*
X72014Y227789D01*
X72012Y227784D01*
X72008Y227781D01*
X71974Y227706D01*
X71939Y227632D01*
X71939Y227627D01*
X71937Y227622D01*
X71938Y227595D01*
X71935Y227488D01*
X72135Y226288D01*
X72146Y226260D01*
X72153Y226220D01*
X72553Y225120D01*
X72574Y225088D01*
X72610Y225017D01*
X73310Y224117D01*
X73340Y224093D01*
X73382Y224046D01*
X74182Y223446D01*
X74208Y223434D01*
X74240Y223410D01*
X75240Y222910D01*
X75259Y222905D01*
X75280Y222893D01*
X76380Y222493D01*
X76409Y222489D01*
X76448Y222475D01*
X77648Y222275D01*
X77674Y222277D01*
X77710Y222270D01*
X80110Y222270D01*
X80136Y222276D01*
G37*
G36*
X148860Y222581D02*
X148860Y222581D01*
X148911Y222583D01*
X148943Y222601D01*
X148979Y222609D01*
X149018Y222642D01*
X149063Y222666D01*
X149084Y222696D01*
X149112Y222719D01*
X149133Y222766D01*
X149163Y222808D01*
X149171Y222850D01*
X149183Y222878D01*
X149182Y222908D01*
X149190Y222950D01*
X149190Y234170D01*
X151510Y234170D01*
X151560Y234181D01*
X151611Y234183D01*
X151643Y234201D01*
X151679Y234209D01*
X151718Y234242D01*
X151763Y234266D01*
X151784Y234296D01*
X151812Y234319D01*
X151833Y234366D01*
X151863Y234408D01*
X151871Y234450D01*
X151883Y234478D01*
X151882Y234508D01*
X151890Y234550D01*
X151890Y237150D01*
X151879Y237200D01*
X151877Y237251D01*
X151859Y237283D01*
X151851Y237319D01*
X151818Y237358D01*
X151794Y237403D01*
X151764Y237424D01*
X151741Y237452D01*
X151694Y237473D01*
X151652Y237503D01*
X151610Y237511D01*
X151582Y237523D01*
X151552Y237522D01*
X151510Y237530D01*
X149190Y237530D01*
X149190Y238303D01*
X149269Y238617D01*
X149350Y238780D01*
X149356Y238803D01*
X149371Y238830D01*
X149421Y238980D01*
X149456Y238998D01*
X149972Y239170D01*
X151710Y239170D01*
X151760Y239181D01*
X151811Y239183D01*
X151843Y239201D01*
X151879Y239209D01*
X151918Y239242D01*
X151963Y239266D01*
X151984Y239296D01*
X152012Y239319D01*
X152033Y239366D01*
X152063Y239408D01*
X152071Y239450D01*
X152083Y239478D01*
X152082Y239508D01*
X152090Y239550D01*
X152090Y242450D01*
X152079Y242500D01*
X152077Y242551D01*
X152059Y242583D01*
X152051Y242619D01*
X152018Y242658D01*
X151994Y242703D01*
X151964Y242724D01*
X151941Y242752D01*
X151894Y242773D01*
X151852Y242803D01*
X151810Y242811D01*
X151782Y242823D01*
X151752Y242822D01*
X151710Y242830D01*
X150772Y242830D01*
X150530Y242911D01*
X150493Y242914D01*
X150410Y242930D01*
X149610Y242930D01*
X149595Y242927D01*
X149576Y242929D01*
X148476Y242829D01*
X148445Y242819D01*
X148401Y242814D01*
X147401Y242514D01*
X147391Y242508D01*
X147377Y242506D01*
X146577Y242206D01*
X146570Y242201D01*
X146561Y242200D01*
X146441Y242119D01*
X145841Y241519D01*
X145833Y241506D01*
X145818Y241493D01*
X145318Y240893D01*
X145305Y240868D01*
X145280Y240839D01*
X144880Y240139D01*
X144869Y240102D01*
X144841Y240042D01*
X144641Y239242D01*
X144641Y239220D01*
X144632Y239192D01*
X144532Y238292D01*
X144534Y238273D01*
X144530Y238250D01*
X144530Y237530D01*
X143710Y237530D01*
X143694Y237527D01*
X143678Y237529D01*
X143611Y237507D01*
X143541Y237491D01*
X143529Y237480D01*
X143513Y237475D01*
X143417Y237388D01*
X143408Y237381D01*
X143407Y237379D01*
X143406Y237378D01*
X143138Y237022D01*
X142782Y236754D01*
X142767Y236736D01*
X142741Y236719D01*
X142141Y236119D01*
X142129Y236099D01*
X142106Y236078D01*
X141838Y235722D01*
X141482Y235454D01*
X141467Y235436D01*
X141441Y235419D01*
X140841Y234819D01*
X140828Y234797D01*
X140808Y234781D01*
X140782Y234724D01*
X140750Y234672D01*
X140747Y234646D01*
X140737Y234622D01*
X140739Y234561D01*
X140733Y234499D01*
X140742Y234475D01*
X140743Y234449D01*
X140773Y234395D01*
X140795Y234337D01*
X140814Y234320D01*
X140826Y234297D01*
X140877Y234262D01*
X140922Y234220D01*
X140947Y234212D01*
X140968Y234197D01*
X141052Y234181D01*
X141088Y234170D01*
X141098Y234172D01*
X141110Y234170D01*
X144530Y234170D01*
X144530Y222950D01*
X144541Y222900D01*
X144543Y222849D01*
X144561Y222817D01*
X144569Y222781D01*
X144602Y222742D01*
X144626Y222697D01*
X144656Y222676D01*
X144679Y222648D01*
X144726Y222627D01*
X144768Y222597D01*
X144810Y222589D01*
X144838Y222577D01*
X144868Y222578D01*
X144910Y222570D01*
X148810Y222570D01*
X148860Y222581D01*
G37*
G36*
X91004Y159154D02*
X91004Y159154D01*
X91006Y159151D01*
X91806Y159251D01*
X91809Y159254D01*
X91812Y159252D01*
X92612Y159452D01*
X92615Y159456D01*
X92617Y159454D01*
X93417Y159754D01*
X93422Y159762D01*
X93429Y159760D01*
X94129Y160260D01*
X94129Y160263D01*
X94132Y160262D01*
X94732Y160762D01*
X94733Y160768D01*
X94737Y160768D01*
X95337Y161468D01*
X95338Y161471D01*
X95340Y161471D01*
X95840Y162171D01*
X95840Y162179D01*
X95845Y162181D01*
X96145Y162881D01*
X96145Y162882D01*
X96146Y162883D01*
X96446Y163683D01*
X96444Y163691D01*
X96449Y163695D01*
X96549Y164594D01*
X96649Y165394D01*
X96645Y165401D01*
X96649Y165405D01*
X96549Y166305D01*
X96545Y166309D01*
X96548Y166312D01*
X96348Y167112D01*
X96344Y167115D01*
X96346Y167117D01*
X96046Y167917D01*
X96041Y167920D01*
X96043Y167924D01*
X95643Y168624D01*
X95639Y168626D01*
X95640Y168629D01*
X95140Y169329D01*
X95134Y169330D01*
X95135Y169335D01*
X94535Y169935D01*
X94529Y169936D01*
X94529Y169940D01*
X93829Y170440D01*
X93825Y170440D01*
X93824Y170443D01*
X93124Y170843D01*
X93119Y170842D01*
X93117Y170846D01*
X92317Y171146D01*
X92313Y171145D01*
X92312Y171148D01*
X91512Y171348D01*
X91507Y171346D01*
X91505Y171349D01*
X90605Y171449D01*
X90596Y171443D01*
X90590Y171448D01*
X90092Y171349D01*
X89294Y171249D01*
X89291Y171246D01*
X89288Y171248D01*
X88488Y171048D01*
X88483Y171042D01*
X88478Y171044D01*
X87678Y170644D01*
X87675Y170639D01*
X87671Y170640D01*
X86971Y170140D01*
X86970Y170134D01*
X86965Y170135D01*
X86365Y169535D01*
X86365Y169531D01*
X86362Y169532D01*
X85862Y168932D01*
X85862Y168929D01*
X85860Y168929D01*
X85360Y168229D01*
X85360Y168219D01*
X85354Y168217D01*
X85054Y167417D01*
X85055Y167413D01*
X85052Y167412D01*
X84852Y166612D01*
X84854Y166607D01*
X84851Y166605D01*
X84751Y165705D01*
X84753Y165702D01*
X84751Y165700D01*
X84751Y164800D01*
X84754Y164796D01*
X84751Y164794D01*
X84851Y163994D01*
X84854Y163991D01*
X84852Y163988D01*
X85052Y163188D01*
X85057Y163184D01*
X85055Y163181D01*
X85355Y162481D01*
X85398Y162456D01*
X85374Y162442D01*
X85367Y162424D01*
X85355Y162415D01*
X85361Y162407D01*
X85353Y162387D01*
X85363Y162382D01*
X85360Y162371D01*
X85860Y161671D01*
X85863Y161671D01*
X85862Y161668D01*
X86362Y161068D01*
X86368Y161067D01*
X86368Y161063D01*
X87068Y160463D01*
X87071Y160462D01*
X87071Y160460D01*
X87771Y159960D01*
X87775Y159960D01*
X87776Y159957D01*
X88476Y159557D01*
X88481Y159558D01*
X88483Y159554D01*
X89283Y159254D01*
X89291Y159256D01*
X89294Y159251D01*
X90094Y159151D01*
X90098Y159153D01*
X90100Y159151D01*
X91000Y159151D01*
X91004Y159154D01*
G37*
G36*
X141307Y159156D02*
X141307Y159156D01*
X141312Y159152D01*
X142112Y159352D01*
X142117Y159358D01*
X142122Y159356D01*
X142922Y159756D01*
X142927Y159766D01*
X142935Y159765D01*
X143535Y160365D01*
X143535Y160369D01*
X143538Y160368D01*
X144038Y160968D01*
X144038Y160973D01*
X144041Y160973D01*
X144441Y161573D01*
X144440Y161581D01*
X144446Y161583D01*
X144746Y162383D01*
X144745Y162386D01*
X144748Y162388D01*
X144948Y163188D01*
X144946Y163193D01*
X144949Y163195D01*
X145149Y164995D01*
X145147Y164998D01*
X145149Y165000D01*
X145149Y165900D01*
X145147Y165903D01*
X145149Y165905D01*
X145049Y166805D01*
X145045Y166809D01*
X145048Y166812D01*
X144648Y168412D01*
X144644Y168415D01*
X144646Y168417D01*
X144346Y169217D01*
X144338Y169222D01*
X144340Y169229D01*
X143840Y169929D01*
X143837Y169929D01*
X143838Y169932D01*
X143338Y170532D01*
X143327Y170534D01*
X143326Y170542D01*
X142526Y171042D01*
X142525Y171042D01*
X142524Y171043D01*
X141824Y171443D01*
X141811Y171441D01*
X141806Y171449D01*
X141006Y171549D01*
X141002Y171547D01*
X141000Y171549D01*
X140000Y171549D01*
X139993Y171544D01*
X139988Y171548D01*
X139188Y171348D01*
X139184Y171343D01*
X139181Y171345D01*
X138481Y171045D01*
X138479Y171043D01*
X138478Y171044D01*
X137678Y170644D01*
X137669Y170627D01*
X137658Y170625D01*
X137358Y170126D01*
X136959Y169527D01*
X136959Y169523D01*
X136956Y169522D01*
X136556Y168722D01*
X136556Y168719D01*
X136555Y168719D01*
X136556Y168718D01*
X136554Y168717D01*
X136254Y167917D01*
X136255Y167913D01*
X136252Y167912D01*
X136052Y167112D01*
X136054Y167107D01*
X136051Y167105D01*
X135951Y166205D01*
X135953Y166202D01*
X135951Y166200D01*
X135951Y165300D01*
X135953Y165297D01*
X135951Y165295D01*
X136051Y164397D01*
X136051Y163500D01*
X136056Y163493D01*
X136052Y163488D01*
X136252Y162688D01*
X136256Y162685D01*
X136254Y162683D01*
X136554Y161883D01*
X136555Y161882D01*
X136555Y161881D01*
X136855Y161181D01*
X136862Y161177D01*
X136860Y161171D01*
X137360Y160471D01*
X137369Y160469D01*
X137368Y160462D01*
X137968Y159962D01*
X137974Y159962D01*
X137974Y159958D01*
X138774Y159458D01*
X138784Y159459D01*
X138786Y159453D01*
X139486Y159253D01*
X139492Y159255D01*
X139495Y159251D01*
X140395Y159151D01*
X140398Y159153D01*
X140400Y159151D01*
X141300Y159151D01*
X141307Y159156D01*
G37*
G36*
X121860Y222581D02*
X121860Y222581D01*
X121911Y222583D01*
X121943Y222601D01*
X121979Y222609D01*
X122018Y222642D01*
X122063Y222666D01*
X122084Y222696D01*
X122112Y222719D01*
X122133Y222766D01*
X122163Y222808D01*
X122171Y222850D01*
X122183Y222878D01*
X122182Y222908D01*
X122190Y222950D01*
X122190Y230208D01*
X122374Y231033D01*
X122931Y232333D01*
X123452Y232855D01*
X123966Y233197D01*
X124675Y233374D01*
X125629Y233470D01*
X126620Y233470D01*
X126740Y233410D01*
X126755Y233406D01*
X126768Y233397D01*
X126902Y233371D01*
X126909Y233370D01*
X126910Y233370D01*
X127010Y233370D01*
X127060Y233381D01*
X127111Y233383D01*
X127143Y233401D01*
X127179Y233409D01*
X127218Y233442D01*
X127263Y233466D01*
X127284Y233496D01*
X127312Y233519D01*
X127333Y233566D01*
X127363Y233608D01*
X127371Y233650D01*
X127383Y233678D01*
X127382Y233708D01*
X127390Y233750D01*
X127390Y237350D01*
X127373Y237424D01*
X127360Y237499D01*
X127353Y237509D01*
X127351Y237519D01*
X127327Y237548D01*
X127279Y237619D01*
X127179Y237719D01*
X127114Y237759D01*
X127052Y237803D01*
X127040Y237805D01*
X127032Y237810D01*
X126995Y237814D01*
X126910Y237830D01*
X125510Y237830D01*
X125472Y237821D01*
X125406Y237816D01*
X124006Y237416D01*
X123972Y237397D01*
X123899Y237366D01*
X122699Y236566D01*
X122678Y236544D01*
X122641Y236519D01*
X122141Y236019D01*
X122125Y235992D01*
X122094Y235961D01*
X121990Y235806D01*
X121990Y237150D01*
X121988Y237160D01*
X121990Y237170D01*
X121968Y237244D01*
X121951Y237319D01*
X121944Y237327D01*
X121941Y237337D01*
X121890Y237393D01*
X121841Y237452D01*
X121831Y237457D01*
X121824Y237464D01*
X121753Y237492D01*
X121682Y237523D01*
X121672Y237523D01*
X121662Y237527D01*
X121518Y237519D01*
X121127Y237421D01*
X120635Y237323D01*
X120628Y237319D01*
X120618Y237319D01*
X120227Y237221D01*
X119772Y237130D01*
X119310Y237130D01*
X119274Y237122D01*
X119218Y237119D01*
X118827Y237021D01*
X117835Y236823D01*
X117823Y236817D01*
X117809Y236817D01*
X117745Y236782D01*
X117678Y236751D01*
X117669Y236740D01*
X117657Y236734D01*
X117615Y236674D01*
X117568Y236617D01*
X117565Y236603D01*
X117557Y236592D01*
X117530Y236450D01*
X117530Y222950D01*
X117541Y222900D01*
X117543Y222849D01*
X117561Y222817D01*
X117569Y222781D01*
X117602Y222742D01*
X117626Y222697D01*
X117656Y222676D01*
X117679Y222648D01*
X117726Y222627D01*
X117768Y222597D01*
X117810Y222589D01*
X117838Y222577D01*
X117868Y222578D01*
X117910Y222570D01*
X121810Y222570D01*
X121860Y222581D01*
G37*
G36*
X163806Y159156D02*
X163806Y159156D01*
X163811Y159152D01*
X164711Y159352D01*
X164718Y159360D01*
X164724Y159357D01*
X165424Y159757D01*
X165426Y159761D01*
X165429Y159760D01*
X166129Y160260D01*
X166130Y160266D01*
X166135Y160265D01*
X166735Y160865D01*
X166736Y160871D01*
X166740Y160871D01*
X167240Y161571D01*
X167240Y161585D01*
X167248Y161588D01*
X167448Y162388D01*
X167446Y162392D01*
X167449Y162394D01*
X167549Y163194D01*
X167547Y163198D01*
X167549Y163200D01*
X167549Y163700D01*
X167542Y163710D01*
X167546Y163717D01*
X167246Y164517D01*
X167240Y164521D01*
X167242Y164526D01*
X166742Y165326D01*
X166734Y165329D01*
X166735Y165335D01*
X166267Y165803D01*
X166738Y166368D01*
X166738Y166376D01*
X166739Y166377D01*
X166739Y166378D01*
X166745Y166380D01*
X167145Y167280D01*
X167143Y167290D01*
X167149Y167294D01*
X167249Y168094D01*
X167243Y168104D01*
X167248Y168111D01*
X167048Y169011D01*
X167043Y169015D01*
X167045Y169019D01*
X166745Y169719D01*
X166738Y169723D01*
X166740Y169729D01*
X166240Y170429D01*
X166229Y170432D01*
X166229Y170440D01*
X165529Y170940D01*
X165525Y170940D01*
X165524Y170943D01*
X164824Y171343D01*
X164819Y171342D01*
X164817Y171346D01*
X164017Y171646D01*
X164005Y171643D01*
X164000Y171649D01*
X163100Y171649D01*
X163096Y171646D01*
X163094Y171649D01*
X162294Y171549D01*
X162291Y171546D01*
X162288Y171548D01*
X161488Y171348D01*
X161480Y171337D01*
X161471Y171340D01*
X160071Y170340D01*
X160068Y170329D01*
X160060Y170329D01*
X159560Y169629D01*
X159560Y169619D01*
X159554Y169617D01*
X159254Y168817D01*
X159256Y168809D01*
X159251Y168806D01*
X159151Y168006D01*
X159155Y167999D01*
X159151Y167995D01*
X159251Y167095D01*
X159260Y167086D01*
X159256Y167078D01*
X159656Y166278D01*
X159666Y166273D01*
X159665Y166265D01*
X160165Y165765D01*
X160168Y165765D01*
X160168Y165762D01*
X160195Y165739D01*
X160171Y165740D01*
X160171Y165737D01*
X160168Y165738D01*
X159568Y165238D01*
X159566Y165227D01*
X159558Y165226D01*
X159058Y164426D01*
X159059Y164415D01*
X159052Y164412D01*
X158852Y163612D01*
X158856Y163604D01*
X158851Y163600D01*
X158851Y162700D01*
X158856Y162693D01*
X158852Y162688D01*
X159052Y161888D01*
X159056Y161885D01*
X159054Y161883D01*
X159354Y161083D01*
X159364Y161076D01*
X159362Y161068D01*
X159862Y160468D01*
X159871Y160466D01*
X159871Y160460D01*
X160571Y159960D01*
X160574Y159960D01*
X160574Y159958D01*
X161374Y159458D01*
X161384Y159459D01*
X161386Y159453D01*
X162086Y159253D01*
X162092Y159255D01*
X162095Y159251D01*
X162995Y159151D01*
X162998Y159153D01*
X163000Y159151D01*
X163800Y159151D01*
X163806Y159156D01*
G37*
G36*
X101604Y159251D02*
X101604Y159251D01*
X101619Y159264D01*
X101631Y159262D01*
X102131Y159662D01*
X102135Y159677D01*
X102138Y159679D01*
X102136Y159682D01*
X102137Y159687D01*
X102149Y159694D01*
X102249Y160494D01*
X102247Y160498D01*
X102249Y160500D01*
X102249Y162170D01*
X102812Y162451D01*
X104500Y162451D01*
X104504Y162454D01*
X104506Y162451D01*
X105306Y162551D01*
X105313Y162558D01*
X105319Y162555D01*
X106019Y162855D01*
X106045Y162899D01*
X106056Y162877D01*
X106110Y162852D01*
X106115Y162861D01*
X106124Y162857D01*
X106824Y163257D01*
X106827Y163264D01*
X106832Y163263D01*
X107532Y163863D01*
X107533Y163869D01*
X107538Y163868D01*
X108038Y164468D01*
X108038Y164480D01*
X108046Y164483D01*
X108346Y165283D01*
X108345Y165287D01*
X108348Y165288D01*
X108548Y166088D01*
X108546Y166093D01*
X108549Y166095D01*
X108649Y166995D01*
X108647Y166998D01*
X108649Y167000D01*
X108649Y167800D01*
X108640Y167813D01*
X108644Y167822D01*
X108144Y168822D01*
X108139Y168825D01*
X108140Y168829D01*
X107640Y169529D01*
X107634Y169530D01*
X107635Y169535D01*
X107035Y170135D01*
X107027Y170136D01*
X107026Y170142D01*
X106226Y170642D01*
X106220Y170641D01*
X106219Y170645D01*
X105519Y170945D01*
X105514Y170944D01*
X105512Y170948D01*
X104712Y171148D01*
X104704Y171144D01*
X104700Y171149D01*
X100400Y171149D01*
X100390Y171142D01*
X100383Y171146D01*
X99583Y170846D01*
X99566Y170820D01*
X99553Y170816D01*
X99353Y170216D01*
X99357Y170205D01*
X99351Y170200D01*
X99351Y160000D01*
X99360Y159987D01*
X99356Y159978D01*
X99656Y159378D01*
X99683Y159365D01*
X99688Y159352D01*
X100488Y159152D01*
X100499Y159157D01*
X100504Y159151D01*
X101604Y159251D01*
G37*
G36*
X138905Y197351D02*
X138905Y197351D01*
X138919Y197364D01*
X138931Y197362D01*
X139431Y197762D01*
X139435Y197777D01*
X139438Y197779D01*
X139436Y197782D01*
X139436Y197783D01*
X139448Y197788D01*
X139648Y198588D01*
X139644Y198596D01*
X139649Y198600D01*
X139649Y202200D01*
X139644Y202206D01*
X139648Y202211D01*
X139448Y203111D01*
X139447Y203111D01*
X139448Y203112D01*
X139248Y203912D01*
X139243Y203916D01*
X139245Y203919D01*
X138945Y204619D01*
X138934Y204626D01*
X138935Y204635D01*
X138435Y205135D01*
X138429Y205136D01*
X138429Y205140D01*
X137729Y205640D01*
X137715Y205640D01*
X137712Y205648D01*
X136912Y205848D01*
X136904Y205844D01*
X136900Y205849D01*
X136100Y205849D01*
X136090Y205842D01*
X136083Y205846D01*
X135283Y205546D01*
X135278Y205538D01*
X135271Y205540D01*
X134571Y205040D01*
X134571Y205038D01*
X134569Y205038D01*
X134104Y204666D01*
X133535Y205235D01*
X133525Y205236D01*
X133524Y205243D01*
X132824Y205643D01*
X132815Y205641D01*
X132812Y205648D01*
X132012Y205848D01*
X132004Y205844D01*
X132000Y205849D01*
X131200Y205849D01*
X131186Y205838D01*
X131176Y205843D01*
X130476Y205443D01*
X130472Y205434D01*
X130465Y205435D01*
X129827Y204796D01*
X129648Y205512D01*
X129623Y205532D01*
X129619Y205545D01*
X128919Y205845D01*
X128906Y205842D01*
X128900Y205849D01*
X127900Y205849D01*
X127886Y205838D01*
X127876Y205843D01*
X127176Y205443D01*
X127165Y205418D01*
X127153Y205414D01*
X126953Y204714D01*
X126956Y204704D01*
X126951Y204700D01*
X126951Y198700D01*
X126954Y198696D01*
X126951Y198694D01*
X127051Y197894D01*
X127067Y197878D01*
X127065Y197865D01*
X127565Y197365D01*
X127588Y197362D01*
X127595Y197351D01*
X128595Y197251D01*
X128605Y197257D01*
X128611Y197252D01*
X129511Y197452D01*
X129531Y197475D01*
X129544Y197478D01*
X129844Y198078D01*
X129841Y198094D01*
X129849Y198100D01*
X129849Y201495D01*
X130045Y202375D01*
X130520Y202851D01*
X131277Y202851D01*
X131753Y202280D01*
X131851Y201397D01*
X131851Y198000D01*
X131863Y197984D01*
X131859Y197973D01*
X132259Y197373D01*
X132288Y197363D01*
X132295Y197351D01*
X133295Y197251D01*
X133302Y197255D01*
X133305Y197251D01*
X134205Y197351D01*
X134224Y197369D01*
X134238Y197368D01*
X134738Y197968D01*
X134738Y197976D01*
X134739Y197976D01*
X134738Y197977D01*
X134739Y197992D01*
X134749Y198000D01*
X134749Y201297D01*
X134848Y202186D01*
X135132Y202754D01*
X135982Y202848D01*
X136455Y202375D01*
X136651Y201495D01*
X136651Y198100D01*
X136663Y198084D01*
X136659Y198073D01*
X137059Y197473D01*
X137083Y197464D01*
X137088Y197452D01*
X137888Y197252D01*
X137899Y197257D01*
X137905Y197251D01*
X138905Y197351D01*
G37*
%LPC*%
G36*
X173616Y24479D02*
X173616Y24479D01*
X173230Y24769D01*
X173194Y24769D01*
X173183Y24776D01*
X172632Y24576D01*
X173119Y24785D01*
X173149Y24836D01*
X173148Y24837D01*
X173149Y24837D01*
X173050Y25530D01*
X173147Y26307D01*
X173520Y26681D01*
X174100Y26681D01*
X174147Y26717D01*
X174145Y26720D01*
X174148Y26722D01*
X174145Y26725D01*
X174149Y26728D01*
X174249Y28828D01*
X174216Y28877D01*
X174207Y28871D01*
X174200Y28879D01*
X173520Y28879D01*
X173146Y29253D01*
X173050Y29930D01*
X173146Y30607D01*
X173532Y30992D01*
X176929Y33490D01*
X176930Y33492D01*
X176931Y33492D01*
X178531Y34792D01*
X178535Y34807D01*
X178547Y34817D01*
X178540Y34827D01*
X178545Y34850D01*
X178517Y34856D01*
X178500Y34879D01*
X173904Y34879D01*
X173335Y34974D01*
X173148Y35443D01*
X173050Y36125D01*
X173241Y36697D01*
X173717Y36983D01*
X174403Y37081D01*
X181786Y37081D01*
X182259Y36797D01*
X182451Y36222D01*
X182451Y35444D01*
X182163Y34964D01*
X177170Y31169D01*
X177168Y31161D01*
X177159Y31158D01*
X177163Y31145D01*
X177154Y31112D01*
X177177Y31106D01*
X177184Y31083D01*
X177484Y30983D01*
X177495Y30987D01*
X177500Y30981D01*
X181596Y30981D01*
X182170Y30885D01*
X182451Y30416D01*
X182451Y29539D01*
X182263Y29070D01*
X181692Y28879D01*
X174300Y28879D01*
X174253Y28843D01*
X174257Y28837D01*
X174251Y28832D01*
X174151Y26732D01*
X174184Y26683D01*
X174193Y26689D01*
X174200Y26681D01*
X181596Y26681D01*
X182170Y26585D01*
X182451Y26116D01*
X182451Y25238D01*
X182262Y24673D01*
X181792Y24579D01*
X180997Y24479D01*
X173616Y24479D01*
G37*
%LPD*%
G36*
X128607Y178206D02*
X128607Y178206D01*
X128612Y178202D01*
X129412Y178402D01*
X129416Y178407D01*
X129419Y178405D01*
X130119Y178705D01*
X130121Y178707D01*
X130122Y178706D01*
X130922Y179106D01*
X130926Y179114D01*
X130932Y179112D01*
X131532Y179612D01*
X131535Y179626D01*
X131544Y179628D01*
X131944Y180428D01*
X131944Y180430D01*
X131945Y180431D01*
X132245Y181131D01*
X132243Y181139D01*
X132248Y181142D01*
X132247Y181144D01*
X132249Y181145D01*
X132349Y182045D01*
X132345Y182052D01*
X132349Y182055D01*
X132249Y182955D01*
X132245Y182959D01*
X132248Y182962D01*
X132048Y183762D01*
X132037Y183770D01*
X132040Y183779D01*
X131540Y184479D01*
X131531Y184481D01*
X131532Y184488D01*
X130932Y184988D01*
X130920Y184988D01*
X130917Y184996D01*
X129317Y185596D01*
X129313Y185595D01*
X129311Y185598D01*
X127618Y185996D01*
X126943Y186382D01*
X126754Y187138D01*
X127225Y187703D01*
X128092Y187800D01*
X128777Y187506D01*
X129574Y187008D01*
X129588Y187010D01*
X129593Y187001D01*
X130293Y186901D01*
X130316Y186914D01*
X130329Y186910D01*
X131029Y187410D01*
X131033Y187423D01*
X131042Y187424D01*
X131542Y188224D01*
X131541Y188231D01*
X131546Y188234D01*
X131540Y188242D01*
X131540Y188243D01*
X131549Y188250D01*
X131549Y188850D01*
X131535Y188869D01*
X131537Y188882D01*
X130937Y189582D01*
X130928Y189584D01*
X130927Y189591D01*
X130327Y189991D01*
X130318Y189990D01*
X130316Y189997D01*
X129416Y190297D01*
X129413Y190296D01*
X129412Y190298D01*
X128612Y190498D01*
X128604Y190494D01*
X128600Y190499D01*
X126800Y190499D01*
X126790Y190492D01*
X126783Y190496D01*
X125983Y190196D01*
X125982Y190195D01*
X125981Y190195D01*
X125281Y189895D01*
X125274Y189884D01*
X125265Y189885D01*
X124665Y189285D01*
X124664Y189279D01*
X124660Y189279D01*
X124160Y188579D01*
X124160Y188571D01*
X124155Y188569D01*
X123855Y187869D01*
X123855Y187868D01*
X123854Y187867D01*
X123856Y187865D01*
X123857Y187859D01*
X123851Y187855D01*
X123751Y186955D01*
X123755Y186948D01*
X123751Y186944D01*
X123851Y186144D01*
X123857Y186138D01*
X123854Y186133D01*
X124154Y185333D01*
X124159Y185330D01*
X124157Y185326D01*
X124557Y184626D01*
X124568Y184621D01*
X124568Y184613D01*
X125268Y184013D01*
X125279Y184012D01*
X125281Y184005D01*
X125981Y183705D01*
X125982Y183705D01*
X125983Y183704D01*
X127583Y183104D01*
X127591Y183106D01*
X127595Y183101D01*
X128484Y183002D01*
X129157Y182618D01*
X129347Y181859D01*
X128968Y181291D01*
X128194Y181000D01*
X127417Y181098D01*
X126629Y181590D01*
X125932Y182187D01*
X125921Y182188D01*
X125919Y182195D01*
X125219Y182495D01*
X125197Y182490D01*
X125186Y182497D01*
X124486Y182297D01*
X124475Y182282D01*
X124463Y182282D01*
X123763Y181482D01*
X123762Y181471D01*
X123754Y181465D01*
X123757Y181461D01*
X123751Y181458D01*
X123651Y180858D01*
X123661Y180839D01*
X123656Y180828D01*
X124056Y180028D01*
X124066Y180023D01*
X124065Y180015D01*
X124565Y179515D01*
X124568Y179515D01*
X124568Y179513D01*
X125268Y178913D01*
X125275Y178912D01*
X125276Y178907D01*
X125976Y178507D01*
X125986Y178509D01*
X125989Y178502D01*
X126889Y178302D01*
X126893Y178303D01*
X126894Y178301D01*
X127694Y178201D01*
X127698Y178203D01*
X127700Y178201D01*
X128600Y178201D01*
X128607Y178206D01*
G37*
G36*
X155419Y159165D02*
X155419Y159165D01*
X155432Y159162D01*
X156032Y159662D01*
X156035Y159677D01*
X156038Y159679D01*
X156036Y159682D01*
X156037Y159684D01*
X156048Y159689D01*
X156248Y160589D01*
X156245Y160597D01*
X156249Y160600D01*
X156249Y169900D01*
X156242Y169910D01*
X156246Y169917D01*
X155946Y170717D01*
X155928Y170729D01*
X155927Y170741D01*
X155327Y171141D01*
X155307Y171140D01*
X155300Y171149D01*
X154300Y171149D01*
X154293Y171144D01*
X154288Y171148D01*
X153488Y170948D01*
X153464Y170918D01*
X153453Y170914D01*
X153253Y170214D01*
X153256Y170204D01*
X153251Y170200D01*
X153251Y165908D01*
X153065Y165349D01*
X151403Y165349D01*
X150761Y165441D01*
X151748Y169488D01*
X151744Y169496D01*
X151749Y169500D01*
X151749Y170300D01*
X151733Y170321D01*
X151735Y170335D01*
X151235Y170835D01*
X151219Y170837D01*
X151216Y170847D01*
X150316Y171147D01*
X150305Y171143D01*
X150300Y171149D01*
X149500Y171149D01*
X149476Y171131D01*
X149462Y171132D01*
X148962Y170532D01*
X148962Y170520D01*
X148954Y170517D01*
X148654Y169717D01*
X148655Y169713D01*
X148652Y169712D01*
X147452Y164812D01*
X147454Y164807D01*
X147451Y164805D01*
X147351Y163905D01*
X147358Y163895D01*
X147352Y163888D01*
X147552Y163088D01*
X147570Y163074D01*
X147569Y163062D01*
X148069Y162662D01*
X148089Y162661D01*
X148095Y162651D01*
X149095Y162551D01*
X149098Y162553D01*
X149100Y162551D01*
X153251Y162551D01*
X153251Y160000D01*
X153263Y159984D01*
X153259Y159973D01*
X153659Y159373D01*
X153683Y159364D01*
X153688Y159352D01*
X154488Y159152D01*
X154496Y159156D01*
X154500Y159151D01*
X155400Y159151D01*
X155419Y159165D01*
G37*
G36*
X132619Y159165D02*
X132619Y159165D01*
X132632Y159162D01*
X133232Y159662D01*
X133235Y159677D01*
X133238Y159679D01*
X133236Y159682D01*
X133237Y159688D01*
X133249Y159695D01*
X133349Y160595D01*
X133347Y160598D01*
X133349Y160600D01*
X133349Y169900D01*
X133344Y169907D01*
X133348Y169912D01*
X133148Y170712D01*
X133126Y170729D01*
X133124Y170743D01*
X132424Y171143D01*
X132407Y171140D01*
X132400Y171149D01*
X131500Y171149D01*
X131493Y171144D01*
X131488Y171148D01*
X130688Y170948D01*
X130668Y170923D01*
X130655Y170919D01*
X130355Y170219D01*
X130358Y170206D01*
X130351Y170200D01*
X130351Y165908D01*
X130165Y165349D01*
X128503Y165349D01*
X127861Y165441D01*
X128848Y169488D01*
X128846Y169492D01*
X128849Y169494D01*
X128949Y170294D01*
X128933Y170321D01*
X128935Y170335D01*
X128435Y170835D01*
X128419Y170837D01*
X128416Y170847D01*
X127516Y171147D01*
X127505Y171143D01*
X127500Y171149D01*
X126600Y171149D01*
X126576Y171131D01*
X126562Y171132D01*
X126062Y170532D01*
X126061Y170516D01*
X126052Y170512D01*
X125852Y169712D01*
X124552Y164813D01*
X124556Y164804D01*
X124551Y164800D01*
X124551Y163900D01*
X124554Y163896D01*
X124551Y163894D01*
X124651Y163094D01*
X124672Y163073D01*
X124673Y163059D01*
X125273Y162659D01*
X125290Y162660D01*
X125295Y162651D01*
X126295Y162551D01*
X126298Y162553D01*
X126300Y162551D01*
X130351Y162551D01*
X130351Y160900D01*
X130353Y160897D01*
X130351Y160895D01*
X130451Y159995D01*
X130462Y159983D01*
X130459Y159973D01*
X130859Y159373D01*
X130883Y159364D01*
X130888Y159352D01*
X131688Y159152D01*
X131696Y159156D01*
X131700Y159151D01*
X132600Y159151D01*
X132619Y159165D01*
G37*
G36*
X74707Y178206D02*
X74707Y178206D01*
X74712Y178202D01*
X75512Y178402D01*
X75514Y178405D01*
X75516Y178403D01*
X76416Y178703D01*
X76420Y178709D01*
X76424Y178707D01*
X77124Y179107D01*
X77127Y179113D01*
X77132Y179112D01*
X77732Y179612D01*
X77736Y179633D01*
X77748Y179638D01*
X77948Y180438D01*
X77938Y180460D01*
X77944Y180472D01*
X77544Y181272D01*
X77536Y181276D01*
X77537Y181282D01*
X76937Y181982D01*
X76909Y181988D01*
X76905Y181993D01*
X76900Y181999D01*
X76300Y181999D01*
X76292Y181993D01*
X76288Y181993D01*
X76285Y181991D01*
X76278Y181994D01*
X75480Y181595D01*
X74688Y181298D01*
X73900Y181200D01*
X73112Y181298D01*
X72321Y181595D01*
X71632Y181989D01*
X71045Y182673D01*
X70849Y183459D01*
X70749Y184253D01*
X70749Y185141D01*
X71043Y185925D01*
X71534Y186514D01*
X72225Y187008D01*
X73015Y187402D01*
X73800Y187500D01*
X74687Y187402D01*
X75377Y187106D01*
X76174Y186608D01*
X76193Y186610D01*
X76200Y186601D01*
X76800Y186601D01*
X76819Y186615D01*
X76832Y186613D01*
X77532Y187213D01*
X77534Y187223D01*
X77542Y187224D01*
X78042Y188024D01*
X78041Y188033D01*
X78047Y188037D01*
X78040Y188047D01*
X78049Y188056D01*
X77949Y188856D01*
X77931Y188875D01*
X77932Y188888D01*
X77332Y189388D01*
X77329Y189388D01*
X77329Y189390D01*
X76629Y189890D01*
X76619Y189890D01*
X76617Y189896D01*
X75817Y190196D01*
X75812Y190195D01*
X75811Y190198D01*
X74911Y190398D01*
X74907Y190397D01*
X74906Y190399D01*
X74106Y190499D01*
X74098Y190494D01*
X74094Y190499D01*
X72494Y190299D01*
X72488Y190293D01*
X72483Y190296D01*
X70883Y189696D01*
X70879Y189690D01*
X70874Y189692D01*
X70074Y189192D01*
X70072Y189187D01*
X70068Y189188D01*
X69468Y188688D01*
X69467Y188681D01*
X69462Y188682D01*
X68962Y188082D01*
X68962Y188079D01*
X68960Y188079D01*
X68460Y187379D01*
X68460Y187373D01*
X68456Y187372D01*
X68056Y186572D01*
X68057Y186564D01*
X68052Y186562D01*
X67852Y185762D01*
X67854Y185758D01*
X67851Y185756D01*
X67751Y184956D01*
X67753Y184952D01*
X67751Y184950D01*
X67751Y184050D01*
X67753Y184047D01*
X67751Y184045D01*
X67851Y183145D01*
X67855Y183141D01*
X67852Y183138D01*
X68052Y182338D01*
X68056Y182335D01*
X68054Y182333D01*
X68354Y181533D01*
X68362Y181528D01*
X68360Y181521D01*
X68860Y180821D01*
X68863Y180821D01*
X68862Y180818D01*
X69362Y180218D01*
X69366Y180218D01*
X69365Y180215D01*
X69965Y179615D01*
X69971Y179614D01*
X69971Y179610D01*
X70671Y179110D01*
X70675Y179110D01*
X70676Y179107D01*
X71376Y178707D01*
X71381Y178708D01*
X71383Y178704D01*
X72183Y178404D01*
X72187Y178405D01*
X72188Y178402D01*
X72988Y178202D01*
X72996Y178206D01*
X73000Y178201D01*
X74700Y178201D01*
X74707Y178206D01*
G37*
%LPC*%
G36*
X72558Y45727D02*
X72558Y45727D01*
X71985Y45823D01*
X71703Y46292D01*
X71703Y49574D01*
X71802Y50167D01*
X72000Y50860D01*
X72297Y51455D01*
X72594Y51949D01*
X73089Y52543D01*
X73585Y52940D01*
X74081Y53336D01*
X74672Y53632D01*
X75361Y53829D01*
X77347Y53829D01*
X78036Y53632D01*
X78631Y53335D01*
X79125Y53038D01*
X79719Y52543D01*
X80114Y52049D01*
X80511Y51453D01*
X80808Y50859D01*
X81006Y50267D01*
X81105Y49575D01*
X81105Y46881D01*
X81007Y46198D01*
X80727Y45824D01*
X80051Y45727D01*
X72558Y45727D01*
G37*
%LPD*%
G36*
X103907Y178206D02*
X103907Y178206D01*
X103912Y178202D01*
X104712Y178402D01*
X104715Y178406D01*
X104717Y178404D01*
X105517Y178704D01*
X105522Y178712D01*
X105529Y178710D01*
X106229Y179210D01*
X106230Y179216D01*
X106235Y179215D01*
X106835Y179815D01*
X106836Y179821D01*
X106840Y179821D01*
X107340Y180521D01*
X107340Y180531D01*
X107346Y180533D01*
X107646Y181333D01*
X107645Y181337D01*
X107648Y181338D01*
X107848Y182138D01*
X107844Y182146D01*
X107849Y182150D01*
X107849Y183050D01*
X107847Y183053D01*
X107849Y183055D01*
X107749Y183955D01*
X107742Y183963D01*
X107745Y183969D01*
X107445Y184669D01*
X107442Y184672D01*
X107443Y184674D01*
X107043Y185374D01*
X107036Y185377D01*
X107037Y185382D01*
X106437Y186082D01*
X106429Y186084D01*
X106429Y186090D01*
X105729Y186590D01*
X105719Y186590D01*
X105717Y186596D01*
X104917Y186896D01*
X104913Y186895D01*
X104912Y186898D01*
X104112Y187098D01*
X104107Y187096D01*
X104105Y187099D01*
X103205Y187199D01*
X103198Y187195D01*
X103194Y187199D01*
X102394Y187099D01*
X102388Y187093D01*
X102383Y187096D01*
X101583Y186796D01*
X101580Y186791D01*
X101576Y186793D01*
X100876Y186393D01*
X100874Y186389D01*
X100871Y186390D01*
X100171Y185890D01*
X100170Y185886D01*
X100167Y185886D01*
X98867Y184686D01*
X98864Y184673D01*
X98855Y184666D01*
X98861Y184658D01*
X98851Y184650D01*
X98851Y182850D01*
X98853Y182847D01*
X98851Y182845D01*
X98951Y181945D01*
X98955Y181941D01*
X98952Y181938D01*
X99152Y181138D01*
X99158Y181133D01*
X99156Y181128D01*
X99556Y180328D01*
X99564Y180324D01*
X99562Y180318D01*
X100062Y179718D01*
X100066Y179718D01*
X100065Y179715D01*
X100665Y179115D01*
X100675Y179114D01*
X100676Y179107D01*
X101376Y178707D01*
X101435Y178715D01*
X101433Y178724D01*
X101443Y178725D01*
X101821Y179374D01*
X101456Y178673D01*
X101466Y178614D01*
X101479Y178616D01*
X101483Y178604D01*
X102283Y178304D01*
X102291Y178306D01*
X102294Y178301D01*
X103094Y178201D01*
X103098Y178203D01*
X103100Y178201D01*
X103900Y178201D01*
X103907Y178206D01*
G37*
G36*
X171607Y178206D02*
X171607Y178206D01*
X171612Y178202D01*
X172412Y178402D01*
X172415Y178406D01*
X172417Y178404D01*
X173217Y178704D01*
X173222Y178712D01*
X173229Y178710D01*
X173929Y179210D01*
X173930Y179216D01*
X173935Y179215D01*
X174535Y179815D01*
X174536Y179825D01*
X174543Y179826D01*
X174943Y180526D01*
X174942Y180528D01*
X174944Y180528D01*
X175344Y181328D01*
X175343Y181336D01*
X175348Y181339D01*
X175346Y181342D01*
X175349Y181344D01*
X175449Y182144D01*
X175449Y182145D01*
X175549Y183045D01*
X175543Y183055D01*
X175548Y183061D01*
X175348Y183961D01*
X175343Y183965D01*
X175345Y183969D01*
X175045Y184669D01*
X175042Y184672D01*
X175043Y184674D01*
X174643Y185374D01*
X174636Y185377D01*
X174637Y185382D01*
X174037Y186082D01*
X174029Y186084D01*
X174029Y186090D01*
X173329Y186590D01*
X173321Y186590D01*
X173319Y186595D01*
X172619Y186895D01*
X172614Y186894D01*
X172612Y186898D01*
X171812Y187098D01*
X171807Y187096D01*
X171805Y187099D01*
X170905Y187199D01*
X170898Y187195D01*
X170894Y187199D01*
X170094Y187099D01*
X170088Y187093D01*
X170083Y187096D01*
X169283Y186796D01*
X169281Y186793D01*
X169278Y186794D01*
X168478Y186394D01*
X168475Y186389D01*
X168471Y186390D01*
X167771Y185890D01*
X167770Y185884D01*
X167765Y185885D01*
X166565Y184685D01*
X166563Y184672D01*
X166555Y184666D01*
X166561Y184658D01*
X166551Y184650D01*
X166551Y181950D01*
X166556Y181943D01*
X166552Y181938D01*
X166752Y181138D01*
X166758Y181133D01*
X166756Y181128D01*
X167156Y180328D01*
X167166Y180323D01*
X167165Y180315D01*
X168365Y179115D01*
X168375Y179114D01*
X168376Y179107D01*
X169076Y178707D01*
X169057Y178674D01*
X169065Y178615D01*
X169079Y178617D01*
X169083Y178604D01*
X169883Y178304D01*
X169891Y178306D01*
X169894Y178301D01*
X170694Y178201D01*
X170698Y178203D01*
X170700Y178201D01*
X171600Y178201D01*
X171607Y178206D01*
G37*
G36*
X85507Y178206D02*
X85507Y178206D01*
X85512Y178202D01*
X86312Y178402D01*
X86314Y178405D01*
X86316Y178403D01*
X87216Y178703D01*
X87223Y178714D01*
X87232Y178712D01*
X87832Y179212D01*
X87832Y179216D01*
X87835Y179215D01*
X88435Y179815D01*
X88436Y179821D01*
X88440Y179821D01*
X88940Y180521D01*
X88940Y180531D01*
X88946Y180533D01*
X89246Y181333D01*
X89245Y181337D01*
X89248Y181338D01*
X89448Y182138D01*
X89444Y182146D01*
X89449Y182150D01*
X89449Y183050D01*
X89447Y183053D01*
X89449Y183055D01*
X89349Y183955D01*
X89342Y183963D01*
X89345Y183969D01*
X89045Y184669D01*
X89042Y184672D01*
X89043Y184674D01*
X88643Y185374D01*
X88636Y185377D01*
X88637Y185382D01*
X88037Y186082D01*
X88029Y186084D01*
X88029Y186090D01*
X87329Y186590D01*
X87321Y186590D01*
X87319Y186595D01*
X86619Y186895D01*
X86613Y186894D01*
X86611Y186898D01*
X85711Y187098D01*
X85707Y187097D01*
X85706Y187099D01*
X84906Y187199D01*
X84899Y187195D01*
X84895Y187199D01*
X83995Y187099D01*
X83988Y187093D01*
X83983Y187096D01*
X83183Y186796D01*
X83180Y186791D01*
X83176Y186793D01*
X82476Y186393D01*
X82474Y186389D01*
X82471Y186390D01*
X81771Y185890D01*
X81770Y185884D01*
X81765Y185885D01*
X80565Y184685D01*
X80563Y184672D01*
X80555Y184666D01*
X80561Y184658D01*
X80551Y184650D01*
X80551Y181950D01*
X80556Y181943D01*
X80552Y181938D01*
X80752Y181138D01*
X80758Y181133D01*
X80756Y181128D01*
X81156Y180328D01*
X81164Y180324D01*
X81162Y180318D01*
X81662Y179718D01*
X81668Y179717D01*
X81668Y179713D01*
X82368Y179113D01*
X82375Y179112D01*
X82376Y179107D01*
X83076Y178707D01*
X83057Y178674D01*
X83065Y178615D01*
X83079Y178617D01*
X83083Y178604D01*
X83883Y178304D01*
X83891Y178306D01*
X83894Y178301D01*
X84694Y178201D01*
X84698Y178203D01*
X84700Y178201D01*
X85500Y178201D01*
X85507Y178206D01*
G37*
G36*
X139703Y178203D02*
X139703Y178203D01*
X139704Y178201D01*
X140904Y178301D01*
X140908Y178304D01*
X140911Y178302D01*
X141811Y178502D01*
X141815Y178507D01*
X141819Y178505D01*
X142519Y178805D01*
X142528Y178820D01*
X142539Y178820D01*
X142839Y179220D01*
X142839Y179242D01*
X142849Y179250D01*
X142849Y179950D01*
X142840Y179963D01*
X142844Y179972D01*
X142444Y180772D01*
X142428Y180780D01*
X142427Y180791D01*
X141827Y181191D01*
X141796Y181189D01*
X141784Y181197D01*
X140889Y180898D01*
X140194Y180799D01*
X139306Y180700D01*
X138527Y180992D01*
X137991Y181528D01*
X138508Y181701D01*
X141900Y181701D01*
X141913Y181710D01*
X141922Y181706D01*
X142722Y182106D01*
X142727Y182116D01*
X142735Y182115D01*
X143335Y182715D01*
X143339Y182742D01*
X143349Y182750D01*
X143349Y183650D01*
X143346Y183654D01*
X143349Y183656D01*
X143249Y184456D01*
X143243Y184462D01*
X143246Y184467D01*
X142946Y185267D01*
X142938Y185272D01*
X142940Y185279D01*
X142440Y185979D01*
X142431Y185981D01*
X142432Y185988D01*
X141832Y186488D01*
X141825Y186488D01*
X141824Y186493D01*
X141124Y186893D01*
X141115Y186891D01*
X141112Y186898D01*
X140312Y187098D01*
X140307Y187096D01*
X140305Y187099D01*
X139305Y187199D01*
X139298Y187195D01*
X139295Y187199D01*
X138395Y187099D01*
X138388Y187093D01*
X138383Y187096D01*
X137583Y186796D01*
X137582Y186795D01*
X137581Y186795D01*
X136881Y186495D01*
X136877Y186488D01*
X136871Y186490D01*
X136171Y185990D01*
X136169Y185981D01*
X136162Y185982D01*
X135662Y185382D01*
X135662Y185379D01*
X135660Y185379D01*
X135160Y184679D01*
X135160Y184670D01*
X135154Y184666D01*
X135156Y184664D01*
X135152Y184662D01*
X134952Y183862D01*
X134953Y183861D01*
X134952Y183861D01*
X134752Y182961D01*
X134757Y182950D01*
X134751Y182944D01*
X134851Y182144D01*
X134951Y181245D01*
X134958Y181237D01*
X134955Y181231D01*
X135255Y180531D01*
X135260Y180528D01*
X135258Y180524D01*
X135758Y179724D01*
X135763Y179722D01*
X135762Y179718D01*
X136262Y179118D01*
X136276Y179115D01*
X136278Y179106D01*
X137078Y178706D01*
X137080Y178706D01*
X137081Y178705D01*
X137781Y178405D01*
X137787Y178406D01*
X137789Y178402D01*
X138689Y178202D01*
X138697Y178205D01*
X138700Y178201D01*
X139700Y178201D01*
X139703Y178203D01*
G37*
G36*
X80007Y197256D02*
X80007Y197256D01*
X80012Y197252D01*
X80812Y197452D01*
X80832Y197477D01*
X80845Y197481D01*
X81145Y198181D01*
X81143Y198191D01*
X81149Y198195D01*
X81249Y199095D01*
X81247Y199098D01*
X81249Y199100D01*
X81249Y206751D01*
X81900Y206751D01*
X81901Y206752D01*
X81902Y206751D01*
X84502Y206851D01*
X84506Y206855D01*
X84509Y206855D01*
X84512Y206852D01*
X85312Y207052D01*
X85329Y207073D01*
X85347Y207087D01*
X85344Y207092D01*
X85349Y207095D01*
X85449Y207995D01*
X85445Y208002D01*
X85449Y208006D01*
X85349Y208806D01*
X85328Y208827D01*
X85327Y208841D01*
X84727Y209241D01*
X84707Y209240D01*
X84700Y209249D01*
X75200Y209249D01*
X75193Y209244D01*
X75188Y209248D01*
X74388Y209048D01*
X74369Y209025D01*
X74356Y209022D01*
X74056Y208422D01*
X74059Y208406D01*
X74051Y208400D01*
X74051Y207400D01*
X74067Y207379D01*
X74065Y207365D01*
X74565Y206865D01*
X74588Y206862D01*
X74595Y206851D01*
X75495Y206751D01*
X75498Y206753D01*
X75500Y206751D01*
X78072Y206751D01*
X78351Y206286D01*
X78351Y197800D01*
X78371Y197773D01*
X78371Y197760D01*
X79071Y197260D01*
X79093Y197261D01*
X79100Y197251D01*
X80000Y197251D01*
X80007Y197256D01*
G37*
G36*
X116708Y159157D02*
X116708Y159157D01*
X116714Y159153D01*
X117414Y159353D01*
X117429Y159374D01*
X117443Y159376D01*
X117843Y160076D01*
X117840Y160093D01*
X117849Y160100D01*
X117849Y168651D01*
X118600Y168651D01*
X118601Y168652D01*
X118602Y168651D01*
X121202Y168751D01*
X121206Y168755D01*
X121211Y168755D01*
X121214Y168753D01*
X121914Y168953D01*
X121929Y168974D01*
X121947Y168987D01*
X121944Y168992D01*
X121949Y168995D01*
X122049Y169895D01*
X122047Y169898D01*
X122049Y169900D01*
X122049Y170700D01*
X122026Y170731D01*
X122024Y170743D01*
X121324Y171143D01*
X121307Y171140D01*
X121300Y171149D01*
X111900Y171149D01*
X111893Y171144D01*
X111888Y171148D01*
X111088Y170948D01*
X111072Y170928D01*
X111059Y170927D01*
X110659Y170327D01*
X110660Y170304D01*
X110651Y170295D01*
X110751Y169295D01*
X110767Y169278D01*
X110765Y169265D01*
X111265Y168765D01*
X111288Y168762D01*
X111295Y168751D01*
X112195Y168651D01*
X112198Y168653D01*
X112200Y168651D01*
X114672Y168651D01*
X114951Y168186D01*
X114951Y160500D01*
X114954Y160496D01*
X114951Y160494D01*
X115051Y159694D01*
X115069Y159676D01*
X115068Y159662D01*
X115668Y159162D01*
X115692Y159161D01*
X115700Y159151D01*
X116700Y159151D01*
X116708Y159157D01*
G37*
G36*
X150104Y197351D02*
X150104Y197351D01*
X150122Y197367D01*
X150135Y197365D01*
X150635Y197865D01*
X150636Y197876D01*
X150638Y197878D01*
X150637Y197880D01*
X150638Y197888D01*
X150649Y197894D01*
X150749Y198694D01*
X150747Y198698D01*
X150749Y198700D01*
X150749Y204700D01*
X150743Y204708D01*
X150747Y204714D01*
X150547Y205414D01*
X150526Y205429D01*
X150524Y205443D01*
X149824Y205843D01*
X149807Y205840D01*
X149800Y205849D01*
X148700Y205849D01*
X148689Y205841D01*
X148681Y205845D01*
X147981Y205545D01*
X147965Y205518D01*
X147953Y205514D01*
X147753Y204814D01*
X147756Y204804D01*
X147751Y204800D01*
X147751Y201313D01*
X147363Y200635D01*
X146785Y200249D01*
X145818Y200249D01*
X145241Y200730D01*
X144949Y201410D01*
X144949Y204900D01*
X144940Y204913D01*
X144944Y204922D01*
X144644Y205522D01*
X144621Y205533D01*
X144617Y205546D01*
X143817Y205846D01*
X143802Y205842D01*
X143796Y205849D01*
X142696Y205749D01*
X142681Y205736D01*
X142669Y205738D01*
X142169Y205338D01*
X142163Y205313D01*
X142151Y205306D01*
X142051Y204506D01*
X142053Y204502D01*
X142051Y204500D01*
X142051Y201100D01*
X142056Y201094D01*
X142052Y201089D01*
X142252Y200189D01*
X142257Y200185D01*
X142255Y200181D01*
X142555Y199481D01*
X142557Y199479D01*
X142556Y199478D01*
X142956Y198678D01*
X142966Y198673D01*
X142965Y198665D01*
X143565Y198065D01*
X143571Y198064D01*
X143571Y198060D01*
X144271Y197560D01*
X144285Y197560D01*
X144288Y197552D01*
X145088Y197352D01*
X145092Y197354D01*
X145094Y197351D01*
X145894Y197251D01*
X145905Y197258D01*
X145912Y197252D01*
X146712Y197452D01*
X146718Y197460D01*
X146724Y197457D01*
X147423Y197856D01*
X147783Y198037D01*
X148159Y197473D01*
X148183Y197464D01*
X148188Y197452D01*
X148988Y197252D01*
X148999Y197257D01*
X149004Y197251D01*
X150104Y197351D01*
G37*
G36*
X168105Y197351D02*
X168105Y197351D01*
X168122Y197367D01*
X168135Y197365D01*
X168635Y197865D01*
X168636Y197876D01*
X168638Y197878D01*
X168637Y197880D01*
X168638Y197888D01*
X168649Y197894D01*
X168749Y198694D01*
X168747Y198698D01*
X168749Y198700D01*
X168749Y204700D01*
X168743Y204708D01*
X168747Y204714D01*
X168547Y205414D01*
X168528Y205428D01*
X168527Y205441D01*
X167927Y205841D01*
X167907Y205840D01*
X167900Y205849D01*
X166800Y205849D01*
X166789Y205841D01*
X166781Y205845D01*
X166081Y205545D01*
X166068Y205523D01*
X166055Y205519D01*
X165755Y204819D01*
X165758Y204806D01*
X165751Y204800D01*
X165751Y201310D01*
X165461Y200635D01*
X164787Y200249D01*
X163916Y200249D01*
X163240Y200732D01*
X162949Y201410D01*
X162949Y204900D01*
X162942Y204909D01*
X162947Y204916D01*
X162747Y205516D01*
X162721Y205533D01*
X162717Y205546D01*
X161917Y205846D01*
X161902Y205842D01*
X161896Y205849D01*
X160796Y205749D01*
X160781Y205736D01*
X160769Y205738D01*
X160269Y205338D01*
X160264Y205317D01*
X160252Y205312D01*
X160052Y204512D01*
X160055Y204506D01*
X160053Y204504D01*
X160054Y204502D01*
X160051Y204500D01*
X160051Y201900D01*
X160054Y201896D01*
X160051Y201894D01*
X160151Y201094D01*
X160251Y200195D01*
X160258Y200187D01*
X160255Y200181D01*
X160555Y199481D01*
X160557Y199479D01*
X160556Y199478D01*
X160956Y198678D01*
X160966Y198673D01*
X160965Y198665D01*
X161565Y198065D01*
X161571Y198064D01*
X161571Y198060D01*
X162271Y197560D01*
X162285Y197560D01*
X162288Y197552D01*
X163088Y197352D01*
X163093Y197354D01*
X163095Y197351D01*
X163995Y197251D01*
X164006Y197258D01*
X164014Y197253D01*
X164714Y197453D01*
X164718Y197458D01*
X164722Y197456D01*
X165522Y197856D01*
X165524Y197860D01*
X165527Y197859D01*
X165786Y198032D01*
X166159Y197473D01*
X166184Y197464D01*
X166189Y197452D01*
X167089Y197252D01*
X167100Y197257D01*
X167105Y197251D01*
X168105Y197351D01*
G37*
G36*
X148116Y178213D02*
X148116Y178213D01*
X148127Y178209D01*
X148727Y178609D01*
X148734Y178627D01*
X148738Y178631D01*
X148737Y178632D01*
X148747Y178636D01*
X148947Y179336D01*
X148944Y179346D01*
X148949Y179350D01*
X148949Y182837D01*
X149336Y183514D01*
X150011Y183899D01*
X150883Y183802D01*
X151459Y183418D01*
X151751Y182542D01*
X151751Y179150D01*
X151760Y179137D01*
X151756Y179128D01*
X152056Y178528D01*
X152079Y178517D01*
X152083Y178504D01*
X152883Y178204D01*
X152898Y178208D01*
X152905Y178201D01*
X153905Y178301D01*
X153917Y178313D01*
X153927Y178309D01*
X154527Y178709D01*
X154534Y178727D01*
X154536Y178729D01*
X154535Y178731D01*
X154537Y178736D01*
X154549Y178743D01*
X154649Y179443D01*
X154646Y179448D01*
X154649Y179450D01*
X154649Y182950D01*
X154647Y182953D01*
X154649Y182955D01*
X154549Y183855D01*
X154542Y183863D01*
X154545Y183869D01*
X154245Y184569D01*
X154242Y184572D01*
X154243Y184574D01*
X153843Y185274D01*
X153836Y185277D01*
X153837Y185282D01*
X153237Y185982D01*
X153226Y185985D01*
X153224Y185993D01*
X152524Y186393D01*
X152519Y186392D01*
X152517Y186396D01*
X151717Y186696D01*
X151709Y186694D01*
X151705Y186699D01*
X150805Y186799D01*
X150798Y186795D01*
X150794Y186799D01*
X149994Y186699D01*
X149982Y186687D01*
X149971Y186690D01*
X149279Y186196D01*
X148922Y186106D01*
X148541Y186677D01*
X148512Y186687D01*
X148505Y186699D01*
X147505Y186799D01*
X147499Y186795D01*
X147495Y186799D01*
X146495Y186699D01*
X146475Y186680D01*
X146462Y186681D01*
X146062Y186181D01*
X146061Y186158D01*
X146051Y186150D01*
X146051Y179250D01*
X146057Y179242D01*
X146053Y179236D01*
X146253Y178536D01*
X146277Y178518D01*
X146281Y178505D01*
X146981Y178205D01*
X146994Y178208D01*
X147000Y178201D01*
X148100Y178201D01*
X148116Y178213D01*
G37*
%LPC*%
G36*
X72658Y35327D02*
X72658Y35327D01*
X72083Y35423D01*
X71703Y35993D01*
X71703Y36670D01*
X71896Y37249D01*
X72485Y37739D01*
X76184Y40539D01*
X76984Y41139D01*
X76985Y41144D01*
X76989Y41143D01*
X77189Y41343D01*
X77190Y41354D01*
X77191Y41354D01*
X77190Y41355D01*
X77191Y41357D01*
X77201Y41365D01*
X77193Y41375D01*
X77197Y41402D01*
X77170Y41406D01*
X77154Y41427D01*
X72374Y41427D01*
X71703Y42098D01*
X71703Y42864D01*
X71988Y43338D01*
X72466Y43530D01*
X73257Y43629D01*
X79954Y43629D01*
X80001Y43665D01*
X79999Y43667D01*
X80002Y43669D01*
X79999Y43673D01*
X80003Y43676D01*
X80005Y43707D01*
X80005Y43678D01*
X80041Y43631D01*
X80044Y43633D01*
X80046Y43629D01*
X80630Y43532D01*
X81007Y43155D01*
X81105Y42375D01*
X81105Y41798D01*
X80522Y41215D01*
X75724Y37617D01*
X75720Y37601D01*
X75707Y37591D01*
X75714Y37581D01*
X75708Y37560D01*
X75736Y37552D01*
X75754Y37529D01*
X80440Y37529D01*
X80913Y37245D01*
X81105Y36670D01*
X81105Y35798D01*
X80730Y35424D01*
X80150Y35327D01*
X72658Y35327D01*
G37*
%LPD*%
%LPC*%
G36*
X225559Y79695D02*
X225559Y79695D01*
X225198Y79700D01*
X222610Y86818D01*
X222609Y86820D01*
X222611Y86854D01*
X222539Y87045D01*
X224875Y87045D01*
X224932Y86849D01*
X226281Y82276D01*
X226295Y82264D01*
X226301Y82246D01*
X226324Y82239D01*
X226333Y82232D01*
X226340Y82235D01*
X226350Y82232D01*
X226499Y82253D01*
X226507Y82260D01*
X226517Y82259D01*
X226549Y82297D01*
X226550Y82298D01*
X227890Y87036D01*
X228187Y87045D01*
X229775Y87045D01*
X230177Y87047D01*
X231527Y82440D01*
X231624Y82084D01*
X231638Y82072D01*
X231643Y82054D01*
X231661Y82051D01*
X231675Y82039D01*
X231692Y82046D01*
X231711Y82044D01*
X231726Y82061D01*
X231737Y82066D01*
X231739Y82075D01*
X231745Y82083D01*
X233145Y86706D01*
X233247Y87045D01*
X235321Y87045D01*
X235505Y87039D01*
X235415Y86777D01*
X232855Y79702D01*
X232526Y79695D01*
X230940Y79695D01*
X230474Y79718D01*
X229082Y84231D01*
X229069Y84242D01*
X229066Y84258D01*
X229046Y84262D01*
X229030Y84275D01*
X229015Y84268D01*
X228999Y84271D01*
X228979Y84251D01*
X228969Y84246D01*
X228968Y84239D01*
X228963Y84234D01*
X228806Y83797D01*
X228806Y83796D01*
X228805Y83795D01*
X227532Y79714D01*
X227146Y79695D01*
X225559Y79695D01*
G37*
%LPD*%
%LPC*%
G36*
X76157Y24727D02*
X76157Y24727D01*
X74765Y24926D01*
X74176Y25123D01*
X73583Y25518D01*
X73087Y25915D01*
X72591Y26411D01*
X72196Y26905D01*
X71898Y27500D01*
X71602Y28093D01*
X71503Y28785D01*
X71502Y28786D01*
X71503Y28786D01*
X71404Y29379D01*
X71503Y30071D01*
X71602Y30767D01*
X71800Y31359D01*
X72097Y31953D01*
X72486Y32537D01*
X73050Y32725D01*
X73627Y32437D01*
X74209Y31951D01*
X74303Y31484D01*
X73709Y30199D01*
X73711Y30189D01*
X73705Y30186D01*
X73605Y29586D01*
X73611Y29576D01*
X73605Y29571D01*
X73705Y28871D01*
X73709Y28867D01*
X73707Y28864D01*
X73907Y28164D01*
X73918Y28156D01*
X73916Y28147D01*
X74316Y27647D01*
X74323Y27645D01*
X74323Y27640D01*
X74823Y27240D01*
X74837Y27239D01*
X74840Y27231D01*
X75540Y27031D01*
X75545Y27033D01*
X75547Y27029D01*
X76247Y26929D01*
X76256Y26934D01*
X76261Y26929D01*
X76961Y27029D01*
X76966Y27034D01*
X76970Y27031D01*
X77570Y27231D01*
X77577Y27242D01*
X77585Y27240D01*
X78085Y27640D01*
X78087Y27647D01*
X78092Y27646D01*
X78592Y28246D01*
X78592Y28254D01*
X78592Y28260D01*
X78601Y28262D01*
X78801Y28862D01*
X78799Y28868D01*
X78803Y28870D01*
X78903Y29470D01*
X78900Y29475D01*
X78903Y29478D01*
X78903Y30178D01*
X78894Y30191D01*
X78898Y30200D01*
X78598Y30800D01*
X78561Y30819D01*
X78554Y30827D01*
X77254Y30827D01*
X77207Y30791D01*
X77211Y30786D01*
X77205Y30782D01*
X77106Y29400D01*
X76734Y29027D01*
X76062Y29027D01*
X75493Y29217D01*
X75303Y29786D01*
X75303Y31971D01*
X75497Y32649D01*
X75874Y32931D01*
X76557Y33029D01*
X79246Y33029D01*
X79827Y32835D01*
X80315Y32348D01*
X80611Y31855D01*
X80907Y31263D01*
X81005Y30671D01*
X81105Y29875D01*
X81105Y29181D01*
X81005Y28486D01*
X80907Y27893D01*
X80611Y27303D01*
X80216Y26709D01*
X79221Y25715D01*
X78727Y25320D01*
X78136Y25024D01*
X77443Y24826D01*
X76850Y24727D01*
X76157Y24727D01*
G37*
%LPD*%
G36*
X106907Y197256D02*
X106907Y197256D01*
X106912Y197252D01*
X107712Y197452D01*
X107716Y197457D01*
X107719Y197455D01*
X108419Y197755D01*
X108425Y197764D01*
X108432Y197762D01*
X109032Y198262D01*
X109034Y198274D01*
X109043Y198276D01*
X109443Y198976D01*
X109441Y198985D01*
X109448Y198988D01*
X109648Y199788D01*
X109644Y199796D01*
X109647Y199798D01*
X109647Y199799D01*
X109649Y199800D01*
X109649Y200700D01*
X109642Y200710D01*
X109646Y200717D01*
X109346Y201517D01*
X109336Y201524D01*
X109338Y201532D01*
X108838Y202132D01*
X108826Y202134D01*
X108824Y202143D01*
X108124Y202543D01*
X108119Y202542D01*
X108117Y202546D01*
X107317Y202846D01*
X107309Y202844D01*
X107306Y202849D01*
X106510Y202948D01*
X105537Y203240D01*
X105364Y203672D01*
X106106Y203950D01*
X106987Y203852D01*
X107880Y203455D01*
X107887Y203457D01*
X107888Y203456D01*
X107903Y203456D01*
X107908Y203451D01*
X108508Y203551D01*
X108524Y203569D01*
X108537Y203568D01*
X109137Y204268D01*
X109138Y204277D01*
X109142Y204280D01*
X109139Y204284D01*
X109148Y204288D01*
X109348Y205088D01*
X109333Y205122D01*
X109335Y205135D01*
X108735Y205735D01*
X108716Y205737D01*
X108712Y205748D01*
X107912Y205948D01*
X107911Y205947D01*
X107911Y205948D01*
X107011Y206148D01*
X107007Y206147D01*
X107006Y206149D01*
X106206Y206249D01*
X106199Y206245D01*
X106196Y206249D01*
X105096Y206149D01*
X105092Y206146D01*
X105089Y206148D01*
X104189Y205948D01*
X104181Y205938D01*
X104173Y205941D01*
X103573Y205541D01*
X103570Y205534D01*
X103565Y205535D01*
X103065Y205035D01*
X103063Y205022D01*
X103055Y205019D01*
X102755Y204319D01*
X102757Y204311D01*
X102752Y204307D01*
X102751Y204306D01*
X102651Y203506D01*
X102657Y203496D01*
X102652Y203489D01*
X102852Y202589D01*
X102857Y202585D01*
X102855Y202581D01*
X103155Y201881D01*
X103164Y201875D01*
X103163Y201868D01*
X103763Y201168D01*
X103775Y201165D01*
X103776Y201157D01*
X104476Y200757D01*
X104481Y200758D01*
X104483Y200754D01*
X105283Y200454D01*
X105291Y200456D01*
X105295Y200451D01*
X106187Y200352D01*
X106833Y200075D01*
X106668Y199746D01*
X105806Y199650D01*
X105018Y199946D01*
X104120Y200345D01*
X104106Y200342D01*
X104100Y200349D01*
X103400Y200349D01*
X103376Y200331D01*
X103363Y200332D01*
X102763Y199632D01*
X102762Y199621D01*
X102755Y199619D01*
X102455Y198919D01*
X102460Y198897D01*
X102453Y198886D01*
X102653Y198186D01*
X102675Y198169D01*
X102678Y198156D01*
X103478Y197756D01*
X103482Y197757D01*
X103483Y197754D01*
X104283Y197454D01*
X104287Y197455D01*
X104288Y197452D01*
X105088Y197252D01*
X105096Y197256D01*
X105100Y197251D01*
X106900Y197251D01*
X106907Y197256D01*
G37*
G36*
X175407Y197256D02*
X175407Y197256D01*
X175412Y197252D01*
X176212Y197452D01*
X176216Y197457D01*
X176219Y197455D01*
X176919Y197755D01*
X176925Y197764D01*
X176932Y197762D01*
X177532Y198262D01*
X177534Y198274D01*
X177543Y198276D01*
X177943Y198976D01*
X177941Y198985D01*
X177948Y198988D01*
X178148Y199788D01*
X178144Y199796D01*
X178147Y199798D01*
X178147Y199799D01*
X178149Y199800D01*
X178149Y200700D01*
X178142Y200710D01*
X178146Y200717D01*
X177846Y201517D01*
X177836Y201524D01*
X177838Y201532D01*
X177338Y202132D01*
X177326Y202134D01*
X177324Y202143D01*
X176624Y202543D01*
X176619Y202542D01*
X176617Y202546D01*
X175817Y202846D01*
X175809Y202844D01*
X175806Y202849D01*
X175010Y202948D01*
X174037Y203240D01*
X173864Y203672D01*
X174606Y203950D01*
X175487Y203852D01*
X176380Y203455D01*
X176387Y203457D01*
X176388Y203456D01*
X176403Y203456D01*
X176408Y203451D01*
X177008Y203551D01*
X177024Y203569D01*
X177037Y203568D01*
X177637Y204268D01*
X177638Y204277D01*
X177642Y204280D01*
X177638Y204285D01*
X177639Y204288D01*
X177649Y204294D01*
X177749Y205094D01*
X177735Y205118D01*
X177738Y205132D01*
X177238Y205732D01*
X177217Y205736D01*
X177212Y205748D01*
X176412Y205948D01*
X176411Y205947D01*
X176411Y205948D01*
X175511Y206148D01*
X175507Y206147D01*
X175506Y206149D01*
X174706Y206249D01*
X174699Y206245D01*
X174696Y206249D01*
X173596Y206149D01*
X173592Y206146D01*
X173589Y206148D01*
X172689Y205948D01*
X172681Y205938D01*
X172673Y205941D01*
X172073Y205541D01*
X172070Y205534D01*
X172065Y205535D01*
X171565Y205035D01*
X171563Y205022D01*
X171555Y205019D01*
X171255Y204319D01*
X171257Y204311D01*
X171252Y204307D01*
X171251Y204306D01*
X171151Y203506D01*
X171157Y203496D01*
X171152Y203489D01*
X171352Y202589D01*
X171357Y202585D01*
X171355Y202581D01*
X171655Y201881D01*
X171662Y201877D01*
X171660Y201871D01*
X172160Y201171D01*
X172176Y201166D01*
X172178Y201156D01*
X172978Y200756D01*
X172982Y200757D01*
X172983Y200754D01*
X173783Y200454D01*
X173791Y200456D01*
X173795Y200451D01*
X174687Y200352D01*
X175333Y200075D01*
X175168Y199746D01*
X174208Y199650D01*
X173519Y199945D01*
X172620Y200345D01*
X172606Y200342D01*
X172600Y200349D01*
X171900Y200349D01*
X171876Y200331D01*
X171863Y200332D01*
X171263Y199632D01*
X171262Y199621D01*
X171255Y199619D01*
X170955Y198919D01*
X170960Y198897D01*
X170953Y198886D01*
X171153Y198186D01*
X171175Y198169D01*
X171178Y198156D01*
X171978Y197756D01*
X171982Y197757D01*
X171983Y197754D01*
X172783Y197454D01*
X172787Y197455D01*
X172788Y197452D01*
X173588Y197252D01*
X173596Y197256D01*
X173600Y197251D01*
X175400Y197251D01*
X175407Y197256D01*
G37*
G36*
X161307Y178206D02*
X161307Y178206D01*
X161312Y178202D01*
X162112Y178402D01*
X162116Y178407D01*
X162119Y178405D01*
X162819Y178705D01*
X162823Y178712D01*
X162829Y178710D01*
X163529Y179210D01*
X163533Y179224D01*
X163543Y179226D01*
X163943Y179926D01*
X163941Y179939D01*
X163949Y179944D01*
X164049Y180744D01*
X164047Y180748D01*
X164047Y180749D01*
X164049Y180750D01*
X164049Y181650D01*
X164044Y181657D01*
X164048Y181662D01*
X163848Y182462D01*
X163836Y182472D01*
X163838Y182482D01*
X163338Y183082D01*
X163324Y183085D01*
X163322Y183094D01*
X162522Y183494D01*
X162518Y183493D01*
X162517Y183496D01*
X161717Y183796D01*
X161709Y183794D01*
X161706Y183799D01*
X160910Y183898D01*
X159942Y184189D01*
X159856Y184620D01*
X160508Y184900D01*
X161387Y184802D01*
X162280Y184405D01*
X162287Y184407D01*
X162288Y184406D01*
X162303Y184406D01*
X162308Y184401D01*
X162908Y184501D01*
X162924Y184519D01*
X162937Y184518D01*
X163537Y185218D01*
X163538Y185227D01*
X163542Y185230D01*
X163539Y185234D01*
X163548Y185238D01*
X163748Y186038D01*
X163733Y186072D01*
X163735Y186085D01*
X163135Y186685D01*
X163116Y186687D01*
X163112Y186698D01*
X161512Y187098D01*
X161507Y187096D01*
X161505Y187099D01*
X160605Y187199D01*
X160599Y187195D01*
X160595Y187199D01*
X159595Y187099D01*
X159592Y187096D01*
X159589Y187098D01*
X158689Y186898D01*
X158682Y186890D01*
X158676Y186893D01*
X157976Y186493D01*
X157972Y186484D01*
X157965Y186485D01*
X157465Y185985D01*
X157463Y185967D01*
X157453Y185964D01*
X157253Y185264D01*
X157254Y185259D01*
X157252Y185257D01*
X157251Y185256D01*
X157151Y184456D01*
X157155Y184449D01*
X157151Y184445D01*
X157251Y183545D01*
X157261Y183534D01*
X157257Y183526D01*
X157657Y182826D01*
X157661Y182824D01*
X157660Y182821D01*
X158160Y182121D01*
X158174Y182117D01*
X158176Y182107D01*
X158876Y181707D01*
X158881Y181708D01*
X158883Y181704D01*
X159683Y181404D01*
X159691Y181406D01*
X159695Y181401D01*
X160588Y181302D01*
X161321Y181027D01*
X161073Y180697D01*
X160206Y180600D01*
X159420Y180895D01*
X158622Y181294D01*
X158606Y181291D01*
X158600Y181299D01*
X157800Y181299D01*
X157776Y181281D01*
X157763Y181282D01*
X157163Y180582D01*
X157162Y180571D01*
X157155Y180569D01*
X156855Y179869D01*
X156861Y179842D01*
X156855Y179831D01*
X157155Y179131D01*
X157176Y179119D01*
X157178Y179106D01*
X157978Y178706D01*
X157982Y178707D01*
X157983Y178704D01*
X158783Y178404D01*
X158787Y178405D01*
X158788Y178402D01*
X159588Y178202D01*
X159596Y178206D01*
X159600Y178201D01*
X161300Y178201D01*
X161307Y178206D01*
G37*
G36*
X116802Y197255D02*
X116802Y197255D01*
X116806Y197251D01*
X117606Y197351D01*
X117618Y197362D01*
X117627Y197359D01*
X118227Y197759D01*
X118234Y197777D01*
X118236Y197779D01*
X118235Y197781D01*
X118237Y197788D01*
X118249Y197795D01*
X118349Y198695D01*
X118343Y198705D01*
X118348Y198711D01*
X118148Y199611D01*
X118125Y199631D01*
X118122Y199644D01*
X117522Y199944D01*
X117510Y199942D01*
X117505Y199949D01*
X116634Y200046D01*
X116349Y200710D01*
X116349Y202392D01*
X116534Y202946D01*
X117294Y202851D01*
X117302Y202856D01*
X117306Y202851D01*
X118106Y202951D01*
X118122Y202967D01*
X118135Y202965D01*
X118635Y203465D01*
X118637Y203484D01*
X118648Y203492D01*
X118647Y203494D01*
X118649Y203495D01*
X118749Y204495D01*
X118745Y204502D01*
X118749Y204505D01*
X118649Y205405D01*
X118626Y205429D01*
X118624Y205443D01*
X117924Y205843D01*
X117907Y205840D01*
X117900Y205849D01*
X117200Y205849D01*
X117197Y205847D01*
X117195Y205849D01*
X116349Y205755D01*
X116349Y207400D01*
X116346Y207404D01*
X116349Y207406D01*
X116249Y208206D01*
X116231Y208225D01*
X116232Y208238D01*
X115632Y208738D01*
X115611Y208739D01*
X115605Y208749D01*
X114605Y208849D01*
X114591Y208841D01*
X114583Y208846D01*
X113783Y208546D01*
X113769Y208524D01*
X113756Y208522D01*
X113456Y207922D01*
X113459Y207907D01*
X113453Y207902D01*
X113451Y207900D01*
X113451Y206220D01*
X113075Y205844D01*
X112288Y205648D01*
X112268Y205623D01*
X112255Y205619D01*
X111955Y204919D01*
X111958Y204906D01*
X111951Y204900D01*
X111951Y204000D01*
X111956Y203993D01*
X111952Y203988D01*
X112152Y203188D01*
X112179Y203167D01*
X112182Y203154D01*
X113451Y202666D01*
X113451Y200100D01*
X113456Y200094D01*
X113452Y200089D01*
X113652Y199189D01*
X113657Y199185D01*
X113655Y199181D01*
X113955Y198481D01*
X113963Y198476D01*
X113962Y198469D01*
X114362Y197969D01*
X114372Y197967D01*
X114373Y197959D01*
X114973Y197559D01*
X114985Y197560D01*
X114988Y197552D01*
X115788Y197352D01*
X115793Y197354D01*
X115795Y197351D01*
X116795Y197251D01*
X116802Y197255D01*
G37*
%LPC*%
G36*
X102844Y46250D02*
X102844Y46250D01*
X102650Y46928D01*
X102747Y47701D01*
X103129Y48083D01*
X103722Y48380D01*
X103730Y48396D01*
X103741Y48397D01*
X104141Y48997D01*
X104140Y49017D01*
X104149Y49024D01*
X104149Y49724D01*
X104142Y49733D01*
X104147Y49740D01*
X103947Y50340D01*
X103933Y50349D01*
X103935Y50359D01*
X103435Y50859D01*
X103409Y50862D01*
X103404Y50870D01*
X103389Y50870D01*
X103388Y50869D01*
X103384Y50871D01*
X102784Y50671D01*
X102773Y50654D01*
X102762Y50655D01*
X102362Y50155D01*
X102361Y50147D01*
X102358Y50144D01*
X102361Y50140D01*
X102361Y50136D01*
X102351Y50130D01*
X102251Y49332D01*
X102156Y48855D01*
X101684Y48572D01*
X100809Y48475D01*
X100244Y48757D01*
X100149Y49232D01*
X100049Y50030D01*
X100039Y50041D01*
X100042Y50049D01*
X99742Y50549D01*
X99698Y50567D01*
X99692Y50573D01*
X99092Y50473D01*
X99071Y50451D01*
X99058Y50449D01*
X98758Y49949D01*
X98760Y49931D01*
X98751Y49924D01*
X98751Y49224D01*
X98763Y49208D01*
X98759Y49197D01*
X99159Y48597D01*
X99169Y48593D01*
X99169Y48586D01*
X99662Y48191D01*
X99948Y47714D01*
X99853Y47141D01*
X99467Y46465D01*
X98900Y46276D01*
X98322Y46469D01*
X97731Y46862D01*
X97239Y47355D01*
X96944Y47846D01*
X96648Y48538D01*
X96549Y49128D01*
X96549Y51004D01*
X97533Y51987D01*
X98027Y52382D01*
X98618Y52678D01*
X99303Y52874D01*
X99989Y52776D01*
X100571Y52582D01*
X100962Y52093D01*
X100992Y52086D01*
X101000Y52075D01*
X101400Y52075D01*
X101421Y52091D01*
X101435Y52089D01*
X101931Y52586D01*
X102518Y52977D01*
X103101Y53074D01*
X103790Y52976D01*
X104480Y52778D01*
X104970Y52485D01*
X105462Y51993D01*
X105855Y51402D01*
X106053Y50808D01*
X106251Y50216D01*
X106251Y48732D01*
X106053Y48140D01*
X105855Y47546D01*
X105462Y46955D01*
X105069Y46562D01*
X104479Y46169D01*
X103789Y45972D01*
X103217Y45877D01*
X102844Y46250D01*
G37*
%LPD*%
%LPC*%
G36*
X102937Y24968D02*
X102937Y24968D01*
X102748Y25535D01*
X102651Y26313D01*
X102937Y26789D01*
X103527Y27183D01*
X103530Y27190D01*
X103535Y27189D01*
X103935Y27589D01*
X103937Y27602D01*
X103947Y27610D01*
X104147Y28310D01*
X104142Y28324D01*
X104149Y28331D01*
X104049Y29031D01*
X104039Y29041D01*
X104042Y29049D01*
X103742Y29549D01*
X103720Y29558D01*
X103716Y29571D01*
X103116Y29771D01*
X103085Y29761D01*
X103073Y29765D01*
X102473Y29365D01*
X102465Y29342D01*
X102453Y29338D01*
X102253Y28638D01*
X102256Y28628D01*
X102251Y28624D01*
X102251Y28038D01*
X101968Y27566D01*
X101298Y27375D01*
X100425Y27569D01*
X100146Y27847D01*
X100049Y28530D01*
X99949Y29330D01*
X99921Y29358D01*
X99918Y29370D01*
X99418Y29570D01*
X99381Y29560D01*
X99369Y29562D01*
X98869Y29162D01*
X98863Y29137D01*
X98851Y29131D01*
X98751Y28431D01*
X98757Y28421D01*
X98751Y28416D01*
X98851Y27816D01*
X98867Y27801D01*
X98865Y27789D01*
X99365Y27289D01*
X99372Y27288D01*
X99373Y27283D01*
X99951Y26898D01*
X99951Y26334D01*
X99660Y25655D01*
X99183Y25273D01*
X98612Y25273D01*
X98027Y25566D01*
X97435Y26059D01*
X97042Y26551D01*
X96748Y27139D01*
X96649Y27831D01*
X96549Y28527D01*
X96549Y29808D01*
X96837Y30192D01*
X97831Y31186D01*
X98422Y31579D01*
X99008Y31775D01*
X99597Y31775D01*
X100280Y31677D01*
X100765Y31289D01*
X101162Y30793D01*
X101192Y30786D01*
X101199Y30776D01*
X101201Y30776D01*
X101208Y30781D01*
X101219Y30779D01*
X101223Y30792D01*
X101224Y30793D01*
X101238Y30792D01*
X101735Y31389D01*
X102224Y31780D01*
X102808Y31975D01*
X103497Y31975D01*
X104185Y31876D01*
X104771Y31583D01*
X105263Y31091D01*
X105660Y30596D01*
X105954Y30104D01*
X106152Y29414D01*
X106251Y28721D01*
X106251Y28027D01*
X106152Y27335D01*
X105954Y26743D01*
X105658Y26151D01*
X105265Y25659D01*
X104774Y25267D01*
X104086Y24972D01*
X103500Y24874D01*
X102937Y24968D01*
G37*
%LPD*%
%LPC*%
G36*
X154971Y24549D02*
X154971Y24549D01*
X154491Y24934D01*
X154103Y25515D01*
X154103Y25984D01*
X154993Y27170D01*
X154993Y27177D01*
X154998Y27178D01*
X155298Y27778D01*
X155294Y27802D01*
X155302Y27812D01*
X155102Y28612D01*
X155087Y28624D01*
X155089Y28635D01*
X154689Y29035D01*
X154662Y29039D01*
X154654Y29049D01*
X154054Y29049D01*
X154029Y29030D01*
X154016Y29031D01*
X153616Y28531D01*
X153615Y28518D01*
X153607Y28516D01*
X153407Y27916D01*
X153409Y27909D01*
X153405Y27907D01*
X153306Y27214D01*
X153009Y26519D01*
X153010Y26516D01*
X153007Y26516D01*
X152810Y25924D01*
X152419Y25435D01*
X151928Y25043D01*
X151240Y24748D01*
X150650Y24649D01*
X149961Y24649D01*
X149277Y24845D01*
X148785Y25238D01*
X148291Y25634D01*
X147899Y26222D01*
X147702Y26811D01*
X147603Y27503D01*
X147603Y28197D01*
X147702Y28887D01*
X147998Y29578D01*
X148294Y30071D01*
X148781Y30655D01*
X149244Y30748D01*
X149823Y30362D01*
X150305Y29880D01*
X150305Y29314D01*
X149612Y28226D01*
X149614Y28204D01*
X149608Y28199D01*
X149609Y28198D01*
X149605Y28194D01*
X149705Y27394D01*
X149721Y27378D01*
X149719Y27365D01*
X150119Y26965D01*
X150145Y26962D01*
X150150Y26955D01*
X150151Y26955D01*
X150154Y26951D01*
X150754Y26951D01*
X150779Y26970D01*
X150792Y26969D01*
X151192Y27469D01*
X151193Y27479D01*
X151199Y27483D01*
X151198Y27485D01*
X151201Y27486D01*
X151801Y29486D01*
X151998Y30076D01*
X152391Y30567D01*
X152881Y31057D01*
X153465Y31252D01*
X154154Y31350D01*
X154943Y31252D01*
X155535Y31054D01*
X156125Y30759D01*
X156613Y30271D01*
X157207Y29085D01*
X157305Y28496D01*
X157305Y27107D01*
X157108Y26418D01*
X156812Y25827D01*
X156317Y25233D01*
X155922Y24837D01*
X155538Y24549D01*
X154971Y24549D01*
G37*
%LPD*%
%LPC*%
G36*
X128933Y24862D02*
X128933Y24862D01*
X128449Y25442D01*
X128449Y26009D01*
X128840Y26595D01*
X129238Y27093D01*
X129239Y27099D01*
X129243Y27100D01*
X129643Y27800D01*
X129642Y27803D01*
X129644Y27804D01*
X129642Y27807D01*
X129640Y27822D01*
X129649Y27831D01*
X129549Y28531D01*
X129539Y28541D01*
X129542Y28549D01*
X129242Y29049D01*
X129214Y29061D01*
X129207Y29073D01*
X128507Y29173D01*
X128482Y29159D01*
X128469Y29162D01*
X127969Y28762D01*
X127964Y28743D01*
X127953Y28740D01*
X127753Y28140D01*
X127755Y28134D01*
X127751Y28132D01*
X127652Y27535D01*
X127454Y26841D01*
X127156Y26146D01*
X126861Y25655D01*
X126371Y25165D01*
X125785Y24872D01*
X125097Y24773D01*
X124404Y24773D01*
X123815Y24871D01*
X123229Y25165D01*
X122737Y25657D01*
X122344Y26148D01*
X122147Y26739D01*
X121949Y27431D01*
X121949Y28121D01*
X122048Y28814D01*
X122246Y29506D01*
X122542Y30097D01*
X122933Y30586D01*
X123402Y30868D01*
X123973Y30582D01*
X124559Y30094D01*
X124747Y29625D01*
X124457Y28950D01*
X124062Y28455D01*
X124061Y28436D01*
X124051Y28431D01*
X123951Y27731D01*
X123961Y27713D01*
X123956Y27702D01*
X124256Y27102D01*
X124287Y27087D01*
X124293Y27075D01*
X124993Y26975D01*
X125002Y26980D01*
X125006Y26980D01*
X125015Y26987D01*
X125021Y26991D01*
X125035Y26989D01*
X125435Y27389D01*
X125437Y27402D01*
X125445Y27405D01*
X125745Y28105D01*
X125743Y28113D01*
X125749Y28116D01*
X125848Y28713D01*
X126047Y29409D01*
X126246Y30005D01*
X126538Y30590D01*
X127126Y30982D01*
X127617Y31277D01*
X128303Y31375D01*
X129000Y31375D01*
X129047Y31411D01*
X129042Y31418D01*
X129049Y31423D01*
X129098Y33675D01*
X129100Y33675D01*
X129051Y31425D01*
X129086Y31377D01*
X129090Y31380D01*
X129092Y31375D01*
X129685Y31277D01*
X130271Y30983D01*
X130763Y30491D01*
X131158Y29997D01*
X131454Y29406D01*
X131651Y28717D01*
X131651Y27427D01*
X131552Y26739D01*
X131257Y26149D01*
X130862Y25555D01*
X130368Y25061D01*
X129977Y24768D01*
X129406Y24578D01*
X128933Y24862D01*
G37*
%LPD*%
%LPC*%
G36*
X122816Y33773D02*
X122816Y33773D01*
X122443Y34054D01*
X122249Y34731D01*
X122249Y37916D01*
X122646Y39105D01*
X122943Y39699D01*
X123338Y40293D01*
X123833Y40787D01*
X124327Y41182D01*
X124922Y41480D01*
X125515Y41776D01*
X126203Y41875D01*
X127596Y41875D01*
X128186Y41776D01*
X128879Y41479D01*
X129473Y41182D01*
X129969Y40786D01*
X130463Y40390D01*
X130859Y39797D01*
X131255Y39202D01*
X131453Y38608D01*
X131634Y38065D01*
X129430Y37778D01*
X129045Y38644D01*
X129034Y38650D01*
X129035Y38659D01*
X128635Y39059D01*
X128628Y39060D01*
X128627Y39065D01*
X128027Y39465D01*
X128018Y39464D01*
X128016Y39471D01*
X127416Y39671D01*
X127405Y39667D01*
X127400Y39673D01*
X126700Y39673D01*
X126696Y39670D01*
X126693Y39673D01*
X125993Y39573D01*
X125982Y39562D01*
X125973Y39565D01*
X125373Y39165D01*
X125369Y39155D01*
X125362Y39155D01*
X124562Y38155D01*
X124561Y38136D01*
X124551Y38131D01*
X124451Y37431D01*
X124454Y37426D01*
X124451Y37424D01*
X124451Y36024D01*
X124487Y35977D01*
X124494Y35982D01*
X124500Y35975D01*
X129050Y35975D01*
X129002Y33773D01*
X122816Y33773D01*
G37*
%LPD*%
%LPC*%
G36*
X93308Y226022D02*
X93308Y226022D01*
X92692Y226286D01*
X92184Y226624D01*
X91463Y227706D01*
X91090Y229197D01*
X91090Y230803D01*
X91472Y232328D01*
X91738Y232949D01*
X92167Y233464D01*
X92692Y233814D01*
X93308Y234078D01*
X94107Y234167D01*
X94810Y234079D01*
X95428Y233814D01*
X95953Y233464D01*
X96382Y232949D01*
X96657Y232308D01*
X96938Y231558D01*
X97127Y230047D01*
X97032Y229193D01*
X96936Y228420D01*
X96757Y227706D01*
X96036Y226624D01*
X95528Y226286D01*
X94912Y226022D01*
X94110Y225933D01*
X93308Y226022D01*
G37*
%LPD*%
G36*
X214124Y175093D02*
X214124Y175093D01*
X219424Y176893D01*
X219430Y176903D01*
X219438Y176901D01*
X219838Y177201D01*
X219843Y177219D01*
X219854Y177222D01*
X220054Y177722D01*
X220051Y177733D01*
X220053Y177734D01*
X220049Y177738D01*
X220047Y177747D01*
X220054Y177758D01*
X219854Y178258D01*
X219838Y178268D01*
X219838Y178279D01*
X219438Y178579D01*
X219427Y178579D01*
X219424Y178586D01*
X217725Y179186D01*
X216260Y179736D01*
X219023Y180593D01*
X219024Y180595D01*
X219026Y180594D01*
X219526Y180794D01*
X219534Y180806D01*
X219543Y180805D01*
X219943Y181205D01*
X219945Y181223D01*
X219955Y181231D01*
X219952Y181236D01*
X219957Y181240D01*
X219957Y181740D01*
X219948Y181753D01*
X219952Y181762D01*
X219752Y182162D01*
X219738Y182169D01*
X219738Y182179D01*
X219338Y182479D01*
X219327Y182479D01*
X219325Y182486D01*
X214025Y184386D01*
X214019Y184385D01*
X214018Y184388D01*
X213518Y184488D01*
X213497Y184478D01*
X213486Y184484D01*
X213086Y184284D01*
X213077Y184267D01*
X213066Y184265D01*
X212766Y183765D01*
X212767Y183753D01*
X212760Y183750D01*
X212660Y183250D01*
X212672Y183224D01*
X212669Y183210D01*
X212969Y182810D01*
X212988Y182805D01*
X212992Y182794D01*
X216381Y181597D01*
X216418Y181561D01*
X213592Y180587D01*
X213591Y180585D01*
X213590Y180586D01*
X213090Y180386D01*
X213080Y180370D01*
X213069Y180370D01*
X212769Y179970D01*
X212769Y179941D01*
X212760Y179930D01*
X212860Y179430D01*
X212867Y179424D01*
X212864Y179418D01*
X213064Y179018D01*
X213086Y179007D01*
X213090Y178994D01*
X213590Y178794D01*
X213592Y178795D01*
X213592Y178793D01*
X216418Y177819D01*
X216282Y177683D01*
X213393Y176787D01*
X213392Y176785D01*
X213390Y176786D01*
X212890Y176586D01*
X212875Y176562D01*
X212862Y176558D01*
X212662Y176058D01*
X212668Y176037D01*
X212667Y176037D01*
X212669Y176035D01*
X212669Y176033D01*
X212662Y176022D01*
X212862Y175522D01*
X212867Y175519D01*
X212866Y175515D01*
X213166Y175015D01*
X213188Y175006D01*
X213192Y174993D01*
X213492Y174893D01*
X213513Y174900D01*
X213524Y174893D01*
X214124Y175093D01*
G37*
%LPC*%
G36*
X153203Y33407D02*
X153203Y33407D01*
X153160Y33449D01*
X153157Y33445D01*
X153154Y33449D01*
X151762Y33449D01*
X151170Y33647D01*
X150572Y33846D01*
X149880Y34143D01*
X149387Y34537D01*
X148891Y35033D01*
X148496Y35527D01*
X148199Y36121D01*
X147902Y36814D01*
X147803Y37408D01*
X147703Y38103D01*
X147703Y38697D01*
X147802Y39390D01*
X148000Y40082D01*
X148296Y40673D01*
X148689Y41165D01*
X149165Y41546D01*
X149830Y41356D01*
X150413Y40870D01*
X150602Y40398D01*
X150409Y39821D01*
X150112Y39325D01*
X150113Y39316D01*
X150107Y39314D01*
X149907Y38614D01*
X149910Y38604D01*
X149905Y38600D01*
X149905Y37900D01*
X149912Y37891D01*
X149907Y37884D01*
X150107Y37284D01*
X150110Y37283D01*
X150109Y37281D01*
X150409Y36581D01*
X150424Y36572D01*
X150423Y36562D01*
X150923Y36162D01*
X150927Y36161D01*
X150927Y36159D01*
X151527Y35759D01*
X151542Y35760D01*
X151547Y35751D01*
X152247Y35651D01*
X152252Y35654D01*
X152254Y35651D01*
X152954Y35651D01*
X152963Y35658D01*
X152970Y35653D01*
X153570Y35853D01*
X153573Y35858D01*
X153576Y35856D01*
X154176Y36156D01*
X154183Y36169D01*
X154192Y36169D01*
X154592Y36669D01*
X154593Y36675D01*
X154597Y36676D01*
X154997Y37376D01*
X154996Y37380D01*
X154999Y37382D01*
X154995Y37387D01*
X154995Y37388D01*
X155003Y37392D01*
X155103Y37992D01*
X155100Y37997D01*
X155103Y38000D01*
X155103Y38700D01*
X155096Y38709D01*
X155101Y38716D01*
X154901Y39316D01*
X154896Y39319D01*
X154898Y39322D01*
X154408Y40302D01*
X154595Y40770D01*
X155178Y41256D01*
X155770Y41453D01*
X155794Y41488D01*
X155803Y41494D01*
X155806Y41520D01*
X155805Y41504D01*
X155828Y41468D01*
X155829Y41458D01*
X156321Y41162D01*
X156714Y40672D01*
X157008Y40181D01*
X157206Y39390D01*
X157305Y38697D01*
X157305Y38103D01*
X157205Y37407D01*
X157106Y36715D01*
X156810Y36122D01*
X156512Y35527D01*
X156117Y35033D01*
X155623Y34538D01*
X155029Y34143D01*
X154435Y33846D01*
X153238Y33447D01*
X153205Y33398D01*
X153206Y33397D01*
X153205Y33395D01*
X153206Y33384D01*
X153203Y33407D01*
G37*
%LPD*%
G36*
X95811Y178209D02*
X95811Y178209D01*
X95818Y178204D01*
X96318Y178404D01*
X96332Y178427D01*
X96345Y178431D01*
X96645Y179131D01*
X96642Y179144D01*
X96649Y179150D01*
X96649Y180250D01*
X96640Y180263D01*
X96644Y180272D01*
X96344Y180872D01*
X96312Y180888D01*
X96305Y180899D01*
X95432Y180996D01*
X95148Y181564D01*
X95049Y182453D01*
X95049Y190050D01*
X95040Y190063D01*
X95044Y190072D01*
X94744Y190672D01*
X94716Y190686D01*
X94711Y190698D01*
X93811Y190898D01*
X93800Y190893D01*
X93795Y190899D01*
X92795Y190799D01*
X92778Y190783D01*
X92765Y190785D01*
X92265Y190285D01*
X92262Y190262D01*
X92251Y190256D01*
X92151Y189456D01*
X92153Y189452D01*
X92151Y189450D01*
X92151Y181850D01*
X92153Y181847D01*
X92151Y181846D01*
X92251Y180746D01*
X92252Y180745D01*
X92251Y180744D01*
X92351Y179944D01*
X92355Y179940D01*
X92353Y179936D01*
X92553Y179236D01*
X92564Y179228D01*
X92562Y179219D01*
X92962Y178719D01*
X92980Y178715D01*
X92983Y178704D01*
X93783Y178404D01*
X93789Y178406D01*
X93791Y178402D01*
X94891Y178202D01*
X94897Y178205D01*
X94900Y178201D01*
X95800Y178201D01*
X95811Y178209D01*
G37*
G36*
X156811Y197259D02*
X156811Y197259D01*
X156818Y197254D01*
X157318Y197454D01*
X157332Y197477D01*
X157345Y197481D01*
X157645Y198181D01*
X157642Y198194D01*
X157649Y198200D01*
X157649Y199300D01*
X157637Y199316D01*
X157641Y199327D01*
X157241Y199927D01*
X157213Y199937D01*
X157206Y199949D01*
X156428Y200046D01*
X156049Y200615D01*
X156049Y209100D01*
X156037Y209116D01*
X156041Y209127D01*
X155641Y209727D01*
X155616Y209736D01*
X155611Y209748D01*
X154711Y209948D01*
X154700Y209943D01*
X154695Y209949D01*
X153695Y209849D01*
X153675Y209830D01*
X153662Y209831D01*
X153262Y209331D01*
X153261Y209312D01*
X153251Y209306D01*
X153151Y208506D01*
X153153Y208502D01*
X153151Y208500D01*
X153151Y199800D01*
X153156Y199793D01*
X153152Y199788D01*
X153352Y198988D01*
X153353Y198987D01*
X153353Y198986D01*
X153553Y198286D01*
X153564Y198278D01*
X153562Y198269D01*
X153962Y197769D01*
X153980Y197765D01*
X153983Y197754D01*
X154783Y197454D01*
X154789Y197456D01*
X154791Y197452D01*
X155891Y197252D01*
X155897Y197255D01*
X155900Y197251D01*
X156800Y197251D01*
X156811Y197259D01*
G37*
%LPC*%
G36*
X98045Y34044D02*
X98045Y34044D01*
X98006Y34065D01*
X98000Y34073D01*
X97520Y34073D01*
X97042Y34552D01*
X96753Y35226D01*
X96942Y35794D01*
X97326Y36082D01*
X97921Y36380D01*
X102520Y38379D01*
X102521Y38381D01*
X102522Y38380D01*
X103122Y38680D01*
X103123Y38681D01*
X103124Y38681D01*
X103125Y38685D01*
X103148Y38733D01*
X103132Y38741D01*
X103135Y38759D01*
X102835Y39059D01*
X102822Y39061D01*
X102821Y39069D01*
X97821Y41369D01*
X97817Y41368D01*
X97816Y41371D01*
X97229Y41566D01*
X96849Y42041D01*
X96849Y42615D01*
X97042Y43096D01*
X97520Y43575D01*
X97993Y43575D01*
X98682Y43378D01*
X105375Y40081D01*
X105963Y39689D01*
X106251Y39210D01*
X106251Y38536D01*
X105963Y37961D01*
X105378Y37668D01*
X98678Y34368D01*
X98078Y34068D01*
X98068Y34048D01*
X98057Y34039D01*
X98061Y34034D01*
X98055Y34022D01*
X98045Y34044D01*
G37*
%LPD*%
%LPC*%
G36*
X122826Y47366D02*
X122826Y47366D01*
X122342Y47753D01*
X122150Y48329D01*
X122246Y48998D01*
X122731Y49386D01*
X122738Y49416D01*
X122749Y49424D01*
X122749Y49493D01*
X130119Y52978D01*
X130694Y53170D01*
X131164Y52888D01*
X131553Y52207D01*
X131648Y51634D01*
X131365Y51162D01*
X130778Y50868D01*
X129578Y50268D01*
X129568Y50248D01*
X129557Y50240D01*
X129561Y50234D01*
X129560Y50231D01*
X129551Y50224D01*
X129551Y46898D01*
X127749Y47657D01*
X127749Y48924D01*
X127728Y48952D01*
X127727Y48965D01*
X127427Y49165D01*
X127389Y49163D01*
X127378Y49168D01*
X126178Y48568D01*
X126152Y48515D01*
X126160Y48511D01*
X126156Y48502D01*
X126356Y48102D01*
X126379Y48091D01*
X126382Y48078D01*
X127650Y47590D01*
X127606Y45083D01*
X122826Y47366D01*
G37*
%LPD*%
G36*
X219421Y186200D02*
X219421Y186200D01*
X219430Y186196D01*
X219830Y186396D01*
X219840Y186417D01*
X219849Y186424D01*
X219848Y186426D01*
X219856Y186430D01*
X219956Y186930D01*
X219951Y186942D01*
X219957Y186948D01*
X219857Y187548D01*
X219846Y187558D01*
X219849Y187567D01*
X219649Y187867D01*
X219624Y187876D01*
X219618Y187888D01*
X219118Y187988D01*
X219111Y187985D01*
X219108Y187989D01*
X218138Y187989D01*
X217957Y188352D01*
X217957Y189314D01*
X218531Y189696D01*
X219727Y190195D01*
X219736Y190210D01*
X219747Y190210D01*
X220047Y190610D01*
X220047Y190641D01*
X220056Y190652D01*
X219956Y191052D01*
X219946Y191060D01*
X219949Y191067D01*
X219549Y191667D01*
X219536Y191672D01*
X219535Y191681D01*
X219235Y191881D01*
X219201Y191879D01*
X219190Y191886D01*
X218691Y191686D01*
X218392Y191587D01*
X218391Y191585D01*
X218390Y191586D01*
X217391Y191186D01*
X217117Y191095D01*
X216738Y191379D01*
X216734Y191379D01*
X216733Y191382D01*
X216233Y191682D01*
X216223Y191681D01*
X216220Y191688D01*
X215820Y191788D01*
X215812Y191784D01*
X215808Y191789D01*
X215208Y191789D01*
X215202Y191785D01*
X215198Y191788D01*
X214198Y191588D01*
X214188Y191577D01*
X214178Y191579D01*
X213778Y191279D01*
X213777Y191274D01*
X213773Y191275D01*
X213373Y190875D01*
X213372Y190870D01*
X213369Y190870D01*
X213069Y190470D01*
X213069Y190460D01*
X213062Y190458D01*
X212862Y189958D01*
X212864Y189953D01*
X212860Y189952D01*
X212760Y189552D01*
X212761Y189550D01*
X212760Y189550D01*
X212660Y189050D01*
X212663Y189043D01*
X212659Y189040D01*
X212659Y186940D01*
X212667Y186929D01*
X212662Y186922D01*
X212862Y186422D01*
X212884Y186409D01*
X212886Y186396D01*
X213286Y186196D01*
X213302Y186199D01*
X213308Y186191D01*
X219408Y186191D01*
X219421Y186200D01*
G37*
G36*
X112805Y178301D02*
X112805Y178301D01*
X112822Y178317D01*
X112835Y178315D01*
X113335Y178815D01*
X113336Y178826D01*
X113338Y178828D01*
X113337Y178830D01*
X113338Y178838D01*
X113349Y178844D01*
X113449Y179644D01*
X113447Y179648D01*
X113449Y179650D01*
X113449Y182941D01*
X113739Y183715D01*
X114509Y184099D01*
X115291Y184002D01*
X116088Y183802D01*
X116114Y183814D01*
X116127Y183809D01*
X116727Y184209D01*
X116733Y184226D01*
X116744Y184228D01*
X117144Y185028D01*
X117143Y185031D01*
X117146Y185033D01*
X117142Y185038D01*
X117141Y185044D01*
X117149Y185050D01*
X117149Y185950D01*
X117138Y185964D01*
X117143Y185974D01*
X116743Y186674D01*
X116717Y186685D01*
X116712Y186698D01*
X115912Y186898D01*
X115904Y186894D01*
X115900Y186899D01*
X115100Y186899D01*
X115091Y186892D01*
X115084Y186897D01*
X114184Y186597D01*
X114177Y186586D01*
X114168Y186588D01*
X113603Y186117D01*
X113335Y186385D01*
X113328Y186386D01*
X113327Y186391D01*
X112727Y186791D01*
X112707Y186790D01*
X112700Y186799D01*
X111600Y186799D01*
X111589Y186791D01*
X111581Y186795D01*
X110881Y186495D01*
X110869Y186474D01*
X110856Y186472D01*
X110556Y185872D01*
X110559Y185856D01*
X110551Y185850D01*
X110551Y179050D01*
X110562Y179036D01*
X110557Y179026D01*
X110957Y178326D01*
X110987Y178313D01*
X110994Y178301D01*
X111794Y178201D01*
X111801Y178205D01*
X111805Y178201D01*
X112805Y178301D01*
G37*
G36*
X180505Y178301D02*
X180505Y178301D01*
X180522Y178317D01*
X180535Y178315D01*
X181035Y178815D01*
X181036Y178826D01*
X181038Y178828D01*
X181037Y178830D01*
X181038Y178838D01*
X181049Y178844D01*
X181149Y179644D01*
X181147Y179648D01*
X181149Y179650D01*
X181149Y182941D01*
X181440Y183716D01*
X182110Y184099D01*
X182891Y184002D01*
X183688Y183802D01*
X183712Y183813D01*
X183724Y183807D01*
X184424Y184207D01*
X184434Y184229D01*
X184446Y184233D01*
X184746Y185033D01*
X184744Y185041D01*
X184749Y185045D01*
X184849Y185945D01*
X184838Y185963D01*
X184843Y185974D01*
X184443Y186674D01*
X184416Y186686D01*
X184411Y186698D01*
X183511Y186898D01*
X183503Y186895D01*
X183500Y186899D01*
X182700Y186899D01*
X182690Y186892D01*
X182683Y186896D01*
X181883Y186596D01*
X181878Y186588D01*
X181871Y186590D01*
X181205Y186114D01*
X180935Y186385D01*
X180931Y186385D01*
X180931Y186388D01*
X180431Y186788D01*
X180408Y186789D01*
X180400Y186799D01*
X179200Y186799D01*
X179189Y186791D01*
X179181Y186795D01*
X178481Y186495D01*
X178466Y186470D01*
X178453Y186466D01*
X178253Y185866D01*
X178257Y185855D01*
X178251Y185850D01*
X178251Y179050D01*
X178259Y179039D01*
X178255Y179031D01*
X178555Y178331D01*
X178588Y178311D01*
X178595Y178301D01*
X179495Y178201D01*
X179501Y178205D01*
X179505Y178201D01*
X180505Y178301D01*
G37*
G36*
X90605Y197351D02*
X90605Y197351D01*
X90622Y197367D01*
X90635Y197365D01*
X91135Y197865D01*
X91136Y197876D01*
X91138Y197878D01*
X91137Y197880D01*
X91139Y197892D01*
X91149Y197900D01*
X91149Y201991D01*
X91439Y202765D01*
X92209Y203149D01*
X92991Y203052D01*
X93788Y202852D01*
X93812Y202863D01*
X93824Y202857D01*
X94524Y203257D01*
X94534Y203279D01*
X94546Y203283D01*
X94846Y204083D01*
X94843Y204095D01*
X94849Y204100D01*
X94849Y205000D01*
X94838Y205014D01*
X94843Y205024D01*
X94443Y205724D01*
X94417Y205735D01*
X94412Y205748D01*
X93612Y205948D01*
X93604Y205944D01*
X93600Y205949D01*
X92800Y205949D01*
X92790Y205942D01*
X92783Y205946D01*
X91983Y205646D01*
X91978Y205638D01*
X91971Y205640D01*
X91305Y205164D01*
X91035Y205435D01*
X91028Y205436D01*
X91027Y205441D01*
X90427Y205841D01*
X90407Y205840D01*
X90400Y205849D01*
X89300Y205849D01*
X89289Y205841D01*
X89281Y205845D01*
X88581Y205545D01*
X88569Y205524D01*
X88556Y205522D01*
X88256Y204922D01*
X88259Y204906D01*
X88251Y204899D01*
X88351Y198099D01*
X88359Y198088D01*
X88355Y198081D01*
X88655Y197381D01*
X88688Y197361D01*
X88695Y197351D01*
X89595Y197251D01*
X89601Y197255D01*
X89605Y197251D01*
X90605Y197351D01*
G37*
%LPC*%
G36*
X173333Y38975D02*
X173333Y38975D01*
X173049Y39542D01*
X173049Y47218D01*
X173333Y47786D01*
X173901Y47880D01*
X174570Y47785D01*
X174851Y47316D01*
X174851Y44530D01*
X174887Y44483D01*
X174894Y44488D01*
X174900Y44481D01*
X181692Y44481D01*
X182261Y44291D01*
X182451Y43722D01*
X182451Y43038D01*
X182263Y42474D01*
X181696Y42379D01*
X174899Y42279D01*
X174852Y42243D01*
X174858Y42235D01*
X174851Y42230D01*
X174851Y39542D01*
X174567Y38974D01*
X173999Y38880D01*
X173333Y38975D01*
G37*
%LPD*%
G36*
X218913Y168094D02*
X218913Y168094D01*
X218916Y168091D01*
X219516Y168191D01*
X219520Y168196D01*
X219524Y168193D01*
X219824Y168293D01*
X219841Y168318D01*
X219854Y168322D01*
X220054Y168822D01*
X220049Y168839D01*
X220057Y168847D01*
X219957Y169547D01*
X219941Y169562D01*
X219943Y169575D01*
X219643Y169875D01*
X219624Y169877D01*
X219620Y169888D01*
X219220Y169988D01*
X219212Y169984D01*
X219208Y169989D01*
X218144Y169989D01*
X218057Y170248D01*
X218057Y171240D01*
X218053Y171246D01*
X218056Y171250D01*
X217956Y171750D01*
X217949Y171756D01*
X217952Y171762D01*
X217752Y172162D01*
X217708Y172184D01*
X217731Y172197D01*
X217756Y172251D01*
X217748Y172254D01*
X217752Y172262D01*
X217552Y172662D01*
X217542Y172667D01*
X217543Y172675D01*
X217143Y173075D01*
X217138Y173076D01*
X217138Y173079D01*
X216738Y173379D01*
X216731Y173379D01*
X216730Y173384D01*
X216330Y173584D01*
X216321Y173582D01*
X216318Y173588D01*
X215318Y173788D01*
X215311Y173785D01*
X215308Y173789D01*
X214808Y173789D01*
X214795Y173780D01*
X214786Y173784D01*
X214186Y173484D01*
X214183Y173478D01*
X214178Y173479D01*
X213778Y173179D01*
X213777Y173174D01*
X213773Y173175D01*
X213373Y172775D01*
X213372Y172770D01*
X213369Y172770D01*
X213069Y172370D01*
X213069Y172360D01*
X213062Y172358D01*
X212862Y171858D01*
X212864Y171852D01*
X212860Y171850D01*
X212760Y171350D01*
X212763Y171343D01*
X212759Y171340D01*
X212759Y168740D01*
X212768Y168727D01*
X212764Y168718D01*
X212964Y168318D01*
X212984Y168308D01*
X212986Y168296D01*
X213386Y168096D01*
X213402Y168099D01*
X213408Y168091D01*
X218908Y168091D01*
X218913Y168094D01*
G37*
%LPC*%
G36*
X90012Y162149D02*
X90012Y162149D01*
X89225Y162542D01*
X88532Y163038D01*
X87749Y163820D01*
X87749Y165497D01*
X87848Y166384D01*
X88240Y167070D01*
X88832Y167662D01*
X89523Y168156D01*
X90309Y168451D01*
X91091Y168451D01*
X91877Y168156D01*
X92568Y167662D01*
X93158Y167072D01*
X93453Y166385D01*
X93650Y165497D01*
X93551Y164609D01*
X93354Y163819D01*
X92963Y163134D01*
X92273Y162642D01*
X91584Y162248D01*
X90797Y162149D01*
X90012Y162149D01*
G37*
%LPD*%
%LPC*%
G36*
X148568Y43849D02*
X148568Y43849D01*
X148095Y44133D01*
X147904Y44705D01*
X148002Y45484D01*
X148285Y45955D01*
X148858Y46051D01*
X155454Y46051D01*
X155501Y46087D01*
X155496Y46094D01*
X155503Y46100D01*
X155503Y49497D01*
X155600Y50174D01*
X156071Y50551D01*
X156740Y50551D01*
X157209Y50270D01*
X157305Y49596D01*
X157305Y44803D01*
X157209Y44135D01*
X156741Y43948D01*
X156051Y43849D01*
X148568Y43849D01*
G37*
%LPD*%
G36*
X123406Y197257D02*
X123406Y197257D01*
X123412Y197252D01*
X124212Y197452D01*
X124232Y197477D01*
X124245Y197481D01*
X124545Y198181D01*
X124542Y198194D01*
X124549Y198200D01*
X124549Y205000D01*
X124538Y205014D01*
X124543Y205024D01*
X124143Y205724D01*
X124113Y205737D01*
X124106Y205749D01*
X123306Y205849D01*
X123299Y205845D01*
X123296Y205849D01*
X122196Y205749D01*
X122175Y205730D01*
X122162Y205731D01*
X121762Y205231D01*
X121761Y205212D01*
X121751Y205206D01*
X121651Y204406D01*
X121653Y204402D01*
X121651Y204400D01*
X121651Y198700D01*
X121654Y198696D01*
X121651Y198694D01*
X121751Y197894D01*
X121767Y197878D01*
X121765Y197865D01*
X122265Y197365D01*
X122289Y197362D01*
X122296Y197351D01*
X123396Y197251D01*
X123406Y197257D01*
G37*
G36*
X99106Y197257D02*
X99106Y197257D01*
X99112Y197252D01*
X99912Y197452D01*
X99932Y197477D01*
X99945Y197481D01*
X100245Y198181D01*
X100242Y198194D01*
X100249Y198200D01*
X100249Y205000D01*
X100238Y205014D01*
X100243Y205024D01*
X99843Y205724D01*
X99813Y205737D01*
X99806Y205749D01*
X99006Y205849D01*
X98999Y205845D01*
X98996Y205849D01*
X97896Y205749D01*
X97875Y205730D01*
X97862Y205731D01*
X97462Y205231D01*
X97461Y205212D01*
X97451Y205206D01*
X97351Y204406D01*
X97353Y204402D01*
X97351Y204400D01*
X97351Y198700D01*
X97354Y198696D01*
X97351Y198694D01*
X97451Y197894D01*
X97467Y197878D01*
X97465Y197865D01*
X97965Y197365D01*
X97989Y197362D01*
X97996Y197351D01*
X99096Y197251D01*
X99106Y197257D01*
G37*
%LPC*%
G36*
X245718Y79615D02*
X245718Y79615D01*
X245717Y79615D01*
X245716Y79615D01*
X245193Y79674D01*
X244159Y79852D01*
X243700Y80070D01*
X242819Y80627D01*
X242246Y81497D01*
X242019Y81951D01*
X241836Y82982D01*
X241801Y83492D01*
X241982Y84525D01*
X242124Y85013D01*
X242776Y85969D01*
X242776Y85971D01*
X243054Y86238D01*
X243933Y86801D01*
X244428Y86926D01*
X245464Y87107D01*
X245999Y87108D01*
X245994Y86708D01*
X245994Y86707D01*
X245994Y85188D01*
X245663Y85218D01*
X245656Y85214D01*
X245644Y85217D01*
X245126Y85105D01*
X245119Y85098D01*
X245104Y85095D01*
X244673Y84797D01*
X244670Y84789D01*
X244657Y84781D01*
X244363Y84352D01*
X244362Y84344D01*
X244355Y84336D01*
X244193Y83839D01*
X244194Y83834D01*
X244190Y83827D01*
X244128Y83303D01*
X244131Y83297D01*
X244129Y83287D01*
X244205Y82763D01*
X244210Y82758D01*
X244209Y82748D01*
X244404Y82263D01*
X244411Y82259D01*
X244414Y82247D01*
X244741Y81845D01*
X244750Y81842D01*
X244759Y81830D01*
X245211Y81577D01*
X245219Y81577D01*
X245231Y81570D01*
X245751Y81479D01*
X245751Y81480D01*
X245752Y81479D01*
X245994Y81442D01*
X245994Y79574D01*
X245718Y79615D01*
G37*
%LPD*%
%LPC*%
G36*
X140504Y162149D02*
X140504Y162149D01*
X139921Y162246D01*
X139440Y162631D01*
X139147Y163314D01*
X138949Y164405D01*
X138949Y165598D01*
X139049Y166793D01*
X139246Y167680D01*
X139635Y168263D01*
X140114Y168551D01*
X140792Y168551D01*
X141371Y168358D01*
X141755Y167878D01*
X141952Y167088D01*
X141999Y167051D01*
X142003Y167057D01*
X142009Y167052D01*
X142499Y167139D01*
X142089Y167048D01*
X142051Y167003D01*
X142055Y166999D01*
X142051Y166996D01*
X142151Y165898D01*
X142151Y164705D01*
X141952Y163610D01*
X141756Y162825D01*
X141273Y162343D01*
X140692Y162149D01*
X140504Y162149D01*
G37*
%LPD*%
%LPC*%
G36*
X239035Y79695D02*
X239035Y79695D01*
X238884Y79705D01*
X238894Y86903D01*
X238895Y86904D01*
X238891Y87045D01*
X241213Y87045D01*
X241212Y86777D01*
X241205Y86761D01*
X241205Y79695D01*
X241151Y79695D01*
X239035Y79695D01*
G37*
%LPD*%
%LPC*%
G36*
X236378Y79695D02*
X236378Y79695D01*
X235941Y79723D01*
X235941Y87026D01*
X236002Y87025D01*
X236004Y87026D01*
X236007Y87025D01*
X236383Y87045D01*
X238257Y87045D01*
X238252Y86998D01*
X238252Y86997D01*
X238252Y86994D01*
X238262Y79701D01*
X237964Y79695D01*
X236378Y79695D01*
G37*
%LPD*%
G36*
X78259Y47932D02*
X78259Y47932D01*
X78262Y47929D01*
X78862Y48029D01*
X78903Y48073D01*
X78900Y48076D01*
X78903Y48078D01*
X78903Y50078D01*
X78894Y50091D01*
X78898Y50100D01*
X78798Y50300D01*
X78788Y50305D01*
X78789Y50313D01*
X77789Y51313D01*
X77777Y51314D01*
X77776Y51322D01*
X77176Y51622D01*
X77165Y51620D01*
X77164Y51623D01*
X77163Y51623D01*
X77161Y51627D01*
X76461Y51727D01*
X76452Y51722D01*
X76447Y51727D01*
X75747Y51627D01*
X75739Y51619D01*
X75732Y51622D01*
X75132Y51322D01*
X75129Y51315D01*
X75123Y51316D01*
X74623Y50916D01*
X74621Y50909D01*
X74616Y50909D01*
X74216Y50409D01*
X74215Y50401D01*
X74210Y50400D01*
X73910Y49800D01*
X73913Y49784D01*
X73905Y49778D01*
X73905Y48378D01*
X73918Y48360D01*
X73915Y48348D01*
X74215Y47948D01*
X74246Y47940D01*
X74254Y47929D01*
X78254Y47929D01*
X78259Y47932D01*
G37*
%LPC*%
G36*
X107900Y225630D02*
X107900Y225630D01*
X107780Y225690D01*
X107765Y225694D01*
X107752Y225703D01*
X107618Y225729D01*
X107612Y225730D01*
X107611Y225730D01*
X107610Y225730D01*
X107500Y225730D01*
X107435Y225763D01*
X107379Y225819D01*
X107347Y225839D01*
X107280Y225890D01*
X107135Y225963D01*
X106923Y226175D01*
X106890Y226240D01*
X106890Y226250D01*
X106882Y226287D01*
X106871Y226370D01*
X106790Y226612D01*
X106790Y226750D01*
X106787Y226765D01*
X106789Y226780D01*
X106777Y226823D01*
X106777Y226833D01*
X106772Y226843D01*
X106752Y226912D01*
X106751Y226919D01*
X106750Y226919D01*
X106750Y226920D01*
X106721Y226979D01*
X106771Y227130D01*
X106774Y227167D01*
X106790Y227250D01*
X106790Y227560D01*
X106923Y227825D01*
X107235Y228138D01*
X107547Y228293D01*
X108100Y228570D01*
X108210Y228570D01*
X108225Y228573D01*
X108240Y228571D01*
X108372Y228608D01*
X108379Y228609D01*
X108379Y228610D01*
X108380Y228610D01*
X108500Y228670D01*
X108610Y228670D01*
X108647Y228678D01*
X108730Y228689D01*
X108972Y228770D01*
X109310Y228770D01*
X109347Y228778D01*
X109430Y228789D01*
X109672Y228870D01*
X110010Y228870D01*
X110025Y228873D01*
X110040Y228871D01*
X110172Y228908D01*
X110179Y228909D01*
X110179Y228910D01*
X110180Y228910D01*
X110300Y228970D01*
X110710Y228970D01*
X110725Y228973D01*
X110740Y228971D01*
X110872Y229008D01*
X110879Y229009D01*
X110879Y229010D01*
X110880Y229010D01*
X110968Y229054D01*
X111200Y229170D01*
X111310Y229170D01*
X111384Y229187D01*
X111459Y229200D01*
X111469Y229207D01*
X111479Y229209D01*
X111508Y229233D01*
X111530Y229248D01*
X111530Y228140D01*
X111470Y228020D01*
X111466Y228005D01*
X111457Y227992D01*
X111431Y227858D01*
X111430Y227852D01*
X111430Y227851D01*
X111430Y227850D01*
X111430Y227640D01*
X111370Y227520D01*
X111366Y227505D01*
X111357Y227492D01*
X111331Y227358D01*
X111330Y227352D01*
X111330Y227351D01*
X111330Y227350D01*
X111330Y227112D01*
X111278Y226955D01*
X111141Y226819D01*
X111133Y226806D01*
X111120Y226796D01*
X111053Y226677D01*
X111050Y226672D01*
X111050Y226671D01*
X111049Y226670D01*
X110978Y226455D01*
X110568Y226046D01*
X110354Y225903D01*
X109263Y225630D01*
X107900Y225630D01*
G37*
%LPD*%
G36*
X218113Y81441D02*
X218113Y81441D01*
X218125Y81438D01*
X218637Y81545D01*
X218645Y81553D01*
X218662Y81557D01*
X219080Y81872D01*
X219083Y81880D01*
X219094Y81887D01*
X219383Y82315D01*
X219383Y82322D01*
X219390Y82330D01*
X219557Y82817D01*
X219555Y82823D01*
X219559Y82829D01*
X219633Y83346D01*
X219630Y83353D01*
X219633Y83365D01*
X219554Y83882D01*
X219550Y83887D01*
X219551Y83894D01*
X219373Y84378D01*
X219367Y84383D01*
X219365Y84393D01*
X219065Y84811D01*
X219057Y84814D01*
X219050Y84826D01*
X218625Y85125D01*
X218614Y85126D01*
X218601Y85135D01*
X218088Y85241D01*
X218080Y85238D01*
X218068Y85242D01*
X217555Y85179D01*
X217549Y85174D01*
X217537Y85174D01*
X217072Y84963D01*
X217067Y84955D01*
X217054Y84951D01*
X216682Y84596D01*
X216681Y84588D01*
X216671Y84581D01*
X216416Y84124D01*
X216416Y84115D01*
X216409Y84103D01*
X216329Y83585D01*
X216331Y83581D01*
X216328Y83575D01*
X216334Y83058D01*
X216336Y83054D01*
X216335Y83047D01*
X216427Y82534D01*
X216433Y82528D01*
X216434Y82514D01*
X216689Y82057D01*
X216697Y82053D01*
X216702Y82041D01*
X217085Y81696D01*
X217094Y81695D01*
X217103Y81685D01*
X217575Y81488D01*
X217583Y81490D01*
X217594Y81484D01*
X218106Y81437D01*
X218113Y81441D01*
G37*
%LPC*%
G36*
X129200Y33773D02*
X129200Y33773D01*
X129249Y36012D01*
X129444Y36402D01*
X129441Y36418D01*
X129449Y36424D01*
X129449Y37681D01*
X131651Y37968D01*
X131651Y34532D01*
X131461Y33961D01*
X130991Y33773D01*
X129200Y33773D01*
G37*
%LPD*%
%LPC*%
G36*
X130217Y43771D02*
X130217Y43771D01*
X129524Y44167D01*
X129522Y44166D01*
X129521Y44168D01*
X127704Y45036D01*
X127748Y47550D01*
X129572Y46782D01*
X129965Y46389D01*
X129978Y46387D01*
X129979Y46379D01*
X131269Y45784D01*
X131651Y45307D01*
X131651Y44737D01*
X131262Y44057D01*
X130786Y43676D01*
X130217Y43771D01*
G37*
%LPD*%
%LPC*%
G36*
X102249Y165449D02*
X102249Y165449D01*
X102249Y167872D01*
X102714Y168151D01*
X104391Y168151D01*
X105168Y167859D01*
X105552Y167283D01*
X105649Y166413D01*
X105164Y165735D01*
X104784Y165449D01*
X102249Y165449D01*
G37*
%LPD*%
%LPC*%
G36*
X170516Y181199D02*
X170516Y181199D01*
X169840Y181682D01*
X169549Y182360D01*
X169549Y183234D01*
X170031Y183909D01*
X170809Y184201D01*
X171584Y184201D01*
X172259Y183719D01*
X172550Y182944D01*
X172453Y182070D01*
X171971Y181492D01*
X171191Y181199D01*
X170516Y181199D01*
G37*
%LPD*%
%LPC*%
G36*
X84434Y181185D02*
X84434Y181185D01*
X84431Y181185D01*
X84432Y181188D01*
X83841Y181680D01*
X83549Y182360D01*
X83549Y183234D01*
X84031Y183909D01*
X84809Y184201D01*
X85584Y184201D01*
X86259Y183719D01*
X86550Y182944D01*
X86453Y182073D01*
X85872Y181492D01*
X85190Y181199D01*
X84500Y181199D01*
X84469Y181176D01*
X84457Y181174D01*
X84441Y181145D01*
X84434Y181185D01*
G37*
%LPD*%
G36*
X123202Y206955D02*
X123202Y206955D01*
X123206Y206951D01*
X124006Y207051D01*
X124015Y207060D01*
X124022Y207056D01*
X124222Y207156D01*
X124232Y207177D01*
X124233Y207178D01*
X124245Y207181D01*
X124545Y207881D01*
X124542Y207894D01*
X124549Y207900D01*
X124549Y208900D01*
X124540Y208913D01*
X124544Y208922D01*
X124244Y209522D01*
X124223Y209533D01*
X124219Y209545D01*
X123519Y209845D01*
X123503Y209841D01*
X123496Y209849D01*
X122296Y209749D01*
X122281Y209736D01*
X122269Y209738D01*
X121769Y209338D01*
X121763Y209313D01*
X121751Y209306D01*
X121651Y208506D01*
X121653Y208502D01*
X121651Y208500D01*
X121651Y207700D01*
X121667Y207679D01*
X121665Y207665D01*
X122265Y207065D01*
X122288Y207062D01*
X122295Y207051D01*
X123195Y206951D01*
X123202Y206955D01*
G37*
G36*
X98902Y206955D02*
X98902Y206955D01*
X98906Y206951D01*
X99706Y207051D01*
X99715Y207060D01*
X99722Y207056D01*
X99922Y207156D01*
X99932Y207177D01*
X99933Y207178D01*
X99945Y207181D01*
X100245Y207881D01*
X100242Y207894D01*
X100249Y207900D01*
X100249Y208900D01*
X100240Y208913D01*
X100244Y208922D01*
X99944Y209522D01*
X99923Y209533D01*
X99919Y209545D01*
X99219Y209845D01*
X99203Y209841D01*
X99196Y209849D01*
X97996Y209749D01*
X97981Y209736D01*
X97969Y209738D01*
X97469Y209338D01*
X97463Y209313D01*
X97451Y209306D01*
X97351Y208506D01*
X97353Y208502D01*
X97351Y208500D01*
X97351Y207700D01*
X97367Y207679D01*
X97365Y207665D01*
X97965Y207065D01*
X97988Y207062D01*
X97995Y207051D01*
X98895Y206951D01*
X98902Y206955D01*
G37*
%LPC*%
G36*
X102818Y181199D02*
X102818Y181199D01*
X102238Y181682D01*
X101851Y182361D01*
X101948Y183232D01*
X102432Y183910D01*
X103110Y184201D01*
X103982Y184201D01*
X104558Y183721D01*
X104850Y182944D01*
X104753Y182070D01*
X104271Y181492D01*
X103491Y181199D01*
X102818Y181199D01*
G37*
%LPD*%
%LPC*%
G36*
X162520Y162049D02*
X162520Y162049D01*
X161947Y162623D01*
X161851Y163390D01*
X162234Y164060D01*
X163006Y164350D01*
X163880Y164253D01*
X164454Y163775D01*
X164549Y163010D01*
X164166Y162340D01*
X163391Y162049D01*
X162520Y162049D01*
G37*
%LPD*%
%LPC*%
G36*
X214734Y187989D02*
X214734Y187989D01*
X214557Y188255D01*
X214557Y189231D01*
X214747Y189704D01*
X215120Y189891D01*
X215596Y189891D01*
X215969Y189704D01*
X216159Y189231D01*
X216159Y187989D01*
X214734Y187989D01*
G37*
%LPD*%
%LPC*%
G36*
X214728Y169989D02*
X214728Y169989D01*
X214557Y170160D01*
X214557Y171228D01*
X214747Y171608D01*
X215124Y171891D01*
X215596Y171891D01*
X215974Y171702D01*
X216159Y171425D01*
X216159Y169989D01*
X214728Y169989D01*
G37*
%LPD*%
%LPC*%
G36*
X162530Y167246D02*
X162530Y167246D01*
X162155Y167903D01*
X162435Y168557D01*
X163295Y168748D01*
X163954Y168466D01*
X164048Y167527D01*
X163390Y167151D01*
X162530Y167246D01*
G37*
%LPD*%
%LPC*%
G36*
X138230Y183299D02*
X138230Y183299D01*
X138059Y183643D01*
X138627Y184306D01*
X139400Y184499D01*
X140163Y184309D01*
X140438Y183574D01*
X139888Y183299D01*
X138230Y183299D01*
G37*
%LPD*%
D10*
X248946Y112000D02*
X248946Y142000D01*
X222946Y97000D02*
X206446Y97000D01*
X206446Y149500D02*
X206446Y157000D01*
X222946Y157000D01*
X206446Y104500D02*
X206446Y97000D01*
X198930Y102000D02*
X198932Y102063D01*
X198938Y102126D01*
X198948Y102189D01*
X198961Y102250D01*
X198979Y102311D01*
X199000Y102370D01*
X199025Y102429D01*
X199053Y102485D01*
X199085Y102540D01*
X199120Y102592D01*
X199159Y102642D01*
X199200Y102690D01*
X199245Y102735D01*
X199292Y102777D01*
X199341Y102816D01*
X199393Y102852D01*
X199447Y102885D01*
X199503Y102914D01*
X199561Y102940D01*
X199620Y102962D01*
X199680Y102981D01*
X199742Y102995D01*
X199804Y103006D01*
X199867Y103013D01*
X199930Y103016D01*
X199993Y103015D01*
X200056Y103010D01*
X200119Y103001D01*
X200181Y102988D01*
X200242Y102972D01*
X200302Y102952D01*
X200360Y102928D01*
X200417Y102900D01*
X200472Y102869D01*
X200525Y102835D01*
X200576Y102797D01*
X200624Y102756D01*
X200670Y102713D01*
X200713Y102666D01*
X200753Y102617D01*
X200790Y102566D01*
X200823Y102513D01*
X200853Y102457D01*
X200880Y102400D01*
X200903Y102341D01*
X200922Y102281D01*
X200938Y102219D01*
X200950Y102157D01*
X200958Y102095D01*
X200962Y102032D01*
X200962Y101968D01*
X200958Y101905D01*
X200950Y101843D01*
X200938Y101781D01*
X200922Y101719D01*
X200903Y101659D01*
X200880Y101600D01*
X200853Y101543D01*
X200823Y101487D01*
X200790Y101434D01*
X200753Y101383D01*
X200713Y101334D01*
X200670Y101287D01*
X200624Y101244D01*
X200576Y101203D01*
X200525Y101165D01*
X200472Y101131D01*
X200417Y101100D01*
X200360Y101072D01*
X200302Y101048D01*
X200242Y101028D01*
X200181Y101012D01*
X200119Y100999D01*
X200056Y100990D01*
X199993Y100985D01*
X199930Y100984D01*
X199867Y100987D01*
X199804Y100994D01*
X199742Y101005D01*
X199680Y101019D01*
X199620Y101038D01*
X199561Y101060D01*
X199503Y101086D01*
X199447Y101115D01*
X199393Y101148D01*
X199341Y101184D01*
X199292Y101223D01*
X199245Y101265D01*
X199200Y101310D01*
X199159Y101358D01*
X199120Y101408D01*
X199085Y101460D01*
X199053Y101515D01*
X199025Y101571D01*
X199000Y101630D01*
X198979Y101689D01*
X198961Y101750D01*
X198948Y101811D01*
X198938Y101874D01*
X198932Y101937D01*
X198930Y102000D01*
X4800Y112000D02*
X4800Y142000D01*
X30800Y157000D02*
X47300Y157000D01*
X47300Y104500D02*
X47300Y97000D01*
X30800Y97000D01*
X47300Y149500D02*
X47300Y157000D01*
X52784Y152000D02*
X52786Y152063D01*
X52792Y152126D01*
X52802Y152189D01*
X52815Y152250D01*
X52833Y152311D01*
X52854Y152370D01*
X52879Y152429D01*
X52907Y152485D01*
X52939Y152540D01*
X52974Y152592D01*
X53013Y152642D01*
X53054Y152690D01*
X53099Y152735D01*
X53146Y152777D01*
X53195Y152816D01*
X53247Y152852D01*
X53301Y152885D01*
X53357Y152914D01*
X53415Y152940D01*
X53474Y152962D01*
X53534Y152981D01*
X53596Y152995D01*
X53658Y153006D01*
X53721Y153013D01*
X53784Y153016D01*
X53847Y153015D01*
X53910Y153010D01*
X53973Y153001D01*
X54035Y152988D01*
X54096Y152972D01*
X54156Y152952D01*
X54214Y152928D01*
X54271Y152900D01*
X54326Y152869D01*
X54379Y152835D01*
X54430Y152797D01*
X54478Y152756D01*
X54524Y152713D01*
X54567Y152666D01*
X54607Y152617D01*
X54644Y152566D01*
X54677Y152513D01*
X54707Y152457D01*
X54734Y152400D01*
X54757Y152341D01*
X54776Y152281D01*
X54792Y152219D01*
X54804Y152157D01*
X54812Y152095D01*
X54816Y152032D01*
X54816Y151968D01*
X54812Y151905D01*
X54804Y151843D01*
X54792Y151781D01*
X54776Y151719D01*
X54757Y151659D01*
X54734Y151600D01*
X54707Y151543D01*
X54677Y151487D01*
X54644Y151434D01*
X54607Y151383D01*
X54567Y151334D01*
X54524Y151287D01*
X54478Y151244D01*
X54430Y151203D01*
X54379Y151165D01*
X54326Y151131D01*
X54271Y151100D01*
X54214Y151072D01*
X54156Y151048D01*
X54096Y151028D01*
X54035Y151012D01*
X53973Y150999D01*
X53910Y150990D01*
X53847Y150985D01*
X53784Y150984D01*
X53721Y150987D01*
X53658Y150994D01*
X53596Y151005D01*
X53534Y151019D01*
X53474Y151038D01*
X53415Y151060D01*
X53357Y151086D01*
X53301Y151115D01*
X53247Y151148D01*
X53195Y151184D01*
X53146Y151223D01*
X53099Y151265D01*
X53054Y151310D01*
X53013Y151358D01*
X52974Y151408D01*
X52939Y151460D01*
X52907Y151515D01*
X52879Y151571D01*
X52854Y151630D01*
X52833Y151689D01*
X52815Y151750D01*
X52802Y151811D01*
X52792Y151874D01*
X52786Y151937D01*
X52784Y152000D01*
X239332Y195199D02*
X248857Y195199D01*
X132334Y116078D02*
X120904Y116078D01*
X120904Y138176D02*
X132334Y138176D01*
D11*
X116332Y139954D03*
M02*
