G04 EAGLE Gerber RS-274X export*
G75*
%MOMM*%
%FSLAX34Y34*%
%LPD*%
%INBottom Copper*%
%IPPOS*%
%AMOC8*
5,1,8,0,0,1.08239X$1,22.5*%
G01*
%ADD10C,0.177800*%
%ADD11C,0.099059*%
%ADD12C,0.635000*%
%ADD13C,0.101600*%
%ADD14C,1.879600*%
%ADD15C,0.558800*%
%ADD16C,0.203200*%
%ADD17C,0.406400*%

G36*
X66296Y2812D02*
X66296Y2812D01*
X66434Y2825D01*
X66453Y2832D01*
X66473Y2835D01*
X66602Y2886D01*
X66733Y2933D01*
X66750Y2944D01*
X66768Y2952D01*
X66881Y3033D01*
X66996Y3112D01*
X67010Y3127D01*
X67026Y3138D01*
X67115Y3246D01*
X67207Y3350D01*
X67216Y3368D01*
X67229Y3383D01*
X67288Y3509D01*
X67351Y3634D01*
X67356Y3653D01*
X67364Y3671D01*
X67390Y3808D01*
X67421Y3944D01*
X67420Y3964D01*
X67424Y3983D01*
X67415Y4122D01*
X67411Y4262D01*
X67405Y4281D01*
X67404Y4301D01*
X67361Y4433D01*
X67322Y4567D01*
X67312Y4584D01*
X67306Y4603D01*
X67231Y4721D01*
X67161Y4841D01*
X67142Y4862D01*
X67136Y4872D01*
X67121Y4886D01*
X67116Y4892D01*
X65989Y6443D01*
X65136Y8117D01*
X64555Y9904D01*
X64515Y10161D01*
X74930Y10161D01*
X75048Y10176D01*
X75167Y10183D01*
X75205Y10196D01*
X75245Y10201D01*
X75356Y10244D01*
X75469Y10281D01*
X75503Y10303D01*
X75541Y10318D01*
X75637Y10388D01*
X75738Y10451D01*
X75766Y10481D01*
X75798Y10504D01*
X75874Y10596D01*
X75956Y10683D01*
X75975Y10718D01*
X76001Y10749D01*
X76052Y10857D01*
X76109Y10961D01*
X76120Y11001D01*
X76137Y11037D01*
X76159Y11154D01*
X76189Y11269D01*
X76193Y11330D01*
X76197Y11350D01*
X76195Y11370D01*
X76199Y11430D01*
X76199Y12701D01*
X77470Y12701D01*
X77588Y12716D01*
X77707Y12723D01*
X77745Y12736D01*
X77785Y12741D01*
X77896Y12785D01*
X78009Y12821D01*
X78044Y12843D01*
X78081Y12858D01*
X78177Y12928D01*
X78278Y12991D01*
X78306Y13021D01*
X78339Y13045D01*
X78414Y13136D01*
X78496Y13223D01*
X78516Y13258D01*
X78541Y13290D01*
X78592Y13397D01*
X78650Y13502D01*
X78660Y13541D01*
X78677Y13577D01*
X78699Y13694D01*
X78729Y13809D01*
X78733Y13870D01*
X78737Y13890D01*
X78735Y13910D01*
X78739Y13970D01*
X78739Y24385D01*
X78996Y24345D01*
X80783Y23764D01*
X82457Y22911D01*
X83978Y21806D01*
X85306Y20478D01*
X86411Y18957D01*
X87264Y17283D01*
X87845Y15496D01*
X87920Y15023D01*
X87955Y14900D01*
X87986Y14774D01*
X88000Y14747D01*
X88008Y14718D01*
X88074Y14607D01*
X88134Y14493D01*
X88155Y14470D01*
X88170Y14444D01*
X88262Y14353D01*
X88348Y14257D01*
X88374Y14241D01*
X88395Y14219D01*
X88506Y14153D01*
X88614Y14082D01*
X88643Y14073D01*
X88669Y14057D01*
X88793Y14021D01*
X88915Y13979D01*
X88945Y13977D01*
X88974Y13968D01*
X89103Y13964D01*
X89232Y13954D01*
X89262Y13959D01*
X89292Y13958D01*
X89418Y13986D01*
X89545Y14008D01*
X89573Y14021D01*
X89602Y14027D01*
X89717Y14086D01*
X89835Y14139D01*
X89859Y14158D01*
X89886Y14171D01*
X89982Y14257D01*
X90084Y14338D01*
X90102Y14362D01*
X90124Y14382D01*
X90197Y14488D01*
X90275Y14592D01*
X90294Y14630D01*
X90303Y14644D01*
X90311Y14665D01*
X90346Y14736D01*
X92125Y19031D01*
X95269Y22175D01*
X99377Y23877D01*
X100838Y23877D01*
X100956Y23892D01*
X101075Y23899D01*
X101113Y23912D01*
X101154Y23917D01*
X101264Y23960D01*
X101377Y23997D01*
X101412Y24019D01*
X101449Y24034D01*
X101545Y24103D01*
X101646Y24167D01*
X101674Y24197D01*
X101707Y24220D01*
X101783Y24312D01*
X101864Y24399D01*
X101884Y24434D01*
X101909Y24465D01*
X101960Y24573D01*
X102018Y24677D01*
X102028Y24717D01*
X102045Y24753D01*
X102067Y24870D01*
X102097Y24985D01*
X102101Y25045D01*
X102105Y25065D01*
X102103Y25086D01*
X102107Y25146D01*
X102107Y88700D01*
X109166Y95759D01*
X111118Y95759D01*
X111216Y95771D01*
X111315Y95774D01*
X111374Y95791D01*
X111434Y95799D01*
X111526Y95835D01*
X111621Y95863D01*
X111673Y95893D01*
X111729Y95916D01*
X111809Y95974D01*
X111895Y96024D01*
X111970Y96090D01*
X111987Y96102D01*
X111995Y96112D01*
X112016Y96130D01*
X112406Y96521D01*
X114228Y96521D01*
X114326Y96533D01*
X114425Y96536D01*
X114483Y96553D01*
X114543Y96561D01*
X114635Y96597D01*
X114731Y96625D01*
X114783Y96655D01*
X114839Y96678D01*
X114919Y96736D01*
X115004Y96786D01*
X115080Y96852D01*
X115096Y96864D01*
X115104Y96874D01*
X115125Y96892D01*
X115198Y96965D01*
X115258Y97043D01*
X115326Y97115D01*
X115355Y97168D01*
X115392Y97216D01*
X115432Y97307D01*
X115480Y97394D01*
X115495Y97452D01*
X115519Y97508D01*
X115534Y97606D01*
X115559Y97702D01*
X115565Y97802D01*
X115569Y97822D01*
X115567Y97834D01*
X115569Y97862D01*
X115569Y123480D01*
X115552Y123617D01*
X115539Y123756D01*
X115532Y123776D01*
X115529Y123796D01*
X115478Y123925D01*
X115431Y124056D01*
X115420Y124073D01*
X115412Y124091D01*
X115331Y124204D01*
X115253Y124319D01*
X115237Y124332D01*
X115226Y124349D01*
X115118Y124437D01*
X115014Y124529D01*
X114996Y124539D01*
X114981Y124551D01*
X114855Y124611D01*
X114731Y124674D01*
X114711Y124678D01*
X114693Y124687D01*
X114557Y124713D01*
X114421Y124744D01*
X114400Y124743D01*
X114381Y124747D01*
X114242Y124738D01*
X114103Y124734D01*
X114083Y124728D01*
X114063Y124727D01*
X113931Y124684D01*
X113797Y124646D01*
X113780Y124635D01*
X113761Y124629D01*
X113643Y124554D01*
X113523Y124484D01*
X113502Y124465D01*
X113492Y124459D01*
X113478Y124444D01*
X113403Y124378D01*
X111530Y122505D01*
X107742Y122505D01*
X105063Y125184D01*
X105063Y127172D01*
X105051Y127271D01*
X105048Y127370D01*
X105031Y127428D01*
X105023Y127488D01*
X104987Y127580D01*
X104959Y127675D01*
X104936Y127715D01*
X104934Y127721D01*
X104927Y127732D01*
X104906Y127784D01*
X104848Y127864D01*
X104798Y127949D01*
X104768Y127983D01*
X104764Y127989D01*
X104755Y127998D01*
X104731Y128024D01*
X104719Y128041D01*
X104710Y128049D01*
X104691Y128070D01*
X100084Y132677D01*
X99975Y132762D01*
X99868Y132851D01*
X99849Y132859D01*
X99833Y132872D01*
X99705Y132927D01*
X99580Y132986D01*
X99560Y132990D01*
X99541Y132998D01*
X99403Y133020D01*
X99267Y133046D01*
X99247Y133045D01*
X99227Y133048D01*
X99088Y133035D01*
X98950Y133026D01*
X98931Y133020D01*
X98911Y133018D01*
X98779Y132971D01*
X98648Y132928D01*
X98630Y132917D01*
X98611Y132911D01*
X98496Y132833D01*
X98379Y132758D01*
X98365Y132743D01*
X98348Y132732D01*
X98256Y132628D01*
X98161Y132527D01*
X98151Y132509D01*
X98138Y132494D01*
X98074Y132369D01*
X98007Y132248D01*
X98002Y132228D01*
X97993Y132210D01*
X97963Y132075D01*
X97928Y131940D01*
X97926Y131912D01*
X97923Y131900D01*
X97924Y131880D01*
X97918Y131779D01*
X97918Y129863D01*
X96424Y128369D01*
X96417Y128366D01*
X96321Y128297D01*
X96220Y128233D01*
X96192Y128203D01*
X96159Y128180D01*
X96083Y128088D01*
X96002Y128001D01*
X95982Y127966D01*
X95957Y127935D01*
X95906Y127827D01*
X95848Y127723D01*
X95838Y127683D01*
X95821Y127647D01*
X95799Y127530D01*
X95769Y127415D01*
X95765Y127355D01*
X95761Y127335D01*
X95763Y127314D01*
X95759Y127254D01*
X95759Y123698D01*
X95774Y123580D01*
X95781Y123461D01*
X95794Y123423D01*
X95799Y123382D01*
X95842Y123272D01*
X95879Y123159D01*
X95901Y123124D01*
X95916Y123087D01*
X95985Y122991D01*
X96049Y122890D01*
X96079Y122862D01*
X96102Y122829D01*
X96194Y122753D01*
X96281Y122672D01*
X96316Y122652D01*
X96347Y122627D01*
X96410Y122597D01*
X97918Y121089D01*
X97918Y107511D01*
X96424Y106017D01*
X96417Y106014D01*
X96321Y105945D01*
X96220Y105881D01*
X96192Y105851D01*
X96159Y105828D01*
X96083Y105736D01*
X96002Y105649D01*
X95982Y105614D01*
X95957Y105583D01*
X95906Y105475D01*
X95848Y105371D01*
X95838Y105331D01*
X95821Y105295D01*
X95799Y105178D01*
X95769Y105063D01*
X95765Y105003D01*
X95761Y104983D01*
X95763Y104962D01*
X95759Y104902D01*
X95759Y100838D01*
X95774Y100720D01*
X95781Y100601D01*
X95794Y100563D01*
X95799Y100522D01*
X95842Y100412D01*
X95879Y100299D01*
X95901Y100264D01*
X95916Y100227D01*
X95985Y100131D01*
X96049Y100030D01*
X96079Y100002D01*
X96102Y99969D01*
X96194Y99893D01*
X96281Y99812D01*
X96316Y99792D01*
X96347Y99767D01*
X96455Y99716D01*
X96559Y99658D01*
X96599Y99648D01*
X96635Y99631D01*
X96752Y99609D01*
X96867Y99579D01*
X96927Y99575D01*
X96947Y99571D01*
X96968Y99573D01*
X97028Y99569D01*
X97856Y99569D01*
X99188Y98237D01*
X99188Y84643D01*
X97856Y83311D01*
X90358Y83311D01*
X90336Y83333D01*
X90242Y83406D01*
X90153Y83485D01*
X90117Y83503D01*
X90085Y83528D01*
X89976Y83575D01*
X89870Y83630D01*
X89830Y83639D01*
X89793Y83655D01*
X89676Y83673D01*
X89560Y83699D01*
X89519Y83698D01*
X89479Y83704D01*
X89361Y83693D01*
X89242Y83690D01*
X89203Y83678D01*
X89163Y83675D01*
X89050Y83634D01*
X88936Y83601D01*
X88901Y83581D01*
X88863Y83567D01*
X88765Y83500D01*
X88662Y83440D01*
X88617Y83400D01*
X88600Y83388D01*
X88587Y83373D01*
X88541Y83333D01*
X88364Y83156D01*
X87672Y82756D01*
X86899Y82549D01*
X85343Y82549D01*
X85343Y90107D01*
X95885Y90107D01*
X95904Y90119D01*
X95926Y90123D01*
X95933Y90138D01*
X95942Y90144D01*
X95941Y90154D01*
X95948Y90170D01*
X95948Y92710D01*
X95936Y92729D01*
X95932Y92751D01*
X95917Y92758D01*
X95911Y92767D01*
X95901Y92766D01*
X95885Y92773D01*
X85343Y92773D01*
X85343Y100331D01*
X86899Y100331D01*
X87672Y100124D01*
X88265Y99781D01*
X88388Y99730D01*
X88507Y99673D01*
X88534Y99668D01*
X88559Y99658D01*
X88690Y99638D01*
X88820Y99614D01*
X88846Y99615D01*
X88873Y99611D01*
X89005Y99625D01*
X89137Y99633D01*
X89163Y99642D01*
X89189Y99644D01*
X89314Y99691D01*
X89439Y99731D01*
X89462Y99746D01*
X89488Y99755D01*
X89596Y99831D01*
X89708Y99901D01*
X89727Y99921D01*
X89749Y99937D01*
X89835Y100036D01*
X89926Y100133D01*
X89939Y100157D01*
X89957Y100177D01*
X90016Y100296D01*
X90080Y100412D01*
X90086Y100438D01*
X90098Y100462D01*
X90126Y100592D01*
X90159Y100720D01*
X90161Y100758D01*
X90165Y100773D01*
X90164Y100795D01*
X90169Y100880D01*
X90169Y104902D01*
X90154Y105020D01*
X90147Y105139D01*
X90134Y105177D01*
X90129Y105218D01*
X90086Y105328D01*
X90049Y105441D01*
X90027Y105476D01*
X90012Y105513D01*
X89943Y105609D01*
X89879Y105710D01*
X89849Y105738D01*
X89826Y105771D01*
X89734Y105847D01*
X89647Y105928D01*
X89612Y105948D01*
X89581Y105973D01*
X89473Y106024D01*
X89369Y106082D01*
X89329Y106092D01*
X89293Y106109D01*
X89176Y106131D01*
X89061Y106161D01*
X89001Y106165D01*
X88981Y106169D01*
X88960Y106167D01*
X88900Y106171D01*
X81222Y106171D01*
X79882Y107511D01*
X79882Y110236D01*
X79867Y110354D01*
X79860Y110473D01*
X79847Y110511D01*
X79842Y110552D01*
X79799Y110662D01*
X79762Y110775D01*
X79740Y110810D01*
X79725Y110847D01*
X79656Y110943D01*
X79592Y111044D01*
X79562Y111072D01*
X79539Y111105D01*
X79447Y111181D01*
X79360Y111262D01*
X79325Y111282D01*
X79294Y111307D01*
X79186Y111358D01*
X79082Y111416D01*
X79042Y111426D01*
X79006Y111443D01*
X78889Y111465D01*
X78774Y111495D01*
X78714Y111499D01*
X78694Y111503D01*
X78673Y111501D01*
X78613Y111505D01*
X78486Y111505D01*
X78368Y111490D01*
X78249Y111483D01*
X78211Y111470D01*
X78170Y111465D01*
X78060Y111422D01*
X77947Y111385D01*
X77912Y111363D01*
X77875Y111348D01*
X77779Y111279D01*
X77678Y111215D01*
X77650Y111185D01*
X77617Y111162D01*
X77541Y111070D01*
X77460Y110983D01*
X77440Y110948D01*
X77415Y110917D01*
X77364Y110809D01*
X77306Y110705D01*
X77296Y110665D01*
X77279Y110629D01*
X77257Y110512D01*
X77227Y110397D01*
X77223Y110337D01*
X77219Y110317D01*
X77221Y110296D01*
X77217Y110236D01*
X77217Y105798D01*
X77229Y105700D01*
X77232Y105601D01*
X77249Y105542D01*
X77257Y105482D01*
X77293Y105390D01*
X77321Y105295D01*
X77351Y105243D01*
X77374Y105187D01*
X77432Y105107D01*
X77482Y105021D01*
X77548Y104946D01*
X77560Y104929D01*
X77570Y104921D01*
X77588Y104900D01*
X78995Y103494D01*
X78995Y101585D01*
X79011Y101460D01*
X79020Y101335D01*
X79030Y101303D01*
X79035Y101270D01*
X79081Y101152D01*
X79121Y101033D01*
X79139Y101005D01*
X79152Y100974D01*
X79226Y100872D01*
X79294Y100766D01*
X79319Y100744D01*
X79338Y100717D01*
X79436Y100636D01*
X79528Y100551D01*
X79558Y100535D01*
X79583Y100514D01*
X79697Y100460D01*
X79808Y100400D01*
X79841Y100392D01*
X79871Y100378D01*
X79995Y100355D01*
X80117Y100324D01*
X80151Y100325D01*
X80183Y100318D01*
X80309Y100326D01*
X80435Y100327D01*
X80451Y100331D01*
X82043Y100331D01*
X82043Y93090D01*
X77850Y93090D01*
X77850Y95758D01*
X77835Y95876D01*
X77828Y95995D01*
X77815Y96033D01*
X77810Y96074D01*
X77767Y96184D01*
X77730Y96297D01*
X77708Y96332D01*
X77693Y96369D01*
X77623Y96465D01*
X77560Y96566D01*
X77530Y96594D01*
X77507Y96627D01*
X77415Y96703D01*
X77328Y96784D01*
X77293Y96804D01*
X77262Y96829D01*
X77154Y96880D01*
X77050Y96938D01*
X77010Y96948D01*
X76974Y96965D01*
X76857Y96987D01*
X76742Y97017D01*
X76681Y97021D01*
X76661Y97025D01*
X76641Y97023D01*
X76581Y97027D01*
X72528Y97027D01*
X69849Y99706D01*
X69849Y103494D01*
X71256Y104900D01*
X71316Y104979D01*
X71384Y105051D01*
X71413Y105104D01*
X71450Y105152D01*
X71490Y105243D01*
X71538Y105329D01*
X71553Y105388D01*
X71577Y105443D01*
X71592Y105541D01*
X71617Y105637D01*
X71623Y105737D01*
X71627Y105758D01*
X71625Y105770D01*
X71627Y105798D01*
X71627Y113621D01*
X73063Y115057D01*
X73123Y115135D01*
X73191Y115207D01*
X73220Y115260D01*
X73258Y115308D01*
X73259Y115311D01*
X75072Y117124D01*
X77708Y117124D01*
X77781Y117105D01*
X77881Y117099D01*
X77901Y117095D01*
X77914Y117097D01*
X77942Y117095D01*
X78613Y117095D01*
X78731Y117110D01*
X78850Y117117D01*
X78888Y117130D01*
X78929Y117135D01*
X79039Y117178D01*
X79152Y117215D01*
X79187Y117237D01*
X79224Y117252D01*
X79320Y117321D01*
X79421Y117385D01*
X79449Y117415D01*
X79482Y117438D01*
X79558Y117530D01*
X79639Y117617D01*
X79659Y117652D01*
X79684Y117683D01*
X79735Y117791D01*
X79793Y117895D01*
X79803Y117935D01*
X79820Y117971D01*
X79842Y118088D01*
X79872Y118203D01*
X79876Y118263D01*
X79880Y118283D01*
X79878Y118304D01*
X79882Y118364D01*
X79882Y121089D01*
X81222Y122429D01*
X88900Y122429D01*
X89018Y122444D01*
X89137Y122451D01*
X89175Y122464D01*
X89216Y122469D01*
X89326Y122512D01*
X89439Y122549D01*
X89474Y122571D01*
X89511Y122586D01*
X89607Y122655D01*
X89708Y122719D01*
X89736Y122749D01*
X89769Y122772D01*
X89845Y122864D01*
X89926Y122951D01*
X89946Y122986D01*
X89971Y123017D01*
X90022Y123125D01*
X90080Y123229D01*
X90090Y123269D01*
X90107Y123305D01*
X90129Y123422D01*
X90159Y123537D01*
X90163Y123597D01*
X90167Y123617D01*
X90165Y123638D01*
X90169Y123698D01*
X90169Y127254D01*
X90154Y127372D01*
X90147Y127491D01*
X90134Y127529D01*
X90129Y127570D01*
X90086Y127680D01*
X90049Y127793D01*
X90027Y127828D01*
X90012Y127865D01*
X89943Y127961D01*
X89879Y128062D01*
X89849Y128090D01*
X89826Y128123D01*
X89734Y128199D01*
X89647Y128280D01*
X89612Y128300D01*
X89581Y128325D01*
X89473Y128376D01*
X89369Y128434D01*
X89329Y128444D01*
X89293Y128461D01*
X89176Y128483D01*
X89061Y128513D01*
X89001Y128517D01*
X88981Y128521D01*
X88960Y128519D01*
X88900Y128523D01*
X81222Y128523D01*
X79882Y129863D01*
X79882Y141986D01*
X79867Y142104D01*
X79860Y142223D01*
X79847Y142261D01*
X79842Y142302D01*
X79799Y142412D01*
X79762Y142525D01*
X79740Y142560D01*
X79725Y142597D01*
X79656Y142693D01*
X79592Y142794D01*
X79562Y142822D01*
X79539Y142855D01*
X79504Y142883D01*
X79504Y142884D01*
X76453Y145934D01*
X76453Y149722D01*
X79132Y152401D01*
X82920Y152401D01*
X85599Y149722D01*
X85599Y147733D01*
X85611Y147635D01*
X85614Y147536D01*
X85631Y147478D01*
X85639Y147418D01*
X85675Y147326D01*
X85703Y147231D01*
X85733Y147178D01*
X85756Y147122D01*
X85814Y147042D01*
X85864Y146957D01*
X85930Y146881D01*
X85942Y146865D01*
X85952Y146857D01*
X85970Y146836D01*
X87654Y145152D01*
X87732Y145092D01*
X87804Y145024D01*
X87857Y144995D01*
X87905Y144958D01*
X87996Y144918D01*
X88083Y144870D01*
X88141Y144855D01*
X88197Y144831D01*
X88295Y144816D01*
X88391Y144791D01*
X88491Y144785D01*
X88511Y144781D01*
X88523Y144783D01*
X88551Y144781D01*
X95362Y144781D01*
X95481Y144796D01*
X95599Y144803D01*
X95638Y144816D01*
X95678Y144821D01*
X95789Y144864D01*
X95902Y144901D01*
X95936Y144923D01*
X95974Y144938D01*
X96070Y145007D01*
X96171Y145071D01*
X96198Y145101D01*
X96231Y145124D01*
X96307Y145216D01*
X96388Y145303D01*
X96408Y145338D01*
X96434Y145369D01*
X96484Y145477D01*
X96542Y145581D01*
X96552Y145621D01*
X96569Y145657D01*
X96592Y145774D01*
X96621Y145889D01*
X96625Y145949D01*
X96629Y145969D01*
X96628Y145990D01*
X96632Y146050D01*
X96632Y148818D01*
X97022Y149209D01*
X97083Y149287D01*
X97150Y149359D01*
X97180Y149412D01*
X97217Y149460D01*
X97256Y149551D01*
X97304Y149638D01*
X97319Y149696D01*
X97343Y149752D01*
X97359Y149850D01*
X97383Y149946D01*
X97390Y150046D01*
X97393Y150066D01*
X97392Y150078D01*
X97394Y150106D01*
X97394Y152440D01*
X97381Y152538D01*
X97378Y152637D01*
X97361Y152696D01*
X97354Y152756D01*
X97317Y152848D01*
X97290Y152943D01*
X97259Y152995D01*
X97237Y153051D01*
X97179Y153131D01*
X97128Y153217D01*
X97062Y153292D01*
X97050Y153309D01*
X97041Y153317D01*
X97022Y153338D01*
X92998Y157362D01*
X92920Y157422D01*
X92848Y157490D01*
X92795Y157519D01*
X92747Y157556D01*
X92656Y157596D01*
X92569Y157644D01*
X92511Y157659D01*
X92455Y157683D01*
X92357Y157698D01*
X92261Y157723D01*
X92161Y157729D01*
X92141Y157733D01*
X92129Y157731D01*
X92101Y157733D01*
X72462Y157733D01*
X72364Y157721D01*
X72265Y157718D01*
X72207Y157701D01*
X72147Y157693D01*
X72055Y157657D01*
X71959Y157629D01*
X71907Y157599D01*
X71851Y157576D01*
X71771Y157518D01*
X71686Y157468D01*
X71610Y157402D01*
X71594Y157390D01*
X71586Y157380D01*
X71565Y157362D01*
X67936Y153733D01*
X67876Y153655D01*
X67808Y153583D01*
X67779Y153530D01*
X67742Y153482D01*
X67702Y153391D01*
X67654Y153304D01*
X67639Y153246D01*
X67615Y153190D01*
X67600Y153092D01*
X67575Y152996D01*
X67569Y152896D01*
X67565Y152876D01*
X67567Y152864D01*
X67565Y152836D01*
X67565Y135262D01*
X67577Y135164D01*
X67580Y135065D01*
X67597Y135006D01*
X67605Y134946D01*
X67641Y134854D01*
X67669Y134759D01*
X67699Y134707D01*
X67722Y134651D01*
X67780Y134571D01*
X67830Y134485D01*
X67896Y134410D01*
X67908Y134393D01*
X67918Y134385D01*
X67936Y134364D01*
X68327Y133974D01*
X68327Y130186D01*
X65648Y127507D01*
X61860Y127507D01*
X59181Y130186D01*
X59181Y133974D01*
X59572Y134364D01*
X59632Y134443D01*
X59700Y134515D01*
X59729Y134568D01*
X59766Y134616D01*
X59806Y134707D01*
X59854Y134793D01*
X59869Y134852D01*
X59893Y134907D01*
X59908Y135005D01*
X59933Y135101D01*
X59939Y135201D01*
X59943Y135222D01*
X59941Y135234D01*
X59943Y135262D01*
X59943Y156518D01*
X68780Y165355D01*
X95783Y165355D01*
X105015Y156123D01*
X105015Y150106D01*
X105028Y150008D01*
X105031Y149909D01*
X105047Y149851D01*
X105055Y149791D01*
X105091Y149699D01*
X105119Y149603D01*
X105150Y149551D01*
X105172Y149495D01*
X105230Y149415D01*
X105280Y149330D01*
X105347Y149254D01*
X105359Y149238D01*
X105368Y149230D01*
X105387Y149209D01*
X105777Y148818D01*
X105777Y148267D01*
X105790Y148168D01*
X105793Y148069D01*
X105809Y148011D01*
X105817Y147951D01*
X105853Y147859D01*
X105881Y147764D01*
X105912Y147712D01*
X105934Y147655D01*
X105992Y147575D01*
X106042Y147490D01*
X106109Y147415D01*
X106121Y147398D01*
X106130Y147390D01*
X106149Y147369D01*
X120587Y132931D01*
X121612Y131906D01*
X121706Y131833D01*
X121795Y131754D01*
X121831Y131736D01*
X121863Y131711D01*
X121972Y131664D01*
X122079Y131610D01*
X122118Y131601D01*
X122155Y131585D01*
X122273Y131566D01*
X122389Y131540D01*
X122429Y131541D01*
X122469Y131535D01*
X122588Y131546D01*
X122707Y131550D01*
X122746Y131561D01*
X122786Y131565D01*
X122898Y131605D01*
X123012Y131638D01*
X123047Y131658D01*
X123085Y131672D01*
X123184Y131739D01*
X123286Y131799D01*
X123331Y131839D01*
X123348Y131851D01*
X123362Y131866D01*
X123407Y131906D01*
X125614Y134113D01*
X129402Y134113D01*
X132081Y131434D01*
X132081Y127646D01*
X130674Y126240D01*
X130614Y126161D01*
X130546Y126089D01*
X130517Y126036D01*
X130480Y125988D01*
X130440Y125897D01*
X130392Y125811D01*
X130377Y125752D01*
X130353Y125697D01*
X130338Y125599D01*
X130313Y125503D01*
X130307Y125403D01*
X130303Y125382D01*
X130305Y125370D01*
X130303Y125342D01*
X130303Y107068D01*
X130315Y106970D01*
X130318Y106871D01*
X130335Y106812D01*
X130343Y106752D01*
X130379Y106660D01*
X130407Y106565D01*
X130437Y106513D01*
X130460Y106457D01*
X130518Y106377D01*
X130568Y106291D01*
X130634Y106216D01*
X130646Y106199D01*
X130656Y106191D01*
X130674Y106170D01*
X132081Y104764D01*
X132081Y100976D01*
X129402Y98297D01*
X126056Y98297D01*
X126032Y98294D01*
X126007Y98296D01*
X125874Y98274D01*
X125741Y98257D01*
X125718Y98248D01*
X125693Y98244D01*
X125570Y98190D01*
X125445Y98140D01*
X125425Y98126D01*
X125402Y98116D01*
X125297Y98033D01*
X125188Y97954D01*
X125172Y97934D01*
X125152Y97919D01*
X125071Y97812D01*
X124985Y97709D01*
X124974Y97686D01*
X124959Y97667D01*
X124906Y97542D01*
X124849Y97421D01*
X124845Y97397D01*
X124835Y97374D01*
X124815Y97240D01*
X124789Y97109D01*
X124791Y97084D01*
X124787Y97059D01*
X124801Y96925D01*
X124809Y96791D01*
X124817Y96768D01*
X124819Y96743D01*
X124866Y96617D01*
X124907Y96489D01*
X124920Y96468D01*
X124929Y96444D01*
X125005Y96334D01*
X125077Y96220D01*
X125095Y96203D01*
X125109Y96183D01*
X125211Y96094D01*
X125309Y96002D01*
X125331Y95990D01*
X125349Y95974D01*
X125489Y95893D01*
X125540Y95875D01*
X125588Y95848D01*
X125689Y95822D01*
X125789Y95787D01*
X125843Y95783D01*
X125896Y95769D01*
X126056Y95759D01*
X156646Y95759D01*
X156744Y95771D01*
X156843Y95774D01*
X156901Y95791D01*
X156961Y95799D01*
X157053Y95835D01*
X157149Y95863D01*
X157201Y95893D01*
X157257Y95916D01*
X157337Y95974D01*
X157422Y96024D01*
X157498Y96090D01*
X157514Y96102D01*
X157522Y96112D01*
X157543Y96130D01*
X160918Y99505D01*
X160978Y99583D01*
X161046Y99655D01*
X161075Y99708D01*
X161112Y99756D01*
X161152Y99847D01*
X161200Y99934D01*
X161215Y99992D01*
X161239Y100048D01*
X161254Y100146D01*
X161279Y100242D01*
X161285Y100342D01*
X161289Y100362D01*
X161287Y100374D01*
X161289Y100402D01*
X161289Y105708D01*
X161277Y105806D01*
X161274Y105905D01*
X161257Y105963D01*
X161249Y106023D01*
X161213Y106115D01*
X161186Y106210D01*
X161155Y106262D01*
X161132Y106319D01*
X161074Y106399D01*
X161024Y106484D01*
X160958Y106560D01*
X160946Y106576D01*
X160936Y106584D01*
X160918Y106605D01*
X160791Y106732D01*
X160697Y106805D01*
X160607Y106884D01*
X160571Y106902D01*
X160539Y106927D01*
X160430Y106974D01*
X160324Y107028D01*
X160285Y107037D01*
X160248Y107053D01*
X160130Y107072D01*
X160014Y107098D01*
X159973Y107097D01*
X159933Y107103D01*
X159815Y107092D01*
X159696Y107088D01*
X159657Y107077D01*
X159617Y107073D01*
X159505Y107033D01*
X159390Y107000D01*
X159356Y106980D01*
X159318Y106966D01*
X159219Y106899D01*
X159116Y106839D01*
X159071Y106799D01*
X159054Y106787D01*
X159041Y106772D01*
X158996Y106732D01*
X158435Y106171D01*
X150937Y106171D01*
X149605Y107503D01*
X149605Y110236D01*
X149590Y110354D01*
X149583Y110473D01*
X149570Y110511D01*
X149565Y110552D01*
X149522Y110662D01*
X149485Y110775D01*
X149463Y110810D01*
X149448Y110847D01*
X149379Y110943D01*
X149315Y111044D01*
X149285Y111072D01*
X149262Y111105D01*
X149170Y111181D01*
X149083Y111262D01*
X149048Y111282D01*
X149017Y111307D01*
X148909Y111358D01*
X148805Y111416D01*
X148765Y111426D01*
X148729Y111443D01*
X148612Y111465D01*
X148497Y111495D01*
X148437Y111499D01*
X148417Y111503D01*
X148416Y111503D01*
X148396Y111501D01*
X148336Y111505D01*
X148218Y111490D01*
X148099Y111483D01*
X148061Y111470D01*
X148020Y111465D01*
X147910Y111422D01*
X147797Y111385D01*
X147762Y111363D01*
X147725Y111348D01*
X147629Y111279D01*
X147528Y111215D01*
X147500Y111185D01*
X147467Y111162D01*
X147391Y111070D01*
X147310Y110983D01*
X147290Y110948D01*
X147265Y110917D01*
X147214Y110809D01*
X147156Y110705D01*
X147146Y110665D01*
X147129Y110629D01*
X147107Y110512D01*
X147077Y110397D01*
X147073Y110337D01*
X147069Y110317D01*
X147071Y110296D01*
X147067Y110236D01*
X147067Y108850D01*
X144388Y106171D01*
X140600Y106171D01*
X137921Y108850D01*
X137921Y112638D01*
X140600Y115317D01*
X142589Y115317D01*
X142687Y115329D01*
X142786Y115332D01*
X142844Y115349D01*
X142904Y115357D01*
X142996Y115393D01*
X143091Y115421D01*
X143144Y115451D01*
X143200Y115474D01*
X143280Y115532D01*
X143365Y115582D01*
X143441Y115648D01*
X143457Y115660D01*
X143465Y115670D01*
X143486Y115688D01*
X144892Y117095D01*
X148336Y117095D01*
X148454Y117110D01*
X148573Y117117D01*
X148611Y117130D01*
X148652Y117135D01*
X148762Y117178D01*
X148875Y117215D01*
X148910Y117237D01*
X148947Y117252D01*
X149043Y117321D01*
X149144Y117385D01*
X149172Y117415D01*
X149205Y117438D01*
X149281Y117530D01*
X149362Y117617D01*
X149382Y117652D01*
X149407Y117683D01*
X149458Y117791D01*
X149516Y117895D01*
X149526Y117935D01*
X149543Y117971D01*
X149565Y118088D01*
X149595Y118203D01*
X149599Y118263D01*
X149603Y118283D01*
X149601Y118304D01*
X149605Y118364D01*
X149605Y121097D01*
X150937Y122429D01*
X158435Y122429D01*
X158996Y121868D01*
X159090Y121795D01*
X159179Y121716D01*
X159215Y121698D01*
X159247Y121673D01*
X159356Y121626D01*
X159462Y121571D01*
X159502Y121563D01*
X159539Y121547D01*
X159656Y121528D01*
X159773Y121502D01*
X159813Y121503D01*
X159853Y121497D01*
X159971Y121508D01*
X160090Y121512D01*
X160129Y121523D01*
X160169Y121527D01*
X160282Y121567D01*
X160396Y121600D01*
X160431Y121620D01*
X160469Y121634D01*
X160567Y121701D01*
X160670Y121762D01*
X160715Y121801D01*
X160732Y121813D01*
X160745Y121828D01*
X160791Y121868D01*
X160918Y121995D01*
X160978Y122073D01*
X161046Y122145D01*
X161075Y122198D01*
X161113Y122246D01*
X161152Y122337D01*
X161200Y122424D01*
X161215Y122483D01*
X161239Y122538D01*
X161254Y122636D01*
X161279Y122732D01*
X161285Y122832D01*
X161289Y122852D01*
X161287Y122864D01*
X161289Y122892D01*
X161289Y125276D01*
X167332Y131319D01*
X186236Y131319D01*
X190691Y126864D01*
X190769Y126804D01*
X190841Y126736D01*
X190894Y126707D01*
X190942Y126670D01*
X191033Y126630D01*
X191120Y126582D01*
X191178Y126567D01*
X191234Y126543D01*
X191332Y126528D01*
X191428Y126503D01*
X191528Y126497D01*
X191548Y126493D01*
X191560Y126495D01*
X191588Y126493D01*
X192394Y126493D01*
X195073Y123814D01*
X195073Y120026D01*
X192394Y117347D01*
X188606Y117347D01*
X185927Y120026D01*
X185927Y120324D01*
X185915Y120422D01*
X185912Y120521D01*
X185895Y120579D01*
X185887Y120639D01*
X185851Y120731D01*
X185823Y120827D01*
X185793Y120879D01*
X185770Y120935D01*
X185712Y121015D01*
X185662Y121100D01*
X185596Y121176D01*
X185584Y121192D01*
X185574Y121200D01*
X185556Y121221D01*
X183451Y123326D01*
X183373Y123386D01*
X183301Y123454D01*
X183248Y123483D01*
X183200Y123520D01*
X183109Y123560D01*
X183022Y123608D01*
X182964Y123623D01*
X182908Y123647D01*
X182810Y123662D01*
X182714Y123687D01*
X182614Y123693D01*
X182594Y123697D01*
X182582Y123695D01*
X182554Y123697D01*
X181058Y123697D01*
X180920Y123680D01*
X180782Y123667D01*
X180763Y123660D01*
X180743Y123657D01*
X180614Y123606D01*
X180483Y123559D01*
X180466Y123548D01*
X180447Y123540D01*
X180335Y123459D01*
X180220Y123381D01*
X180206Y123365D01*
X180190Y123354D01*
X180101Y123246D01*
X180009Y123142D01*
X180000Y123124D01*
X179987Y123109D01*
X179928Y122983D01*
X179864Y122859D01*
X179860Y122839D01*
X179851Y122821D01*
X179825Y122684D01*
X179795Y122549D01*
X179795Y122528D01*
X179792Y122509D01*
X179800Y122370D01*
X179804Y122231D01*
X179810Y122211D01*
X179811Y122191D01*
X179854Y122059D01*
X179893Y121925D01*
X179903Y121908D01*
X179909Y121889D01*
X179984Y121771D01*
X180054Y121651D01*
X180073Y121630D01*
X180080Y121620D01*
X180095Y121606D01*
X180161Y121531D01*
X180595Y121097D01*
X180595Y110744D01*
X180610Y110626D01*
X180617Y110507D01*
X180630Y110469D01*
X180635Y110428D01*
X180678Y110318D01*
X180715Y110205D01*
X180737Y110170D01*
X180752Y110133D01*
X180821Y110037D01*
X180885Y109936D01*
X180915Y109908D01*
X180938Y109875D01*
X181030Y109799D01*
X181117Y109718D01*
X181152Y109698D01*
X181183Y109673D01*
X181291Y109622D01*
X181395Y109564D01*
X181435Y109554D01*
X181471Y109537D01*
X181588Y109515D01*
X181703Y109485D01*
X181763Y109481D01*
X181783Y109477D01*
X181804Y109479D01*
X181864Y109475D01*
X183758Y109475D01*
X186437Y106796D01*
X186437Y103008D01*
X183758Y100329D01*
X179970Y100329D01*
X177291Y103008D01*
X177291Y104235D01*
X177279Y104333D01*
X177276Y104432D01*
X177259Y104490D01*
X177251Y104550D01*
X177215Y104642D01*
X177187Y104737D01*
X177157Y104790D01*
X177134Y104846D01*
X177076Y104926D01*
X177026Y105011D01*
X176960Y105087D01*
X176948Y105103D01*
X176938Y105111D01*
X176920Y105132D01*
X176252Y105800D01*
X176174Y105860D01*
X176102Y105928D01*
X176049Y105957D01*
X176001Y105994D01*
X175910Y106034D01*
X175823Y106082D01*
X175765Y106097D01*
X175709Y106121D01*
X175611Y106136D01*
X175515Y106161D01*
X175415Y106167D01*
X175395Y106171D01*
X175383Y106169D01*
X175355Y106171D01*
X171765Y106171D01*
X171205Y106732D01*
X171111Y106805D01*
X171021Y106884D01*
X170985Y106902D01*
X170953Y106927D01*
X170844Y106974D01*
X170738Y107028D01*
X170699Y107037D01*
X170661Y107053D01*
X170544Y107072D01*
X170428Y107098D01*
X170387Y107097D01*
X170347Y107103D01*
X170229Y107092D01*
X170110Y107088D01*
X170071Y107077D01*
X170031Y107073D01*
X169918Y107033D01*
X169804Y107000D01*
X169770Y106980D01*
X169731Y106966D01*
X169633Y106899D01*
X169530Y106839D01*
X169485Y106799D01*
X169468Y106787D01*
X169455Y106772D01*
X169410Y106732D01*
X169282Y106605D01*
X169222Y106527D01*
X169154Y106455D01*
X169125Y106402D01*
X169088Y106354D01*
X169048Y106263D01*
X169000Y106176D01*
X168985Y106118D01*
X168961Y106062D01*
X168946Y105964D01*
X168921Y105868D01*
X168915Y105768D01*
X168911Y105748D01*
X168913Y105736D01*
X168911Y105708D01*
X168911Y96720D01*
X162932Y90741D01*
X160328Y88137D01*
X117482Y88137D01*
X117384Y88125D01*
X117285Y88122D01*
X117226Y88105D01*
X117166Y88097D01*
X117074Y88061D01*
X116979Y88033D01*
X116927Y88003D01*
X116871Y87980D01*
X116791Y87922D01*
X116705Y87872D01*
X116630Y87806D01*
X116613Y87794D01*
X116605Y87784D01*
X116584Y87765D01*
X116194Y87375D01*
X112086Y87375D01*
X111988Y87363D01*
X111889Y87360D01*
X111831Y87343D01*
X111771Y87335D01*
X111679Y87299D01*
X111583Y87271D01*
X111531Y87241D01*
X111475Y87218D01*
X111395Y87160D01*
X111310Y87110D01*
X111234Y87044D01*
X111218Y87032D01*
X111210Y87022D01*
X111189Y87004D01*
X110100Y85915D01*
X110040Y85837D01*
X109972Y85765D01*
X109943Y85712D01*
X109906Y85664D01*
X109866Y85573D01*
X109818Y85486D01*
X109803Y85428D01*
X109779Y85372D01*
X109764Y85274D01*
X109739Y85178D01*
X109733Y85078D01*
X109729Y85058D01*
X109731Y85046D01*
X109729Y85018D01*
X109729Y20903D01*
X109741Y20805D01*
X109744Y20706D01*
X109761Y20648D01*
X109769Y20588D01*
X109805Y20496D01*
X109833Y20401D01*
X109863Y20348D01*
X109886Y20292D01*
X109944Y20212D01*
X109994Y20127D01*
X110060Y20051D01*
X110072Y20035D01*
X110082Y20027D01*
X110101Y20006D01*
X111075Y19031D01*
X112777Y14923D01*
X112777Y10477D01*
X111075Y6369D01*
X109668Y4961D01*
X109582Y4852D01*
X109494Y4745D01*
X109485Y4726D01*
X109473Y4710D01*
X109417Y4582D01*
X109358Y4457D01*
X109355Y4437D01*
X109346Y4418D01*
X109325Y4280D01*
X109299Y4144D01*
X109300Y4124D01*
X109297Y4104D01*
X109310Y3965D01*
X109318Y3827D01*
X109325Y3808D01*
X109326Y3788D01*
X109374Y3656D01*
X109416Y3525D01*
X109427Y3507D01*
X109434Y3488D01*
X109512Y3373D01*
X109586Y3256D01*
X109601Y3242D01*
X109613Y3225D01*
X109717Y3133D01*
X109818Y3038D01*
X109836Y3028D01*
X109851Y3015D01*
X109975Y2951D01*
X110097Y2884D01*
X110116Y2879D01*
X110134Y2870D01*
X110270Y2840D01*
X110405Y2805D01*
X110433Y2803D01*
X110445Y2800D01*
X110465Y2801D01*
X110565Y2795D01*
X118035Y2795D01*
X118173Y2812D01*
X118311Y2825D01*
X118330Y2832D01*
X118350Y2835D01*
X118480Y2886D01*
X118610Y2933D01*
X118627Y2944D01*
X118646Y2952D01*
X118758Y3033D01*
X118874Y3111D01*
X118887Y3127D01*
X118903Y3138D01*
X118992Y3246D01*
X119084Y3350D01*
X119093Y3368D01*
X119106Y3383D01*
X119165Y3509D01*
X119229Y3633D01*
X119233Y3653D01*
X119242Y3671D01*
X119268Y3808D01*
X119298Y3943D01*
X119298Y3964D01*
X119301Y3983D01*
X119293Y4122D01*
X119289Y4261D01*
X119283Y4281D01*
X119282Y4301D01*
X119239Y4433D01*
X119200Y4567D01*
X119190Y4584D01*
X119184Y4603D01*
X119109Y4721D01*
X119039Y4841D01*
X119020Y4862D01*
X119014Y4872D01*
X118999Y4886D01*
X118932Y4961D01*
X117525Y6369D01*
X115823Y10477D01*
X115823Y14923D01*
X117525Y19031D01*
X120669Y22175D01*
X124777Y23877D01*
X129223Y23877D01*
X133331Y22175D01*
X136475Y19031D01*
X138177Y14923D01*
X138177Y10477D01*
X136475Y6369D01*
X135068Y4961D01*
X134982Y4852D01*
X134894Y4745D01*
X134885Y4726D01*
X134873Y4710D01*
X134817Y4582D01*
X134758Y4457D01*
X134755Y4437D01*
X134746Y4418D01*
X134725Y4280D01*
X134699Y4144D01*
X134700Y4124D01*
X134697Y4104D01*
X134710Y3965D01*
X134718Y3827D01*
X134725Y3808D01*
X134726Y3788D01*
X134774Y3656D01*
X134816Y3525D01*
X134827Y3507D01*
X134834Y3488D01*
X134912Y3373D01*
X134986Y3256D01*
X135001Y3242D01*
X135013Y3225D01*
X135117Y3133D01*
X135218Y3038D01*
X135236Y3028D01*
X135251Y3015D01*
X135375Y2951D01*
X135497Y2884D01*
X135516Y2879D01*
X135534Y2870D01*
X135670Y2840D01*
X135805Y2805D01*
X135833Y2803D01*
X135845Y2800D01*
X135865Y2801D01*
X135965Y2795D01*
X143435Y2795D01*
X143573Y2812D01*
X143711Y2825D01*
X143730Y2832D01*
X143750Y2835D01*
X143880Y2886D01*
X144010Y2933D01*
X144027Y2944D01*
X144046Y2952D01*
X144158Y3033D01*
X144274Y3111D01*
X144287Y3127D01*
X144303Y3138D01*
X144392Y3246D01*
X144484Y3350D01*
X144493Y3368D01*
X144506Y3383D01*
X144565Y3509D01*
X144629Y3633D01*
X144633Y3653D01*
X144642Y3671D01*
X144668Y3808D01*
X144698Y3943D01*
X144698Y3964D01*
X144701Y3983D01*
X144693Y4122D01*
X144689Y4261D01*
X144683Y4281D01*
X144682Y4301D01*
X144639Y4433D01*
X144600Y4567D01*
X144590Y4584D01*
X144584Y4603D01*
X144509Y4721D01*
X144439Y4841D01*
X144420Y4862D01*
X144414Y4872D01*
X144399Y4886D01*
X144332Y4961D01*
X142925Y6369D01*
X141223Y10477D01*
X141223Y14923D01*
X142925Y19031D01*
X146069Y22175D01*
X150177Y23877D01*
X154623Y23877D01*
X158731Y22175D01*
X161875Y19031D01*
X163577Y14923D01*
X163577Y10477D01*
X161875Y6369D01*
X160468Y4961D01*
X160382Y4852D01*
X160294Y4745D01*
X160285Y4726D01*
X160273Y4710D01*
X160217Y4582D01*
X160158Y4457D01*
X160155Y4437D01*
X160146Y4418D01*
X160125Y4280D01*
X160099Y4144D01*
X160100Y4124D01*
X160097Y4104D01*
X160110Y3965D01*
X160118Y3827D01*
X160125Y3808D01*
X160126Y3788D01*
X160174Y3656D01*
X160216Y3525D01*
X160227Y3507D01*
X160234Y3488D01*
X160312Y3373D01*
X160386Y3256D01*
X160401Y3242D01*
X160413Y3225D01*
X160517Y3133D01*
X160618Y3038D01*
X160636Y3028D01*
X160651Y3015D01*
X160775Y2951D01*
X160897Y2884D01*
X160916Y2879D01*
X160934Y2870D01*
X161070Y2840D01*
X161205Y2805D01*
X161233Y2803D01*
X161245Y2800D01*
X161265Y2801D01*
X161365Y2795D01*
X168835Y2795D01*
X168973Y2812D01*
X169111Y2825D01*
X169130Y2832D01*
X169150Y2835D01*
X169280Y2886D01*
X169410Y2933D01*
X169427Y2944D01*
X169446Y2952D01*
X169558Y3033D01*
X169674Y3111D01*
X169687Y3127D01*
X169703Y3138D01*
X169792Y3246D01*
X169884Y3350D01*
X169893Y3368D01*
X169906Y3383D01*
X169965Y3509D01*
X170029Y3633D01*
X170033Y3653D01*
X170042Y3671D01*
X170068Y3808D01*
X170098Y3943D01*
X170098Y3964D01*
X170101Y3983D01*
X170093Y4122D01*
X170089Y4261D01*
X170083Y4281D01*
X170082Y4301D01*
X170039Y4433D01*
X170000Y4567D01*
X169990Y4584D01*
X169984Y4603D01*
X169909Y4721D01*
X169839Y4841D01*
X169820Y4862D01*
X169814Y4872D01*
X169799Y4886D01*
X169732Y4961D01*
X168325Y6369D01*
X166623Y10477D01*
X166623Y14923D01*
X168325Y19031D01*
X171469Y22175D01*
X175577Y23877D01*
X180023Y23877D01*
X184131Y22175D01*
X187275Y19031D01*
X188977Y14923D01*
X188977Y10477D01*
X187275Y6369D01*
X185868Y4961D01*
X185782Y4852D01*
X185694Y4745D01*
X185685Y4726D01*
X185673Y4710D01*
X185617Y4582D01*
X185558Y4457D01*
X185555Y4437D01*
X185546Y4418D01*
X185525Y4280D01*
X185499Y4144D01*
X185500Y4124D01*
X185497Y4104D01*
X185510Y3965D01*
X185518Y3827D01*
X185525Y3808D01*
X185526Y3788D01*
X185574Y3656D01*
X185616Y3525D01*
X185627Y3507D01*
X185634Y3488D01*
X185712Y3373D01*
X185786Y3256D01*
X185801Y3242D01*
X185813Y3225D01*
X185917Y3133D01*
X186018Y3038D01*
X186036Y3028D01*
X186051Y3015D01*
X186175Y2951D01*
X186297Y2884D01*
X186316Y2879D01*
X186334Y2870D01*
X186470Y2840D01*
X186605Y2805D01*
X186633Y2803D01*
X186645Y2800D01*
X186665Y2801D01*
X186765Y2795D01*
X221125Y2795D01*
X221221Y2807D01*
X221319Y2810D01*
X221379Y2827D01*
X221440Y2835D01*
X221531Y2870D01*
X221625Y2897D01*
X221678Y2929D01*
X221736Y2952D01*
X221815Y3009D01*
X221899Y3058D01*
X221943Y3102D01*
X221993Y3138D01*
X222056Y3214D01*
X222125Y3282D01*
X222157Y3335D01*
X222196Y3383D01*
X222238Y3471D01*
X222288Y3555D01*
X222305Y3615D01*
X222332Y3671D01*
X222350Y3767D01*
X222378Y3860D01*
X222380Y3922D01*
X222392Y3983D01*
X222386Y4081D01*
X222389Y4178D01*
X222376Y4239D01*
X222372Y4301D01*
X222342Y4393D01*
X222321Y4489D01*
X222293Y4544D01*
X222274Y4603D01*
X222222Y4686D01*
X222178Y4773D01*
X222137Y4819D01*
X222104Y4872D01*
X222033Y4939D01*
X221969Y5012D01*
X221917Y5047D01*
X221872Y5090D01*
X221787Y5137D01*
X221706Y5192D01*
X221611Y5234D01*
X221593Y5244D01*
X221583Y5246D01*
X221559Y5257D01*
X217767Y6637D01*
X212003Y11473D01*
X208241Y17990D01*
X206934Y25400D01*
X208241Y32810D01*
X212003Y39326D01*
X217767Y44163D01*
X224838Y46737D01*
X232362Y46737D01*
X239433Y44163D01*
X245197Y39327D01*
X248837Y33022D01*
X248925Y32906D01*
X249010Y32788D01*
X249021Y32780D01*
X249029Y32769D01*
X249143Y32679D01*
X249255Y32585D01*
X249268Y32580D01*
X249278Y32571D01*
X249412Y32512D01*
X249543Y32450D01*
X249556Y32447D01*
X249569Y32442D01*
X249713Y32417D01*
X249856Y32390D01*
X249869Y32391D01*
X249882Y32389D01*
X250028Y32401D01*
X250173Y32410D01*
X250186Y32414D01*
X250199Y32415D01*
X250337Y32463D01*
X250475Y32508D01*
X250487Y32515D01*
X250500Y32520D01*
X250621Y32600D01*
X250744Y32678D01*
X250753Y32688D01*
X250765Y32695D01*
X250862Y32804D01*
X250962Y32910D01*
X250969Y32922D01*
X250978Y32932D01*
X251045Y33060D01*
X251116Y33188D01*
X251119Y33201D01*
X251125Y33213D01*
X251159Y33355D01*
X251195Y33496D01*
X251196Y33515D01*
X251198Y33523D01*
X251198Y33540D01*
X251205Y33657D01*
X251205Y113120D01*
X251202Y113145D01*
X251204Y113169D01*
X251182Y113302D01*
X251165Y113436D01*
X251156Y113459D01*
X251152Y113483D01*
X251098Y113606D01*
X251048Y113731D01*
X251034Y113751D01*
X251024Y113774D01*
X250941Y113880D01*
X250862Y113989D01*
X250842Y114004D01*
X250827Y114024D01*
X250720Y114106D01*
X250617Y114191D01*
X250594Y114202D01*
X250574Y114217D01*
X250451Y114270D01*
X250329Y114327D01*
X250305Y114332D01*
X250282Y114341D01*
X250148Y114362D01*
X250017Y114387D01*
X249992Y114385D01*
X249967Y114389D01*
X249833Y114375D01*
X249699Y114367D01*
X249676Y114359D01*
X249651Y114357D01*
X249524Y114310D01*
X249397Y114269D01*
X249376Y114256D01*
X249352Y114247D01*
X249241Y114171D01*
X249128Y114099D01*
X249111Y114081D01*
X249091Y114067D01*
X249002Y113965D01*
X248910Y113867D01*
X248898Y113846D01*
X248882Y113827D01*
X248801Y113688D01*
X248413Y112912D01*
X246316Y112213D01*
X241341Y114701D01*
X241332Y114704D01*
X241324Y114709D01*
X241175Y114770D01*
X240352Y115044D01*
X240308Y115110D01*
X240302Y115116D01*
X240296Y115123D01*
X240184Y115221D01*
X240115Y115282D01*
X239842Y116103D01*
X239838Y116112D01*
X239836Y116121D01*
X239773Y116269D01*
X239385Y117045D01*
X239400Y117123D01*
X239400Y117132D01*
X239402Y117141D01*
X239391Y117291D01*
X239386Y117381D01*
X239773Y118155D01*
X239776Y118164D01*
X239781Y118172D01*
X239842Y118321D01*
X240116Y119144D01*
X240182Y119188D01*
X240188Y119195D01*
X240195Y119200D01*
X240293Y119313D01*
X240373Y119401D01*
X240390Y119408D01*
X240444Y119444D01*
X240503Y119472D01*
X240575Y119533D01*
X240653Y119586D01*
X240696Y119635D01*
X240746Y119677D01*
X240801Y119754D01*
X240864Y119825D01*
X240893Y119883D01*
X240931Y119935D01*
X240966Y120024D01*
X241009Y120108D01*
X241023Y120171D01*
X241046Y120232D01*
X241058Y120326D01*
X241078Y120418D01*
X241076Y120483D01*
X241084Y120548D01*
X241071Y120642D01*
X241069Y120736D01*
X241050Y120799D01*
X241042Y120863D01*
X241006Y120951D01*
X240980Y121042D01*
X240947Y121098D01*
X240923Y121158D01*
X240867Y121234D01*
X240819Y121316D01*
X240745Y121399D01*
X240734Y121414D01*
X240727Y121420D01*
X240712Y121436D01*
X239617Y122532D01*
X239617Y125772D01*
X239616Y126861D01*
X239767Y127011D01*
X239840Y127106D01*
X239919Y127195D01*
X239937Y127231D01*
X239962Y127263D01*
X240010Y127372D01*
X240064Y127478D01*
X240072Y127517D01*
X240089Y127554D01*
X240107Y127672D01*
X240133Y127788D01*
X240132Y127828D01*
X240138Y127869D01*
X240127Y127987D01*
X240124Y128106D01*
X240112Y128145D01*
X240109Y128185D01*
X240068Y128297D01*
X240035Y128412D01*
X240015Y128446D01*
X240001Y128484D01*
X239934Y128583D01*
X239874Y128686D01*
X239834Y128731D01*
X239822Y128748D01*
X239807Y128761D01*
X239767Y128806D01*
X239617Y128957D01*
X239617Y135404D01*
X241179Y136967D01*
X243389Y136967D01*
X245136Y135220D01*
X245214Y135159D01*
X245286Y135091D01*
X245339Y135062D01*
X245387Y135025D01*
X245478Y134986D01*
X245565Y134938D01*
X245623Y134923D01*
X245679Y134899D01*
X245777Y134883D01*
X245873Y134858D01*
X245973Y134852D01*
X245993Y134849D01*
X246005Y134850D01*
X246033Y134848D01*
X249936Y134848D01*
X250054Y134863D01*
X250173Y134871D01*
X250211Y134883D01*
X250252Y134888D01*
X250362Y134932D01*
X250475Y134969D01*
X250510Y134990D01*
X250547Y135005D01*
X250643Y135075D01*
X250744Y135139D01*
X250772Y135168D01*
X250805Y135192D01*
X250881Y135284D01*
X250962Y135370D01*
X250982Y135406D01*
X251007Y135437D01*
X251058Y135545D01*
X251116Y135649D01*
X251126Y135688D01*
X251143Y135725D01*
X251165Y135841D01*
X251195Y135957D01*
X251199Y136017D01*
X251203Y136037D01*
X251201Y136057D01*
X251205Y136118D01*
X251205Y193876D01*
X251188Y194014D01*
X251175Y194152D01*
X251168Y194171D01*
X251165Y194191D01*
X251114Y194320D01*
X251067Y194451D01*
X251056Y194468D01*
X251048Y194487D01*
X250967Y194599D01*
X250888Y194714D01*
X250873Y194728D01*
X250862Y194744D01*
X250754Y194833D01*
X250650Y194925D01*
X250632Y194934D01*
X250617Y194947D01*
X250490Y195006D01*
X250367Y195069D01*
X250347Y195074D01*
X250329Y195082D01*
X250193Y195109D01*
X250056Y195139D01*
X250036Y195138D01*
X250017Y195142D01*
X249878Y195134D01*
X249739Y195129D01*
X249719Y195124D01*
X249699Y195122D01*
X249567Y195080D01*
X249457Y195048D01*
X247503Y195048D01*
X247365Y195030D01*
X247226Y195017D01*
X247207Y195011D01*
X247187Y195008D01*
X247058Y194957D01*
X246927Y194910D01*
X246910Y194898D01*
X246891Y194891D01*
X246779Y194810D01*
X246664Y194731D01*
X246651Y194716D01*
X246634Y194704D01*
X246545Y194597D01*
X246453Y194493D01*
X246444Y194475D01*
X246431Y194459D01*
X246372Y194333D01*
X246309Y194210D01*
X246304Y194190D01*
X246296Y194172D01*
X246270Y194035D01*
X246239Y193899D01*
X246240Y193879D01*
X246236Y193859D01*
X246245Y193721D01*
X246249Y193581D01*
X246254Y193562D01*
X246256Y193542D01*
X246298Y193410D01*
X246337Y193276D01*
X246348Y193258D01*
X246354Y193239D01*
X246428Y193122D01*
X246499Y193002D01*
X246517Y192981D01*
X246524Y192971D01*
X246539Y192956D01*
X246605Y192881D01*
X247270Y192217D01*
X247270Y178623D01*
X245938Y177291D01*
X238440Y177291D01*
X238418Y177313D01*
X238324Y177386D01*
X238235Y177465D01*
X238199Y177483D01*
X238167Y177508D01*
X238058Y177556D01*
X237952Y177610D01*
X237912Y177619D01*
X237875Y177635D01*
X237757Y177653D01*
X237641Y177679D01*
X237601Y177678D01*
X237561Y177684D01*
X237442Y177673D01*
X237324Y177670D01*
X237285Y177658D01*
X237244Y177655D01*
X237132Y177614D01*
X237018Y177581D01*
X236983Y177561D01*
X236945Y177547D01*
X236847Y177480D01*
X236744Y177420D01*
X236699Y177380D01*
X236682Y177368D01*
X236669Y177353D01*
X236623Y177313D01*
X236446Y177136D01*
X235754Y176736D01*
X234981Y176529D01*
X233425Y176529D01*
X233425Y184087D01*
X243967Y184087D01*
X243986Y184099D01*
X244008Y184103D01*
X244015Y184118D01*
X244024Y184124D01*
X244023Y184134D01*
X244030Y184150D01*
X244030Y186690D01*
X244018Y186709D01*
X244014Y186731D01*
X243999Y186738D01*
X243993Y186747D01*
X243983Y186746D01*
X243967Y186753D01*
X233425Y186753D01*
X233425Y194311D01*
X234981Y194311D01*
X235754Y194104D01*
X236446Y193704D01*
X236623Y193527D01*
X236711Y193458D01*
X236746Y193425D01*
X236754Y193421D01*
X236807Y193375D01*
X236843Y193357D01*
X236875Y193332D01*
X236984Y193284D01*
X237090Y193230D01*
X237129Y193221D01*
X237166Y193205D01*
X237284Y193187D01*
X237400Y193161D01*
X237441Y193162D01*
X237480Y193156D01*
X237599Y193167D01*
X237718Y193170D01*
X237757Y193182D01*
X237797Y193185D01*
X237909Y193226D01*
X238024Y193259D01*
X238058Y193279D01*
X238096Y193293D01*
X238195Y193360D01*
X238298Y193420D01*
X238343Y193460D01*
X238360Y193472D01*
X238373Y193487D01*
X238418Y193527D01*
X238506Y193615D01*
X238551Y193632D01*
X238664Y193669D01*
X238699Y193691D01*
X238736Y193706D01*
X238832Y193775D01*
X238933Y193839D01*
X238961Y193869D01*
X238994Y193892D01*
X239070Y193984D01*
X239151Y194071D01*
X239171Y194106D01*
X239196Y194137D01*
X239247Y194245D01*
X239305Y194349D01*
X239315Y194389D01*
X239332Y194425D01*
X239354Y194542D01*
X239384Y194657D01*
X239388Y194717D01*
X239392Y194737D01*
X239390Y194758D01*
X239394Y194818D01*
X239394Y195548D01*
X242475Y198629D01*
X242536Y198707D01*
X242603Y198779D01*
X242627Y198822D01*
X242649Y198848D01*
X242654Y198860D01*
X242670Y198880D01*
X242709Y198971D01*
X242757Y199057D01*
X242768Y199102D01*
X242784Y199136D01*
X242787Y199151D01*
X242796Y199172D01*
X242812Y199270D01*
X242836Y199365D01*
X242840Y199429D01*
X242844Y199448D01*
X242843Y199466D01*
X242846Y199486D01*
X242845Y199498D01*
X242847Y199526D01*
X242847Y201515D01*
X245525Y204193D01*
X249470Y204193D01*
X249543Y204159D01*
X249563Y204155D01*
X249581Y204147D01*
X249719Y204125D01*
X249856Y204099D01*
X249876Y204100D01*
X249896Y204097D01*
X250034Y204110D01*
X250173Y204119D01*
X250192Y204125D01*
X250212Y204127D01*
X250343Y204174D01*
X250475Y204217D01*
X250492Y204228D01*
X250511Y204234D01*
X250627Y204313D01*
X250744Y204387D01*
X250758Y204402D01*
X250775Y204413D01*
X250867Y204517D01*
X250962Y204619D01*
X250972Y204636D01*
X250985Y204651D01*
X251048Y204775D01*
X251116Y204897D01*
X251121Y204917D01*
X251130Y204935D01*
X251160Y205070D01*
X251195Y205205D01*
X251197Y205233D01*
X251199Y205245D01*
X251199Y205265D01*
X251205Y205366D01*
X251205Y220343D01*
X251187Y220487D01*
X251172Y220633D01*
X251167Y220645D01*
X251165Y220659D01*
X251112Y220794D01*
X251061Y220931D01*
X251053Y220942D01*
X251048Y220954D01*
X250963Y221072D01*
X250880Y221192D01*
X250870Y221201D01*
X250862Y221212D01*
X250749Y221305D01*
X250639Y221400D01*
X250627Y221406D01*
X250617Y221415D01*
X250485Y221476D01*
X250354Y221541D01*
X250341Y221544D01*
X250329Y221550D01*
X250187Y221577D01*
X250043Y221608D01*
X250030Y221607D01*
X250017Y221610D01*
X249872Y221601D01*
X249726Y221595D01*
X249713Y221591D01*
X249699Y221590D01*
X249561Y221545D01*
X249421Y221503D01*
X249409Y221496D01*
X249397Y221492D01*
X249273Y221414D01*
X249149Y221339D01*
X249139Y221329D01*
X249128Y221322D01*
X249028Y221215D01*
X248926Y221112D01*
X248916Y221096D01*
X248910Y221090D01*
X248902Y221075D01*
X248837Y220978D01*
X245197Y214673D01*
X239433Y209837D01*
X232362Y207263D01*
X224838Y207263D01*
X217767Y209837D01*
X212003Y214673D01*
X208241Y221190D01*
X206934Y228600D01*
X208241Y236010D01*
X212003Y242526D01*
X217767Y247363D01*
X221559Y248743D01*
X221646Y248788D01*
X221736Y248824D01*
X221786Y248860D01*
X221842Y248889D01*
X221915Y248953D01*
X221993Y249010D01*
X222033Y249058D01*
X222080Y249100D01*
X222134Y249180D01*
X222196Y249255D01*
X222223Y249312D01*
X222258Y249363D01*
X222290Y249455D01*
X222332Y249543D01*
X222343Y249604D01*
X222364Y249663D01*
X222373Y249760D01*
X222392Y249856D01*
X222388Y249918D01*
X222393Y249980D01*
X222378Y250076D01*
X222372Y250173D01*
X222353Y250232D01*
X222343Y250294D01*
X222304Y250383D01*
X222274Y250475D01*
X222240Y250528D01*
X222216Y250585D01*
X222156Y250662D01*
X222104Y250744D01*
X222058Y250787D01*
X222020Y250836D01*
X221943Y250895D01*
X221872Y250962D01*
X221817Y250992D01*
X221768Y251030D01*
X221679Y251069D01*
X221593Y251116D01*
X221533Y251131D01*
X221476Y251156D01*
X221380Y251171D01*
X221286Y251195D01*
X221181Y251202D01*
X221162Y251205D01*
X221150Y251204D01*
X221125Y251205D01*
X32875Y251205D01*
X32779Y251193D01*
X32681Y251190D01*
X32621Y251173D01*
X32560Y251165D01*
X32469Y251130D01*
X32376Y251103D01*
X32322Y251071D01*
X32264Y251048D01*
X32185Y250991D01*
X32101Y250942D01*
X32057Y250898D01*
X32007Y250862D01*
X31945Y250787D01*
X31875Y250718D01*
X31843Y250664D01*
X31804Y250617D01*
X31762Y250529D01*
X31712Y250445D01*
X31695Y250385D01*
X31668Y250329D01*
X31650Y250233D01*
X31622Y250140D01*
X31620Y250078D01*
X31608Y250017D01*
X31615Y249919D01*
X31611Y249822D01*
X31624Y249761D01*
X31628Y249699D01*
X31658Y249607D01*
X31679Y249511D01*
X31707Y249456D01*
X31726Y249397D01*
X31778Y249314D01*
X31822Y249227D01*
X31863Y249181D01*
X31896Y249128D01*
X31967Y249061D01*
X32031Y248988D01*
X32083Y248953D01*
X32128Y248910D01*
X32213Y248863D01*
X32294Y248808D01*
X32389Y248766D01*
X32407Y248756D01*
X32417Y248754D01*
X32441Y248743D01*
X36233Y247363D01*
X41997Y242527D01*
X45759Y236010D01*
X47066Y228600D01*
X45759Y221190D01*
X41997Y214674D01*
X36233Y209837D01*
X29162Y207263D01*
X21638Y207263D01*
X14567Y209837D01*
X8803Y214673D01*
X5163Y220978D01*
X5075Y221094D01*
X4990Y221212D01*
X4979Y221220D01*
X4971Y221231D01*
X4857Y221321D01*
X4745Y221415D01*
X4732Y221420D01*
X4722Y221429D01*
X4588Y221488D01*
X4457Y221550D01*
X4444Y221553D01*
X4431Y221558D01*
X4287Y221583D01*
X4144Y221610D01*
X4131Y221609D01*
X4118Y221611D01*
X3972Y221599D01*
X3827Y221590D01*
X3814Y221586D01*
X3801Y221585D01*
X3663Y221537D01*
X3525Y221492D01*
X3513Y221485D01*
X3500Y221480D01*
X3379Y221400D01*
X3256Y221322D01*
X3247Y221312D01*
X3235Y221305D01*
X3138Y221196D01*
X3038Y221090D01*
X3031Y221078D01*
X3022Y221068D01*
X2955Y220940D01*
X2884Y220812D01*
X2881Y220799D01*
X2875Y220787D01*
X2841Y220645D01*
X2805Y220504D01*
X2804Y220485D01*
X2802Y220477D01*
X2802Y220460D01*
X2795Y220343D01*
X2795Y33657D01*
X2813Y33513D01*
X2828Y33367D01*
X2833Y33355D01*
X2835Y33341D01*
X2888Y33206D01*
X2939Y33069D01*
X2947Y33058D01*
X2952Y33046D01*
X3037Y32928D01*
X3120Y32808D01*
X3130Y32799D01*
X3138Y32788D01*
X3251Y32695D01*
X3361Y32600D01*
X3373Y32594D01*
X3383Y32585D01*
X3515Y32524D01*
X3646Y32459D01*
X3659Y32456D01*
X3671Y32450D01*
X3813Y32423D01*
X3957Y32392D01*
X3970Y32393D01*
X3983Y32390D01*
X4128Y32399D01*
X4274Y32405D01*
X4287Y32409D01*
X4301Y32410D01*
X4439Y32455D01*
X4579Y32497D01*
X4591Y32504D01*
X4603Y32508D01*
X4727Y32586D01*
X4851Y32661D01*
X4861Y32671D01*
X4872Y32678D01*
X4972Y32785D01*
X5074Y32888D01*
X5084Y32904D01*
X5090Y32910D01*
X5098Y32925D01*
X5163Y33022D01*
X8803Y39327D01*
X14567Y44163D01*
X21638Y46737D01*
X29162Y46737D01*
X36233Y44163D01*
X41997Y39327D01*
X45759Y32810D01*
X47066Y25400D01*
X45759Y17990D01*
X41997Y11474D01*
X36233Y6637D01*
X32441Y5257D01*
X32354Y5212D01*
X32264Y5176D01*
X32214Y5140D01*
X32158Y5111D01*
X32085Y5047D01*
X32007Y4990D01*
X31967Y4942D01*
X31920Y4900D01*
X31866Y4820D01*
X31804Y4745D01*
X31777Y4688D01*
X31742Y4637D01*
X31710Y4545D01*
X31668Y4457D01*
X31657Y4396D01*
X31636Y4337D01*
X31627Y4240D01*
X31608Y4144D01*
X31612Y4082D01*
X31607Y4020D01*
X31622Y3924D01*
X31628Y3827D01*
X31647Y3768D01*
X31657Y3706D01*
X31696Y3617D01*
X31726Y3525D01*
X31760Y3472D01*
X31784Y3415D01*
X31844Y3338D01*
X31896Y3256D01*
X31942Y3213D01*
X31980Y3164D01*
X32057Y3105D01*
X32128Y3038D01*
X32183Y3008D01*
X32232Y2970D01*
X32321Y2931D01*
X32407Y2884D01*
X32467Y2869D01*
X32524Y2844D01*
X32620Y2829D01*
X32714Y2805D01*
X32819Y2798D01*
X32838Y2795D01*
X32850Y2796D01*
X32875Y2795D01*
X66157Y2795D01*
X66296Y2812D01*
G37*
%LPC*%
G36*
X217308Y119125D02*
X217308Y119125D01*
X214629Y121804D01*
X214629Y125592D01*
X217308Y128271D01*
X217860Y128271D01*
X217958Y128283D01*
X218057Y128286D01*
X218115Y128303D01*
X218175Y128311D01*
X218267Y128347D01*
X218363Y128375D01*
X218415Y128405D01*
X218471Y128428D01*
X218551Y128486D01*
X218637Y128536D01*
X218712Y128602D01*
X218728Y128614D01*
X218736Y128624D01*
X218757Y128643D01*
X219846Y129731D01*
X219906Y129809D01*
X219974Y129881D01*
X220003Y129934D01*
X220040Y129982D01*
X220080Y130073D01*
X220128Y130160D01*
X220143Y130218D01*
X220167Y130274D01*
X220182Y130372D01*
X220207Y130468D01*
X220213Y130568D01*
X220217Y130588D01*
X220215Y130600D01*
X220217Y130628D01*
X220217Y149788D01*
X220205Y149886D01*
X220202Y149985D01*
X220185Y150043D01*
X220177Y150103D01*
X220141Y150195D01*
X220113Y150291D01*
X220083Y150343D01*
X220060Y150399D01*
X220002Y150479D01*
X219952Y150564D01*
X219886Y150640D01*
X219874Y150656D01*
X219864Y150664D01*
X219846Y150685D01*
X210057Y160474D01*
X210057Y185474D01*
X213360Y188777D01*
X213420Y188855D01*
X213488Y188927D01*
X213517Y188980D01*
X213554Y189028D01*
X213594Y189119D01*
X213642Y189206D01*
X213657Y189264D01*
X213681Y189320D01*
X213696Y189418D01*
X213721Y189513D01*
X213727Y189614D01*
X213731Y189634D01*
X213729Y189646D01*
X213731Y189674D01*
X213731Y190226D01*
X216410Y192905D01*
X220198Y192905D01*
X222877Y190226D01*
X222877Y186438D01*
X220198Y183759D01*
X219646Y183759D01*
X219548Y183747D01*
X219449Y183744D01*
X219391Y183727D01*
X219331Y183719D01*
X219239Y183683D01*
X219143Y183655D01*
X219091Y183625D01*
X219035Y183602D01*
X218955Y183544D01*
X218869Y183494D01*
X218794Y183428D01*
X218778Y183416D01*
X218770Y183406D01*
X218749Y183387D01*
X218050Y182689D01*
X217990Y182611D01*
X217922Y182539D01*
X217893Y182486D01*
X217856Y182438D01*
X217816Y182347D01*
X217768Y182260D01*
X217753Y182202D01*
X217729Y182146D01*
X217714Y182048D01*
X217689Y181952D01*
X217683Y181852D01*
X217679Y181832D01*
X217681Y181820D01*
X217679Y181792D01*
X217679Y164156D01*
X217691Y164058D01*
X217694Y163959D01*
X217711Y163901D01*
X217719Y163841D01*
X217755Y163749D01*
X217783Y163653D01*
X217813Y163601D01*
X217836Y163545D01*
X217894Y163465D01*
X217944Y163380D01*
X218010Y163304D01*
X218022Y163288D01*
X218032Y163280D01*
X218050Y163259D01*
X227839Y153470D01*
X227839Y126946D01*
X224146Y123253D01*
X224086Y123175D01*
X224018Y123103D01*
X223989Y123050D01*
X223952Y123002D01*
X223912Y122911D01*
X223864Y122824D01*
X223849Y122766D01*
X223825Y122710D01*
X223810Y122612D01*
X223785Y122517D01*
X223779Y122416D01*
X223775Y122396D01*
X223777Y122384D01*
X223775Y122356D01*
X223775Y121804D01*
X221096Y119125D01*
X217308Y119125D01*
G37*
%LPD*%
%LPC*%
G36*
X40925Y190626D02*
X40925Y190626D01*
X39104Y191380D01*
X37710Y192774D01*
X36956Y194595D01*
X36956Y196565D01*
X37710Y198386D01*
X39104Y199780D01*
X40925Y200534D01*
X42895Y200534D01*
X44716Y199780D01*
X46110Y198386D01*
X46864Y196565D01*
X46864Y194595D01*
X46110Y192774D01*
X44716Y191380D01*
X42895Y190626D01*
X40925Y190626D01*
G37*
%LPD*%
%LPC*%
G36*
X211359Y50926D02*
X211359Y50926D01*
X209538Y51680D01*
X208144Y53074D01*
X207390Y54895D01*
X207390Y56865D01*
X208144Y58686D01*
X209538Y60080D01*
X211359Y60834D01*
X213329Y60834D01*
X215150Y60080D01*
X216544Y58686D01*
X217298Y56865D01*
X217298Y54895D01*
X216544Y53074D01*
X215150Y51680D01*
X213329Y50926D01*
X211359Y50926D01*
G37*
%LPD*%
G36*
X177438Y112979D02*
X177438Y112979D01*
X177460Y112983D01*
X177467Y112998D01*
X177476Y113004D01*
X177475Y113014D01*
X177482Y113030D01*
X177482Y115570D01*
X177470Y115589D01*
X177466Y115611D01*
X177451Y115618D01*
X177445Y115627D01*
X177435Y115626D01*
X177419Y115633D01*
X152781Y115633D01*
X152762Y115621D01*
X152740Y115617D01*
X152733Y115602D01*
X152724Y115596D01*
X152725Y115586D01*
X152718Y115570D01*
X152718Y113030D01*
X152730Y113011D01*
X152734Y112989D01*
X152749Y112982D01*
X152755Y112973D01*
X152765Y112974D01*
X152781Y112967D01*
X177419Y112967D01*
X177438Y112979D01*
G37*
%LPC*%
G36*
X64515Y15239D02*
X64515Y15239D01*
X64555Y15496D01*
X65136Y17283D01*
X65989Y18957D01*
X67094Y20478D01*
X68422Y21806D01*
X69943Y22911D01*
X71617Y23764D01*
X73404Y24345D01*
X73661Y24385D01*
X73661Y15239D01*
X64515Y15239D01*
G37*
%LPD*%
%LPC*%
G36*
X225932Y187070D02*
X225932Y187070D01*
X225932Y191674D01*
X226139Y192447D01*
X226539Y193139D01*
X227104Y193704D01*
X227796Y194104D01*
X228569Y194311D01*
X230125Y194311D01*
X230125Y187070D01*
X225932Y187070D01*
G37*
%LPD*%
%LPC*%
G36*
X228569Y176529D02*
X228569Y176529D01*
X227796Y176736D01*
X227104Y177136D01*
X226539Y177701D01*
X226139Y178393D01*
X225932Y179166D01*
X225932Y183770D01*
X230125Y183770D01*
X230125Y176529D01*
X228569Y176529D01*
G37*
%LPD*%
%LPC*%
G36*
X80487Y82549D02*
X80487Y82549D01*
X79714Y82756D01*
X79022Y83156D01*
X78457Y83721D01*
X78057Y84413D01*
X77850Y85186D01*
X77850Y89790D01*
X82043Y89790D01*
X82043Y82549D01*
X80487Y82549D01*
G37*
%LPD*%
D10*
X246521Y115094D02*
X242284Y117212D01*
X246521Y119331D01*
X247580Y122578D02*
X243343Y122578D01*
X247580Y122578D02*
X248640Y123637D01*
X248640Y125756D01*
X247580Y126815D01*
X243343Y126815D01*
X242284Y125756D01*
X242284Y123637D01*
X243343Y122578D01*
X247580Y126815D01*
X246521Y130062D02*
X248640Y132181D01*
X242284Y132181D01*
X242284Y134299D02*
X242284Y130062D01*
D11*
X178321Y120155D02*
X172707Y120155D01*
X178321Y120155D02*
X178321Y108445D01*
X172707Y108445D01*
X172707Y120155D01*
X172707Y109386D02*
X178321Y109386D01*
X178321Y110327D02*
X172707Y110327D01*
X172707Y111268D02*
X178321Y111268D01*
X178321Y112209D02*
X172707Y112209D01*
X172707Y113150D02*
X178321Y113150D01*
X178321Y114091D02*
X172707Y114091D01*
X172707Y115032D02*
X178321Y115032D01*
X178321Y115973D02*
X172707Y115973D01*
X172707Y116914D02*
X178321Y116914D01*
X178321Y117855D02*
X172707Y117855D01*
X172707Y118796D02*
X178321Y118796D01*
X178321Y119737D02*
X172707Y119737D01*
X167907Y120155D02*
X162293Y120155D01*
X167907Y120155D02*
X167907Y108445D01*
X162293Y108445D01*
X162293Y120155D01*
X162293Y109386D02*
X167907Y109386D01*
X167907Y110327D02*
X162293Y110327D01*
X162293Y111268D02*
X167907Y111268D01*
X167907Y112209D02*
X162293Y112209D01*
X162293Y113150D02*
X167907Y113150D01*
X167907Y114091D02*
X162293Y114091D01*
X162293Y115032D02*
X167907Y115032D01*
X167907Y115973D02*
X162293Y115973D01*
X162293Y116914D02*
X167907Y116914D01*
X167907Y117855D02*
X162293Y117855D01*
X162293Y118796D02*
X167907Y118796D01*
X167907Y119737D02*
X162293Y119737D01*
X157493Y120155D02*
X151879Y120155D01*
X157493Y120155D02*
X157493Y108445D01*
X151879Y108445D01*
X151879Y120155D01*
X151879Y109386D02*
X157493Y109386D01*
X157493Y110327D02*
X151879Y110327D01*
X151879Y111268D02*
X157493Y111268D01*
X157493Y112209D02*
X151879Y112209D01*
X151879Y113150D02*
X157493Y113150D01*
X157493Y114091D02*
X151879Y114091D01*
X151879Y115032D02*
X157493Y115032D01*
X157493Y115973D02*
X151879Y115973D01*
X151879Y116914D02*
X157493Y116914D01*
X157493Y117855D02*
X151879Y117855D01*
X151879Y118796D02*
X157493Y118796D01*
X157493Y119737D02*
X151879Y119737D01*
D12*
X41910Y195580D03*
X212344Y55880D03*
D11*
X228968Y179565D02*
X234582Y179565D01*
X228968Y179565D02*
X228968Y191275D01*
X234582Y191275D01*
X234582Y179565D01*
X234582Y180506D02*
X228968Y180506D01*
X228968Y181447D02*
X234582Y181447D01*
X234582Y182388D02*
X228968Y182388D01*
X228968Y183329D02*
X234582Y183329D01*
X234582Y184270D02*
X228968Y184270D01*
X228968Y185211D02*
X234582Y185211D01*
X234582Y186152D02*
X228968Y186152D01*
X228968Y187093D02*
X234582Y187093D01*
X234582Y188034D02*
X228968Y188034D01*
X228968Y188975D02*
X234582Y188975D01*
X234582Y189916D02*
X228968Y189916D01*
X228968Y190857D02*
X234582Y190857D01*
X239382Y179565D02*
X244996Y179565D01*
X239382Y179565D02*
X239382Y191275D01*
X244996Y191275D01*
X244996Y179565D01*
X244996Y180506D02*
X239382Y180506D01*
X239382Y181447D02*
X244996Y181447D01*
X244996Y182388D02*
X239382Y182388D01*
X239382Y183329D02*
X244996Y183329D01*
X244996Y184270D02*
X239382Y184270D01*
X239382Y185211D02*
X244996Y185211D01*
X244996Y186152D02*
X239382Y186152D01*
X239382Y187093D02*
X244996Y187093D01*
X244996Y188034D02*
X239382Y188034D01*
X239382Y188975D02*
X244996Y188975D01*
X244996Y189916D02*
X239382Y189916D01*
X239382Y190857D02*
X244996Y190857D01*
D13*
X95631Y142494D02*
X90297Y142494D01*
X95631Y142494D02*
X95631Y130810D01*
X90297Y130810D01*
X90297Y142494D01*
X90297Y131775D02*
X95631Y131775D01*
X95631Y132740D02*
X90297Y132740D01*
X90297Y133705D02*
X95631Y133705D01*
X95631Y134670D02*
X90297Y134670D01*
X90297Y135635D02*
X95631Y135635D01*
X95631Y136600D02*
X90297Y136600D01*
X90297Y137565D02*
X95631Y137565D01*
X95631Y138530D02*
X90297Y138530D01*
X90297Y139495D02*
X95631Y139495D01*
X95631Y140460D02*
X90297Y140460D01*
X90297Y141425D02*
X95631Y141425D01*
X95631Y142390D02*
X90297Y142390D01*
X87503Y142494D02*
X82169Y142494D01*
X87503Y142494D02*
X87503Y130810D01*
X82169Y130810D01*
X82169Y142494D01*
X82169Y131775D02*
X87503Y131775D01*
X87503Y132740D02*
X82169Y132740D01*
X82169Y133705D02*
X87503Y133705D01*
X87503Y134670D02*
X82169Y134670D01*
X82169Y135635D02*
X87503Y135635D01*
X87503Y136600D02*
X82169Y136600D01*
X82169Y137565D02*
X87503Y137565D01*
X87503Y138530D02*
X82169Y138530D01*
X82169Y139495D02*
X87503Y139495D01*
X87503Y140460D02*
X82169Y140460D01*
X82169Y141425D02*
X87503Y141425D01*
X87503Y142390D02*
X82169Y142390D01*
D14*
X76200Y12700D03*
X101600Y12700D03*
X127000Y12700D03*
X152400Y12700D03*
X177800Y12700D03*
D13*
X95631Y120142D02*
X90297Y120142D01*
X95631Y120142D02*
X95631Y108458D01*
X90297Y108458D01*
X90297Y120142D01*
X90297Y109423D02*
X95631Y109423D01*
X95631Y110388D02*
X90297Y110388D01*
X90297Y111353D02*
X95631Y111353D01*
X95631Y112318D02*
X90297Y112318D01*
X90297Y113283D02*
X95631Y113283D01*
X95631Y114248D02*
X90297Y114248D01*
X90297Y115213D02*
X95631Y115213D01*
X95631Y116178D02*
X90297Y116178D01*
X90297Y117143D02*
X95631Y117143D01*
X95631Y118108D02*
X90297Y118108D01*
X90297Y119073D02*
X95631Y119073D01*
X95631Y120038D02*
X90297Y120038D01*
X87503Y120142D02*
X82169Y120142D01*
X87503Y120142D02*
X87503Y108458D01*
X82169Y108458D01*
X82169Y120142D01*
X82169Y109423D02*
X87503Y109423D01*
X87503Y110388D02*
X82169Y110388D01*
X82169Y111353D02*
X87503Y111353D01*
X87503Y112318D02*
X82169Y112318D01*
X82169Y113283D02*
X87503Y113283D01*
X87503Y114248D02*
X82169Y114248D01*
X82169Y115213D02*
X87503Y115213D01*
X87503Y116178D02*
X82169Y116178D01*
X82169Y117143D02*
X87503Y117143D01*
X87503Y118108D02*
X82169Y118108D01*
X82169Y119073D02*
X87503Y119073D01*
X87503Y120038D02*
X82169Y120038D01*
D11*
X91300Y97295D02*
X96914Y97295D01*
X96914Y85585D01*
X91300Y85585D01*
X91300Y97295D01*
X91300Y86526D02*
X96914Y86526D01*
X96914Y87467D02*
X91300Y87467D01*
X91300Y88408D02*
X96914Y88408D01*
X96914Y89349D02*
X91300Y89349D01*
X91300Y90290D02*
X96914Y90290D01*
X96914Y91231D02*
X91300Y91231D01*
X91300Y92172D02*
X96914Y92172D01*
X96914Y93113D02*
X91300Y93113D01*
X91300Y94054D02*
X96914Y94054D01*
X96914Y94995D02*
X91300Y94995D01*
X91300Y95936D02*
X96914Y95936D01*
X96914Y96877D02*
X91300Y96877D01*
X86500Y97295D02*
X80886Y97295D01*
X86500Y97295D02*
X86500Y85585D01*
X80886Y85585D01*
X80886Y97295D01*
X80886Y86526D02*
X86500Y86526D01*
X86500Y87467D02*
X80886Y87467D01*
X80886Y88408D02*
X86500Y88408D01*
X86500Y89349D02*
X80886Y89349D01*
X80886Y90290D02*
X86500Y90290D01*
X86500Y91231D02*
X80886Y91231D01*
X80886Y92172D02*
X86500Y92172D01*
X86500Y93113D02*
X80886Y93113D01*
X80886Y94054D02*
X86500Y94054D01*
X86500Y94995D02*
X80886Y94995D01*
X80886Y95936D02*
X86500Y95936D01*
X86500Y96877D02*
X80886Y96877D01*
D15*
X101346Y113792D03*
X189484Y133604D03*
X118618Y144272D03*
X139700Y101600D03*
X12700Y203200D03*
X12700Y177800D03*
X17018Y126492D03*
X12700Y76200D03*
X12700Y50800D03*
X63500Y241300D03*
X127000Y241300D03*
X190500Y241300D03*
X234696Y127254D03*
X241300Y76200D03*
X241300Y50800D03*
X241300Y203200D03*
X62992Y105156D03*
X214884Y111760D03*
X45720Y102362D03*
X204216Y160274D03*
X38100Y139700D03*
X69850Y144780D03*
X112268Y100838D03*
X112014Y74168D03*
X115570Y33782D03*
X92710Y64262D03*
X139700Y33782D03*
X203200Y12700D03*
X188214Y100584D03*
X91186Y149860D03*
X86106Y125476D03*
D16*
X84836Y136652D02*
X84836Y144018D01*
X81026Y147828D01*
D15*
X81026Y147828D03*
X127508Y129540D03*
D16*
X127508Y102870D01*
D15*
X127508Y102870D03*
X63754Y132080D03*
D17*
X123952Y91948D02*
X158750Y91948D01*
X123952Y91948D02*
X119380Y91948D01*
X114300Y91948D01*
X110744Y91948D01*
X165100Y98298D02*
X165100Y114300D01*
X165100Y98298D02*
X158750Y91948D01*
X165100Y114300D02*
X165100Y123698D01*
X168910Y127508D01*
X184658Y127508D01*
X190246Y121920D02*
X190500Y121920D01*
D15*
X190500Y121920D03*
D17*
X190246Y121920D02*
X184658Y127508D01*
X224028Y128524D02*
X224028Y151892D01*
X224028Y128524D02*
X219202Y123698D01*
X224028Y151892D02*
X213868Y162052D01*
X213868Y183896D01*
X218304Y188332D01*
X101204Y154544D02*
X101204Y146924D01*
X101204Y154544D02*
X94205Y161544D01*
X63754Y154940D02*
X63754Y132080D01*
X63754Y154940D02*
X70358Y161544D01*
X94205Y161544D01*
X105918Y87122D02*
X105918Y17018D01*
X101600Y12700D01*
X105918Y87122D02*
X110744Y91948D01*
D15*
X114300Y91948D03*
X101204Y146924D03*
D17*
X119380Y128749D01*
X119380Y96520D01*
X119380Y95250D01*
X119380Y91948D01*
X118872Y95250D02*
X115570Y91948D01*
X114300Y91948D01*
X118872Y95250D02*
X119380Y95250D01*
X119380Y96520D02*
X123952Y91948D01*
D15*
X219202Y123698D03*
X218304Y188332D03*
X181864Y104902D03*
D16*
X181102Y104902D01*
X175514Y110490D01*
X175514Y114300D01*
D15*
X142494Y110744D03*
D16*
X146050Y114300D02*
X154686Y114300D01*
X146050Y114300D02*
X142494Y110744D01*
D15*
X247419Y199621D03*
D16*
X242189Y194390D01*
X242189Y185420D01*
D15*
X109636Y127078D03*
D16*
X100062Y136652D01*
X92964Y136652D01*
X92964Y114300D01*
X92964Y92583D01*
X94107Y91440D01*
X84836Y114300D02*
X76258Y114300D01*
X76229Y114329D01*
X76258Y114300D02*
X74422Y112464D01*
X74422Y101600D01*
X74422Y100584D01*
D15*
X74422Y101600D03*
M02*
