G04 EAGLE Gerber RS-274X export*
G75*
%MOMM*%
%FSLAX34Y34*%
%LPD*%
%INSilkscreen Bottom*%
%IPPOS*%
%AMOC8*
5,1,8,0,0,1.08239X$1,22.5*%
G01*
%ADD10C,0.203200*%
%ADD11C,0.152400*%

G36*
X76593Y84353D02*
X76593Y84353D01*
X76607Y84351D01*
X76907Y84651D01*
X76909Y84663D01*
X76915Y84668D01*
X76910Y84675D01*
X76911Y84678D01*
X76921Y84686D01*
X76921Y97586D01*
X76908Y97604D01*
X76911Y97616D01*
X76611Y98016D01*
X76580Y98025D01*
X76572Y98035D01*
X73572Y98035D01*
X73545Y98015D01*
X73532Y98014D01*
X73511Y97986D01*
X73509Y98018D01*
X73486Y98017D01*
X73472Y98035D01*
X37672Y98035D01*
X37665Y98030D01*
X37656Y98033D01*
X37652Y98020D01*
X37625Y97999D01*
X37630Y97993D01*
X37629Y97992D01*
X37639Y97980D01*
X37638Y97978D01*
X37612Y98014D01*
X37580Y98025D01*
X37572Y98035D01*
X36972Y98035D01*
X36968Y98032D01*
X36965Y98035D01*
X35565Y97835D01*
X35562Y97831D01*
X35560Y97831D01*
X35559Y97831D01*
X35556Y97833D01*
X34956Y97633D01*
X34953Y97628D01*
X34950Y97630D01*
X33750Y97030D01*
X33748Y97026D01*
X33745Y97027D01*
X33145Y96627D01*
X33144Y96624D01*
X33141Y96624D01*
X32641Y96224D01*
X32640Y96220D01*
X32637Y96221D01*
X32137Y95721D01*
X32137Y95717D01*
X32134Y95717D01*
X31734Y95217D01*
X31733Y95213D01*
X31731Y95213D01*
X31331Y94613D01*
X31331Y94609D01*
X31328Y94608D01*
X30728Y93408D01*
X30730Y93397D01*
X30723Y93393D01*
X30624Y92697D01*
X30425Y92102D01*
X30429Y92091D01*
X30423Y92086D01*
X30423Y90686D01*
X30426Y90682D01*
X30423Y90679D01*
X30523Y89979D01*
X30524Y89978D01*
X30523Y89978D01*
X30623Y89378D01*
X30627Y89375D01*
X30625Y89372D01*
X30825Y88672D01*
X30830Y88668D01*
X30828Y88664D01*
X31128Y88064D01*
X31132Y88062D01*
X31131Y88059D01*
X31530Y87460D01*
X31830Y86961D01*
X31838Y86957D01*
X31837Y86951D01*
X32837Y85951D01*
X32841Y85951D01*
X32841Y85948D01*
X33341Y85548D01*
X33349Y85547D01*
X33350Y85542D01*
X34550Y84942D01*
X34552Y84942D01*
X34553Y84941D01*
X35253Y84641D01*
X35261Y84643D01*
X35264Y84637D01*
X35864Y84537D01*
X35865Y84538D01*
X35865Y84537D01*
X37265Y84337D01*
X37270Y84340D01*
X37272Y84337D01*
X76572Y84337D01*
X76593Y84353D01*
G37*
G36*
X77406Y129054D02*
X77406Y129054D01*
X77418Y129051D01*
X77818Y129351D01*
X77822Y129367D01*
X77829Y129372D01*
X77825Y129378D01*
X77827Y129382D01*
X77837Y129390D01*
X77837Y142290D01*
X77824Y142308D01*
X77827Y142320D01*
X77527Y142720D01*
X77496Y142729D01*
X77488Y142739D01*
X38488Y142739D01*
X38484Y142736D01*
X38481Y142739D01*
X37785Y142639D01*
X37088Y142639D01*
X37081Y142634D01*
X37077Y142634D01*
X37072Y142637D01*
X36473Y142437D01*
X35774Y142237D01*
X35770Y142232D01*
X35766Y142234D01*
X35166Y141934D01*
X35164Y141930D01*
X35161Y141931D01*
X34561Y141531D01*
X34560Y141528D01*
X34557Y141528D01*
X33557Y140728D01*
X33556Y140724D01*
X33553Y140725D01*
X33053Y140225D01*
X33052Y140218D01*
X33047Y140217D01*
X32647Y139617D01*
X32647Y139613D01*
X32644Y139612D01*
X32044Y138412D01*
X32045Y138407D01*
X32041Y138406D01*
X31841Y137806D01*
X31843Y137799D01*
X31839Y137797D01*
X31739Y137097D01*
X31639Y136398D01*
X31539Y135798D01*
X31545Y135788D01*
X31539Y135783D01*
X31739Y134383D01*
X31744Y134378D01*
X31741Y134374D01*
X31941Y133775D01*
X32141Y133076D01*
X32146Y133072D01*
X32144Y133068D01*
X32444Y132468D01*
X32451Y132465D01*
X32450Y132459D01*
X32848Y131961D01*
X33247Y131363D01*
X33254Y131360D01*
X33253Y131355D01*
X33753Y130855D01*
X33757Y130855D01*
X33757Y130852D01*
X34257Y130452D01*
X34261Y130451D01*
X34261Y130449D01*
X34861Y130049D01*
X34865Y130049D01*
X34866Y130046D01*
X36066Y129446D01*
X36071Y129447D01*
X36072Y129443D01*
X36672Y129243D01*
X36679Y129245D01*
X36681Y129241D01*
X38081Y129041D01*
X38086Y129044D01*
X38088Y129041D01*
X77388Y129041D01*
X77406Y129054D01*
G37*
G36*
X77602Y107201D02*
X77602Y107201D01*
X77606Y107198D01*
X78106Y107298D01*
X78134Y107330D01*
X78136Y107331D01*
X78136Y107332D01*
X78145Y107342D01*
X78143Y107344D01*
X78145Y107346D01*
X78145Y120246D01*
X78142Y120251D01*
X78145Y120254D01*
X78045Y120854D01*
X78001Y120895D01*
X77999Y120892D01*
X77996Y120895D01*
X74796Y120895D01*
X74771Y120876D01*
X74757Y120876D01*
X74735Y120848D01*
X74736Y120875D01*
X74711Y120876D01*
X74696Y120895D01*
X38896Y120895D01*
X38892Y120892D01*
X38889Y120895D01*
X37489Y120695D01*
X37486Y120691D01*
X37484Y120691D01*
X37483Y120691D01*
X37480Y120693D01*
X36881Y120493D01*
X36182Y120293D01*
X36176Y120285D01*
X36169Y120287D01*
X35570Y119888D01*
X35071Y119588D01*
X35070Y119587D01*
X35069Y119587D01*
X34469Y119187D01*
X34465Y119177D01*
X34458Y119177D01*
X34059Y118679D01*
X33561Y118181D01*
X33560Y118169D01*
X33552Y118168D01*
X33253Y117571D01*
X32855Y116973D01*
X32856Y116966D01*
X32851Y116962D01*
X32849Y116962D01*
X32649Y116362D01*
X32650Y116360D01*
X32649Y116360D01*
X32638Y116321D01*
X32596Y116174D01*
X32553Y116026D01*
X32539Y115977D01*
X32497Y115829D01*
X32455Y115681D01*
X32449Y115661D01*
X32249Y115062D01*
X32253Y115051D01*
X32247Y115046D01*
X32247Y113646D01*
X32250Y113642D01*
X32247Y113639D01*
X32347Y112939D01*
X32348Y112938D01*
X32347Y112938D01*
X32447Y112338D01*
X32451Y112335D01*
X32449Y112332D01*
X32649Y111632D01*
X32654Y111628D01*
X32652Y111624D01*
X33252Y110424D01*
X33259Y110421D01*
X33258Y110415D01*
X33656Y109917D01*
X34055Y109319D01*
X34065Y109315D01*
X34065Y109308D01*
X34565Y108908D01*
X34569Y108907D01*
X34569Y108905D01*
X35167Y108506D01*
X35665Y108108D01*
X35673Y108107D01*
X35674Y108102D01*
X36274Y107802D01*
X36281Y107803D01*
X36282Y107799D01*
X36981Y107599D01*
X37580Y107399D01*
X37587Y107401D01*
X37589Y107397D01*
X38989Y107197D01*
X38994Y107200D01*
X38996Y107197D01*
X77596Y107197D01*
X77602Y107201D01*
G37*
G36*
X133418Y20534D02*
X133418Y20534D01*
X133430Y20531D01*
X133830Y20831D01*
X133834Y20847D01*
X133841Y20852D01*
X133837Y20858D01*
X133839Y20862D01*
X133849Y20870D01*
X133849Y54670D01*
X133846Y54674D01*
X133849Y54677D01*
X133749Y55373D01*
X133749Y56070D01*
X133742Y56079D01*
X133747Y56086D01*
X133547Y56685D01*
X133347Y57384D01*
X133342Y57388D01*
X133344Y57392D01*
X133044Y57992D01*
X133040Y57994D01*
X133041Y57997D01*
X132641Y58597D01*
X132638Y58598D01*
X132638Y58601D01*
X131838Y59601D01*
X131834Y59602D01*
X131835Y59605D01*
X131335Y60105D01*
X131328Y60106D01*
X131327Y60111D01*
X130727Y60511D01*
X130726Y60511D01*
X130725Y60512D01*
X130225Y60812D01*
X130220Y60812D01*
X130219Y60815D01*
X129519Y61115D01*
X129516Y61115D01*
X129516Y61117D01*
X128316Y61517D01*
X128309Y61515D01*
X128307Y61519D01*
X127607Y61619D01*
X127602Y61616D01*
X127600Y61619D01*
X126900Y61619D01*
X126896Y61616D01*
X126893Y61619D01*
X126193Y61519D01*
X126192Y61518D01*
X126192Y61519D01*
X125592Y61419D01*
X124893Y61319D01*
X124885Y61311D01*
X124878Y61314D01*
X123678Y60714D01*
X123676Y60710D01*
X123673Y60711D01*
X123073Y60311D01*
X123072Y60308D01*
X123069Y60308D01*
X122069Y59508D01*
X122068Y59504D01*
X122065Y59505D01*
X121565Y59005D01*
X121564Y58993D01*
X121556Y58992D01*
X121257Y58395D01*
X120859Y57797D01*
X120860Y57788D01*
X120853Y57786D01*
X120653Y57186D01*
X120654Y57184D01*
X120653Y57184D01*
X120651Y57176D01*
X120608Y57028D01*
X120594Y56979D01*
X120552Y56831D01*
X120510Y56684D01*
X120496Y56634D01*
X120454Y56487D01*
X120453Y56485D01*
X120253Y55886D01*
X120255Y55879D01*
X120251Y55877D01*
X120151Y55177D01*
X120154Y55172D01*
X120151Y55170D01*
X120151Y20970D01*
X120164Y20952D01*
X120161Y20940D01*
X120461Y20540D01*
X120492Y20532D01*
X120500Y20521D01*
X133400Y20521D01*
X133418Y20534D01*
G37*
G36*
X83301Y20965D02*
X83301Y20965D01*
X83296Y20972D01*
X83303Y20978D01*
X83303Y58178D01*
X83300Y58183D01*
X83303Y58186D01*
X83203Y58786D01*
X83159Y58827D01*
X83157Y58824D01*
X83154Y58827D01*
X69654Y58827D01*
X69607Y58791D01*
X69612Y58784D01*
X69605Y58778D01*
X69605Y55478D01*
X69625Y55452D01*
X69625Y55438D01*
X69654Y55417D01*
X69623Y55416D01*
X69624Y55392D01*
X69605Y55378D01*
X69605Y21578D01*
X69608Y21573D01*
X69605Y21570D01*
X69705Y20970D01*
X69749Y20929D01*
X69752Y20932D01*
X69754Y20929D01*
X83254Y20929D01*
X83301Y20965D01*
G37*
G36*
X107805Y20978D02*
X107805Y20978D01*
X107808Y20975D01*
X108408Y21075D01*
X108449Y21119D01*
X108446Y21122D01*
X108449Y21124D01*
X108449Y57724D01*
X108441Y57735D01*
X108446Y57742D01*
X108246Y58242D01*
X108205Y58267D01*
X108200Y58273D01*
X95300Y58273D01*
X95289Y58265D01*
X95282Y58270D01*
X94782Y58070D01*
X94757Y58029D01*
X94751Y58024D01*
X94751Y21624D01*
X94754Y21619D01*
X94751Y21616D01*
X94851Y21016D01*
X94895Y20975D01*
X94898Y20978D01*
X94900Y20975D01*
X107800Y20975D01*
X107805Y20978D01*
G37*
G36*
X159292Y20680D02*
X159292Y20680D01*
X159300Y20682D01*
X159500Y21182D01*
X159496Y21195D01*
X159503Y21200D01*
X159503Y52400D01*
X159500Y52404D01*
X159503Y52407D01*
X159303Y53807D01*
X159298Y53812D01*
X159301Y53816D01*
X159101Y54416D01*
X159096Y54419D01*
X159098Y54422D01*
X158498Y55622D01*
X158494Y55624D01*
X158495Y55627D01*
X158095Y56227D01*
X158092Y56228D01*
X158092Y56231D01*
X157692Y56731D01*
X157688Y56732D01*
X157689Y56735D01*
X157189Y57235D01*
X157182Y57236D01*
X157181Y57241D01*
X156583Y57640D01*
X156085Y58038D01*
X156077Y58039D01*
X156076Y58044D01*
X155476Y58344D01*
X155469Y58343D01*
X155468Y58347D01*
X154769Y58547D01*
X154170Y58747D01*
X154163Y58745D01*
X154161Y58749D01*
X152761Y58949D01*
X152751Y58943D01*
X152746Y58949D01*
X152150Y58849D01*
X151454Y58849D01*
X151446Y58843D01*
X151440Y58847D01*
X150740Y58647D01*
X150739Y58646D01*
X150738Y58647D01*
X150138Y58447D01*
X150135Y58442D01*
X150132Y58444D01*
X148932Y57844D01*
X148930Y57840D01*
X148927Y57841D01*
X148327Y57441D01*
X148324Y57434D01*
X148319Y57435D01*
X147819Y56935D01*
X147819Y56931D01*
X147816Y56931D01*
X147016Y55931D01*
X147015Y55927D01*
X147013Y55927D01*
X146613Y55327D01*
X146613Y55323D01*
X146610Y55322D01*
X146310Y54722D01*
X146311Y54715D01*
X146307Y54714D01*
X146288Y54647D01*
X146245Y54499D01*
X146231Y54450D01*
X146189Y54302D01*
X146147Y54154D01*
X146133Y54105D01*
X146107Y54015D01*
X145907Y53416D01*
X145907Y53415D01*
X145911Y53405D01*
X145905Y53400D01*
X145905Y52704D01*
X145805Y52108D01*
X145808Y52103D01*
X145805Y52100D01*
X145805Y20900D01*
X145834Y20862D01*
X145836Y20854D01*
X146336Y20654D01*
X146349Y20658D01*
X146354Y20651D01*
X159254Y20651D01*
X159292Y20680D01*
G37*
G36*
X177351Y124472D02*
X177351Y124472D01*
X177354Y124469D01*
X177954Y124569D01*
X177957Y124573D01*
X177960Y124571D01*
X178660Y124771D01*
X178661Y124772D01*
X178662Y124771D01*
X179262Y124971D01*
X179263Y124974D01*
X179265Y124973D01*
X179965Y125273D01*
X179967Y125275D01*
X179968Y125274D01*
X180568Y125574D01*
X180571Y125581D01*
X180577Y125580D01*
X181577Y126380D01*
X181578Y126384D01*
X181581Y126383D01*
X182081Y126883D01*
X182082Y126890D01*
X182087Y126891D01*
X182487Y127491D01*
X182487Y127495D01*
X182490Y127496D01*
X183390Y129296D01*
X183388Y129307D01*
X183395Y129311D01*
X183495Y130010D01*
X183595Y130610D01*
X183594Y130611D01*
X183595Y130611D01*
X183695Y131311D01*
X183690Y131320D01*
X183695Y131325D01*
X183595Y132025D01*
X183594Y132026D01*
X183595Y132026D01*
X183495Y132626D01*
X183395Y133325D01*
X183387Y133333D01*
X183390Y133340D01*
X182490Y135140D01*
X182486Y135142D01*
X182487Y135145D01*
X182087Y135745D01*
X182080Y135748D01*
X182081Y135753D01*
X181581Y136253D01*
X181577Y136253D01*
X181577Y136256D01*
X180577Y137056D01*
X180569Y137057D01*
X180568Y137062D01*
X179368Y137662D01*
X179361Y137661D01*
X179360Y137665D01*
X177960Y138065D01*
X177956Y138064D01*
X177954Y138067D01*
X177354Y138167D01*
X177349Y138164D01*
X177346Y138167D01*
X152446Y138167D01*
X152442Y138164D01*
X152439Y138167D01*
X151739Y138067D01*
X151738Y138066D01*
X151738Y138067D01*
X151138Y137967D01*
X151132Y137960D01*
X151127Y137963D01*
X150428Y137664D01*
X149830Y137465D01*
X149825Y137457D01*
X149819Y137459D01*
X149220Y137060D01*
X148721Y136760D01*
X148717Y136752D01*
X148711Y136753D01*
X147711Y135753D01*
X147711Y135749D01*
X147708Y135749D01*
X147308Y135249D01*
X147307Y135245D01*
X147305Y135245D01*
X146905Y134645D01*
X146905Y134641D01*
X146902Y134640D01*
X146602Y134040D01*
X146602Y134037D01*
X146601Y134037D01*
X146603Y134035D01*
X146599Y134034D01*
X146399Y133434D01*
X146400Y133432D01*
X146399Y133432D01*
X146375Y133347D01*
X146332Y133199D01*
X146318Y133150D01*
X146276Y133002D01*
X146234Y132855D01*
X146220Y132805D01*
X146199Y132732D01*
X146200Y132728D01*
X146197Y132726D01*
X146097Y132126D01*
X146098Y132125D01*
X146097Y132125D01*
X145997Y131425D01*
X146002Y131416D01*
X145997Y131411D01*
X146197Y130011D01*
X146198Y130010D01*
X146197Y130010D01*
X146297Y129410D01*
X146302Y129406D01*
X146299Y129402D01*
X146499Y128802D01*
X146502Y128801D01*
X146501Y128799D01*
X146801Y128099D01*
X146809Y128094D01*
X146808Y128087D01*
X147206Y127589D01*
X147605Y126991D01*
X147608Y126990D01*
X147608Y126987D01*
X148008Y126487D01*
X148015Y126485D01*
X148015Y126480D01*
X148515Y126080D01*
X148519Y126079D01*
X148519Y126077D01*
X149117Y125678D01*
X149615Y125280D01*
X149625Y125279D01*
X149627Y125273D01*
X150327Y124973D01*
X150330Y124974D01*
X150330Y124971D01*
X150930Y124771D01*
X150932Y124772D01*
X150932Y124771D01*
X151632Y124571D01*
X151642Y124574D01*
X151646Y124569D01*
X152243Y124569D01*
X152939Y124469D01*
X152944Y124472D01*
X152946Y124469D01*
X177346Y124469D01*
X177351Y124472D01*
G37*
G36*
X184443Y20513D02*
X184443Y20513D01*
X184447Y20514D01*
X184647Y21114D01*
X184643Y21125D01*
X184649Y21130D01*
X184649Y50130D01*
X184646Y50134D01*
X184649Y50137D01*
X184549Y50837D01*
X184545Y50841D01*
X184547Y50844D01*
X184347Y51544D01*
X184346Y51545D01*
X184347Y51546D01*
X183947Y52746D01*
X183939Y52751D01*
X183941Y52757D01*
X183141Y53957D01*
X183138Y53958D01*
X183138Y53961D01*
X182738Y54461D01*
X182731Y54463D01*
X182731Y54468D01*
X182233Y54867D01*
X181735Y55365D01*
X181723Y55366D01*
X181722Y55374D01*
X179922Y56274D01*
X179911Y56272D01*
X179907Y56279D01*
X179207Y56379D01*
X178508Y56479D01*
X177908Y56579D01*
X177898Y56573D01*
X177893Y56579D01*
X177197Y56479D01*
X176500Y56479D01*
X176491Y56472D01*
X176484Y56477D01*
X175885Y56277D01*
X175186Y56077D01*
X175182Y56072D01*
X175178Y56074D01*
X174578Y55774D01*
X174576Y55770D01*
X174573Y55771D01*
X173973Y55371D01*
X173972Y55368D01*
X173969Y55368D01*
X172969Y54568D01*
X172968Y54564D01*
X172965Y54565D01*
X172465Y54065D01*
X172464Y54058D01*
X172459Y54057D01*
X172059Y53457D01*
X172059Y53453D01*
X172056Y53452D01*
X171456Y52252D01*
X171457Y52247D01*
X171453Y52246D01*
X171253Y51646D01*
X171254Y51644D01*
X171253Y51644D01*
X171218Y51522D01*
X171204Y51472D01*
X171162Y51325D01*
X171119Y51177D01*
X171105Y51128D01*
X171063Y50980D01*
X171053Y50944D01*
X171056Y50934D01*
X171051Y50930D01*
X171051Y50334D01*
X170951Y49738D01*
X170954Y49733D01*
X170951Y49730D01*
X170951Y20630D01*
X170987Y20583D01*
X170990Y20585D01*
X170992Y20581D01*
X171592Y20481D01*
X171597Y20484D01*
X171600Y20481D01*
X184400Y20481D01*
X184443Y20513D01*
G37*
G36*
X24704Y116200D02*
X24704Y116200D01*
X24770Y116205D01*
X24788Y116216D01*
X24809Y116221D01*
X24894Y116281D01*
X24918Y116295D01*
X24921Y116300D01*
X24926Y116304D01*
X27126Y118604D01*
X27134Y118617D01*
X27147Y118627D01*
X27178Y118691D01*
X27214Y118753D01*
X27215Y118769D01*
X27222Y118783D01*
X27221Y118854D01*
X27227Y118925D01*
X27221Y118940D01*
X27220Y118956D01*
X27163Y119081D01*
X27161Y119085D01*
X27161Y119086D01*
X25293Y121701D01*
X25295Y121712D01*
X25304Y121725D01*
X25315Y121783D01*
X25324Y121804D01*
X25324Y121826D01*
X25330Y121859D01*
X25331Y121864D01*
X25331Y121865D01*
X25331Y121866D01*
X25331Y121876D01*
X25364Y121941D01*
X25420Y121998D01*
X25431Y122016D01*
X25443Y122025D01*
X25451Y122043D01*
X25491Y122096D01*
X25564Y122241D01*
X25620Y122298D01*
X25660Y122362D01*
X25704Y122425D01*
X25706Y122437D01*
X25711Y122445D01*
X25715Y122480D01*
X25731Y122566D01*
X25731Y122615D01*
X25760Y122662D01*
X25804Y122725D01*
X25806Y122737D01*
X25811Y122745D01*
X25815Y122780D01*
X25831Y122866D01*
X25831Y122976D01*
X25864Y123041D01*
X25920Y123098D01*
X25960Y123162D01*
X26004Y123225D01*
X26006Y123237D01*
X26011Y123245D01*
X26015Y123280D01*
X26021Y123313D01*
X26024Y123321D01*
X26024Y123329D01*
X26031Y123366D01*
X26031Y123415D01*
X26060Y123462D01*
X26104Y123525D01*
X26106Y123537D01*
X26111Y123545D01*
X26115Y123580D01*
X26131Y123666D01*
X26131Y123776D01*
X26160Y123834D01*
X29416Y124392D01*
X29434Y124399D01*
X29453Y124400D01*
X29513Y124433D01*
X29575Y124459D01*
X29588Y124474D01*
X29605Y124483D01*
X29644Y124539D01*
X29688Y124590D01*
X29693Y124609D01*
X29704Y124625D01*
X29726Y124736D01*
X29731Y124758D01*
X29730Y124762D01*
X29731Y124766D01*
X29731Y127966D01*
X29727Y127985D01*
X29729Y128004D01*
X29718Y128038D01*
X29717Y128044D01*
X29712Y128055D01*
X29707Y128068D01*
X29692Y128134D01*
X29679Y128149D01*
X29673Y128167D01*
X29625Y128215D01*
X29582Y128268D01*
X29564Y128275D01*
X29550Y128289D01*
X29444Y128329D01*
X29424Y128338D01*
X29420Y128338D01*
X29416Y128340D01*
X26204Y128890D01*
X26193Y128929D01*
X26192Y128934D01*
X26191Y128935D01*
X26131Y129055D01*
X26131Y129066D01*
X26128Y129081D01*
X26130Y129097D01*
X26110Y129167D01*
X26110Y129182D01*
X26102Y129196D01*
X26093Y129229D01*
X26092Y129234D01*
X26091Y129235D01*
X26031Y129355D01*
X26031Y129366D01*
X26028Y129381D01*
X26030Y129397D01*
X25993Y129529D01*
X25992Y129534D01*
X25991Y129535D01*
X25831Y129855D01*
X25831Y129866D01*
X25828Y129881D01*
X25830Y129897D01*
X25793Y130029D01*
X25792Y130034D01*
X25791Y130035D01*
X25691Y130235D01*
X25668Y130263D01*
X25631Y130317D01*
X25631Y130366D01*
X25614Y130440D01*
X25600Y130515D01*
X25594Y130525D01*
X25592Y130534D01*
X25569Y130562D01*
X25520Y130634D01*
X25464Y130690D01*
X25391Y130835D01*
X25368Y130863D01*
X25331Y130917D01*
X25331Y130966D01*
X25314Y131040D01*
X25310Y131062D01*
X27164Y133750D01*
X27170Y133766D01*
X27182Y133779D01*
X27202Y133846D01*
X27227Y133911D01*
X27226Y133929D01*
X27231Y133945D01*
X27218Y134014D01*
X27212Y134084D01*
X27203Y134098D01*
X27200Y134115D01*
X27129Y134221D01*
X27122Y134232D01*
X27121Y134232D01*
X27120Y134234D01*
X24920Y136434D01*
X24906Y136443D01*
X24895Y136457D01*
X24833Y136488D01*
X24773Y136525D01*
X24756Y136527D01*
X24741Y136534D01*
X24671Y136535D01*
X24601Y136541D01*
X24585Y136535D01*
X24568Y136535D01*
X24450Y136484D01*
X24439Y136480D01*
X24438Y136479D01*
X24437Y136478D01*
X21738Y134616D01*
X21720Y134634D01*
X21655Y134674D01*
X21593Y134718D01*
X21581Y134720D01*
X21573Y134725D01*
X21538Y134728D01*
X21452Y134745D01*
X21402Y134745D01*
X21390Y134753D01*
X21322Y134805D01*
X21177Y134877D01*
X21120Y134934D01*
X21055Y134974D01*
X20993Y135018D01*
X20981Y135020D01*
X20973Y135025D01*
X20938Y135028D01*
X20852Y135045D01*
X20802Y135045D01*
X20790Y135053D01*
X20722Y135105D01*
X20522Y135205D01*
X20506Y135209D01*
X20493Y135218D01*
X20359Y135244D01*
X20353Y135245D01*
X20352Y135245D01*
X20342Y135245D01*
X20222Y135305D01*
X20206Y135309D01*
X20193Y135318D01*
X20059Y135344D01*
X20053Y135345D01*
X20052Y135345D01*
X20002Y135345D01*
X19955Y135374D01*
X19893Y135418D01*
X19881Y135420D01*
X19873Y135425D01*
X19838Y135428D01*
X19752Y135445D01*
X19642Y135445D01*
X19584Y135474D01*
X19026Y138730D01*
X19018Y138748D01*
X19017Y138767D01*
X18985Y138826D01*
X18958Y138889D01*
X18944Y138902D01*
X18934Y138919D01*
X18879Y138958D01*
X18827Y139002D01*
X18808Y139007D01*
X18793Y139018D01*
X18682Y139039D01*
X18660Y139045D01*
X18656Y139044D01*
X18652Y139045D01*
X15452Y139045D01*
X15433Y139041D01*
X15414Y139043D01*
X15350Y139021D01*
X15284Y139005D01*
X15269Y138993D01*
X15250Y138987D01*
X15203Y138939D01*
X15150Y138895D01*
X15142Y138878D01*
X15129Y138864D01*
X15089Y138758D01*
X15080Y138737D01*
X15080Y138734D01*
X15078Y138730D01*
X14528Y135518D01*
X14489Y135507D01*
X14484Y135505D01*
X14483Y135505D01*
X14482Y135505D01*
X14362Y135445D01*
X14352Y135445D01*
X14336Y135441D01*
X14320Y135444D01*
X14189Y135407D01*
X14184Y135405D01*
X14183Y135405D01*
X14182Y135405D01*
X14062Y135345D01*
X14052Y135345D01*
X14036Y135341D01*
X14020Y135344D01*
X13889Y135307D01*
X13884Y135305D01*
X13883Y135305D01*
X13882Y135305D01*
X13762Y135245D01*
X13652Y135245D01*
X13578Y135228D01*
X13502Y135214D01*
X13493Y135208D01*
X13484Y135205D01*
X13456Y135183D01*
X13384Y135134D01*
X13327Y135077D01*
X13262Y135045D01*
X13252Y135045D01*
X13236Y135041D01*
X13220Y135044D01*
X13089Y135007D01*
X13084Y135005D01*
X13083Y135005D01*
X13082Y135005D01*
X12882Y134905D01*
X12855Y134882D01*
X12784Y134834D01*
X12727Y134777D01*
X12662Y134745D01*
X12652Y134745D01*
X12636Y134741D01*
X12620Y134744D01*
X12489Y134707D01*
X12484Y134705D01*
X12483Y134705D01*
X12482Y134705D01*
X12341Y134634D01*
X9667Y136478D01*
X9655Y136483D01*
X9646Y136492D01*
X9575Y136514D01*
X9506Y136541D01*
X9493Y136540D01*
X9481Y136544D01*
X9408Y136532D01*
X9334Y136526D01*
X9323Y136519D01*
X9310Y136517D01*
X9190Y136440D01*
X6890Y134240D01*
X6876Y134218D01*
X6856Y134202D01*
X6829Y134146D01*
X6795Y134095D01*
X6792Y134069D01*
X6781Y134046D01*
X6782Y133984D01*
X6775Y133923D01*
X6784Y133899D01*
X6784Y133873D01*
X6822Y133793D01*
X6833Y133760D01*
X6840Y133754D01*
X6845Y133743D01*
X8780Y131070D01*
X8740Y130990D01*
X8684Y130934D01*
X8644Y130869D01*
X8600Y130806D01*
X8598Y130795D01*
X8593Y130787D01*
X8589Y130752D01*
X8573Y130666D01*
X8573Y130616D01*
X8565Y130603D01*
X8513Y130535D01*
X8440Y130390D01*
X8384Y130334D01*
X8344Y130269D01*
X8300Y130206D01*
X8298Y130195D01*
X8293Y130187D01*
X8289Y130152D01*
X8273Y130066D01*
X8273Y130016D01*
X8244Y129969D01*
X8200Y129906D01*
X8198Y129895D01*
X8193Y129887D01*
X8189Y129852D01*
X8173Y129766D01*
X8173Y129655D01*
X8140Y129590D01*
X8084Y129534D01*
X8044Y129469D01*
X8000Y129406D01*
X7998Y129395D01*
X7993Y129387D01*
X7989Y129352D01*
X7973Y129266D01*
X7973Y129216D01*
X7944Y129169D01*
X7900Y129106D01*
X7898Y129095D01*
X7893Y129087D01*
X7889Y129052D01*
X7873Y128966D01*
X7873Y128887D01*
X4590Y128340D01*
X4571Y128332D01*
X4551Y128331D01*
X4492Y128299D01*
X4430Y128273D01*
X4417Y128258D01*
X4399Y128248D01*
X4361Y128193D01*
X4317Y128143D01*
X4311Y128123D01*
X4300Y128106D01*
X4284Y128025D01*
X4280Y128015D01*
X4280Y128003D01*
X4279Y128000D01*
X4273Y127975D01*
X4274Y127971D01*
X4273Y127966D01*
X4273Y124766D01*
X4277Y124747D01*
X4275Y124728D01*
X4297Y124663D01*
X4312Y124597D01*
X4325Y124582D01*
X4331Y124564D01*
X4379Y124516D01*
X4422Y124464D01*
X4440Y124456D01*
X4454Y124442D01*
X4560Y124402D01*
X4580Y124393D01*
X4584Y124393D01*
X4588Y124392D01*
X7876Y123828D01*
X7911Y123703D01*
X7912Y123697D01*
X7913Y123697D01*
X7913Y123696D01*
X7973Y123576D01*
X7973Y123566D01*
X7976Y123550D01*
X7974Y123534D01*
X8011Y123403D01*
X8012Y123397D01*
X8013Y123397D01*
X8013Y123396D01*
X8073Y123276D01*
X8073Y123266D01*
X8076Y123250D01*
X8074Y123234D01*
X8111Y123103D01*
X8112Y123097D01*
X8113Y123097D01*
X8113Y123096D01*
X8273Y122776D01*
X8273Y122766D01*
X8276Y122750D01*
X8274Y122734D01*
X8311Y122603D01*
X8312Y122597D01*
X8313Y122597D01*
X8313Y122596D01*
X8413Y122396D01*
X8436Y122368D01*
X8484Y122298D01*
X8540Y122241D01*
X8573Y122176D01*
X8573Y122166D01*
X8576Y122150D01*
X8574Y122134D01*
X8611Y122003D01*
X8612Y121997D01*
X8613Y121997D01*
X8613Y121996D01*
X8713Y121796D01*
X8736Y121768D01*
X8784Y121698D01*
X8794Y121687D01*
X6849Y119093D01*
X6839Y119071D01*
X6822Y119052D01*
X6804Y118992D01*
X6779Y118935D01*
X6780Y118910D01*
X6773Y118886D01*
X6784Y118825D01*
X6787Y118762D01*
X6799Y118740D01*
X6804Y118716D01*
X6855Y118641D01*
X6871Y118611D01*
X6878Y118606D01*
X6884Y118598D01*
X9184Y116298D01*
X9198Y116289D01*
X9209Y116275D01*
X9271Y116243D01*
X9331Y116206D01*
X9348Y116205D01*
X9363Y116197D01*
X9434Y116197D01*
X9503Y116190D01*
X9519Y116196D01*
X9536Y116196D01*
X9654Y116248D01*
X9665Y116252D01*
X9666Y116253D01*
X9667Y116253D01*
X12366Y118115D01*
X12384Y118098D01*
X12449Y118057D01*
X12511Y118013D01*
X12523Y118011D01*
X12531Y118006D01*
X12566Y118003D01*
X12581Y118000D01*
X12584Y117998D01*
X12649Y117957D01*
X12711Y117913D01*
X12723Y117911D01*
X12731Y117906D01*
X12766Y117903D01*
X12852Y117886D01*
X12902Y117886D01*
X12949Y117857D01*
X13011Y117813D01*
X13023Y117811D01*
X13031Y117806D01*
X13066Y117803D01*
X13081Y117800D01*
X13084Y117798D01*
X13149Y117757D01*
X13211Y117713D01*
X13223Y117711D01*
X13231Y117706D01*
X13266Y117703D01*
X13281Y117700D01*
X13284Y117698D01*
X13349Y117657D01*
X13411Y117613D01*
X13423Y117611D01*
X13431Y117606D01*
X13466Y117603D01*
X13495Y117597D01*
X13522Y117564D01*
X13541Y117556D01*
X13556Y117541D01*
X13619Y117521D01*
X13680Y117493D01*
X13701Y117494D01*
X13720Y117488D01*
X13786Y117498D01*
X13853Y117500D01*
X13871Y117510D01*
X13891Y117513D01*
X13946Y117551D01*
X14005Y117583D01*
X14017Y117600D01*
X14033Y117612D01*
X14090Y117704D01*
X14104Y117725D01*
X14105Y117730D01*
X14108Y117734D01*
X16108Y123134D01*
X16112Y123165D01*
X16124Y123193D01*
X16122Y123249D01*
X16129Y123306D01*
X16119Y123335D01*
X16118Y123366D01*
X16091Y123416D01*
X16072Y123469D01*
X16050Y123491D01*
X16035Y123518D01*
X15975Y123564D01*
X15948Y123590D01*
X15935Y123594D01*
X15922Y123605D01*
X15377Y123877D01*
X15220Y124034D01*
X15190Y124053D01*
X15122Y124105D01*
X14977Y124177D01*
X14664Y124490D01*
X14591Y124635D01*
X14568Y124663D01*
X14520Y124734D01*
X14364Y124890D01*
X14303Y125011D01*
X14212Y125286D01*
X14200Y125305D01*
X14191Y125335D01*
X14131Y125455D01*
X14131Y125566D01*
X14123Y125601D01*
X14112Y125686D01*
X14031Y125927D01*
X14031Y126704D01*
X14112Y126946D01*
X14115Y126982D01*
X14131Y127066D01*
X14131Y127251D01*
X14268Y127455D01*
X14281Y127490D01*
X14312Y127546D01*
X14396Y127798D01*
X14747Y128324D01*
X15094Y128671D01*
X15620Y129022D01*
X15872Y129106D01*
X15890Y129117D01*
X15904Y129120D01*
X15917Y129131D01*
X15962Y129150D01*
X16167Y129286D01*
X16352Y129286D01*
X16387Y129295D01*
X16472Y129306D01*
X16714Y129386D01*
X17305Y129386D01*
X17660Y129298D01*
X17696Y129297D01*
X17752Y129286D01*
X17937Y129286D01*
X18142Y129150D01*
X18177Y129137D01*
X18226Y129109D01*
X18228Y129108D01*
X18229Y129108D01*
X18232Y129106D01*
X18484Y129022D01*
X18711Y128871D01*
X18884Y128698D01*
X18910Y128681D01*
X18942Y128650D01*
X19211Y128471D01*
X19357Y128324D01*
X19708Y127798D01*
X20073Y126704D01*
X20073Y126227D01*
X19992Y125986D01*
X19989Y125950D01*
X19973Y125866D01*
X19973Y125655D01*
X19813Y125335D01*
X19807Y125313D01*
X19792Y125286D01*
X19701Y125011D01*
X19540Y124690D01*
X19384Y124534D01*
X19365Y124503D01*
X19313Y124435D01*
X19240Y124290D01*
X19127Y124177D01*
X18982Y124105D01*
X18955Y124082D01*
X18884Y124034D01*
X18727Y123877D01*
X18406Y123717D01*
X18132Y123625D01*
X18083Y123595D01*
X18030Y123573D01*
X18010Y123551D01*
X17985Y123535D01*
X17954Y123486D01*
X17917Y123443D01*
X17909Y123414D01*
X17893Y123388D01*
X17887Y123331D01*
X17873Y123275D01*
X17879Y123241D01*
X17876Y123216D01*
X17888Y123184D01*
X17896Y123134D01*
X19896Y117734D01*
X19922Y117696D01*
X19938Y117653D01*
X19969Y117625D01*
X19992Y117590D01*
X20032Y117567D01*
X20065Y117536D01*
X20105Y117524D01*
X20142Y117503D01*
X20187Y117500D01*
X20231Y117487D01*
X20272Y117494D01*
X20314Y117492D01*
X20357Y117509D01*
X20402Y117517D01*
X20443Y117545D01*
X20474Y117558D01*
X20491Y117578D01*
X20504Y117586D01*
X20552Y117586D01*
X20626Y117604D01*
X20702Y117617D01*
X20711Y117624D01*
X20720Y117626D01*
X20748Y117649D01*
X20820Y117698D01*
X20827Y117704D01*
X20902Y117717D01*
X20911Y117724D01*
X20920Y117726D01*
X20948Y117749D01*
X21020Y117798D01*
X21027Y117804D01*
X21102Y117817D01*
X21111Y117824D01*
X21120Y117826D01*
X21148Y117849D01*
X21220Y117898D01*
X21227Y117904D01*
X21302Y117917D01*
X21311Y117924D01*
X21320Y117926D01*
X21348Y117949D01*
X21420Y117998D01*
X21427Y118004D01*
X21502Y118017D01*
X21511Y118024D01*
X21520Y118026D01*
X21548Y118049D01*
X21620Y118098D01*
X21627Y118104D01*
X21702Y118117D01*
X21711Y118124D01*
X21720Y118126D01*
X21721Y118126D01*
X24437Y116253D01*
X24457Y116246D01*
X24473Y116232D01*
X24536Y116214D01*
X24598Y116190D01*
X24619Y116192D01*
X24640Y116187D01*
X24704Y116200D01*
G37*
G36*
X247026Y164781D02*
X247026Y164781D01*
X247030Y164778D01*
X247525Y164877D01*
X248020Y164877D01*
X248031Y164885D01*
X248038Y164880D01*
X249538Y165480D01*
X249543Y165488D01*
X249550Y165487D01*
X250350Y166087D01*
X250351Y166092D01*
X250355Y166091D01*
X251055Y166791D01*
X251056Y166800D01*
X251062Y166801D01*
X251362Y167301D01*
X251362Y167304D01*
X251364Y167304D01*
X251564Y167704D01*
X251563Y167707D01*
X251566Y167708D01*
X251766Y168208D01*
X251765Y168210D01*
X251767Y168211D01*
X251764Y168214D01*
X251768Y168216D01*
X252068Y169716D01*
X252065Y169723D01*
X252069Y169726D01*
X252069Y170226D01*
X252065Y170232D01*
X252068Y170236D01*
X251768Y171736D01*
X251761Y171742D01*
X251764Y171748D01*
X251564Y172148D01*
X251561Y172149D01*
X251562Y172151D01*
X251263Y172649D01*
X251064Y173048D01*
X251054Y173053D01*
X251055Y173061D01*
X250355Y173761D01*
X250350Y173762D01*
X250350Y173765D01*
X249950Y174065D01*
X249946Y174065D01*
X249945Y174068D01*
X249445Y174368D01*
X249442Y174368D01*
X249442Y174370D01*
X249042Y174570D01*
X249039Y174569D01*
X249038Y174572D01*
X248038Y174972D01*
X248031Y174970D01*
X248029Y174972D01*
X248023Y174972D01*
X248020Y174975D01*
X247525Y174975D01*
X247030Y175074D01*
X247023Y175071D01*
X247020Y175075D01*
X225120Y175075D01*
X225114Y175071D01*
X225110Y175074D01*
X224110Y174874D01*
X224106Y174869D01*
X224102Y174872D01*
X223102Y174472D01*
X223097Y174464D01*
X223090Y174465D01*
X221890Y173565D01*
X221888Y173556D01*
X221881Y173556D01*
X220981Y172356D01*
X220981Y172346D01*
X220974Y172344D01*
X220574Y171344D01*
X220575Y171342D01*
X220573Y171340D01*
X220574Y171339D01*
X220572Y171338D01*
X220472Y170938D01*
X220473Y170935D01*
X220471Y170934D01*
X220371Y170334D01*
X220374Y170329D01*
X220371Y170326D01*
X220371Y169326D01*
X220375Y169320D01*
X220372Y169316D01*
X220572Y168316D01*
X220579Y168310D01*
X220576Y168304D01*
X220776Y167904D01*
X220779Y167903D01*
X220778Y167901D01*
X221077Y167403D01*
X221276Y167004D01*
X221282Y167001D01*
X221281Y166996D01*
X221581Y166596D01*
X221586Y166595D01*
X221585Y166591D01*
X221985Y166191D01*
X221990Y166190D01*
X221990Y166187D01*
X223190Y165287D01*
X223200Y165287D01*
X223202Y165280D01*
X223702Y165080D01*
X223708Y165082D01*
X223710Y165078D01*
X225210Y164778D01*
X225217Y164781D01*
X225220Y164777D01*
X247020Y164777D01*
X247026Y164781D01*
G37*
G36*
X117727Y223712D02*
X117727Y223712D01*
X117778Y223714D01*
X117810Y223731D01*
X117846Y223739D01*
X117885Y223772D01*
X117930Y223796D01*
X117951Y223826D01*
X117980Y223850D01*
X118001Y223896D01*
X118030Y223938D01*
X118038Y223980D01*
X118051Y224008D01*
X118049Y224038D01*
X118058Y224080D01*
X118058Y236880D01*
X118053Y236898D01*
X118055Y236922D01*
X117855Y238722D01*
X117844Y238753D01*
X117838Y238801D01*
X117638Y239401D01*
X117626Y239421D01*
X117617Y239450D01*
X117317Y240050D01*
X117309Y240060D01*
X117303Y240076D01*
X117003Y240576D01*
X116989Y240591D01*
X116981Y240609D01*
X116903Y240679D01*
X116883Y240700D01*
X116878Y240702D01*
X116873Y240706D01*
X116390Y240996D01*
X116005Y241284D01*
X115971Y241300D01*
X115918Y241333D01*
X114918Y241733D01*
X114885Y241738D01*
X114840Y241755D01*
X114240Y241855D01*
X114213Y241854D01*
X114177Y241861D01*
X113377Y241861D01*
X113342Y241852D01*
X113285Y241849D01*
X112930Y241761D01*
X112777Y241761D01*
X112762Y241757D01*
X112747Y241759D01*
X112615Y241723D01*
X112609Y241721D01*
X112608Y241721D01*
X112607Y241720D01*
X112407Y241620D01*
X112388Y241604D01*
X112365Y241595D01*
X112322Y241550D01*
X112274Y241510D01*
X112264Y241487D01*
X112247Y241468D01*
X112229Y241408D01*
X112204Y241351D01*
X112205Y241326D01*
X112198Y241302D01*
X112208Y241241D01*
X112211Y241178D01*
X112223Y241156D01*
X112227Y241132D01*
X112277Y241058D01*
X112294Y241026D01*
X112302Y241021D01*
X112308Y241011D01*
X112408Y240911D01*
X112440Y240892D01*
X112507Y240840D01*
X112907Y240640D01*
X112930Y240635D01*
X112957Y240620D01*
X113172Y240548D01*
X113482Y240238D01*
X113633Y240012D01*
X113697Y239819D01*
X113697Y239642D01*
X113625Y239426D01*
X113465Y239106D01*
X113235Y238876D01*
X112999Y238719D01*
X112568Y238546D01*
X112140Y238461D01*
X111424Y238461D01*
X110733Y238633D01*
X110237Y238964D01*
X109917Y239365D01*
X109758Y239842D01*
X109758Y240402D01*
X110003Y240975D01*
X110663Y241730D01*
X111461Y242628D01*
X111462Y242629D01*
X111463Y242630D01*
X112163Y243430D01*
X112179Y243459D01*
X112210Y243496D01*
X112710Y244396D01*
X112720Y244433D01*
X112748Y244498D01*
X112948Y245398D01*
X112948Y245432D01*
X112958Y245480D01*
X112958Y246280D01*
X112949Y246317D01*
X112938Y246401D01*
X112638Y247301D01*
X112617Y247334D01*
X112587Y247401D01*
X112087Y248101D01*
X112061Y248124D01*
X112030Y248164D01*
X111130Y248964D01*
X111099Y248981D01*
X111059Y249014D01*
X109959Y249614D01*
X109923Y249624D01*
X109845Y249654D01*
X108745Y249854D01*
X108716Y249853D01*
X108677Y249861D01*
X107677Y249861D01*
X107641Y249852D01*
X107557Y249841D01*
X106657Y249541D01*
X106651Y249538D01*
X106644Y249536D01*
X105844Y249236D01*
X105829Y249226D01*
X105807Y249220D01*
X105641Y249137D01*
X105207Y248920D01*
X105185Y248902D01*
X105149Y248884D01*
X104749Y248584D01*
X104734Y248566D01*
X104708Y248549D01*
X104608Y248449D01*
X104595Y248427D01*
X104575Y248411D01*
X104550Y248354D01*
X104517Y248302D01*
X104515Y248276D01*
X104504Y248253D01*
X104506Y248191D01*
X104500Y248129D01*
X104510Y248105D01*
X104511Y248080D01*
X104540Y248025D01*
X104562Y247968D01*
X104581Y247950D01*
X104593Y247927D01*
X104644Y247892D01*
X104689Y247850D01*
X104714Y247842D01*
X104735Y247828D01*
X104820Y247811D01*
X104855Y247801D01*
X104865Y247802D01*
X104877Y247800D01*
X105177Y247800D01*
X105214Y247809D01*
X105298Y247820D01*
X105539Y247900D01*
X105730Y247900D01*
X106085Y247811D01*
X106093Y247811D01*
X106103Y247807D01*
X106553Y247717D01*
X106877Y247556D01*
X107197Y247315D01*
X107333Y247112D01*
X107417Y246860D01*
X107429Y246840D01*
X107437Y246810D01*
X107525Y246635D01*
X107576Y246480D01*
X107517Y246301D01*
X107515Y246287D01*
X107508Y246272D01*
X107424Y245936D01*
X107261Y245691D01*
X107254Y245672D01*
X107237Y245650D01*
X107065Y245306D01*
X106835Y245076D01*
X106566Y244897D01*
X106560Y244890D01*
X106549Y244884D01*
X106158Y244591D01*
X105886Y244410D01*
X105455Y244194D01*
X105454Y244194D01*
X105188Y244061D01*
X104639Y244061D01*
X104446Y244125D01*
X104297Y244224D01*
X104158Y244642D01*
X104158Y245380D01*
X104146Y245431D01*
X104145Y245452D01*
X104144Y245475D01*
X104144Y245482D01*
X104126Y245514D01*
X104118Y245549D01*
X104085Y245589D01*
X104060Y245634D01*
X104031Y245655D01*
X104008Y245683D01*
X103961Y245704D01*
X103918Y245733D01*
X103883Y245739D01*
X103850Y245754D01*
X103798Y245752D01*
X103747Y245759D01*
X103707Y245748D01*
X103677Y245747D01*
X103649Y245732D01*
X103607Y245720D01*
X103597Y245715D01*
X103596Y245715D01*
X102836Y245335D01*
X102807Y245320D01*
X102803Y245317D01*
X102693Y245233D01*
X101893Y244333D01*
X101878Y244305D01*
X101849Y244272D01*
X101149Y243072D01*
X101140Y243044D01*
X101119Y243008D01*
X100619Y241608D01*
X100616Y241582D01*
X100604Y241550D01*
X100304Y239950D01*
X100305Y239914D01*
X100298Y239859D01*
X100398Y238059D01*
X100407Y238027D01*
X100411Y237978D01*
X100911Y236178D01*
X100928Y236147D01*
X100945Y236096D01*
X101945Y234296D01*
X101962Y234277D01*
X101977Y234247D01*
X102677Y233347D01*
X102685Y233341D01*
X102689Y233334D01*
X102698Y233327D01*
X102708Y233311D01*
X103508Y232511D01*
X103518Y232505D01*
X103527Y232494D01*
X104327Y231794D01*
X104352Y231781D01*
X104382Y231754D01*
X105382Y231154D01*
X105407Y231146D01*
X105436Y231127D01*
X106436Y230727D01*
X106455Y230724D01*
X106477Y230713D01*
X107577Y230413D01*
X107594Y230413D01*
X107615Y230405D01*
X108815Y230205D01*
X108842Y230207D01*
X108877Y230200D01*
X110746Y230200D01*
X111244Y230117D01*
X111660Y229867D01*
X112610Y229107D01*
X113085Y228537D01*
X113098Y228527D01*
X113108Y228511D01*
X114386Y227234D01*
X114868Y226559D01*
X114888Y226541D01*
X114908Y226511D01*
X115496Y225924D01*
X115985Y225337D01*
X115998Y225327D01*
X116008Y225311D01*
X116489Y224830D01*
X116773Y224452D01*
X116791Y224437D01*
X116808Y224411D01*
X117082Y224138D01*
X117261Y223869D01*
X117281Y223851D01*
X117293Y223827D01*
X117343Y223792D01*
X117387Y223751D01*
X117413Y223743D01*
X117435Y223728D01*
X117517Y223712D01*
X117553Y223701D01*
X117564Y223703D01*
X117577Y223700D01*
X117677Y223700D01*
X117727Y223712D01*
G37*
G36*
X163416Y198211D02*
X163416Y198211D01*
X163478Y198214D01*
X163501Y198226D01*
X163526Y198230D01*
X163597Y198279D01*
X163630Y198296D01*
X163636Y198304D01*
X163646Y198311D01*
X164531Y199196D01*
X166015Y200383D01*
X166026Y200398D01*
X166046Y200411D01*
X166931Y201296D01*
X167415Y201683D01*
X167421Y201691D01*
X167430Y201696D01*
X167474Y201759D01*
X167522Y201820D01*
X167524Y201830D01*
X167530Y201838D01*
X167546Y201919D01*
X167551Y201930D01*
X167550Y201942D01*
X167558Y201980D01*
X167558Y220480D01*
X167556Y220485D01*
X167557Y220489D01*
X167537Y220569D01*
X167518Y220649D01*
X167515Y220652D01*
X167514Y220657D01*
X167460Y220719D01*
X167408Y220783D01*
X167404Y220784D01*
X167401Y220788D01*
X167269Y220849D01*
X166869Y220949D01*
X166861Y220949D01*
X166852Y220953D01*
X166352Y221053D01*
X166320Y221052D01*
X166277Y221061D01*
X165824Y221061D01*
X165469Y221149D01*
X165461Y221149D01*
X165452Y221153D01*
X164961Y221251D01*
X164569Y221349D01*
X164561Y221349D01*
X164552Y221353D01*
X163552Y221553D01*
X163551Y221553D01*
X163550Y221554D01*
X163465Y221550D01*
X163379Y221548D01*
X163378Y221547D01*
X163377Y221547D01*
X163302Y221506D01*
X163226Y221466D01*
X163225Y221465D01*
X163224Y221464D01*
X163176Y221395D01*
X163125Y221325D01*
X163125Y221323D01*
X163097Y221180D01*
X163097Y220398D01*
X162946Y220549D01*
X162930Y220559D01*
X162915Y220577D01*
X162415Y220977D01*
X162395Y220987D01*
X162373Y221006D01*
X161373Y221606D01*
X161361Y221610D01*
X161240Y221655D01*
X160040Y221855D01*
X160013Y221854D01*
X159977Y221861D01*
X159277Y221861D01*
X159266Y221858D01*
X159252Y221860D01*
X157752Y221760D01*
X157715Y221748D01*
X157649Y221738D01*
X156249Y221238D01*
X156220Y221220D01*
X156173Y221201D01*
X155073Y220501D01*
X155046Y220473D01*
X154995Y220435D01*
X154095Y219435D01*
X154082Y219411D01*
X154056Y219384D01*
X153356Y218284D01*
X153344Y218248D01*
X153314Y218192D01*
X152914Y216892D01*
X152913Y216877D01*
X152905Y216860D01*
X152605Y215460D01*
X152606Y215436D01*
X152598Y215406D01*
X152498Y213906D01*
X152502Y213883D01*
X152498Y213853D01*
X152598Y212453D01*
X152606Y212429D01*
X152607Y212395D01*
X152907Y211095D01*
X152919Y211070D01*
X152926Y211034D01*
X153426Y209834D01*
X153437Y209820D01*
X153443Y209798D01*
X154043Y208698D01*
X154069Y208669D01*
X154108Y208611D01*
X155008Y207711D01*
X155030Y207698D01*
X155054Y207673D01*
X156154Y206873D01*
X156189Y206858D01*
X156257Y206820D01*
X157457Y206420D01*
X157487Y206417D01*
X157527Y206403D01*
X159027Y206203D01*
X159066Y206207D01*
X159140Y206205D01*
X160940Y206505D01*
X160976Y206520D01*
X161047Y206540D01*
X161177Y206605D01*
X161647Y206840D01*
X161657Y206849D01*
X161673Y206854D01*
X162673Y207454D01*
X162693Y207474D01*
X162774Y207543D01*
X162997Y207821D01*
X162997Y198580D01*
X163003Y198555D01*
X163000Y198529D01*
X163022Y198472D01*
X163036Y198412D01*
X163053Y198392D01*
X163062Y198368D01*
X163107Y198326D01*
X163147Y198278D01*
X163170Y198267D01*
X163189Y198250D01*
X163248Y198232D01*
X163305Y198207D01*
X163331Y198208D01*
X163355Y198201D01*
X163416Y198211D01*
G37*
G36*
X147408Y206207D02*
X147408Y206207D01*
X147452Y206207D01*
X147915Y206300D01*
X148377Y206300D01*
X148413Y206308D01*
X148469Y206311D01*
X148869Y206411D01*
X148890Y206422D01*
X148918Y206427D01*
X149418Y206627D01*
X149430Y206635D01*
X149447Y206640D01*
X149847Y206840D01*
X149863Y206853D01*
X149888Y206864D01*
X150169Y207051D01*
X150547Y207240D01*
X150576Y207264D01*
X150646Y207311D01*
X150946Y207611D01*
X150963Y207638D01*
X150994Y207669D01*
X151188Y207961D01*
X151481Y208352D01*
X151485Y208361D01*
X151494Y208369D01*
X151694Y208669D01*
X151694Y208671D01*
X151695Y208672D01*
X151750Y208806D01*
X151840Y209256D01*
X152017Y209610D01*
X152021Y209625D01*
X152030Y209638D01*
X152056Y209772D01*
X152058Y209779D01*
X152057Y209779D01*
X152058Y209780D01*
X152058Y210243D01*
X152150Y210706D01*
X152150Y210716D01*
X152151Y210848D01*
X151951Y211948D01*
X151942Y211970D01*
X151938Y212001D01*
X151638Y212901D01*
X151622Y212927D01*
X151607Y212969D01*
X151207Y213669D01*
X151185Y213693D01*
X151125Y213769D01*
X150425Y214369D01*
X150398Y214383D01*
X150366Y214410D01*
X149666Y214810D01*
X149641Y214818D01*
X149611Y214836D01*
X148811Y215136D01*
X148792Y215139D01*
X148769Y215149D01*
X147969Y215349D01*
X147947Y215350D01*
X147919Y215358D01*
X147019Y215458D01*
X145225Y215658D01*
X144557Y215753D01*
X143890Y215944D01*
X143337Y216128D01*
X142937Y216368D01*
X142758Y216607D01*
X142758Y217491D01*
X142990Y217955D01*
X143046Y218011D01*
X143066Y218043D01*
X143117Y218110D01*
X143161Y218197D01*
X143567Y218400D01*
X143677Y218400D01*
X143692Y218404D01*
X143708Y218401D01*
X143839Y218438D01*
X143846Y218439D01*
X143847Y218440D01*
X143967Y218500D01*
X145588Y218500D01*
X146452Y218068D01*
X146765Y217755D01*
X146825Y217635D01*
X146917Y217360D01*
X146929Y217340D01*
X146937Y217310D01*
X146997Y217191D01*
X146997Y216780D01*
X147009Y216731D01*
X147011Y216680D01*
X147028Y216647D01*
X147036Y216612D01*
X147069Y216572D01*
X147093Y216527D01*
X147123Y216506D01*
X147147Y216478D01*
X147193Y216457D01*
X147235Y216428D01*
X147277Y216420D01*
X147305Y216407D01*
X147335Y216408D01*
X147377Y216400D01*
X151277Y216400D01*
X151357Y216419D01*
X151437Y216435D01*
X151441Y216438D01*
X151446Y216439D01*
X151509Y216492D01*
X151573Y216542D01*
X151576Y216546D01*
X151580Y216550D01*
X151613Y216624D01*
X151648Y216698D01*
X151649Y216704D01*
X151651Y216708D01*
X151649Y216736D01*
X151652Y216843D01*
X151452Y218043D01*
X151442Y218066D01*
X151442Y218068D01*
X151441Y218088D01*
X151439Y218093D01*
X151438Y218101D01*
X151238Y218701D01*
X151218Y218733D01*
X151181Y218808D01*
X150893Y219193D01*
X150603Y219676D01*
X150591Y219688D01*
X150581Y219708D01*
X150281Y220108D01*
X150256Y220130D01*
X150250Y220142D01*
X150234Y220153D01*
X150205Y220184D01*
X149805Y220484D01*
X149789Y220491D01*
X149773Y220506D01*
X148773Y221106D01*
X148748Y221114D01*
X148718Y221133D01*
X148218Y221333D01*
X148189Y221338D01*
X148152Y221353D01*
X147675Y221448D01*
X147098Y221641D01*
X147072Y221643D01*
X147040Y221655D01*
X146447Y221754D01*
X145952Y221853D01*
X145920Y221852D01*
X145877Y221861D01*
X143577Y221861D01*
X143547Y221853D01*
X143503Y221853D01*
X143040Y221761D01*
X142477Y221761D01*
X142447Y221753D01*
X142403Y221753D01*
X141903Y221653D01*
X141876Y221641D01*
X141836Y221633D01*
X141368Y221446D01*
X140903Y221353D01*
X140876Y221341D01*
X140836Y221333D01*
X140336Y221133D01*
X140305Y221112D01*
X140249Y221084D01*
X139049Y220184D01*
X139024Y220155D01*
X138973Y220108D01*
X138673Y219708D01*
X138661Y219682D01*
X138637Y219650D01*
X138437Y219250D01*
X138434Y219237D01*
X138424Y219221D01*
X138224Y218721D01*
X138220Y218692D01*
X138204Y218655D01*
X138104Y218155D01*
X138105Y218123D01*
X138097Y218080D01*
X138097Y209470D01*
X138037Y209350D01*
X138034Y209335D01*
X138025Y209323D01*
X137999Y209188D01*
X137997Y209182D01*
X137997Y209181D01*
X137997Y209180D01*
X137997Y208370D01*
X137937Y208250D01*
X137934Y208235D01*
X137925Y208223D01*
X137916Y208176D01*
X137914Y208174D01*
X137915Y208171D01*
X137899Y208088D01*
X137897Y208082D01*
X137897Y208081D01*
X137897Y208080D01*
X137897Y207970D01*
X137837Y207850D01*
X137834Y207835D01*
X137825Y207823D01*
X137799Y207688D01*
X137797Y207682D01*
X137797Y207681D01*
X137797Y207680D01*
X137797Y207470D01*
X137765Y207406D01*
X137708Y207349D01*
X137668Y207285D01*
X137625Y207223D01*
X137622Y207210D01*
X137617Y207202D01*
X137613Y207165D01*
X137597Y207080D01*
X137597Y206980D01*
X137609Y206931D01*
X137611Y206880D01*
X137628Y206847D01*
X137636Y206812D01*
X137669Y206772D01*
X137693Y206727D01*
X137723Y206706D01*
X137747Y206678D01*
X137793Y206657D01*
X137835Y206628D01*
X137877Y206620D01*
X137905Y206607D01*
X137935Y206608D01*
X137977Y206600D01*
X141877Y206600D01*
X141927Y206612D01*
X141978Y206614D01*
X142010Y206631D01*
X142046Y206639D01*
X142085Y206672D01*
X142130Y206696D01*
X142151Y206726D01*
X142180Y206750D01*
X142201Y206796D01*
X142230Y206838D01*
X142238Y206880D01*
X142251Y206908D01*
X142250Y206918D01*
X142286Y206976D01*
X142330Y207038D01*
X142332Y207050D01*
X142338Y207059D01*
X142341Y207096D01*
X142344Y207109D01*
X142346Y207111D01*
X142386Y207176D01*
X142430Y207238D01*
X142432Y207250D01*
X142438Y207259D01*
X142441Y207296D01*
X142458Y207380D01*
X142458Y207530D01*
X142470Y207550D01*
X142608Y207411D01*
X142635Y207395D01*
X142666Y207364D01*
X142966Y207164D01*
X143002Y207151D01*
X143057Y207120D01*
X143309Y207036D01*
X143566Y206864D01*
X143602Y206851D01*
X143657Y206820D01*
X144857Y206420D01*
X144895Y206416D01*
X144977Y206400D01*
X145216Y206400D01*
X145457Y206320D01*
X145495Y206316D01*
X145577Y206300D01*
X145916Y206300D01*
X146157Y206220D01*
X146195Y206216D01*
X146277Y206200D01*
X147377Y206200D01*
X147408Y206207D01*
G37*
G36*
X116410Y206608D02*
X116410Y206608D01*
X116443Y206606D01*
X116493Y206627D01*
X116546Y206639D01*
X116572Y206661D01*
X116602Y206674D01*
X116650Y206725D01*
X116680Y206750D01*
X116686Y206765D01*
X116701Y206780D01*
X120357Y212686D01*
X121397Y211715D01*
X121397Y206980D01*
X121409Y206931D01*
X121411Y206880D01*
X121428Y206847D01*
X121436Y206812D01*
X121469Y206772D01*
X121493Y206727D01*
X121523Y206706D01*
X121547Y206678D01*
X121593Y206657D01*
X121635Y206628D01*
X121677Y206620D01*
X121705Y206607D01*
X121735Y206608D01*
X121777Y206600D01*
X125677Y206600D01*
X125727Y206612D01*
X125778Y206614D01*
X125810Y206631D01*
X125846Y206639D01*
X125885Y206672D01*
X125930Y206696D01*
X125951Y206726D01*
X125980Y206750D01*
X126001Y206796D01*
X126030Y206838D01*
X126038Y206880D01*
X126051Y206908D01*
X126049Y206938D01*
X126058Y206980D01*
X126058Y224380D01*
X126047Y224424D01*
X126047Y224468D01*
X126028Y224507D01*
X126018Y224549D01*
X125990Y224583D01*
X125970Y224623D01*
X125930Y224656D01*
X125908Y224683D01*
X125884Y224693D01*
X125858Y224715D01*
X121958Y226815D01*
X121902Y226830D01*
X121850Y226854D01*
X121820Y226852D01*
X121790Y226860D01*
X121734Y226849D01*
X121677Y226847D01*
X121650Y226832D01*
X121620Y226827D01*
X121575Y226792D01*
X121524Y226764D01*
X121507Y226740D01*
X121483Y226721D01*
X121458Y226669D01*
X121425Y226623D01*
X121418Y226589D01*
X121407Y226565D01*
X121407Y226531D01*
X121397Y226480D01*
X121397Y217025D01*
X117151Y221444D01*
X117085Y221487D01*
X117020Y221533D01*
X117012Y221534D01*
X117006Y221538D01*
X116974Y221542D01*
X116877Y221561D01*
X112277Y221561D01*
X112250Y221554D01*
X112223Y221557D01*
X112167Y221535D01*
X112109Y221521D01*
X112087Y221503D01*
X112062Y221493D01*
X112021Y221449D01*
X111975Y221411D01*
X111964Y221386D01*
X111945Y221365D01*
X111929Y221307D01*
X111904Y221253D01*
X111905Y221225D01*
X111897Y221199D01*
X111908Y221140D01*
X111911Y221080D01*
X111924Y221055D01*
X111929Y221028D01*
X111975Y220961D01*
X111993Y220927D01*
X112003Y220921D01*
X112011Y220909D01*
X117088Y215928D01*
X111359Y207189D01*
X111334Y207120D01*
X111304Y207053D01*
X111305Y207039D01*
X111300Y207026D01*
X111308Y206953D01*
X111311Y206880D01*
X111317Y206867D01*
X111319Y206854D01*
X111358Y206792D01*
X111393Y206727D01*
X111405Y206719D01*
X111412Y206708D01*
X111475Y206670D01*
X111535Y206628D01*
X111550Y206625D01*
X111560Y206618D01*
X111599Y206615D01*
X111677Y206600D01*
X116377Y206600D01*
X116410Y206608D01*
G37*
G36*
X76927Y206612D02*
X76927Y206612D01*
X76978Y206614D01*
X77010Y206631D01*
X77046Y206639D01*
X77085Y206672D01*
X77130Y206696D01*
X77151Y206726D01*
X77180Y206750D01*
X77201Y206796D01*
X77230Y206838D01*
X77238Y206880D01*
X77251Y206908D01*
X77249Y206938D01*
X77258Y206980D01*
X77258Y214957D01*
X77354Y215729D01*
X77453Y216423D01*
X77540Y216947D01*
X77793Y217368D01*
X78037Y217693D01*
X78416Y217920D01*
X78847Y218006D01*
X79385Y218096D01*
X80123Y218004D01*
X80644Y217917D01*
X81023Y217689D01*
X81364Y217263D01*
X81638Y216807D01*
X81906Y216182D01*
X81997Y215359D01*
X81997Y206980D01*
X82009Y206931D01*
X82011Y206880D01*
X82028Y206847D01*
X82036Y206812D01*
X82069Y206772D01*
X82093Y206727D01*
X82123Y206706D01*
X82147Y206678D01*
X82193Y206657D01*
X82235Y206628D01*
X82277Y206620D01*
X82305Y206607D01*
X82335Y206608D01*
X82377Y206600D01*
X86277Y206600D01*
X86327Y206612D01*
X86378Y206614D01*
X86410Y206631D01*
X86446Y206639D01*
X86485Y206672D01*
X86530Y206696D01*
X86551Y206726D01*
X86580Y206750D01*
X86601Y206796D01*
X86630Y206838D01*
X86638Y206880D01*
X86651Y206908D01*
X86649Y206938D01*
X86658Y206980D01*
X86658Y221180D01*
X86646Y221230D01*
X86644Y221281D01*
X86626Y221313D01*
X86618Y221349D01*
X86586Y221388D01*
X86561Y221433D01*
X86531Y221454D01*
X86508Y221483D01*
X86461Y221504D01*
X86420Y221533D01*
X86378Y221541D01*
X86350Y221554D01*
X86319Y221552D01*
X86277Y221561D01*
X82577Y221561D01*
X82528Y221549D01*
X82477Y221547D01*
X82444Y221529D01*
X82409Y221521D01*
X82369Y221489D01*
X82324Y221464D01*
X82303Y221434D01*
X82275Y221411D01*
X82254Y221364D01*
X82225Y221323D01*
X82217Y221281D01*
X82204Y221253D01*
X82205Y221222D01*
X82197Y221180D01*
X82197Y220198D01*
X81946Y220449D01*
X81930Y220459D01*
X81915Y220477D01*
X81415Y220877D01*
X81401Y220884D01*
X81388Y220897D01*
X80788Y221297D01*
X80752Y221310D01*
X80698Y221341D01*
X79498Y221741D01*
X79472Y221743D01*
X79440Y221755D01*
X78840Y221855D01*
X78813Y221854D01*
X78777Y221861D01*
X78177Y221861D01*
X78165Y221858D01*
X78150Y221860D01*
X76750Y221760D01*
X76721Y221750D01*
X76677Y221747D01*
X75577Y221447D01*
X75545Y221430D01*
X75493Y221413D01*
X74593Y220913D01*
X74564Y220887D01*
X74508Y220849D01*
X73808Y220149D01*
X73790Y220120D01*
X73755Y220082D01*
X73255Y219282D01*
X73242Y219246D01*
X73213Y219190D01*
X72913Y218190D01*
X72912Y218171D01*
X72903Y218148D01*
X72703Y217048D01*
X72704Y217031D01*
X72698Y217009D01*
X72598Y215709D01*
X72600Y215696D01*
X72597Y215680D01*
X72597Y206980D01*
X72609Y206931D01*
X72611Y206880D01*
X72628Y206847D01*
X72636Y206812D01*
X72669Y206772D01*
X72693Y206727D01*
X72723Y206706D01*
X72747Y206678D01*
X72793Y206657D01*
X72835Y206628D01*
X72877Y206620D01*
X72905Y206607D01*
X72935Y206608D01*
X72977Y206600D01*
X76877Y206600D01*
X76927Y206612D01*
G37*
G36*
X97904Y206301D02*
X97904Y206301D01*
X97941Y206312D01*
X98007Y206323D01*
X99107Y206723D01*
X99129Y206737D01*
X99162Y206748D01*
X100062Y207248D01*
X100085Y207269D01*
X100125Y207292D01*
X100825Y207892D01*
X100842Y207915D01*
X100910Y207996D01*
X101410Y208896D01*
X101419Y208928D01*
X101441Y208971D01*
X101741Y209971D01*
X101743Y209990D01*
X101751Y210012D01*
X101951Y211112D01*
X101950Y211141D01*
X101958Y211180D01*
X101958Y221180D01*
X101946Y221230D01*
X101944Y221281D01*
X101926Y221313D01*
X101918Y221349D01*
X101886Y221388D01*
X101861Y221433D01*
X101831Y221454D01*
X101808Y221483D01*
X101761Y221504D01*
X101720Y221533D01*
X101678Y221541D01*
X101650Y221554D01*
X101619Y221552D01*
X101577Y221561D01*
X97777Y221561D01*
X97728Y221549D01*
X97677Y221547D01*
X97644Y221529D01*
X97609Y221521D01*
X97569Y221489D01*
X97524Y221464D01*
X97503Y221434D01*
X97475Y221411D01*
X97454Y221364D01*
X97425Y221323D01*
X97417Y221281D01*
X97404Y221253D01*
X97405Y221222D01*
X97397Y221180D01*
X97397Y213204D01*
X97201Y211635D01*
X97117Y211134D01*
X96618Y210468D01*
X96238Y210240D01*
X95808Y210154D01*
X95269Y210064D01*
X94532Y210157D01*
X94011Y210243D01*
X93613Y210482D01*
X93290Y210806D01*
X93022Y211340D01*
X92748Y211981D01*
X92658Y212704D01*
X92658Y221180D01*
X92646Y221230D01*
X92644Y221281D01*
X92626Y221313D01*
X92618Y221349D01*
X92586Y221388D01*
X92561Y221433D01*
X92531Y221454D01*
X92508Y221483D01*
X92461Y221504D01*
X92420Y221533D01*
X92378Y221541D01*
X92350Y221554D01*
X92319Y221552D01*
X92277Y221561D01*
X88377Y221561D01*
X88328Y221549D01*
X88277Y221547D01*
X88244Y221529D01*
X88209Y221521D01*
X88169Y221489D01*
X88124Y221464D01*
X88103Y221434D01*
X88075Y221411D01*
X88054Y221364D01*
X88025Y221323D01*
X88017Y221281D01*
X88004Y221253D01*
X88005Y221222D01*
X87997Y221180D01*
X87997Y206980D01*
X88009Y206931D01*
X88011Y206880D01*
X88028Y206847D01*
X88036Y206812D01*
X88069Y206772D01*
X88093Y206727D01*
X88123Y206706D01*
X88147Y206678D01*
X88193Y206657D01*
X88235Y206628D01*
X88277Y206620D01*
X88305Y206607D01*
X88335Y206608D01*
X88377Y206600D01*
X92077Y206600D01*
X92127Y206612D01*
X92178Y206614D01*
X92210Y206631D01*
X92246Y206639D01*
X92285Y206672D01*
X92330Y206696D01*
X92351Y206726D01*
X92380Y206750D01*
X92401Y206796D01*
X92430Y206838D01*
X92438Y206880D01*
X92451Y206908D01*
X92449Y206938D01*
X92458Y206980D01*
X92458Y207921D01*
X92680Y207643D01*
X92707Y207622D01*
X92740Y207583D01*
X93240Y207183D01*
X93270Y207169D01*
X93307Y207140D01*
X93907Y206840D01*
X93921Y206837D01*
X93936Y206827D01*
X94436Y206627D01*
X94446Y206626D01*
X94457Y206620D01*
X95057Y206420D01*
X95086Y206417D01*
X95123Y206404D01*
X95820Y206304D01*
X96415Y206205D01*
X96450Y206208D01*
X96504Y206201D01*
X97904Y206301D01*
G37*
G36*
X176509Y206301D02*
X176509Y206301D01*
X176522Y206306D01*
X176540Y206305D01*
X177740Y206505D01*
X177756Y206512D01*
X177777Y206513D01*
X178877Y206813D01*
X178905Y206828D01*
X178947Y206840D01*
X179267Y207000D01*
X179947Y207340D01*
X179976Y207364D01*
X180028Y207394D01*
X180828Y208094D01*
X180845Y208119D01*
X180877Y208147D01*
X181577Y209047D01*
X181594Y209082D01*
X181630Y209139D01*
X182030Y210139D01*
X182036Y210174D01*
X182053Y210222D01*
X182253Y211522D01*
X182247Y211602D01*
X182244Y211681D01*
X182240Y211688D01*
X182240Y211695D01*
X182199Y211763D01*
X182161Y211833D01*
X182155Y211838D01*
X182151Y211844D01*
X182084Y211887D01*
X182020Y211933D01*
X182011Y211934D01*
X182006Y211938D01*
X181973Y211942D01*
X181877Y211961D01*
X178177Y211961D01*
X178128Y211949D01*
X178077Y211947D01*
X178044Y211929D01*
X178009Y211921D01*
X177969Y211889D01*
X177924Y211864D01*
X177903Y211834D01*
X177875Y211811D01*
X177854Y211764D01*
X177825Y211723D01*
X177817Y211681D01*
X177804Y211653D01*
X177805Y211622D01*
X177797Y211580D01*
X177797Y211054D01*
X177643Y210668D01*
X177406Y210352D01*
X176723Y209840D01*
X176215Y209755D01*
X176210Y209753D01*
X176203Y209753D01*
X175708Y209654D01*
X175193Y209568D01*
X174869Y209649D01*
X174833Y209650D01*
X174777Y209661D01*
X174424Y209661D01*
X174110Y209739D01*
X173778Y209905D01*
X173427Y210168D01*
X173221Y210375D01*
X173069Y210980D01*
X173136Y211248D01*
X173277Y211530D01*
X173590Y211764D01*
X174037Y212033D01*
X174584Y212215D01*
X176161Y212609D01*
X177152Y212807D01*
X177155Y212809D01*
X177160Y212809D01*
X178060Y213009D01*
X178081Y213019D01*
X178111Y213024D01*
X178911Y213324D01*
X178917Y213329D01*
X178927Y213331D01*
X179627Y213631D01*
X179643Y213642D01*
X179666Y213650D01*
X180366Y214050D01*
X180375Y214058D01*
X180388Y214064D01*
X180988Y214464D01*
X180990Y214466D01*
X180992Y214466D01*
X181094Y214569D01*
X181494Y215169D01*
X181504Y215197D01*
X181527Y215230D01*
X181827Y215930D01*
X181834Y215969D01*
X181839Y215988D01*
X181851Y216014D01*
X181851Y216024D01*
X181855Y216038D01*
X181955Y216938D01*
X181952Y216969D01*
X181956Y217012D01*
X181856Y218212D01*
X181844Y218249D01*
X181830Y218321D01*
X181430Y219321D01*
X181410Y219350D01*
X181363Y219431D01*
X180663Y220231D01*
X180644Y220244D01*
X180625Y220269D01*
X179925Y220869D01*
X179892Y220886D01*
X179847Y220920D01*
X178847Y221420D01*
X178810Y221429D01*
X178752Y221453D01*
X177752Y221653D01*
X177749Y221653D01*
X177745Y221654D01*
X176645Y221854D01*
X176616Y221853D01*
X176577Y221861D01*
X174277Y221861D01*
X174249Y221854D01*
X174209Y221854D01*
X173109Y221654D01*
X173092Y221647D01*
X173068Y221644D01*
X172068Y221344D01*
X172050Y221334D01*
X172023Y221328D01*
X171123Y220928D01*
X171095Y220907D01*
X171049Y220884D01*
X170249Y220284D01*
X170224Y220255D01*
X170173Y220208D01*
X169573Y219408D01*
X169561Y219382D01*
X169537Y219350D01*
X169037Y218350D01*
X169028Y218312D01*
X169002Y218243D01*
X168802Y217043D01*
X168807Y216962D01*
X168811Y216880D01*
X168813Y216875D01*
X168813Y216870D01*
X168854Y216799D01*
X168893Y216727D01*
X168898Y216724D01*
X168900Y216720D01*
X168969Y216674D01*
X169035Y216628D01*
X169041Y216627D01*
X169044Y216624D01*
X169072Y216620D01*
X169177Y216600D01*
X172877Y216600D01*
X172891Y216603D01*
X172904Y216601D01*
X172974Y216623D01*
X173046Y216639D01*
X173057Y216648D01*
X173070Y216652D01*
X173123Y216703D01*
X173180Y216750D01*
X173185Y216762D01*
X173195Y216772D01*
X173250Y216906D01*
X173343Y217371D01*
X173516Y217802D01*
X173651Y218006D01*
X173869Y218151D01*
X174233Y218333D01*
X174651Y218500D01*
X176216Y218500D01*
X176457Y218420D01*
X176470Y218418D01*
X176485Y218411D01*
X176871Y218315D01*
X177033Y218261D01*
X177297Y217865D01*
X177297Y217627D01*
X177227Y217347D01*
X177006Y217052D01*
X176677Y216805D01*
X176132Y216533D01*
X175593Y216353D01*
X174830Y216258D01*
X174811Y216251D01*
X174785Y216249D01*
X172389Y215650D01*
X171495Y215451D01*
X171460Y215435D01*
X171389Y215410D01*
X169989Y214610D01*
X169968Y214591D01*
X169934Y214572D01*
X169334Y214072D01*
X169310Y214041D01*
X169305Y214036D01*
X169304Y214035D01*
X169261Y213991D01*
X168861Y213391D01*
X168851Y213364D01*
X168828Y213330D01*
X168528Y212630D01*
X168521Y212592D01*
X168499Y212522D01*
X168399Y211622D01*
X168404Y211584D01*
X168401Y211522D01*
X168601Y210222D01*
X168613Y210193D01*
X168620Y210150D01*
X169020Y209050D01*
X169041Y209018D01*
X169073Y208952D01*
X169673Y208152D01*
X169698Y208131D01*
X169727Y208094D01*
X170527Y207394D01*
X170560Y207377D01*
X170607Y207340D01*
X171607Y206840D01*
X171638Y206833D01*
X171677Y206813D01*
X172777Y206513D01*
X172794Y206513D01*
X172815Y206505D01*
X174015Y206305D01*
X174029Y206306D01*
X174046Y206301D01*
X175246Y206201D01*
X175273Y206205D01*
X175309Y206201D01*
X176509Y206301D01*
G37*
G36*
X109327Y206612D02*
X109327Y206612D01*
X109378Y206614D01*
X109410Y206631D01*
X109446Y206639D01*
X109485Y206672D01*
X109530Y206696D01*
X109551Y206726D01*
X109580Y206750D01*
X109601Y206796D01*
X109630Y206838D01*
X109638Y206880D01*
X109651Y206908D01*
X109649Y206938D01*
X109658Y206980D01*
X109658Y218200D01*
X113177Y218200D01*
X113228Y218212D01*
X113281Y218214D01*
X113312Y218231D01*
X113346Y218239D01*
X113387Y218273D01*
X113432Y218298D01*
X113452Y218327D01*
X113480Y218350D01*
X113501Y218398D01*
X113531Y218441D01*
X113536Y218476D01*
X113551Y218508D01*
X113549Y218560D01*
X113556Y218612D01*
X113545Y218646D01*
X113544Y218681D01*
X113519Y218727D01*
X113503Y218777D01*
X113475Y218807D01*
X113461Y218833D01*
X113435Y218851D01*
X113405Y218884D01*
X113027Y219168D01*
X111446Y220749D01*
X111426Y220762D01*
X111405Y220784D01*
X111049Y221052D01*
X110781Y221408D01*
X110769Y221419D01*
X110761Y221433D01*
X110703Y221474D01*
X110649Y221520D01*
X110633Y221524D01*
X110620Y221533D01*
X110492Y221558D01*
X110480Y221561D01*
X110479Y221560D01*
X110477Y221561D01*
X109658Y221561D01*
X109658Y223180D01*
X109651Y223206D01*
X109633Y223314D01*
X109333Y224114D01*
X109329Y224120D01*
X109327Y224130D01*
X109027Y224830D01*
X109004Y224862D01*
X108969Y224924D01*
X108469Y225524D01*
X108439Y225546D01*
X108398Y225590D01*
X107698Y226090D01*
X107674Y226100D01*
X107647Y226120D01*
X106847Y226520D01*
X106820Y226527D01*
X106787Y226544D01*
X105787Y226844D01*
X105747Y226847D01*
X105677Y226861D01*
X102777Y226861D01*
X102762Y226857D01*
X102747Y226859D01*
X102615Y226823D01*
X102609Y226821D01*
X102608Y226821D01*
X102607Y226820D01*
X102407Y226720D01*
X102369Y226688D01*
X102324Y226664D01*
X102303Y226634D01*
X102274Y226610D01*
X102254Y226564D01*
X102225Y226523D01*
X102216Y226480D01*
X102204Y226451D01*
X102204Y226436D01*
X102205Y226421D01*
X102197Y226380D01*
X102197Y223580D01*
X102209Y223531D01*
X102211Y223480D01*
X102228Y223447D01*
X102236Y223412D01*
X102269Y223372D01*
X102293Y223327D01*
X102323Y223306D01*
X102347Y223278D01*
X102393Y223257D01*
X102435Y223228D01*
X102477Y223220D01*
X102505Y223207D01*
X102535Y223208D01*
X102577Y223200D01*
X104230Y223200D01*
X104545Y223121D01*
X104817Y222985D01*
X104948Y222789D01*
X104997Y222691D01*
X104997Y222380D01*
X105005Y222345D01*
X105008Y222288D01*
X105097Y221933D01*
X105097Y221561D01*
X102777Y221561D01*
X102728Y221549D01*
X102677Y221547D01*
X102644Y221529D01*
X102609Y221521D01*
X102569Y221489D01*
X102524Y221464D01*
X102503Y221434D01*
X102475Y221411D01*
X102454Y221364D01*
X102425Y221323D01*
X102417Y221281D01*
X102404Y221253D01*
X102405Y221222D01*
X102397Y221180D01*
X102397Y218580D01*
X102409Y218531D01*
X102411Y218480D01*
X102428Y218447D01*
X102436Y218412D01*
X102469Y218372D01*
X102493Y218327D01*
X102523Y218306D01*
X102547Y218278D01*
X102593Y218257D01*
X102635Y218228D01*
X102677Y218220D01*
X102705Y218207D01*
X102735Y218208D01*
X102777Y218200D01*
X105097Y218200D01*
X105097Y206980D01*
X105109Y206931D01*
X105111Y206880D01*
X105128Y206847D01*
X105136Y206812D01*
X105169Y206772D01*
X105193Y206727D01*
X105223Y206706D01*
X105247Y206678D01*
X105293Y206657D01*
X105335Y206628D01*
X105377Y206620D01*
X105405Y206607D01*
X105435Y206608D01*
X105477Y206600D01*
X109277Y206600D01*
X109327Y206612D01*
G37*
G36*
X163904Y171854D02*
X163904Y171854D01*
X163906Y171851D01*
X164706Y171951D01*
X164712Y171957D01*
X164717Y171954D01*
X165517Y172254D01*
X165520Y172259D01*
X165524Y172257D01*
X166224Y172657D01*
X166226Y172661D01*
X166229Y172660D01*
X166929Y173160D01*
X166930Y173163D01*
X166932Y173163D01*
X167632Y173763D01*
X167633Y173769D01*
X167638Y173768D01*
X168138Y174368D01*
X168138Y174371D01*
X168140Y174371D01*
X168640Y175071D01*
X168640Y175084D01*
X168645Y175088D01*
X168639Y175096D01*
X168638Y175131D01*
X168627Y175131D01*
X168626Y175142D01*
X168596Y175160D01*
X168635Y175165D01*
X168633Y175178D01*
X168645Y175181D01*
X168945Y175881D01*
X168944Y175886D01*
X168948Y175888D01*
X169148Y176688D01*
X169146Y176692D01*
X169149Y176694D01*
X169249Y177494D01*
X169247Y177498D01*
X169249Y177500D01*
X169249Y178400D01*
X169247Y178403D01*
X169249Y178405D01*
X169149Y179305D01*
X169145Y179309D01*
X169148Y179312D01*
X168948Y180112D01*
X168944Y180115D01*
X168946Y180117D01*
X168646Y180917D01*
X168638Y180922D01*
X168640Y180929D01*
X168140Y181629D01*
X168137Y181629D01*
X168138Y181632D01*
X167638Y182232D01*
X167634Y182232D01*
X167635Y182235D01*
X167035Y182835D01*
X167029Y182836D01*
X167029Y182840D01*
X166329Y183340D01*
X166323Y183340D01*
X166322Y183344D01*
X165522Y183744D01*
X165514Y183743D01*
X165512Y183748D01*
X164712Y183948D01*
X164708Y183946D01*
X164706Y183949D01*
X163908Y184049D01*
X163410Y184148D01*
X163400Y184143D01*
X163395Y184149D01*
X162495Y184049D01*
X162491Y184045D01*
X162488Y184048D01*
X161688Y183848D01*
X161685Y183844D01*
X161683Y183846D01*
X160883Y183546D01*
X160880Y183541D01*
X160876Y183543D01*
X160176Y183143D01*
X160174Y183139D01*
X160171Y183140D01*
X159471Y182640D01*
X159470Y182634D01*
X159465Y182635D01*
X158865Y182035D01*
X158864Y182029D01*
X158860Y182029D01*
X158360Y181329D01*
X158360Y181325D01*
X158357Y181324D01*
X157957Y180624D01*
X157958Y180619D01*
X157954Y180617D01*
X157654Y179817D01*
X157655Y179813D01*
X157652Y179812D01*
X157452Y179012D01*
X157454Y179007D01*
X157451Y179005D01*
X157351Y178105D01*
X157355Y178098D01*
X157351Y178094D01*
X157451Y177294D01*
X157551Y176395D01*
X157557Y176388D01*
X157554Y176383D01*
X157854Y175583D01*
X157855Y175582D01*
X157855Y175581D01*
X158155Y174881D01*
X158162Y174877D01*
X158160Y174871D01*
X158660Y174171D01*
X158663Y174170D01*
X158663Y174168D01*
X159263Y173468D01*
X159269Y173467D01*
X159268Y173462D01*
X159868Y172962D01*
X159871Y172962D01*
X159871Y172960D01*
X160571Y172460D01*
X160581Y172460D01*
X160583Y172454D01*
X161383Y172154D01*
X161387Y172155D01*
X161388Y172152D01*
X162188Y171952D01*
X162192Y171954D01*
X162194Y171951D01*
X162994Y171851D01*
X162998Y171853D01*
X163000Y171851D01*
X163900Y171851D01*
X163904Y171854D01*
G37*
G36*
X113603Y171853D02*
X113603Y171853D01*
X113605Y171851D01*
X114505Y171951D01*
X114510Y171955D01*
X114514Y171953D01*
X115214Y172153D01*
X115220Y172161D01*
X115226Y172158D01*
X116026Y172658D01*
X116028Y172663D01*
X116032Y172662D01*
X116632Y173162D01*
X116634Y173171D01*
X116640Y173171D01*
X117140Y173871D01*
X117140Y173879D01*
X117145Y173881D01*
X117445Y174581D01*
X117445Y174582D01*
X117446Y174583D01*
X117746Y175383D01*
X117746Y175384D01*
X117745Y175387D01*
X117748Y175388D01*
X117948Y176188D01*
X117944Y176196D01*
X117949Y176200D01*
X117949Y177097D01*
X118049Y177995D01*
X118047Y177998D01*
X118049Y178000D01*
X118049Y178900D01*
X118047Y178903D01*
X118049Y178905D01*
X117949Y179805D01*
X117945Y179809D01*
X117948Y179812D01*
X117748Y180612D01*
X117744Y180615D01*
X117746Y180617D01*
X117446Y181417D01*
X117443Y181419D01*
X117444Y181422D01*
X117044Y182222D01*
X117040Y182224D01*
X117041Y182227D01*
X116642Y182826D01*
X116342Y183325D01*
X116324Y183333D01*
X116322Y183344D01*
X115522Y183744D01*
X115520Y183744D01*
X115519Y183745D01*
X114819Y184045D01*
X114814Y184044D01*
X114812Y184048D01*
X114012Y184248D01*
X114004Y184244D01*
X114000Y184249D01*
X113000Y184249D01*
X112996Y184246D01*
X112994Y184249D01*
X112194Y184149D01*
X112184Y184139D01*
X112176Y184143D01*
X111476Y183743D01*
X111475Y183741D01*
X111474Y183742D01*
X110674Y183242D01*
X110670Y183231D01*
X110662Y183232D01*
X110162Y182632D01*
X110162Y182629D01*
X110160Y182629D01*
X109660Y181929D01*
X109660Y181919D01*
X109654Y181917D01*
X109354Y181117D01*
X109355Y181113D01*
X109352Y181112D01*
X108952Y179512D01*
X108954Y179507D01*
X108951Y179505D01*
X108851Y178605D01*
X108853Y178602D01*
X108851Y178600D01*
X108851Y177700D01*
X108853Y177697D01*
X108851Y177695D01*
X109051Y175895D01*
X109055Y175891D01*
X109052Y175888D01*
X109252Y175088D01*
X109256Y175085D01*
X109254Y175083D01*
X109554Y174283D01*
X109561Y174278D01*
X109559Y174273D01*
X109959Y173673D01*
X109963Y173671D01*
X109962Y173668D01*
X110462Y173068D01*
X110466Y173068D01*
X110465Y173065D01*
X111065Y172465D01*
X111077Y172464D01*
X111078Y172456D01*
X111878Y172056D01*
X111886Y172057D01*
X111888Y172052D01*
X112688Y171852D01*
X112696Y171856D01*
X112700Y171851D01*
X113600Y171851D01*
X113603Y171853D01*
G37*
G36*
X136327Y206612D02*
X136327Y206612D01*
X136378Y206614D01*
X136410Y206631D01*
X136446Y206639D01*
X136485Y206672D01*
X136530Y206696D01*
X136551Y206726D01*
X136580Y206750D01*
X136601Y206796D01*
X136630Y206838D01*
X136638Y206880D01*
X136651Y206908D01*
X136649Y206938D01*
X136658Y206980D01*
X136658Y220480D01*
X136654Y220494D01*
X136657Y220507D01*
X136635Y220577D01*
X136618Y220649D01*
X136609Y220660D01*
X136605Y220673D01*
X136555Y220726D01*
X136508Y220783D01*
X136495Y220788D01*
X136486Y220798D01*
X136352Y220853D01*
X135861Y220951D01*
X135469Y221049D01*
X135433Y221050D01*
X135377Y221061D01*
X134915Y221061D01*
X134461Y221151D01*
X134069Y221249D01*
X134061Y221249D01*
X134052Y221253D01*
X133061Y221451D01*
X132669Y221549D01*
X132659Y221549D01*
X132650Y221554D01*
X132573Y221551D01*
X132496Y221552D01*
X132487Y221547D01*
X132477Y221547D01*
X132409Y221510D01*
X132340Y221477D01*
X132333Y221469D01*
X132324Y221464D01*
X132280Y221401D01*
X132233Y221341D01*
X132231Y221331D01*
X132225Y221323D01*
X132197Y221180D01*
X132197Y219764D01*
X132074Y219918D01*
X132071Y219920D01*
X132069Y219924D01*
X131569Y220524D01*
X131554Y220535D01*
X131550Y220542D01*
X131537Y220552D01*
X131515Y220577D01*
X131015Y220977D01*
X130992Y220988D01*
X130966Y221010D01*
X130266Y221410D01*
X130236Y221419D01*
X130198Y221441D01*
X129598Y221641D01*
X129590Y221642D01*
X129582Y221646D01*
X128882Y221846D01*
X128843Y221848D01*
X128777Y221861D01*
X127377Y221861D01*
X127303Y221843D01*
X127229Y221830D01*
X127218Y221823D01*
X127209Y221821D01*
X127180Y221797D01*
X127108Y221749D01*
X127107Y221748D01*
X127077Y221747D01*
X127044Y221729D01*
X127009Y221721D01*
X126969Y221689D01*
X126924Y221664D01*
X126903Y221634D01*
X126875Y221611D01*
X126854Y221564D01*
X126825Y221523D01*
X126817Y221481D01*
X126804Y221453D01*
X126805Y221422D01*
X126797Y221380D01*
X126797Y217780D01*
X126809Y217731D01*
X126811Y217680D01*
X126828Y217647D01*
X126836Y217612D01*
X126869Y217572D01*
X126893Y217527D01*
X126923Y217506D01*
X126947Y217478D01*
X126993Y217457D01*
X127035Y217428D01*
X127077Y217420D01*
X127105Y217407D01*
X127135Y217408D01*
X127177Y217400D01*
X127277Y217400D01*
X127292Y217404D01*
X127308Y217401D01*
X127439Y217438D01*
X127446Y217439D01*
X127447Y217440D01*
X127567Y217500D01*
X128558Y217500D01*
X129512Y217405D01*
X130234Y217224D01*
X130829Y216884D01*
X131264Y216363D01*
X131624Y215732D01*
X131809Y215087D01*
X131997Y214239D01*
X131997Y206980D01*
X132009Y206931D01*
X132011Y206880D01*
X132028Y206847D01*
X132036Y206812D01*
X132069Y206772D01*
X132093Y206727D01*
X132123Y206706D01*
X132147Y206678D01*
X132193Y206657D01*
X132235Y206628D01*
X132277Y206620D01*
X132305Y206607D01*
X132335Y206608D01*
X132377Y206600D01*
X136277Y206600D01*
X136327Y206612D01*
G37*
G36*
X91003Y171853D02*
X91003Y171853D01*
X91005Y171851D01*
X91905Y171951D01*
X91910Y171955D01*
X91914Y171953D01*
X92614Y172153D01*
X92620Y172161D01*
X92626Y172158D01*
X93426Y172658D01*
X93427Y172660D01*
X93429Y172660D01*
X94129Y173160D01*
X94131Y173169D01*
X94138Y173168D01*
X94638Y173768D01*
X94638Y173780D01*
X94646Y173783D01*
X94946Y174583D01*
X94945Y174587D01*
X94948Y174588D01*
X95148Y175388D01*
X95144Y175396D01*
X95149Y175400D01*
X95149Y176300D01*
X95144Y176307D01*
X95148Y176312D01*
X94948Y177112D01*
X94939Y177119D01*
X94942Y177126D01*
X94442Y177926D01*
X94431Y177930D01*
X94432Y177938D01*
X93832Y178438D01*
X93804Y178439D01*
X93832Y178462D01*
X93833Y178466D01*
X93835Y178465D01*
X94335Y178965D01*
X94336Y178976D01*
X94337Y178977D01*
X94344Y178978D01*
X94744Y179778D01*
X94742Y179790D01*
X94749Y179795D01*
X94849Y180695D01*
X94845Y180702D01*
X94845Y180703D01*
X94849Y180706D01*
X94749Y181506D01*
X94743Y181512D01*
X94746Y181517D01*
X94446Y182317D01*
X94438Y182322D01*
X94440Y182329D01*
X93940Y183029D01*
X93929Y183032D01*
X93929Y183040D01*
X92529Y184040D01*
X92515Y184040D01*
X92512Y184048D01*
X91712Y184248D01*
X91708Y184246D01*
X91706Y184249D01*
X90906Y184349D01*
X90902Y184347D01*
X90900Y184349D01*
X90000Y184349D01*
X89990Y184342D01*
X89983Y184346D01*
X89183Y184046D01*
X89180Y184041D01*
X89176Y184043D01*
X88476Y183643D01*
X88474Y183639D01*
X88471Y183640D01*
X87771Y183140D01*
X87768Y183129D01*
X87760Y183129D01*
X87260Y182429D01*
X87260Y182421D01*
X87255Y182419D01*
X86955Y181719D01*
X86956Y181716D01*
X86953Y181714D01*
X86955Y181712D01*
X86952Y181711D01*
X86752Y180811D01*
X86757Y180800D01*
X86751Y180794D01*
X86851Y179994D01*
X86859Y179986D01*
X86855Y179980D01*
X87255Y179080D01*
X87264Y179075D01*
X87262Y179068D01*
X87733Y178503D01*
X87265Y178035D01*
X87264Y178027D01*
X87258Y178026D01*
X86758Y177226D01*
X86759Y177219D01*
X86754Y177217D01*
X86454Y176417D01*
X86458Y176405D01*
X86451Y176400D01*
X86451Y175900D01*
X86454Y175896D01*
X86451Y175894D01*
X86551Y175094D01*
X86554Y175091D01*
X86552Y175088D01*
X86752Y174288D01*
X86763Y174280D01*
X86760Y174271D01*
X87260Y173571D01*
X87266Y173570D01*
X87265Y173565D01*
X87865Y172965D01*
X87871Y172964D01*
X87871Y172960D01*
X88571Y172460D01*
X88575Y172460D01*
X88576Y172457D01*
X89276Y172057D01*
X89286Y172059D01*
X89289Y172052D01*
X90189Y171852D01*
X90197Y171855D01*
X90200Y171851D01*
X91000Y171851D01*
X91003Y171853D01*
G37*
G36*
X153506Y171857D02*
X153506Y171857D01*
X153512Y171852D01*
X154312Y172052D01*
X154331Y172075D01*
X154344Y172078D01*
X154644Y172678D01*
X154641Y172694D01*
X154649Y172700D01*
X154649Y182900D01*
X154642Y182909D01*
X154647Y182916D01*
X154447Y183516D01*
X154421Y183533D01*
X154417Y183546D01*
X153617Y183846D01*
X153605Y183843D01*
X153600Y183849D01*
X149300Y183849D01*
X149293Y183844D01*
X149288Y183848D01*
X148488Y183648D01*
X148484Y183643D01*
X148481Y183645D01*
X147781Y183345D01*
X147778Y183340D01*
X147774Y183342D01*
X146974Y182842D01*
X146971Y182834D01*
X146965Y182835D01*
X146365Y182235D01*
X146364Y182229D01*
X146360Y182229D01*
X145860Y181529D01*
X145860Y181523D01*
X145856Y181522D01*
X145356Y180522D01*
X145359Y180506D01*
X145351Y180500D01*
X145351Y179700D01*
X145353Y179697D01*
X145351Y179695D01*
X145451Y178795D01*
X145455Y178791D01*
X145452Y178788D01*
X145652Y177988D01*
X145656Y177985D01*
X145654Y177983D01*
X145954Y177183D01*
X145964Y177176D01*
X145962Y177168D01*
X146462Y176568D01*
X146468Y176567D01*
X146468Y176563D01*
X147168Y175963D01*
X147175Y175962D01*
X147176Y175957D01*
X147876Y175557D01*
X147935Y175565D01*
X147933Y175576D01*
X147944Y175577D01*
X147959Y175606D01*
X147967Y175563D01*
X147978Y175565D01*
X147981Y175555D01*
X148681Y175255D01*
X148690Y175257D01*
X148694Y175251D01*
X149494Y175151D01*
X149498Y175153D01*
X149500Y175151D01*
X151188Y175151D01*
X151751Y174870D01*
X151751Y173200D01*
X151754Y173196D01*
X151751Y173194D01*
X151851Y172394D01*
X151870Y172375D01*
X151869Y172362D01*
X152369Y171962D01*
X152389Y171961D01*
X152396Y171951D01*
X153496Y171851D01*
X153506Y171857D01*
G37*
%LPC*%
G36*
X174403Y36579D02*
X174403Y36579D01*
X173717Y36677D01*
X173241Y36963D01*
X173050Y37535D01*
X173148Y38217D01*
X173335Y38686D01*
X173904Y38781D01*
X178500Y38781D01*
X178513Y38790D01*
X178528Y38790D01*
X178529Y38803D01*
X178547Y38817D01*
X178530Y38840D01*
X178531Y38868D01*
X176931Y40168D01*
X176929Y40168D01*
X176929Y40170D01*
X173532Y42668D01*
X173146Y43053D01*
X173050Y43730D01*
X173146Y44407D01*
X173520Y44781D01*
X174200Y44781D01*
X174247Y44817D01*
X174241Y44825D01*
X174249Y44832D01*
X174149Y46932D01*
X174111Y46978D01*
X174105Y46973D01*
X174100Y46979D01*
X173520Y46979D01*
X173147Y47353D01*
X173050Y48130D01*
X173149Y48823D01*
X173120Y48875D01*
X173119Y48875D01*
X172632Y49084D01*
X173183Y48884D01*
X173217Y48894D01*
X173230Y48891D01*
X173616Y49181D01*
X180997Y49181D01*
X181792Y49081D01*
X182262Y48987D01*
X182451Y48422D01*
X182451Y47544D01*
X182170Y47075D01*
X181596Y46979D01*
X174200Y46979D01*
X174153Y46943D01*
X174154Y46942D01*
X174153Y46941D01*
X174158Y46934D01*
X174151Y46928D01*
X174251Y44828D01*
X174289Y44782D01*
X174295Y44787D01*
X174300Y44781D01*
X181692Y44781D01*
X182263Y44591D01*
X182451Y44121D01*
X182451Y43244D01*
X182170Y42775D01*
X181596Y42679D01*
X177500Y42679D01*
X177491Y42672D01*
X177484Y42677D01*
X177184Y42577D01*
X177179Y42569D01*
X177170Y42569D01*
X177170Y42556D01*
X177151Y42528D01*
X177170Y42514D01*
X177170Y42491D01*
X182163Y38696D01*
X182451Y38216D01*
X182451Y37438D01*
X182259Y36863D01*
X181786Y36579D01*
X174403Y36579D01*
G37*
%LPD*%
G36*
X197718Y87710D02*
X197718Y87710D01*
X197720Y87707D01*
X198520Y87807D01*
X198536Y87823D01*
X198549Y87821D01*
X198849Y88121D01*
X198850Y88133D01*
X198855Y88137D01*
X198852Y88142D01*
X198852Y88143D01*
X198863Y88149D01*
X198963Y88849D01*
X198960Y88854D01*
X198963Y88856D01*
X198963Y96356D01*
X198956Y96365D01*
X198961Y96372D01*
X198761Y96972D01*
X198744Y96983D01*
X198744Y96995D01*
X198344Y97295D01*
X198322Y97295D01*
X198314Y97305D01*
X195014Y97305D01*
X195009Y97302D01*
X195006Y97305D01*
X194406Y97205D01*
X194403Y97201D01*
X194400Y97203D01*
X193700Y97003D01*
X193696Y96998D01*
X193692Y97000D01*
X193092Y96700D01*
X193091Y96697D01*
X193089Y96698D01*
X192589Y96398D01*
X192587Y96393D01*
X192582Y96394D01*
X191982Y95894D01*
X191981Y95887D01*
X191976Y95887D01*
X191576Y95387D01*
X191575Y95383D01*
X191573Y95383D01*
X191173Y94783D01*
X191173Y94782D01*
X191172Y94781D01*
X190872Y94281D01*
X190873Y94274D01*
X190867Y94270D01*
X190868Y94270D01*
X190867Y94270D01*
X190853Y94221D01*
X190839Y94172D01*
X190797Y94024D01*
X190754Y93876D01*
X190740Y93827D01*
X190698Y93679D01*
X190667Y93570D01*
X190669Y93565D01*
X190665Y93563D01*
X190565Y92863D01*
X190570Y92854D01*
X190565Y92849D01*
X190665Y92153D01*
X190665Y91456D01*
X190672Y91447D01*
X190667Y91440D01*
X190867Y90840D01*
X190872Y90837D01*
X190870Y90834D01*
X191170Y90234D01*
X191174Y90232D01*
X191173Y90229D01*
X191573Y89629D01*
X191576Y89628D01*
X191576Y89625D01*
X191976Y89125D01*
X191980Y89124D01*
X191979Y89121D01*
X192479Y88621D01*
X192491Y88620D01*
X192492Y88612D01*
X193692Y88012D01*
X193697Y88013D01*
X193698Y88009D01*
X194298Y87809D01*
X194305Y87811D01*
X194307Y87807D01*
X195007Y87707D01*
X195012Y87710D01*
X195014Y87707D01*
X197714Y87707D01*
X197718Y87710D01*
G37*
G36*
X126304Y190904D02*
X126304Y190904D01*
X126306Y190901D01*
X127106Y191001D01*
X127109Y191004D01*
X127111Y191002D01*
X128011Y191202D01*
X128018Y191210D01*
X128024Y191207D01*
X128724Y191607D01*
X128727Y191614D01*
X128732Y191613D01*
X129432Y192213D01*
X129433Y192215D01*
X129435Y192215D01*
X129935Y192715D01*
X129936Y192727D01*
X129944Y192728D01*
X130344Y193528D01*
X130341Y193544D01*
X130346Y193547D01*
X130342Y193551D01*
X130349Y193558D01*
X130249Y194158D01*
X130235Y194171D01*
X130237Y194182D01*
X129537Y194982D01*
X129518Y194986D01*
X129514Y194997D01*
X128814Y195197D01*
X128792Y195189D01*
X128781Y195195D01*
X128081Y194895D01*
X128075Y194886D01*
X128068Y194887D01*
X127371Y194290D01*
X126583Y193798D01*
X125806Y193700D01*
X125032Y193991D01*
X124653Y194559D01*
X124843Y195318D01*
X125516Y195702D01*
X126405Y195801D01*
X126412Y195807D01*
X126417Y195804D01*
X128017Y196404D01*
X128018Y196405D01*
X128019Y196405D01*
X128719Y196705D01*
X128725Y196714D01*
X128732Y196713D01*
X129432Y197313D01*
X129435Y197325D01*
X129443Y197326D01*
X129843Y198026D01*
X129842Y198028D01*
X129843Y198029D01*
X129842Y198029D01*
X129842Y198031D01*
X129846Y198033D01*
X130146Y198833D01*
X130144Y198841D01*
X130149Y198844D01*
X130249Y199644D01*
X130245Y199651D01*
X130249Y199655D01*
X130149Y200555D01*
X130142Y200563D01*
X130145Y200569D01*
X129845Y201269D01*
X129838Y201273D01*
X129840Y201279D01*
X129340Y201979D01*
X129334Y201980D01*
X129335Y201985D01*
X128735Y202585D01*
X128722Y202587D01*
X128719Y202595D01*
X128019Y202895D01*
X128018Y202895D01*
X128017Y202896D01*
X127217Y203196D01*
X127205Y203193D01*
X127200Y203199D01*
X125400Y203199D01*
X125393Y203194D01*
X125388Y203198D01*
X124588Y202998D01*
X124586Y202996D01*
X124584Y202997D01*
X123684Y202697D01*
X123679Y202689D01*
X123673Y202691D01*
X123073Y202291D01*
X123069Y202282D01*
X123063Y202282D01*
X122463Y201582D01*
X122461Y201559D01*
X122453Y201552D01*
X122451Y201550D01*
X122451Y200950D01*
X122462Y200935D01*
X122458Y200924D01*
X122958Y200124D01*
X122971Y200119D01*
X122971Y200110D01*
X123671Y199610D01*
X123697Y199611D01*
X123707Y199601D01*
X124407Y199701D01*
X124417Y199712D01*
X124426Y199708D01*
X125223Y200206D01*
X125908Y200500D01*
X126775Y200403D01*
X127246Y199838D01*
X127057Y199082D01*
X126382Y198696D01*
X124689Y198298D01*
X124686Y198294D01*
X124683Y198296D01*
X123083Y197696D01*
X123076Y197686D01*
X123068Y197688D01*
X122468Y197188D01*
X122466Y197179D01*
X122460Y197179D01*
X121960Y196479D01*
X121960Y196465D01*
X121952Y196462D01*
X121752Y195662D01*
X121754Y195657D01*
X121751Y195655D01*
X121651Y194755D01*
X121655Y194749D01*
X121651Y194745D01*
X121751Y193845D01*
X121758Y193837D01*
X121755Y193831D01*
X122055Y193131D01*
X122057Y193129D01*
X122056Y193128D01*
X122456Y192328D01*
X122469Y192322D01*
X122468Y192312D01*
X123068Y191812D01*
X123077Y191812D01*
X123078Y191806D01*
X123878Y191406D01*
X123880Y191406D01*
X123881Y191405D01*
X124581Y191105D01*
X124586Y191106D01*
X124588Y191102D01*
X125388Y190902D01*
X125396Y190906D01*
X125400Y190901D01*
X126300Y190901D01*
X126304Y190904D01*
G37*
G36*
X99507Y171856D02*
X99507Y171856D01*
X99512Y171852D01*
X100312Y172052D01*
X100328Y172072D01*
X100341Y172073D01*
X100741Y172673D01*
X100740Y172693D01*
X100749Y172700D01*
X100749Y175251D01*
X104900Y175251D01*
X104903Y175253D01*
X104905Y175251D01*
X105905Y175351D01*
X105919Y175364D01*
X105931Y175362D01*
X106431Y175762D01*
X106435Y175776D01*
X106436Y175777D01*
X106435Y175778D01*
X106436Y175783D01*
X106448Y175788D01*
X106648Y176588D01*
X106643Y176600D01*
X106649Y176605D01*
X106549Y177505D01*
X106546Y177509D01*
X106548Y177512D01*
X105348Y182412D01*
X105344Y182415D01*
X105346Y182417D01*
X105046Y183217D01*
X105036Y183224D01*
X105038Y183232D01*
X104538Y183832D01*
X104508Y183838D01*
X104500Y183849D01*
X103700Y183849D01*
X103691Y183842D01*
X103684Y183847D01*
X102784Y183547D01*
X102775Y183533D01*
X102765Y183535D01*
X102265Y183035D01*
X102262Y183008D01*
X102251Y183000D01*
X102251Y182200D01*
X102256Y182193D01*
X102252Y182188D01*
X103239Y178141D01*
X102597Y178049D01*
X100936Y178049D01*
X100749Y178608D01*
X100749Y182900D01*
X100743Y182908D01*
X100747Y182914D01*
X100547Y183614D01*
X100517Y183637D01*
X100512Y183648D01*
X99712Y183848D01*
X99704Y183844D01*
X99700Y183849D01*
X98700Y183849D01*
X98684Y183837D01*
X98673Y183841D01*
X98073Y183441D01*
X98066Y183421D01*
X98054Y183417D01*
X97754Y182617D01*
X97758Y182605D01*
X97751Y182600D01*
X97751Y173300D01*
X97756Y173294D01*
X97752Y173289D01*
X97952Y172389D01*
X97969Y172375D01*
X97968Y172362D01*
X98568Y171862D01*
X98592Y171861D01*
X98600Y171851D01*
X99500Y171851D01*
X99507Y171856D01*
G37*
G36*
X122307Y171856D02*
X122307Y171856D01*
X122312Y171852D01*
X123112Y172052D01*
X123128Y172072D01*
X123141Y172073D01*
X123541Y172673D01*
X123540Y172689D01*
X123549Y172695D01*
X123649Y173595D01*
X123647Y173598D01*
X123649Y173600D01*
X123649Y175251D01*
X127700Y175251D01*
X127703Y175253D01*
X127705Y175251D01*
X128705Y175351D01*
X128717Y175363D01*
X128727Y175359D01*
X129327Y175759D01*
X129337Y175787D01*
X129349Y175794D01*
X129449Y176594D01*
X129447Y176598D01*
X129449Y176600D01*
X129449Y177500D01*
X129444Y177507D01*
X129448Y177513D01*
X128148Y182412D01*
X127948Y183212D01*
X127936Y183222D01*
X127938Y183232D01*
X127438Y183832D01*
X127408Y183838D01*
X127400Y183849D01*
X126500Y183849D01*
X126491Y183842D01*
X126484Y183847D01*
X125584Y183547D01*
X125575Y183533D01*
X125565Y183535D01*
X125065Y183035D01*
X125061Y183003D01*
X125051Y182994D01*
X125151Y182194D01*
X125154Y182191D01*
X125152Y182188D01*
X126139Y178141D01*
X125497Y178049D01*
X123836Y178049D01*
X123649Y178608D01*
X123649Y182900D01*
X123641Y182911D01*
X123645Y182919D01*
X123345Y183619D01*
X123317Y183635D01*
X123312Y183648D01*
X122512Y183848D01*
X122504Y183844D01*
X122500Y183849D01*
X121600Y183849D01*
X121586Y183838D01*
X121576Y183843D01*
X120876Y183443D01*
X120865Y183417D01*
X120852Y183412D01*
X120652Y182612D01*
X120656Y182604D01*
X120651Y182600D01*
X120651Y173300D01*
X120653Y173297D01*
X120651Y173295D01*
X120751Y172395D01*
X120769Y172376D01*
X120768Y172362D01*
X121368Y171862D01*
X121392Y171861D01*
X121400Y171851D01*
X122300Y171851D01*
X122307Y171856D01*
G37*
G36*
X181007Y190906D02*
X181007Y190906D01*
X181012Y190902D01*
X181812Y191102D01*
X181815Y191106D01*
X181817Y191104D01*
X182617Y191404D01*
X182620Y191409D01*
X182624Y191407D01*
X183324Y191807D01*
X183326Y191811D01*
X183329Y191810D01*
X184029Y192310D01*
X184030Y192316D01*
X184035Y192315D01*
X184635Y192915D01*
X184635Y192919D01*
X184638Y192918D01*
X185138Y193518D01*
X185138Y193521D01*
X185140Y193521D01*
X185640Y194221D01*
X185640Y194231D01*
X185646Y194233D01*
X185946Y195033D01*
X185945Y195037D01*
X185948Y195038D01*
X186148Y195838D01*
X186146Y195843D01*
X186149Y195845D01*
X186249Y196745D01*
X186247Y196748D01*
X186249Y196750D01*
X186249Y197650D01*
X186246Y197654D01*
X186249Y197656D01*
X186149Y198456D01*
X186146Y198459D01*
X186148Y198462D01*
X185948Y199262D01*
X185942Y199267D01*
X185944Y199272D01*
X185544Y200072D01*
X185539Y200075D01*
X185540Y200079D01*
X185040Y200779D01*
X185037Y200779D01*
X185038Y200782D01*
X184538Y201382D01*
X184531Y201383D01*
X184532Y201388D01*
X183932Y201888D01*
X183926Y201888D01*
X183926Y201892D01*
X183126Y202392D01*
X183119Y202391D01*
X183117Y202396D01*
X181517Y202996D01*
X181509Y202994D01*
X181506Y202999D01*
X179906Y203199D01*
X179898Y203194D01*
X179894Y203199D01*
X179094Y203099D01*
X179091Y203096D01*
X179089Y203098D01*
X178189Y202898D01*
X178186Y202894D01*
X178183Y202896D01*
X177383Y202596D01*
X177378Y202588D01*
X177371Y202590D01*
X176671Y202090D01*
X176671Y202087D01*
X176668Y202088D01*
X176068Y201588D01*
X176063Y201563D01*
X176051Y201556D01*
X175951Y200756D01*
X175963Y200736D01*
X175958Y200724D01*
X176458Y199924D01*
X176468Y199920D01*
X176468Y199913D01*
X177168Y199313D01*
X177192Y199311D01*
X177200Y199301D01*
X177800Y199301D01*
X177815Y199312D01*
X177826Y199308D01*
X178623Y199806D01*
X179313Y200102D01*
X180200Y200200D01*
X180986Y200102D01*
X181775Y199708D01*
X182466Y199214D01*
X182957Y198625D01*
X183251Y197841D01*
X183251Y196953D01*
X183152Y196159D01*
X182955Y195373D01*
X182368Y194689D01*
X181679Y194295D01*
X180888Y193998D01*
X180100Y193900D01*
X179312Y193998D01*
X178520Y194295D01*
X177722Y194694D01*
X177713Y194692D01*
X177713Y194693D01*
X177705Y194693D01*
X177700Y194699D01*
X177100Y194699D01*
X177076Y194681D01*
X177063Y194682D01*
X176463Y193982D01*
X176462Y193973D01*
X176456Y193972D01*
X176056Y193172D01*
X176060Y193148D01*
X176052Y193138D01*
X176252Y192338D01*
X176269Y192325D01*
X176268Y192312D01*
X176868Y191812D01*
X176875Y191812D01*
X176876Y191807D01*
X177576Y191407D01*
X177583Y191408D01*
X177584Y191403D01*
X178484Y191103D01*
X178487Y191104D01*
X178488Y191102D01*
X179288Y190902D01*
X179296Y190906D01*
X179300Y190901D01*
X181000Y190901D01*
X181007Y190906D01*
G37*
%LPC*%
G36*
X126203Y37119D02*
X126203Y37119D01*
X125515Y37218D01*
X124922Y37514D01*
X124327Y37812D01*
X123833Y38207D01*
X123338Y38701D01*
X122943Y39295D01*
X122646Y39889D01*
X122249Y41078D01*
X122249Y44263D01*
X122272Y44344D01*
X122273Y44344D01*
X122272Y44344D01*
X122315Y44492D01*
X122329Y44541D01*
X122371Y44689D01*
X122413Y44837D01*
X122427Y44886D01*
X122443Y44941D01*
X122816Y45221D01*
X130991Y45221D01*
X131461Y45033D01*
X131651Y44462D01*
X131651Y40978D01*
X131453Y40386D01*
X131255Y39792D01*
X130859Y39197D01*
X130463Y38604D01*
X129969Y38208D01*
X129473Y37812D01*
X128879Y37515D01*
X128186Y37218D01*
X127596Y37119D01*
X126203Y37119D01*
G37*
%LPD*%
G36*
X150904Y190904D02*
X150904Y190904D01*
X150906Y190901D01*
X151706Y191001D01*
X151712Y191007D01*
X151717Y191004D01*
X152517Y191304D01*
X152549Y191354D01*
X152538Y191361D01*
X152544Y191373D01*
X152179Y192074D01*
X152557Y191425D01*
X152612Y191402D01*
X152616Y191411D01*
X152624Y191407D01*
X153324Y191807D01*
X153328Y191816D01*
X153335Y191815D01*
X153935Y192415D01*
X153935Y192419D01*
X153938Y192418D01*
X154438Y193018D01*
X154438Y193027D01*
X154444Y193028D01*
X154844Y193828D01*
X154843Y193836D01*
X154848Y193838D01*
X155048Y194638D01*
X155046Y194643D01*
X155049Y194645D01*
X155149Y195545D01*
X155147Y195548D01*
X155149Y195550D01*
X155149Y197350D01*
X155132Y197373D01*
X155133Y197386D01*
X153833Y198586D01*
X153829Y198587D01*
X153829Y198590D01*
X153129Y199090D01*
X153125Y199090D01*
X153124Y199093D01*
X152424Y199493D01*
X152419Y199492D01*
X152417Y199496D01*
X151617Y199796D01*
X151609Y199794D01*
X151606Y199799D01*
X150806Y199899D01*
X150799Y199895D01*
X150795Y199899D01*
X149895Y199799D01*
X149891Y199795D01*
X149888Y199798D01*
X149088Y199598D01*
X149085Y199594D01*
X149083Y199596D01*
X148283Y199296D01*
X148278Y199288D01*
X148271Y199290D01*
X147571Y198790D01*
X147569Y198782D01*
X147563Y198782D01*
X146963Y198082D01*
X146962Y198075D01*
X146957Y198074D01*
X146557Y197374D01*
X146558Y197370D01*
X146555Y197369D01*
X146255Y196669D01*
X146257Y196659D01*
X146251Y196655D01*
X146151Y195755D01*
X146153Y195752D01*
X146151Y195750D01*
X146151Y194850D01*
X146156Y194843D01*
X146152Y194838D01*
X146352Y194038D01*
X146356Y194035D01*
X146354Y194033D01*
X146654Y193233D01*
X146662Y193228D01*
X146660Y193221D01*
X147160Y192521D01*
X147166Y192520D01*
X147165Y192515D01*
X147765Y191915D01*
X147771Y191914D01*
X147771Y191910D01*
X148471Y191410D01*
X148481Y191410D01*
X148483Y191404D01*
X149283Y191104D01*
X149287Y191105D01*
X149288Y191102D01*
X150088Y190902D01*
X150096Y190906D01*
X150100Y190901D01*
X150900Y190901D01*
X150904Y190904D01*
G37*
G36*
X83304Y190904D02*
X83304Y190904D01*
X83306Y190901D01*
X84106Y191001D01*
X84112Y191007D01*
X84117Y191004D01*
X84917Y191304D01*
X84949Y191354D01*
X84938Y191362D01*
X84943Y191374D01*
X84924Y191407D01*
X85624Y191807D01*
X85628Y191816D01*
X85635Y191815D01*
X86835Y193015D01*
X86836Y193027D01*
X86844Y193028D01*
X87244Y193828D01*
X87243Y193836D01*
X87248Y193838D01*
X87448Y194638D01*
X87444Y194646D01*
X87449Y194650D01*
X87449Y197350D01*
X87433Y197371D01*
X87435Y197385D01*
X86235Y198585D01*
X86229Y198586D01*
X86229Y198590D01*
X85529Y199090D01*
X85523Y199090D01*
X85522Y199094D01*
X84722Y199494D01*
X84718Y199493D01*
X84717Y199496D01*
X83917Y199796D01*
X83909Y199794D01*
X83906Y199799D01*
X83106Y199899D01*
X83099Y199895D01*
X83095Y199899D01*
X82195Y199799D01*
X82191Y199795D01*
X82188Y199798D01*
X81388Y199598D01*
X81384Y199593D01*
X81381Y199595D01*
X80681Y199295D01*
X80677Y199288D01*
X80671Y199290D01*
X79971Y198790D01*
X79969Y198782D01*
X79963Y198782D01*
X79363Y198082D01*
X79362Y198075D01*
X79357Y198074D01*
X78957Y197374D01*
X78958Y197370D01*
X78955Y197369D01*
X78655Y196669D01*
X78656Y196663D01*
X78652Y196661D01*
X78452Y195761D01*
X78457Y195750D01*
X78451Y195745D01*
X78551Y194845D01*
X78551Y194844D01*
X78651Y194044D01*
X78660Y194035D01*
X78656Y194028D01*
X79056Y193228D01*
X79058Y193227D01*
X79057Y193226D01*
X79457Y192526D01*
X79466Y192522D01*
X79465Y192515D01*
X80065Y191915D01*
X80071Y191914D01*
X80071Y191910D01*
X80771Y191410D01*
X80781Y191410D01*
X80783Y191404D01*
X81583Y191104D01*
X81587Y191105D01*
X81588Y191102D01*
X82388Y190902D01*
X82396Y190906D01*
X82400Y190901D01*
X83300Y190901D01*
X83304Y190904D01*
G37*
G36*
X169304Y190904D02*
X169304Y190904D01*
X169306Y190901D01*
X170106Y191001D01*
X170112Y191007D01*
X170117Y191004D01*
X170917Y191304D01*
X170949Y191354D01*
X170938Y191362D01*
X170943Y191374D01*
X170924Y191407D01*
X171624Y191807D01*
X171627Y191814D01*
X171632Y191813D01*
X172332Y192413D01*
X172333Y192419D01*
X172338Y192418D01*
X172838Y193018D01*
X172838Y193027D01*
X172844Y193028D01*
X173244Y193828D01*
X173243Y193836D01*
X173248Y193838D01*
X173448Y194638D01*
X173444Y194646D01*
X173449Y194650D01*
X173449Y197350D01*
X173433Y197371D01*
X173435Y197385D01*
X172235Y198585D01*
X172229Y198586D01*
X172229Y198590D01*
X171529Y199090D01*
X171525Y199090D01*
X171524Y199093D01*
X170824Y199493D01*
X170819Y199492D01*
X170817Y199496D01*
X170017Y199796D01*
X170009Y199794D01*
X170005Y199799D01*
X169105Y199899D01*
X169098Y199895D01*
X169094Y199899D01*
X168294Y199799D01*
X168291Y199796D01*
X168289Y199798D01*
X167389Y199598D01*
X167385Y199593D01*
X167381Y199595D01*
X166681Y199295D01*
X166677Y199288D01*
X166671Y199290D01*
X165971Y198790D01*
X165969Y198782D01*
X165963Y198782D01*
X165363Y198082D01*
X165362Y198075D01*
X165357Y198074D01*
X164957Y197374D01*
X164958Y197370D01*
X164955Y197369D01*
X164655Y196669D01*
X164657Y196659D01*
X164651Y196655D01*
X164551Y195755D01*
X164553Y195752D01*
X164551Y195750D01*
X164551Y194850D01*
X164556Y194843D01*
X164552Y194838D01*
X164752Y194038D01*
X164756Y194035D01*
X164754Y194033D01*
X165054Y193233D01*
X165062Y193228D01*
X165060Y193221D01*
X165560Y192521D01*
X165566Y192520D01*
X165565Y192515D01*
X166165Y191915D01*
X166169Y191915D01*
X166168Y191912D01*
X166768Y191412D01*
X166782Y191412D01*
X166784Y191403D01*
X167684Y191103D01*
X167687Y191104D01*
X167688Y191102D01*
X168488Y190902D01*
X168496Y190906D01*
X168500Y190901D01*
X169300Y190901D01*
X169304Y190904D01*
G37*
G36*
X115306Y190906D02*
X115306Y190906D01*
X115311Y190902D01*
X116211Y191102D01*
X116215Y191107D01*
X116219Y191105D01*
X116919Y191405D01*
X116921Y191407D01*
X116922Y191406D01*
X117722Y191806D01*
X117728Y191819D01*
X117738Y191818D01*
X118238Y192418D01*
X118238Y192424D01*
X118242Y192424D01*
X118742Y193224D01*
X118741Y193230D01*
X118745Y193231D01*
X119045Y193931D01*
X119044Y193938D01*
X119048Y193941D01*
X119046Y193943D01*
X119049Y193945D01*
X119149Y194844D01*
X119249Y195644D01*
X119243Y195654D01*
X119248Y195661D01*
X119048Y196561D01*
X119047Y196561D01*
X119048Y196562D01*
X118848Y197362D01*
X118837Y197370D01*
X118840Y197379D01*
X118340Y198079D01*
X118337Y198079D01*
X118338Y198082D01*
X117838Y198682D01*
X117829Y198684D01*
X117829Y198690D01*
X117129Y199190D01*
X117121Y199190D01*
X117119Y199195D01*
X116419Y199495D01*
X116418Y199495D01*
X116417Y199496D01*
X115617Y199796D01*
X115609Y199794D01*
X115605Y199799D01*
X114705Y199899D01*
X114699Y199895D01*
X114695Y199899D01*
X113695Y199799D01*
X113691Y199795D01*
X113688Y199798D01*
X112888Y199598D01*
X112882Y199590D01*
X112876Y199593D01*
X112176Y199193D01*
X112173Y199187D01*
X112168Y199188D01*
X111568Y198688D01*
X111566Y198679D01*
X111560Y198679D01*
X111060Y197979D01*
X111060Y197969D01*
X111054Y197967D01*
X110754Y197167D01*
X110756Y197159D01*
X110751Y197156D01*
X110651Y196356D01*
X110653Y196352D01*
X110651Y196350D01*
X110651Y195450D01*
X110667Y195429D01*
X110665Y195415D01*
X111265Y194815D01*
X111277Y194814D01*
X111278Y194806D01*
X112078Y194406D01*
X112094Y194409D01*
X112100Y194401D01*
X115492Y194401D01*
X116009Y194228D01*
X115473Y193692D01*
X114694Y193400D01*
X113806Y193499D01*
X113111Y193598D01*
X112216Y193897D01*
X112185Y193887D01*
X112173Y193891D01*
X111573Y193491D01*
X111567Y193474D01*
X111556Y193472D01*
X111156Y192672D01*
X111159Y192656D01*
X111151Y192650D01*
X111151Y191950D01*
X111164Y191932D01*
X111161Y191920D01*
X111461Y191520D01*
X111478Y191516D01*
X111481Y191505D01*
X112181Y191205D01*
X112187Y191206D01*
X112189Y191202D01*
X113089Y191002D01*
X113094Y191004D01*
X113096Y191001D01*
X114296Y190901D01*
X114299Y190903D01*
X114300Y190901D01*
X115300Y190901D01*
X115306Y190906D01*
G37*
%LPC*%
G36*
X69695Y131239D02*
X69695Y131239D01*
X69009Y131435D01*
X68419Y131828D01*
X68025Y132223D01*
X67628Y132718D01*
X67333Y133211D01*
X67135Y133805D01*
X66936Y134500D01*
X66837Y135193D01*
X66837Y136687D01*
X66937Y137382D01*
X67036Y137979D01*
X67054Y138040D01*
X67096Y138188D01*
X67110Y138237D01*
X67152Y138385D01*
X67194Y138533D01*
X67208Y138582D01*
X67234Y138672D01*
X67531Y139265D01*
X67926Y139859D01*
X68319Y140252D01*
X68910Y140645D01*
X69499Y140842D01*
X70191Y140941D01*
X70885Y140941D01*
X71573Y140842D01*
X72160Y140549D01*
X73050Y139758D01*
X73344Y139268D01*
X73642Y138573D01*
X73840Y137879D01*
X73939Y137286D01*
X73939Y135094D01*
X73839Y134498D01*
X73840Y134497D01*
X73839Y134497D01*
X73740Y133805D01*
X73444Y133212D01*
X73145Y132613D01*
X72851Y132125D01*
X72263Y131733D01*
X71669Y131436D01*
X71080Y131239D01*
X69695Y131239D01*
G37*
%LPD*%
%LPC*%
G36*
X70200Y109395D02*
X70200Y109395D01*
X69611Y109493D01*
X69023Y109788D01*
X68431Y110281D01*
X68039Y110771D01*
X67842Y111264D01*
X67839Y111266D01*
X67840Y111268D01*
X67542Y111865D01*
X67344Y112457D01*
X67245Y113149D01*
X67245Y115338D01*
X67443Y115930D01*
X67441Y115937D01*
X67445Y115939D01*
X67544Y116631D01*
X67840Y117224D01*
X68138Y117819D01*
X68530Y118309D01*
X69121Y118703D01*
X69711Y118999D01*
X70300Y119097D01*
X71093Y119097D01*
X71785Y118998D01*
X72375Y118801D01*
X72871Y118504D01*
X72930Y118510D01*
X72929Y118516D01*
X72935Y118516D01*
X72957Y118544D01*
X72956Y118527D01*
X72954Y118521D01*
X73254Y118021D01*
X73258Y118019D01*
X73258Y118015D01*
X73652Y117522D01*
X73849Y116930D01*
X73852Y116929D01*
X73851Y116927D01*
X74148Y116232D01*
X74247Y115638D01*
X74347Y114943D01*
X74347Y113449D01*
X74247Y112754D01*
X74148Y112158D01*
X73950Y111565D01*
X73653Y110971D01*
X73258Y110377D01*
X72868Y109988D01*
X72177Y109691D01*
X72175Y109689D01*
X72174Y109690D01*
X71584Y109395D01*
X70200Y109395D01*
G37*
%LPD*%
%LPC*%
G36*
X68780Y86535D02*
X68780Y86535D01*
X68194Y86731D01*
X67601Y87126D01*
X67110Y87519D01*
X66815Y88009D01*
X66518Y88605D01*
X66120Y89797D01*
X66021Y90489D01*
X66021Y91983D01*
X66121Y92678D01*
X66220Y93275D01*
X66223Y93287D01*
X66224Y93287D01*
X66223Y93287D01*
X66266Y93435D01*
X66280Y93484D01*
X66322Y93632D01*
X66364Y93779D01*
X66378Y93829D01*
X66418Y93968D01*
X66716Y94564D01*
X67011Y95154D01*
X67501Y95546D01*
X68094Y95941D01*
X68683Y96138D01*
X69375Y96237D01*
X70069Y96237D01*
X70757Y96138D01*
X71349Y95843D01*
X71839Y95548D01*
X72230Y95059D01*
X72526Y94467D01*
X72725Y93871D01*
X72924Y93175D01*
X73023Y92578D01*
X73123Y91883D01*
X73123Y90389D01*
X73024Y89697D01*
X72626Y88505D01*
X72330Y87913D01*
X71937Y87421D01*
X71445Y87028D01*
X70854Y86732D01*
X70165Y86535D01*
X68780Y86535D01*
G37*
%LPD*%
G36*
X138319Y171865D02*
X138319Y171865D01*
X138332Y171862D01*
X138932Y172362D01*
X138935Y172377D01*
X138938Y172379D01*
X138936Y172382D01*
X138937Y172387D01*
X138949Y172394D01*
X139049Y173194D01*
X139047Y173198D01*
X139049Y173200D01*
X139049Y180886D01*
X139328Y181351D01*
X141800Y181351D01*
X141803Y181353D01*
X141805Y181351D01*
X142705Y181451D01*
X142722Y181467D01*
X142735Y181465D01*
X143235Y181965D01*
X143237Y181978D01*
X143244Y181983D01*
X143239Y181989D01*
X143249Y181995D01*
X143349Y182995D01*
X143337Y183015D01*
X143341Y183027D01*
X142941Y183627D01*
X142917Y183636D01*
X142912Y183648D01*
X142112Y183848D01*
X142104Y183844D01*
X142100Y183849D01*
X132700Y183849D01*
X132686Y183838D01*
X132676Y183843D01*
X131976Y183443D01*
X131960Y183407D01*
X131951Y183400D01*
X131951Y182600D01*
X131953Y182597D01*
X131951Y182595D01*
X132051Y181695D01*
X132083Y181660D01*
X132086Y181653D01*
X132786Y181453D01*
X132791Y181455D01*
X132796Y181455D01*
X132798Y181451D01*
X135398Y181351D01*
X135399Y181352D01*
X135400Y181351D01*
X136151Y181351D01*
X136151Y172800D01*
X136162Y172786D01*
X136157Y172776D01*
X136557Y172076D01*
X136582Y172065D01*
X136586Y172053D01*
X137286Y171853D01*
X137296Y171856D01*
X137300Y171851D01*
X138300Y171851D01*
X138319Y171865D01*
G37*
G36*
X107011Y190909D02*
X107011Y190909D01*
X107019Y190905D01*
X107719Y191205D01*
X107734Y191230D01*
X107737Y191232D01*
X107747Y191236D01*
X107760Y191281D01*
X107774Y191331D01*
X107816Y191478D01*
X107817Y191478D01*
X107816Y191478D01*
X107859Y191626D01*
X107873Y191675D01*
X107915Y191823D01*
X107947Y191936D01*
X107944Y191946D01*
X107949Y191950D01*
X107949Y198850D01*
X107935Y198868D01*
X107938Y198881D01*
X107538Y199381D01*
X107512Y199387D01*
X107505Y199399D01*
X106505Y199499D01*
X106499Y199495D01*
X106495Y199499D01*
X105495Y199399D01*
X105473Y199378D01*
X105459Y199377D01*
X105078Y198806D01*
X104721Y198896D01*
X104029Y199390D01*
X104011Y199390D01*
X104006Y199399D01*
X103206Y199499D01*
X103199Y199495D01*
X103195Y199499D01*
X102295Y199399D01*
X102288Y199393D01*
X102283Y199396D01*
X101483Y199096D01*
X101480Y199091D01*
X101476Y199093D01*
X100776Y198693D01*
X100771Y198682D01*
X100763Y198682D01*
X100163Y197982D01*
X100162Y197975D01*
X100157Y197974D01*
X99757Y197274D01*
X99758Y197270D01*
X99755Y197269D01*
X99455Y196569D01*
X99457Y196559D01*
X99451Y196555D01*
X99351Y195655D01*
X99353Y195652D01*
X99351Y195650D01*
X99351Y192150D01*
X99354Y192146D01*
X99351Y192143D01*
X99451Y191443D01*
X99472Y191423D01*
X99473Y191409D01*
X100073Y191009D01*
X100090Y191010D01*
X100095Y191001D01*
X101095Y190901D01*
X101109Y190909D01*
X101117Y190904D01*
X101917Y191204D01*
X101931Y191226D01*
X101944Y191228D01*
X102244Y191828D01*
X102241Y191844D01*
X102249Y191850D01*
X102249Y195242D01*
X102541Y196118D01*
X103117Y196502D01*
X103990Y196599D01*
X104664Y196214D01*
X105051Y195537D01*
X105051Y192050D01*
X105057Y192042D01*
X105053Y192036D01*
X105253Y191336D01*
X105272Y191322D01*
X105273Y191309D01*
X105873Y190909D01*
X105893Y190910D01*
X105900Y190901D01*
X107000Y190901D01*
X107011Y190909D01*
G37*
%LPC*%
G36*
X80003Y36080D02*
X80003Y36080D01*
X79965Y36126D01*
X79959Y36121D01*
X79954Y36127D01*
X73257Y36127D01*
X72466Y36226D01*
X71988Y36418D01*
X71703Y36892D01*
X71703Y37658D01*
X72374Y38329D01*
X77154Y38329D01*
X77165Y38337D01*
X77178Y38335D01*
X77180Y38348D01*
X77201Y38365D01*
X77185Y38386D01*
X77189Y38413D01*
X76989Y38613D01*
X76984Y38614D01*
X76984Y38617D01*
X76184Y39217D01*
X72485Y42017D01*
X71896Y42507D01*
X71703Y43086D01*
X71703Y43763D01*
X72083Y44333D01*
X72658Y44429D01*
X80150Y44429D01*
X80730Y44332D01*
X81105Y43958D01*
X81105Y43086D01*
X80913Y42511D01*
X80440Y42227D01*
X75754Y42227D01*
X75741Y42217D01*
X75724Y42217D01*
X75724Y42205D01*
X75707Y42191D01*
X75724Y42168D01*
X75724Y42139D01*
X80522Y38541D01*
X81105Y37958D01*
X81105Y37381D01*
X81007Y36601D01*
X80630Y36224D01*
X80046Y36127D01*
X80005Y36083D01*
X80008Y36081D01*
X80005Y36078D01*
X80005Y36049D01*
X80003Y36080D01*
G37*
%LPD*%
%LPC*%
G36*
X75361Y25927D02*
X75361Y25927D01*
X74672Y26124D01*
X74081Y26420D01*
X73585Y26816D01*
X73089Y27213D01*
X72594Y27807D01*
X72297Y28301D01*
X72000Y28896D01*
X71802Y29589D01*
X71703Y30182D01*
X71703Y33464D01*
X71985Y33933D01*
X72558Y34029D01*
X73680Y34029D01*
X74201Y31789D01*
X73915Y31408D01*
X73915Y31389D01*
X73907Y31383D01*
X73908Y31381D01*
X73905Y31378D01*
X73905Y29978D01*
X73914Y29965D01*
X73910Y29956D01*
X74210Y29356D01*
X74217Y29353D01*
X74216Y29347D01*
X74616Y28847D01*
X74623Y28845D01*
X74623Y28840D01*
X75123Y28440D01*
X75131Y28439D01*
X75132Y28434D01*
X75732Y28134D01*
X75743Y28136D01*
X75747Y28129D01*
X76447Y28029D01*
X76456Y28034D01*
X76461Y28029D01*
X77161Y28129D01*
X77169Y28137D01*
X77176Y28134D01*
X77776Y28434D01*
X77781Y28444D01*
X77789Y28443D01*
X78789Y29443D01*
X78790Y29455D01*
X78798Y29456D01*
X78898Y29656D01*
X78895Y29672D01*
X78903Y29678D01*
X78903Y31678D01*
X78867Y31725D01*
X78864Y31723D01*
X78862Y31727D01*
X78262Y31827D01*
X78257Y31824D01*
X78254Y31827D01*
X74293Y31827D01*
X73781Y34029D01*
X80051Y34029D01*
X80727Y33932D01*
X81007Y33559D01*
X81105Y32875D01*
X81105Y30181D01*
X81006Y29489D01*
X80808Y28897D01*
X80511Y28303D01*
X80114Y27707D01*
X79719Y27213D01*
X79125Y26718D01*
X78631Y26421D01*
X78036Y26124D01*
X77347Y25927D01*
X75361Y25927D01*
G37*
%LPD*%
G36*
X143227Y87716D02*
X143227Y87716D01*
X143236Y87712D01*
X143836Y88012D01*
X143838Y88016D01*
X143841Y88015D01*
X144111Y88195D01*
X144583Y87818D01*
X144602Y87817D01*
X144607Y87807D01*
X145307Y87707D01*
X145312Y87710D01*
X145314Y87707D01*
X146014Y87707D01*
X146023Y87714D01*
X146030Y87709D01*
X146630Y87909D01*
X146635Y87917D01*
X146641Y87915D01*
X147241Y88315D01*
X147244Y88322D01*
X147249Y88321D01*
X147749Y88821D01*
X147749Y88825D01*
X147752Y88825D01*
X148152Y89325D01*
X148153Y89335D01*
X148159Y89337D01*
X148459Y90037D01*
X148457Y90045D01*
X148463Y90048D01*
X148563Y90648D01*
X148562Y90649D01*
X148563Y90649D01*
X148663Y91349D01*
X148657Y91359D01*
X148663Y91364D01*
X148563Y91964D01*
X148559Y91967D01*
X148561Y91970D01*
X148361Y92670D01*
X148350Y92678D01*
X148352Y92687D01*
X147952Y93187D01*
X147952Y93188D01*
X147452Y93788D01*
X147445Y93789D01*
X147445Y93794D01*
X146945Y94194D01*
X146937Y94195D01*
X146936Y94200D01*
X146336Y94500D01*
X146325Y94498D01*
X146321Y94505D01*
X145621Y94605D01*
X145616Y94602D01*
X145610Y94602D01*
X145607Y94605D01*
X144907Y94505D01*
X144902Y94500D01*
X144898Y94503D01*
X144298Y94303D01*
X144293Y94295D01*
X144287Y94297D01*
X144063Y94148D01*
X144063Y96756D01*
X144060Y96761D01*
X144063Y96764D01*
X143963Y97364D01*
X143955Y97371D01*
X143958Y97378D01*
X143858Y97578D01*
X143832Y97591D01*
X143828Y97603D01*
X143128Y97803D01*
X143123Y97802D01*
X143122Y97803D01*
X143116Y97803D01*
X143114Y97805D01*
X142414Y97805D01*
X142411Y97803D01*
X142410Y97803D01*
X142400Y97796D01*
X142392Y97800D01*
X141792Y97500D01*
X141782Y97480D01*
X141771Y97472D01*
X141774Y97468D01*
X141765Y97463D01*
X141665Y96763D01*
X141668Y96758D01*
X141665Y96756D01*
X141665Y88556D01*
X141673Y88545D01*
X141668Y88538D01*
X141868Y88038D01*
X141887Y88026D01*
X141889Y88014D01*
X142389Y87714D01*
X142407Y87716D01*
X142414Y87707D01*
X143214Y87707D01*
X143227Y87716D01*
G37*
%LPC*%
G36*
X76557Y46727D02*
X76557Y46727D01*
X75874Y46825D01*
X75497Y47108D01*
X75303Y47785D01*
X75303Y49970D01*
X75493Y50539D01*
X76062Y50729D01*
X76734Y50729D01*
X77106Y50356D01*
X77205Y48975D01*
X77244Y48930D01*
X77250Y48935D01*
X77254Y48929D01*
X78554Y48929D01*
X78587Y48954D01*
X78598Y48956D01*
X78898Y49556D01*
X78895Y49572D01*
X78903Y49578D01*
X78903Y50278D01*
X78900Y50283D01*
X78903Y50286D01*
X78803Y50886D01*
X78798Y50890D01*
X78801Y50894D01*
X78601Y51494D01*
X78590Y51501D01*
X78592Y51510D01*
X78092Y52110D01*
X78085Y52111D01*
X78085Y52116D01*
X77585Y52516D01*
X77572Y52517D01*
X77570Y52525D01*
X76970Y52725D01*
X76963Y52723D01*
X76961Y52727D01*
X76261Y52827D01*
X76252Y52822D01*
X76247Y52827D01*
X75547Y52727D01*
X75543Y52723D01*
X75540Y52725D01*
X74840Y52525D01*
X74832Y52514D01*
X74823Y52516D01*
X74323Y52116D01*
X74321Y52109D01*
X74316Y52109D01*
X73916Y51609D01*
X73915Y51595D01*
X73907Y51592D01*
X73888Y51526D01*
X73846Y51379D01*
X73832Y51329D01*
X73790Y51182D01*
X73747Y51034D01*
X73733Y50985D01*
X73707Y50892D01*
X73708Y50888D01*
X73706Y50886D01*
X73705Y50885D01*
X73605Y50185D01*
X73611Y50175D01*
X73605Y50170D01*
X73705Y49570D01*
X73712Y49563D01*
X73709Y49557D01*
X74303Y48272D01*
X74209Y47805D01*
X73627Y47320D01*
X73050Y47031D01*
X72486Y47219D01*
X72097Y47803D01*
X71800Y48397D01*
X71602Y48989D01*
X71503Y49685D01*
X71404Y50377D01*
X71503Y50970D01*
X71502Y50971D01*
X71503Y50971D01*
X71602Y51663D01*
X71898Y52256D01*
X72196Y52851D01*
X72591Y53345D01*
X73087Y53841D01*
X73583Y54238D01*
X74176Y54633D01*
X74765Y54830D01*
X76157Y55029D01*
X76850Y55029D01*
X77443Y54930D01*
X78136Y54732D01*
X78727Y54436D01*
X79221Y54041D01*
X80216Y53047D01*
X80611Y52453D01*
X80907Y51863D01*
X81005Y51270D01*
X81105Y50575D01*
X81105Y49881D01*
X81005Y49085D01*
X80907Y48493D01*
X80611Y47901D01*
X80315Y47409D01*
X79827Y46921D01*
X79246Y46727D01*
X76557Y46727D01*
G37*
%LPD*%
G36*
X152127Y87716D02*
X152127Y87716D01*
X152136Y87712D01*
X152736Y88012D01*
X152738Y88016D01*
X152741Y88015D01*
X153011Y88195D01*
X153483Y87818D01*
X153502Y87817D01*
X153507Y87807D01*
X154207Y87707D01*
X154212Y87710D01*
X154214Y87707D01*
X154914Y87707D01*
X154923Y87714D01*
X154930Y87709D01*
X155530Y87909D01*
X155537Y87920D01*
X155545Y87918D01*
X156045Y88318D01*
X156046Y88318D01*
X156646Y88818D01*
X156647Y88825D01*
X156652Y88825D01*
X157052Y89325D01*
X157053Y89335D01*
X157059Y89337D01*
X157359Y90037D01*
X157357Y90045D01*
X157363Y90048D01*
X157463Y90648D01*
X157460Y90653D01*
X157463Y90656D01*
X157463Y91956D01*
X157455Y91967D01*
X157459Y91975D01*
X157159Y92675D01*
X157155Y92678D01*
X157156Y92681D01*
X156856Y93181D01*
X156851Y93183D01*
X156852Y93188D01*
X156352Y93788D01*
X156342Y93790D01*
X156341Y93797D01*
X155741Y94197D01*
X155737Y94197D01*
X155736Y94200D01*
X155136Y94500D01*
X155126Y94498D01*
X155122Y94505D01*
X154522Y94605D01*
X154517Y94602D01*
X154510Y94602D01*
X154507Y94605D01*
X153807Y94505D01*
X153802Y94500D01*
X153798Y94503D01*
X153198Y94303D01*
X153195Y94298D01*
X153192Y94300D01*
X152863Y94136D01*
X152863Y97356D01*
X152847Y97377D01*
X152849Y97391D01*
X152649Y97591D01*
X152633Y97593D01*
X152630Y97603D01*
X152030Y97803D01*
X152023Y97800D01*
X152021Y97803D01*
X152016Y97803D01*
X152014Y97805D01*
X151314Y97805D01*
X151311Y97803D01*
X151310Y97803D01*
X151300Y97796D01*
X151292Y97800D01*
X150692Y97500D01*
X150682Y97480D01*
X150671Y97472D01*
X150674Y97468D01*
X150665Y97463D01*
X150565Y96763D01*
X150568Y96758D01*
X150565Y96756D01*
X150565Y88556D01*
X150573Y88545D01*
X150568Y88538D01*
X150768Y88038D01*
X150784Y88028D01*
X150784Y88017D01*
X151184Y87717D01*
X151206Y87717D01*
X151214Y87707D01*
X152114Y87707D01*
X152127Y87716D01*
G37*
G36*
X161332Y87721D02*
X161332Y87721D01*
X161345Y87718D01*
X161845Y88118D01*
X161849Y88133D01*
X161850Y88133D01*
X161859Y88135D01*
X162455Y89427D01*
X162834Y89807D01*
X166184Y89807D01*
X166770Y88634D01*
X167070Y88034D01*
X167090Y88024D01*
X167092Y88012D01*
X167692Y87712D01*
X167713Y87716D01*
X167722Y87707D01*
X168322Y87807D01*
X168333Y87819D01*
X168343Y87816D01*
X169043Y88316D01*
X169048Y88333D01*
X169049Y88334D01*
X169048Y88334D01*
X169048Y88335D01*
X169060Y88338D01*
X169260Y88838D01*
X169253Y88861D01*
X169261Y88872D01*
X169061Y89472D01*
X169057Y89474D01*
X169058Y89478D01*
X165758Y96278D01*
X165458Y96878D01*
X165445Y96885D01*
X165445Y96894D01*
X164945Y97294D01*
X164926Y97295D01*
X164921Y97305D01*
X164221Y97405D01*
X164201Y97393D01*
X164189Y97398D01*
X163689Y97098D01*
X163685Y97090D01*
X163679Y97091D01*
X163379Y96791D01*
X163378Y96779D01*
X163370Y96777D01*
X159770Y89277D01*
X159771Y89268D01*
X159766Y89266D01*
X159666Y88766D01*
X159677Y88743D01*
X159672Y88731D01*
X159972Y88231D01*
X159985Y88225D01*
X159985Y88216D01*
X160685Y87716D01*
X160707Y87717D01*
X160714Y87707D01*
X161314Y87707D01*
X161332Y87721D01*
G37*
G36*
X94407Y190906D02*
X94407Y190906D01*
X94412Y190902D01*
X95212Y191102D01*
X95215Y191106D01*
X95217Y191104D01*
X96017Y191404D01*
X96019Y191407D01*
X96022Y191406D01*
X96822Y191806D01*
X96833Y191827D01*
X96845Y191831D01*
X97145Y192531D01*
X97139Y192558D01*
X97145Y192569D01*
X96845Y193269D01*
X96836Y193275D01*
X96837Y193282D01*
X96237Y193982D01*
X96208Y193988D01*
X96200Y193999D01*
X95400Y193999D01*
X95387Y193990D01*
X95378Y193994D01*
X94580Y193595D01*
X93794Y193300D01*
X92927Y193397D01*
X92679Y193727D01*
X93412Y194002D01*
X94305Y194101D01*
X94312Y194107D01*
X94317Y194104D01*
X95117Y194404D01*
X95120Y194409D01*
X95124Y194407D01*
X95824Y194807D01*
X95830Y194821D01*
X95840Y194821D01*
X96340Y195521D01*
X96340Y195525D01*
X96343Y195526D01*
X96743Y196226D01*
X96741Y196240D01*
X96749Y196245D01*
X96849Y197145D01*
X96845Y197152D01*
X96849Y197156D01*
X96749Y197956D01*
X96745Y197960D01*
X96747Y197964D01*
X96547Y198664D01*
X96533Y198674D01*
X96535Y198685D01*
X96035Y199185D01*
X96025Y199186D01*
X96024Y199193D01*
X95324Y199593D01*
X95314Y199591D01*
X95311Y199598D01*
X94411Y199798D01*
X94407Y199796D01*
X94405Y199799D01*
X93405Y199899D01*
X93398Y199895D01*
X93395Y199899D01*
X92495Y199799D01*
X92491Y199795D01*
X92488Y199798D01*
X90888Y199398D01*
X90876Y199383D01*
X90865Y199385D01*
X90265Y198785D01*
X90260Y198748D01*
X90258Y198746D01*
X90257Y198745D01*
X90252Y198738D01*
X90452Y197938D01*
X90465Y197928D01*
X90463Y197918D01*
X91063Y197218D01*
X91086Y197213D01*
X91092Y197201D01*
X91692Y197101D01*
X91701Y197106D01*
X91712Y197106D01*
X91715Y197108D01*
X91720Y197105D01*
X92613Y197502D01*
X93492Y197600D01*
X94144Y197320D01*
X94058Y196889D01*
X93090Y196598D01*
X92294Y196499D01*
X92288Y196493D01*
X92283Y196496D01*
X91483Y196196D01*
X91481Y196193D01*
X91478Y196194D01*
X90678Y195794D01*
X90672Y195781D01*
X90662Y195782D01*
X90162Y195182D01*
X90161Y195166D01*
X90152Y195162D01*
X89952Y194362D01*
X89956Y194354D01*
X89951Y194350D01*
X89951Y193450D01*
X89954Y193446D01*
X89951Y193444D01*
X90051Y192644D01*
X90061Y192634D01*
X90057Y192626D01*
X90457Y191926D01*
X90471Y191920D01*
X90471Y191910D01*
X91171Y191410D01*
X91179Y191410D01*
X91181Y191405D01*
X91881Y191105D01*
X91886Y191106D01*
X91888Y191102D01*
X92688Y190902D01*
X92696Y190906D01*
X92700Y190901D01*
X94400Y190901D01*
X94407Y190906D01*
G37*
%LPC*%
G36*
X165554Y126667D02*
X165554Y126667D01*
X164985Y126857D01*
X164796Y127423D01*
X164894Y128202D01*
X165179Y128677D01*
X165754Y128869D01*
X168146Y128869D01*
X168160Y128880D01*
X168178Y128881D01*
X168177Y128893D01*
X168193Y128905D01*
X168175Y128929D01*
X168173Y128959D01*
X167873Y129159D01*
X167872Y129159D01*
X167871Y129160D01*
X167372Y129460D01*
X166776Y129857D01*
X166181Y130353D01*
X165788Y130845D01*
X165492Y131437D01*
X165294Y132029D01*
X165196Y132718D01*
X165294Y133407D01*
X165492Y133999D01*
X165789Y134593D01*
X166183Y135184D01*
X166675Y135578D01*
X167268Y135973D01*
X167854Y136169D01*
X169239Y136169D01*
X169931Y135971D01*
X170522Y135774D01*
X171009Y135384D01*
X171405Y134791D01*
X171801Y134196D01*
X171998Y133606D01*
X172097Y133014D01*
X172097Y132230D01*
X171912Y131859D01*
X171239Y131667D01*
X170366Y131667D01*
X169992Y132041D01*
X169895Y132725D01*
X169894Y132726D01*
X169895Y132726D01*
X169795Y133326D01*
X169779Y133341D01*
X169781Y133353D01*
X169281Y133853D01*
X169259Y133856D01*
X169253Y133867D01*
X168553Y133967D01*
X168539Y133959D01*
X168530Y133965D01*
X167930Y133765D01*
X167919Y133748D01*
X167908Y133749D01*
X167508Y133249D01*
X167507Y133226D01*
X167497Y133218D01*
X167497Y132618D01*
X167506Y132605D01*
X167502Y132596D01*
X167802Y131996D01*
X167809Y131993D01*
X167808Y131987D01*
X168208Y131487D01*
X168215Y131485D01*
X168214Y131480D01*
X168814Y130980D01*
X168820Y130980D01*
X168821Y130976D01*
X169321Y130676D01*
X169321Y130675D01*
X170520Y129976D01*
X171112Y129581D01*
X171506Y129089D01*
X171901Y128496D01*
X172095Y127914D01*
X171999Y127336D01*
X171617Y126764D01*
X170943Y126667D01*
X165554Y126667D01*
G37*
%LPD*%
%LPC*%
G36*
X130119Y26016D02*
X130119Y26016D01*
X122749Y29501D01*
X122749Y29570D01*
X122730Y29595D01*
X122731Y29608D01*
X122246Y29996D01*
X122150Y30665D01*
X122342Y31241D01*
X122826Y31628D01*
X129520Y34825D01*
X130219Y35125D01*
X130249Y35176D01*
X130238Y35183D01*
X130243Y35194D01*
X130226Y35224D01*
X130786Y35318D01*
X131262Y34937D01*
X131651Y34257D01*
X131651Y33687D01*
X131269Y33210D01*
X129979Y32615D01*
X129973Y32604D01*
X129965Y32605D01*
X129565Y32205D01*
X129562Y32178D01*
X129551Y32170D01*
X129551Y28770D01*
X129576Y28737D01*
X129578Y28726D01*
X130778Y28126D01*
X131365Y27832D01*
X131648Y27360D01*
X131553Y26787D01*
X131164Y26106D01*
X130694Y25824D01*
X130119Y26016D01*
G37*
%LPD*%
%LPC*%
G36*
X43091Y131239D02*
X43091Y131239D01*
X42399Y131338D01*
X41812Y131534D01*
X41319Y131928D01*
X40825Y132324D01*
X40433Y132912D01*
X40236Y133501D01*
X40137Y134193D01*
X40137Y134286D01*
X40235Y134875D01*
X40531Y135465D01*
X40924Y136055D01*
X41513Y136447D01*
X42103Y136743D01*
X42696Y136841D01*
X43385Y136940D01*
X44074Y136743D01*
X44075Y136743D01*
X44130Y136764D01*
X44124Y136780D01*
X44137Y136790D01*
X44137Y137190D01*
X44121Y137211D01*
X44123Y137225D01*
X43623Y137725D01*
X43619Y137725D01*
X43619Y137728D01*
X43119Y138128D01*
X43109Y138129D01*
X43107Y138135D01*
X42407Y138435D01*
X42399Y138433D01*
X42396Y138439D01*
X41796Y138539D01*
X41795Y138538D01*
X41794Y138539D01*
X41004Y138638D01*
X40533Y138921D01*
X40437Y139494D01*
X40437Y140173D01*
X40814Y140644D01*
X41491Y140741D01*
X42185Y140741D01*
X42878Y140642D01*
X43568Y140444D01*
X44062Y140148D01*
X44659Y139750D01*
X45153Y139355D01*
X45548Y138862D01*
X45845Y138367D01*
X46142Y137771D01*
X46341Y137175D01*
X46540Y136480D01*
X46639Y135787D01*
X46639Y134293D01*
X46540Y133601D01*
X46343Y133011D01*
X46048Y132518D01*
X45653Y132025D01*
X45161Y131632D01*
X44573Y131338D01*
X43885Y131239D01*
X43091Y131239D01*
G37*
%LPD*%
%LPC*%
G36*
X102518Y26271D02*
X102518Y26271D01*
X101931Y26662D01*
X101435Y27159D01*
X101408Y27163D01*
X101400Y27173D01*
X101000Y27173D01*
X100975Y27154D01*
X100962Y27155D01*
X100571Y26666D01*
X99989Y26472D01*
X99303Y26374D01*
X98618Y26570D01*
X98027Y26866D01*
X97533Y27261D01*
X96549Y28244D01*
X96549Y30120D01*
X96648Y30710D01*
X96944Y31402D01*
X97239Y31894D01*
X97731Y32386D01*
X98322Y32779D01*
X98900Y32972D01*
X99467Y32783D01*
X99853Y32107D01*
X99948Y31534D01*
X99662Y31057D01*
X99169Y30662D01*
X99167Y30652D01*
X99159Y30651D01*
X98759Y30051D01*
X98760Y30031D01*
X98751Y30024D01*
X98751Y29324D01*
X98762Y29309D01*
X98758Y29299D01*
X99058Y28799D01*
X99086Y28788D01*
X99092Y28775D01*
X99692Y28675D01*
X99735Y28698D01*
X99742Y28699D01*
X100042Y29199D01*
X100041Y29213D01*
X100049Y29218D01*
X100149Y30016D01*
X100244Y30491D01*
X100809Y30773D01*
X101684Y30676D01*
X102156Y30393D01*
X102251Y29916D01*
X102351Y29118D01*
X102364Y29104D01*
X102362Y29093D01*
X102762Y28593D01*
X102781Y28588D01*
X102784Y28577D01*
X103384Y28377D01*
X103424Y28391D01*
X103435Y28389D01*
X103935Y28889D01*
X103937Y28905D01*
X103947Y28908D01*
X104147Y29508D01*
X104143Y29519D01*
X104149Y29524D01*
X104149Y30224D01*
X104137Y30240D01*
X104141Y30251D01*
X103741Y30851D01*
X103724Y30857D01*
X103722Y30868D01*
X103129Y31165D01*
X102747Y31547D01*
X102650Y32320D01*
X102655Y32338D01*
X102697Y32486D01*
X102698Y32486D01*
X102697Y32486D01*
X102740Y32634D01*
X102754Y32683D01*
X102796Y32831D01*
X102838Y32978D01*
X102844Y32998D01*
X103217Y33371D01*
X103789Y33276D01*
X104479Y33079D01*
X105069Y32686D01*
X105462Y32293D01*
X105855Y31702D01*
X106053Y31108D01*
X106251Y30516D01*
X106251Y29032D01*
X106053Y28440D01*
X105855Y27846D01*
X105462Y27255D01*
X104970Y26763D01*
X104480Y26470D01*
X103790Y26272D01*
X103101Y26174D01*
X102518Y26271D01*
G37*
%LPD*%
%LPC*%
G36*
X102808Y47273D02*
X102808Y47273D01*
X102224Y47468D01*
X101735Y47859D01*
X101238Y48456D01*
X101180Y48469D01*
X101177Y48454D01*
X101162Y48455D01*
X100765Y47959D01*
X100280Y47571D01*
X99597Y47473D01*
X99008Y47473D01*
X98422Y47669D01*
X97831Y48062D01*
X96837Y49056D01*
X96549Y49440D01*
X96549Y50721D01*
X96649Y51417D01*
X96748Y52109D01*
X97042Y52697D01*
X97435Y53189D01*
X98027Y53683D01*
X98612Y53975D01*
X99183Y53975D01*
X99660Y53593D01*
X99951Y52914D01*
X99951Y52350D01*
X99373Y51965D01*
X99370Y51958D01*
X99365Y51959D01*
X98865Y51459D01*
X98862Y51438D01*
X98851Y51432D01*
X98751Y50832D01*
X98757Y50822D01*
X98751Y50817D01*
X98851Y50117D01*
X98870Y50099D01*
X98869Y50086D01*
X99369Y49686D01*
X99408Y49685D01*
X99418Y49678D01*
X99918Y49878D01*
X99939Y49912D01*
X99949Y49918D01*
X100049Y50717D01*
X100146Y51401D01*
X100425Y51679D01*
X101298Y51873D01*
X101968Y51682D01*
X102251Y51210D01*
X102251Y50624D01*
X102257Y50616D01*
X102253Y50610D01*
X102453Y49910D01*
X102472Y49896D01*
X102473Y49883D01*
X103073Y49483D01*
X103104Y49485D01*
X103116Y49477D01*
X103716Y49677D01*
X103729Y49697D01*
X103742Y49699D01*
X104042Y50199D01*
X104041Y50210D01*
X104048Y50216D01*
X104049Y50217D01*
X104149Y50917D01*
X104142Y50930D01*
X104147Y50938D01*
X103947Y51638D01*
X103933Y51648D01*
X103935Y51659D01*
X103535Y52059D01*
X103528Y52060D01*
X103527Y52065D01*
X102937Y52459D01*
X102651Y52935D01*
X102748Y53713D01*
X102937Y54280D01*
X103500Y54374D01*
X104086Y54276D01*
X104774Y53981D01*
X105265Y53589D01*
X105658Y53097D01*
X105954Y52505D01*
X106152Y51913D01*
X106251Y51221D01*
X106251Y50527D01*
X106152Y49834D01*
X106142Y49799D01*
X106100Y49652D01*
X106057Y49504D01*
X106043Y49455D01*
X106001Y49307D01*
X105959Y49159D01*
X105954Y49144D01*
X105660Y48652D01*
X105263Y48157D01*
X104771Y47665D01*
X104185Y47372D01*
X103497Y47273D01*
X102808Y47273D01*
G37*
%LPD*%
%LPC*%
G36*
X43604Y109395D02*
X43604Y109395D01*
X43015Y109592D01*
X42421Y109889D01*
X41832Y110282D01*
X41438Y110872D01*
X41142Y111366D01*
X40945Y112053D01*
X40945Y112743D01*
X41044Y113435D01*
X41240Y114022D01*
X41633Y114513D01*
X42129Y115009D01*
X42622Y115403D01*
X43308Y115698D01*
X44500Y115797D01*
X44544Y115837D01*
X44537Y115845D01*
X44545Y115852D01*
X44445Y116652D01*
X44411Y116687D01*
X44408Y116694D01*
X44008Y116794D01*
X44000Y116790D01*
X43996Y116795D01*
X41904Y116795D01*
X41335Y116985D01*
X41145Y117554D01*
X41145Y118432D01*
X41427Y118901D01*
X42000Y118997D01*
X45681Y118997D01*
X46258Y118612D01*
X46548Y118031D01*
X46947Y114940D01*
X47045Y113960D01*
X46763Y113584D01*
X46076Y113191D01*
X45500Y112999D01*
X44918Y113290D01*
X44318Y113590D01*
X44292Y113585D01*
X44280Y113593D01*
X43680Y113393D01*
X43671Y113379D01*
X43661Y113381D01*
X43161Y112881D01*
X43157Y112848D01*
X43147Y112838D01*
X43247Y112238D01*
X43257Y112229D01*
X43254Y112221D01*
X43554Y111721D01*
X43583Y111709D01*
X43590Y111697D01*
X44390Y111597D01*
X44403Y111605D01*
X44412Y111599D01*
X45012Y111799D01*
X45017Y111807D01*
X45023Y111805D01*
X45615Y112200D01*
X46086Y112294D01*
X46663Y111909D01*
X47147Y111328D01*
X47147Y110861D01*
X46761Y110282D01*
X46171Y109889D01*
X45577Y109592D01*
X44988Y109395D01*
X43604Y109395D01*
G37*
%LPD*%
%LPC*%
G36*
X153465Y44948D02*
X153465Y44948D01*
X152881Y45143D01*
X152391Y45633D01*
X151998Y46124D01*
X151801Y46714D01*
X151201Y48714D01*
X151190Y48722D01*
X151192Y48731D01*
X150792Y49231D01*
X150762Y49238D01*
X150754Y49249D01*
X150154Y49249D01*
X150133Y49233D01*
X150119Y49235D01*
X149719Y48835D01*
X149716Y48812D01*
X149705Y48806D01*
X149605Y48006D01*
X149617Y47986D01*
X149612Y47974D01*
X150305Y46886D01*
X150305Y46320D01*
X149823Y45838D01*
X149244Y45452D01*
X148781Y45545D01*
X148294Y46129D01*
X147998Y46622D01*
X147702Y47314D01*
X147603Y48003D01*
X147603Y48697D01*
X147702Y49389D01*
X147899Y49978D01*
X148291Y50566D01*
X148785Y50962D01*
X149277Y51355D01*
X149961Y51551D01*
X150650Y51551D01*
X151240Y51452D01*
X151928Y51157D01*
X152419Y50765D01*
X152810Y50276D01*
X153007Y49684D01*
X153010Y49683D01*
X153009Y49681D01*
X153306Y48987D01*
X153405Y48293D01*
X153410Y48288D01*
X153407Y48284D01*
X153607Y47684D01*
X153618Y47677D01*
X153616Y47669D01*
X154016Y47169D01*
X154046Y47162D01*
X154054Y47151D01*
X154654Y47151D01*
X154675Y47167D01*
X154689Y47165D01*
X155089Y47565D01*
X155090Y47576D01*
X155092Y47577D01*
X155091Y47579D01*
X155091Y47584D01*
X155102Y47588D01*
X155302Y48388D01*
X155292Y48410D01*
X155298Y48422D01*
X154998Y49022D01*
X154992Y49025D01*
X154993Y49030D01*
X154103Y50216D01*
X154103Y50685D01*
X154491Y51266D01*
X154971Y51651D01*
X155538Y51651D01*
X155922Y51363D01*
X156317Y50967D01*
X156813Y50373D01*
X157108Y49782D01*
X157305Y49093D01*
X157305Y47704D01*
X157207Y47115D01*
X156613Y45929D01*
X156125Y45441D01*
X155535Y45146D01*
X154943Y44948D01*
X154154Y44850D01*
X153465Y44948D01*
G37*
%LPD*%
%LPC*%
G36*
X128303Y47619D02*
X128303Y47619D01*
X127617Y47717D01*
X127126Y48012D01*
X126538Y48404D01*
X126246Y48989D01*
X126047Y49585D01*
X125848Y50281D01*
X125749Y50878D01*
X125742Y50884D01*
X125745Y50889D01*
X125445Y51589D01*
X125434Y51596D01*
X125435Y51605D01*
X125035Y52005D01*
X125003Y52009D01*
X124993Y52019D01*
X124293Y51919D01*
X124269Y51894D01*
X124256Y51892D01*
X123956Y51292D01*
X123960Y51272D01*
X123951Y51263D01*
X124051Y50563D01*
X124064Y50550D01*
X124062Y50539D01*
X124457Y50044D01*
X124747Y49369D01*
X124559Y48900D01*
X123973Y48412D01*
X123402Y48126D01*
X122933Y48408D01*
X122542Y48897D01*
X122246Y49488D01*
X122048Y50180D01*
X121949Y50873D01*
X121949Y51563D01*
X121955Y51584D01*
X121997Y51732D01*
X121998Y51732D01*
X121997Y51732D01*
X122040Y51880D01*
X122054Y51929D01*
X122096Y52077D01*
X122138Y52224D01*
X122147Y52255D01*
X122344Y52846D01*
X122737Y53337D01*
X123229Y53829D01*
X123815Y54123D01*
X124404Y54221D01*
X125097Y54221D01*
X125785Y54122D01*
X126371Y53829D01*
X126861Y53340D01*
X127156Y52848D01*
X127454Y52153D01*
X127652Y51459D01*
X127751Y50862D01*
X127756Y50858D01*
X127753Y50854D01*
X127953Y50254D01*
X127970Y50243D01*
X127969Y50232D01*
X128469Y49832D01*
X128490Y49831D01*
X128495Y49825D01*
X128504Y49825D01*
X128507Y49821D01*
X129207Y49921D01*
X129229Y49943D01*
X129242Y49945D01*
X129542Y50445D01*
X129542Y50449D01*
X129544Y50451D01*
X129541Y50456D01*
X129541Y50459D01*
X129549Y50463D01*
X129649Y51163D01*
X129638Y51183D01*
X129643Y51194D01*
X129243Y51894D01*
X129237Y51897D01*
X129238Y51901D01*
X128840Y52399D01*
X128449Y52985D01*
X128449Y53552D01*
X128933Y54132D01*
X129406Y54416D01*
X129977Y54226D01*
X130368Y53933D01*
X130862Y53439D01*
X131257Y52845D01*
X131552Y52255D01*
X131651Y51567D01*
X131651Y50277D01*
X131624Y50183D01*
X131610Y50133D01*
X131568Y49986D01*
X131525Y49838D01*
X131511Y49789D01*
X131469Y49641D01*
X131454Y49588D01*
X131158Y48997D01*
X130763Y48503D01*
X130271Y48011D01*
X129685Y47717D01*
X129096Y47619D01*
X128303Y47619D01*
G37*
%LPD*%
%LPC*%
G36*
X159347Y210055D02*
X159347Y210055D01*
X158654Y210228D01*
X158150Y210648D01*
X157806Y211078D01*
X157530Y211722D01*
X157249Y212472D01*
X157158Y213204D01*
X157158Y214857D01*
X157249Y215589D01*
X157530Y216338D01*
X157805Y216979D01*
X158234Y217495D01*
X158759Y217845D01*
X159375Y218109D01*
X160175Y218197D01*
X160886Y218109D01*
X161587Y217846D01*
X162010Y217507D01*
X162450Y216979D01*
X162724Y216338D01*
X163006Y215589D01*
X163097Y214857D01*
X163097Y213227D01*
X162716Y211702D01*
X162457Y211097D01*
X162021Y210661D01*
X161496Y210224D01*
X160904Y210055D01*
X160080Y209963D01*
X159347Y210055D01*
G37*
%LPD*%
%LPC*%
G36*
X50200Y109395D02*
X50200Y109395D01*
X49629Y109490D01*
X49345Y110058D01*
X49345Y118131D01*
X49725Y118701D01*
X50300Y118797D01*
X50979Y118797D01*
X51451Y118419D01*
X51547Y117842D01*
X51547Y114446D01*
X51566Y114420D01*
X51566Y114407D01*
X51966Y114107D01*
X51988Y114107D01*
X51996Y114097D01*
X53396Y114097D01*
X53429Y114122D01*
X53440Y114124D01*
X53640Y114524D01*
X53636Y114548D01*
X53644Y114558D01*
X52846Y117847D01*
X52940Y118316D01*
X53517Y118701D01*
X54193Y118894D01*
X54858Y118609D01*
X55049Y118130D01*
X55248Y117434D01*
X56048Y114134D01*
X56051Y114132D01*
X56049Y114130D01*
X56246Y113541D01*
X56148Y112761D01*
X55959Y112383D01*
X55384Y112095D01*
X51896Y112095D01*
X51875Y112079D01*
X51861Y112081D01*
X51561Y111781D01*
X51558Y111754D01*
X51547Y111746D01*
X51547Y110350D01*
X51451Y109775D01*
X50881Y109395D01*
X50200Y109395D01*
G37*
%LPD*%
%LPC*%
G36*
X48784Y86535D02*
X48784Y86535D01*
X48216Y86819D01*
X48121Y87390D01*
X48121Y94883D01*
X48218Y95560D01*
X48689Y95937D01*
X49468Y95937D01*
X50042Y95841D01*
X50323Y95372D01*
X50323Y91286D01*
X50359Y91239D01*
X50366Y91244D01*
X50372Y91237D01*
X52372Y91237D01*
X52419Y91273D01*
X52414Y91280D01*
X52421Y91286D01*
X52421Y91886D01*
X52416Y91894D01*
X52420Y91899D01*
X51720Y94496D01*
X51623Y95176D01*
X51906Y95647D01*
X52586Y95938D01*
X53255Y96034D01*
X53729Y95559D01*
X53925Y94972D01*
X54924Y91076D01*
X55022Y90386D01*
X54926Y89709D01*
X54549Y89333D01*
X53769Y89235D01*
X50372Y89235D01*
X50325Y89199D01*
X50330Y89192D01*
X50323Y89186D01*
X50323Y87200D01*
X50039Y86727D01*
X49464Y86535D01*
X48784Y86535D01*
G37*
%LPD*%
%LPC*%
G36*
X49602Y131239D02*
X49602Y131239D01*
X49129Y131523D01*
X48937Y132098D01*
X48937Y139586D01*
X49034Y140163D01*
X49508Y140543D01*
X50287Y140640D01*
X50858Y140545D01*
X51139Y140076D01*
X51139Y136090D01*
X51175Y136043D01*
X51179Y136046D01*
X51181Y136041D01*
X51881Y135941D01*
X51886Y135944D01*
X51888Y135941D01*
X53188Y135941D01*
X53235Y135977D01*
X53230Y135984D01*
X53237Y135990D01*
X53237Y136590D01*
X53232Y136597D01*
X53236Y136601D01*
X52636Y139201D01*
X52634Y139202D01*
X52635Y139204D01*
X52441Y139883D01*
X52722Y140351D01*
X53402Y140642D01*
X54074Y140738D01*
X54545Y140361D01*
X54740Y139678D01*
X55740Y135780D01*
X55838Y135189D01*
X55741Y134413D01*
X55463Y134134D01*
X54682Y133939D01*
X51288Y133939D01*
X51241Y133903D01*
X51242Y133901D01*
X51240Y133900D01*
X51140Y133400D01*
X51143Y133393D01*
X51139Y133390D01*
X51139Y131998D01*
X50949Y131429D01*
X50380Y131239D01*
X49602Y131239D01*
G37*
%LPD*%
%LPC*%
G36*
X39689Y86535D02*
X39689Y86535D01*
X39218Y86912D01*
X39121Y87589D01*
X39121Y94978D01*
X39319Y95570D01*
X39308Y95602D01*
X39312Y95614D01*
X39290Y95646D01*
X39290Y95647D01*
X39297Y95644D01*
X39786Y95937D01*
X40469Y95937D01*
X41135Y95842D01*
X41323Y95278D01*
X41323Y91886D01*
X41326Y91881D01*
X41323Y91878D01*
X41423Y91278D01*
X41467Y91237D01*
X41470Y91240D01*
X41472Y91237D01*
X43472Y91237D01*
X43519Y91273D01*
X43510Y91285D01*
X43520Y91297D01*
X42720Y94695D01*
X42625Y95269D01*
X43000Y95644D01*
X43682Y95937D01*
X44352Y95937D01*
X44728Y95560D01*
X44924Y94874D01*
X45924Y90976D01*
X46022Y90287D01*
X45927Y89713D01*
X45452Y89333D01*
X44669Y89235D01*
X41372Y89235D01*
X41325Y89199D01*
X41330Y89192D01*
X41323Y89186D01*
X41323Y87100D01*
X41042Y86631D01*
X40369Y86535D01*
X39689Y86535D01*
G37*
%LPD*%
%LPC*%
G36*
X148689Y35035D02*
X148689Y35035D01*
X148296Y35527D01*
X148000Y36118D01*
X147802Y36810D01*
X147703Y37503D01*
X147703Y38097D01*
X147803Y38792D01*
X147902Y39386D01*
X148199Y40079D01*
X148496Y40673D01*
X148891Y41167D01*
X149387Y41663D01*
X149880Y42057D01*
X150572Y42354D01*
X151170Y42553D01*
X151762Y42751D01*
X153154Y42751D01*
X153201Y42787D01*
X153198Y42791D01*
X153203Y42793D01*
X153206Y42816D01*
X153205Y42805D01*
X153236Y42754D01*
X153238Y42755D01*
X153238Y42753D01*
X154435Y42354D01*
X155029Y42057D01*
X155623Y41662D01*
X156117Y41167D01*
X156512Y40673D01*
X156810Y40078D01*
X157106Y39485D01*
X157205Y38793D01*
X157305Y38097D01*
X157305Y37503D01*
X157206Y36810D01*
X157008Y36019D01*
X156714Y35528D01*
X156321Y35038D01*
X155829Y34742D01*
X155814Y34705D01*
X155808Y34700D01*
X155809Y34699D01*
X155805Y34696D01*
X155806Y34680D01*
X155803Y34706D01*
X155773Y34737D01*
X155770Y34747D01*
X155178Y34944D01*
X154595Y35430D01*
X154408Y35898D01*
X154898Y36878D01*
X154897Y36883D01*
X154901Y36884D01*
X155101Y37484D01*
X155097Y37495D01*
X155103Y37500D01*
X155103Y38200D01*
X155100Y38205D01*
X155103Y38208D01*
X155003Y38808D01*
X154993Y38817D01*
X154997Y38824D01*
X154597Y39524D01*
X154591Y39527D01*
X154592Y39531D01*
X154192Y40031D01*
X154178Y40034D01*
X154176Y40044D01*
X153576Y40344D01*
X153571Y40343D01*
X153570Y40347D01*
X152970Y40547D01*
X152961Y40544D01*
X152959Y40548D01*
X152955Y40548D01*
X152954Y40549D01*
X152254Y40549D01*
X152252Y40548D01*
X152248Y40548D01*
X152247Y40549D01*
X151547Y40449D01*
X151536Y40438D01*
X151527Y40441D01*
X150927Y40041D01*
X150926Y40038D01*
X150923Y40038D01*
X150423Y39638D01*
X150419Y39622D01*
X150409Y39619D01*
X150109Y38919D01*
X150110Y38916D01*
X150107Y38916D01*
X149907Y38316D01*
X149911Y38305D01*
X149905Y38300D01*
X149905Y37600D01*
X149911Y37592D01*
X149907Y37586D01*
X150107Y36886D01*
X150114Y36881D01*
X150112Y36875D01*
X150409Y36379D01*
X150602Y35802D01*
X150413Y35330D01*
X149830Y34844D01*
X149165Y34654D01*
X148689Y35035D01*
G37*
%LPD*%
%LPC*%
G36*
X157249Y126667D02*
X157249Y126667D01*
X156560Y126766D01*
X155868Y127062D01*
X155374Y127358D01*
X154888Y127747D01*
X154699Y128316D01*
X154988Y128990D01*
X155470Y129473D01*
X155936Y129566D01*
X156519Y129177D01*
X156526Y129178D01*
X156528Y129172D01*
X157028Y128972D01*
X157035Y128974D01*
X157038Y128969D01*
X157638Y128869D01*
X157643Y128872D01*
X157646Y128869D01*
X158346Y128869D01*
X158355Y128876D01*
X158362Y128871D01*
X158962Y129071D01*
X158967Y129079D01*
X158973Y129077D01*
X159573Y129477D01*
X159576Y129484D01*
X159581Y129483D01*
X160081Y129983D01*
X160082Y129995D01*
X160090Y129996D01*
X160390Y130596D01*
X160388Y130607D01*
X160395Y130610D01*
X160495Y131210D01*
X160492Y131215D01*
X160495Y131218D01*
X160495Y132018D01*
X160488Y132027D01*
X160493Y132034D01*
X160293Y132634D01*
X160285Y132639D01*
X160287Y132645D01*
X159887Y133245D01*
X159877Y133249D01*
X159877Y133256D01*
X159377Y133656D01*
X159367Y133657D01*
X159365Y133663D01*
X158665Y133963D01*
X158657Y133961D01*
X158654Y133967D01*
X158054Y134067D01*
X158049Y134064D01*
X158046Y134067D01*
X157346Y134067D01*
X157337Y134060D01*
X157330Y134065D01*
X156730Y133865D01*
X156726Y133859D01*
X156722Y133861D01*
X156028Y133464D01*
X155655Y133371D01*
X155082Y133754D01*
X154695Y134333D01*
X154695Y134901D01*
X155080Y135381D01*
X155668Y135773D01*
X156261Y135971D01*
X156956Y136170D01*
X157649Y136269D01*
X158243Y136269D01*
X158935Y136170D01*
X159528Y135972D01*
X160225Y135673D01*
X160817Y135377D01*
X161708Y134487D01*
X162103Y133893D01*
X162400Y133300D01*
X162598Y132607D01*
X162697Y132014D01*
X162697Y131321D01*
X162597Y130625D01*
X162498Y129933D01*
X162202Y129340D01*
X161904Y128745D01*
X161509Y128251D01*
X161015Y127756D01*
X160421Y127361D01*
X159827Y127064D01*
X159231Y126865D01*
X158539Y126667D01*
X157249Y126667D01*
G37*
%LPD*%
G36*
X159105Y190905D02*
X159105Y190905D01*
X159109Y190902D01*
X160209Y191102D01*
X160213Y191106D01*
X160217Y191104D01*
X161017Y191404D01*
X161027Y191420D01*
X161038Y191419D01*
X161438Y191919D01*
X161439Y191933D01*
X161447Y191936D01*
X161457Y191971D01*
X161471Y192020D01*
X161513Y192168D01*
X161514Y192168D01*
X161513Y192168D01*
X161556Y192316D01*
X161570Y192365D01*
X161612Y192513D01*
X161647Y192636D01*
X161645Y192642D01*
X161649Y192644D01*
X161749Y193444D01*
X161748Y193445D01*
X161749Y193446D01*
X161849Y194546D01*
X161847Y194548D01*
X161849Y194550D01*
X161849Y202150D01*
X161846Y202154D01*
X161849Y202156D01*
X161749Y202956D01*
X161733Y202972D01*
X161735Y202985D01*
X161235Y203485D01*
X161212Y203488D01*
X161205Y203499D01*
X160205Y203599D01*
X160195Y203593D01*
X160189Y203598D01*
X159289Y203398D01*
X159269Y203375D01*
X159256Y203372D01*
X158956Y202772D01*
X158959Y202756D01*
X158951Y202750D01*
X158951Y195153D01*
X158852Y194264D01*
X158568Y193696D01*
X157695Y193599D01*
X157669Y193574D01*
X157656Y193572D01*
X157356Y192972D01*
X157359Y192956D01*
X157351Y192950D01*
X157351Y191850D01*
X157359Y191839D01*
X157355Y191831D01*
X157655Y191131D01*
X157678Y191117D01*
X157682Y191104D01*
X158182Y190904D01*
X158195Y190908D01*
X158200Y190901D01*
X159100Y190901D01*
X159105Y190905D01*
G37*
G36*
X185718Y87710D02*
X185718Y87710D01*
X185721Y87707D01*
X186421Y87807D01*
X186426Y87812D01*
X186430Y87809D01*
X187030Y88009D01*
X187035Y88017D01*
X187041Y88015D01*
X187641Y88415D01*
X187644Y88422D01*
X187649Y88421D01*
X188149Y88921D01*
X188150Y88933D01*
X188158Y88934D01*
X188758Y90134D01*
X188756Y90145D01*
X188763Y90149D01*
X188863Y90849D01*
X188860Y90854D01*
X188863Y90856D01*
X188863Y91556D01*
X188860Y91560D01*
X188863Y91563D01*
X188763Y92263D01*
X188758Y92268D01*
X188761Y92272D01*
X188561Y92872D01*
X188553Y92877D01*
X188555Y92883D01*
X188155Y93483D01*
X188148Y93486D01*
X188149Y93491D01*
X187749Y93891D01*
X187745Y93891D01*
X187745Y93894D01*
X187245Y94294D01*
X187237Y94295D01*
X187236Y94300D01*
X186636Y94600D01*
X186629Y94599D01*
X186628Y94603D01*
X185928Y94803D01*
X185923Y94802D01*
X185921Y94805D01*
X185221Y94905D01*
X185212Y94900D01*
X185207Y94905D01*
X183807Y94705D01*
X183799Y94697D01*
X183792Y94700D01*
X183192Y94400D01*
X183187Y94390D01*
X183179Y94391D01*
X182679Y93891D01*
X182679Y93887D01*
X182676Y93887D01*
X182276Y93387D01*
X182275Y93374D01*
X182267Y93372D01*
X182067Y92772D01*
X182069Y92765D01*
X182065Y92763D01*
X181965Y92063D01*
X181968Y92058D01*
X181965Y92056D01*
X181965Y91256D01*
X181984Y91231D01*
X181983Y91218D01*
X182483Y90818D01*
X182491Y90817D01*
X182492Y90812D01*
X183092Y90512D01*
X183103Y90514D01*
X183109Y90514D01*
X183114Y90507D01*
X185814Y90507D01*
X185861Y90543D01*
X185861Y90544D01*
X185862Y90544D01*
X185866Y90562D01*
X185893Y90511D01*
X185895Y90512D01*
X185896Y90510D01*
X186326Y90338D01*
X185887Y89899D01*
X185306Y89705D01*
X184522Y89705D01*
X183330Y90103D01*
X183301Y90093D01*
X183289Y90098D01*
X182789Y89798D01*
X182782Y89782D01*
X182771Y89780D01*
X182371Y89080D01*
X182374Y89063D01*
X182365Y89056D01*
X182365Y88556D01*
X182381Y88535D01*
X182379Y88521D01*
X182679Y88221D01*
X182688Y88220D01*
X182689Y88214D01*
X183189Y87914D01*
X183199Y87915D01*
X183202Y87908D01*
X184002Y87708D01*
X184010Y87712D01*
X184014Y87707D01*
X185714Y87707D01*
X185718Y87710D01*
G37*
G36*
X129418Y87710D02*
X129418Y87710D01*
X129421Y87707D01*
X130121Y87807D01*
X130126Y87812D01*
X130130Y87809D01*
X130730Y88009D01*
X130735Y88017D01*
X130741Y88015D01*
X131341Y88415D01*
X131344Y88422D01*
X131349Y88421D01*
X131849Y88921D01*
X131850Y88933D01*
X131858Y88934D01*
X132458Y90134D01*
X132456Y90145D01*
X132463Y90149D01*
X132563Y90849D01*
X132560Y90854D01*
X132563Y90856D01*
X132563Y91556D01*
X132560Y91560D01*
X132563Y91563D01*
X132463Y92263D01*
X132458Y92268D01*
X132461Y92272D01*
X132261Y92872D01*
X132256Y92875D01*
X132258Y92878D01*
X131958Y93478D01*
X131945Y93485D01*
X131945Y93494D01*
X130945Y94294D01*
X130937Y94295D01*
X130936Y94300D01*
X130336Y94600D01*
X130329Y94599D01*
X130328Y94603D01*
X129628Y94803D01*
X129623Y94802D01*
X129621Y94805D01*
X128921Y94905D01*
X128912Y94900D01*
X128907Y94905D01*
X127507Y94705D01*
X127499Y94697D01*
X127492Y94700D01*
X126892Y94400D01*
X126887Y94390D01*
X126879Y94391D01*
X126379Y93891D01*
X126378Y93882D01*
X126372Y93881D01*
X126072Y93381D01*
X126072Y93378D01*
X126070Y93378D01*
X125770Y92778D01*
X125772Y92767D01*
X125765Y92763D01*
X125665Y92063D01*
X125668Y92058D01*
X125665Y92056D01*
X125665Y91256D01*
X125684Y91231D01*
X125683Y91218D01*
X126183Y90818D01*
X126191Y90817D01*
X126192Y90812D01*
X126792Y90512D01*
X126803Y90514D01*
X126809Y90514D01*
X126814Y90507D01*
X129605Y90507D01*
X130026Y90338D01*
X129587Y89899D01*
X129006Y89705D01*
X128222Y89705D01*
X127030Y90103D01*
X127001Y90093D01*
X126989Y90098D01*
X126489Y89798D01*
X126482Y89782D01*
X126471Y89780D01*
X126071Y89080D01*
X126074Y89063D01*
X126065Y89056D01*
X126065Y88556D01*
X126081Y88535D01*
X126079Y88521D01*
X126379Y88221D01*
X126388Y88220D01*
X126389Y88214D01*
X126889Y87914D01*
X126899Y87915D01*
X126902Y87908D01*
X127702Y87708D01*
X127710Y87712D01*
X127714Y87707D01*
X129414Y87707D01*
X129418Y87710D01*
G37*
%LPC*%
G36*
X97520Y35673D02*
X97520Y35673D01*
X97042Y36152D01*
X96849Y36633D01*
X96849Y37207D01*
X97229Y37682D01*
X97816Y37877D01*
X97818Y37881D01*
X97821Y37879D01*
X102821Y40179D01*
X102827Y40190D01*
X102835Y40189D01*
X103135Y40489D01*
X103135Y40491D01*
X103136Y40491D01*
X103136Y40495D01*
X103138Y40511D01*
X103141Y40514D01*
X103139Y40517D01*
X103143Y40548D01*
X103125Y40551D01*
X103122Y40568D01*
X102522Y40868D01*
X102520Y40868D01*
X102520Y40869D01*
X97921Y42868D01*
X97326Y43166D01*
X96942Y43454D01*
X96753Y44022D01*
X97042Y44696D01*
X97520Y45175D01*
X98000Y45175D01*
X98035Y45201D01*
X98045Y45204D01*
X98057Y45231D01*
X98070Y45185D01*
X98077Y45187D01*
X98078Y45180D01*
X98678Y44880D01*
X105378Y41580D01*
X105963Y41287D01*
X106251Y40712D01*
X106251Y40038D01*
X105963Y39559D01*
X105375Y39167D01*
X98682Y35870D01*
X97993Y35673D01*
X97520Y35673D01*
G37*
%LPD*%
G36*
X142202Y190905D02*
X142202Y190905D01*
X142206Y190901D01*
X143006Y191001D01*
X143029Y191024D01*
X143043Y191026D01*
X143443Y191726D01*
X143440Y191743D01*
X143449Y191750D01*
X143449Y198550D01*
X143440Y198563D01*
X143444Y198572D01*
X143144Y199172D01*
X143123Y199183D01*
X143119Y199195D01*
X142419Y199495D01*
X142406Y199492D01*
X142400Y199499D01*
X141300Y199499D01*
X141284Y199487D01*
X141273Y199491D01*
X140673Y199091D01*
X140670Y199084D01*
X140665Y199085D01*
X140397Y198817D01*
X139832Y199288D01*
X139818Y199288D01*
X139816Y199297D01*
X138916Y199597D01*
X138905Y199593D01*
X138900Y199599D01*
X138100Y199599D01*
X138093Y199594D01*
X138088Y199598D01*
X137288Y199398D01*
X137271Y199376D01*
X137257Y199374D01*
X136857Y198674D01*
X136860Y198657D01*
X136851Y198650D01*
X136851Y197750D01*
X136860Y197737D01*
X136856Y197728D01*
X137256Y196928D01*
X137272Y196920D01*
X137273Y196909D01*
X137873Y196509D01*
X137901Y196511D01*
X137912Y196502D01*
X138709Y196702D01*
X139491Y196799D01*
X140261Y196415D01*
X140551Y195641D01*
X140551Y192350D01*
X140554Y192346D01*
X140551Y192344D01*
X140651Y191544D01*
X140667Y191528D01*
X140665Y191515D01*
X141165Y191015D01*
X141188Y191012D01*
X141195Y191001D01*
X142195Y190901D01*
X142202Y190905D01*
G37*
G36*
X74502Y190905D02*
X74502Y190905D01*
X74505Y190901D01*
X75405Y191001D01*
X75433Y191028D01*
X75445Y191031D01*
X75745Y191731D01*
X75742Y191744D01*
X75749Y191750D01*
X75749Y198550D01*
X75742Y198559D01*
X75747Y198566D01*
X75547Y199166D01*
X75523Y199182D01*
X75519Y199195D01*
X74819Y199495D01*
X74806Y199492D01*
X74800Y199499D01*
X73600Y199499D01*
X73582Y199485D01*
X73569Y199488D01*
X73069Y199088D01*
X73068Y199084D01*
X73065Y199085D01*
X72795Y198814D01*
X72129Y199290D01*
X72119Y199290D01*
X72117Y199296D01*
X71317Y199596D01*
X71305Y199593D01*
X71300Y199599D01*
X70500Y199599D01*
X70494Y199594D01*
X70489Y199598D01*
X69589Y199398D01*
X69571Y199376D01*
X69557Y199374D01*
X69157Y198674D01*
X69160Y198653D01*
X69151Y198645D01*
X69251Y197745D01*
X69257Y197738D01*
X69254Y197733D01*
X69554Y196933D01*
X69574Y196920D01*
X69576Y196907D01*
X70276Y196507D01*
X70302Y196511D01*
X70312Y196502D01*
X71109Y196702D01*
X71890Y196799D01*
X72560Y196416D01*
X72851Y195641D01*
X72851Y192350D01*
X72854Y192346D01*
X72851Y192344D01*
X72951Y191544D01*
X72967Y191528D01*
X72965Y191515D01*
X73465Y191015D01*
X73488Y191012D01*
X73495Y191001D01*
X74495Y190901D01*
X74502Y190905D01*
G37*
G36*
X177918Y87710D02*
X177918Y87710D01*
X177921Y87707D01*
X178621Y87807D01*
X178643Y87829D01*
X178656Y87831D01*
X178956Y88331D01*
X178956Y88334D01*
X178954Y88349D01*
X178963Y88356D01*
X178963Y91752D01*
X179056Y92307D01*
X179714Y92307D01*
X179739Y92326D01*
X179752Y92325D01*
X180152Y92825D01*
X180153Y92848D01*
X180163Y92856D01*
X180163Y93656D01*
X180156Y93665D01*
X180161Y93672D01*
X179961Y94272D01*
X179936Y94289D01*
X179932Y94302D01*
X179436Y94500D01*
X178963Y94784D01*
X178963Y95356D01*
X178960Y95360D01*
X178963Y95363D01*
X178863Y96063D01*
X178855Y96071D01*
X178858Y96078D01*
X178558Y96678D01*
X178548Y96683D01*
X178549Y96691D01*
X178049Y97191D01*
X178045Y97191D01*
X178045Y97194D01*
X177545Y97594D01*
X177532Y97595D01*
X177530Y97603D01*
X176930Y97803D01*
X176923Y97800D01*
X176923Y97801D01*
X176920Y97805D01*
X176120Y97905D01*
X176114Y97902D01*
X176103Y97902D01*
X176102Y97901D01*
X176098Y97903D01*
X175498Y97703D01*
X175489Y97689D01*
X175479Y97691D01*
X175079Y97291D01*
X175078Y97279D01*
X175072Y97275D01*
X175076Y97269D01*
X175076Y97268D01*
X175065Y97262D01*
X174965Y96462D01*
X174973Y96449D01*
X174967Y96440D01*
X175167Y95840D01*
X175187Y95827D01*
X175189Y95814D01*
X175689Y95514D01*
X175703Y95515D01*
X175707Y95507D01*
X176384Y95411D01*
X176659Y94952D01*
X176483Y94510D01*
X175821Y94605D01*
X175816Y94602D01*
X175805Y94602D01*
X175802Y94604D01*
X175002Y94404D01*
X174987Y94386D01*
X174975Y94386D01*
X174675Y93986D01*
X174675Y93978D01*
X174671Y93975D01*
X174675Y93970D01*
X174675Y93964D01*
X174665Y93956D01*
X174665Y93256D01*
X174668Y93251D01*
X174665Y93248D01*
X174765Y92648D01*
X174786Y92629D01*
X174787Y92615D01*
X175387Y92215D01*
X175407Y92216D01*
X175414Y92207D01*
X176665Y92207D01*
X176665Y88856D01*
X176668Y88852D01*
X176665Y88849D01*
X176765Y88149D01*
X176781Y88134D01*
X176779Y88121D01*
X177179Y87721D01*
X177206Y87718D01*
X177214Y87707D01*
X177914Y87707D01*
X177918Y87710D01*
G37*
%LPC*%
G36*
X173333Y25874D02*
X173333Y25874D01*
X173049Y26442D01*
X173049Y34118D01*
X173333Y34685D01*
X173999Y34780D01*
X174567Y34686D01*
X174851Y34118D01*
X174851Y31430D01*
X174887Y31383D01*
X174894Y31388D01*
X174899Y31381D01*
X181696Y31281D01*
X182263Y31186D01*
X182451Y30622D01*
X182451Y29938D01*
X182261Y29369D01*
X181692Y29179D01*
X174900Y29179D01*
X174853Y29143D01*
X174858Y29136D01*
X174851Y29130D01*
X174851Y26344D01*
X174570Y25875D01*
X173901Y25780D01*
X173333Y25874D01*
G37*
%LPD*%
G36*
X121618Y87710D02*
X121618Y87710D01*
X121621Y87707D01*
X122321Y87807D01*
X122329Y87815D01*
X122336Y87812D01*
X123536Y88412D01*
X123548Y88436D01*
X123561Y88440D01*
X123761Y89040D01*
X123753Y89063D01*
X123760Y89074D01*
X123560Y89574D01*
X123550Y89580D01*
X123552Y89588D01*
X123052Y90188D01*
X123022Y90194D01*
X123014Y90205D01*
X122414Y90205D01*
X122400Y90194D01*
X122390Y90199D01*
X121694Y89801D01*
X121109Y89606D01*
X120351Y89701D01*
X120276Y89925D01*
X120829Y90109D01*
X121528Y90309D01*
X121529Y90310D01*
X121530Y90309D01*
X122130Y90509D01*
X122133Y90514D01*
X122136Y90512D01*
X122736Y90812D01*
X122743Y90825D01*
X122752Y90825D01*
X123152Y91325D01*
X123153Y91334D01*
X123154Y91335D01*
X123159Y91337D01*
X123459Y92037D01*
X123457Y92045D01*
X123463Y92048D01*
X123563Y92648D01*
X123560Y92653D01*
X123563Y92656D01*
X123563Y93356D01*
X123552Y93371D01*
X123556Y93381D01*
X123256Y93881D01*
X123253Y93883D01*
X123253Y93886D01*
X122953Y94286D01*
X122938Y94290D01*
X122936Y94300D01*
X122336Y94600D01*
X122329Y94599D01*
X122328Y94603D01*
X121628Y94803D01*
X121622Y94801D01*
X121619Y94805D01*
X120719Y94905D01*
X120711Y94900D01*
X120706Y94905D01*
X120106Y94805D01*
X119407Y94705D01*
X119403Y94700D01*
X119402Y94700D01*
X119398Y94703D01*
X118798Y94503D01*
X118789Y94489D01*
X118779Y94491D01*
X118279Y93991D01*
X118278Y93979D01*
X118272Y93975D01*
X118276Y93969D01*
X118275Y93958D01*
X118265Y93948D01*
X118365Y93348D01*
X118379Y93335D01*
X118376Y93324D01*
X118876Y92724D01*
X118906Y92718D01*
X118914Y92707D01*
X119414Y92707D01*
X119422Y92713D01*
X119428Y92709D01*
X120124Y92908D01*
X120811Y93006D01*
X121443Y92825D01*
X121280Y92498D01*
X120504Y92304D01*
X119906Y92205D01*
X119903Y92201D01*
X119900Y92203D01*
X119200Y92003D01*
X119194Y91995D01*
X119187Y91997D01*
X118587Y91597D01*
X118583Y91587D01*
X118576Y91587D01*
X118176Y91087D01*
X118175Y91076D01*
X118167Y91069D01*
X118169Y91066D01*
X118165Y91064D01*
X118065Y90464D01*
X118066Y90463D01*
X118065Y90463D01*
X117965Y89763D01*
X117972Y89750D01*
X117967Y89742D01*
X118167Y89042D01*
X118174Y89037D01*
X118172Y89031D01*
X118472Y88531D01*
X118480Y88527D01*
X118479Y88521D01*
X118979Y88021D01*
X118995Y88019D01*
X118998Y88009D01*
X119598Y87809D01*
X119604Y87811D01*
X119606Y87807D01*
X120206Y87707D01*
X120211Y87710D01*
X120214Y87707D01*
X121614Y87707D01*
X121618Y87710D01*
G37*
G36*
X113919Y87710D02*
X113919Y87710D01*
X113922Y87707D01*
X114522Y87807D01*
X114528Y87814D01*
X114533Y87811D01*
X115233Y88111D01*
X115235Y88113D01*
X115236Y88112D01*
X115836Y88412D01*
X115848Y88436D01*
X115861Y88440D01*
X116061Y89040D01*
X116053Y89063D01*
X116060Y89074D01*
X115860Y89574D01*
X115850Y89580D01*
X115852Y89588D01*
X115352Y90188D01*
X115322Y90194D01*
X115314Y90205D01*
X114714Y90205D01*
X114700Y90194D01*
X114690Y90199D01*
X113994Y89801D01*
X113409Y89606D01*
X112642Y89702D01*
X112491Y89930D01*
X113028Y90109D01*
X113826Y90308D01*
X113828Y90311D01*
X113830Y90309D01*
X114430Y90509D01*
X114433Y90514D01*
X114436Y90512D01*
X115036Y90812D01*
X115043Y90825D01*
X115052Y90825D01*
X115452Y91325D01*
X115453Y91334D01*
X115454Y91335D01*
X115459Y91337D01*
X115759Y92037D01*
X115757Y92045D01*
X115763Y92048D01*
X115863Y92648D01*
X115857Y92658D01*
X115863Y92663D01*
X115763Y93363D01*
X115757Y93369D01*
X115760Y93374D01*
X115560Y93874D01*
X115548Y93882D01*
X115549Y93891D01*
X115149Y94291D01*
X115140Y94292D01*
X115139Y94298D01*
X114639Y94598D01*
X114630Y94597D01*
X114628Y94603D01*
X113928Y94803D01*
X113922Y94801D01*
X113919Y94805D01*
X113019Y94905D01*
X113011Y94900D01*
X113006Y94905D01*
X112406Y94805D01*
X111707Y94705D01*
X111703Y94701D01*
X111700Y94703D01*
X111000Y94503D01*
X110988Y94486D01*
X110976Y94487D01*
X110576Y93987D01*
X110575Y93978D01*
X110571Y93975D01*
X110575Y93969D01*
X110575Y93958D01*
X110565Y93948D01*
X110665Y93348D01*
X110679Y93335D01*
X110676Y93324D01*
X111176Y92724D01*
X111206Y92718D01*
X111214Y92707D01*
X111714Y92707D01*
X111722Y92713D01*
X111728Y92709D01*
X112424Y92908D01*
X113109Y93006D01*
X113655Y92824D01*
X113573Y92497D01*
X112804Y92304D01*
X112107Y92205D01*
X112102Y92200D01*
X112098Y92203D01*
X111498Y92003D01*
X111493Y91995D01*
X111487Y91997D01*
X110887Y91597D01*
X110883Y91587D01*
X110876Y91587D01*
X110476Y91087D01*
X110475Y91076D01*
X110472Y91073D01*
X110467Y91072D01*
X110267Y90472D01*
X110271Y90461D01*
X110265Y90456D01*
X110265Y89756D01*
X110271Y89748D01*
X110267Y89742D01*
X110467Y89042D01*
X110474Y89037D01*
X110472Y89031D01*
X110772Y88531D01*
X110780Y88527D01*
X110779Y88521D01*
X111279Y88021D01*
X111295Y88019D01*
X111298Y88009D01*
X111898Y87809D01*
X111904Y87811D01*
X111906Y87807D01*
X112506Y87707D01*
X112511Y87710D01*
X112514Y87707D01*
X113914Y87707D01*
X113919Y87710D01*
G37*
%LPC*%
G36*
X59312Y109395D02*
X59312Y109395D01*
X58635Y109879D01*
X58350Y110448D01*
X58539Y110920D01*
X59034Y111514D01*
X59933Y112513D01*
X59935Y112543D01*
X59945Y112553D01*
X59845Y113253D01*
X59828Y113270D01*
X59829Y113283D01*
X58834Y114178D01*
X58442Y114765D01*
X58349Y115233D01*
X58831Y115811D01*
X59409Y116293D01*
X59872Y116201D01*
X60361Y115711D01*
X61361Y114711D01*
X61366Y114710D01*
X61366Y114707D01*
X61766Y114407D01*
X61826Y114407D01*
X61826Y114412D01*
X61831Y114411D01*
X63327Y115908D01*
X63906Y116294D01*
X64372Y116201D01*
X64957Y115616D01*
X65254Y115121D01*
X65278Y115111D01*
X65283Y115098D01*
X65304Y115093D01*
X65252Y115069D01*
X65254Y115065D01*
X65250Y115064D01*
X65054Y114574D01*
X63561Y113081D01*
X63558Y113054D01*
X63547Y113046D01*
X63547Y112546D01*
X63563Y112525D01*
X63561Y112511D01*
X64561Y111511D01*
X65053Y111019D01*
X65242Y110452D01*
X64958Y109979D01*
X64374Y109492D01*
X63906Y109398D01*
X63327Y109785D01*
X61830Y111182D01*
X61807Y111184D01*
X61806Y111186D01*
X61791Y111186D01*
X61770Y111188D01*
X61770Y111183D01*
X61765Y111184D01*
X61265Y110784D01*
X61265Y110782D01*
X61263Y110783D01*
X60264Y109884D01*
X59678Y109395D01*
X59312Y109395D01*
G37*
%LPD*%
%LPC*%
G36*
X63310Y131336D02*
X63310Y131336D01*
X62721Y131827D01*
X61823Y132725D01*
X61809Y132727D01*
X61806Y132736D01*
X61306Y132936D01*
X61291Y132931D01*
X61280Y132931D01*
X61273Y132927D01*
X61265Y132924D01*
X61254Y132926D01*
X59760Y131531D01*
X59186Y131244D01*
X58714Y131433D01*
X58130Y131919D01*
X57942Y132484D01*
X58227Y132960D01*
X59723Y134455D01*
X59724Y134467D01*
X59732Y134468D01*
X59832Y134668D01*
X59822Y134721D01*
X59823Y134725D01*
X58326Y136221D01*
X57940Y136800D01*
X58033Y137266D01*
X58619Y137851D01*
X59094Y138136D01*
X59661Y137947D01*
X60153Y137455D01*
X61153Y136455D01*
X61180Y136452D01*
X61188Y136441D01*
X61588Y136441D01*
X61608Y136456D01*
X61621Y136453D01*
X62621Y137353D01*
X62622Y137359D01*
X62626Y137358D01*
X63117Y137948D01*
X63682Y138136D01*
X64158Y137851D01*
X64743Y137266D01*
X64836Y136800D01*
X64450Y136221D01*
X63053Y134825D01*
X63045Y134766D01*
X63046Y134766D01*
X63046Y134765D01*
X63346Y134265D01*
X63352Y134262D01*
X63351Y134257D01*
X64250Y133258D01*
X64742Y132668D01*
X64835Y132203D01*
X64355Y131627D01*
X63778Y131242D01*
X63310Y131336D01*
G37*
%LPD*%
%LPC*%
G36*
X62494Y86632D02*
X62494Y86632D01*
X61904Y87124D01*
X60905Y88023D01*
X60893Y88024D01*
X60890Y88032D01*
X60390Y88232D01*
X60375Y88228D01*
X60364Y88228D01*
X60358Y88223D01*
X60346Y88220D01*
X60337Y88221D01*
X58844Y86728D01*
X58370Y86538D01*
X57801Y86728D01*
X57315Y87312D01*
X57127Y87782D01*
X57411Y88256D01*
X58908Y89852D01*
X58911Y89878D01*
X58921Y89886D01*
X58921Y90086D01*
X58905Y90107D01*
X58907Y90121D01*
X57510Y91517D01*
X57124Y92096D01*
X57217Y92562D01*
X57803Y93147D01*
X58278Y93432D01*
X58843Y93244D01*
X59334Y92654D01*
X59338Y92654D01*
X59337Y92651D01*
X60237Y91751D01*
X60264Y91748D01*
X60272Y91737D01*
X60772Y91737D01*
X60793Y91753D01*
X60807Y91751D01*
X62300Y93244D01*
X62770Y93432D01*
X63341Y93147D01*
X63829Y92560D01*
X64000Y92134D01*
X63974Y92135D01*
X63937Y92110D01*
X63928Y92108D01*
X63631Y91515D01*
X62137Y90021D01*
X62129Y89962D01*
X62138Y89961D01*
X62137Y89951D01*
X62536Y89552D01*
X63434Y88554D01*
X63923Y87968D01*
X63923Y87501D01*
X63537Y86922D01*
X62962Y86538D01*
X62494Y86632D01*
G37*
%LPD*%
%LPC*%
G36*
X163203Y174849D02*
X163203Y174849D01*
X162416Y174948D01*
X161727Y175342D01*
X161037Y175834D01*
X160646Y176519D01*
X160449Y177309D01*
X160350Y178197D01*
X160547Y179085D01*
X160842Y179772D01*
X161432Y180362D01*
X162123Y180856D01*
X162909Y181151D01*
X163691Y181151D01*
X164477Y180856D01*
X165168Y180362D01*
X165761Y179770D01*
X166152Y179084D01*
X166251Y178197D01*
X166251Y176520D01*
X165468Y175738D01*
X164775Y175242D01*
X163988Y174849D01*
X163203Y174849D01*
G37*
%LPD*%
%LPC*%
G36*
X229822Y166475D02*
X229822Y166475D01*
X229821Y166474D01*
X229820Y166475D01*
X229332Y166475D01*
X228942Y166670D01*
X228939Y166669D01*
X228938Y166672D01*
X228444Y166869D01*
X228050Y167165D01*
X227655Y167461D01*
X227361Y167854D01*
X227063Y168349D01*
X226867Y168742D01*
X226669Y169731D01*
X226669Y170221D01*
X226768Y170716D01*
X226867Y171212D01*
X227063Y171702D01*
X227359Y172096D01*
X227655Y172491D01*
X228048Y172785D01*
X228543Y173083D01*
X228936Y173279D01*
X229925Y173477D01*
X232308Y173477D01*
X232678Y173292D01*
X232772Y172914D01*
X232810Y172884D01*
X232814Y172877D01*
X232834Y172874D01*
X232823Y172875D01*
X232774Y172842D01*
X232780Y172833D01*
X232771Y172826D01*
X232771Y171876D01*
X231137Y171579D01*
X230855Y171861D01*
X230830Y171864D01*
X230827Y171869D01*
X230825Y171869D01*
X230820Y171875D01*
X230320Y171875D01*
X230314Y171871D01*
X230310Y171874D01*
X229310Y171674D01*
X229300Y171663D01*
X229290Y171665D01*
X228890Y171365D01*
X228888Y171356D01*
X228881Y171356D01*
X228581Y170956D01*
X228581Y170948D01*
X228578Y170946D01*
X228579Y170945D01*
X228574Y170944D01*
X228374Y170444D01*
X228376Y170438D01*
X228372Y170436D01*
X228272Y169936D01*
X228278Y169923D01*
X228272Y169916D01*
X228372Y169416D01*
X228379Y169410D01*
X228376Y169404D01*
X228576Y169004D01*
X228582Y169001D01*
X228581Y168996D01*
X228881Y168596D01*
X228886Y168595D01*
X228885Y168591D01*
X229285Y168191D01*
X229306Y168188D01*
X229312Y168177D01*
X229912Y168077D01*
X229917Y168080D01*
X229920Y168077D01*
X231020Y168077D01*
X231067Y168113D01*
X231067Y168114D01*
X231068Y168114D01*
X231168Y168514D01*
X231164Y168522D01*
X231169Y168526D01*
X231169Y171485D01*
X232771Y171776D01*
X232771Y167231D01*
X232674Y166745D01*
X232491Y166471D01*
X231917Y166375D01*
X229822Y166475D01*
G37*
%LPD*%
%LPC*%
G36*
X235424Y166375D02*
X235424Y166375D01*
X234832Y166474D01*
X234557Y166566D01*
X234371Y167032D01*
X234467Y167708D01*
X234650Y167982D01*
X235125Y168077D01*
X238220Y168077D01*
X238267Y168113D01*
X238262Y168120D01*
X238269Y168126D01*
X238269Y168626D01*
X238264Y168633D01*
X238268Y168638D01*
X238168Y169038D01*
X238121Y169075D01*
X238121Y169074D01*
X238120Y169075D01*
X236624Y169075D01*
X236030Y169174D01*
X235654Y169268D01*
X235469Y169638D01*
X235469Y170311D01*
X235653Y170586D01*
X236129Y170777D01*
X238120Y170777D01*
X238167Y170813D01*
X238167Y170814D01*
X238168Y170814D01*
X238268Y171214D01*
X238267Y171215D01*
X238267Y171216D01*
X238264Y171222D01*
X238269Y171226D01*
X238269Y171726D01*
X238233Y171773D01*
X238231Y171772D01*
X238230Y171774D01*
X237730Y171874D01*
X237723Y171871D01*
X237720Y171875D01*
X234740Y171875D01*
X234466Y172150D01*
X234370Y172726D01*
X234464Y173293D01*
X234832Y173477D01*
X239408Y173477D01*
X239776Y173293D01*
X239871Y172821D01*
X239871Y167132D01*
X239776Y166751D01*
X239496Y166472D01*
X238916Y166375D01*
X235424Y166375D01*
G37*
%LPD*%
%LPC*%
G36*
X156071Y25649D02*
X156071Y25649D01*
X155600Y26026D01*
X155503Y26703D01*
X155503Y30100D01*
X155467Y30147D01*
X155460Y30142D01*
X155454Y30149D01*
X148858Y30149D01*
X148285Y30245D01*
X148002Y30716D01*
X147904Y31495D01*
X148095Y32067D01*
X148568Y32351D01*
X156051Y32351D01*
X156741Y32252D01*
X157209Y32065D01*
X157305Y31397D01*
X157305Y26603D01*
X157209Y25930D01*
X156740Y25649D01*
X156071Y25649D01*
G37*
%LPD*%
G36*
X138616Y87712D02*
X138616Y87712D01*
X138621Y87707D01*
X139321Y87807D01*
X139343Y87829D01*
X139356Y87831D01*
X139656Y88331D01*
X139656Y88334D01*
X139654Y88349D01*
X139663Y88356D01*
X139663Y93756D01*
X139656Y93765D01*
X139661Y93772D01*
X139461Y94372D01*
X139434Y94390D01*
X139430Y94403D01*
X138830Y94603D01*
X138825Y94601D01*
X138825Y94602D01*
X138817Y94602D01*
X138814Y94605D01*
X137914Y94605D01*
X137909Y94602D01*
X137908Y94602D01*
X137898Y94594D01*
X137889Y94598D01*
X137389Y94298D01*
X137383Y94284D01*
X137373Y94283D01*
X137203Y94028D01*
X136745Y94394D01*
X136735Y94395D01*
X136733Y94401D01*
X136033Y94701D01*
X136026Y94700D01*
X136012Y94700D01*
X136007Y94705D01*
X135307Y94605D01*
X135306Y94604D01*
X135306Y94605D01*
X134706Y94505D01*
X134684Y94481D01*
X134683Y94480D01*
X134670Y94478D01*
X134370Y93878D01*
X134370Y93876D01*
X134373Y93862D01*
X134365Y93856D01*
X134365Y93256D01*
X134373Y93245D01*
X134369Y93237D01*
X134669Y92537D01*
X134684Y92528D01*
X134683Y92518D01*
X135183Y92118D01*
X135219Y92117D01*
X135230Y92109D01*
X135825Y92308D01*
X136506Y92405D01*
X137074Y92121D01*
X137265Y91548D01*
X137265Y88856D01*
X137268Y88852D01*
X137265Y88849D01*
X137365Y88149D01*
X137384Y88130D01*
X137384Y88117D01*
X137784Y87817D01*
X137802Y87817D01*
X137808Y87807D01*
X138608Y87707D01*
X138616Y87712D01*
G37*
%LPC*%
G36*
X174562Y126667D02*
X174562Y126667D01*
X174188Y126948D01*
X173993Y127534D01*
X173962Y127555D01*
X173957Y127566D01*
X173939Y127570D01*
X173942Y127572D01*
X173946Y127572D01*
X173955Y127579D01*
X173991Y127597D01*
X173988Y127603D01*
X173993Y127607D01*
X173989Y127613D01*
X173995Y127618D01*
X173995Y135015D01*
X174091Y135688D01*
X174562Y135970D01*
X175342Y136068D01*
X176009Y135877D01*
X176197Y135409D01*
X176197Y127327D01*
X176009Y126858D01*
X175438Y126667D01*
X174562Y126667D01*
G37*
%LPD*%
%LPC*%
G36*
X113308Y174849D02*
X113308Y174849D01*
X112727Y175043D01*
X112244Y175525D01*
X112048Y176310D01*
X111849Y177405D01*
X111849Y178598D01*
X111949Y179696D01*
X111918Y179746D01*
X111913Y179743D01*
X111911Y179748D01*
X111501Y179839D01*
X111991Y179752D01*
X112044Y179779D01*
X112041Y179785D01*
X112048Y179788D01*
X112245Y180578D01*
X112629Y181058D01*
X113208Y181251D01*
X113886Y181251D01*
X114365Y180963D01*
X114754Y180380D01*
X114951Y179493D01*
X115051Y178298D01*
X115051Y177105D01*
X114853Y176014D01*
X114560Y175331D01*
X114079Y174946D01*
X113496Y174849D01*
X113308Y174849D01*
G37*
%LPD*%
G36*
X127409Y39328D02*
X127409Y39328D01*
X127416Y39323D01*
X128016Y39523D01*
X128021Y39531D01*
X128027Y39529D01*
X128627Y39929D01*
X128630Y39936D01*
X128635Y39935D01*
X129035Y40335D01*
X129037Y40348D01*
X129045Y40350D01*
X129445Y41250D01*
X129442Y41264D01*
X129449Y41270D01*
X129449Y42570D01*
X129440Y42583D01*
X129444Y42592D01*
X129244Y42992D01*
X129207Y43011D01*
X129200Y43019D01*
X124500Y43019D01*
X124453Y42983D01*
X124455Y42980D01*
X124453Y42979D01*
X124456Y42974D01*
X124451Y42970D01*
X124451Y41570D01*
X124454Y41566D01*
X124451Y41563D01*
X124551Y40863D01*
X124564Y40850D01*
X124562Y40839D01*
X125362Y39839D01*
X125372Y39837D01*
X125373Y39829D01*
X125973Y39429D01*
X125988Y39430D01*
X125993Y39421D01*
X126693Y39321D01*
X126698Y39324D01*
X126700Y39321D01*
X127400Y39321D01*
X127409Y39328D01*
G37*
%LPC*%
G36*
X242125Y166375D02*
X242125Y166375D01*
X241653Y166470D01*
X241464Y166848D01*
X241436Y166862D01*
X241430Y166874D01*
X241414Y166877D01*
X241465Y166907D01*
X241462Y166913D01*
X241468Y166916D01*
X241566Y167407D01*
X241749Y167681D01*
X242324Y167777D01*
X244320Y167777D01*
X244338Y167791D01*
X244351Y167788D01*
X244851Y168188D01*
X244855Y168203D01*
X244865Y168211D01*
X244859Y168219D01*
X244869Y168226D01*
X244869Y172820D01*
X244964Y173197D01*
X245336Y173477D01*
X245908Y173477D01*
X246298Y173282D01*
X246356Y173293D01*
X246354Y173306D01*
X246366Y173310D01*
X246375Y173334D01*
X246379Y173323D01*
X246372Y173314D01*
X246471Y172920D01*
X246471Y166841D01*
X246288Y166567D01*
X245712Y166375D01*
X242125Y166375D01*
G37*
%LPD*%
%LPC*%
G36*
X194434Y90105D02*
X194434Y90105D01*
X194249Y90291D01*
X194245Y90291D01*
X194245Y90294D01*
X193751Y90690D01*
X193357Y91281D01*
X193061Y91871D01*
X192964Y92457D01*
X193062Y93141D01*
X193357Y93731D01*
X193748Y94318D01*
X194336Y94612D01*
X194926Y94907D01*
X196294Y94907D01*
X196565Y94636D01*
X196565Y90561D01*
X196474Y90105D01*
X194434Y90105D01*
G37*
%LPD*%
%LPC*%
G36*
X145515Y209561D02*
X145515Y209561D01*
X145052Y209653D01*
X145020Y209652D01*
X144977Y209661D01*
X144567Y209661D01*
X144247Y209820D01*
X144214Y209828D01*
X144169Y209849D01*
X143833Y209933D01*
X143620Y210076D01*
X143473Y210223D01*
X143294Y210491D01*
X143271Y210513D01*
X143246Y210549D01*
X143110Y210686D01*
X142938Y211201D01*
X142926Y211221D01*
X142917Y211250D01*
X142830Y211426D01*
X142758Y211642D01*
X142758Y213265D01*
X143007Y213140D01*
X143022Y213137D01*
X143035Y213128D01*
X143169Y213102D01*
X143176Y213100D01*
X143177Y213100D01*
X143288Y213100D01*
X143407Y213040D01*
X143422Y213037D01*
X143435Y213028D01*
X143569Y213002D01*
X143576Y213000D01*
X143577Y213000D01*
X143888Y213000D01*
X144007Y212940D01*
X144022Y212937D01*
X144035Y212928D01*
X144169Y212902D01*
X144176Y212900D01*
X144177Y212900D01*
X144316Y212900D01*
X144557Y212820D01*
X144595Y212816D01*
X144677Y212800D01*
X145016Y212800D01*
X145257Y212720D01*
X145295Y212716D01*
X145377Y212700D01*
X145688Y212700D01*
X145807Y212640D01*
X145822Y212637D01*
X145835Y212628D01*
X145969Y212602D01*
X145976Y212600D01*
X145977Y212600D01*
X146116Y212600D01*
X146332Y212528D01*
X146452Y212468D01*
X146508Y212411D01*
X146540Y212392D01*
X146607Y212340D01*
X146952Y212168D01*
X147008Y212111D01*
X147040Y212092D01*
X147107Y212040D01*
X147194Y211997D01*
X147397Y211591D01*
X147397Y211480D01*
X147401Y211465D01*
X147398Y211450D01*
X147435Y211318D01*
X147436Y211312D01*
X147437Y211311D01*
X147437Y211310D01*
X147497Y211191D01*
X147497Y210842D01*
X147417Y210601D01*
X147413Y210563D01*
X147397Y210480D01*
X147397Y210370D01*
X147365Y210306D01*
X147308Y210249D01*
X147300Y210235D01*
X147297Y210233D01*
X147294Y210226D01*
X147289Y210217D01*
X147237Y210150D01*
X147194Y210064D01*
X147107Y210020D01*
X147078Y209996D01*
X147008Y209949D01*
X146952Y209893D01*
X146688Y209761D01*
X146577Y209761D01*
X146562Y209757D01*
X146547Y209759D01*
X146415Y209723D01*
X146409Y209721D01*
X146408Y209721D01*
X146407Y209720D01*
X146288Y209661D01*
X146177Y209661D01*
X146162Y209657D01*
X146147Y209659D01*
X146015Y209623D01*
X146009Y209621D01*
X146008Y209621D01*
X146007Y209620D01*
X145932Y209583D01*
X145888Y209561D01*
X145515Y209561D01*
G37*
%LPD*%
G36*
X69781Y88746D02*
X69781Y88746D01*
X69790Y88740D01*
X70290Y88940D01*
X70300Y88956D01*
X70311Y88956D01*
X70611Y89356D01*
X70611Y89363D01*
X70613Y89364D01*
X70611Y89365D01*
X70611Y89369D01*
X70619Y89372D01*
X70645Y89462D01*
X70687Y89610D01*
X70701Y89659D01*
X70743Y89807D01*
X70744Y89807D01*
X70743Y89807D01*
X70786Y89955D01*
X70800Y90004D01*
X70819Y90072D01*
X70817Y90078D01*
X70821Y90081D01*
X70921Y90981D01*
X70919Y90984D01*
X70921Y90986D01*
X70921Y91986D01*
X70919Y91989D01*
X70921Y91991D01*
X70821Y92891D01*
X70812Y92901D01*
X70816Y92908D01*
X70516Y93508D01*
X70510Y93511D01*
X70511Y93516D01*
X70211Y93916D01*
X70187Y93922D01*
X70182Y93934D01*
X69682Y94034D01*
X69675Y94031D01*
X69672Y94035D01*
X69172Y94035D01*
X69154Y94022D01*
X69142Y94025D01*
X68742Y93725D01*
X68739Y93712D01*
X68730Y93711D01*
X68430Y93211D01*
X68431Y93201D01*
X68424Y93198D01*
X68224Y92398D01*
X68225Y92395D01*
X68227Y92391D01*
X68228Y92390D01*
X68223Y92386D01*
X68223Y90486D01*
X68229Y90478D01*
X68225Y90472D01*
X68425Y89772D01*
X68426Y89771D01*
X68425Y89770D01*
X68625Y89170D01*
X68642Y89159D01*
X68642Y89147D01*
X69042Y88847D01*
X69060Y88847D01*
X69065Y88837D01*
X69765Y88737D01*
X69781Y88746D01*
G37*
G36*
X70701Y133450D02*
X70701Y133450D01*
X70710Y133446D01*
X71110Y133646D01*
X71117Y133660D01*
X71127Y133660D01*
X71427Y134060D01*
X71427Y134067D01*
X71429Y134068D01*
X71427Y134069D01*
X71427Y134073D01*
X71435Y134076D01*
X71461Y134166D01*
X71503Y134314D01*
X71517Y134363D01*
X71559Y134511D01*
X71560Y134511D01*
X71559Y134511D01*
X71602Y134659D01*
X71616Y134708D01*
X71635Y134776D01*
X71633Y134782D01*
X71637Y134785D01*
X71737Y135685D01*
X71735Y135688D01*
X71737Y135690D01*
X71737Y136690D01*
X71735Y136693D01*
X71737Y136695D01*
X71637Y137595D01*
X71632Y137601D01*
X71635Y137606D01*
X71435Y138206D01*
X71421Y138215D01*
X71423Y138225D01*
X71023Y138625D01*
X71004Y138627D01*
X71000Y138638D01*
X70600Y138738D01*
X70592Y138734D01*
X70588Y138739D01*
X69988Y138739D01*
X69970Y138726D01*
X69958Y138729D01*
X69558Y138429D01*
X69555Y138416D01*
X69546Y138415D01*
X69246Y137915D01*
X69247Y137901D01*
X69239Y137897D01*
X69139Y137197D01*
X69140Y137196D01*
X69139Y137195D01*
X69039Y136195D01*
X69041Y136192D01*
X69039Y136190D01*
X69039Y135290D01*
X69044Y135283D01*
X69040Y135278D01*
X69240Y134478D01*
X69246Y134473D01*
X69244Y134468D01*
X69544Y133868D01*
X69554Y133863D01*
X69553Y133855D01*
X69853Y133555D01*
X69874Y133552D01*
X69880Y133541D01*
X70480Y133441D01*
X70485Y133444D01*
X70488Y133441D01*
X70688Y133441D01*
X70701Y133450D01*
G37*
G36*
X70902Y111601D02*
X70902Y111601D01*
X70906Y111598D01*
X71406Y111698D01*
X71422Y111716D01*
X71435Y111716D01*
X71735Y112116D01*
X71735Y112123D01*
X71738Y112125D01*
X71736Y112128D01*
X71743Y112130D01*
X71943Y112730D01*
X71942Y112733D01*
X71944Y112734D01*
X72144Y113534D01*
X72140Y113542D01*
X72145Y113546D01*
X72145Y114546D01*
X72143Y114549D01*
X72145Y114551D01*
X72045Y115451D01*
X72041Y115456D01*
X72043Y115460D01*
X71843Y116160D01*
X71836Y116165D01*
X71838Y116171D01*
X71538Y116671D01*
X71520Y116679D01*
X71518Y116690D01*
X71118Y116890D01*
X71102Y116887D01*
X71096Y116895D01*
X70496Y116895D01*
X70483Y116886D01*
X70474Y116890D01*
X70074Y116690D01*
X70067Y116676D01*
X70057Y116676D01*
X69757Y116276D01*
X69757Y116263D01*
X69749Y116260D01*
X69729Y116190D01*
X69715Y116141D01*
X69673Y115993D01*
X69630Y115846D01*
X69616Y115796D01*
X69574Y115649D01*
X69549Y115560D01*
X69551Y115554D01*
X69547Y115551D01*
X69447Y114651D01*
X69449Y114648D01*
X69447Y114646D01*
X69447Y113646D01*
X69450Y113642D01*
X69447Y113640D01*
X69547Y112840D01*
X69551Y112836D01*
X69549Y112832D01*
X69749Y112132D01*
X69763Y112122D01*
X69761Y112111D01*
X70161Y111711D01*
X70181Y111708D01*
X70186Y111698D01*
X70686Y111598D01*
X70693Y111601D01*
X70696Y111597D01*
X70896Y111597D01*
X70902Y111601D01*
G37*
%LPC*%
G36*
X149216Y178149D02*
X149216Y178149D01*
X148836Y178435D01*
X148351Y179113D01*
X148448Y179983D01*
X148832Y180559D01*
X149609Y180851D01*
X151286Y180851D01*
X151751Y180572D01*
X151751Y178149D01*
X149216Y178149D01*
G37*
%LPD*%
%LPC*%
G36*
X82809Y193899D02*
X82809Y193899D01*
X82030Y194192D01*
X81547Y194770D01*
X81450Y195644D01*
X81741Y196419D01*
X82416Y196901D01*
X83191Y196901D01*
X83969Y196609D01*
X84451Y195934D01*
X84451Y195060D01*
X84160Y194382D01*
X83484Y193899D01*
X82809Y193899D01*
G37*
%LPD*%
%LPC*%
G36*
X169543Y193874D02*
X169543Y193874D01*
X169507Y193890D01*
X169500Y193899D01*
X168810Y193899D01*
X168128Y194192D01*
X167547Y194773D01*
X167450Y195644D01*
X167741Y196419D01*
X168416Y196901D01*
X169191Y196901D01*
X169969Y196609D01*
X170451Y195934D01*
X170451Y195060D01*
X170159Y194380D01*
X169568Y193888D01*
X169565Y193873D01*
X169559Y193869D01*
X169563Y193864D01*
X169559Y193846D01*
X169543Y193874D01*
G37*
%LPD*%
%LPC*%
G36*
X150509Y193899D02*
X150509Y193899D01*
X149730Y194192D01*
X149247Y194770D01*
X149150Y195644D01*
X149442Y196421D01*
X150018Y196901D01*
X150890Y196901D01*
X151568Y196610D01*
X152052Y195932D01*
X152149Y195061D01*
X151762Y194382D01*
X151182Y193899D01*
X150509Y193899D01*
G37*
%LPD*%
G36*
X107116Y91812D02*
X107116Y91812D01*
X107121Y91807D01*
X107821Y91907D01*
X107836Y91923D01*
X107849Y91921D01*
X108249Y92321D01*
X108250Y92333D01*
X108254Y92335D01*
X108251Y92339D01*
X108252Y92343D01*
X108263Y92349D01*
X108363Y93049D01*
X108358Y93057D01*
X108363Y93062D01*
X108263Y93862D01*
X108244Y93882D01*
X108244Y93895D01*
X107844Y94195D01*
X107826Y94195D01*
X107821Y94205D01*
X107121Y94305D01*
X107116Y94302D01*
X107114Y94305D01*
X106414Y94305D01*
X106393Y94289D01*
X106379Y94291D01*
X105979Y93891D01*
X105977Y93872D01*
X105966Y93868D01*
X105766Y93068D01*
X105772Y93055D01*
X105765Y93048D01*
X105865Y92448D01*
X105878Y92436D01*
X105876Y92425D01*
X106276Y91925D01*
X106301Y91919D01*
X106308Y91907D01*
X107108Y91807D01*
X107116Y91812D01*
G37*
G36*
X107116Y87712D02*
X107116Y87712D01*
X107121Y87707D01*
X107821Y87807D01*
X107833Y87820D01*
X107844Y87817D01*
X108244Y88117D01*
X108248Y88133D01*
X108253Y88137D01*
X108250Y88141D01*
X108251Y88143D01*
X108263Y88149D01*
X108363Y88849D01*
X108358Y88857D01*
X108363Y88862D01*
X108263Y89662D01*
X108247Y89678D01*
X108249Y89691D01*
X107849Y90091D01*
X107827Y90094D01*
X107821Y90105D01*
X107121Y90205D01*
X107116Y90202D01*
X107114Y90205D01*
X106414Y90205D01*
X106389Y90186D01*
X106376Y90187D01*
X105976Y89687D01*
X105975Y89673D01*
X105967Y89670D01*
X105930Y89542D01*
X105916Y89493D01*
X105874Y89345D01*
X105832Y89198D01*
X105818Y89148D01*
X105776Y89001D01*
X105767Y88970D01*
X105772Y88956D01*
X105765Y88949D01*
X105865Y88249D01*
X105881Y88234D01*
X105879Y88221D01*
X106279Y87821D01*
X106302Y87818D01*
X106308Y87807D01*
X107108Y87707D01*
X107116Y87712D01*
G37*
%LPC*%
G36*
X90609Y174749D02*
X90609Y174749D01*
X89834Y175040D01*
X89451Y175710D01*
X89546Y176475D01*
X90120Y176953D01*
X90994Y177050D01*
X91766Y176760D01*
X92149Y176090D01*
X92053Y175323D01*
X91480Y174749D01*
X90609Y174749D01*
G37*
%LPD*%
%LPC*%
G36*
X154118Y90105D02*
X154118Y90105D01*
X153522Y90205D01*
X153469Y90177D01*
X153473Y90171D01*
X153466Y90169D01*
X153461Y90148D01*
X153449Y90174D01*
X153452Y90187D01*
X153061Y90676D01*
X152965Y91348D01*
X153251Y91919D01*
X153822Y92205D01*
X154494Y92109D01*
X154972Y91727D01*
X155162Y91156D01*
X154971Y90583D01*
X154494Y90105D01*
X154118Y90105D01*
G37*
%LPD*%
%LPC*%
G36*
X145218Y90105D02*
X145218Y90105D01*
X144638Y90202D01*
X144163Y90676D01*
X144163Y91348D01*
X144354Y91921D01*
X144922Y92205D01*
X145594Y92109D01*
X146072Y91727D01*
X146262Y91156D01*
X146070Y90580D01*
X145690Y90105D01*
X145218Y90105D01*
G37*
%LPD*%
G36*
X44018Y133363D02*
X44018Y133363D01*
X44030Y133365D01*
X44330Y133865D01*
X44330Y133868D01*
X44331Y133869D01*
X44330Y133871D01*
X44328Y133883D01*
X44337Y133890D01*
X44337Y134490D01*
X44318Y134515D01*
X44319Y134528D01*
X43819Y134928D01*
X43796Y134929D01*
X43788Y134939D01*
X42988Y134939D01*
X42970Y134925D01*
X42957Y134928D01*
X42457Y134528D01*
X42451Y134504D01*
X42439Y134498D01*
X42339Y133898D01*
X42353Y133872D01*
X42350Y133859D01*
X42750Y133359D01*
X42780Y133352D01*
X42788Y133341D01*
X43988Y133341D01*
X44018Y133363D01*
G37*
%LPC*%
G36*
X89952Y180227D02*
X89952Y180227D01*
X90046Y181166D01*
X90705Y181448D01*
X91565Y181257D01*
X91845Y180603D01*
X91470Y179946D01*
X90611Y179851D01*
X89952Y180227D01*
G37*
%LPD*%
%LPC*%
G36*
X114112Y195999D02*
X114112Y195999D01*
X113562Y196274D01*
X113837Y197009D01*
X114600Y197199D01*
X115373Y197006D01*
X115941Y196343D01*
X115770Y195999D01*
X114112Y195999D01*
G37*
%LPD*%
G36*
X127416Y29833D02*
X127416Y29833D01*
X127427Y29829D01*
X127727Y30029D01*
X127733Y30046D01*
X127743Y30054D01*
X127738Y30060D01*
X127739Y30062D01*
X127749Y30070D01*
X127749Y31370D01*
X127748Y31372D01*
X127749Y31375D01*
X127743Y31378D01*
X127713Y31417D01*
X127698Y31406D01*
X127682Y31416D01*
X126382Y30916D01*
X126369Y30894D01*
X126356Y30892D01*
X126156Y30492D01*
X126167Y30434D01*
X126176Y30435D01*
X126178Y30426D01*
X127378Y29826D01*
X127416Y29833D01*
G37*
%LPC*%
G36*
X163694Y91805D02*
X163694Y91805D01*
X163958Y92334D01*
X163958Y92335D01*
X163959Y92335D01*
X164507Y93522D01*
X164567Y93340D01*
X164572Y93337D01*
X164570Y93334D01*
X165159Y92156D01*
X164984Y91805D01*
X163694Y91805D01*
G37*
%LPD*%
%LPC*%
G36*
X184730Y91805D02*
X184730Y91805D01*
X184372Y92074D01*
X184551Y92612D01*
X185209Y92706D01*
X185787Y92513D01*
X186251Y92050D01*
X186088Y91805D01*
X184730Y91805D01*
G37*
%LPD*%
%LPC*%
G36*
X128528Y91805D02*
X128528Y91805D01*
X128073Y92078D01*
X128251Y92612D01*
X128909Y92706D01*
X129487Y92513D01*
X129951Y92050D01*
X129788Y91805D01*
X128528Y91805D01*
G37*
%LPD*%
D10*
X152400Y104140D02*
X177800Y104140D01*
X152400Y124460D02*
X152267Y124458D01*
X152134Y124452D01*
X152002Y124443D01*
X151869Y124429D01*
X151737Y124412D01*
X151606Y124391D01*
X151475Y124366D01*
X151346Y124337D01*
X151217Y124304D01*
X151089Y124268D01*
X150962Y124228D01*
X150836Y124184D01*
X150712Y124137D01*
X150589Y124086D01*
X150468Y124032D01*
X150348Y123974D01*
X150230Y123912D01*
X150114Y123847D01*
X150000Y123779D01*
X149888Y123708D01*
X149778Y123633D01*
X149670Y123555D01*
X149564Y123474D01*
X149461Y123390D01*
X149361Y123303D01*
X149263Y123214D01*
X149167Y123121D01*
X149074Y123025D01*
X148985Y122927D01*
X148898Y122827D01*
X148814Y122724D01*
X148733Y122618D01*
X148655Y122510D01*
X148580Y122400D01*
X148509Y122288D01*
X148441Y122174D01*
X148376Y122058D01*
X148314Y121940D01*
X148256Y121820D01*
X148202Y121699D01*
X148151Y121576D01*
X148104Y121452D01*
X148060Y121326D01*
X148020Y121199D01*
X147984Y121071D01*
X147951Y120942D01*
X147922Y120813D01*
X147897Y120682D01*
X147876Y120551D01*
X147859Y120419D01*
X147845Y120286D01*
X147836Y120154D01*
X147830Y120021D01*
X147828Y119888D01*
X177800Y124460D02*
X177933Y124458D01*
X178066Y124452D01*
X178198Y124443D01*
X178331Y124429D01*
X178463Y124412D01*
X178594Y124391D01*
X178725Y124366D01*
X178854Y124337D01*
X178983Y124304D01*
X179111Y124268D01*
X179238Y124228D01*
X179364Y124184D01*
X179488Y124137D01*
X179611Y124086D01*
X179732Y124032D01*
X179852Y123974D01*
X179970Y123912D01*
X180086Y123847D01*
X180200Y123779D01*
X180312Y123708D01*
X180422Y123633D01*
X180530Y123555D01*
X180636Y123474D01*
X180739Y123390D01*
X180839Y123303D01*
X180937Y123214D01*
X181033Y123121D01*
X181126Y123025D01*
X181215Y122927D01*
X181302Y122827D01*
X181386Y122724D01*
X181467Y122618D01*
X181545Y122510D01*
X181620Y122400D01*
X181691Y122288D01*
X181759Y122174D01*
X181824Y122058D01*
X181886Y121940D01*
X181944Y121820D01*
X181998Y121699D01*
X182049Y121576D01*
X182096Y121452D01*
X182140Y121326D01*
X182180Y121199D01*
X182216Y121071D01*
X182249Y120942D01*
X182278Y120813D01*
X182303Y120682D01*
X182324Y120551D01*
X182341Y120419D01*
X182355Y120286D01*
X182364Y120154D01*
X182370Y120021D01*
X182372Y119888D01*
X182372Y108712D02*
X182370Y108579D01*
X182364Y108446D01*
X182355Y108314D01*
X182341Y108181D01*
X182324Y108049D01*
X182303Y107918D01*
X182278Y107787D01*
X182249Y107658D01*
X182216Y107529D01*
X182180Y107401D01*
X182140Y107274D01*
X182096Y107148D01*
X182049Y107024D01*
X181998Y106901D01*
X181944Y106780D01*
X181886Y106660D01*
X181824Y106542D01*
X181759Y106426D01*
X181691Y106312D01*
X181620Y106200D01*
X181545Y106090D01*
X181467Y105982D01*
X181386Y105876D01*
X181302Y105773D01*
X181215Y105673D01*
X181126Y105575D01*
X181033Y105479D01*
X180937Y105386D01*
X180839Y105297D01*
X180739Y105210D01*
X180636Y105126D01*
X180530Y105045D01*
X180422Y104967D01*
X180312Y104892D01*
X180200Y104821D01*
X180086Y104753D01*
X179970Y104688D01*
X179852Y104626D01*
X179732Y104568D01*
X179611Y104514D01*
X179488Y104463D01*
X179364Y104416D01*
X179238Y104372D01*
X179111Y104332D01*
X178983Y104296D01*
X178854Y104263D01*
X178725Y104234D01*
X178594Y104209D01*
X178463Y104188D01*
X178331Y104171D01*
X178198Y104157D01*
X178066Y104148D01*
X177933Y104142D01*
X177800Y104140D01*
X152400Y104140D02*
X152267Y104142D01*
X152134Y104148D01*
X152002Y104157D01*
X151869Y104171D01*
X151737Y104188D01*
X151606Y104209D01*
X151475Y104234D01*
X151346Y104263D01*
X151217Y104296D01*
X151089Y104332D01*
X150962Y104372D01*
X150836Y104416D01*
X150712Y104463D01*
X150589Y104514D01*
X150468Y104568D01*
X150348Y104626D01*
X150230Y104688D01*
X150114Y104753D01*
X150000Y104821D01*
X149888Y104892D01*
X149778Y104967D01*
X149670Y105045D01*
X149564Y105126D01*
X149461Y105210D01*
X149361Y105297D01*
X149263Y105386D01*
X149167Y105479D01*
X149074Y105575D01*
X148985Y105673D01*
X148898Y105773D01*
X148814Y105876D01*
X148733Y105982D01*
X148655Y106090D01*
X148580Y106200D01*
X148509Y106312D01*
X148441Y106426D01*
X148376Y106542D01*
X148314Y106660D01*
X148256Y106780D01*
X148202Y106901D01*
X148151Y107024D01*
X148104Y107148D01*
X148060Y107274D01*
X148020Y107401D01*
X147984Y107529D01*
X147951Y107658D01*
X147922Y107787D01*
X147897Y107918D01*
X147876Y108049D01*
X147859Y108181D01*
X147845Y108314D01*
X147836Y108446D01*
X147830Y108579D01*
X147828Y108712D01*
X147828Y119888D01*
X182372Y119888D02*
X182372Y108712D01*
X177800Y124460D02*
X152400Y124460D01*
X229362Y195580D02*
X244602Y195580D01*
X249174Y179832D02*
X249172Y179699D01*
X249166Y179566D01*
X249157Y179434D01*
X249143Y179301D01*
X249126Y179169D01*
X249105Y179038D01*
X249080Y178907D01*
X249051Y178778D01*
X249018Y178649D01*
X248982Y178521D01*
X248942Y178394D01*
X248898Y178268D01*
X248851Y178144D01*
X248800Y178021D01*
X248746Y177900D01*
X248688Y177780D01*
X248626Y177662D01*
X248561Y177546D01*
X248493Y177432D01*
X248422Y177320D01*
X248347Y177210D01*
X248269Y177102D01*
X248188Y176996D01*
X248104Y176893D01*
X248017Y176793D01*
X247928Y176695D01*
X247835Y176599D01*
X247739Y176506D01*
X247641Y176417D01*
X247541Y176330D01*
X247438Y176246D01*
X247332Y176165D01*
X247224Y176087D01*
X247114Y176012D01*
X247002Y175941D01*
X246888Y175873D01*
X246772Y175808D01*
X246654Y175746D01*
X246534Y175688D01*
X246413Y175634D01*
X246290Y175583D01*
X246166Y175536D01*
X246040Y175492D01*
X245913Y175452D01*
X245785Y175416D01*
X245656Y175383D01*
X245527Y175354D01*
X245396Y175329D01*
X245265Y175308D01*
X245133Y175291D01*
X245000Y175277D01*
X244868Y175268D01*
X244735Y175262D01*
X244602Y175260D01*
X229362Y175260D02*
X229229Y175262D01*
X229096Y175268D01*
X228964Y175277D01*
X228831Y175291D01*
X228699Y175308D01*
X228568Y175329D01*
X228437Y175354D01*
X228308Y175383D01*
X228179Y175416D01*
X228051Y175452D01*
X227924Y175492D01*
X227798Y175536D01*
X227674Y175583D01*
X227551Y175634D01*
X227430Y175688D01*
X227310Y175746D01*
X227192Y175808D01*
X227076Y175873D01*
X226962Y175941D01*
X226850Y176012D01*
X226740Y176087D01*
X226632Y176165D01*
X226526Y176246D01*
X226423Y176330D01*
X226323Y176417D01*
X226225Y176506D01*
X226129Y176599D01*
X226036Y176695D01*
X225947Y176793D01*
X225860Y176893D01*
X225776Y176996D01*
X225695Y177102D01*
X225617Y177210D01*
X225542Y177320D01*
X225471Y177432D01*
X225403Y177546D01*
X225338Y177662D01*
X225276Y177780D01*
X225218Y177900D01*
X225164Y178021D01*
X225113Y178144D01*
X225066Y178268D01*
X225022Y178394D01*
X224982Y178521D01*
X224946Y178649D01*
X224913Y178778D01*
X224884Y178907D01*
X224859Y179038D01*
X224838Y179169D01*
X224821Y179301D01*
X224807Y179434D01*
X224798Y179566D01*
X224792Y179699D01*
X224790Y179832D01*
X224790Y191008D02*
X224792Y191141D01*
X224798Y191274D01*
X224807Y191406D01*
X224821Y191539D01*
X224838Y191671D01*
X224859Y191802D01*
X224884Y191933D01*
X224913Y192062D01*
X224946Y192191D01*
X224982Y192319D01*
X225022Y192446D01*
X225066Y192572D01*
X225113Y192696D01*
X225164Y192819D01*
X225218Y192940D01*
X225276Y193060D01*
X225338Y193178D01*
X225403Y193294D01*
X225471Y193408D01*
X225542Y193520D01*
X225617Y193630D01*
X225695Y193738D01*
X225776Y193844D01*
X225860Y193947D01*
X225947Y194047D01*
X226036Y194145D01*
X226129Y194241D01*
X226225Y194334D01*
X226323Y194423D01*
X226423Y194510D01*
X226526Y194594D01*
X226632Y194675D01*
X226740Y194753D01*
X226850Y194828D01*
X226962Y194899D01*
X227076Y194967D01*
X227192Y195032D01*
X227310Y195094D01*
X227430Y195152D01*
X227551Y195206D01*
X227674Y195257D01*
X227798Y195304D01*
X227924Y195348D01*
X228051Y195388D01*
X228179Y195424D01*
X228308Y195457D01*
X228437Y195486D01*
X228568Y195511D01*
X228699Y195532D01*
X228831Y195549D01*
X228964Y195563D01*
X229096Y195572D01*
X229229Y195578D01*
X229362Y195580D01*
X244602Y195580D02*
X244735Y195578D01*
X244868Y195572D01*
X245000Y195563D01*
X245133Y195549D01*
X245265Y195532D01*
X245396Y195511D01*
X245527Y195486D01*
X245656Y195457D01*
X245785Y195424D01*
X245913Y195388D01*
X246040Y195348D01*
X246166Y195304D01*
X246290Y195257D01*
X246413Y195206D01*
X246534Y195152D01*
X246654Y195094D01*
X246772Y195032D01*
X246888Y194967D01*
X247002Y194899D01*
X247114Y194828D01*
X247224Y194753D01*
X247332Y194675D01*
X247438Y194594D01*
X247541Y194510D01*
X247641Y194423D01*
X247739Y194334D01*
X247835Y194241D01*
X247928Y194145D01*
X248017Y194047D01*
X248104Y193947D01*
X248188Y193844D01*
X248269Y193738D01*
X248347Y193630D01*
X248422Y193520D01*
X248493Y193408D01*
X248561Y193294D01*
X248626Y193178D01*
X248688Y193060D01*
X248746Y192940D01*
X248800Y192819D01*
X248851Y192696D01*
X248898Y192572D01*
X248942Y192446D01*
X248982Y192319D01*
X249018Y192191D01*
X249051Y192062D01*
X249080Y191933D01*
X249105Y191802D01*
X249126Y191671D01*
X249143Y191539D01*
X249157Y191406D01*
X249166Y191274D01*
X249172Y191141D01*
X249174Y191008D01*
X249174Y179832D01*
X224790Y179832D02*
X224790Y191008D01*
X229362Y175260D02*
X244602Y175260D01*
D11*
X97536Y126492D02*
X80264Y126492D01*
X77724Y144272D02*
X77726Y144372D01*
X77732Y144471D01*
X77742Y144571D01*
X77755Y144669D01*
X77773Y144768D01*
X77794Y144865D01*
X77819Y144961D01*
X77848Y145057D01*
X77881Y145151D01*
X77917Y145244D01*
X77957Y145335D01*
X78001Y145425D01*
X78048Y145513D01*
X78098Y145599D01*
X78152Y145683D01*
X78209Y145765D01*
X78269Y145844D01*
X78333Y145922D01*
X78399Y145996D01*
X78468Y146068D01*
X78540Y146137D01*
X78614Y146203D01*
X78692Y146267D01*
X78771Y146327D01*
X78853Y146384D01*
X78937Y146438D01*
X79023Y146488D01*
X79111Y146535D01*
X79201Y146579D01*
X79292Y146619D01*
X79385Y146655D01*
X79479Y146688D01*
X79575Y146717D01*
X79671Y146742D01*
X79768Y146763D01*
X79867Y146781D01*
X79965Y146794D01*
X80065Y146804D01*
X80164Y146810D01*
X80264Y146812D01*
X97536Y146812D02*
X97636Y146810D01*
X97735Y146804D01*
X97835Y146794D01*
X97933Y146781D01*
X98032Y146763D01*
X98129Y146742D01*
X98225Y146717D01*
X98321Y146688D01*
X98415Y146655D01*
X98508Y146619D01*
X98599Y146579D01*
X98689Y146535D01*
X98777Y146488D01*
X98863Y146438D01*
X98947Y146384D01*
X99029Y146327D01*
X99108Y146267D01*
X99186Y146203D01*
X99260Y146137D01*
X99332Y146068D01*
X99401Y145996D01*
X99467Y145922D01*
X99531Y145844D01*
X99591Y145765D01*
X99648Y145683D01*
X99702Y145599D01*
X99752Y145513D01*
X99799Y145425D01*
X99843Y145335D01*
X99883Y145244D01*
X99919Y145151D01*
X99952Y145057D01*
X99981Y144961D01*
X100006Y144865D01*
X100027Y144768D01*
X100045Y144669D01*
X100058Y144571D01*
X100068Y144471D01*
X100074Y144372D01*
X100076Y144272D01*
X100076Y129032D02*
X100074Y128932D01*
X100068Y128833D01*
X100058Y128733D01*
X100045Y128635D01*
X100027Y128536D01*
X100006Y128439D01*
X99981Y128343D01*
X99952Y128247D01*
X99919Y128153D01*
X99883Y128060D01*
X99843Y127969D01*
X99799Y127879D01*
X99752Y127791D01*
X99702Y127705D01*
X99648Y127621D01*
X99591Y127539D01*
X99531Y127460D01*
X99467Y127382D01*
X99401Y127308D01*
X99332Y127236D01*
X99260Y127167D01*
X99186Y127101D01*
X99108Y127037D01*
X99029Y126977D01*
X98947Y126920D01*
X98863Y126866D01*
X98777Y126816D01*
X98689Y126769D01*
X98599Y126725D01*
X98508Y126685D01*
X98415Y126649D01*
X98321Y126616D01*
X98225Y126587D01*
X98129Y126562D01*
X98032Y126541D01*
X97933Y126523D01*
X97835Y126510D01*
X97735Y126500D01*
X97636Y126494D01*
X97536Y126492D01*
X80264Y126492D02*
X80164Y126494D01*
X80065Y126500D01*
X79965Y126510D01*
X79867Y126523D01*
X79768Y126541D01*
X79671Y126562D01*
X79575Y126587D01*
X79479Y126616D01*
X79385Y126649D01*
X79292Y126685D01*
X79201Y126725D01*
X79111Y126769D01*
X79023Y126816D01*
X78937Y126866D01*
X78853Y126920D01*
X78771Y126977D01*
X78692Y127037D01*
X78614Y127101D01*
X78540Y127167D01*
X78468Y127236D01*
X78399Y127308D01*
X78333Y127382D01*
X78269Y127460D01*
X78209Y127539D01*
X78152Y127621D01*
X78098Y127705D01*
X78048Y127791D01*
X78001Y127879D01*
X77957Y127969D01*
X77917Y128060D01*
X77881Y128153D01*
X77848Y128247D01*
X77819Y128343D01*
X77794Y128439D01*
X77773Y128536D01*
X77755Y128635D01*
X77742Y128733D01*
X77732Y128833D01*
X77726Y128932D01*
X77724Y129032D01*
X77724Y144272D01*
X100076Y144272D02*
X100076Y129032D01*
X97536Y146812D02*
X80264Y146812D01*
X80264Y104140D02*
X97536Y104140D01*
X77724Y121920D02*
X77726Y122020D01*
X77732Y122119D01*
X77742Y122219D01*
X77755Y122317D01*
X77773Y122416D01*
X77794Y122513D01*
X77819Y122609D01*
X77848Y122705D01*
X77881Y122799D01*
X77917Y122892D01*
X77957Y122983D01*
X78001Y123073D01*
X78048Y123161D01*
X78098Y123247D01*
X78152Y123331D01*
X78209Y123413D01*
X78269Y123492D01*
X78333Y123570D01*
X78399Y123644D01*
X78468Y123716D01*
X78540Y123785D01*
X78614Y123851D01*
X78692Y123915D01*
X78771Y123975D01*
X78853Y124032D01*
X78937Y124086D01*
X79023Y124136D01*
X79111Y124183D01*
X79201Y124227D01*
X79292Y124267D01*
X79385Y124303D01*
X79479Y124336D01*
X79575Y124365D01*
X79671Y124390D01*
X79768Y124411D01*
X79867Y124429D01*
X79965Y124442D01*
X80065Y124452D01*
X80164Y124458D01*
X80264Y124460D01*
X97536Y124460D02*
X97636Y124458D01*
X97735Y124452D01*
X97835Y124442D01*
X97933Y124429D01*
X98032Y124411D01*
X98129Y124390D01*
X98225Y124365D01*
X98321Y124336D01*
X98415Y124303D01*
X98508Y124267D01*
X98599Y124227D01*
X98689Y124183D01*
X98777Y124136D01*
X98863Y124086D01*
X98947Y124032D01*
X99029Y123975D01*
X99108Y123915D01*
X99186Y123851D01*
X99260Y123785D01*
X99332Y123716D01*
X99401Y123644D01*
X99467Y123570D01*
X99531Y123492D01*
X99591Y123413D01*
X99648Y123331D01*
X99702Y123247D01*
X99752Y123161D01*
X99799Y123073D01*
X99843Y122983D01*
X99883Y122892D01*
X99919Y122799D01*
X99952Y122705D01*
X99981Y122609D01*
X100006Y122513D01*
X100027Y122416D01*
X100045Y122317D01*
X100058Y122219D01*
X100068Y122119D01*
X100074Y122020D01*
X100076Y121920D01*
X100076Y106680D02*
X100074Y106580D01*
X100068Y106481D01*
X100058Y106381D01*
X100045Y106283D01*
X100027Y106184D01*
X100006Y106087D01*
X99981Y105991D01*
X99952Y105895D01*
X99919Y105801D01*
X99883Y105708D01*
X99843Y105617D01*
X99799Y105527D01*
X99752Y105439D01*
X99702Y105353D01*
X99648Y105269D01*
X99591Y105187D01*
X99531Y105108D01*
X99467Y105030D01*
X99401Y104956D01*
X99332Y104884D01*
X99260Y104815D01*
X99186Y104749D01*
X99108Y104685D01*
X99029Y104625D01*
X98947Y104568D01*
X98863Y104514D01*
X98777Y104464D01*
X98689Y104417D01*
X98599Y104373D01*
X98508Y104333D01*
X98415Y104297D01*
X98321Y104264D01*
X98225Y104235D01*
X98129Y104210D01*
X98032Y104189D01*
X97933Y104171D01*
X97835Y104158D01*
X97735Y104148D01*
X97636Y104142D01*
X97536Y104140D01*
X80264Y104140D02*
X80164Y104142D01*
X80065Y104148D01*
X79965Y104158D01*
X79867Y104171D01*
X79768Y104189D01*
X79671Y104210D01*
X79575Y104235D01*
X79479Y104264D01*
X79385Y104297D01*
X79292Y104333D01*
X79201Y104373D01*
X79111Y104417D01*
X79023Y104464D01*
X78937Y104514D01*
X78853Y104568D01*
X78771Y104625D01*
X78692Y104685D01*
X78614Y104749D01*
X78540Y104815D01*
X78468Y104884D01*
X78399Y104956D01*
X78333Y105030D01*
X78269Y105108D01*
X78209Y105187D01*
X78152Y105269D01*
X78098Y105353D01*
X78048Y105439D01*
X78001Y105527D01*
X77957Y105617D01*
X77917Y105708D01*
X77881Y105801D01*
X77848Y105895D01*
X77819Y105991D01*
X77794Y106087D01*
X77773Y106184D01*
X77755Y106283D01*
X77742Y106381D01*
X77732Y106481D01*
X77726Y106580D01*
X77724Y106680D01*
X77724Y121920D01*
X100076Y121920D02*
X100076Y106680D01*
X97536Y124460D02*
X80264Y124460D01*
D10*
X81280Y81280D02*
X96520Y81280D01*
X76708Y97028D02*
X76710Y97161D01*
X76716Y97294D01*
X76725Y97426D01*
X76739Y97559D01*
X76756Y97691D01*
X76777Y97822D01*
X76802Y97953D01*
X76831Y98082D01*
X76864Y98211D01*
X76900Y98339D01*
X76940Y98466D01*
X76984Y98592D01*
X77031Y98716D01*
X77082Y98839D01*
X77136Y98960D01*
X77194Y99080D01*
X77256Y99198D01*
X77321Y99314D01*
X77389Y99428D01*
X77460Y99540D01*
X77535Y99650D01*
X77613Y99758D01*
X77694Y99864D01*
X77778Y99967D01*
X77865Y100067D01*
X77954Y100165D01*
X78047Y100261D01*
X78143Y100354D01*
X78241Y100443D01*
X78341Y100530D01*
X78444Y100614D01*
X78550Y100695D01*
X78658Y100773D01*
X78768Y100848D01*
X78880Y100919D01*
X78994Y100987D01*
X79110Y101052D01*
X79228Y101114D01*
X79348Y101172D01*
X79469Y101226D01*
X79592Y101277D01*
X79716Y101324D01*
X79842Y101368D01*
X79969Y101408D01*
X80097Y101444D01*
X80226Y101477D01*
X80355Y101506D01*
X80486Y101531D01*
X80617Y101552D01*
X80749Y101569D01*
X80882Y101583D01*
X81014Y101592D01*
X81147Y101598D01*
X81280Y101600D01*
X96520Y101600D02*
X96653Y101598D01*
X96786Y101592D01*
X96918Y101583D01*
X97051Y101569D01*
X97183Y101552D01*
X97314Y101531D01*
X97445Y101506D01*
X97574Y101477D01*
X97703Y101444D01*
X97831Y101408D01*
X97958Y101368D01*
X98084Y101324D01*
X98208Y101277D01*
X98331Y101226D01*
X98452Y101172D01*
X98572Y101114D01*
X98690Y101052D01*
X98806Y100987D01*
X98920Y100919D01*
X99032Y100848D01*
X99142Y100773D01*
X99250Y100695D01*
X99356Y100614D01*
X99459Y100530D01*
X99559Y100443D01*
X99657Y100354D01*
X99753Y100261D01*
X99846Y100165D01*
X99935Y100067D01*
X100022Y99967D01*
X100106Y99864D01*
X100187Y99758D01*
X100265Y99650D01*
X100340Y99540D01*
X100411Y99428D01*
X100479Y99314D01*
X100544Y99198D01*
X100606Y99080D01*
X100664Y98960D01*
X100718Y98839D01*
X100769Y98716D01*
X100816Y98592D01*
X100860Y98466D01*
X100900Y98339D01*
X100936Y98211D01*
X100969Y98082D01*
X100998Y97953D01*
X101023Y97822D01*
X101044Y97691D01*
X101061Y97559D01*
X101075Y97426D01*
X101084Y97294D01*
X101090Y97161D01*
X101092Y97028D01*
X101092Y85852D02*
X101090Y85719D01*
X101084Y85586D01*
X101075Y85454D01*
X101061Y85321D01*
X101044Y85189D01*
X101023Y85058D01*
X100998Y84927D01*
X100969Y84798D01*
X100936Y84669D01*
X100900Y84541D01*
X100860Y84414D01*
X100816Y84288D01*
X100769Y84164D01*
X100718Y84041D01*
X100664Y83920D01*
X100606Y83800D01*
X100544Y83682D01*
X100479Y83566D01*
X100411Y83452D01*
X100340Y83340D01*
X100265Y83230D01*
X100187Y83122D01*
X100106Y83016D01*
X100022Y82913D01*
X99935Y82813D01*
X99846Y82715D01*
X99753Y82619D01*
X99657Y82526D01*
X99559Y82437D01*
X99459Y82350D01*
X99356Y82266D01*
X99250Y82185D01*
X99142Y82107D01*
X99032Y82032D01*
X98920Y81961D01*
X98806Y81893D01*
X98690Y81828D01*
X98572Y81766D01*
X98452Y81708D01*
X98331Y81654D01*
X98208Y81603D01*
X98084Y81556D01*
X97958Y81512D01*
X97831Y81472D01*
X97703Y81436D01*
X97574Y81403D01*
X97445Y81374D01*
X97314Y81349D01*
X97183Y81328D01*
X97051Y81311D01*
X96918Y81297D01*
X96786Y81288D01*
X96653Y81282D01*
X96520Y81280D01*
X81280Y81280D02*
X81147Y81282D01*
X81014Y81288D01*
X80882Y81297D01*
X80749Y81311D01*
X80617Y81328D01*
X80486Y81349D01*
X80355Y81374D01*
X80226Y81403D01*
X80097Y81436D01*
X79969Y81472D01*
X79842Y81512D01*
X79716Y81556D01*
X79592Y81603D01*
X79469Y81654D01*
X79348Y81708D01*
X79228Y81766D01*
X79110Y81828D01*
X78994Y81893D01*
X78880Y81961D01*
X78768Y82032D01*
X78658Y82107D01*
X78550Y82185D01*
X78444Y82266D01*
X78341Y82350D01*
X78241Y82437D01*
X78143Y82526D01*
X78047Y82619D01*
X77954Y82715D01*
X77865Y82813D01*
X77778Y82913D01*
X77694Y83016D01*
X77613Y83122D01*
X77535Y83230D01*
X77460Y83340D01*
X77389Y83452D01*
X77321Y83566D01*
X77256Y83682D01*
X77194Y83800D01*
X77136Y83920D01*
X77082Y84041D01*
X77031Y84164D01*
X76984Y84288D01*
X76940Y84414D01*
X76900Y84541D01*
X76864Y84669D01*
X76831Y84798D01*
X76802Y84927D01*
X76777Y85058D01*
X76756Y85189D01*
X76739Y85321D01*
X76725Y85454D01*
X76716Y85586D01*
X76710Y85719D01*
X76708Y85852D01*
X76708Y97028D01*
X101092Y97028D02*
X101092Y85852D01*
X96520Y101600D02*
X81280Y101600D01*
M02*
