M48
;GenerationSoftware,Autodesk,EAGLE,9.6.2*%
;CreationDate,2023-06-16T17:29:59Z*%
FMAT,2
ICI,OFF
METRIC,TZ,000.000
T3C0.305
T2C1.016
T1C3.048
%
G90
M71
T1
X22860Y2540
X2540Y22860
X2540Y2540
X22860Y22860
T2
X17780Y1270
X7620Y1270
X10160Y1270
X12700Y1270
X15240Y1270
T3
X6350Y24130
X12700Y24130
X19050Y24130
X23470Y12725
X24130Y7620
X24130Y5080
X24130Y20320
X6299Y10516
X21488Y11176
X4572Y10236
X20422Y16027
X3810Y13970
X6985Y14478
X11227Y10084
X11201Y7417
X11557Y3378
X9271Y6426
X13970Y3378
X1702Y12649
X18821Y10058
X9119Y14986
X8611Y12548
X8103Y14783
X12751Y12954
X12751Y10287
X6375Y13208
X19050Y12192
X11430Y9195
X10120Y14692
X21920Y12370
X21830Y18833
X18186Y10490
X10135Y11379
X24742Y19962
X10964Y12708
X7442Y10160
X18948Y13360
X11862Y14427
X20320Y1270
X13970Y10160
X1270Y20320
X1270Y17780
X1270Y7620
X1270Y5080
X14249Y11074
M30