G04 EAGLE Gerber RS-274X export*
G75*
%MOMM*%
%FSLAX34Y34*%
%LPD*%
%INSilkscreen Bottom*%
%IPPOS*%
%AMOC8*
5,1,8,0,0,1.08239X$1,22.5*%
G01*
%ADD10C,0.203200*%
%ADD11C,0.366319*%
%ADD12C,0.152400*%

G36*
X46650Y42361D02*
X46650Y42361D01*
X46661Y42357D01*
X46961Y42557D01*
X46967Y42574D01*
X46977Y42582D01*
X46972Y42588D01*
X46973Y42590D01*
X46983Y42598D01*
X46983Y52298D01*
X46967Y52319D01*
X46969Y52333D01*
X46669Y52633D01*
X46644Y52636D01*
X46639Y52642D01*
X46638Y52642D01*
X46634Y52647D01*
X16934Y52647D01*
X16928Y52643D01*
X16924Y52646D01*
X15424Y52346D01*
X15420Y52341D01*
X15416Y52344D01*
X14916Y52144D01*
X14914Y52141D01*
X14912Y52142D01*
X14512Y51942D01*
X14511Y51939D01*
X14509Y51940D01*
X14009Y51640D01*
X14004Y51628D01*
X13995Y51628D01*
X13699Y51233D01*
X13304Y50937D01*
X13302Y50928D01*
X13295Y50928D01*
X12695Y50128D01*
X12695Y50118D01*
X12688Y50116D01*
X12289Y49118D01*
X12090Y48720D01*
X12091Y48717D01*
X12089Y48715D01*
X12092Y48711D01*
X12086Y48708D01*
X11986Y48208D01*
X11989Y48201D01*
X11985Y48198D01*
X11985Y47098D01*
X11989Y47092D01*
X11986Y47088D01*
X12186Y46088D01*
X12193Y46082D01*
X12190Y46076D01*
X12389Y45678D01*
X12588Y45180D01*
X12591Y45178D01*
X12590Y45176D01*
X12790Y44776D01*
X12793Y44775D01*
X12792Y44773D01*
X13092Y44273D01*
X13100Y44269D01*
X13099Y44263D01*
X13799Y43563D01*
X13804Y43562D01*
X13804Y43559D01*
X14204Y43259D01*
X14208Y43259D01*
X14209Y43256D01*
X14709Y42956D01*
X14712Y42956D01*
X14712Y42954D01*
X15112Y42754D01*
X15115Y42755D01*
X15116Y42752D01*
X15616Y42552D01*
X15622Y42554D01*
X15624Y42550D01*
X16624Y42350D01*
X16631Y42353D01*
X16634Y42349D01*
X46634Y42349D01*
X46650Y42361D01*
G37*
G36*
X47974Y64459D02*
X47974Y64459D01*
X47985Y64455D01*
X48285Y64655D01*
X48291Y64672D01*
X48301Y64680D01*
X48296Y64686D01*
X48297Y64688D01*
X48307Y64696D01*
X48307Y74396D01*
X48295Y74412D01*
X48299Y74423D01*
X48099Y74723D01*
X48066Y74735D01*
X48058Y74745D01*
X18358Y74745D01*
X18353Y74742D01*
X18350Y74745D01*
X17750Y74645D01*
X17748Y74642D01*
X17746Y74644D01*
X17346Y74544D01*
X17343Y74540D01*
X17340Y74542D01*
X16340Y74142D01*
X16335Y74134D01*
X16328Y74135D01*
X15128Y73235D01*
X15126Y73226D01*
X15119Y73226D01*
X14519Y72426D01*
X14519Y72422D01*
X14516Y72421D01*
X14216Y71921D01*
X14216Y71918D01*
X14214Y71918D01*
X14014Y71518D01*
X14015Y71515D01*
X14012Y71514D01*
X13812Y71014D01*
X13813Y71012D01*
X13811Y71010D01*
X13813Y71007D01*
X13810Y71006D01*
X13610Y70006D01*
X13613Y69999D01*
X13609Y69996D01*
X13609Y69496D01*
X13613Y69490D01*
X13610Y69486D01*
X13910Y67986D01*
X13915Y67982D01*
X13912Y67978D01*
X14112Y67478D01*
X14115Y67476D01*
X14114Y67474D01*
X14314Y67074D01*
X14317Y67073D01*
X14316Y67071D01*
X14616Y66571D01*
X14619Y66569D01*
X14619Y66566D01*
X14919Y66166D01*
X14924Y66165D01*
X14923Y66161D01*
X15223Y65861D01*
X15228Y65860D01*
X15228Y65857D01*
X15628Y65557D01*
X15632Y65557D01*
X15633Y65554D01*
X16130Y65255D01*
X16528Y64957D01*
X16538Y64957D01*
X16540Y64950D01*
X17040Y64750D01*
X17046Y64752D01*
X17048Y64748D01*
X18548Y64448D01*
X18555Y64451D01*
X18558Y64447D01*
X47958Y64447D01*
X47974Y64459D01*
G37*
G36*
X48019Y85788D02*
X48019Y85788D01*
X48024Y85784D01*
X48424Y85884D01*
X48446Y85911D01*
X48453Y85917D01*
X48452Y85919D01*
X48461Y85931D01*
X48460Y85931D01*
X48461Y85932D01*
X48461Y96032D01*
X48425Y96079D01*
X48418Y96074D01*
X48412Y96081D01*
X19012Y96081D01*
X19006Y96077D01*
X19002Y96080D01*
X17502Y95780D01*
X17498Y95775D01*
X17494Y95778D01*
X16994Y95578D01*
X16992Y95575D01*
X16990Y95576D01*
X16590Y95376D01*
X16589Y95373D01*
X16587Y95374D01*
X16087Y95074D01*
X16085Y95071D01*
X16082Y95071D01*
X15682Y94771D01*
X15680Y94762D01*
X15673Y94762D01*
X15375Y94364D01*
X14977Y93967D01*
X14976Y93955D01*
X14968Y93954D01*
X14770Y93558D01*
X14473Y93162D01*
X14473Y93152D01*
X14466Y93150D01*
X14266Y92650D01*
X14268Y92645D01*
X14264Y92642D01*
X13964Y91142D01*
X13967Y91135D01*
X13963Y91132D01*
X13963Y90632D01*
X13967Y90626D01*
X13964Y90622D01*
X14164Y89622D01*
X14169Y89618D01*
X14166Y89614D01*
X14366Y89114D01*
X14369Y89112D01*
X14368Y89110D01*
X14567Y88712D01*
X14766Y88214D01*
X14774Y88209D01*
X14773Y88202D01*
X15373Y87402D01*
X15382Y87400D01*
X15382Y87393D01*
X15780Y87095D01*
X16177Y86697D01*
X16189Y86696D01*
X16190Y86688D01*
X16589Y86489D01*
X17087Y86190D01*
X17097Y86191D01*
X17100Y86184D01*
X17497Y86085D01*
X17994Y85886D01*
X18007Y85890D01*
X18012Y85883D01*
X18507Y85883D01*
X19002Y85784D01*
X19009Y85787D01*
X19012Y85783D01*
X48012Y85783D01*
X48019Y85788D01*
G37*
G36*
X210886Y29078D02*
X210886Y29078D01*
X210952Y29083D01*
X210970Y29094D01*
X210991Y29099D01*
X211076Y29159D01*
X211100Y29173D01*
X211103Y29178D01*
X211108Y29182D01*
X213308Y31482D01*
X213316Y31495D01*
X213329Y31505D01*
X213360Y31569D01*
X213396Y31631D01*
X213397Y31647D01*
X213404Y31661D01*
X213403Y31732D01*
X213409Y31803D01*
X213403Y31818D01*
X213402Y31834D01*
X213345Y31959D01*
X213343Y31963D01*
X213343Y31964D01*
X211475Y34579D01*
X211477Y34590D01*
X211486Y34603D01*
X211497Y34661D01*
X211506Y34682D01*
X211506Y34704D01*
X211512Y34737D01*
X211513Y34742D01*
X211513Y34743D01*
X211513Y34744D01*
X211513Y34754D01*
X211546Y34819D01*
X211602Y34876D01*
X211613Y34894D01*
X211625Y34903D01*
X211633Y34922D01*
X211673Y34974D01*
X211746Y35119D01*
X211802Y35176D01*
X211842Y35240D01*
X211886Y35303D01*
X211888Y35315D01*
X211893Y35323D01*
X211897Y35358D01*
X211913Y35444D01*
X211913Y35493D01*
X211942Y35540D01*
X211986Y35603D01*
X211988Y35615D01*
X211993Y35623D01*
X211997Y35658D01*
X212013Y35744D01*
X212013Y35854D01*
X212046Y35919D01*
X212102Y35976D01*
X212142Y36040D01*
X212186Y36103D01*
X212188Y36115D01*
X212193Y36123D01*
X212197Y36158D01*
X212203Y36191D01*
X212206Y36199D01*
X212206Y36207D01*
X212213Y36244D01*
X212213Y36293D01*
X212242Y36340D01*
X212286Y36403D01*
X212288Y36415D01*
X212293Y36423D01*
X212297Y36458D01*
X212313Y36544D01*
X212313Y36654D01*
X212342Y36712D01*
X215598Y37270D01*
X215616Y37277D01*
X215635Y37278D01*
X215695Y37311D01*
X215757Y37337D01*
X215770Y37352D01*
X215787Y37361D01*
X215826Y37417D01*
X215870Y37468D01*
X215875Y37487D01*
X215886Y37503D01*
X215908Y37614D01*
X215913Y37636D01*
X215912Y37640D01*
X215913Y37644D01*
X215913Y40844D01*
X215909Y40863D01*
X215911Y40882D01*
X215900Y40916D01*
X215899Y40923D01*
X215894Y40933D01*
X215889Y40946D01*
X215874Y41012D01*
X215861Y41027D01*
X215855Y41045D01*
X215807Y41093D01*
X215764Y41146D01*
X215746Y41153D01*
X215732Y41167D01*
X215626Y41207D01*
X215606Y41216D01*
X215602Y41216D01*
X215598Y41218D01*
X212386Y41768D01*
X212375Y41807D01*
X212374Y41812D01*
X212373Y41813D01*
X212313Y41933D01*
X212313Y41944D01*
X212310Y41959D01*
X212312Y41975D01*
X212292Y42045D01*
X212292Y42060D01*
X212284Y42074D01*
X212275Y42107D01*
X212274Y42112D01*
X212273Y42113D01*
X212213Y42233D01*
X212213Y42244D01*
X212210Y42259D01*
X212212Y42275D01*
X212175Y42407D01*
X212174Y42412D01*
X212173Y42413D01*
X212013Y42733D01*
X212013Y42744D01*
X212010Y42759D01*
X212012Y42775D01*
X211975Y42907D01*
X211974Y42912D01*
X211973Y42913D01*
X211873Y43113D01*
X211850Y43141D01*
X211813Y43195D01*
X211813Y43244D01*
X211796Y43318D01*
X211782Y43393D01*
X211776Y43403D01*
X211774Y43412D01*
X211751Y43440D01*
X211702Y43512D01*
X211646Y43568D01*
X211573Y43713D01*
X211550Y43741D01*
X211513Y43795D01*
X211513Y43844D01*
X211496Y43918D01*
X211492Y43940D01*
X213346Y46628D01*
X213352Y46644D01*
X213364Y46657D01*
X213384Y46724D01*
X213409Y46789D01*
X213408Y46807D01*
X213413Y46823D01*
X213400Y46892D01*
X213394Y46962D01*
X213385Y46976D01*
X213382Y46993D01*
X213311Y47099D01*
X213304Y47110D01*
X213303Y47110D01*
X213302Y47112D01*
X211102Y49312D01*
X211088Y49321D01*
X211077Y49335D01*
X211015Y49366D01*
X210955Y49403D01*
X210938Y49405D01*
X210923Y49412D01*
X210853Y49413D01*
X210783Y49419D01*
X210767Y49413D01*
X210750Y49413D01*
X210632Y49362D01*
X210621Y49358D01*
X210620Y49357D01*
X210619Y49356D01*
X207920Y47494D01*
X207902Y47512D01*
X207837Y47552D01*
X207775Y47596D01*
X207763Y47598D01*
X207755Y47603D01*
X207720Y47606D01*
X207634Y47623D01*
X207584Y47623D01*
X207572Y47631D01*
X207504Y47683D01*
X207359Y47755D01*
X207302Y47812D01*
X207237Y47852D01*
X207175Y47896D01*
X207163Y47898D01*
X207155Y47903D01*
X207120Y47906D01*
X207034Y47923D01*
X206984Y47923D01*
X206972Y47931D01*
X206904Y47983D01*
X206704Y48083D01*
X206688Y48087D01*
X206675Y48096D01*
X206541Y48122D01*
X206535Y48123D01*
X206534Y48123D01*
X206524Y48123D01*
X206404Y48183D01*
X206388Y48187D01*
X206375Y48196D01*
X206241Y48222D01*
X206235Y48223D01*
X206234Y48223D01*
X206184Y48223D01*
X206137Y48252D01*
X206075Y48296D01*
X206063Y48298D01*
X206055Y48303D01*
X206020Y48306D01*
X205934Y48323D01*
X205824Y48323D01*
X205766Y48352D01*
X205208Y51608D01*
X205200Y51626D01*
X205199Y51645D01*
X205167Y51704D01*
X205140Y51767D01*
X205126Y51780D01*
X205116Y51797D01*
X205061Y51836D01*
X205009Y51880D01*
X204990Y51885D01*
X204975Y51896D01*
X204864Y51917D01*
X204842Y51923D01*
X204838Y51922D01*
X204834Y51923D01*
X201634Y51923D01*
X201615Y51919D01*
X201596Y51921D01*
X201532Y51899D01*
X201466Y51883D01*
X201451Y51871D01*
X201432Y51865D01*
X201385Y51817D01*
X201332Y51773D01*
X201324Y51756D01*
X201311Y51742D01*
X201271Y51636D01*
X201262Y51615D01*
X201262Y51612D01*
X201260Y51608D01*
X200710Y48396D01*
X200671Y48385D01*
X200666Y48383D01*
X200665Y48383D01*
X200664Y48383D01*
X200544Y48323D01*
X200534Y48323D01*
X200518Y48319D01*
X200502Y48322D01*
X200371Y48285D01*
X200366Y48283D01*
X200365Y48283D01*
X200364Y48283D01*
X200244Y48223D01*
X200234Y48223D01*
X200218Y48219D01*
X200202Y48222D01*
X200071Y48185D01*
X200066Y48183D01*
X200065Y48183D01*
X200064Y48183D01*
X199944Y48123D01*
X199834Y48123D01*
X199760Y48106D01*
X199684Y48092D01*
X199675Y48086D01*
X199666Y48083D01*
X199638Y48061D01*
X199566Y48012D01*
X199509Y47955D01*
X199444Y47923D01*
X199434Y47923D01*
X199418Y47919D01*
X199402Y47922D01*
X199271Y47885D01*
X199266Y47883D01*
X199265Y47883D01*
X199264Y47883D01*
X199064Y47783D01*
X199037Y47760D01*
X198966Y47712D01*
X198909Y47655D01*
X198844Y47623D01*
X198834Y47623D01*
X198818Y47619D01*
X198802Y47622D01*
X198671Y47585D01*
X198666Y47583D01*
X198665Y47583D01*
X198664Y47583D01*
X198523Y47512D01*
X195849Y49356D01*
X195837Y49361D01*
X195828Y49370D01*
X195757Y49392D01*
X195688Y49419D01*
X195675Y49418D01*
X195663Y49422D01*
X195590Y49410D01*
X195516Y49404D01*
X195505Y49397D01*
X195492Y49395D01*
X195372Y49318D01*
X193072Y47118D01*
X193058Y47096D01*
X193038Y47080D01*
X193011Y47024D01*
X192977Y46973D01*
X192974Y46947D01*
X192963Y46924D01*
X192964Y46862D01*
X192957Y46801D01*
X192966Y46777D01*
X192966Y46751D01*
X193004Y46671D01*
X193015Y46638D01*
X193022Y46632D01*
X193027Y46621D01*
X194962Y43948D01*
X194922Y43868D01*
X194866Y43812D01*
X194826Y43747D01*
X194782Y43684D01*
X194780Y43673D01*
X194775Y43665D01*
X194771Y43630D01*
X194755Y43544D01*
X194755Y43494D01*
X194747Y43481D01*
X194695Y43413D01*
X194622Y43268D01*
X194566Y43212D01*
X194526Y43147D01*
X194482Y43084D01*
X194480Y43073D01*
X194475Y43065D01*
X194471Y43030D01*
X194455Y42944D01*
X194455Y42894D01*
X194426Y42847D01*
X194382Y42784D01*
X194380Y42773D01*
X194375Y42765D01*
X194371Y42730D01*
X194355Y42644D01*
X194355Y42533D01*
X194322Y42468D01*
X194266Y42412D01*
X194226Y42347D01*
X194182Y42284D01*
X194180Y42273D01*
X194175Y42265D01*
X194171Y42230D01*
X194155Y42144D01*
X194155Y42094D01*
X194126Y42047D01*
X194082Y41984D01*
X194080Y41973D01*
X194075Y41965D01*
X194071Y41930D01*
X194055Y41844D01*
X194055Y41765D01*
X190772Y41218D01*
X190753Y41210D01*
X190733Y41209D01*
X190674Y41177D01*
X190612Y41151D01*
X190599Y41136D01*
X190581Y41126D01*
X190543Y41071D01*
X190499Y41021D01*
X190493Y41001D01*
X190482Y40984D01*
X190466Y40903D01*
X190462Y40893D01*
X190462Y40882D01*
X190461Y40878D01*
X190455Y40853D01*
X190456Y40849D01*
X190455Y40844D01*
X190455Y37644D01*
X190459Y37625D01*
X190457Y37606D01*
X190479Y37541D01*
X190494Y37475D01*
X190507Y37460D01*
X190513Y37442D01*
X190561Y37394D01*
X190604Y37342D01*
X190622Y37334D01*
X190636Y37320D01*
X190742Y37280D01*
X190762Y37271D01*
X190766Y37271D01*
X190770Y37270D01*
X194058Y36706D01*
X194093Y36581D01*
X194094Y36575D01*
X194095Y36575D01*
X194095Y36574D01*
X194155Y36454D01*
X194155Y36444D01*
X194158Y36428D01*
X194156Y36412D01*
X194193Y36281D01*
X194194Y36275D01*
X194195Y36275D01*
X194195Y36274D01*
X194255Y36154D01*
X194255Y36144D01*
X194258Y36128D01*
X194256Y36112D01*
X194293Y35981D01*
X194294Y35975D01*
X194295Y35975D01*
X194295Y35974D01*
X194455Y35654D01*
X194455Y35644D01*
X194458Y35628D01*
X194456Y35612D01*
X194493Y35481D01*
X194494Y35475D01*
X194495Y35475D01*
X194495Y35474D01*
X194595Y35274D01*
X194618Y35246D01*
X194666Y35176D01*
X194722Y35119D01*
X194755Y35054D01*
X194755Y35044D01*
X194758Y35028D01*
X194756Y35012D01*
X194793Y34881D01*
X194794Y34875D01*
X194795Y34875D01*
X194795Y34874D01*
X194895Y34674D01*
X194918Y34646D01*
X194966Y34576D01*
X194976Y34565D01*
X193031Y31971D01*
X193021Y31949D01*
X193004Y31930D01*
X192986Y31870D01*
X192961Y31813D01*
X192962Y31788D01*
X192955Y31764D01*
X192966Y31703D01*
X192969Y31640D01*
X192981Y31618D01*
X192986Y31594D01*
X193037Y31519D01*
X193053Y31489D01*
X193060Y31484D01*
X193066Y31476D01*
X195366Y29176D01*
X195380Y29167D01*
X195391Y29153D01*
X195453Y29121D01*
X195513Y29084D01*
X195530Y29083D01*
X195545Y29075D01*
X195616Y29075D01*
X195685Y29068D01*
X195701Y29074D01*
X195718Y29074D01*
X195836Y29126D01*
X195847Y29130D01*
X195848Y29131D01*
X195849Y29131D01*
X198548Y30993D01*
X198566Y30976D01*
X198631Y30935D01*
X198693Y30891D01*
X198705Y30889D01*
X198713Y30884D01*
X198748Y30881D01*
X198763Y30878D01*
X198766Y30876D01*
X198831Y30835D01*
X198893Y30791D01*
X198905Y30789D01*
X198913Y30784D01*
X198948Y30781D01*
X199034Y30764D01*
X199084Y30764D01*
X199131Y30735D01*
X199193Y30691D01*
X199205Y30689D01*
X199213Y30684D01*
X199248Y30681D01*
X199263Y30678D01*
X199266Y30676D01*
X199331Y30635D01*
X199393Y30591D01*
X199405Y30589D01*
X199413Y30584D01*
X199448Y30581D01*
X199463Y30578D01*
X199466Y30576D01*
X199531Y30535D01*
X199593Y30491D01*
X199605Y30489D01*
X199613Y30484D01*
X199648Y30481D01*
X199677Y30475D01*
X199704Y30442D01*
X199723Y30434D01*
X199738Y30419D01*
X199801Y30399D01*
X199862Y30371D01*
X199883Y30372D01*
X199902Y30366D01*
X199968Y30376D01*
X200035Y30378D01*
X200053Y30388D01*
X200073Y30391D01*
X200128Y30429D01*
X200187Y30461D01*
X200199Y30478D01*
X200215Y30490D01*
X200272Y30582D01*
X200286Y30603D01*
X200287Y30608D01*
X200290Y30612D01*
X202290Y36012D01*
X202294Y36043D01*
X202306Y36071D01*
X202304Y36127D01*
X202311Y36184D01*
X202301Y36213D01*
X202300Y36244D01*
X202273Y36294D01*
X202254Y36347D01*
X202232Y36369D01*
X202217Y36396D01*
X202157Y36442D01*
X202130Y36468D01*
X202117Y36472D01*
X202104Y36483D01*
X201559Y36755D01*
X201402Y36912D01*
X201372Y36931D01*
X201304Y36983D01*
X201159Y37055D01*
X200846Y37368D01*
X200773Y37513D01*
X200750Y37541D01*
X200702Y37612D01*
X200546Y37768D01*
X200485Y37889D01*
X200394Y38164D01*
X200382Y38183D01*
X200373Y38213D01*
X200313Y38333D01*
X200313Y38444D01*
X200305Y38479D01*
X200294Y38564D01*
X200213Y38805D01*
X200213Y39582D01*
X200294Y39824D01*
X200297Y39860D01*
X200313Y39944D01*
X200313Y40129D01*
X200450Y40333D01*
X200463Y40368D01*
X200494Y40424D01*
X200578Y40676D01*
X200929Y41202D01*
X201276Y41549D01*
X201802Y41900D01*
X202054Y41984D01*
X202072Y41995D01*
X202086Y41998D01*
X202099Y42009D01*
X202144Y42028D01*
X202349Y42164D01*
X202534Y42164D01*
X202569Y42173D01*
X202654Y42184D01*
X202896Y42264D01*
X203487Y42264D01*
X203842Y42176D01*
X203878Y42175D01*
X203934Y42164D01*
X204119Y42164D01*
X204324Y42028D01*
X204359Y42015D01*
X204408Y41987D01*
X204410Y41986D01*
X204411Y41986D01*
X204414Y41984D01*
X204666Y41900D01*
X204893Y41749D01*
X205066Y41576D01*
X205092Y41559D01*
X205124Y41528D01*
X205393Y41349D01*
X205539Y41202D01*
X205890Y40676D01*
X206255Y39582D01*
X206255Y39105D01*
X206174Y38864D01*
X206171Y38828D01*
X206155Y38744D01*
X206155Y38533D01*
X205995Y38213D01*
X205989Y38191D01*
X205974Y38164D01*
X205883Y37889D01*
X205722Y37568D01*
X205566Y37412D01*
X205547Y37381D01*
X205495Y37313D01*
X205422Y37168D01*
X205309Y37055D01*
X205164Y36983D01*
X205137Y36960D01*
X205066Y36912D01*
X204909Y36755D01*
X204588Y36595D01*
X204314Y36503D01*
X204265Y36473D01*
X204212Y36451D01*
X204192Y36429D01*
X204167Y36413D01*
X204136Y36364D01*
X204099Y36321D01*
X204091Y36292D01*
X204075Y36266D01*
X204069Y36209D01*
X204055Y36153D01*
X204061Y36119D01*
X204058Y36094D01*
X204070Y36062D01*
X204078Y36012D01*
X206078Y30612D01*
X206104Y30574D01*
X206120Y30531D01*
X206151Y30503D01*
X206174Y30468D01*
X206214Y30445D01*
X206247Y30414D01*
X206287Y30402D01*
X206324Y30381D01*
X206369Y30378D01*
X206413Y30365D01*
X206454Y30372D01*
X206496Y30370D01*
X206539Y30387D01*
X206584Y30395D01*
X206625Y30423D01*
X206656Y30436D01*
X206673Y30456D01*
X206686Y30464D01*
X206734Y30464D01*
X206808Y30482D01*
X206884Y30495D01*
X206893Y30502D01*
X206902Y30504D01*
X206930Y30527D01*
X207002Y30576D01*
X207009Y30582D01*
X207084Y30595D01*
X207093Y30602D01*
X207102Y30604D01*
X207130Y30627D01*
X207202Y30676D01*
X207209Y30682D01*
X207284Y30695D01*
X207293Y30702D01*
X207302Y30704D01*
X207330Y30727D01*
X207402Y30776D01*
X207409Y30782D01*
X207484Y30795D01*
X207493Y30802D01*
X207502Y30804D01*
X207530Y30827D01*
X207602Y30876D01*
X207609Y30882D01*
X207684Y30895D01*
X207693Y30902D01*
X207702Y30904D01*
X207730Y30927D01*
X207802Y30976D01*
X207809Y30982D01*
X207884Y30995D01*
X207893Y31002D01*
X207902Y31004D01*
X207903Y31004D01*
X210619Y29131D01*
X210639Y29124D01*
X210655Y29110D01*
X210718Y29092D01*
X210780Y29068D01*
X210801Y29070D01*
X210822Y29065D01*
X210886Y29078D01*
G37*
G36*
X82617Y20585D02*
X82617Y20585D01*
X82612Y20592D01*
X82619Y20598D01*
X82619Y48498D01*
X82615Y48504D01*
X82618Y48508D01*
X82518Y49008D01*
X82474Y49047D01*
X82472Y49045D01*
X82470Y49047D01*
X72370Y49047D01*
X72323Y49011D01*
X72328Y49004D01*
X72321Y48998D01*
X72321Y46498D01*
X72342Y46471D01*
X72342Y46457D01*
X72372Y46437D01*
X72338Y46436D01*
X72340Y46412D01*
X72321Y46398D01*
X72321Y20598D01*
X72357Y20551D01*
X72364Y20556D01*
X72370Y20549D01*
X82570Y20549D01*
X82617Y20585D01*
G37*
G36*
X131821Y21173D02*
X131821Y21173D01*
X131835Y21171D01*
X132135Y21471D01*
X132137Y21483D01*
X132143Y21488D01*
X132138Y21495D01*
X132139Y21498D01*
X132149Y21506D01*
X132149Y48906D01*
X132145Y48912D01*
X132148Y48916D01*
X132048Y49416D01*
X132004Y49455D01*
X132002Y49453D01*
X132000Y49455D01*
X121900Y49455D01*
X121853Y49419D01*
X121858Y49412D01*
X121851Y49406D01*
X121851Y46906D01*
X121872Y46878D01*
X121873Y46865D01*
X121902Y46846D01*
X121866Y46842D01*
X121869Y46820D01*
X121851Y46806D01*
X121851Y21406D01*
X121872Y21378D01*
X121873Y21365D01*
X122173Y21165D01*
X122193Y21166D01*
X122200Y21157D01*
X131800Y21157D01*
X131821Y21173D01*
G37*
G36*
X46588Y107631D02*
X46588Y107631D01*
X46592Y107628D01*
X47092Y107728D01*
X47120Y107760D01*
X47122Y107761D01*
X47122Y107762D01*
X47131Y107772D01*
X47129Y107774D01*
X47131Y107776D01*
X47131Y117376D01*
X47127Y117382D01*
X47130Y117386D01*
X47030Y117886D01*
X46986Y117925D01*
X46984Y117923D01*
X46982Y117925D01*
X22682Y117925D01*
X22676Y117921D01*
X22672Y117924D01*
X21672Y117724D01*
X21668Y117719D01*
X21664Y117722D01*
X21164Y117522D01*
X21162Y117519D01*
X21160Y117520D01*
X20762Y117321D01*
X20264Y117122D01*
X20259Y117114D01*
X20252Y117115D01*
X19852Y116815D01*
X19851Y116810D01*
X19847Y116811D01*
X19147Y116111D01*
X19146Y116102D01*
X19140Y116101D01*
X18841Y115604D01*
X18543Y115206D01*
X18543Y115199D01*
X18538Y115198D01*
X18338Y114798D01*
X18339Y114795D01*
X18336Y114794D01*
X18136Y114294D01*
X18137Y114291D01*
X18134Y114289D01*
X18136Y114287D01*
X18134Y114286D01*
X17934Y113286D01*
X17937Y113279D01*
X17933Y113276D01*
X17933Y112276D01*
X17937Y112270D01*
X17934Y112266D01*
X18134Y111266D01*
X18139Y111262D01*
X18136Y111258D01*
X18536Y110258D01*
X18544Y110253D01*
X18543Y110246D01*
X19143Y109446D01*
X19148Y109445D01*
X19147Y109441D01*
X19847Y108741D01*
X19856Y108740D01*
X19857Y108734D01*
X20357Y108434D01*
X20360Y108434D01*
X20360Y108432D01*
X20760Y108232D01*
X20763Y108233D01*
X20764Y108230D01*
X21262Y108031D01*
X21660Y107832D01*
X21669Y107834D01*
X21672Y107828D01*
X22672Y107628D01*
X22679Y107631D01*
X22682Y107627D01*
X46582Y107627D01*
X46588Y107631D01*
G37*
G36*
X106747Y21139D02*
X106747Y21139D01*
X106742Y21146D01*
X106749Y21152D01*
X106749Y48652D01*
X106737Y48668D01*
X106741Y48679D01*
X106541Y48979D01*
X106508Y48991D01*
X106500Y49001D01*
X96900Y49001D01*
X96893Y48996D01*
X96888Y49000D01*
X96488Y48900D01*
X96451Y48853D01*
X96452Y48853D01*
X96451Y48852D01*
X96451Y21552D01*
X96456Y21545D01*
X96452Y21540D01*
X96552Y21140D01*
X96599Y21103D01*
X96599Y21104D01*
X96600Y21103D01*
X106700Y21103D01*
X106747Y21139D01*
G37*
G36*
X157447Y21277D02*
X157447Y21277D01*
X157447Y21278D01*
X157448Y21278D01*
X157548Y21678D01*
X157544Y21686D01*
X157549Y21690D01*
X157549Y44990D01*
X157545Y44996D01*
X157548Y45000D01*
X157248Y46500D01*
X157243Y46504D01*
X157246Y46508D01*
X157046Y47008D01*
X157038Y47013D01*
X157039Y47020D01*
X156741Y47418D01*
X156442Y47915D01*
X156439Y47917D01*
X156439Y47920D01*
X156139Y48320D01*
X156134Y48321D01*
X156135Y48325D01*
X155835Y48625D01*
X155830Y48626D01*
X155830Y48629D01*
X155430Y48929D01*
X155426Y48929D01*
X155425Y48932D01*
X154925Y49232D01*
X154922Y49232D01*
X154922Y49234D01*
X154522Y49434D01*
X154519Y49433D01*
X154518Y49436D01*
X154018Y49636D01*
X154012Y49634D01*
X154010Y49638D01*
X152510Y49938D01*
X152503Y49935D01*
X152500Y49939D01*
X152000Y49939D01*
X151994Y49935D01*
X151990Y49938D01*
X150990Y49738D01*
X150986Y49733D01*
X150982Y49736D01*
X150482Y49536D01*
X150480Y49533D01*
X150478Y49534D01*
X150078Y49334D01*
X150077Y49331D01*
X150075Y49332D01*
X149575Y49032D01*
X149573Y49029D01*
X149570Y49029D01*
X148770Y48429D01*
X148768Y48420D01*
X148761Y48420D01*
X147861Y47220D01*
X147861Y47212D01*
X147857Y47209D01*
X147854Y47208D01*
X147454Y46208D01*
X147456Y46203D01*
X147452Y46202D01*
X147352Y45802D01*
X147353Y45799D01*
X147351Y45798D01*
X147251Y45198D01*
X147254Y45193D01*
X147251Y45190D01*
X147251Y21390D01*
X147287Y21343D01*
X147288Y21343D01*
X147288Y21342D01*
X147688Y21242D01*
X147696Y21246D01*
X147700Y21241D01*
X157400Y21241D01*
X157447Y21277D01*
G37*
G36*
X212606Y55815D02*
X212606Y55815D01*
X212610Y55812D01*
X213610Y56012D01*
X213616Y56019D01*
X213622Y56016D01*
X214020Y56215D01*
X214518Y56414D01*
X214520Y56417D01*
X214522Y56416D01*
X214922Y56616D01*
X214923Y56619D01*
X214925Y56618D01*
X215425Y56918D01*
X215430Y56930D01*
X215439Y56930D01*
X215735Y57325D01*
X216130Y57621D01*
X216132Y57630D01*
X216139Y57630D01*
X216439Y58030D01*
X216439Y58040D01*
X216446Y58042D01*
X216643Y58536D01*
X216939Y58930D01*
X216939Y58943D01*
X216948Y58949D01*
X216948Y58950D01*
X217047Y59446D01*
X217246Y59942D01*
X217242Y59955D01*
X217249Y59960D01*
X217249Y60455D01*
X217348Y60950D01*
X217342Y60963D01*
X217348Y60970D01*
X217249Y61465D01*
X217249Y61960D01*
X217241Y61971D01*
X217246Y61978D01*
X217047Y62474D01*
X216948Y62970D01*
X216941Y62976D01*
X216944Y62982D01*
X216744Y63382D01*
X216741Y63383D01*
X216742Y63385D01*
X216442Y63885D01*
X216439Y63887D01*
X216439Y63890D01*
X216139Y64290D01*
X216130Y64292D01*
X216130Y64299D01*
X215735Y64595D01*
X215439Y64990D01*
X215426Y64993D01*
X215425Y65002D01*
X214925Y65302D01*
X214922Y65302D01*
X214922Y65304D01*
X214522Y65504D01*
X214519Y65503D01*
X214518Y65506D01*
X214020Y65705D01*
X213622Y65904D01*
X213613Y65902D01*
X213610Y65908D01*
X212610Y66108D01*
X212603Y66105D01*
X212600Y66109D01*
X193900Y66109D01*
X193894Y66105D01*
X193890Y66108D01*
X192390Y65808D01*
X192384Y65801D01*
X192378Y65804D01*
X191978Y65604D01*
X191977Y65601D01*
X191975Y65602D01*
X191475Y65302D01*
X191473Y65299D01*
X191470Y65299D01*
X190670Y64699D01*
X190668Y64690D01*
X190661Y64690D01*
X189761Y63490D01*
X189761Y63480D01*
X189754Y63478D01*
X189555Y62980D01*
X189356Y62582D01*
X189357Y62579D01*
X189354Y62578D01*
X189154Y62078D01*
X189158Y62065D01*
X189151Y62060D01*
X189151Y61565D01*
X189052Y61070D01*
X189055Y61063D01*
X189051Y61060D01*
X189051Y60560D01*
X189055Y60554D01*
X189052Y60550D01*
X189252Y59550D01*
X189257Y59546D01*
X189254Y59542D01*
X189654Y58542D01*
X189662Y58537D01*
X189661Y58530D01*
X190561Y57330D01*
X190570Y57328D01*
X190570Y57321D01*
X191770Y56421D01*
X191780Y56421D01*
X191782Y56414D01*
X192782Y56014D01*
X192788Y56016D01*
X192790Y56012D01*
X193790Y55812D01*
X193797Y55815D01*
X193800Y55811D01*
X212600Y55811D01*
X212606Y55815D01*
G37*
G36*
X182847Y20807D02*
X182847Y20807D01*
X182847Y20808D01*
X182848Y20808D01*
X182948Y21208D01*
X182944Y21216D01*
X182949Y21220D01*
X182949Y43020D01*
X182945Y43026D01*
X182948Y43030D01*
X182748Y44030D01*
X182743Y44034D01*
X182746Y44038D01*
X182546Y44538D01*
X182543Y44540D01*
X182544Y44542D01*
X182345Y44940D01*
X182146Y45438D01*
X182138Y45443D01*
X182139Y45450D01*
X181539Y46250D01*
X181530Y46252D01*
X181530Y46259D01*
X180330Y47159D01*
X180320Y47159D01*
X180318Y47166D01*
X179318Y47566D01*
X179313Y47564D01*
X179312Y47568D01*
X178912Y47668D01*
X178910Y47667D01*
X178910Y47668D01*
X177910Y47868D01*
X177898Y47863D01*
X177892Y47869D01*
X177296Y47769D01*
X176800Y47769D01*
X176789Y47761D01*
X176782Y47766D01*
X176285Y47567D01*
X175888Y47468D01*
X175885Y47464D01*
X175882Y47466D01*
X175382Y47266D01*
X175377Y47258D01*
X175370Y47259D01*
X174170Y46359D01*
X174168Y46350D01*
X174161Y46350D01*
X173561Y45550D01*
X173561Y45546D01*
X173558Y45545D01*
X173258Y45045D01*
X173258Y45042D01*
X173256Y45042D01*
X173056Y44642D01*
X173057Y44639D01*
X173054Y44638D01*
X172854Y44138D01*
X172856Y44132D01*
X172855Y44131D01*
X172852Y44130D01*
X172652Y43130D01*
X172655Y43123D01*
X172651Y43120D01*
X172651Y20920D01*
X172687Y20873D01*
X172688Y20873D01*
X172688Y20872D01*
X173088Y20772D01*
X173096Y20776D01*
X173100Y20771D01*
X182800Y20771D01*
X182847Y20807D01*
G37*
G36*
X163108Y96070D02*
X163108Y96070D01*
X163191Y96073D01*
X163195Y96076D01*
X163199Y96076D01*
X163328Y96143D01*
X163828Y96543D01*
X163839Y96558D01*
X163859Y96571D01*
X164344Y97056D01*
X165328Y97843D01*
X165339Y97858D01*
X165359Y97871D01*
X166244Y98756D01*
X166728Y99143D01*
X166739Y99158D01*
X166759Y99171D01*
X167259Y99671D01*
X167299Y99736D01*
X167343Y99798D01*
X167345Y99810D01*
X167350Y99818D01*
X167354Y99855D01*
X167370Y99940D01*
X167370Y118340D01*
X167367Y118353D01*
X167369Y118367D01*
X167348Y118437D01*
X167331Y118509D01*
X167322Y118519D01*
X167318Y118532D01*
X167267Y118586D01*
X167221Y118642D01*
X167208Y118648D01*
X167199Y118658D01*
X167065Y118713D01*
X166573Y118811D01*
X166182Y118909D01*
X166174Y118909D01*
X166165Y118913D01*
X165665Y119013D01*
X165633Y119012D01*
X165590Y119020D01*
X165228Y119020D01*
X164273Y119211D01*
X163882Y119309D01*
X163874Y119309D01*
X163865Y119313D01*
X163365Y119413D01*
X163363Y119413D01*
X163362Y119413D01*
X163278Y119410D01*
X163191Y119407D01*
X163190Y119407D01*
X163189Y119407D01*
X163115Y119366D01*
X163039Y119325D01*
X163038Y119324D01*
X163037Y119324D01*
X162989Y119255D01*
X162938Y119184D01*
X162938Y119183D01*
X162937Y119182D01*
X162910Y119040D01*
X162910Y118324D01*
X162787Y118478D01*
X162764Y118495D01*
X162686Y118566D01*
X161686Y119166D01*
X161673Y119170D01*
X161660Y119180D01*
X161060Y119480D01*
X161022Y119489D01*
X160953Y119515D01*
X159153Y119815D01*
X159114Y119813D01*
X159043Y119817D01*
X157443Y119617D01*
X157409Y119605D01*
X157354Y119595D01*
X156054Y119095D01*
X156027Y119077D01*
X155986Y119061D01*
X154886Y118361D01*
X154862Y118337D01*
X154821Y118309D01*
X153921Y117409D01*
X153901Y117377D01*
X153862Y117332D01*
X153162Y116132D01*
X153154Y116106D01*
X153135Y116077D01*
X152635Y114777D01*
X152632Y114751D01*
X152618Y114720D01*
X152318Y113320D01*
X152319Y113287D01*
X152310Y113240D01*
X152310Y111840D01*
X152313Y111828D01*
X152311Y111813D01*
X152411Y110413D01*
X152414Y110401D01*
X152414Y110386D01*
X152614Y108986D01*
X152627Y108951D01*
X152639Y108894D01*
X153139Y107694D01*
X153155Y107671D01*
X153169Y107636D01*
X153869Y106536D01*
X153893Y106512D01*
X153921Y106471D01*
X154821Y105571D01*
X154845Y105556D01*
X154872Y105529D01*
X155872Y104829D01*
X155906Y104815D01*
X155954Y104785D01*
X157254Y104285D01*
X157292Y104280D01*
X157365Y104261D01*
X158865Y104161D01*
X158876Y104162D01*
X158890Y104160D01*
X159490Y104160D01*
X159516Y104166D01*
X159553Y104165D01*
X160153Y104265D01*
X160176Y104275D01*
X160210Y104279D01*
X161410Y104679D01*
X161439Y104697D01*
X161486Y104714D01*
X161986Y105014D01*
X162002Y105030D01*
X162028Y105043D01*
X162528Y105443D01*
X162539Y105458D01*
X162559Y105471D01*
X162710Y105622D01*
X162710Y96440D01*
X162711Y96436D01*
X162710Y96431D01*
X162730Y96351D01*
X162749Y96271D01*
X162752Y96268D01*
X162753Y96263D01*
X162807Y96201D01*
X162859Y96138D01*
X162864Y96136D01*
X162867Y96132D01*
X162943Y96100D01*
X163018Y96067D01*
X163022Y96067D01*
X163026Y96065D01*
X163108Y96070D01*
G37*
G36*
X147220Y104067D02*
X147220Y104067D01*
X147265Y104067D01*
X147728Y104160D01*
X148190Y104160D01*
X148205Y104163D01*
X148220Y104161D01*
X148352Y104198D01*
X148359Y104199D01*
X148359Y104200D01*
X148360Y104200D01*
X148723Y104381D01*
X149082Y104471D01*
X149112Y104487D01*
X149160Y104500D01*
X149880Y104860D01*
X149960Y104900D01*
X149976Y104913D01*
X150001Y104924D01*
X150301Y105124D01*
X150322Y105147D01*
X150359Y105171D01*
X150959Y105771D01*
X150971Y105791D01*
X150994Y105812D01*
X151294Y106212D01*
X151306Y106238D01*
X151330Y106270D01*
X151530Y106670D01*
X151538Y106703D01*
X151559Y106748D01*
X151759Y107548D01*
X151759Y107556D01*
X151763Y107565D01*
X151863Y108065D01*
X151862Y108097D01*
X151870Y108140D01*
X151870Y108640D01*
X151867Y108655D01*
X151869Y108674D01*
X151769Y109774D01*
X151758Y109808D01*
X151751Y109860D01*
X151451Y110760D01*
X151430Y110794D01*
X151399Y110861D01*
X150899Y111561D01*
X150879Y111579D01*
X150859Y111609D01*
X150259Y112209D01*
X150226Y112229D01*
X150179Y112270D01*
X149479Y112670D01*
X149453Y112678D01*
X149424Y112696D01*
X148624Y112996D01*
X148600Y112999D01*
X148573Y113011D01*
X147673Y113211D01*
X147656Y113211D01*
X147637Y113217D01*
X146855Y113315D01*
X145973Y113511D01*
X145954Y113511D01*
X145932Y113518D01*
X145033Y113618D01*
X144241Y113717D01*
X143578Y113812D01*
X143069Y113981D01*
X142762Y114212D01*
X142546Y114499D01*
X142470Y114878D01*
X142470Y115078D01*
X142551Y115320D01*
X142554Y115357D01*
X142560Y115388D01*
X142563Y115395D01*
X142563Y115403D01*
X142570Y115440D01*
X142570Y115550D01*
X142703Y115815D01*
X142915Y116028D01*
X143380Y116260D01*
X143490Y116260D01*
X143505Y116263D01*
X143520Y116261D01*
X143652Y116298D01*
X143659Y116299D01*
X143659Y116300D01*
X143660Y116300D01*
X143780Y116360D01*
X144390Y116360D01*
X144405Y116363D01*
X144420Y116361D01*
X144552Y116398D01*
X144559Y116399D01*
X144559Y116400D01*
X144560Y116400D01*
X144619Y116429D01*
X144770Y116379D01*
X144807Y116376D01*
X144890Y116360D01*
X145328Y116360D01*
X145570Y116279D01*
X145607Y116276D01*
X145690Y116260D01*
X145800Y116260D01*
X146065Y116128D01*
X146578Y115615D01*
X146710Y115350D01*
X146710Y115140D01*
X146713Y115125D01*
X146711Y115110D01*
X146748Y114978D01*
X146749Y114971D01*
X146750Y114971D01*
X146750Y114970D01*
X146810Y114850D01*
X146810Y114640D01*
X146821Y114590D01*
X146823Y114539D01*
X146841Y114507D01*
X146849Y114471D01*
X146882Y114432D01*
X146906Y114387D01*
X146936Y114366D01*
X146959Y114338D01*
X147006Y114317D01*
X147048Y114287D01*
X147090Y114279D01*
X147118Y114267D01*
X147148Y114268D01*
X147190Y114260D01*
X151090Y114260D01*
X151165Y114277D01*
X151242Y114291D01*
X151249Y114297D01*
X151259Y114299D01*
X151319Y114349D01*
X151381Y114395D01*
X151385Y114403D01*
X151392Y114409D01*
X151424Y114480D01*
X151459Y114549D01*
X151460Y114560D01*
X151463Y114568D01*
X151462Y114603D01*
X151466Y114694D01*
X151366Y115394D01*
X151363Y115403D01*
X151363Y115415D01*
X151263Y115915D01*
X151255Y115932D01*
X151254Y115948D01*
X151252Y115953D01*
X151251Y115960D01*
X151051Y116560D01*
X151033Y116589D01*
X151016Y116636D01*
X150716Y117136D01*
X150704Y117148D01*
X150694Y117168D01*
X150394Y117568D01*
X150376Y117583D01*
X150359Y117609D01*
X149959Y118009D01*
X149939Y118021D01*
X149918Y118044D01*
X149118Y118644D01*
X149102Y118651D01*
X149086Y118666D01*
X148586Y118966D01*
X148561Y118974D01*
X148531Y118993D01*
X147531Y119393D01*
X147498Y119398D01*
X147453Y119415D01*
X145653Y119715D01*
X145626Y119713D01*
X145590Y119720D01*
X143390Y119720D01*
X143364Y119714D01*
X143328Y119715D01*
X142759Y119620D01*
X142290Y119620D01*
X142260Y119613D01*
X142215Y119613D01*
X141715Y119513D01*
X141697Y119504D01*
X141670Y119501D01*
X141084Y119305D01*
X140698Y119209D01*
X140678Y119199D01*
X140649Y119193D01*
X140149Y118993D01*
X140137Y118985D01*
X140120Y118980D01*
X139860Y118850D01*
X139720Y118780D01*
X139698Y118762D01*
X139662Y118744D01*
X139262Y118444D01*
X139247Y118426D01*
X139221Y118409D01*
X138521Y117709D01*
X138519Y117705D01*
X138515Y117703D01*
X138437Y117581D01*
X138243Y117096D01*
X138050Y116710D01*
X138041Y116672D01*
X138015Y116603D01*
X137815Y115403D01*
X137817Y115376D01*
X137810Y115340D01*
X137810Y106430D01*
X137750Y106310D01*
X137746Y106295D01*
X137737Y106282D01*
X137711Y106148D01*
X137710Y106142D01*
X137710Y106141D01*
X137710Y106140D01*
X137710Y105830D01*
X137650Y105710D01*
X137646Y105695D01*
X137637Y105682D01*
X137611Y105548D01*
X137610Y105542D01*
X137610Y105541D01*
X137610Y105540D01*
X137610Y105530D01*
X137550Y105410D01*
X137546Y105395D01*
X137537Y105382D01*
X137511Y105248D01*
X137510Y105242D01*
X137510Y105241D01*
X137510Y105240D01*
X137510Y105230D01*
X137450Y105110D01*
X137446Y105095D01*
X137437Y105082D01*
X137411Y104948D01*
X137410Y104942D01*
X137410Y104941D01*
X137410Y104940D01*
X137410Y104840D01*
X137421Y104790D01*
X137423Y104739D01*
X137441Y104707D01*
X137449Y104671D01*
X137482Y104632D01*
X137506Y104587D01*
X137536Y104566D01*
X137559Y104538D01*
X137606Y104517D01*
X137648Y104487D01*
X137690Y104479D01*
X137718Y104467D01*
X137748Y104468D01*
X137790Y104460D01*
X141690Y104460D01*
X141740Y104471D01*
X141791Y104473D01*
X141823Y104491D01*
X141859Y104499D01*
X141898Y104532D01*
X141943Y104556D01*
X141964Y104586D01*
X141992Y104609D01*
X142013Y104656D01*
X142043Y104698D01*
X142051Y104740D01*
X142063Y104768D01*
X142062Y104798D01*
X142070Y104840D01*
X142070Y104889D01*
X142099Y104936D01*
X142143Y104998D01*
X142145Y105010D01*
X142150Y105018D01*
X142154Y105055D01*
X142156Y105069D01*
X142159Y105071D01*
X142199Y105136D01*
X142243Y105198D01*
X142245Y105210D01*
X142250Y105218D01*
X142254Y105255D01*
X142270Y105340D01*
X142270Y105363D01*
X142479Y105224D01*
X142515Y105210D01*
X142570Y105179D01*
X142822Y105095D01*
X143079Y104924D01*
X143099Y104916D01*
X143120Y104900D01*
X143299Y104811D01*
X143579Y104624D01*
X143615Y104610D01*
X143670Y104579D01*
X143970Y104479D01*
X143983Y104478D01*
X143998Y104471D01*
X144384Y104375D01*
X144670Y104279D01*
X144707Y104276D01*
X144790Y104260D01*
X145028Y104260D01*
X145270Y104179D01*
X145307Y104176D01*
X145390Y104160D01*
X146028Y104160D01*
X146270Y104079D01*
X146307Y104076D01*
X146390Y104060D01*
X147190Y104060D01*
X147220Y104067D01*
G37*
G36*
X116224Y104468D02*
X116224Y104468D01*
X116258Y104466D01*
X116307Y104487D01*
X116359Y104499D01*
X116385Y104521D01*
X116417Y104535D01*
X116462Y104585D01*
X116492Y104609D01*
X116500Y104626D01*
X116515Y104642D01*
X120163Y110629D01*
X121210Y109583D01*
X121210Y104840D01*
X121221Y104790D01*
X121223Y104739D01*
X121241Y104707D01*
X121249Y104671D01*
X121282Y104632D01*
X121306Y104587D01*
X121336Y104566D01*
X121359Y104538D01*
X121406Y104517D01*
X121448Y104487D01*
X121490Y104479D01*
X121518Y104467D01*
X121548Y104468D01*
X121590Y104460D01*
X125390Y104460D01*
X125440Y104471D01*
X125491Y104473D01*
X125523Y104491D01*
X125559Y104499D01*
X125598Y104532D01*
X125643Y104556D01*
X125664Y104586D01*
X125692Y104609D01*
X125713Y104656D01*
X125743Y104698D01*
X125751Y104740D01*
X125763Y104768D01*
X125762Y104798D01*
X125770Y104840D01*
X125770Y122240D01*
X125761Y122278D01*
X125762Y122317D01*
X125742Y122361D01*
X125731Y122409D01*
X125706Y122439D01*
X125690Y122474D01*
X125644Y122513D01*
X125621Y122542D01*
X125601Y122551D01*
X125581Y122569D01*
X121781Y124769D01*
X121720Y124787D01*
X121662Y124813D01*
X121638Y124812D01*
X121615Y124819D01*
X121553Y124809D01*
X121489Y124807D01*
X121468Y124795D01*
X121444Y124791D01*
X121393Y124754D01*
X121337Y124724D01*
X121323Y124704D01*
X121303Y124690D01*
X121274Y124634D01*
X121237Y124582D01*
X121232Y124555D01*
X121222Y124537D01*
X121221Y124499D01*
X121210Y124440D01*
X121210Y114885D01*
X116964Y119303D01*
X116897Y119347D01*
X116832Y119393D01*
X116824Y119394D01*
X116819Y119398D01*
X116786Y119402D01*
X116690Y119420D01*
X112090Y119420D01*
X112063Y119414D01*
X112036Y119416D01*
X111980Y119394D01*
X111921Y119381D01*
X111900Y119363D01*
X111874Y119353D01*
X111834Y119309D01*
X111788Y119271D01*
X111776Y119245D01*
X111758Y119225D01*
X111741Y119167D01*
X111717Y119112D01*
X111718Y119085D01*
X111710Y119058D01*
X111721Y118999D01*
X111723Y118939D01*
X111737Y118915D01*
X111742Y118888D01*
X111788Y118821D01*
X111806Y118787D01*
X111816Y118780D01*
X111824Y118769D01*
X116901Y113787D01*
X111172Y105048D01*
X111147Y104979D01*
X111117Y104912D01*
X111117Y104899D01*
X111113Y104886D01*
X111121Y104813D01*
X111123Y104739D01*
X111130Y104727D01*
X111131Y104714D01*
X111171Y104652D01*
X111206Y104587D01*
X111217Y104579D01*
X111225Y104568D01*
X111288Y104530D01*
X111348Y104487D01*
X111363Y104484D01*
X111373Y104478D01*
X111412Y104475D01*
X111490Y104460D01*
X116190Y104460D01*
X116224Y104468D01*
G37*
G36*
X76740Y104471D02*
X76740Y104471D01*
X76791Y104473D01*
X76823Y104491D01*
X76859Y104499D01*
X76898Y104532D01*
X76943Y104556D01*
X76964Y104586D01*
X76992Y104609D01*
X77013Y104656D01*
X77043Y104698D01*
X77051Y104740D01*
X77063Y104768D01*
X77062Y104798D01*
X77070Y104840D01*
X77070Y113613D01*
X77162Y114252D01*
X77338Y114780D01*
X77606Y115228D01*
X77862Y115568D01*
X78144Y115780D01*
X79194Y115955D01*
X80460Y115774D01*
X80836Y115549D01*
X81177Y115122D01*
X81438Y114687D01*
X81621Y114046D01*
X81810Y113198D01*
X81810Y104840D01*
X81821Y104790D01*
X81823Y104739D01*
X81841Y104707D01*
X81849Y104671D01*
X81882Y104632D01*
X81906Y104587D01*
X81936Y104566D01*
X81959Y104538D01*
X82006Y104517D01*
X82048Y104487D01*
X82090Y104479D01*
X82118Y104467D01*
X82148Y104468D01*
X82190Y104460D01*
X86090Y104460D01*
X86140Y104471D01*
X86191Y104473D01*
X86223Y104491D01*
X86259Y104499D01*
X86298Y104532D01*
X86343Y104556D01*
X86364Y104586D01*
X86392Y104609D01*
X86413Y104656D01*
X86443Y104698D01*
X86451Y104740D01*
X86463Y104768D01*
X86462Y104798D01*
X86470Y104840D01*
X86470Y117240D01*
X86468Y117249D01*
X86470Y117261D01*
X86370Y119061D01*
X86358Y119100D01*
X86357Y119141D01*
X86334Y119182D01*
X86321Y119227D01*
X86293Y119257D01*
X86274Y119293D01*
X86235Y119320D01*
X86203Y119355D01*
X86165Y119369D01*
X86132Y119393D01*
X86076Y119404D01*
X86042Y119417D01*
X86019Y119415D01*
X85990Y119420D01*
X82390Y119420D01*
X82340Y119409D01*
X82289Y119407D01*
X82257Y119389D01*
X82221Y119381D01*
X82182Y119348D01*
X82137Y119324D01*
X82116Y119294D01*
X82088Y119271D01*
X82067Y119224D01*
X82037Y119182D01*
X82029Y119140D01*
X82017Y119112D01*
X82018Y119082D01*
X82010Y119040D01*
X82010Y118099D01*
X81787Y118378D01*
X81764Y118395D01*
X81761Y118402D01*
X81745Y118413D01*
X81701Y118456D01*
X81101Y118856D01*
X81093Y118859D01*
X81086Y118866D01*
X80586Y119166D01*
X80553Y119176D01*
X80510Y119201D01*
X79310Y119601D01*
X79285Y119603D01*
X79253Y119615D01*
X78053Y119815D01*
X78014Y119813D01*
X77936Y119816D01*
X76536Y119616D01*
X76520Y119610D01*
X76498Y119609D01*
X75298Y119309D01*
X75264Y119292D01*
X75205Y119272D01*
X74305Y118772D01*
X74277Y118746D01*
X74221Y118709D01*
X73621Y118109D01*
X73601Y118076D01*
X73558Y118025D01*
X73058Y117125D01*
X73052Y117104D01*
X73037Y117081D01*
X72637Y116081D01*
X72631Y116043D01*
X72611Y115974D01*
X72511Y114874D01*
X72512Y114872D01*
X72511Y114869D01*
X72411Y113569D01*
X72413Y113556D01*
X72410Y113540D01*
X72410Y104840D01*
X72421Y104790D01*
X72423Y104739D01*
X72441Y104707D01*
X72449Y104671D01*
X72482Y104632D01*
X72506Y104587D01*
X72536Y104566D01*
X72559Y104538D01*
X72606Y104517D01*
X72648Y104487D01*
X72690Y104479D01*
X72718Y104467D01*
X72748Y104468D01*
X72790Y104460D01*
X76690Y104460D01*
X76740Y104471D01*
G37*
G36*
X97744Y104264D02*
X97744Y104264D01*
X97763Y104271D01*
X97790Y104273D01*
X98890Y104573D01*
X98922Y104590D01*
X98975Y104608D01*
X99875Y105108D01*
X99898Y105129D01*
X99937Y105151D01*
X100637Y105751D01*
X100654Y105774D01*
X100722Y105855D01*
X101222Y106755D01*
X101232Y106788D01*
X101254Y106831D01*
X101554Y107831D01*
X101555Y107850D01*
X101564Y107872D01*
X101764Y108972D01*
X101763Y109001D01*
X101770Y109040D01*
X101770Y119040D01*
X101759Y119090D01*
X101757Y119141D01*
X101739Y119173D01*
X101731Y119209D01*
X101698Y119248D01*
X101674Y119293D01*
X101644Y119314D01*
X101621Y119342D01*
X101574Y119363D01*
X101532Y119393D01*
X101490Y119401D01*
X101462Y119413D01*
X101432Y119412D01*
X101390Y119420D01*
X97490Y119420D01*
X97440Y119409D01*
X97389Y119407D01*
X97357Y119389D01*
X97321Y119381D01*
X97282Y119348D01*
X97237Y119324D01*
X97216Y119294D01*
X97188Y119271D01*
X97167Y119224D01*
X97137Y119182D01*
X97129Y119140D01*
X97117Y119112D01*
X97118Y119082D01*
X97110Y119040D01*
X97110Y110267D01*
X97018Y109628D01*
X96833Y109071D01*
X96666Y108654D01*
X96340Y108328D01*
X96031Y108096D01*
X95626Y108015D01*
X94990Y107924D01*
X94347Y108016D01*
X93824Y108103D01*
X93426Y108342D01*
X92992Y108776D01*
X92742Y109193D01*
X92564Y109814D01*
X92468Y110680D01*
X92370Y111659D01*
X92370Y119040D01*
X92359Y119090D01*
X92357Y119141D01*
X92339Y119173D01*
X92331Y119209D01*
X92298Y119248D01*
X92274Y119293D01*
X92244Y119314D01*
X92221Y119342D01*
X92174Y119363D01*
X92132Y119393D01*
X92090Y119401D01*
X92062Y119413D01*
X92032Y119412D01*
X91990Y119420D01*
X88190Y119420D01*
X88140Y119409D01*
X88089Y119407D01*
X88057Y119389D01*
X88021Y119381D01*
X87982Y119348D01*
X87937Y119324D01*
X87916Y119294D01*
X87888Y119271D01*
X87867Y119224D01*
X87837Y119182D01*
X87829Y119140D01*
X87817Y119112D01*
X87818Y119082D01*
X87810Y119040D01*
X87810Y104840D01*
X87821Y104790D01*
X87823Y104739D01*
X87841Y104707D01*
X87849Y104671D01*
X87882Y104632D01*
X87906Y104587D01*
X87936Y104566D01*
X87959Y104538D01*
X88006Y104517D01*
X88048Y104487D01*
X88090Y104479D01*
X88118Y104467D01*
X88148Y104468D01*
X88190Y104460D01*
X91890Y104460D01*
X91940Y104471D01*
X91991Y104473D01*
X92023Y104491D01*
X92059Y104499D01*
X92098Y104532D01*
X92143Y104556D01*
X92164Y104586D01*
X92192Y104609D01*
X92213Y104656D01*
X92243Y104698D01*
X92251Y104740D01*
X92263Y104768D01*
X92262Y104798D01*
X92270Y104840D01*
X92270Y105769D01*
X92536Y105556D01*
X93021Y105071D01*
X93052Y105052D01*
X93094Y105014D01*
X93594Y104714D01*
X93627Y104704D01*
X93670Y104679D01*
X94870Y104279D01*
X94895Y104277D01*
X94928Y104265D01*
X95528Y104165D01*
X95532Y104165D01*
X95536Y104164D01*
X96236Y104064D01*
X96275Y104067D01*
X96344Y104064D01*
X97744Y104264D01*
G37*
G36*
X176316Y104166D02*
X176316Y104166D01*
X176353Y104165D01*
X177553Y104365D01*
X177580Y104376D01*
X177620Y104383D01*
X178720Y104783D01*
X178736Y104793D01*
X178760Y104800D01*
X179080Y104960D01*
X179760Y105300D01*
X179782Y105318D01*
X179818Y105336D01*
X180618Y105936D01*
X180643Y105965D01*
X180690Y106007D01*
X181390Y106907D01*
X181406Y106942D01*
X181447Y107010D01*
X181847Y108110D01*
X181851Y108139D01*
X181865Y108178D01*
X182065Y109378D01*
X182060Y109459D01*
X182057Y109541D01*
X182054Y109545D01*
X182054Y109550D01*
X182013Y109621D01*
X181974Y109693D01*
X181970Y109696D01*
X181967Y109700D01*
X181899Y109746D01*
X181832Y109793D01*
X181827Y109794D01*
X181823Y109796D01*
X181795Y109800D01*
X181690Y109820D01*
X177990Y109820D01*
X177971Y109816D01*
X177951Y109818D01*
X177887Y109796D01*
X177821Y109781D01*
X177806Y109768D01*
X177787Y109762D01*
X177740Y109714D01*
X177688Y109671D01*
X177679Y109652D01*
X177666Y109638D01*
X177628Y109538D01*
X177617Y109512D01*
X177617Y109508D01*
X177615Y109503D01*
X177524Y108959D01*
X177350Y108610D01*
X177347Y108596D01*
X177337Y108581D01*
X177177Y108180D01*
X176902Y107974D01*
X175981Y107606D01*
X175521Y107514D01*
X175006Y107428D01*
X174682Y107509D01*
X174646Y107509D01*
X174590Y107520D01*
X174263Y107520D01*
X173831Y107693D01*
X173809Y107696D01*
X173782Y107709D01*
X173484Y107783D01*
X173003Y108265D01*
X172870Y108530D01*
X172870Y108893D01*
X172943Y109184D01*
X173086Y109398D01*
X173326Y109638D01*
X173743Y109888D01*
X175084Y110271D01*
X175968Y110468D01*
X176965Y110667D01*
X176989Y110678D01*
X177024Y110684D01*
X177803Y110976D01*
X178582Y111171D01*
X178599Y111180D01*
X178624Y111184D01*
X179424Y111484D01*
X179445Y111499D01*
X179479Y111510D01*
X180179Y111910D01*
X180207Y111936D01*
X180259Y111971D01*
X181259Y112971D01*
X181263Y112978D01*
X181270Y112983D01*
X181346Y113107D01*
X181646Y113907D01*
X181651Y113942D01*
X181653Y113949D01*
X181664Y113974D01*
X181664Y113982D01*
X181667Y113993D01*
X181767Y114793D01*
X181763Y114831D01*
X181766Y114898D01*
X181566Y116198D01*
X181553Y116230D01*
X181543Y116281D01*
X181143Y117281D01*
X181122Y117311D01*
X181079Y117387D01*
X180479Y118087D01*
X180464Y118098D01*
X180462Y118102D01*
X180447Y118113D01*
X180418Y118144D01*
X179618Y118744D01*
X179597Y118753D01*
X179575Y118772D01*
X178675Y119272D01*
X178642Y119282D01*
X178599Y119304D01*
X177599Y119604D01*
X177568Y119606D01*
X177524Y119619D01*
X176424Y119719D01*
X176423Y119719D01*
X176422Y119719D01*
X175222Y119819D01*
X175194Y119815D01*
X175156Y119819D01*
X172956Y119619D01*
X172925Y119609D01*
X172881Y119604D01*
X171881Y119304D01*
X171852Y119288D01*
X171805Y119272D01*
X170905Y118772D01*
X170889Y118757D01*
X170862Y118744D01*
X170062Y118144D01*
X170041Y118119D01*
X170004Y118090D01*
X169304Y117290D01*
X169288Y117260D01*
X169237Y117181D01*
X168837Y116181D01*
X168832Y116150D01*
X168816Y116108D01*
X168616Y115008D01*
X168620Y114923D01*
X168623Y114839D01*
X168624Y114837D01*
X168625Y114835D01*
X168666Y114760D01*
X168706Y114687D01*
X168708Y114686D01*
X168709Y114684D01*
X168781Y114635D01*
X168848Y114587D01*
X168850Y114587D01*
X168852Y114586D01*
X168869Y114583D01*
X168990Y114560D01*
X172690Y114560D01*
X172703Y114563D01*
X172717Y114561D01*
X172787Y114582D01*
X172859Y114599D01*
X172869Y114608D01*
X172882Y114612D01*
X172936Y114663D01*
X172992Y114709D01*
X172998Y114722D01*
X173008Y114731D01*
X173063Y114865D01*
X173161Y115357D01*
X173233Y115646D01*
X173715Y116128D01*
X174023Y116281D01*
X174373Y116369D01*
X174828Y116460D01*
X175628Y116460D01*
X175870Y116379D01*
X175907Y116376D01*
X175990Y116360D01*
X176328Y116360D01*
X176522Y116295D01*
X176971Y115996D01*
X177025Y115834D01*
X177100Y115531D01*
X177034Y115199D01*
X176818Y114912D01*
X176511Y114681D01*
X175977Y114503D01*
X174614Y114114D01*
X173843Y114017D01*
X173824Y114010D01*
X173798Y114009D01*
X173002Y113810D01*
X172108Y113611D01*
X172087Y113601D01*
X172057Y113596D01*
X171257Y113296D01*
X171250Y113292D01*
X171240Y113290D01*
X170540Y112990D01*
X170525Y112978D01*
X170501Y112970D01*
X169801Y112570D01*
X169781Y112551D01*
X169747Y112532D01*
X169147Y112032D01*
X169123Y112001D01*
X169118Y111996D01*
X169117Y111995D01*
X169074Y111951D01*
X168674Y111351D01*
X168661Y111318D01*
X168634Y111274D01*
X168334Y110474D01*
X168329Y110437D01*
X168312Y110382D01*
X168212Y109482D01*
X168216Y109452D01*
X168211Y109411D01*
X168311Y108111D01*
X168311Y108110D01*
X168350Y107970D01*
X168850Y106970D01*
X168863Y106954D01*
X168874Y106929D01*
X169474Y106029D01*
X169499Y106005D01*
X169562Y105936D01*
X170362Y105336D01*
X170388Y105324D01*
X170420Y105300D01*
X171420Y104800D01*
X171439Y104795D01*
X171460Y104783D01*
X172560Y104383D01*
X172589Y104379D01*
X172628Y104365D01*
X173828Y104165D01*
X173854Y104167D01*
X173890Y104160D01*
X176290Y104160D01*
X176316Y104166D01*
G37*
G36*
X109140Y104471D02*
X109140Y104471D01*
X109191Y104473D01*
X109223Y104491D01*
X109259Y104499D01*
X109298Y104532D01*
X109343Y104556D01*
X109364Y104586D01*
X109392Y104609D01*
X109413Y104656D01*
X109443Y104698D01*
X109451Y104740D01*
X109463Y104768D01*
X109462Y104798D01*
X109470Y104840D01*
X109470Y116060D01*
X112890Y116060D01*
X112915Y116066D01*
X112941Y116063D01*
X112999Y116085D01*
X113059Y116099D01*
X113079Y116116D01*
X113103Y116125D01*
X113145Y116170D01*
X113192Y116209D01*
X113203Y116233D01*
X113220Y116252D01*
X113238Y116311D01*
X113263Y116368D01*
X113262Y116393D01*
X113270Y116418D01*
X113259Y116479D01*
X113257Y116541D01*
X113244Y116563D01*
X113240Y116589D01*
X113192Y116660D01*
X113174Y116693D01*
X113166Y116699D01*
X113159Y116709D01*
X112559Y117309D01*
X112539Y117321D01*
X112518Y117344D01*
X112162Y117612D01*
X111894Y117968D01*
X111876Y117983D01*
X111859Y118009D01*
X111259Y118609D01*
X111239Y118621D01*
X111218Y118644D01*
X110862Y118912D01*
X110594Y119268D01*
X110582Y119279D01*
X110574Y119293D01*
X110516Y119334D01*
X110461Y119379D01*
X110446Y119383D01*
X110432Y119393D01*
X110305Y119417D01*
X110293Y119420D01*
X110292Y119420D01*
X110290Y119420D01*
X109470Y119420D01*
X109470Y120140D01*
X109466Y120158D01*
X109468Y120182D01*
X109368Y121082D01*
X109360Y121103D01*
X109359Y121132D01*
X109159Y121932D01*
X109141Y121967D01*
X109120Y122029D01*
X108720Y122729D01*
X108701Y122749D01*
X108682Y122783D01*
X108182Y123383D01*
X108170Y123393D01*
X108159Y123409D01*
X107559Y124009D01*
X107552Y124013D01*
X107547Y124020D01*
X107424Y124096D01*
X106624Y124396D01*
X106612Y124398D01*
X106599Y124404D01*
X105599Y124704D01*
X105568Y124706D01*
X105524Y124719D01*
X104424Y124819D01*
X104409Y124817D01*
X104390Y124820D01*
X103590Y124820D01*
X103553Y124812D01*
X103470Y124801D01*
X103228Y124720D01*
X102290Y124720D01*
X102240Y124709D01*
X102189Y124707D01*
X102157Y124689D01*
X102121Y124681D01*
X102082Y124648D01*
X102037Y124624D01*
X102016Y124594D01*
X101988Y124571D01*
X101967Y124524D01*
X101937Y124482D01*
X101929Y124440D01*
X101917Y124412D01*
X101918Y124382D01*
X101910Y124340D01*
X101910Y121440D01*
X101921Y121390D01*
X101923Y121339D01*
X101941Y121307D01*
X101949Y121271D01*
X101982Y121232D01*
X102006Y121187D01*
X102036Y121166D01*
X102059Y121138D01*
X102106Y121117D01*
X102148Y121087D01*
X102190Y121079D01*
X102218Y121067D01*
X102248Y121068D01*
X102290Y121060D01*
X104028Y121060D01*
X104544Y120888D01*
X104579Y120870D01*
X104629Y120720D01*
X104642Y120700D01*
X104650Y120670D01*
X104731Y120507D01*
X104810Y120193D01*
X104810Y119420D01*
X102490Y119420D01*
X102440Y119409D01*
X102389Y119407D01*
X102357Y119389D01*
X102321Y119381D01*
X102282Y119348D01*
X102237Y119324D01*
X102216Y119294D01*
X102188Y119271D01*
X102167Y119224D01*
X102137Y119182D01*
X102129Y119140D01*
X102117Y119112D01*
X102118Y119082D01*
X102110Y119040D01*
X102110Y116440D01*
X102121Y116390D01*
X102123Y116339D01*
X102141Y116307D01*
X102149Y116271D01*
X102182Y116232D01*
X102206Y116187D01*
X102236Y116166D01*
X102259Y116138D01*
X102306Y116117D01*
X102348Y116087D01*
X102390Y116079D01*
X102418Y116067D01*
X102448Y116068D01*
X102490Y116060D01*
X104810Y116060D01*
X104810Y104840D01*
X104821Y104790D01*
X104823Y104739D01*
X104841Y104707D01*
X104849Y104671D01*
X104882Y104632D01*
X104906Y104587D01*
X104936Y104566D01*
X104959Y104538D01*
X105006Y104517D01*
X105048Y104487D01*
X105090Y104479D01*
X105118Y104467D01*
X105148Y104468D01*
X105190Y104460D01*
X109090Y104460D01*
X109140Y104471D01*
G37*
G36*
X136140Y104471D02*
X136140Y104471D01*
X136191Y104473D01*
X136223Y104491D01*
X136259Y104499D01*
X136298Y104532D01*
X136343Y104556D01*
X136364Y104586D01*
X136392Y104609D01*
X136413Y104656D01*
X136443Y104698D01*
X136451Y104740D01*
X136463Y104768D01*
X136462Y104798D01*
X136470Y104840D01*
X136470Y118340D01*
X136467Y118353D01*
X136469Y118367D01*
X136448Y118437D01*
X136431Y118509D01*
X136422Y118519D01*
X136418Y118532D01*
X136367Y118586D01*
X136321Y118642D01*
X136308Y118648D01*
X136299Y118658D01*
X136165Y118713D01*
X135173Y118911D01*
X134782Y119009D01*
X134746Y119009D01*
X134690Y119020D01*
X134228Y119020D01*
X133773Y119111D01*
X133382Y119209D01*
X133374Y119209D01*
X133365Y119213D01*
X132873Y119311D01*
X132482Y119409D01*
X132472Y119409D01*
X132462Y119413D01*
X132386Y119410D01*
X132309Y119412D01*
X132300Y119407D01*
X132289Y119407D01*
X132222Y119370D01*
X132153Y119337D01*
X132146Y119329D01*
X132137Y119324D01*
X132093Y119261D01*
X132045Y119201D01*
X132043Y119191D01*
X132037Y119182D01*
X132010Y119040D01*
X132010Y117696D01*
X131906Y117851D01*
X131884Y117872D01*
X131859Y117909D01*
X131359Y118409D01*
X131332Y118425D01*
X131301Y118456D01*
X130101Y119256D01*
X130065Y119270D01*
X129994Y119306D01*
X128594Y119706D01*
X128556Y119708D01*
X128490Y119720D01*
X127090Y119720D01*
X127016Y119703D01*
X126941Y119690D01*
X126931Y119683D01*
X126921Y119681D01*
X126892Y119657D01*
X126821Y119609D01*
X126721Y119509D01*
X126681Y119444D01*
X126637Y119382D01*
X126635Y119370D01*
X126630Y119362D01*
X126626Y119325D01*
X126610Y119240D01*
X126610Y115640D01*
X126621Y115590D01*
X126623Y115539D01*
X126641Y115507D01*
X126649Y115471D01*
X126682Y115432D01*
X126706Y115387D01*
X126736Y115366D01*
X126759Y115338D01*
X126806Y115317D01*
X126848Y115287D01*
X126890Y115279D01*
X126918Y115267D01*
X126948Y115268D01*
X126990Y115260D01*
X127090Y115260D01*
X127105Y115263D01*
X127120Y115261D01*
X127252Y115298D01*
X127259Y115299D01*
X127259Y115300D01*
X127260Y115300D01*
X127380Y115360D01*
X128371Y115360D01*
X129325Y115264D01*
X130034Y115087D01*
X130548Y114745D01*
X131069Y114223D01*
X131627Y112923D01*
X131810Y112098D01*
X131810Y104840D01*
X131821Y104790D01*
X131823Y104739D01*
X131841Y104707D01*
X131849Y104671D01*
X131882Y104632D01*
X131906Y104587D01*
X131936Y104566D01*
X131959Y104538D01*
X132006Y104517D01*
X132048Y104487D01*
X132090Y104479D01*
X132118Y104467D01*
X132148Y104468D01*
X132190Y104460D01*
X136090Y104460D01*
X136140Y104471D01*
G37*
G36*
X156504Y77804D02*
X156504Y77804D01*
X156507Y77801D01*
X157207Y77901D01*
X157212Y77906D01*
X157216Y77903D01*
X157816Y78103D01*
X157819Y78108D01*
X157822Y78106D01*
X158422Y78406D01*
X158425Y78413D01*
X158431Y78412D01*
X158931Y78812D01*
X158932Y78812D01*
X159532Y79312D01*
X159533Y79319D01*
X159538Y79319D01*
X159938Y79819D01*
X159939Y79827D01*
X159944Y79828D01*
X160243Y80427D01*
X160274Y80408D01*
X160334Y80414D01*
X160332Y80429D01*
X160347Y80434D01*
X160747Y81634D01*
X160745Y81641D01*
X160749Y81643D01*
X160849Y82343D01*
X160846Y82348D01*
X160849Y82350D01*
X160849Y83050D01*
X160846Y83054D01*
X160849Y83057D01*
X160749Y83757D01*
X160744Y83762D01*
X160747Y83766D01*
X160547Y84366D01*
X160542Y84369D01*
X160544Y84372D01*
X159944Y85572D01*
X159937Y85575D01*
X159938Y85581D01*
X159538Y86081D01*
X159534Y86082D01*
X159535Y86085D01*
X159035Y86585D01*
X159028Y86586D01*
X159027Y86591D01*
X158427Y86991D01*
X158423Y86991D01*
X158422Y86994D01*
X157822Y87294D01*
X157817Y87293D01*
X157816Y87297D01*
X157216Y87497D01*
X157209Y87495D01*
X157207Y87499D01*
X156507Y87599D01*
X156502Y87596D01*
X156500Y87599D01*
X155400Y87599D01*
X155391Y87592D01*
X155384Y87597D01*
X154184Y87197D01*
X154181Y87192D01*
X154178Y87194D01*
X153578Y86894D01*
X153574Y86887D01*
X153568Y86888D01*
X152969Y86388D01*
X152469Y85988D01*
X152467Y85978D01*
X152459Y85977D01*
X152059Y85377D01*
X152059Y85373D01*
X152056Y85372D01*
X151456Y84172D01*
X151457Y84169D01*
X151455Y84167D01*
X151458Y84163D01*
X151458Y84162D01*
X151451Y84158D01*
X151351Y83558D01*
X151354Y83553D01*
X151351Y83550D01*
X151351Y82150D01*
X151354Y82146D01*
X151351Y82143D01*
X151451Y81443D01*
X151456Y81438D01*
X151453Y81434D01*
X151653Y80834D01*
X151658Y80831D01*
X151656Y80828D01*
X151956Y80228D01*
X151960Y80226D01*
X151959Y80223D01*
X152359Y79623D01*
X152362Y79622D01*
X152362Y79619D01*
X152762Y79119D01*
X152766Y79118D01*
X152765Y79115D01*
X153265Y78615D01*
X153277Y78614D01*
X153278Y78606D01*
X154478Y78006D01*
X154483Y78007D01*
X154484Y78003D01*
X155084Y77803D01*
X155095Y77807D01*
X155100Y77801D01*
X156500Y77801D01*
X156504Y77804D01*
G37*
G36*
X117009Y77808D02*
X117009Y77808D01*
X117016Y77803D01*
X117616Y78003D01*
X117621Y78011D01*
X117627Y78009D01*
X118227Y78409D01*
X118228Y78412D01*
X118231Y78412D01*
X118731Y78812D01*
X118733Y78819D01*
X118738Y78819D01*
X119138Y79319D01*
X119139Y79329D01*
X119145Y79331D01*
X119445Y80031D01*
X119445Y80034D01*
X119447Y80034D01*
X119647Y80634D01*
X119645Y80640D01*
X119649Y80642D01*
X119749Y81242D01*
X119748Y81243D01*
X119749Y81243D01*
X119849Y81943D01*
X119846Y81948D01*
X119849Y81950D01*
X119849Y83450D01*
X119846Y83454D01*
X119849Y83457D01*
X119749Y84157D01*
X119744Y84162D01*
X119747Y84166D01*
X119547Y84765D01*
X119347Y85464D01*
X119342Y85468D01*
X119344Y85472D01*
X119044Y86072D01*
X119041Y86073D01*
X119042Y86075D01*
X118742Y86575D01*
X118739Y86577D01*
X118739Y86580D01*
X118439Y86980D01*
X118424Y86984D01*
X118422Y86994D01*
X117222Y87594D01*
X117212Y87592D01*
X117208Y87599D01*
X116608Y87699D01*
X116603Y87696D01*
X116600Y87699D01*
X115800Y87699D01*
X115795Y87696D01*
X115792Y87699D01*
X115192Y87599D01*
X115188Y87594D01*
X115184Y87597D01*
X114584Y87397D01*
X114577Y87386D01*
X114568Y87388D01*
X113969Y86888D01*
X113469Y86488D01*
X113466Y86474D01*
X113456Y86472D01*
X112856Y85272D01*
X112858Y85261D01*
X112851Y85257D01*
X112756Y84588D01*
X112710Y84598D01*
X112709Y84597D01*
X112700Y84597D01*
X112686Y84587D01*
X112657Y84573D01*
X112659Y84567D01*
X112652Y84561D01*
X112654Y84559D01*
X112651Y84557D01*
X112551Y83857D01*
X112554Y83852D01*
X112551Y83850D01*
X112551Y83253D01*
X112451Y82456D01*
X112456Y82448D01*
X112451Y82443D01*
X112651Y81043D01*
X112655Y81039D01*
X112653Y81036D01*
X112853Y80336D01*
X112854Y80335D01*
X112853Y80334D01*
X113053Y79734D01*
X113060Y79730D01*
X113058Y79725D01*
X113358Y79225D01*
X113362Y79223D01*
X113362Y79219D01*
X113762Y78719D01*
X113769Y78717D01*
X113769Y78712D01*
X114269Y78312D01*
X114277Y78311D01*
X114278Y78306D01*
X114878Y78006D01*
X114883Y78007D01*
X114884Y78003D01*
X115484Y77803D01*
X115495Y77807D01*
X115500Y77801D01*
X117000Y77801D01*
X117009Y77808D01*
G37*
G36*
X98913Y77810D02*
X98913Y77810D01*
X98922Y77806D01*
X100122Y78406D01*
X100125Y78413D01*
X100131Y78412D01*
X100631Y78812D01*
X100632Y78816D01*
X100635Y78815D01*
X101135Y79315D01*
X101137Y79331D01*
X101147Y79334D01*
X101347Y79934D01*
X101346Y79936D01*
X101347Y79936D01*
X101352Y79954D01*
X101353Y79954D01*
X101352Y79954D01*
X101395Y80102D01*
X101409Y80151D01*
X101451Y80299D01*
X101493Y80447D01*
X101507Y80496D01*
X101547Y80636D01*
X101545Y80642D01*
X101547Y80644D01*
X101545Y80647D01*
X101549Y80650D01*
X101549Y81350D01*
X101543Y81358D01*
X101547Y81364D01*
X101347Y82064D01*
X101339Y82070D01*
X101341Y82077D01*
X100941Y82677D01*
X100934Y82680D01*
X100935Y82685D01*
X100565Y83055D01*
X100839Y83420D01*
X100839Y83429D01*
X100845Y83431D01*
X101145Y84131D01*
X101144Y84137D01*
X101148Y84141D01*
X101147Y84142D01*
X101149Y84143D01*
X101249Y84843D01*
X101244Y84852D01*
X101249Y84857D01*
X101149Y85557D01*
X101144Y85562D01*
X101147Y85566D01*
X100947Y86166D01*
X100936Y86173D01*
X100938Y86181D01*
X100538Y86681D01*
X100534Y86682D01*
X100535Y86685D01*
X100035Y87185D01*
X100023Y87186D01*
X100022Y87194D01*
X99422Y87494D01*
X99417Y87493D01*
X99416Y87497D01*
X98816Y87697D01*
X98809Y87695D01*
X98807Y87699D01*
X98107Y87799D01*
X98106Y87798D01*
X98105Y87799D01*
X98101Y87799D01*
X98100Y87799D01*
X97400Y87799D01*
X97399Y87799D01*
X97398Y87799D01*
X97390Y87793D01*
X97384Y87797D01*
X96784Y87597D01*
X96781Y87592D01*
X96778Y87594D01*
X96178Y87294D01*
X96174Y87287D01*
X96168Y87288D01*
X95568Y86788D01*
X95567Y86781D01*
X95562Y86781D01*
X95162Y86281D01*
X95161Y86268D01*
X95153Y86266D01*
X94953Y85666D01*
X94955Y85659D01*
X94951Y85657D01*
X94851Y84957D01*
X94854Y84952D01*
X94851Y84950D01*
X94851Y84250D01*
X94863Y84234D01*
X94859Y84223D01*
X95258Y83624D01*
X95541Y83153D01*
X95261Y82780D01*
X95261Y82775D01*
X95257Y82774D01*
X94857Y82074D01*
X94858Y82072D01*
X94856Y82072D01*
X94556Y81472D01*
X94558Y81462D01*
X94553Y81459D01*
X94556Y81454D01*
X94551Y81450D01*
X94551Y81050D01*
X94554Y81046D01*
X94551Y81043D01*
X94651Y80343D01*
X94656Y80338D01*
X94653Y80334D01*
X94853Y79734D01*
X94858Y79731D01*
X94856Y79728D01*
X95156Y79128D01*
X95166Y79123D01*
X95165Y79115D01*
X95665Y78615D01*
X95672Y78614D01*
X95673Y78609D01*
X96273Y78209D01*
X96277Y78209D01*
X96278Y78206D01*
X96878Y77906D01*
X96889Y77908D01*
X96892Y77901D01*
X97492Y77801D01*
X97497Y77804D01*
X97500Y77801D01*
X98900Y77801D01*
X98913Y77810D01*
G37*
G36*
X148208Y77807D02*
X148208Y77807D01*
X148214Y77803D01*
X148914Y78003D01*
X148931Y78025D01*
X148944Y78028D01*
X149144Y78428D01*
X149141Y78444D01*
X149149Y78450D01*
X149149Y86650D01*
X149141Y86661D01*
X149146Y86668D01*
X148946Y87168D01*
X148920Y87184D01*
X148916Y87197D01*
X148316Y87397D01*
X148305Y87393D01*
X148300Y87399D01*
X144800Y87399D01*
X144795Y87396D01*
X144792Y87399D01*
X144192Y87299D01*
X144185Y87291D01*
X144178Y87294D01*
X143578Y86994D01*
X143576Y86990D01*
X143573Y86991D01*
X142973Y86591D01*
X142970Y86584D01*
X142965Y86585D01*
X142465Y86085D01*
X142465Y86081D01*
X142462Y86081D01*
X142062Y85581D01*
X142061Y85573D01*
X142056Y85572D01*
X141656Y84772D01*
X141658Y84762D01*
X141653Y84758D01*
X141656Y84754D01*
X141651Y84750D01*
X141651Y84050D01*
X141654Y84046D01*
X141651Y84043D01*
X141751Y83343D01*
X141752Y83342D01*
X141751Y83342D01*
X141851Y82742D01*
X141858Y82736D01*
X141855Y82731D01*
X142155Y82031D01*
X142163Y82026D01*
X142162Y82019D01*
X142562Y81519D01*
X142569Y81517D01*
X142569Y81512D01*
X143069Y81112D01*
X143073Y81111D01*
X143073Y81109D01*
X143673Y80709D01*
X143689Y80710D01*
X143691Y80707D01*
X143703Y80707D01*
X143709Y80711D01*
X143732Y80713D01*
X143731Y80725D01*
X143743Y80726D01*
X143759Y80755D01*
X143767Y80714D01*
X143780Y80716D01*
X143784Y80703D01*
X144384Y80503D01*
X144390Y80505D01*
X144392Y80501D01*
X144992Y80401D01*
X144997Y80404D01*
X145000Y80401D01*
X146291Y80401D01*
X146751Y80217D01*
X146751Y78850D01*
X146754Y78845D01*
X146751Y78842D01*
X146851Y78242D01*
X146867Y78227D01*
X146865Y78215D01*
X147265Y77815D01*
X147292Y77812D01*
X147300Y77801D01*
X148200Y77801D01*
X148208Y77807D01*
G37*
G36*
X127108Y89237D02*
X127108Y89237D01*
X127114Y89233D01*
X127814Y89433D01*
X127820Y89442D01*
X127827Y89439D01*
X128427Y89839D01*
X128428Y89842D01*
X128431Y89842D01*
X128931Y90242D01*
X128932Y90246D01*
X128935Y90245D01*
X129335Y90645D01*
X129336Y90655D01*
X129343Y90656D01*
X129743Y91356D01*
X129739Y91384D01*
X129740Y91384D01*
X129739Y91386D01*
X129739Y91387D01*
X129746Y91398D01*
X129546Y91898D01*
X129536Y91904D01*
X129538Y91912D01*
X129038Y92512D01*
X129014Y92517D01*
X129008Y92529D01*
X128408Y92629D01*
X128404Y92626D01*
X128402Y92629D01*
X128399Y92629D01*
X128389Y92621D01*
X128382Y92626D01*
X127882Y92426D01*
X127876Y92416D01*
X127868Y92418D01*
X127270Y91919D01*
X126682Y91527D01*
X126008Y91431D01*
X125435Y91718D01*
X125152Y92190D01*
X125244Y92747D01*
X125815Y93032D01*
X126507Y93131D01*
X126512Y93136D01*
X126516Y93133D01*
X127116Y93333D01*
X127117Y93336D01*
X127119Y93335D01*
X127819Y93635D01*
X127821Y93637D01*
X127822Y93636D01*
X128422Y93936D01*
X128425Y93943D01*
X128431Y93942D01*
X128931Y94342D01*
X128933Y94349D01*
X128938Y94349D01*
X129338Y94849D01*
X129339Y94863D01*
X129347Y94866D01*
X129380Y94980D01*
X129394Y95029D01*
X129436Y95177D01*
X129478Y95324D01*
X129492Y95374D01*
X129534Y95521D01*
X129535Y95521D01*
X129534Y95521D01*
X129547Y95566D01*
X129546Y95570D01*
X129547Y95571D01*
X129544Y95575D01*
X129544Y95576D01*
X129549Y95580D01*
X129549Y96880D01*
X129540Y96893D01*
X129544Y96902D01*
X129244Y97502D01*
X129240Y97504D01*
X129241Y97507D01*
X128841Y98107D01*
X128831Y98111D01*
X128831Y98118D01*
X128331Y98518D01*
X128326Y98519D01*
X128325Y98522D01*
X127825Y98822D01*
X127816Y98821D01*
X127814Y98827D01*
X127114Y99027D01*
X127109Y99026D01*
X127107Y99029D01*
X126407Y99129D01*
X126398Y99124D01*
X126393Y99129D01*
X124993Y98929D01*
X124989Y98925D01*
X124986Y98927D01*
X124286Y98727D01*
X124276Y98713D01*
X124265Y98715D01*
X123365Y97815D01*
X123362Y97788D01*
X123351Y97780D01*
X123351Y97280D01*
X123362Y97266D01*
X123357Y97256D01*
X123757Y96556D01*
X123776Y96548D01*
X123778Y96536D01*
X124378Y96236D01*
X124394Y96239D01*
X124400Y96231D01*
X124900Y96231D01*
X124919Y96245D01*
X124932Y96242D01*
X125524Y96736D01*
X126105Y96930D01*
X126774Y96834D01*
X127148Y96366D01*
X127055Y95809D01*
X126480Y95426D01*
X125189Y95128D01*
X125188Y95126D01*
X125186Y95127D01*
X124486Y94927D01*
X124482Y94922D01*
X124478Y94924D01*
X123878Y94624D01*
X123875Y94617D01*
X123869Y94618D01*
X123369Y94218D01*
X123367Y94211D01*
X123362Y94211D01*
X122962Y93711D01*
X122961Y93698D01*
X122953Y93696D01*
X122753Y93096D01*
X122756Y93088D01*
X122753Y93086D01*
X122755Y93083D01*
X122751Y93080D01*
X122751Y91580D01*
X122760Y91567D01*
X122756Y91558D01*
X123356Y90358D01*
X123369Y90351D01*
X123369Y90342D01*
X123869Y89942D01*
X123877Y89941D01*
X123878Y89936D01*
X125078Y89336D01*
X125089Y89338D01*
X125093Y89331D01*
X125793Y89231D01*
X125798Y89234D01*
X125800Y89231D01*
X127100Y89231D01*
X127108Y89237D01*
G37*
%LPC*%
G36*
X32887Y109225D02*
X32887Y109225D01*
X32401Y109322D01*
X32122Y109509D01*
X31933Y109981D01*
X32028Y110552D01*
X32306Y110831D01*
X32787Y110927D01*
X35282Y110927D01*
X35288Y110931D01*
X35292Y110928D01*
X35792Y111028D01*
X35831Y111072D01*
X35829Y111074D01*
X35831Y111076D01*
X35831Y111576D01*
X35819Y111592D01*
X35823Y111603D01*
X35623Y111903D01*
X35590Y111915D01*
X35582Y111925D01*
X34086Y111925D01*
X33500Y112023D01*
X33220Y112210D01*
X33031Y112588D01*
X33031Y113256D01*
X33306Y113531D01*
X33787Y113627D01*
X35782Y113627D01*
X35829Y113663D01*
X35825Y113668D01*
X35829Y113671D01*
X35828Y113673D01*
X35831Y113676D01*
X35831Y114676D01*
X35795Y114723D01*
X35788Y114718D01*
X35782Y114725D01*
X32212Y114725D01*
X32029Y115091D01*
X31933Y115671D01*
X32121Y116140D01*
X32494Y116327D01*
X37062Y116327D01*
X37337Y116052D01*
X37433Y115571D01*
X37433Y109976D01*
X37469Y109929D01*
X37475Y109933D01*
X37479Y109927D01*
X38979Y109827D01*
X39028Y109860D01*
X39026Y109864D01*
X39030Y109866D01*
X39126Y110346D01*
X39400Y110529D01*
X39986Y110627D01*
X42382Y110627D01*
X42429Y110663D01*
X42427Y110665D01*
X42429Y110667D01*
X42426Y110672D01*
X42431Y110676D01*
X42431Y115770D01*
X42524Y116140D01*
X42991Y116327D01*
X43582Y116327D01*
X43612Y116349D01*
X43624Y116351D01*
X43642Y116380D01*
X43648Y116340D01*
X43654Y116341D01*
X43655Y116335D01*
X43938Y116146D01*
X44033Y115671D01*
X44033Y109596D01*
X43758Y109322D01*
X43178Y109225D01*
X39594Y109225D01*
X39219Y109413D01*
X39026Y109798D01*
X38992Y109815D01*
X38985Y109825D01*
X37485Y109925D01*
X37436Y109892D01*
X37438Y109889D01*
X37434Y109888D01*
X37339Y109506D01*
X37064Y109323D01*
X36478Y109225D01*
X32887Y109225D01*
G37*
%LPD*%
G36*
X123305Y77804D02*
X123305Y77804D01*
X123308Y77801D01*
X123908Y77901D01*
X123929Y77923D01*
X123942Y77925D01*
X124242Y78425D01*
X124242Y78428D01*
X124241Y78439D01*
X124249Y78443D01*
X124349Y79143D01*
X124346Y79148D01*
X124349Y79150D01*
X124349Y80501D01*
X127600Y80501D01*
X127604Y80504D01*
X127606Y80501D01*
X128406Y80601D01*
X128419Y80614D01*
X128430Y80611D01*
X128830Y80911D01*
X128835Y80930D01*
X128848Y80939D01*
X128846Y80942D01*
X128849Y80943D01*
X128949Y81643D01*
X128946Y81648D01*
X128949Y81650D01*
X128949Y82250D01*
X128944Y82257D01*
X128948Y82262D01*
X127948Y86262D01*
X127946Y86264D01*
X127947Y86266D01*
X127747Y86866D01*
X127736Y86873D01*
X127738Y86881D01*
X127338Y87381D01*
X127308Y87388D01*
X127300Y87399D01*
X126600Y87399D01*
X126592Y87393D01*
X126586Y87397D01*
X125886Y87197D01*
X125874Y87180D01*
X125862Y87181D01*
X125462Y86681D01*
X125461Y86652D01*
X125451Y86642D01*
X125551Y86042D01*
X125553Y86041D01*
X125552Y86040D01*
X126241Y82789D01*
X125795Y82699D01*
X124442Y82699D01*
X124349Y83254D01*
X124349Y86650D01*
X124342Y86659D01*
X124347Y86666D01*
X124147Y87266D01*
X124112Y87289D01*
X124107Y87299D01*
X123407Y87399D01*
X123402Y87396D01*
X123400Y87399D01*
X122700Y87399D01*
X122687Y87390D01*
X122678Y87394D01*
X122078Y87094D01*
X122063Y87063D01*
X122051Y87057D01*
X121951Y86357D01*
X121954Y86352D01*
X121951Y86350D01*
X121951Y78950D01*
X121954Y78946D01*
X121951Y78943D01*
X122051Y78243D01*
X122067Y78228D01*
X122065Y78215D01*
X122465Y77815D01*
X122492Y77812D01*
X122500Y77801D01*
X123300Y77801D01*
X123305Y77804D01*
G37*
G36*
X105005Y77804D02*
X105005Y77804D01*
X105008Y77801D01*
X105608Y77901D01*
X105629Y77923D01*
X105642Y77925D01*
X105942Y78425D01*
X105942Y78428D01*
X105941Y78439D01*
X105949Y78443D01*
X106049Y79143D01*
X106046Y79148D01*
X106049Y79150D01*
X106049Y80501D01*
X109300Y80501D01*
X109304Y80504D01*
X109306Y80501D01*
X110106Y80601D01*
X110119Y80614D01*
X110130Y80611D01*
X110530Y80911D01*
X110535Y80930D01*
X110548Y80939D01*
X110546Y80942D01*
X110549Y80943D01*
X110649Y81643D01*
X110646Y81648D01*
X110649Y81650D01*
X110649Y82250D01*
X110644Y82257D01*
X110648Y82262D01*
X109648Y86262D01*
X109646Y86264D01*
X109647Y86266D01*
X109447Y86866D01*
X109436Y86873D01*
X109438Y86881D01*
X109038Y87381D01*
X109008Y87388D01*
X109000Y87399D01*
X108300Y87399D01*
X108292Y87393D01*
X108286Y87397D01*
X107586Y87197D01*
X107574Y87180D01*
X107562Y87181D01*
X107162Y86681D01*
X107161Y86652D01*
X107151Y86642D01*
X107251Y86042D01*
X107253Y86040D01*
X107252Y86038D01*
X108040Y82790D01*
X107496Y82699D01*
X106142Y82699D01*
X106049Y83254D01*
X106049Y86650D01*
X106042Y86659D01*
X106047Y86666D01*
X105847Y87266D01*
X105812Y87289D01*
X105807Y87299D01*
X105107Y87399D01*
X105102Y87396D01*
X105100Y87399D01*
X104400Y87399D01*
X104387Y87390D01*
X104378Y87394D01*
X103778Y87094D01*
X103763Y87063D01*
X103751Y87057D01*
X103651Y86357D01*
X103654Y86352D01*
X103651Y86350D01*
X103651Y78950D01*
X103654Y78946D01*
X103651Y78943D01*
X103751Y78243D01*
X103770Y78225D01*
X103769Y78212D01*
X104269Y77812D01*
X104292Y77811D01*
X104300Y77801D01*
X105000Y77801D01*
X105005Y77804D01*
G37*
G36*
X170209Y89238D02*
X170209Y89238D01*
X170216Y89233D01*
X171416Y89633D01*
X171417Y89636D01*
X171419Y89635D01*
X172119Y89935D01*
X172124Y89943D01*
X172131Y89942D01*
X172631Y90342D01*
X172632Y90346D01*
X172635Y90345D01*
X173135Y90845D01*
X173135Y90849D01*
X173138Y90849D01*
X173938Y91849D01*
X173939Y91863D01*
X173947Y91866D01*
X173978Y91975D01*
X173979Y91975D01*
X173978Y91975D01*
X174021Y92123D01*
X174035Y92172D01*
X174077Y92320D01*
X174119Y92468D01*
X174133Y92517D01*
X174147Y92565D01*
X174347Y93164D01*
X174345Y93171D01*
X174349Y93173D01*
X174449Y93873D01*
X174446Y93878D01*
X174449Y93880D01*
X174449Y94580D01*
X174446Y94584D01*
X174449Y94587D01*
X174349Y95287D01*
X174344Y95292D01*
X174347Y95296D01*
X174147Y95896D01*
X174142Y95899D01*
X174144Y95902D01*
X173844Y96502D01*
X173840Y96504D01*
X173841Y96507D01*
X173441Y97107D01*
X173438Y97108D01*
X173438Y97111D01*
X173038Y97611D01*
X173031Y97613D01*
X173031Y97618D01*
X172531Y98018D01*
X172527Y98019D01*
X172527Y98021D01*
X171927Y98421D01*
X171923Y98421D01*
X171922Y98424D01*
X171322Y98724D01*
X171315Y98723D01*
X171314Y98727D01*
X170614Y98927D01*
X170610Y98926D01*
X170608Y98929D01*
X170008Y99029D01*
X170003Y99026D01*
X170000Y99029D01*
X169300Y99029D01*
X169295Y99026D01*
X169292Y99029D01*
X168692Y98929D01*
X167993Y98829D01*
X167986Y98822D01*
X167981Y98825D01*
X167281Y98525D01*
X167278Y98521D01*
X167275Y98522D01*
X166775Y98222D01*
X166771Y98214D01*
X166765Y98215D01*
X166265Y97715D01*
X166262Y97694D01*
X166251Y97688D01*
X166151Y97088D01*
X166163Y97065D01*
X166159Y97053D01*
X166559Y96453D01*
X166569Y96449D01*
X166568Y96442D01*
X167168Y95942D01*
X167192Y95941D01*
X167200Y95931D01*
X167600Y95931D01*
X167616Y95943D01*
X167627Y95939D01*
X168222Y96335D01*
X168811Y96532D01*
X169599Y96630D01*
X170185Y96533D01*
X170778Y96236D01*
X171366Y95942D01*
X171755Y95358D01*
X171952Y94769D01*
X172050Y94080D01*
X171952Y93391D01*
X171757Y92807D01*
X171267Y92317D01*
X170774Y91923D01*
X170090Y91629D01*
X168812Y91629D01*
X168223Y91924D01*
X167524Y92323D01*
X167499Y92319D01*
X167488Y92328D01*
X167088Y92228D01*
X167076Y92213D01*
X167065Y92215D01*
X166565Y91715D01*
X166563Y91702D01*
X166555Y91699D01*
X166255Y90999D01*
X166259Y90980D01*
X166251Y90972D01*
X166351Y90372D01*
X166372Y90353D01*
X166373Y90339D01*
X166971Y89940D01*
X167370Y89641D01*
X167384Y89641D01*
X167388Y89632D01*
X168188Y89432D01*
X168886Y89233D01*
X168896Y89236D01*
X168900Y89231D01*
X170200Y89231D01*
X170209Y89238D01*
G37*
G36*
X92004Y89234D02*
X92004Y89234D01*
X92007Y89231D01*
X92707Y89331D01*
X92712Y89336D01*
X92716Y89333D01*
X93316Y89533D01*
X93321Y89541D01*
X93327Y89539D01*
X93927Y89939D01*
X93928Y89942D01*
X93931Y89942D01*
X94431Y90342D01*
X94433Y90352D01*
X94441Y90353D01*
X94841Y90953D01*
X94841Y90957D01*
X94844Y90958D01*
X95144Y91558D01*
X95143Y91565D01*
X95147Y91566D01*
X95166Y91631D01*
X95180Y91680D01*
X95222Y91828D01*
X95264Y91975D01*
X95278Y92025D01*
X95320Y92172D01*
X95321Y92172D01*
X95320Y92172D01*
X95347Y92266D01*
X95346Y92270D01*
X95347Y92271D01*
X95344Y92276D01*
X95349Y92280D01*
X95349Y94380D01*
X95332Y94403D01*
X95333Y94417D01*
X94334Y95316D01*
X93835Y95815D01*
X93823Y95816D01*
X93822Y95824D01*
X93222Y96124D01*
X93217Y96123D01*
X93216Y96127D01*
X92616Y96327D01*
X92609Y96325D01*
X92607Y96329D01*
X91907Y96429D01*
X91898Y96424D01*
X91893Y96429D01*
X90493Y96229D01*
X90485Y96221D01*
X90478Y96224D01*
X89878Y95924D01*
X89875Y95917D01*
X89869Y95918D01*
X89369Y95518D01*
X89368Y95514D01*
X89365Y95515D01*
X88865Y95015D01*
X88864Y95003D01*
X88856Y95002D01*
X88256Y93802D01*
X88258Y93791D01*
X88251Y93787D01*
X88151Y93087D01*
X88154Y93082D01*
X88151Y93080D01*
X88151Y92380D01*
X88157Y92372D01*
X88153Y92366D01*
X88353Y91666D01*
X88354Y91665D01*
X88353Y91664D01*
X88553Y91064D01*
X88561Y91059D01*
X88559Y91053D01*
X88959Y90453D01*
X88969Y90449D01*
X88969Y90442D01*
X89469Y90042D01*
X89473Y90041D01*
X89473Y90039D01*
X90073Y89639D01*
X90077Y89639D01*
X90078Y89636D01*
X90678Y89336D01*
X90689Y89338D01*
X90693Y89331D01*
X91393Y89231D01*
X91398Y89234D01*
X91400Y89231D01*
X92000Y89231D01*
X92004Y89234D01*
G37*
G36*
X146104Y89234D02*
X146104Y89234D01*
X146107Y89231D01*
X146807Y89331D01*
X146812Y89336D01*
X146816Y89333D01*
X147416Y89533D01*
X147445Y89576D01*
X147458Y89555D01*
X147513Y89533D01*
X147518Y89545D01*
X147531Y89542D01*
X148531Y90342D01*
X148533Y90352D01*
X148541Y90353D01*
X148941Y90953D01*
X148941Y90957D01*
X148944Y90958D01*
X149244Y91558D01*
X149243Y91565D01*
X149247Y91566D01*
X149266Y91631D01*
X149280Y91680D01*
X149322Y91828D01*
X149364Y91975D01*
X149378Y92025D01*
X149420Y92172D01*
X149421Y92172D01*
X149420Y92172D01*
X149447Y92266D01*
X149446Y92269D01*
X149448Y92271D01*
X149449Y92272D01*
X149549Y92872D01*
X149546Y92877D01*
X149549Y92880D01*
X149549Y94380D01*
X149531Y94405D01*
X149531Y94418D01*
X148433Y95317D01*
X147935Y95815D01*
X147923Y95816D01*
X147922Y95824D01*
X147322Y96124D01*
X147317Y96123D01*
X147316Y96127D01*
X146716Y96327D01*
X146709Y96325D01*
X146707Y96329D01*
X146007Y96429D01*
X145998Y96424D01*
X145993Y96429D01*
X145293Y96329D01*
X145292Y96328D01*
X145292Y96329D01*
X144692Y96229D01*
X144685Y96221D01*
X144678Y96224D01*
X144078Y95924D01*
X144076Y95920D01*
X144073Y95921D01*
X143473Y95521D01*
X143470Y95514D01*
X143465Y95515D01*
X142965Y95015D01*
X142964Y95003D01*
X142956Y95002D01*
X142656Y94402D01*
X142657Y94397D01*
X142653Y94396D01*
X142453Y93796D01*
X142454Y93794D01*
X142453Y93794D01*
X142433Y93726D01*
X142419Y93677D01*
X142377Y93529D01*
X142335Y93381D01*
X142321Y93332D01*
X142279Y93184D01*
X142253Y93094D01*
X142255Y93087D01*
X142254Y93086D01*
X142258Y93080D01*
X142251Y93073D01*
X142451Y91673D01*
X142459Y91665D01*
X142456Y91658D01*
X142756Y91058D01*
X142760Y91056D01*
X142759Y91053D01*
X143159Y90453D01*
X143166Y90450D01*
X143165Y90445D01*
X143565Y90045D01*
X143572Y90044D01*
X143573Y90039D01*
X144173Y89639D01*
X144177Y89639D01*
X144178Y89636D01*
X144778Y89336D01*
X144789Y89338D01*
X144793Y89331D01*
X145493Y89231D01*
X145498Y89234D01*
X145500Y89231D01*
X146100Y89231D01*
X146104Y89234D01*
G37*
G36*
X160804Y89234D02*
X160804Y89234D01*
X160807Y89231D01*
X161507Y89331D01*
X161512Y89336D01*
X161516Y89333D01*
X162116Y89533D01*
X162145Y89576D01*
X162158Y89555D01*
X162213Y89533D01*
X162218Y89545D01*
X162231Y89542D01*
X163231Y90342D01*
X163233Y90352D01*
X163241Y90353D01*
X163641Y90953D01*
X163641Y90957D01*
X163644Y90958D01*
X163944Y91558D01*
X163943Y91565D01*
X163947Y91566D01*
X163966Y91631D01*
X163980Y91680D01*
X164022Y91828D01*
X164064Y91975D01*
X164078Y92025D01*
X164120Y92172D01*
X164121Y92172D01*
X164120Y92172D01*
X164147Y92266D01*
X164146Y92269D01*
X164148Y92271D01*
X164149Y92272D01*
X164249Y92872D01*
X164246Y92877D01*
X164249Y92880D01*
X164249Y94380D01*
X164231Y94405D01*
X164231Y94418D01*
X163133Y95317D01*
X162635Y95815D01*
X162623Y95816D01*
X162622Y95824D01*
X162022Y96124D01*
X162017Y96123D01*
X162016Y96127D01*
X161416Y96327D01*
X161409Y96325D01*
X161407Y96329D01*
X160707Y96429D01*
X160698Y96424D01*
X160693Y96429D01*
X159993Y96329D01*
X159992Y96328D01*
X159992Y96329D01*
X159392Y96229D01*
X159385Y96221D01*
X159378Y96224D01*
X158778Y95924D01*
X158776Y95920D01*
X158773Y95921D01*
X158173Y95521D01*
X158170Y95514D01*
X158165Y95515D01*
X157665Y95015D01*
X157664Y95003D01*
X157656Y95002D01*
X157356Y94402D01*
X157357Y94397D01*
X157353Y94396D01*
X157153Y93796D01*
X157154Y93794D01*
X157153Y93794D01*
X157133Y93726D01*
X157119Y93677D01*
X157077Y93529D01*
X157035Y93381D01*
X157021Y93332D01*
X156979Y93184D01*
X156953Y93094D01*
X156955Y93087D01*
X156954Y93086D01*
X156958Y93080D01*
X156951Y93073D01*
X157151Y91673D01*
X157159Y91665D01*
X157156Y91658D01*
X157456Y91058D01*
X157460Y91056D01*
X157459Y91053D01*
X157859Y90453D01*
X157866Y90450D01*
X157865Y90445D01*
X158265Y90045D01*
X158272Y90044D01*
X158273Y90039D01*
X158873Y89639D01*
X158877Y89639D01*
X158878Y89636D01*
X159478Y89336D01*
X159489Y89338D01*
X159493Y89331D01*
X160193Y89231D01*
X160198Y89234D01*
X160200Y89231D01*
X160800Y89231D01*
X160804Y89234D01*
G37*
%LPC*%
G36*
X159088Y107912D02*
X159088Y107912D01*
X158472Y108176D01*
X157964Y108514D01*
X157243Y109596D01*
X157064Y110310D01*
X156968Y111083D01*
X156873Y111937D01*
X157062Y113448D01*
X157343Y114198D01*
X157618Y114839D01*
X158047Y115354D01*
X158572Y115704D01*
X159190Y115969D01*
X159893Y116057D01*
X160692Y115968D01*
X161308Y115704D01*
X161833Y115354D01*
X162262Y114839D01*
X162528Y114218D01*
X162910Y112693D01*
X162910Y111087D01*
X162537Y109596D01*
X161816Y108514D01*
X161308Y108176D01*
X160692Y107912D01*
X159890Y107823D01*
X159088Y107912D01*
G37*
%LPD*%
%LPC*%
G36*
X76679Y24347D02*
X76679Y24347D01*
X76188Y24544D01*
X75694Y24741D01*
X75300Y25037D01*
X74905Y25333D01*
X74609Y25728D01*
X74313Y26122D01*
X74117Y26612D01*
X74018Y27108D01*
X73919Y27603D01*
X73919Y29986D01*
X74103Y30354D01*
X74575Y30449D01*
X80165Y30449D01*
X80646Y30353D01*
X80924Y30074D01*
X81021Y29495D01*
X80921Y27500D01*
X80922Y27499D01*
X80921Y27498D01*
X80921Y27007D01*
X80725Y26518D01*
X80528Y26124D01*
X80231Y25728D01*
X79933Y25330D01*
X79542Y24940D01*
X79052Y24744D01*
X79050Y24741D01*
X79048Y24742D01*
X78650Y24543D01*
X78161Y24347D01*
X76679Y24347D01*
G37*
%LPD*%
G36*
X117705Y89234D02*
X117705Y89234D01*
X117708Y89231D01*
X118308Y89331D01*
X118312Y89336D01*
X118316Y89333D01*
X118916Y89533D01*
X118921Y89541D01*
X118927Y89539D01*
X119527Y89939D01*
X119530Y89946D01*
X119535Y89945D01*
X120035Y90445D01*
X120036Y90457D01*
X120044Y90458D01*
X120644Y91658D01*
X120642Y91669D01*
X120649Y91673D01*
X120749Y92373D01*
X120746Y92378D01*
X120749Y92380D01*
X120749Y93080D01*
X120746Y93084D01*
X120749Y93087D01*
X120649Y93787D01*
X120644Y93792D01*
X120647Y93796D01*
X120447Y94396D01*
X120442Y94399D01*
X120444Y94402D01*
X120144Y95002D01*
X120131Y95009D01*
X120131Y95018D01*
X119131Y95818D01*
X119123Y95819D01*
X119122Y95824D01*
X118522Y96124D01*
X118517Y96123D01*
X118516Y96127D01*
X117916Y96327D01*
X117909Y96324D01*
X117906Y96329D01*
X117106Y96429D01*
X117098Y96424D01*
X117093Y96429D01*
X115693Y96229D01*
X115683Y96219D01*
X115675Y96222D01*
X115175Y95922D01*
X115171Y95914D01*
X115165Y95915D01*
X114665Y95415D01*
X114665Y95411D01*
X114662Y95411D01*
X114262Y94911D01*
X114261Y94903D01*
X114256Y94902D01*
X113956Y94302D01*
X113959Y94286D01*
X113951Y94280D01*
X113951Y92780D01*
X113970Y92755D01*
X113969Y92742D01*
X114469Y92342D01*
X114477Y92341D01*
X114478Y92336D01*
X115078Y92036D01*
X115089Y92038D01*
X115095Y92038D01*
X115100Y92031D01*
X117791Y92031D01*
X118212Y91862D01*
X117773Y91423D01*
X117192Y91229D01*
X116408Y91229D01*
X115216Y91627D01*
X115187Y91617D01*
X115175Y91622D01*
X114675Y91322D01*
X114668Y91306D01*
X114657Y91304D01*
X114257Y90604D01*
X114260Y90580D01*
X114252Y90570D01*
X114352Y90070D01*
X114362Y90061D01*
X114359Y90053D01*
X114559Y89753D01*
X114574Y89748D01*
X114575Y89738D01*
X115075Y89438D01*
X115085Y89439D01*
X115088Y89432D01*
X115888Y89232D01*
X115896Y89236D01*
X115900Y89231D01*
X117700Y89231D01*
X117705Y89234D01*
G37*
%LPC*%
G36*
X27384Y109325D02*
X27384Y109325D01*
X27383Y109324D01*
X27382Y109325D01*
X26894Y109325D01*
X26504Y109520D01*
X26501Y109519D01*
X26500Y109522D01*
X26006Y109719D01*
X25612Y110015D01*
X25217Y110311D01*
X24923Y110704D01*
X24625Y111199D01*
X24429Y111592D01*
X24231Y112581D01*
X24231Y113071D01*
X24330Y113566D01*
X24429Y114062D01*
X24625Y114552D01*
X24921Y114946D01*
X25217Y115341D01*
X25610Y115635D01*
X26105Y115933D01*
X26498Y116129D01*
X27487Y116327D01*
X29870Y116327D01*
X30238Y116143D01*
X30333Y115671D01*
X30333Y110081D01*
X30236Y109595D01*
X30053Y109321D01*
X29479Y109225D01*
X27384Y109325D01*
G37*
%LPD*%
%LPC*%
G36*
X154918Y25037D02*
X154918Y25037D01*
X154644Y25220D01*
X154549Y25695D01*
X154549Y28290D01*
X154513Y28337D01*
X154506Y28332D01*
X154500Y28339D01*
X149605Y28339D01*
X149124Y28435D01*
X148849Y28710D01*
X148849Y29378D01*
X149038Y29756D01*
X149315Y29941D01*
X154900Y29941D01*
X154947Y29977D01*
X154940Y29987D01*
X154949Y29996D01*
X154749Y31696D01*
X154724Y31721D01*
X154722Y31734D01*
X154327Y31932D01*
X153842Y32319D01*
X153752Y32588D01*
X153944Y33067D01*
X154141Y33363D01*
X154140Y33376D01*
X154148Y33380D01*
X154248Y33880D01*
X154247Y33884D01*
X154247Y33885D01*
X154246Y33887D01*
X154249Y33890D01*
X154249Y34390D01*
X154245Y34396D01*
X154248Y34400D01*
X154148Y34900D01*
X154141Y34906D01*
X154144Y34912D01*
X153944Y35312D01*
X153934Y35317D01*
X153935Y35325D01*
X153535Y35725D01*
X153530Y35726D01*
X153530Y35729D01*
X153130Y36029D01*
X153114Y36029D01*
X153110Y36038D01*
X152610Y36138D01*
X152603Y36135D01*
X152600Y36139D01*
X152100Y36139D01*
X152094Y36135D01*
X152090Y36138D01*
X151590Y36038D01*
X151586Y36033D01*
X151582Y36036D01*
X151082Y35836D01*
X151072Y35820D01*
X151061Y35820D01*
X150761Y35420D01*
X150761Y35416D01*
X150758Y35415D01*
X150458Y34915D01*
X150459Y34905D01*
X150452Y34902D01*
X150352Y34502D01*
X150356Y34494D01*
X150351Y34490D01*
X150351Y33890D01*
X150355Y33884D01*
X150352Y33880D01*
X150452Y33380D01*
X150463Y33370D01*
X150461Y33360D01*
X150755Y32968D01*
X150848Y32596D01*
X150659Y32219D01*
X150276Y31835D01*
X149812Y31743D01*
X149435Y32025D01*
X149142Y32416D01*
X148945Y32810D01*
X148749Y33299D01*
X148749Y33790D01*
X148745Y33796D01*
X148748Y33800D01*
X148650Y34290D01*
X148748Y34780D01*
X148847Y35276D01*
X149043Y35766D01*
X149339Y36160D01*
X149339Y36164D01*
X149342Y36165D01*
X149639Y36660D01*
X149932Y36953D01*
X150324Y37247D01*
X150818Y37444D01*
X151314Y37643D01*
X151805Y37741D01*
X152795Y37741D01*
X153286Y37643D01*
X153780Y37445D01*
X154174Y37248D01*
X154568Y36953D01*
X154963Y36558D01*
X155261Y36160D01*
X155557Y35766D01*
X155753Y35276D01*
X155851Y34785D01*
X155851Y33299D01*
X155655Y32810D01*
X155458Y32416D01*
X155165Y32025D01*
X154770Y31729D01*
X154763Y31702D01*
X154754Y31695D01*
X154757Y31690D01*
X154751Y31684D01*
X154951Y29984D01*
X154992Y29941D01*
X154997Y29945D01*
X155000Y29941D01*
X155485Y29941D01*
X155760Y29758D01*
X155951Y29281D01*
X155951Y25695D01*
X155855Y25218D01*
X155487Y24942D01*
X154918Y25037D01*
G37*
%LPD*%
%LPC*%
G36*
X126510Y33654D02*
X126510Y33654D01*
X126010Y33754D01*
X125521Y33852D01*
X125130Y34145D01*
X124732Y34443D01*
X124337Y34838D01*
X124039Y35236D01*
X123743Y35630D01*
X123547Y36120D01*
X123449Y36611D01*
X123449Y38603D01*
X123546Y39478D01*
X123815Y39657D01*
X129894Y39657D01*
X130266Y39564D01*
X130453Y39191D01*
X130551Y38602D01*
X130551Y37111D01*
X130452Y36616D01*
X130353Y36120D01*
X130155Y35626D01*
X129958Y35232D01*
X129663Y34838D01*
X129268Y34443D01*
X128874Y34148D01*
X128478Y33950D01*
X128466Y33926D01*
X128457Y33907D01*
X128442Y33931D01*
X128387Y33954D01*
X128385Y33947D01*
X128378Y33950D01*
X127984Y33753D01*
X127490Y33654D01*
X127000Y33556D01*
X126510Y33654D01*
G37*
%LPD*%
G36*
X136018Y77815D02*
X136018Y77815D01*
X136031Y77812D01*
X136531Y78212D01*
X136535Y78227D01*
X136540Y78231D01*
X136537Y78235D01*
X136537Y78236D01*
X136549Y78242D01*
X136649Y78842D01*
X136646Y78847D01*
X136649Y78850D01*
X136649Y85038D01*
X136830Y85401D01*
X138900Y85401D01*
X138904Y85404D01*
X138907Y85401D01*
X139607Y85501D01*
X139622Y85517D01*
X139635Y85515D01*
X140035Y85915D01*
X140039Y85942D01*
X140049Y85950D01*
X140049Y86650D01*
X140042Y86659D01*
X140047Y86666D01*
X139847Y87266D01*
X139812Y87289D01*
X139807Y87299D01*
X139107Y87399D01*
X139102Y87396D01*
X139100Y87399D01*
X131600Y87399D01*
X131587Y87390D01*
X131578Y87394D01*
X130978Y87094D01*
X130960Y87057D01*
X130951Y87050D01*
X130951Y86350D01*
X130954Y86345D01*
X130951Y86342D01*
X131051Y85742D01*
X131073Y85721D01*
X131075Y85708D01*
X131575Y85408D01*
X131593Y85410D01*
X131600Y85401D01*
X133696Y85401D01*
X134251Y85308D01*
X134251Y79250D01*
X134254Y79246D01*
X134251Y79243D01*
X134351Y78543D01*
X134359Y78535D01*
X134356Y78528D01*
X134656Y77928D01*
X134686Y77913D01*
X134692Y77901D01*
X135292Y77801D01*
X135297Y77804D01*
X135300Y77801D01*
X136000Y77801D01*
X136018Y77815D01*
G37*
G36*
X106308Y89237D02*
X106308Y89237D01*
X106314Y89233D01*
X107014Y89433D01*
X107033Y89458D01*
X107046Y89462D01*
X107246Y89962D01*
X107242Y89975D01*
X107249Y89980D01*
X107249Y92673D01*
X107261Y92714D01*
X107303Y92862D01*
X107317Y92911D01*
X107359Y93059D01*
X107360Y93059D01*
X107359Y93059D01*
X107402Y93207D01*
X107416Y93256D01*
X107443Y93351D01*
X107917Y93731D01*
X108586Y93731D01*
X109065Y93443D01*
X109451Y92865D01*
X109451Y90180D01*
X109454Y90175D01*
X109451Y90172D01*
X109551Y89572D01*
X109573Y89551D01*
X109575Y89538D01*
X110075Y89238D01*
X110093Y89240D01*
X110100Y89231D01*
X111000Y89231D01*
X111011Y89239D01*
X111018Y89234D01*
X111518Y89434D01*
X111533Y89458D01*
X111536Y89461D01*
X111547Y89464D01*
X111747Y90064D01*
X111743Y90075D01*
X111749Y90080D01*
X111749Y95580D01*
X111736Y95598D01*
X111739Y95610D01*
X111439Y96010D01*
X111413Y96017D01*
X111406Y96029D01*
X110606Y96129D01*
X110601Y96126D01*
X110597Y96126D01*
X110594Y96129D01*
X109794Y96029D01*
X109771Y96007D01*
X109758Y96005D01*
X109478Y95539D01*
X109222Y95625D01*
X108627Y96021D01*
X108612Y96020D01*
X108607Y96029D01*
X107907Y96129D01*
X107902Y96126D01*
X107895Y96126D01*
X107892Y96129D01*
X107292Y96029D01*
X107289Y96025D01*
X107286Y96027D01*
X106586Y95827D01*
X106578Y95816D01*
X106569Y95818D01*
X106069Y95418D01*
X106068Y95414D01*
X106065Y95415D01*
X105565Y94915D01*
X105565Y94911D01*
X105562Y94911D01*
X105162Y94411D01*
X105161Y94397D01*
X105153Y94394D01*
X105145Y94366D01*
X105131Y94317D01*
X105089Y94169D01*
X105046Y94021D01*
X105032Y93972D01*
X104990Y93824D01*
X104953Y93694D01*
X104954Y93690D01*
X104951Y93688D01*
X104851Y93088D01*
X104853Y93086D01*
X104853Y93085D01*
X104854Y93083D01*
X104851Y93080D01*
X104851Y90280D01*
X104854Y90275D01*
X104851Y90272D01*
X104951Y89672D01*
X104967Y89657D01*
X104965Y89645D01*
X105365Y89245D01*
X105392Y89242D01*
X105400Y89231D01*
X106300Y89231D01*
X106308Y89237D01*
G37*
%LPC*%
G36*
X40744Y44046D02*
X40744Y44046D01*
X40353Y44144D01*
X39865Y44437D01*
X39571Y44730D01*
X39276Y45124D01*
X39079Y45518D01*
X38881Y46012D01*
X38783Y46503D01*
X38783Y46998D01*
X38780Y47003D01*
X38783Y47006D01*
X38683Y47602D01*
X38683Y48093D01*
X38782Y48588D01*
X38881Y49084D01*
X39080Y49580D01*
X39279Y50078D01*
X39473Y50466D01*
X39864Y50759D01*
X40258Y51055D01*
X40748Y51251D01*
X41234Y51348D01*
X41724Y51250D01*
X42220Y51151D01*
X42711Y50954D01*
X43007Y50757D01*
X43066Y50761D01*
X43066Y50769D01*
X43074Y50769D01*
X43095Y50798D01*
X43095Y50787D01*
X43090Y50776D01*
X43290Y50376D01*
X43296Y50373D01*
X43295Y50368D01*
X43591Y49974D01*
X43787Y49484D01*
X43886Y48988D01*
X44085Y47993D01*
X44085Y47403D01*
X43986Y46908D01*
X43989Y46901D01*
X43985Y46898D01*
X43985Y46403D01*
X43887Y45914D01*
X43691Y45521D01*
X43392Y45023D01*
X43392Y45020D01*
X43390Y45020D01*
X43195Y44630D01*
X42810Y44341D01*
X42320Y44145D01*
X41824Y44046D01*
X41333Y43948D01*
X40744Y44046D01*
G37*
%LPD*%
%LPC*%
G36*
X42522Y87480D02*
X42522Y87480D01*
X42028Y87579D01*
X41638Y87774D01*
X41247Y88067D01*
X40951Y88462D01*
X40657Y88854D01*
X40560Y89244D01*
X40556Y89247D01*
X40558Y89250D01*
X40359Y89746D01*
X40261Y90237D01*
X40261Y91332D01*
X40226Y91379D01*
X40205Y91385D01*
X40256Y91409D01*
X40249Y91423D01*
X40261Y91432D01*
X40261Y91926D01*
X40359Y92317D01*
X40558Y92814D01*
X40954Y93804D01*
X41244Y94095D01*
X41636Y94389D01*
X42126Y94585D01*
X42622Y94684D01*
X43112Y94782D01*
X43598Y94685D01*
X44092Y94487D01*
X44490Y94288D01*
X44494Y94289D01*
X44473Y94262D01*
X44472Y94203D01*
X44478Y94203D01*
X44477Y94197D01*
X44775Y93900D01*
X45070Y93506D01*
X45267Y93112D01*
X45465Y92618D01*
X45563Y92127D01*
X45563Y90037D01*
X45465Y89546D01*
X45266Y89050D01*
X45070Y88560D01*
X44777Y88267D01*
X44776Y88262D01*
X44773Y88262D01*
X44481Y87873D01*
X43994Y87678D01*
X43498Y87479D01*
X43012Y87382D01*
X42522Y87480D01*
G37*
%LPD*%
%LPC*%
G36*
X42168Y66144D02*
X42168Y66144D01*
X41777Y66242D01*
X41289Y66535D01*
X40995Y66828D01*
X40700Y67222D01*
X40503Y67616D01*
X40305Y68111D01*
X40206Y68506D01*
X40107Y69100D01*
X40107Y70191D01*
X40306Y71186D01*
X40405Y71682D01*
X40601Y72172D01*
X40893Y72561D01*
X41288Y72857D01*
X41684Y73154D01*
X42074Y73349D01*
X42559Y73446D01*
X43150Y73347D01*
X43642Y73249D01*
X44031Y73055D01*
X44718Y72465D01*
X44913Y72076D01*
X45112Y71578D01*
X45311Y71082D01*
X45409Y70591D01*
X45409Y69001D01*
X45310Y68507D01*
X45210Y68108D01*
X45211Y68106D01*
X45210Y68106D01*
X45111Y67614D01*
X44819Y67127D01*
X44129Y66437D01*
X43742Y66243D01*
X42757Y66046D01*
X42168Y66144D01*
G37*
%LPD*%
G36*
X101005Y89234D02*
X101005Y89234D01*
X101008Y89231D01*
X101608Y89331D01*
X101615Y89339D01*
X101622Y89336D01*
X102221Y89635D01*
X102919Y89935D01*
X102937Y89966D01*
X102949Y89972D01*
X103049Y90572D01*
X103040Y90589D01*
X103046Y90598D01*
X102846Y91098D01*
X102839Y91102D01*
X102841Y91107D01*
X102441Y91707D01*
X102408Y91719D01*
X102400Y91729D01*
X101800Y91729D01*
X101786Y91718D01*
X101776Y91723D01*
X101081Y91326D01*
X100397Y91130D01*
X99729Y91226D01*
X99577Y91454D01*
X100115Y91633D01*
X100814Y91833D01*
X100815Y91834D01*
X100816Y91833D01*
X101416Y92033D01*
X101419Y92038D01*
X101422Y92036D01*
X102022Y92336D01*
X102027Y92346D01*
X102035Y92345D01*
X102535Y92845D01*
X102536Y92857D01*
X102543Y92862D01*
X102541Y92864D01*
X102547Y92866D01*
X102574Y92960D01*
X102588Y93010D01*
X102630Y93157D01*
X102631Y93157D01*
X102630Y93157D01*
X102673Y93305D01*
X102687Y93354D01*
X102729Y93502D01*
X102747Y93565D01*
X102947Y94164D01*
X102942Y94180D01*
X102949Y94187D01*
X102849Y94887D01*
X102843Y94893D01*
X102846Y94898D01*
X102646Y95398D01*
X102634Y95406D01*
X102635Y95415D01*
X102235Y95815D01*
X102226Y95816D01*
X102225Y95822D01*
X101725Y96122D01*
X101716Y96121D01*
X101714Y96127D01*
X101014Y96327D01*
X101008Y96325D01*
X101005Y96329D01*
X100105Y96429D01*
X100098Y96424D01*
X100093Y96429D01*
X99393Y96329D01*
X99392Y96328D01*
X99392Y96329D01*
X98792Y96229D01*
X98789Y96225D01*
X98786Y96227D01*
X98086Y96027D01*
X98076Y96013D01*
X98065Y96015D01*
X97565Y95515D01*
X97564Y95503D01*
X97558Y95499D01*
X97562Y95493D01*
X97560Y95474D01*
X97553Y95464D01*
X97753Y94864D01*
X97764Y94857D01*
X97762Y94848D01*
X98262Y94248D01*
X98292Y94242D01*
X98300Y94231D01*
X98700Y94231D01*
X98707Y94236D01*
X98712Y94232D01*
X99510Y94432D01*
X100195Y94530D01*
X100731Y94351D01*
X100566Y94021D01*
X99890Y93828D01*
X99193Y93729D01*
X99188Y93724D01*
X99184Y93727D01*
X98584Y93527D01*
X98579Y93519D01*
X98573Y93521D01*
X97973Y93121D01*
X97969Y93111D01*
X97962Y93111D01*
X97562Y92611D01*
X97561Y92600D01*
X97558Y92597D01*
X97553Y92596D01*
X97353Y91996D01*
X97357Y91985D01*
X97351Y91980D01*
X97351Y91280D01*
X97354Y91276D01*
X97351Y91273D01*
X97451Y90573D01*
X97461Y90563D01*
X97458Y90555D01*
X97758Y90055D01*
X97766Y90051D01*
X97765Y90045D01*
X98265Y89545D01*
X98281Y89543D01*
X98284Y89533D01*
X98884Y89333D01*
X98891Y89335D01*
X98893Y89331D01*
X99593Y89231D01*
X99598Y89234D01*
X99600Y89231D01*
X101000Y89231D01*
X101005Y89234D01*
G37*
%LPC*%
G36*
X174716Y32869D02*
X174716Y32869D01*
X174344Y33149D01*
X174249Y33526D01*
X174249Y34105D01*
X174430Y34376D01*
X174905Y34471D01*
X178300Y34471D01*
X178313Y34481D01*
X178330Y34481D01*
X178330Y34493D01*
X178347Y34507D01*
X178330Y34530D01*
X178330Y34559D01*
X174635Y37355D01*
X174346Y37741D01*
X174250Y38220D01*
X174345Y38696D01*
X174620Y38971D01*
X175100Y38971D01*
X175147Y39007D01*
X175142Y39014D01*
X175149Y39020D01*
X175149Y39041D01*
X175151Y39017D01*
X175190Y38972D01*
X175196Y38977D01*
X175200Y38971D01*
X180695Y38971D01*
X181160Y38878D01*
X181251Y38514D01*
X181251Y37832D01*
X181066Y37462D01*
X180694Y37369D01*
X177400Y37369D01*
X177387Y37359D01*
X177370Y37359D01*
X177370Y37347D01*
X177353Y37333D01*
X177370Y37310D01*
X177370Y37281D01*
X181061Y34488D01*
X181251Y34108D01*
X181251Y33525D01*
X181156Y33053D01*
X180788Y32869D01*
X174716Y32869D01*
G37*
%LPD*%
%LPC*%
G36*
X80119Y32001D02*
X80119Y32001D01*
X80080Y32046D01*
X80075Y32041D01*
X80070Y32047D01*
X74482Y32047D01*
X74107Y32235D01*
X73919Y32610D01*
X73919Y33080D01*
X74393Y33649D01*
X77970Y33649D01*
X77974Y33652D01*
X77979Y33650D01*
X77984Y33660D01*
X78017Y33685D01*
X78005Y33701D01*
X78014Y33720D01*
X77914Y33920D01*
X77898Y33928D01*
X77897Y33939D01*
X77299Y34338D01*
X74111Y36729D01*
X73919Y37207D01*
X73919Y37682D01*
X74199Y38054D01*
X74576Y38149D01*
X80650Y38149D01*
X80921Y37878D01*
X80921Y37203D01*
X80828Y36738D01*
X80464Y36647D01*
X77470Y36647D01*
X77464Y36643D01*
X77460Y36646D01*
X76960Y36546D01*
X76952Y36537D01*
X76940Y36537D01*
X76940Y36523D01*
X76921Y36502D01*
X76940Y36485D01*
X76940Y36459D01*
X80538Y33761D01*
X80925Y33374D01*
X81020Y32897D01*
X80925Y32326D01*
X80554Y32047D01*
X80170Y32047D01*
X80123Y32011D01*
X80128Y32004D01*
X80121Y31998D01*
X80121Y31977D01*
X80119Y32001D01*
G37*
%LPD*%
%LPC*%
G36*
X77575Y39947D02*
X77575Y39947D01*
X77086Y40045D01*
X76714Y40231D01*
X76619Y40802D01*
X76619Y42386D01*
X76807Y42761D01*
X77182Y42949D01*
X77650Y42949D01*
X77923Y42676D01*
X78021Y41594D01*
X78061Y41550D01*
X78066Y41554D01*
X78070Y41549D01*
X79070Y41549D01*
X79108Y41578D01*
X79116Y41580D01*
X79316Y42080D01*
X79312Y42093D01*
X79319Y42098D01*
X79319Y43098D01*
X79310Y43111D01*
X79314Y43120D01*
X79114Y43520D01*
X79104Y43525D01*
X79105Y43533D01*
X78705Y43933D01*
X78700Y43934D01*
X78700Y43937D01*
X78300Y44237D01*
X78290Y44237D01*
X78288Y44244D01*
X77788Y44444D01*
X77782Y44442D01*
X77780Y44446D01*
X77280Y44546D01*
X77267Y44540D01*
X77260Y44546D01*
X76760Y44446D01*
X76756Y44441D01*
X76752Y44444D01*
X76252Y44244D01*
X76244Y44232D01*
X76235Y44233D01*
X75935Y43933D01*
X75934Y43928D01*
X75931Y43928D01*
X75631Y43528D01*
X75631Y43521D01*
X75626Y43520D01*
X75426Y43120D01*
X75428Y43111D01*
X75422Y43108D01*
X75322Y42608D01*
X75327Y42596D01*
X75321Y42590D01*
X75421Y41990D01*
X75428Y41984D01*
X75425Y41978D01*
X75818Y41094D01*
X75726Y40723D01*
X75342Y40340D01*
X74872Y40152D01*
X74502Y40337D01*
X74213Y40722D01*
X74016Y41216D01*
X73817Y41713D01*
X73719Y42104D01*
X73719Y43093D01*
X73817Y43584D01*
X74013Y44074D01*
X74309Y44468D01*
X74609Y44868D01*
X74609Y44928D01*
X74598Y44928D01*
X74598Y44939D01*
X74569Y44959D01*
X74602Y44960D01*
X74602Y44964D01*
X74605Y44963D01*
X74902Y45261D01*
X75298Y45557D01*
X75793Y45855D01*
X76186Y46051D01*
X76675Y46149D01*
X77765Y46149D01*
X78256Y46051D01*
X78750Y45853D01*
X79144Y45656D01*
X79540Y45359D01*
X79938Y45061D01*
X80329Y44669D01*
X80525Y44278D01*
X80724Y43780D01*
X80727Y43778D01*
X80726Y43776D01*
X80921Y43386D01*
X80921Y41703D01*
X80823Y41214D01*
X80628Y40824D01*
X80333Y40430D01*
X80042Y40140D01*
X79561Y39947D01*
X77575Y39947D01*
G37*
%LPD*%
%LPC*%
G36*
X129316Y25253D02*
X129316Y25253D01*
X123826Y27948D01*
X123445Y28234D01*
X123351Y28701D01*
X123542Y29178D01*
X123829Y29465D01*
X129417Y32159D01*
X129789Y32253D01*
X130163Y31972D01*
X130451Y31492D01*
X130451Y31026D01*
X130170Y30746D01*
X129276Y30249D01*
X129274Y30244D01*
X129270Y30245D01*
X128870Y29945D01*
X128862Y29914D01*
X128851Y29906D01*
X128851Y27406D01*
X128876Y27373D01*
X128878Y27362D01*
X130263Y26669D01*
X130451Y26294D01*
X130451Y25823D01*
X130066Y25343D01*
X129790Y25158D01*
X129316Y25253D01*
G37*
%LPD*%
%LPC*%
G36*
X204304Y57409D02*
X204304Y57409D01*
X203710Y57508D01*
X203342Y57600D01*
X203249Y58065D01*
X203249Y58548D01*
X203436Y58921D01*
X203909Y59111D01*
X205700Y59111D01*
X205711Y59119D01*
X205724Y59117D01*
X205726Y59130D01*
X205747Y59147D01*
X205731Y59168D01*
X205735Y59195D01*
X205535Y59395D01*
X205523Y59396D01*
X205522Y59404D01*
X205126Y59602D01*
X204730Y59899D01*
X204726Y59899D01*
X204725Y59902D01*
X204234Y60197D01*
X203941Y60588D01*
X203646Y61079D01*
X203548Y61472D01*
X203501Y61509D01*
X203501Y61508D01*
X203500Y61509D01*
X203473Y61509D01*
X203503Y61511D01*
X203548Y61549D01*
X203543Y61555D01*
X203549Y61560D01*
X203549Y62554D01*
X203646Y62941D01*
X203941Y63432D01*
X204237Y63828D01*
X204531Y64121D01*
X205019Y64414D01*
X205410Y64512D01*
X206004Y64611D01*
X206495Y64611D01*
X206982Y64513D01*
X207470Y64221D01*
X208159Y63531D01*
X208355Y63140D01*
X208553Y62646D01*
X208651Y62155D01*
X208651Y61675D01*
X208468Y61400D01*
X207995Y61211D01*
X207415Y61307D01*
X207049Y61490D01*
X207049Y61960D01*
X207045Y61966D01*
X207048Y61970D01*
X206948Y62470D01*
X206933Y62483D01*
X206935Y62495D01*
X206535Y62895D01*
X206515Y62898D01*
X206510Y62908D01*
X206010Y63008D01*
X205995Y63001D01*
X205989Y63001D01*
X205982Y63006D01*
X205482Y62806D01*
X205472Y62790D01*
X205461Y62790D01*
X205161Y62390D01*
X205161Y62380D01*
X205153Y62374D01*
X205159Y62366D01*
X205151Y62360D01*
X205151Y61960D01*
X205159Y61949D01*
X205154Y61942D01*
X205354Y61442D01*
X205366Y61434D01*
X205365Y61425D01*
X205765Y61025D01*
X205770Y61024D01*
X205770Y61021D01*
X206170Y60721D01*
X206174Y60721D01*
X206174Y60718D01*
X207472Y59919D01*
X207870Y59621D01*
X208259Y59329D01*
X208454Y58842D01*
X208457Y58840D01*
X208456Y58838D01*
X208656Y58438D01*
X208684Y58424D01*
X208690Y58412D01*
X208706Y58408D01*
X208655Y58380D01*
X208658Y58374D01*
X208652Y58372D01*
X208555Y57982D01*
X208269Y57601D01*
X207791Y57409D01*
X204304Y57409D01*
G37*
%LPD*%
G36*
X152703Y89233D02*
X152703Y89233D01*
X152705Y89231D01*
X153605Y89331D01*
X153615Y89340D01*
X153622Y89336D01*
X154222Y89636D01*
X154229Y89650D01*
X154239Y89650D01*
X154539Y90050D01*
X154539Y90060D01*
X154546Y90062D01*
X154746Y90562D01*
X154743Y90570D01*
X154749Y90573D01*
X154849Y91273D01*
X154846Y91278D01*
X154849Y91280D01*
X154849Y98880D01*
X154833Y98901D01*
X154835Y98915D01*
X154435Y99315D01*
X154412Y99318D01*
X154406Y99329D01*
X153606Y99429D01*
X153600Y99426D01*
X153589Y99426D01*
X153586Y99427D01*
X152886Y99227D01*
X152871Y99207D01*
X152858Y99205D01*
X152558Y98705D01*
X152558Y98701D01*
X152557Y98700D01*
X152559Y98697D01*
X152560Y98687D01*
X152551Y98680D01*
X152551Y91900D01*
X152173Y91523D01*
X151584Y91327D01*
X151573Y91310D01*
X151561Y91310D01*
X151261Y90910D01*
X151261Y90888D01*
X151251Y90880D01*
X151251Y89980D01*
X151258Y89971D01*
X151253Y89964D01*
X151453Y89364D01*
X151483Y89344D01*
X151488Y89332D01*
X151888Y89232D01*
X151896Y89236D01*
X151900Y89231D01*
X152700Y89231D01*
X152703Y89233D01*
G37*
%LPC*%
G36*
X21774Y66143D02*
X21774Y66143D01*
X21381Y66339D01*
X20889Y66635D01*
X20597Y66927D01*
X20301Y67419D01*
X20107Y67808D01*
X20107Y68391D01*
X20205Y68880D01*
X20400Y69270D01*
X20693Y69661D01*
X21086Y69955D01*
X21577Y70250D01*
X21964Y70347D01*
X22552Y70347D01*
X22946Y70248D01*
X23001Y70272D01*
X22995Y70286D01*
X23005Y70294D01*
X23007Y70296D01*
X23007Y70596D01*
X22994Y70614D01*
X22997Y70626D01*
X22697Y71026D01*
X22688Y71028D01*
X22688Y71035D01*
X22288Y71335D01*
X22278Y71335D01*
X22276Y71342D01*
X21776Y71542D01*
X21770Y71540D01*
X21768Y71544D01*
X21268Y71644D01*
X21261Y71641D01*
X21258Y71645D01*
X20770Y71645D01*
X20402Y71829D01*
X20307Y72301D01*
X20307Y72876D01*
X20582Y73151D01*
X21063Y73247D01*
X21653Y73247D01*
X22144Y73149D01*
X22638Y72951D01*
X23429Y72555D01*
X24116Y71868D01*
X24312Y71378D01*
X24320Y71373D01*
X24319Y71366D01*
X24612Y70975D01*
X24710Y70486D01*
X24717Y70480D01*
X24714Y70474D01*
X24909Y70084D01*
X24909Y69496D01*
X24913Y69490D01*
X24910Y69486D01*
X25008Y68995D01*
X24909Y68404D01*
X24810Y67907D01*
X24710Y67508D01*
X24734Y67453D01*
X24739Y67456D01*
X24741Y67450D01*
X24768Y67440D01*
X24720Y67426D01*
X24719Y67426D01*
X24421Y67028D01*
X23830Y66438D01*
X23344Y66243D01*
X22850Y66145D01*
X22259Y66046D01*
X21774Y66143D01*
G37*
%LPD*%
%LPC*%
G36*
X102509Y40801D02*
X102509Y40801D01*
X102028Y40994D01*
X101335Y41687D01*
X101276Y41695D01*
X101274Y41682D01*
X101261Y41682D01*
X100968Y41291D01*
X100580Y41097D01*
X100095Y40903D01*
X99611Y41000D01*
X99219Y41098D01*
X98731Y41391D01*
X98038Y42083D01*
X97849Y42367D01*
X97849Y43947D01*
X97946Y44431D01*
X98239Y44822D01*
X98239Y44829D01*
X98244Y44830D01*
X98443Y45229D01*
X98475Y45210D01*
X98534Y45216D01*
X98534Y45217D01*
X98535Y45217D01*
X98928Y45610D01*
X99409Y45803D01*
X99784Y45803D01*
X100159Y45521D01*
X100351Y45043D01*
X100351Y44577D01*
X99970Y44291D01*
X99570Y43991D01*
X99566Y43975D01*
X99556Y43968D01*
X99559Y43965D01*
X99552Y43962D01*
X99452Y43462D01*
X99458Y43449D01*
X99452Y43442D01*
X99552Y42942D01*
X99570Y42926D01*
X99570Y42913D01*
X99970Y42613D01*
X100005Y42613D01*
X100016Y42605D01*
X100316Y42705D01*
X100338Y42739D01*
X100349Y42744D01*
X100449Y43344D01*
X100546Y43833D01*
X100729Y44107D01*
X101300Y44202D01*
X101867Y44108D01*
X102053Y43736D01*
X102252Y42742D01*
X102270Y42726D01*
X102270Y42713D01*
X102670Y42413D01*
X102701Y42413D01*
X102712Y42404D01*
X103112Y42504D01*
X103127Y42522D01*
X103139Y42522D01*
X103439Y42922D01*
X103439Y42939D01*
X103449Y42944D01*
X103549Y43544D01*
X103543Y43555D01*
X103548Y43562D01*
X103448Y44062D01*
X103430Y44078D01*
X103430Y44091D01*
X103030Y44391D01*
X103026Y44391D01*
X103025Y44394D01*
X102541Y44685D01*
X102449Y44960D01*
X102449Y45640D01*
X102634Y46010D01*
X103001Y46102D01*
X103486Y46005D01*
X103976Y45809D01*
X104365Y45517D01*
X104658Y45126D01*
X104855Y44732D01*
X105051Y44243D01*
X105051Y42664D01*
X104856Y42274D01*
X104857Y42271D01*
X104854Y42270D01*
X104657Y41776D01*
X104365Y41387D01*
X103976Y41095D01*
X103486Y40899D01*
X102995Y40801D01*
X102509Y40801D01*
G37*
%LPD*%
%LPC*%
G36*
X102805Y25001D02*
X102805Y25001D01*
X102314Y25099D01*
X101828Y25294D01*
X101435Y25687D01*
X101408Y25691D01*
X101400Y25701D01*
X101200Y25701D01*
X101182Y25688D01*
X101170Y25691D01*
X100774Y25394D01*
X100388Y25201D01*
X99414Y25201D01*
X98928Y25493D01*
X98532Y25789D01*
X97849Y26472D01*
X97849Y27847D01*
X97947Y28338D01*
X98145Y28832D01*
X98341Y29223D01*
X98732Y29615D01*
X99121Y29906D01*
X99599Y30002D01*
X99968Y29909D01*
X100253Y29434D01*
X100348Y28962D01*
X100164Y28686D01*
X99770Y28391D01*
X99767Y28378D01*
X99758Y28377D01*
X99458Y27877D01*
X99459Y27868D01*
X99453Y27863D01*
X99457Y27857D01*
X99451Y27852D01*
X99451Y27352D01*
X99464Y27334D01*
X99461Y27322D01*
X99761Y26922D01*
X99783Y26916D01*
X99788Y26904D01*
X100188Y26804D01*
X100243Y26828D01*
X100242Y26830D01*
X100244Y26830D01*
X100444Y27230D01*
X100442Y27242D01*
X100447Y27246D01*
X100445Y27249D01*
X100449Y27252D01*
X100449Y27840D01*
X100637Y28215D01*
X101012Y28403D01*
X101680Y28403D01*
X101959Y28123D01*
X102151Y27740D01*
X102151Y27152D01*
X102164Y27134D01*
X102161Y27122D01*
X102461Y26722D01*
X102483Y26716D01*
X102488Y26704D01*
X102888Y26604D01*
X102916Y26616D01*
X102930Y26613D01*
X103330Y26913D01*
X103335Y26931D01*
X103346Y26934D01*
X103546Y27434D01*
X103544Y27441D01*
X103547Y27443D01*
X103541Y27450D01*
X103541Y27452D01*
X103549Y27460D01*
X103449Y28060D01*
X103441Y28067D01*
X103444Y28074D01*
X103244Y28474D01*
X103227Y28483D01*
X103225Y28494D01*
X102726Y28794D01*
X102449Y28978D01*
X102449Y29548D01*
X102545Y30123D01*
X102815Y30303D01*
X103192Y30303D01*
X103777Y30108D01*
X104168Y29815D01*
X104463Y29520D01*
X104758Y29126D01*
X104953Y28736D01*
X105051Y28244D01*
X105150Y27653D01*
X105052Y27162D01*
X104953Y26666D01*
X104757Y26176D01*
X104463Y25784D01*
X104168Y25489D01*
X103776Y25195D01*
X103291Y25001D01*
X102805Y25001D01*
G37*
%LPD*%
%LPC*%
G36*
X22028Y87579D02*
X22028Y87579D01*
X21641Y87773D01*
X21249Y88164D01*
X20954Y88558D01*
X20757Y88952D01*
X20561Y89441D01*
X20561Y89927D01*
X20660Y90422D01*
X20758Y90911D01*
X21049Y91300D01*
X21444Y91695D01*
X21833Y91986D01*
X22322Y92084D01*
X22323Y92084D01*
X23223Y92284D01*
X23242Y92306D01*
X23259Y92320D01*
X23256Y92324D01*
X23261Y92329D01*
X23260Y92331D01*
X23261Y92332D01*
X23261Y92932D01*
X23225Y92979D01*
X23218Y92974D01*
X23212Y92981D01*
X21224Y92981D01*
X20849Y93169D01*
X20663Y93540D01*
X20759Y94214D01*
X20946Y94494D01*
X21324Y94683D01*
X23900Y94683D01*
X24086Y94590D01*
X24477Y94297D01*
X24765Y93913D01*
X25160Y90850D01*
X24882Y90571D01*
X24393Y90278D01*
X24016Y90184D01*
X23532Y90377D01*
X23134Y90576D01*
X23112Y90572D01*
X23102Y90580D01*
X22602Y90480D01*
X22589Y90465D01*
X22577Y90467D01*
X22177Y90067D01*
X22173Y90036D01*
X22167Y90032D01*
X22169Y90029D01*
X22164Y90022D01*
X22264Y89522D01*
X22279Y89509D01*
X22277Y89497D01*
X22577Y89197D01*
X22597Y89194D01*
X22602Y89184D01*
X23102Y89084D01*
X23115Y89090D01*
X23122Y89084D01*
X23622Y89184D01*
X23632Y89195D01*
X23642Y89193D01*
X24034Y89487D01*
X24401Y89579D01*
X24780Y89295D01*
X25163Y88912D01*
X25163Y88548D01*
X24877Y88167D01*
X24484Y87873D01*
X23993Y87578D01*
X23602Y87480D01*
X23013Y87382D01*
X22028Y87579D01*
G37*
%LPD*%
%LPC*%
G36*
X153012Y39439D02*
X153012Y39439D01*
X152626Y39632D01*
X152235Y39925D01*
X151942Y40316D01*
X151746Y40708D01*
X151348Y42203D01*
X151337Y42211D01*
X151339Y42220D01*
X151039Y42620D01*
X151015Y42626D01*
X151010Y42638D01*
X150510Y42738D01*
X150471Y42720D01*
X150461Y42720D01*
X150161Y42320D01*
X150161Y42298D01*
X150151Y42290D01*
X150151Y41790D01*
X150161Y41776D01*
X150157Y41766D01*
X150651Y40877D01*
X150651Y40415D01*
X150272Y40131D01*
X149792Y39843D01*
X149429Y39934D01*
X149139Y40320D01*
X148846Y40711D01*
X148748Y41200D01*
X148649Y41695D01*
X148649Y42186D01*
X148748Y42780D01*
X148845Y43168D01*
X149139Y43560D01*
X149139Y43620D01*
X149128Y43620D01*
X149127Y43631D01*
X149100Y43650D01*
X149112Y43650D01*
X149115Y43652D01*
X149122Y43653D01*
X149130Y43651D01*
X149530Y43951D01*
X149921Y44244D01*
X150405Y44341D01*
X150895Y44341D01*
X151389Y44242D01*
X151775Y44146D01*
X152163Y43758D01*
X152458Y43364D01*
X152655Y42970D01*
X152853Y42476D01*
X153052Y41480D01*
X153067Y41467D01*
X153065Y41455D01*
X153465Y41055D01*
X153492Y41052D01*
X153500Y41041D01*
X153900Y41041D01*
X153926Y41060D01*
X153939Y41060D01*
X154239Y41460D01*
X154239Y41467D01*
X154242Y41469D01*
X154239Y41472D01*
X154239Y41476D01*
X154248Y41480D01*
X154348Y41980D01*
X154340Y41998D01*
X154346Y42008D01*
X154146Y42508D01*
X154139Y42512D01*
X154141Y42517D01*
X153546Y43410D01*
X153453Y43779D01*
X153734Y44153D01*
X154214Y44441D01*
X154580Y44441D01*
X155163Y43858D01*
X155461Y43460D01*
X155754Y43069D01*
X155852Y42580D01*
X155950Y42089D01*
X155851Y41498D01*
X155753Y41006D01*
X155556Y40612D01*
X155556Y40610D01*
X155556Y40609D01*
X155554Y40608D01*
X155359Y40121D01*
X154970Y39829D01*
X154579Y39536D01*
X154095Y39439D01*
X153012Y39439D01*
G37*
%LPD*%
%LPC*%
G36*
X127610Y41554D02*
X127610Y41554D01*
X127225Y41650D01*
X126542Y42334D01*
X126347Y42821D01*
X125948Y44319D01*
X125937Y44327D01*
X125939Y44336D01*
X125639Y44736D01*
X125608Y44745D01*
X125600Y44755D01*
X125100Y44755D01*
X125079Y44739D01*
X125065Y44741D01*
X124765Y44441D01*
X124763Y44424D01*
X124753Y44416D01*
X124757Y44411D01*
X124751Y44406D01*
X124751Y43806D01*
X124761Y43792D01*
X124757Y43782D01*
X125251Y42893D01*
X125251Y42526D01*
X124870Y42145D01*
X124394Y41860D01*
X124127Y41949D01*
X123741Y42335D01*
X123546Y42725D01*
X123347Y43320D01*
X123249Y43712D01*
X123249Y44301D01*
X123348Y44796D01*
X123446Y45285D01*
X123739Y45676D01*
X124031Y46065D01*
X124518Y46260D01*
X125009Y46457D01*
X125495Y46457D01*
X125984Y46359D01*
X126374Y46164D01*
X126765Y45871D01*
X127057Y45482D01*
X127254Y44988D01*
X127453Y44491D01*
X127652Y43595D01*
X127667Y43583D01*
X127665Y43571D01*
X128065Y43171D01*
X128092Y43168D01*
X128100Y43157D01*
X128500Y43157D01*
X128521Y43173D01*
X128535Y43171D01*
X128835Y43471D01*
X128838Y43492D01*
X128849Y43498D01*
X128949Y44098D01*
X128943Y44109D01*
X128948Y44116D01*
X128848Y44616D01*
X128835Y44628D01*
X128837Y44638D01*
X128145Y45430D01*
X128053Y45798D01*
X128336Y46270D01*
X128808Y46553D01*
X129180Y46460D01*
X129469Y46268D01*
X129763Y45974D01*
X130059Y45578D01*
X130353Y45088D01*
X130452Y44596D01*
X130550Y44106D01*
X130452Y43616D01*
X130353Y43120D01*
X130155Y42626D01*
X129961Y42238D01*
X129570Y41945D01*
X129179Y41652D01*
X128690Y41554D01*
X128199Y41456D01*
X127610Y41554D01*
G37*
%LPD*%
%LPC*%
G36*
X27048Y87571D02*
X27048Y87571D01*
X26861Y87944D01*
X26861Y94016D01*
X27140Y94387D01*
X27617Y94483D01*
X28092Y94483D01*
X28367Y94208D01*
X28463Y93727D01*
X28463Y91232D01*
X28484Y91204D01*
X28485Y91191D01*
X28785Y90991D01*
X28805Y90992D01*
X28812Y90983D01*
X29812Y90983D01*
X29840Y91004D01*
X29853Y91005D01*
X30053Y91305D01*
X30051Y91332D01*
X30055Y91335D01*
X30054Y91337D01*
X30060Y91344D01*
X29463Y93732D01*
X29555Y94100D01*
X30034Y94388D01*
X30512Y94579D01*
X30976Y94393D01*
X31165Y94017D01*
X31263Y93424D01*
X31266Y93422D01*
X31264Y93420D01*
X31864Y91021D01*
X31963Y90527D01*
X31963Y90044D01*
X31776Y89671D01*
X31303Y89481D01*
X28812Y89481D01*
X28806Y89477D01*
X28805Y89477D01*
X28795Y89469D01*
X28785Y89473D01*
X28485Y89273D01*
X28478Y89254D01*
X28465Y89244D01*
X28470Y89237D01*
X28463Y89232D01*
X28463Y88137D01*
X28368Y87665D01*
X27996Y87479D01*
X27517Y87383D01*
X27048Y87571D01*
G37*
%LPD*%
%LPC*%
G36*
X27170Y66145D02*
X27170Y66145D01*
X26800Y66330D01*
X26706Y66708D01*
X26679Y66730D01*
X26675Y66742D01*
X26649Y66752D01*
X26650Y66752D01*
X26698Y66767D01*
X26693Y66785D01*
X26707Y66796D01*
X26707Y72391D01*
X26803Y72872D01*
X27078Y73147D01*
X27653Y73147D01*
X28128Y73052D01*
X28309Y72781D01*
X28309Y69696D01*
X28345Y69649D01*
X28352Y69654D01*
X28358Y69647D01*
X29858Y69647D01*
X29905Y69683D01*
X29900Y69690D01*
X29907Y69696D01*
X29907Y70096D01*
X29902Y70103D01*
X29906Y70108D01*
X29406Y72107D01*
X29310Y72589D01*
X29493Y72956D01*
X30066Y73147D01*
X30542Y73147D01*
X30914Y72867D01*
X31010Y72484D01*
X31011Y72484D01*
X31010Y72483D01*
X31809Y69490D01*
X31809Y68516D01*
X31534Y68242D01*
X30954Y68145D01*
X28458Y68145D01*
X28411Y68109D01*
X28411Y68108D01*
X28410Y68108D01*
X28310Y67708D01*
X28314Y67700D01*
X28309Y67696D01*
X28309Y66608D01*
X28124Y66238D01*
X27752Y66145D01*
X27170Y66145D01*
G37*
%LPD*%
%LPC*%
G36*
X25746Y44047D02*
X25746Y44047D01*
X25378Y44231D01*
X25283Y44703D01*
X25283Y50293D01*
X25379Y50770D01*
X25750Y51049D01*
X26229Y51049D01*
X26701Y50954D01*
X26885Y50586D01*
X26885Y47598D01*
X26921Y47551D01*
X26928Y47556D01*
X26934Y47549D01*
X28534Y47549D01*
X28581Y47585D01*
X28572Y47597D01*
X28582Y47610D01*
X28482Y48009D01*
X28082Y50008D01*
X27986Y50491D01*
X28170Y50859D01*
X28643Y51049D01*
X29118Y51049D01*
X29495Y50766D01*
X29687Y50381D01*
X30385Y47392D01*
X30385Y46418D01*
X30110Y46144D01*
X29530Y46047D01*
X27034Y46047D01*
X26987Y46011D01*
X26987Y46010D01*
X26986Y46010D01*
X26886Y45610D01*
X26890Y45602D01*
X26885Y45598D01*
X26885Y44510D01*
X26700Y44140D01*
X26328Y44047D01*
X25746Y44047D01*
G37*
%LPD*%
G36*
X139102Y89236D02*
X139102Y89236D01*
X139107Y89231D01*
X139807Y89331D01*
X139829Y89353D01*
X139842Y89355D01*
X140142Y89855D01*
X140142Y89858D01*
X140140Y89873D01*
X140149Y89880D01*
X140149Y95280D01*
X140142Y95289D01*
X140147Y95296D01*
X139947Y95896D01*
X139920Y95914D01*
X139916Y95927D01*
X139316Y96127D01*
X139311Y96125D01*
X139311Y96126D01*
X139303Y96126D01*
X139300Y96129D01*
X138400Y96129D01*
X138395Y96126D01*
X138382Y96116D01*
X138370Y96119D01*
X137970Y95819D01*
X137969Y95814D01*
X137965Y95815D01*
X137696Y95546D01*
X137231Y95918D01*
X137221Y95919D01*
X137219Y95925D01*
X136519Y96225D01*
X136512Y96224D01*
X136497Y96224D01*
X136492Y96229D01*
X135892Y96129D01*
X135193Y96029D01*
X135169Y96005D01*
X135169Y96004D01*
X135156Y96002D01*
X134856Y95402D01*
X134856Y95400D01*
X134859Y95386D01*
X134851Y95380D01*
X134851Y94780D01*
X134859Y94769D01*
X134855Y94761D01*
X135155Y94061D01*
X135170Y94052D01*
X135169Y94042D01*
X135669Y93642D01*
X135703Y93641D01*
X135714Y93633D01*
X136411Y93832D01*
X136992Y93929D01*
X137563Y93643D01*
X137851Y93068D01*
X137851Y89680D01*
X137870Y89654D01*
X137870Y89641D01*
X138270Y89341D01*
X138288Y89341D01*
X138294Y89331D01*
X139094Y89231D01*
X139102Y89236D01*
G37*
%LPC*%
G36*
X18954Y44045D02*
X18954Y44045D01*
X18583Y44323D01*
X18583Y50392D01*
X18678Y50769D01*
X19050Y51049D01*
X19628Y51049D01*
X20000Y50956D01*
X20185Y50586D01*
X20185Y47598D01*
X20221Y47551D01*
X20228Y47556D01*
X20234Y47549D01*
X21834Y47549D01*
X21881Y47585D01*
X21872Y47597D01*
X21882Y47610D01*
X21282Y50109D01*
X21187Y50582D01*
X21462Y50856D01*
X21943Y51049D01*
X22418Y51049D01*
X22789Y50770D01*
X22886Y50288D01*
X22888Y50287D01*
X22886Y50285D01*
X23685Y47292D01*
X23685Y46803D01*
X23590Y46328D01*
X23316Y46145D01*
X22730Y46047D01*
X20234Y46047D01*
X20187Y46011D01*
X20189Y46008D01*
X20187Y46007D01*
X20190Y46002D01*
X20185Y45998D01*
X20185Y44514D01*
X19902Y44137D01*
X19526Y43949D01*
X18954Y44045D01*
G37*
%LPD*%
G36*
X85002Y89236D02*
X85002Y89236D01*
X85007Y89231D01*
X85707Y89331D01*
X85729Y89353D01*
X85742Y89355D01*
X86042Y89855D01*
X86042Y89858D01*
X86040Y89873D01*
X86049Y89880D01*
X86049Y95280D01*
X86042Y95289D01*
X86047Y95296D01*
X85847Y95896D01*
X85820Y95914D01*
X85816Y95927D01*
X85216Y96127D01*
X85211Y96125D01*
X85211Y96126D01*
X85203Y96126D01*
X85200Y96129D01*
X84300Y96129D01*
X84295Y96126D01*
X84282Y96116D01*
X84270Y96119D01*
X83870Y95819D01*
X83869Y95814D01*
X83865Y95815D01*
X83596Y95546D01*
X83131Y95918D01*
X83121Y95919D01*
X83119Y95925D01*
X82419Y96225D01*
X82412Y96224D01*
X82397Y96224D01*
X82392Y96229D01*
X81792Y96129D01*
X81093Y96029D01*
X81069Y96005D01*
X81069Y96004D01*
X81056Y96002D01*
X80756Y95402D01*
X80756Y95400D01*
X80759Y95386D01*
X80751Y95380D01*
X80751Y94780D01*
X80759Y94769D01*
X80755Y94761D01*
X81055Y94061D01*
X81070Y94052D01*
X81069Y94042D01*
X81569Y93642D01*
X81605Y93641D01*
X81616Y93633D01*
X82211Y93832D01*
X82892Y93929D01*
X83463Y93643D01*
X83751Y93068D01*
X83751Y89680D01*
X83770Y89654D01*
X83770Y89641D01*
X84170Y89341D01*
X84188Y89341D01*
X84194Y89331D01*
X84994Y89231D01*
X85002Y89236D01*
G37*
%LPC*%
G36*
X197510Y57508D02*
X197510Y57508D01*
X197013Y57608D01*
X196422Y57805D01*
X196129Y58000D01*
X195739Y58292D01*
X195556Y58658D01*
X195840Y59132D01*
X196224Y59611D01*
X196486Y59611D01*
X196975Y59318D01*
X196983Y59319D01*
X196984Y59313D01*
X197284Y59213D01*
X197289Y59215D01*
X197290Y59212D01*
X197790Y59112D01*
X197797Y59115D01*
X197800Y59111D01*
X198300Y59111D01*
X198311Y59119D01*
X198318Y59114D01*
X199318Y59514D01*
X199328Y59530D01*
X199339Y59530D01*
X199639Y59930D01*
X199639Y59940D01*
X199646Y59942D01*
X199846Y60442D01*
X199844Y60448D01*
X199848Y60450D01*
X199948Y60950D01*
X199945Y60957D01*
X199949Y60960D01*
X199949Y61460D01*
X199941Y61471D01*
X199946Y61478D01*
X199746Y61978D01*
X199743Y61980D01*
X199744Y61982D01*
X199544Y62382D01*
X199527Y62391D01*
X199525Y62402D01*
X199025Y62702D01*
X199022Y62702D01*
X199022Y62704D01*
X198622Y62904D01*
X198613Y62902D01*
X198613Y62903D01*
X198612Y62903D01*
X198610Y62908D01*
X198110Y63008D01*
X198103Y63005D01*
X198100Y63009D01*
X197600Y63009D01*
X197589Y63001D01*
X197582Y63006D01*
X196583Y62606D01*
X196309Y62515D01*
X195935Y62796D01*
X195549Y63277D01*
X195549Y63640D01*
X195932Y64023D01*
X196326Y64318D01*
X196715Y64513D01*
X197308Y64611D01*
X197309Y64612D01*
X197310Y64612D01*
X197800Y64710D01*
X198290Y64612D01*
X198297Y64615D01*
X198300Y64611D01*
X198691Y64611D01*
X199182Y64414D01*
X199678Y64216D01*
X200172Y63919D01*
X200568Y63623D01*
X200863Y63328D01*
X201157Y62936D01*
X201353Y62446D01*
X201452Y61950D01*
X201551Y61455D01*
X201551Y60469D01*
X201354Y59978D01*
X201356Y59972D01*
X201352Y59970D01*
X201254Y59481D01*
X200961Y59090D01*
X200663Y58692D01*
X200268Y58297D01*
X199874Y58002D01*
X199480Y57805D01*
X198986Y57607D01*
X198490Y57508D01*
X198000Y57410D01*
X197510Y57508D01*
G37*
%LPD*%
%LPC*%
G36*
X98525Y32101D02*
X98525Y32101D01*
X98240Y32481D01*
X98049Y32767D01*
X98049Y33236D01*
X98331Y33611D01*
X98818Y33806D01*
X98819Y33808D01*
X98821Y33807D01*
X102521Y35507D01*
X102521Y35508D01*
X102522Y35508D01*
X102722Y35608D01*
X102726Y35615D01*
X102734Y35616D01*
X102732Y35629D01*
X102748Y35661D01*
X102728Y35671D01*
X102725Y35694D01*
X102225Y35994D01*
X102221Y35994D01*
X102220Y35997D01*
X98821Y37496D01*
X98426Y37694D01*
X98049Y37977D01*
X98049Y38344D01*
X98243Y38925D01*
X98520Y39203D01*
X98891Y39203D01*
X99380Y39007D01*
X104378Y36508D01*
X104381Y36509D01*
X104382Y36506D01*
X104862Y36314D01*
X105051Y35843D01*
X105051Y35364D01*
X104862Y34987D01*
X104377Y34695D01*
X99380Y32297D01*
X98891Y32101D01*
X98525Y32101D01*
G37*
%LPD*%
%LPC*%
G36*
X156003Y80199D02*
X156003Y80199D01*
X155315Y80298D01*
X154727Y80592D01*
X154239Y80982D01*
X153946Y81569D01*
X153749Y82158D01*
X153749Y82946D01*
X153847Y83535D01*
X154142Y84123D01*
X154534Y84613D01*
X155122Y85005D01*
X155708Y85201D01*
X156392Y85201D01*
X156978Y85005D01*
X157566Y84613D01*
X157958Y84123D01*
X158254Y83531D01*
X158451Y82942D01*
X158451Y81570D01*
X157769Y80888D01*
X157175Y80493D01*
X156588Y80199D01*
X156003Y80199D01*
G37*
%LPD*%
%LPC*%
G36*
X174905Y24769D02*
X174905Y24769D01*
X174433Y24864D01*
X174249Y25232D01*
X174249Y31008D01*
X174433Y31376D01*
X174900Y31470D01*
X175367Y31376D01*
X175551Y31008D01*
X175551Y28920D01*
X175587Y28873D01*
X175594Y28878D01*
X175600Y28871D01*
X180695Y28871D01*
X181160Y28778D01*
X181251Y28414D01*
X181251Y27832D01*
X181063Y27457D01*
X180688Y27269D01*
X175600Y27269D01*
X175553Y27233D01*
X175558Y27226D01*
X175551Y27220D01*
X175551Y25132D01*
X175370Y24769D01*
X174905Y24769D01*
G37*
%LPD*%
%LPC*%
G36*
X32563Y44139D02*
X32563Y44139D01*
X32178Y44523D01*
X32086Y44895D01*
X32276Y45370D01*
X33369Y46463D01*
X33373Y46490D01*
X33383Y46498D01*
X33383Y46598D01*
X33367Y46619D01*
X33369Y46633D01*
X32276Y47726D01*
X32086Y48202D01*
X32178Y48573D01*
X32563Y48957D01*
X32940Y49146D01*
X33309Y49054D01*
X33698Y48665D01*
X34397Y47866D01*
X34437Y47857D01*
X34446Y47850D01*
X34846Y47950D01*
X34858Y47965D01*
X34869Y47963D01*
X35959Y49054D01*
X36328Y49146D01*
X36705Y48957D01*
X37090Y48573D01*
X37181Y48206D01*
X36895Y47729D01*
X35799Y46633D01*
X35791Y46574D01*
X35800Y46573D01*
X35799Y46563D01*
X36098Y46265D01*
X36796Y45467D01*
X37089Y45076D01*
X37179Y44713D01*
X36802Y44335D01*
X36418Y44047D01*
X36054Y44047D01*
X35669Y44433D01*
X35666Y44433D01*
X35666Y44435D01*
X34866Y45135D01*
X34862Y45135D01*
X34861Y45139D01*
X34561Y45339D01*
X34502Y45335D01*
X34502Y45334D01*
X34501Y45334D01*
X33303Y44236D01*
X32929Y43956D01*
X32563Y44139D01*
G37*
%LPD*%
%LPC*%
G36*
X34329Y87481D02*
X34329Y87481D01*
X33848Y87867D01*
X33570Y88237D01*
X33754Y88606D01*
X34050Y89001D01*
X34749Y89800D01*
X34750Y89808D01*
X34751Y89824D01*
X34761Y89832D01*
X34761Y90332D01*
X34745Y90353D01*
X34747Y90367D01*
X33647Y91467D01*
X33611Y91472D01*
X33603Y91478D01*
X33626Y91485D01*
X33660Y91531D01*
X33661Y91532D01*
X33661Y91818D01*
X33949Y92298D01*
X34328Y92583D01*
X34695Y92583D01*
X35178Y92196D01*
X35875Y91400D01*
X35884Y91398D01*
X35885Y91391D01*
X36185Y91191D01*
X36244Y91195D01*
X36244Y91198D01*
X36247Y91197D01*
X37344Y92295D01*
X37723Y92579D01*
X38090Y92487D01*
X38573Y92100D01*
X38757Y91732D01*
X38571Y91361D01*
X37477Y90267D01*
X37474Y90240D01*
X37463Y90232D01*
X37463Y89832D01*
X37478Y89812D01*
X37476Y89799D01*
X38571Y88604D01*
X38757Y88232D01*
X38573Y87864D01*
X38095Y87481D01*
X37728Y87481D01*
X37343Y87770D01*
X36245Y88768D01*
X36186Y88774D01*
X36186Y88771D01*
X36182Y88771D01*
X35782Y88471D01*
X35781Y88466D01*
X35777Y88467D01*
X35082Y87771D01*
X34598Y87481D01*
X34329Y87481D01*
G37*
%LPD*%
%LPC*%
G36*
X33987Y66237D02*
X33987Y66237D01*
X33599Y66625D01*
X33416Y66991D01*
X33696Y67365D01*
X34794Y68563D01*
X34797Y68588D01*
X34807Y68596D01*
X34807Y68696D01*
X34791Y68717D01*
X34793Y68731D01*
X33700Y69824D01*
X33507Y70305D01*
X33507Y70576D01*
X33987Y71055D01*
X34364Y71244D01*
X34733Y71152D01*
X35122Y70763D01*
X35821Y69964D01*
X35850Y69958D01*
X35858Y69947D01*
X36158Y69947D01*
X36179Y69963D01*
X36193Y69961D01*
X37287Y71055D01*
X37658Y71241D01*
X38031Y71054D01*
X38514Y70668D01*
X38605Y70304D01*
X38319Y69827D01*
X37223Y68731D01*
X37215Y68672D01*
X37218Y68671D01*
X37217Y68669D01*
X37417Y68369D01*
X37422Y68367D01*
X37421Y68364D01*
X38121Y67564D01*
X38123Y67563D01*
X38123Y67561D01*
X38509Y67176D01*
X38509Y66812D01*
X38223Y66431D01*
X37842Y66145D01*
X37478Y66145D01*
X37093Y66531D01*
X37090Y66531D01*
X37090Y66533D01*
X36290Y67233D01*
X36281Y67234D01*
X36280Y67240D01*
X35880Y67440D01*
X35827Y67430D01*
X35823Y67431D01*
X34726Y66333D01*
X34353Y66054D01*
X33987Y66237D01*
G37*
%LPD*%
%LPC*%
G36*
X144737Y107520D02*
X144737Y107520D01*
X143646Y107793D01*
X143432Y107936D01*
X143022Y108345D01*
X142951Y108560D01*
X142943Y108574D01*
X142940Y108589D01*
X142864Y108702D01*
X142860Y108708D01*
X142859Y108708D01*
X142859Y108709D01*
X142722Y108845D01*
X142670Y109002D01*
X142670Y109240D01*
X142667Y109255D01*
X142669Y109270D01*
X142632Y109402D01*
X142631Y109409D01*
X142630Y109409D01*
X142630Y109410D01*
X142570Y109530D01*
X142570Y109740D01*
X142567Y109755D01*
X142569Y109770D01*
X142545Y109856D01*
X142545Y109864D01*
X142541Y109872D01*
X142532Y109902D01*
X142531Y109909D01*
X142530Y109909D01*
X142530Y109910D01*
X142470Y110030D01*
X142470Y111141D01*
X142486Y111131D01*
X142548Y111087D01*
X142560Y111085D01*
X142568Y111080D01*
X142605Y111076D01*
X142690Y111060D01*
X142800Y111060D01*
X143120Y110900D01*
X143135Y110896D01*
X143148Y110887D01*
X143282Y110861D01*
X143289Y110860D01*
X143290Y110860D01*
X143700Y110860D01*
X143820Y110800D01*
X143835Y110796D01*
X143848Y110787D01*
X143982Y110761D01*
X143989Y110760D01*
X143990Y110760D01*
X144328Y110760D01*
X144570Y110679D01*
X144607Y110676D01*
X144690Y110660D01*
X145028Y110660D01*
X145270Y110579D01*
X145307Y110576D01*
X145390Y110560D01*
X145500Y110560D01*
X145620Y110500D01*
X145635Y110496D01*
X145648Y110487D01*
X145782Y110461D01*
X145789Y110460D01*
X145790Y110460D01*
X145900Y110460D01*
X146765Y110028D01*
X147078Y109715D01*
X147210Y109450D01*
X147210Y109140D01*
X147218Y109103D01*
X147229Y109020D01*
X147279Y108869D01*
X147250Y108810D01*
X147246Y108795D01*
X147237Y108782D01*
X147223Y108710D01*
X147217Y108695D01*
X147217Y108679D01*
X147211Y108648D01*
X147210Y108642D01*
X147210Y108641D01*
X147210Y108640D01*
X147210Y108502D01*
X147129Y108260D01*
X147126Y108223D01*
X147110Y108140D01*
X147110Y108130D01*
X147078Y108065D01*
X146865Y107853D01*
X146805Y107823D01*
X146720Y107780D01*
X146691Y107756D01*
X146621Y107709D01*
X146565Y107653D01*
X146500Y107620D01*
X146390Y107620D01*
X146375Y107617D01*
X146360Y107619D01*
X146228Y107582D01*
X146221Y107581D01*
X146221Y107580D01*
X146220Y107580D01*
X146100Y107520D01*
X144737Y107520D01*
G37*
%LPD*%
%LPC*%
G36*
X175105Y40569D02*
X175105Y40569D01*
X174624Y40665D01*
X174346Y40944D01*
X174250Y41519D01*
X174345Y41992D01*
X174716Y42271D01*
X180785Y42271D01*
X181062Y42086D01*
X181251Y41708D01*
X181251Y41035D01*
X181066Y40758D01*
X180688Y40569D01*
X175105Y40569D01*
G37*
%LPD*%
%LPC*%
G36*
X210515Y57509D02*
X210515Y57509D01*
X210244Y57690D01*
X210149Y58165D01*
X210149Y64230D01*
X210515Y64413D01*
X211099Y64510D01*
X211567Y64416D01*
X211751Y64048D01*
X211751Y57972D01*
X211567Y57604D01*
X211095Y57509D01*
X210515Y57509D01*
G37*
%LPD*%
%LPC*%
G36*
X116009Y80199D02*
X116009Y80199D01*
X115531Y80391D01*
X115244Y80773D01*
X115048Y81361D01*
X114949Y82253D01*
X114949Y83247D01*
X115049Y84044D01*
X115019Y84095D01*
X115013Y84092D01*
X115010Y84098D01*
X114992Y84102D01*
X114998Y84105D01*
X115001Y84105D01*
X115009Y84111D01*
X115044Y84128D01*
X115042Y84133D01*
X115047Y84134D01*
X115244Y84727D01*
X115531Y85109D01*
X116009Y85301D01*
X116484Y85301D01*
X116865Y85015D01*
X117155Y84628D01*
X117351Y83941D01*
X117451Y82950D01*
X117351Y81956D01*
X117252Y81165D01*
X116959Y80579D01*
X116676Y80295D01*
X116195Y80199D01*
X116009Y80199D01*
G37*
%LPD*%
G36*
X28629Y110963D02*
X28629Y110963D01*
X28629Y110964D01*
X28630Y110964D01*
X28730Y111364D01*
X28726Y111372D01*
X28731Y111376D01*
X28731Y114476D01*
X28710Y114504D01*
X28709Y114517D01*
X28409Y114717D01*
X28394Y114716D01*
X28391Y114719D01*
X28387Y114719D01*
X28382Y114725D01*
X27882Y114725D01*
X27876Y114721D01*
X27872Y114724D01*
X26872Y114524D01*
X26862Y114513D01*
X26852Y114515D01*
X26452Y114215D01*
X26450Y114206D01*
X26443Y114206D01*
X26143Y113806D01*
X26143Y113799D01*
X26140Y113797D01*
X26141Y113796D01*
X26136Y113794D01*
X25936Y113294D01*
X25938Y113288D01*
X25934Y113286D01*
X25834Y112786D01*
X25840Y112773D01*
X25834Y112766D01*
X25934Y112266D01*
X25939Y112262D01*
X25936Y112258D01*
X26136Y111758D01*
X26148Y111750D01*
X26147Y111741D01*
X26847Y111041D01*
X26859Y111040D01*
X26860Y111032D01*
X27060Y110932D01*
X27076Y110935D01*
X27082Y110927D01*
X28582Y110927D01*
X28629Y110963D01*
G37*
G36*
X77476Y25953D02*
X77476Y25953D01*
X77480Y25950D01*
X77980Y26050D01*
X77984Y26055D01*
X77988Y26052D01*
X78488Y26252D01*
X78496Y26264D01*
X78505Y26263D01*
X79205Y26963D01*
X79206Y26975D01*
X79214Y26976D01*
X79314Y27176D01*
X79311Y27192D01*
X79319Y27198D01*
X79319Y28698D01*
X79283Y28745D01*
X79276Y28740D01*
X79270Y28747D01*
X75770Y28747D01*
X75742Y28726D01*
X75729Y28725D01*
X75529Y28425D01*
X75530Y28405D01*
X75521Y28398D01*
X75521Y27898D01*
X75525Y27892D01*
X75522Y27888D01*
X75722Y26888D01*
X75733Y26878D01*
X75731Y26868D01*
X76031Y26468D01*
X76040Y26466D01*
X76040Y26459D01*
X76440Y26159D01*
X76450Y26159D01*
X76452Y26152D01*
X76952Y25952D01*
X76965Y25956D01*
X76970Y25949D01*
X77470Y25949D01*
X77476Y25953D01*
G37*
G36*
X127206Y35261D02*
X127206Y35261D01*
X127210Y35258D01*
X127710Y35358D01*
X127720Y35369D01*
X127730Y35367D01*
X128130Y35667D01*
X128131Y35672D01*
X128135Y35671D01*
X128835Y36371D01*
X128839Y36398D01*
X128849Y36406D01*
X128849Y37606D01*
X128844Y37613D01*
X128848Y37618D01*
X128748Y38018D01*
X128701Y38055D01*
X128701Y38054D01*
X128700Y38055D01*
X125200Y38055D01*
X125153Y38019D01*
X125153Y38018D01*
X125152Y38018D01*
X125052Y37618D01*
X125056Y37610D01*
X125051Y37606D01*
X125051Y37006D01*
X125055Y37000D01*
X125052Y36996D01*
X125152Y36496D01*
X125159Y36490D01*
X125156Y36484D01*
X125356Y36084D01*
X125366Y36079D01*
X125365Y36071D01*
X125765Y35671D01*
X125770Y35670D01*
X125770Y35667D01*
X126170Y35367D01*
X126186Y35367D01*
X126190Y35358D01*
X126690Y35258D01*
X126697Y35261D01*
X126700Y35257D01*
X127200Y35257D01*
X127206Y35261D01*
G37*
G36*
X43021Y89090D02*
X43021Y89090D01*
X43028Y89085D01*
X43328Y89185D01*
X43337Y89199D01*
X43347Y89197D01*
X43647Y89497D01*
X43648Y89509D01*
X43656Y89510D01*
X43856Y89910D01*
X43854Y89921D01*
X43861Y89924D01*
X43961Y90524D01*
X43958Y90529D01*
X43961Y90532D01*
X43961Y91332D01*
X43958Y91336D01*
X43961Y91339D01*
X43861Y92039D01*
X43859Y92040D01*
X43860Y92042D01*
X43760Y92542D01*
X43745Y92555D01*
X43747Y92567D01*
X43447Y92867D01*
X43440Y92868D01*
X43439Y92873D01*
X43139Y93073D01*
X43123Y93072D01*
X43119Y93072D01*
X43112Y93081D01*
X42712Y93081D01*
X42703Y93074D01*
X42696Y93079D01*
X42396Y92979D01*
X42381Y92957D01*
X42368Y92954D01*
X42168Y92554D01*
X42169Y92551D01*
X42166Y92550D01*
X41966Y92050D01*
X41968Y92043D01*
X41963Y92040D01*
X41863Y91440D01*
X41866Y91435D01*
X41863Y91432D01*
X41863Y90632D01*
X41866Y90627D01*
X41863Y90624D01*
X41963Y90024D01*
X41969Y90018D01*
X41966Y90014D01*
X42166Y89514D01*
X42178Y89506D01*
X42177Y89497D01*
X42477Y89197D01*
X42493Y89195D01*
X42496Y89185D01*
X42796Y89085D01*
X42807Y89089D01*
X42812Y89083D01*
X43012Y89083D01*
X43021Y89090D01*
G37*
G36*
X42967Y67754D02*
X42967Y67754D01*
X42974Y67749D01*
X43274Y67849D01*
X43285Y67866D01*
X43297Y67866D01*
X43597Y68266D01*
X43597Y68273D01*
X43600Y68275D01*
X43597Y68278D01*
X43597Y68282D01*
X43606Y68286D01*
X43706Y68786D01*
X43706Y68787D01*
X43707Y68788D01*
X43807Y69388D01*
X43804Y69393D01*
X43807Y69396D01*
X43807Y70196D01*
X43804Y70201D01*
X43807Y70204D01*
X43707Y70804D01*
X43701Y70810D01*
X43704Y70814D01*
X43504Y71314D01*
X43497Y71318D01*
X43499Y71323D01*
X43299Y71623D01*
X43275Y71632D01*
X43270Y71644D01*
X42870Y71744D01*
X42862Y71740D01*
X42858Y71745D01*
X42458Y71745D01*
X42446Y71736D01*
X42444Y71736D01*
X42441Y71733D01*
X42431Y71737D01*
X42131Y71537D01*
X42125Y71520D01*
X42114Y71518D01*
X41914Y71118D01*
X41915Y71112D01*
X41911Y71109D01*
X41912Y71107D01*
X41910Y71106D01*
X41810Y70606D01*
X41811Y70603D01*
X41809Y70602D01*
X41709Y69802D01*
X41714Y69794D01*
X41709Y69789D01*
X41809Y69089D01*
X41810Y69088D01*
X41809Y69088D01*
X41909Y68488D01*
X41917Y68481D01*
X41914Y68474D01*
X42114Y68074D01*
X42130Y68066D01*
X42131Y68055D01*
X42431Y67855D01*
X42440Y67856D01*
X42442Y67849D01*
X42742Y67749D01*
X42753Y67753D01*
X42758Y67747D01*
X42958Y67747D01*
X42967Y67754D01*
G37*
G36*
X41538Y45656D02*
X41538Y45656D01*
X41546Y45650D01*
X41946Y45750D01*
X41965Y45773D01*
X41978Y45776D01*
X42178Y46176D01*
X42177Y46179D01*
X42180Y46180D01*
X42380Y46680D01*
X42376Y46693D01*
X42383Y46698D01*
X42383Y48098D01*
X42380Y48102D01*
X42383Y48105D01*
X42283Y48805D01*
X42275Y48813D01*
X42278Y48820D01*
X42078Y49220D01*
X42074Y49222D01*
X42075Y49225D01*
X41875Y49525D01*
X41851Y49534D01*
X41846Y49546D01*
X41446Y49646D01*
X41438Y49642D01*
X41434Y49647D01*
X41134Y49647D01*
X41122Y49638D01*
X41120Y49638D01*
X41117Y49635D01*
X41107Y49639D01*
X40807Y49439D01*
X40803Y49428D01*
X40795Y49428D01*
X40495Y49028D01*
X40495Y49017D01*
X40487Y49011D01*
X40489Y49008D01*
X40485Y49006D01*
X40385Y48406D01*
X40388Y48401D01*
X40385Y48398D01*
X40385Y46998D01*
X40388Y46993D01*
X40385Y46990D01*
X40485Y46390D01*
X40493Y46383D01*
X40490Y46376D01*
X40690Y45976D01*
X40706Y45968D01*
X40707Y45957D01*
X41007Y45757D01*
X41020Y45758D01*
X41024Y45750D01*
X41524Y45650D01*
X41538Y45656D01*
G37*
%LPC*%
G36*
X144816Y82799D02*
X144816Y82799D01*
X144437Y83084D01*
X144149Y83564D01*
X144149Y84235D01*
X144532Y84809D01*
X145108Y85001D01*
X146384Y85001D01*
X146751Y84725D01*
X146751Y82799D01*
X144816Y82799D01*
G37*
%LPD*%
%LPC*%
G36*
X91608Y91629D02*
X91608Y91629D01*
X91029Y91822D01*
X90647Y92300D01*
X90551Y93071D01*
X90839Y93648D01*
X91317Y94031D01*
X91988Y94031D01*
X92568Y93741D01*
X92951Y93263D01*
X92951Y92592D01*
X92661Y92012D01*
X92183Y91629D01*
X91608Y91629D01*
G37*
%LPD*%
%LPC*%
G36*
X160507Y91629D02*
X160507Y91629D01*
X159829Y91823D01*
X159449Y92297D01*
X159449Y93072D01*
X159642Y93651D01*
X160117Y94031D01*
X160788Y94031D01*
X161368Y93741D01*
X161751Y93263D01*
X161751Y92588D01*
X161559Y92012D01*
X160985Y91629D01*
X160507Y91629D01*
G37*
%LPD*%
%LPC*%
G36*
X145807Y91629D02*
X145807Y91629D01*
X145129Y91823D01*
X144749Y92297D01*
X144749Y93072D01*
X144942Y93651D01*
X145417Y94031D01*
X146088Y94031D01*
X146668Y93741D01*
X147051Y93263D01*
X147051Y92588D01*
X146859Y92012D01*
X146285Y91629D01*
X145807Y91629D01*
G37*
%LPD*%
%LPC*%
G36*
X97907Y80099D02*
X97907Y80099D01*
X97234Y80291D01*
X96951Y80858D01*
X97046Y81426D01*
X97520Y81901D01*
X98192Y81901D01*
X98768Y81709D01*
X99148Y81139D01*
X99054Y80574D01*
X98580Y80099D01*
X97907Y80099D01*
G37*
%LPD*%
G36*
X22984Y67666D02*
X22984Y67666D01*
X22997Y67666D01*
X23297Y68066D01*
X23297Y68074D01*
X23301Y68077D01*
X23297Y68081D01*
X23297Y68097D01*
X23306Y68108D01*
X23206Y68508D01*
X23188Y68523D01*
X23188Y68535D01*
X22788Y68835D01*
X22772Y68835D01*
X22768Y68844D01*
X22268Y68944D01*
X22242Y68932D01*
X22228Y68935D01*
X21828Y68635D01*
X21822Y68611D01*
X21810Y68606D01*
X21710Y68106D01*
X21722Y68080D01*
X21719Y68066D01*
X22019Y67666D01*
X22050Y67658D01*
X22058Y67647D01*
X22958Y67647D01*
X22984Y67666D01*
G37*
%LPC*%
G36*
X97353Y84478D02*
X97353Y84478D01*
X97446Y85218D01*
X98004Y85497D01*
X98565Y85310D01*
X98844Y84752D01*
X98570Y84295D01*
X97908Y84201D01*
X97353Y84478D01*
G37*
%LPD*%
%LPC*%
G36*
X116714Y93329D02*
X116714Y93329D01*
X116259Y93602D01*
X116437Y94136D01*
X117095Y94230D01*
X117673Y94037D01*
X118137Y93574D01*
X117974Y93329D01*
X116714Y93329D01*
G37*
%LPD*%
G36*
X127516Y28259D02*
X127516Y28259D01*
X127532Y28283D01*
X127543Y28291D01*
X127540Y28295D01*
X127546Y28303D01*
X127549Y28306D01*
X127549Y29306D01*
X127546Y29310D01*
X127548Y29315D01*
X127539Y29320D01*
X127513Y29353D01*
X127497Y29341D01*
X127478Y29350D01*
X127080Y29151D01*
X126082Y28752D01*
X126075Y28741D01*
X126064Y28739D01*
X126066Y28726D01*
X126051Y28701D01*
X126073Y28687D01*
X126078Y28662D01*
X126278Y28562D01*
X126280Y28562D01*
X126280Y28561D01*
X127180Y28161D01*
X127205Y28167D01*
X127216Y28159D01*
X127516Y28259D01*
G37*
D10*
X190500Y66040D02*
X215900Y66040D01*
X190500Y86360D02*
X190367Y86358D01*
X190234Y86352D01*
X190102Y86343D01*
X189969Y86329D01*
X189837Y86312D01*
X189706Y86291D01*
X189575Y86266D01*
X189446Y86237D01*
X189317Y86204D01*
X189189Y86168D01*
X189062Y86128D01*
X188936Y86084D01*
X188812Y86037D01*
X188689Y85986D01*
X188568Y85932D01*
X188448Y85874D01*
X188330Y85812D01*
X188214Y85747D01*
X188100Y85679D01*
X187988Y85608D01*
X187878Y85533D01*
X187770Y85455D01*
X187664Y85374D01*
X187561Y85290D01*
X187461Y85203D01*
X187363Y85114D01*
X187267Y85021D01*
X187174Y84925D01*
X187085Y84827D01*
X186998Y84727D01*
X186914Y84624D01*
X186833Y84518D01*
X186755Y84410D01*
X186680Y84300D01*
X186609Y84188D01*
X186541Y84074D01*
X186476Y83958D01*
X186414Y83840D01*
X186356Y83720D01*
X186302Y83599D01*
X186251Y83476D01*
X186204Y83352D01*
X186160Y83226D01*
X186120Y83099D01*
X186084Y82971D01*
X186051Y82842D01*
X186022Y82713D01*
X185997Y82582D01*
X185976Y82451D01*
X185959Y82319D01*
X185945Y82186D01*
X185936Y82054D01*
X185930Y81921D01*
X185928Y81788D01*
X215900Y86360D02*
X216033Y86358D01*
X216166Y86352D01*
X216298Y86343D01*
X216431Y86329D01*
X216563Y86312D01*
X216694Y86291D01*
X216825Y86266D01*
X216954Y86237D01*
X217083Y86204D01*
X217211Y86168D01*
X217338Y86128D01*
X217464Y86084D01*
X217588Y86037D01*
X217711Y85986D01*
X217832Y85932D01*
X217952Y85874D01*
X218070Y85812D01*
X218186Y85747D01*
X218300Y85679D01*
X218412Y85608D01*
X218522Y85533D01*
X218630Y85455D01*
X218736Y85374D01*
X218839Y85290D01*
X218939Y85203D01*
X219037Y85114D01*
X219133Y85021D01*
X219226Y84925D01*
X219315Y84827D01*
X219402Y84727D01*
X219486Y84624D01*
X219567Y84518D01*
X219645Y84410D01*
X219720Y84300D01*
X219791Y84188D01*
X219859Y84074D01*
X219924Y83958D01*
X219986Y83840D01*
X220044Y83720D01*
X220098Y83599D01*
X220149Y83476D01*
X220196Y83352D01*
X220240Y83226D01*
X220280Y83099D01*
X220316Y82971D01*
X220349Y82842D01*
X220378Y82713D01*
X220403Y82582D01*
X220424Y82451D01*
X220441Y82319D01*
X220455Y82186D01*
X220464Y82054D01*
X220470Y81921D01*
X220472Y81788D01*
X220472Y70612D02*
X220470Y70479D01*
X220464Y70346D01*
X220455Y70214D01*
X220441Y70081D01*
X220424Y69949D01*
X220403Y69818D01*
X220378Y69687D01*
X220349Y69558D01*
X220316Y69429D01*
X220280Y69301D01*
X220240Y69174D01*
X220196Y69048D01*
X220149Y68924D01*
X220098Y68801D01*
X220044Y68680D01*
X219986Y68560D01*
X219924Y68442D01*
X219859Y68326D01*
X219791Y68212D01*
X219720Y68100D01*
X219645Y67990D01*
X219567Y67882D01*
X219486Y67776D01*
X219402Y67673D01*
X219315Y67573D01*
X219226Y67475D01*
X219133Y67379D01*
X219037Y67286D01*
X218939Y67197D01*
X218839Y67110D01*
X218736Y67026D01*
X218630Y66945D01*
X218522Y66867D01*
X218412Y66792D01*
X218300Y66721D01*
X218186Y66653D01*
X218070Y66588D01*
X217952Y66526D01*
X217832Y66468D01*
X217711Y66414D01*
X217588Y66363D01*
X217464Y66316D01*
X217338Y66272D01*
X217211Y66232D01*
X217083Y66196D01*
X216954Y66163D01*
X216825Y66134D01*
X216694Y66109D01*
X216563Y66088D01*
X216431Y66071D01*
X216298Y66057D01*
X216166Y66048D01*
X216033Y66042D01*
X215900Y66040D01*
X190500Y66040D02*
X190367Y66042D01*
X190234Y66048D01*
X190102Y66057D01*
X189969Y66071D01*
X189837Y66088D01*
X189706Y66109D01*
X189575Y66134D01*
X189446Y66163D01*
X189317Y66196D01*
X189189Y66232D01*
X189062Y66272D01*
X188936Y66316D01*
X188812Y66363D01*
X188689Y66414D01*
X188568Y66468D01*
X188448Y66526D01*
X188330Y66588D01*
X188214Y66653D01*
X188100Y66721D01*
X187988Y66792D01*
X187878Y66867D01*
X187770Y66945D01*
X187664Y67026D01*
X187561Y67110D01*
X187461Y67197D01*
X187363Y67286D01*
X187267Y67379D01*
X187174Y67475D01*
X187085Y67573D01*
X186998Y67673D01*
X186914Y67776D01*
X186833Y67882D01*
X186755Y67990D01*
X186680Y68100D01*
X186609Y68212D01*
X186541Y68326D01*
X186476Y68442D01*
X186414Y68560D01*
X186356Y68680D01*
X186302Y68801D01*
X186251Y68924D01*
X186204Y69048D01*
X186160Y69174D01*
X186120Y69301D01*
X186084Y69429D01*
X186051Y69558D01*
X186022Y69687D01*
X185997Y69818D01*
X185976Y69949D01*
X185959Y70081D01*
X185945Y70214D01*
X185936Y70346D01*
X185930Y70479D01*
X185928Y70612D01*
X185928Y81788D01*
X220472Y81788D02*
X220472Y70612D01*
X215900Y86360D02*
X190500Y86360D01*
X66548Y122428D02*
X51308Y122428D01*
X71120Y106680D02*
X71118Y106547D01*
X71112Y106414D01*
X71103Y106282D01*
X71089Y106149D01*
X71072Y106017D01*
X71051Y105886D01*
X71026Y105755D01*
X70997Y105626D01*
X70964Y105497D01*
X70928Y105369D01*
X70888Y105242D01*
X70844Y105116D01*
X70797Y104992D01*
X70746Y104869D01*
X70692Y104748D01*
X70634Y104628D01*
X70572Y104510D01*
X70507Y104394D01*
X70439Y104280D01*
X70368Y104168D01*
X70293Y104058D01*
X70215Y103950D01*
X70134Y103844D01*
X70050Y103741D01*
X69963Y103641D01*
X69874Y103543D01*
X69781Y103447D01*
X69685Y103354D01*
X69587Y103265D01*
X69487Y103178D01*
X69384Y103094D01*
X69278Y103013D01*
X69170Y102935D01*
X69060Y102860D01*
X68948Y102789D01*
X68834Y102721D01*
X68718Y102656D01*
X68600Y102594D01*
X68480Y102536D01*
X68359Y102482D01*
X68236Y102431D01*
X68112Y102384D01*
X67986Y102340D01*
X67859Y102300D01*
X67731Y102264D01*
X67602Y102231D01*
X67473Y102202D01*
X67342Y102177D01*
X67211Y102156D01*
X67079Y102139D01*
X66946Y102125D01*
X66814Y102116D01*
X66681Y102110D01*
X66548Y102108D01*
X51308Y102108D02*
X51175Y102110D01*
X51042Y102116D01*
X50910Y102125D01*
X50777Y102139D01*
X50645Y102156D01*
X50514Y102177D01*
X50383Y102202D01*
X50254Y102231D01*
X50125Y102264D01*
X49997Y102300D01*
X49870Y102340D01*
X49744Y102384D01*
X49620Y102431D01*
X49497Y102482D01*
X49376Y102536D01*
X49256Y102594D01*
X49138Y102656D01*
X49022Y102721D01*
X48908Y102789D01*
X48796Y102860D01*
X48686Y102935D01*
X48578Y103013D01*
X48472Y103094D01*
X48369Y103178D01*
X48269Y103265D01*
X48171Y103354D01*
X48075Y103447D01*
X47982Y103543D01*
X47893Y103641D01*
X47806Y103741D01*
X47722Y103844D01*
X47641Y103950D01*
X47563Y104058D01*
X47488Y104168D01*
X47417Y104280D01*
X47349Y104394D01*
X47284Y104510D01*
X47222Y104628D01*
X47164Y104748D01*
X47110Y104869D01*
X47059Y104992D01*
X47012Y105116D01*
X46968Y105242D01*
X46928Y105369D01*
X46892Y105497D01*
X46859Y105626D01*
X46830Y105755D01*
X46805Y105886D01*
X46784Y106017D01*
X46767Y106149D01*
X46753Y106282D01*
X46744Y106414D01*
X46738Y106547D01*
X46736Y106680D01*
X46736Y117856D02*
X46738Y117989D01*
X46744Y118122D01*
X46753Y118254D01*
X46767Y118387D01*
X46784Y118519D01*
X46805Y118650D01*
X46830Y118781D01*
X46859Y118910D01*
X46892Y119039D01*
X46928Y119167D01*
X46968Y119294D01*
X47012Y119420D01*
X47059Y119544D01*
X47110Y119667D01*
X47164Y119788D01*
X47222Y119908D01*
X47284Y120026D01*
X47349Y120142D01*
X47417Y120256D01*
X47488Y120368D01*
X47563Y120478D01*
X47641Y120586D01*
X47722Y120692D01*
X47806Y120795D01*
X47893Y120895D01*
X47982Y120993D01*
X48075Y121089D01*
X48171Y121182D01*
X48269Y121271D01*
X48369Y121358D01*
X48472Y121442D01*
X48578Y121523D01*
X48686Y121601D01*
X48796Y121676D01*
X48908Y121747D01*
X49022Y121815D01*
X49138Y121880D01*
X49256Y121942D01*
X49376Y122000D01*
X49497Y122054D01*
X49620Y122105D01*
X49744Y122152D01*
X49870Y122196D01*
X49997Y122236D01*
X50125Y122272D01*
X50254Y122305D01*
X50383Y122334D01*
X50514Y122359D01*
X50645Y122380D01*
X50777Y122397D01*
X50910Y122411D01*
X51042Y122420D01*
X51175Y122426D01*
X51308Y122428D01*
X66548Y122428D02*
X66681Y122426D01*
X66814Y122420D01*
X66946Y122411D01*
X67079Y122397D01*
X67211Y122380D01*
X67342Y122359D01*
X67473Y122334D01*
X67602Y122305D01*
X67731Y122272D01*
X67859Y122236D01*
X67986Y122196D01*
X68112Y122152D01*
X68236Y122105D01*
X68359Y122054D01*
X68480Y122000D01*
X68600Y121942D01*
X68718Y121880D01*
X68834Y121815D01*
X68948Y121747D01*
X69060Y121676D01*
X69170Y121601D01*
X69278Y121523D01*
X69384Y121442D01*
X69487Y121358D01*
X69587Y121271D01*
X69685Y121182D01*
X69781Y121089D01*
X69874Y120993D01*
X69963Y120895D01*
X70050Y120795D01*
X70134Y120692D01*
X70215Y120586D01*
X70293Y120478D01*
X70368Y120368D01*
X70439Y120256D01*
X70507Y120142D01*
X70572Y120026D01*
X70634Y119908D01*
X70692Y119788D01*
X70746Y119667D01*
X70797Y119544D01*
X70844Y119420D01*
X70888Y119294D01*
X70928Y119167D01*
X70964Y119039D01*
X70997Y118910D01*
X71026Y118781D01*
X71051Y118650D01*
X71072Y118519D01*
X71089Y118387D01*
X71103Y118254D01*
X71112Y118122D01*
X71118Y117989D01*
X71120Y117856D01*
X71120Y106680D01*
X46736Y106680D02*
X46736Y117856D01*
X51308Y102108D02*
X66548Y102108D01*
X120904Y74422D02*
X132334Y74422D01*
X132334Y52324D02*
X120904Y52324D01*
D11*
X116332Y50546D03*
D12*
X67564Y59436D02*
X50292Y59436D01*
X47752Y77216D02*
X47754Y77316D01*
X47760Y77415D01*
X47770Y77515D01*
X47783Y77613D01*
X47801Y77712D01*
X47822Y77809D01*
X47847Y77905D01*
X47876Y78001D01*
X47909Y78095D01*
X47945Y78188D01*
X47985Y78279D01*
X48029Y78369D01*
X48076Y78457D01*
X48126Y78543D01*
X48180Y78627D01*
X48237Y78709D01*
X48297Y78788D01*
X48361Y78866D01*
X48427Y78940D01*
X48496Y79012D01*
X48568Y79081D01*
X48642Y79147D01*
X48720Y79211D01*
X48799Y79271D01*
X48881Y79328D01*
X48965Y79382D01*
X49051Y79432D01*
X49139Y79479D01*
X49229Y79523D01*
X49320Y79563D01*
X49413Y79599D01*
X49507Y79632D01*
X49603Y79661D01*
X49699Y79686D01*
X49796Y79707D01*
X49895Y79725D01*
X49993Y79738D01*
X50093Y79748D01*
X50192Y79754D01*
X50292Y79756D01*
X67564Y79756D02*
X67664Y79754D01*
X67763Y79748D01*
X67863Y79738D01*
X67961Y79725D01*
X68060Y79707D01*
X68157Y79686D01*
X68253Y79661D01*
X68349Y79632D01*
X68443Y79599D01*
X68536Y79563D01*
X68627Y79523D01*
X68717Y79479D01*
X68805Y79432D01*
X68891Y79382D01*
X68975Y79328D01*
X69057Y79271D01*
X69136Y79211D01*
X69214Y79147D01*
X69288Y79081D01*
X69360Y79012D01*
X69429Y78940D01*
X69495Y78866D01*
X69559Y78788D01*
X69619Y78709D01*
X69676Y78627D01*
X69730Y78543D01*
X69780Y78457D01*
X69827Y78369D01*
X69871Y78279D01*
X69911Y78188D01*
X69947Y78095D01*
X69980Y78001D01*
X70009Y77905D01*
X70034Y77809D01*
X70055Y77712D01*
X70073Y77613D01*
X70086Y77515D01*
X70096Y77415D01*
X70102Y77316D01*
X70104Y77216D01*
X70104Y61976D02*
X70102Y61876D01*
X70096Y61777D01*
X70086Y61677D01*
X70073Y61579D01*
X70055Y61480D01*
X70034Y61383D01*
X70009Y61287D01*
X69980Y61191D01*
X69947Y61097D01*
X69911Y61004D01*
X69871Y60913D01*
X69827Y60823D01*
X69780Y60735D01*
X69730Y60649D01*
X69676Y60565D01*
X69619Y60483D01*
X69559Y60404D01*
X69495Y60326D01*
X69429Y60252D01*
X69360Y60180D01*
X69288Y60111D01*
X69214Y60045D01*
X69136Y59981D01*
X69057Y59921D01*
X68975Y59864D01*
X68891Y59810D01*
X68805Y59760D01*
X68717Y59713D01*
X68627Y59669D01*
X68536Y59629D01*
X68443Y59593D01*
X68349Y59560D01*
X68253Y59531D01*
X68157Y59506D01*
X68060Y59485D01*
X67961Y59467D01*
X67863Y59454D01*
X67763Y59444D01*
X67664Y59438D01*
X67564Y59436D01*
X50292Y59436D02*
X50192Y59438D01*
X50093Y59444D01*
X49993Y59454D01*
X49895Y59467D01*
X49796Y59485D01*
X49699Y59506D01*
X49603Y59531D01*
X49507Y59560D01*
X49413Y59593D01*
X49320Y59629D01*
X49229Y59669D01*
X49139Y59713D01*
X49051Y59760D01*
X48965Y59810D01*
X48881Y59864D01*
X48799Y59921D01*
X48720Y59981D01*
X48642Y60045D01*
X48568Y60111D01*
X48496Y60180D01*
X48427Y60252D01*
X48361Y60326D01*
X48297Y60404D01*
X48237Y60483D01*
X48180Y60565D01*
X48126Y60649D01*
X48076Y60735D01*
X48029Y60823D01*
X47985Y60913D01*
X47945Y61004D01*
X47909Y61097D01*
X47876Y61191D01*
X47847Y61287D01*
X47822Y61383D01*
X47801Y61480D01*
X47783Y61579D01*
X47770Y61677D01*
X47760Y61777D01*
X47754Y61876D01*
X47752Y61976D01*
X47752Y77216D01*
X70104Y77216D02*
X70104Y61976D01*
X67564Y79756D02*
X50292Y79756D01*
X50292Y101600D02*
X67564Y101600D01*
X70104Y83820D02*
X70102Y83720D01*
X70096Y83621D01*
X70086Y83521D01*
X70073Y83423D01*
X70055Y83324D01*
X70034Y83227D01*
X70009Y83131D01*
X69980Y83035D01*
X69947Y82941D01*
X69911Y82848D01*
X69871Y82757D01*
X69827Y82667D01*
X69780Y82579D01*
X69730Y82493D01*
X69676Y82409D01*
X69619Y82327D01*
X69559Y82248D01*
X69495Y82170D01*
X69429Y82096D01*
X69360Y82024D01*
X69288Y81955D01*
X69214Y81889D01*
X69136Y81825D01*
X69057Y81765D01*
X68975Y81708D01*
X68891Y81654D01*
X68805Y81604D01*
X68717Y81557D01*
X68627Y81513D01*
X68536Y81473D01*
X68443Y81437D01*
X68349Y81404D01*
X68253Y81375D01*
X68157Y81350D01*
X68060Y81329D01*
X67961Y81311D01*
X67863Y81298D01*
X67763Y81288D01*
X67664Y81282D01*
X67564Y81280D01*
X50292Y81280D02*
X50192Y81282D01*
X50093Y81288D01*
X49993Y81298D01*
X49895Y81311D01*
X49796Y81329D01*
X49699Y81350D01*
X49603Y81375D01*
X49507Y81404D01*
X49413Y81437D01*
X49320Y81473D01*
X49229Y81513D01*
X49139Y81557D01*
X49051Y81604D01*
X48965Y81654D01*
X48881Y81708D01*
X48799Y81765D01*
X48720Y81825D01*
X48642Y81889D01*
X48568Y81955D01*
X48496Y82024D01*
X48427Y82096D01*
X48361Y82170D01*
X48297Y82248D01*
X48237Y82327D01*
X48180Y82409D01*
X48126Y82493D01*
X48076Y82579D01*
X48029Y82667D01*
X47985Y82757D01*
X47945Y82848D01*
X47909Y82941D01*
X47876Y83035D01*
X47847Y83131D01*
X47822Y83227D01*
X47801Y83324D01*
X47783Y83423D01*
X47770Y83521D01*
X47760Y83621D01*
X47754Y83720D01*
X47752Y83820D01*
X47752Y99060D02*
X47754Y99160D01*
X47760Y99259D01*
X47770Y99359D01*
X47783Y99457D01*
X47801Y99556D01*
X47822Y99653D01*
X47847Y99749D01*
X47876Y99845D01*
X47909Y99939D01*
X47945Y100032D01*
X47985Y100123D01*
X48029Y100213D01*
X48076Y100301D01*
X48126Y100387D01*
X48180Y100471D01*
X48237Y100553D01*
X48297Y100632D01*
X48361Y100710D01*
X48427Y100784D01*
X48496Y100856D01*
X48568Y100925D01*
X48642Y100991D01*
X48720Y101055D01*
X48799Y101115D01*
X48881Y101172D01*
X48965Y101226D01*
X49051Y101276D01*
X49139Y101323D01*
X49229Y101367D01*
X49320Y101407D01*
X49413Y101443D01*
X49507Y101476D01*
X49603Y101505D01*
X49699Y101530D01*
X49796Y101551D01*
X49895Y101569D01*
X49993Y101582D01*
X50093Y101592D01*
X50192Y101598D01*
X50292Y101600D01*
X67564Y101600D02*
X67664Y101598D01*
X67763Y101592D01*
X67863Y101582D01*
X67961Y101569D01*
X68060Y101551D01*
X68157Y101530D01*
X68253Y101505D01*
X68349Y101476D01*
X68443Y101443D01*
X68536Y101407D01*
X68627Y101367D01*
X68717Y101323D01*
X68805Y101276D01*
X68891Y101226D01*
X68975Y101172D01*
X69057Y101115D01*
X69136Y101055D01*
X69214Y100991D01*
X69288Y100925D01*
X69360Y100856D01*
X69429Y100784D01*
X69495Y100710D01*
X69559Y100632D01*
X69619Y100553D01*
X69676Y100471D01*
X69730Y100387D01*
X69780Y100301D01*
X69827Y100213D01*
X69871Y100123D01*
X69911Y100032D01*
X69947Y99939D01*
X69980Y99845D01*
X70009Y99749D01*
X70034Y99653D01*
X70055Y99556D01*
X70073Y99457D01*
X70086Y99359D01*
X70096Y99259D01*
X70102Y99160D01*
X70104Y99060D01*
X70104Y83820D01*
X47752Y83820D02*
X47752Y99060D01*
X50292Y81280D02*
X67564Y81280D01*
D10*
X66548Y37338D02*
X51308Y37338D01*
X46736Y53086D02*
X46738Y53219D01*
X46744Y53352D01*
X46753Y53484D01*
X46767Y53617D01*
X46784Y53749D01*
X46805Y53880D01*
X46830Y54011D01*
X46859Y54140D01*
X46892Y54269D01*
X46928Y54397D01*
X46968Y54524D01*
X47012Y54650D01*
X47059Y54774D01*
X47110Y54897D01*
X47164Y55018D01*
X47222Y55138D01*
X47284Y55256D01*
X47349Y55372D01*
X47417Y55486D01*
X47488Y55598D01*
X47563Y55708D01*
X47641Y55816D01*
X47722Y55922D01*
X47806Y56025D01*
X47893Y56125D01*
X47982Y56223D01*
X48075Y56319D01*
X48171Y56412D01*
X48269Y56501D01*
X48369Y56588D01*
X48472Y56672D01*
X48578Y56753D01*
X48686Y56831D01*
X48796Y56906D01*
X48908Y56977D01*
X49022Y57045D01*
X49138Y57110D01*
X49256Y57172D01*
X49376Y57230D01*
X49497Y57284D01*
X49620Y57335D01*
X49744Y57382D01*
X49870Y57426D01*
X49997Y57466D01*
X50125Y57502D01*
X50254Y57535D01*
X50383Y57564D01*
X50514Y57589D01*
X50645Y57610D01*
X50777Y57627D01*
X50910Y57641D01*
X51042Y57650D01*
X51175Y57656D01*
X51308Y57658D01*
X66548Y57658D02*
X66681Y57656D01*
X66814Y57650D01*
X66946Y57641D01*
X67079Y57627D01*
X67211Y57610D01*
X67342Y57589D01*
X67473Y57564D01*
X67602Y57535D01*
X67731Y57502D01*
X67859Y57466D01*
X67986Y57426D01*
X68112Y57382D01*
X68236Y57335D01*
X68359Y57284D01*
X68480Y57230D01*
X68600Y57172D01*
X68718Y57110D01*
X68834Y57045D01*
X68948Y56977D01*
X69060Y56906D01*
X69170Y56831D01*
X69278Y56753D01*
X69384Y56672D01*
X69487Y56588D01*
X69587Y56501D01*
X69685Y56412D01*
X69781Y56319D01*
X69874Y56223D01*
X69963Y56125D01*
X70050Y56025D01*
X70134Y55922D01*
X70215Y55816D01*
X70293Y55708D01*
X70368Y55598D01*
X70439Y55486D01*
X70507Y55372D01*
X70572Y55256D01*
X70634Y55138D01*
X70692Y55018D01*
X70746Y54897D01*
X70797Y54774D01*
X70844Y54650D01*
X70888Y54524D01*
X70928Y54397D01*
X70964Y54269D01*
X70997Y54140D01*
X71026Y54011D01*
X71051Y53880D01*
X71072Y53749D01*
X71089Y53617D01*
X71103Y53484D01*
X71112Y53352D01*
X71118Y53219D01*
X71120Y53086D01*
X71120Y41910D02*
X71118Y41777D01*
X71112Y41644D01*
X71103Y41512D01*
X71089Y41379D01*
X71072Y41247D01*
X71051Y41116D01*
X71026Y40985D01*
X70997Y40856D01*
X70964Y40727D01*
X70928Y40599D01*
X70888Y40472D01*
X70844Y40346D01*
X70797Y40222D01*
X70746Y40099D01*
X70692Y39978D01*
X70634Y39858D01*
X70572Y39740D01*
X70507Y39624D01*
X70439Y39510D01*
X70368Y39398D01*
X70293Y39288D01*
X70215Y39180D01*
X70134Y39074D01*
X70050Y38971D01*
X69963Y38871D01*
X69874Y38773D01*
X69781Y38677D01*
X69685Y38584D01*
X69587Y38495D01*
X69487Y38408D01*
X69384Y38324D01*
X69278Y38243D01*
X69170Y38165D01*
X69060Y38090D01*
X68948Y38019D01*
X68834Y37951D01*
X68718Y37886D01*
X68600Y37824D01*
X68480Y37766D01*
X68359Y37712D01*
X68236Y37661D01*
X68112Y37614D01*
X67986Y37570D01*
X67859Y37530D01*
X67731Y37494D01*
X67602Y37461D01*
X67473Y37432D01*
X67342Y37407D01*
X67211Y37386D01*
X67079Y37369D01*
X66946Y37355D01*
X66814Y37346D01*
X66681Y37340D01*
X66548Y37338D01*
X51308Y37338D02*
X51175Y37340D01*
X51042Y37346D01*
X50910Y37355D01*
X50777Y37369D01*
X50645Y37386D01*
X50514Y37407D01*
X50383Y37432D01*
X50254Y37461D01*
X50125Y37494D01*
X49997Y37530D01*
X49870Y37570D01*
X49744Y37614D01*
X49620Y37661D01*
X49497Y37712D01*
X49376Y37766D01*
X49256Y37824D01*
X49138Y37886D01*
X49022Y37951D01*
X48908Y38019D01*
X48796Y38090D01*
X48686Y38165D01*
X48578Y38243D01*
X48472Y38324D01*
X48369Y38408D01*
X48269Y38495D01*
X48171Y38584D01*
X48075Y38677D01*
X47982Y38773D01*
X47893Y38871D01*
X47806Y38971D01*
X47722Y39074D01*
X47641Y39180D01*
X47563Y39288D01*
X47488Y39398D01*
X47417Y39510D01*
X47349Y39624D01*
X47284Y39740D01*
X47222Y39858D01*
X47164Y39978D01*
X47110Y40099D01*
X47059Y40222D01*
X47012Y40346D01*
X46968Y40472D01*
X46928Y40599D01*
X46892Y40727D01*
X46859Y40856D01*
X46830Y40985D01*
X46805Y41116D01*
X46784Y41247D01*
X46767Y41379D01*
X46753Y41512D01*
X46744Y41644D01*
X46738Y41777D01*
X46736Y41910D01*
X46736Y53086D01*
X71120Y53086D02*
X71120Y41910D01*
X66548Y57658D02*
X51308Y57658D01*
M02*
