G04 EAGLE Gerber RS-274X export*
G75*
%MOMM*%
%FSLAX34Y34*%
%LPD*%
%INSolderpaste Top*%
%IPPOS*%
%AMOC8*
5,1,8,0,0,1.08239X$1,22.5*%
G01*
%ADD10C,0.096000*%
%ADD11C,0.102000*%
%ADD12C,0.100000*%
%ADD13C,0.300000*%


D10*
X249470Y66420D02*
X249470Y55380D01*
X230430Y55380D01*
X230430Y66420D01*
X249470Y66420D01*
X249470Y56292D02*
X230430Y56292D01*
X230430Y57204D02*
X249470Y57204D01*
X249470Y58116D02*
X230430Y58116D01*
X230430Y59028D02*
X249470Y59028D01*
X249470Y59940D02*
X230430Y59940D01*
X230430Y60852D02*
X249470Y60852D01*
X249470Y61764D02*
X230430Y61764D01*
X230430Y62676D02*
X249470Y62676D01*
X249470Y63588D02*
X230430Y63588D01*
X230430Y64500D02*
X249470Y64500D01*
X249470Y65412D02*
X230430Y65412D01*
X230430Y66324D02*
X249470Y66324D01*
X249470Y111380D02*
X249470Y122420D01*
X249470Y111380D02*
X230430Y111380D01*
X230430Y122420D01*
X249470Y122420D01*
X249470Y112292D02*
X230430Y112292D01*
X230430Y113204D02*
X249470Y113204D01*
X249470Y114116D02*
X230430Y114116D01*
X230430Y115028D02*
X249470Y115028D01*
X249470Y115940D02*
X230430Y115940D01*
X230430Y116852D02*
X249470Y116852D01*
X249470Y117764D02*
X230430Y117764D01*
X230430Y118676D02*
X249470Y118676D01*
X249470Y119588D02*
X230430Y119588D01*
X230430Y120500D02*
X249470Y120500D01*
X249470Y121412D02*
X230430Y121412D01*
X230430Y122324D02*
X249470Y122324D01*
D11*
X209440Y76390D02*
X209440Y71410D01*
X196960Y71410D01*
X196960Y76390D01*
X209440Y76390D01*
X209440Y72379D02*
X196960Y72379D01*
X196960Y73348D02*
X209440Y73348D01*
X209440Y74317D02*
X196960Y74317D01*
X196960Y75286D02*
X209440Y75286D01*
X209440Y76255D02*
X196960Y76255D01*
X209440Y81410D02*
X209440Y86390D01*
X209440Y81410D02*
X196960Y81410D01*
X196960Y86390D01*
X209440Y86390D01*
X209440Y82379D02*
X196960Y82379D01*
X196960Y83348D02*
X209440Y83348D01*
X209440Y84317D02*
X196960Y84317D01*
X196960Y85286D02*
X209440Y85286D01*
X209440Y86255D02*
X196960Y86255D01*
X209440Y91410D02*
X209440Y96390D01*
X209440Y91410D02*
X196960Y91410D01*
X196960Y96390D01*
X209440Y96390D01*
X209440Y92379D02*
X196960Y92379D01*
X196960Y93348D02*
X209440Y93348D01*
X209440Y94317D02*
X196960Y94317D01*
X196960Y95286D02*
X209440Y95286D01*
X209440Y96255D02*
X196960Y96255D01*
X209440Y101410D02*
X209440Y106390D01*
X209440Y101410D02*
X196960Y101410D01*
X196960Y106390D01*
X209440Y106390D01*
X209440Y102379D02*
X196960Y102379D01*
X196960Y103348D02*
X209440Y103348D01*
X209440Y104317D02*
X196960Y104317D01*
X196960Y105286D02*
X209440Y105286D01*
X209440Y106255D02*
X196960Y106255D01*
D10*
X4530Y111380D02*
X4530Y122420D01*
X23570Y122420D01*
X23570Y111380D01*
X4530Y111380D01*
X4530Y112292D02*
X23570Y112292D01*
X23570Y113204D02*
X4530Y113204D01*
X4530Y114116D02*
X23570Y114116D01*
X23570Y115028D02*
X4530Y115028D01*
X4530Y115940D02*
X23570Y115940D01*
X23570Y116852D02*
X4530Y116852D01*
X4530Y117764D02*
X23570Y117764D01*
X23570Y118676D02*
X4530Y118676D01*
X4530Y119588D02*
X23570Y119588D01*
X23570Y120500D02*
X4530Y120500D01*
X4530Y121412D02*
X23570Y121412D01*
X23570Y122324D02*
X4530Y122324D01*
X4530Y66420D02*
X4530Y55380D01*
X4530Y66420D02*
X23570Y66420D01*
X23570Y55380D01*
X4530Y55380D01*
X4530Y56292D02*
X23570Y56292D01*
X23570Y57204D02*
X4530Y57204D01*
X4530Y58116D02*
X23570Y58116D01*
X23570Y59028D02*
X4530Y59028D01*
X4530Y59940D02*
X23570Y59940D01*
X23570Y60852D02*
X4530Y60852D01*
X4530Y61764D02*
X23570Y61764D01*
X23570Y62676D02*
X4530Y62676D01*
X4530Y63588D02*
X23570Y63588D01*
X23570Y64500D02*
X4530Y64500D01*
X4530Y65412D02*
X23570Y65412D01*
X23570Y66324D02*
X4530Y66324D01*
D11*
X44560Y101410D02*
X44560Y106390D01*
X57040Y106390D01*
X57040Y101410D01*
X44560Y101410D01*
X44560Y102379D02*
X57040Y102379D01*
X57040Y103348D02*
X44560Y103348D01*
X44560Y104317D02*
X57040Y104317D01*
X57040Y105286D02*
X44560Y105286D01*
X44560Y106255D02*
X57040Y106255D01*
X44560Y96390D02*
X44560Y91410D01*
X44560Y96390D02*
X57040Y96390D01*
X57040Y91410D01*
X44560Y91410D01*
X44560Y92379D02*
X57040Y92379D01*
X57040Y93348D02*
X44560Y93348D01*
X44560Y94317D02*
X57040Y94317D01*
X57040Y95286D02*
X44560Y95286D01*
X44560Y96255D02*
X57040Y96255D01*
X44560Y86390D02*
X44560Y81410D01*
X44560Y86390D02*
X57040Y86390D01*
X57040Y81410D01*
X44560Y81410D01*
X44560Y82379D02*
X57040Y82379D01*
X57040Y83348D02*
X44560Y83348D01*
X44560Y84317D02*
X57040Y84317D01*
X57040Y85286D02*
X44560Y85286D01*
X44560Y86255D02*
X57040Y86255D01*
X44560Y76390D02*
X44560Y71410D01*
X44560Y76390D02*
X57040Y76390D01*
X57040Y71410D01*
X44560Y71410D01*
X44560Y72379D02*
X57040Y72379D01*
X57040Y73348D02*
X44560Y73348D01*
X44560Y74317D02*
X57040Y74317D01*
X57040Y75286D02*
X44560Y75286D01*
X44560Y76255D02*
X57040Y76255D01*
D12*
X184840Y88100D02*
X184840Y98100D01*
X184840Y88100D02*
X175840Y88100D01*
X175840Y98100D01*
X184840Y98100D01*
X184840Y89050D02*
X175840Y89050D01*
X175840Y90000D02*
X184840Y90000D01*
X184840Y90950D02*
X175840Y90950D01*
X175840Y91900D02*
X184840Y91900D01*
X184840Y92850D02*
X175840Y92850D01*
X175840Y93800D02*
X184840Y93800D01*
X184840Y94750D02*
X175840Y94750D01*
X175840Y95700D02*
X184840Y95700D01*
X184840Y96650D02*
X175840Y96650D01*
X175840Y97600D02*
X184840Y97600D01*
X184840Y105100D02*
X184840Y115100D01*
X184840Y105100D02*
X175840Y105100D01*
X175840Y115100D01*
X184840Y115100D01*
X184840Y106050D02*
X175840Y106050D01*
X175840Y107000D02*
X184840Y107000D01*
X184840Y107950D02*
X175840Y107950D01*
X175840Y108900D02*
X184840Y108900D01*
X184840Y109850D02*
X175840Y109850D01*
X175840Y110800D02*
X184840Y110800D01*
X184840Y111750D02*
X175840Y111750D01*
X175840Y112700D02*
X184840Y112700D01*
X184840Y113650D02*
X175840Y113650D01*
X175840Y114600D02*
X184840Y114600D01*
X169600Y98100D02*
X169600Y88100D01*
X160600Y88100D01*
X160600Y98100D01*
X169600Y98100D01*
X169600Y89050D02*
X160600Y89050D01*
X160600Y90000D02*
X169600Y90000D01*
X169600Y90950D02*
X160600Y90950D01*
X160600Y91900D02*
X169600Y91900D01*
X169600Y92850D02*
X160600Y92850D01*
X160600Y93800D02*
X169600Y93800D01*
X169600Y94750D02*
X160600Y94750D01*
X160600Y95700D02*
X169600Y95700D01*
X169600Y96650D02*
X160600Y96650D01*
X160600Y97600D02*
X169600Y97600D01*
X169600Y105100D02*
X169600Y115100D01*
X169600Y105100D02*
X160600Y105100D01*
X160600Y115100D01*
X169600Y115100D01*
X169600Y106050D02*
X160600Y106050D01*
X160600Y107000D02*
X169600Y107000D01*
X169600Y107950D02*
X160600Y107950D01*
X160600Y108900D02*
X169600Y108900D01*
X169600Y109850D02*
X160600Y109850D01*
X160600Y110800D02*
X169600Y110800D01*
X169600Y111750D02*
X160600Y111750D01*
X160600Y112700D02*
X169600Y112700D01*
X169600Y113650D02*
X160600Y113650D01*
X160600Y114600D02*
X169600Y114600D01*
D13*
X78430Y96330D02*
X71430Y96330D01*
X78430Y96330D02*
X78430Y89330D01*
X71430Y89330D01*
X71430Y96330D01*
X71430Y92180D02*
X78430Y92180D01*
X78430Y95030D02*
X71430Y95030D01*
X71430Y113870D02*
X78430Y113870D01*
X78430Y106870D01*
X71430Y106870D01*
X71430Y113870D01*
X71430Y109720D02*
X78430Y109720D01*
X78430Y112570D02*
X71430Y112570D01*
D12*
X84400Y115100D02*
X84400Y105100D01*
X84400Y115100D02*
X93400Y115100D01*
X93400Y105100D01*
X84400Y105100D01*
X84400Y106050D02*
X93400Y106050D01*
X93400Y107000D02*
X84400Y107000D01*
X84400Y107950D02*
X93400Y107950D01*
X93400Y108900D02*
X84400Y108900D01*
X84400Y109850D02*
X93400Y109850D01*
X93400Y110800D02*
X84400Y110800D01*
X84400Y111750D02*
X93400Y111750D01*
X93400Y112700D02*
X84400Y112700D01*
X84400Y113650D02*
X93400Y113650D01*
X93400Y114600D02*
X84400Y114600D01*
X84400Y98100D02*
X84400Y88100D01*
X84400Y98100D02*
X93400Y98100D01*
X93400Y88100D01*
X84400Y88100D01*
X84400Y89050D02*
X93400Y89050D01*
X93400Y90000D02*
X84400Y90000D01*
X84400Y90950D02*
X93400Y90950D01*
X93400Y91900D02*
X84400Y91900D01*
X84400Y92850D02*
X93400Y92850D01*
X93400Y93800D02*
X84400Y93800D01*
X84400Y94750D02*
X93400Y94750D01*
X93400Y95700D02*
X84400Y95700D01*
X84400Y96650D02*
X93400Y96650D01*
X93400Y97600D02*
X84400Y97600D01*
D11*
X129490Y60990D02*
X129490Y56010D01*
X124510Y56010D01*
X124510Y60990D01*
X129490Y60990D01*
X129490Y56979D02*
X124510Y56979D01*
X124510Y57948D02*
X129490Y57948D01*
X129490Y58917D02*
X124510Y58917D01*
X124510Y59886D02*
X129490Y59886D01*
X129490Y60855D02*
X124510Y60855D01*
X129490Y66010D02*
X129490Y70990D01*
X129490Y66010D02*
X124510Y66010D01*
X124510Y70990D01*
X129490Y70990D01*
X129490Y66979D02*
X124510Y66979D01*
X124510Y67948D02*
X129490Y67948D01*
X129490Y68917D02*
X124510Y68917D01*
X124510Y69886D02*
X129490Y69886D01*
X129490Y70855D02*
X124510Y70855D01*
D12*
X184840Y60000D02*
X184840Y50000D01*
X175840Y50000D01*
X175840Y60000D01*
X184840Y60000D01*
X184840Y50950D02*
X175840Y50950D01*
X175840Y51900D02*
X184840Y51900D01*
X184840Y52850D02*
X175840Y52850D01*
X175840Y53800D02*
X184840Y53800D01*
X184840Y54750D02*
X175840Y54750D01*
X175840Y55700D02*
X184840Y55700D01*
X184840Y56650D02*
X175840Y56650D01*
X175840Y57600D02*
X184840Y57600D01*
X184840Y58550D02*
X175840Y58550D01*
X175840Y59500D02*
X184840Y59500D01*
X184840Y67000D02*
X184840Y77000D01*
X184840Y67000D02*
X175840Y67000D01*
X175840Y77000D01*
X184840Y77000D01*
X184840Y67950D02*
X175840Y67950D01*
X175840Y68900D02*
X184840Y68900D01*
X184840Y69850D02*
X175840Y69850D01*
X175840Y70800D02*
X184840Y70800D01*
X184840Y71750D02*
X175840Y71750D01*
X175840Y72700D02*
X184840Y72700D01*
X184840Y73650D02*
X175840Y73650D01*
X175840Y74600D02*
X184840Y74600D01*
X184840Y75550D02*
X175840Y75550D01*
X175840Y76500D02*
X184840Y76500D01*
X99640Y105100D02*
X99640Y115100D01*
X108640Y115100D01*
X108640Y105100D01*
X99640Y105100D01*
X99640Y106050D02*
X108640Y106050D01*
X108640Y107000D02*
X99640Y107000D01*
X99640Y107950D02*
X108640Y107950D01*
X108640Y108900D02*
X99640Y108900D01*
X99640Y109850D02*
X108640Y109850D01*
X108640Y110800D02*
X99640Y110800D01*
X99640Y111750D02*
X108640Y111750D01*
X108640Y112700D02*
X99640Y112700D01*
X99640Y113650D02*
X108640Y113650D01*
X108640Y114600D02*
X99640Y114600D01*
X99640Y98100D02*
X99640Y88100D01*
X99640Y98100D02*
X108640Y98100D01*
X108640Y88100D01*
X99640Y88100D01*
X99640Y89050D02*
X108640Y89050D01*
X108640Y90000D02*
X99640Y90000D01*
X99640Y90950D02*
X108640Y90950D01*
X108640Y91900D02*
X99640Y91900D01*
X99640Y92850D02*
X108640Y92850D01*
X108640Y93800D02*
X99640Y93800D01*
X99640Y94750D02*
X108640Y94750D01*
X108640Y95700D02*
X99640Y95700D01*
X99640Y96650D02*
X108640Y96650D01*
X108640Y97600D02*
X99640Y97600D01*
M02*
