M48
;GenerationSoftware,Autodesk,EAGLE,9.6.2*%
;CreationDate,2023-06-16T17:31:24Z*%
FMAT,2
ICI,OFF
METRIC,TZ,000.000
T3C0.305
T2C1.016
T1C3.048
%
G90
M71
T1
X22860Y2540
X2540Y2540
T2
X17780Y1270
X7620Y1270
X10160Y1270
X12700Y1270
X15240Y1270
T3
X14148Y9728
X1270Y8890
X20320Y1270
X12725Y11074
X16510Y3810
X19050Y3810
X12700Y7620
X4445Y11303
X19685Y6401
X8966Y8026
X10160Y8255
X16383Y5461
X13970Y3810
X22301Y8407
X10897Y5588
X14275Y8941
X14935Y7925
X4648Y6477
X14554Y6502
X10998Y6350
X7620Y5842
X21463Y11049
X15392Y10922
X6325Y10185
X11328Y11049
X8890Y3810
X7620Y5080
X14605Y10922
X22225Y11049
X17018Y8001
X14580Y7214
X16383Y7239
M30