G04 EAGLE Gerber RS-274X export*
G75*
%MOMM*%
%FSLAX34Y34*%
%LPD*%
%INBottom Copper*%
%IPPOS*%
%AMOC8*
5,1,8,0,0,1.08239X$1,22.5*%
G01*
%ADD10C,0.203200*%
%ADD11C,0.635000*%
%ADD12C,0.099059*%
%ADD13C,0.102000*%
%ADD14C,0.101600*%
%ADD15C,1.879600*%
%ADD16C,0.558800*%
%ADD17C,0.406400*%
%ADD18C,0.304800*%
%ADD19C,0.152400*%

G36*
X66296Y2812D02*
X66296Y2812D01*
X66434Y2825D01*
X66453Y2832D01*
X66473Y2835D01*
X66602Y2886D01*
X66733Y2933D01*
X66750Y2944D01*
X66768Y2952D01*
X66881Y3033D01*
X66996Y3112D01*
X67010Y3127D01*
X67026Y3138D01*
X67115Y3246D01*
X67207Y3350D01*
X67216Y3368D01*
X67229Y3383D01*
X67288Y3509D01*
X67351Y3634D01*
X67356Y3653D01*
X67364Y3671D01*
X67390Y3808D01*
X67421Y3944D01*
X67420Y3964D01*
X67424Y3983D01*
X67415Y4122D01*
X67411Y4262D01*
X67405Y4281D01*
X67404Y4301D01*
X67361Y4433D01*
X67322Y4567D01*
X67312Y4584D01*
X67306Y4603D01*
X67231Y4721D01*
X67161Y4841D01*
X67142Y4862D01*
X67136Y4872D01*
X67121Y4886D01*
X67116Y4892D01*
X65989Y6443D01*
X65136Y8117D01*
X64555Y9904D01*
X64515Y10161D01*
X74930Y10161D01*
X75048Y10176D01*
X75167Y10183D01*
X75205Y10196D01*
X75245Y10201D01*
X75356Y10244D01*
X75469Y10281D01*
X75503Y10303D01*
X75541Y10318D01*
X75637Y10388D01*
X75738Y10451D01*
X75766Y10481D01*
X75798Y10504D01*
X75874Y10596D01*
X75956Y10683D01*
X75975Y10718D01*
X76001Y10749D01*
X76052Y10857D01*
X76109Y10961D01*
X76120Y11001D01*
X76137Y11037D01*
X76159Y11154D01*
X76189Y11269D01*
X76193Y11330D01*
X76197Y11350D01*
X76195Y11370D01*
X76199Y11430D01*
X76199Y12701D01*
X76201Y12701D01*
X76201Y11430D01*
X76216Y11312D01*
X76223Y11193D01*
X76236Y11155D01*
X76241Y11114D01*
X76285Y11004D01*
X76321Y10891D01*
X76343Y10856D01*
X76358Y10819D01*
X76428Y10723D01*
X76491Y10622D01*
X76521Y10594D01*
X76545Y10561D01*
X76636Y10486D01*
X76723Y10404D01*
X76758Y10384D01*
X76790Y10359D01*
X76897Y10308D01*
X77002Y10250D01*
X77041Y10240D01*
X77077Y10223D01*
X77194Y10201D01*
X77309Y10171D01*
X77370Y10167D01*
X77390Y10163D01*
X77410Y10165D01*
X77470Y10161D01*
X87885Y10161D01*
X87845Y9904D01*
X87264Y8117D01*
X86411Y6443D01*
X85248Y4842D01*
X85239Y4826D01*
X85171Y4745D01*
X85163Y4726D01*
X85151Y4711D01*
X85095Y4583D01*
X85036Y4457D01*
X85032Y4437D01*
X85024Y4419D01*
X85002Y4281D01*
X84976Y4144D01*
X84977Y4125D01*
X84974Y4105D01*
X84987Y3966D01*
X84996Y3827D01*
X85002Y3808D01*
X85004Y3788D01*
X85051Y3657D01*
X85094Y3525D01*
X85105Y3508D01*
X85111Y3489D01*
X85189Y3374D01*
X85264Y3256D01*
X85279Y3242D01*
X85290Y3226D01*
X85394Y3134D01*
X85496Y3038D01*
X85513Y3028D01*
X85528Y3015D01*
X85652Y2952D01*
X85774Y2884D01*
X85794Y2879D01*
X85811Y2870D01*
X85947Y2840D01*
X86082Y2805D01*
X86110Y2803D01*
X86122Y2801D01*
X86142Y2801D01*
X86243Y2795D01*
X93353Y2795D01*
X93491Y2812D01*
X93630Y2825D01*
X93649Y2832D01*
X93669Y2835D01*
X93798Y2886D01*
X93929Y2933D01*
X93946Y2944D01*
X93964Y2952D01*
X94077Y3033D01*
X94192Y3111D01*
X94205Y3127D01*
X94222Y3138D01*
X94311Y3246D01*
X94402Y3350D01*
X94412Y3368D01*
X94425Y3383D01*
X94484Y3509D01*
X94547Y3633D01*
X94551Y3653D01*
X94560Y3671D01*
X94586Y3808D01*
X94617Y3943D01*
X94616Y3964D01*
X94620Y3983D01*
X94611Y4122D01*
X94607Y4261D01*
X94601Y4281D01*
X94600Y4301D01*
X94557Y4433D01*
X94519Y4567D01*
X94508Y4584D01*
X94502Y4603D01*
X94427Y4721D01*
X94357Y4841D01*
X94339Y4862D01*
X94332Y4872D01*
X94317Y4886D01*
X94251Y4961D01*
X92555Y6657D01*
X90931Y10578D01*
X90931Y14822D01*
X92555Y18743D01*
X95557Y21745D01*
X99478Y23369D01*
X103722Y23369D01*
X107643Y21745D01*
X110645Y18743D01*
X112269Y14822D01*
X112269Y10578D01*
X110645Y6657D01*
X108949Y4961D01*
X108864Y4852D01*
X108775Y4745D01*
X108767Y4726D01*
X108754Y4710D01*
X108699Y4582D01*
X108640Y4457D01*
X108636Y4437D01*
X108628Y4418D01*
X108606Y4280D01*
X108580Y4144D01*
X108581Y4124D01*
X108578Y4104D01*
X108591Y3965D01*
X108600Y3827D01*
X108606Y3808D01*
X108608Y3788D01*
X108655Y3656D01*
X108698Y3525D01*
X108709Y3507D01*
X108716Y3488D01*
X108794Y3373D01*
X108868Y3256D01*
X108883Y3242D01*
X108894Y3225D01*
X108998Y3133D01*
X109100Y3038D01*
X109117Y3028D01*
X109133Y3015D01*
X109257Y2951D01*
X109378Y2884D01*
X109398Y2879D01*
X109416Y2870D01*
X109552Y2840D01*
X109686Y2805D01*
X109714Y2803D01*
X109726Y2800D01*
X109747Y2801D01*
X109847Y2795D01*
X118753Y2795D01*
X118891Y2812D01*
X119030Y2825D01*
X119049Y2832D01*
X119069Y2835D01*
X119198Y2886D01*
X119329Y2933D01*
X119346Y2944D01*
X119364Y2952D01*
X119477Y3033D01*
X119592Y3111D01*
X119605Y3127D01*
X119622Y3138D01*
X119711Y3246D01*
X119802Y3350D01*
X119812Y3368D01*
X119825Y3383D01*
X119884Y3509D01*
X119947Y3633D01*
X119951Y3653D01*
X119960Y3671D01*
X119986Y3808D01*
X120017Y3943D01*
X120016Y3964D01*
X120020Y3983D01*
X120011Y4122D01*
X120007Y4261D01*
X120001Y4281D01*
X120000Y4301D01*
X119957Y4433D01*
X119919Y4567D01*
X119908Y4584D01*
X119902Y4603D01*
X119827Y4721D01*
X119757Y4841D01*
X119739Y4862D01*
X119732Y4872D01*
X119717Y4886D01*
X119651Y4961D01*
X117955Y6657D01*
X116331Y10578D01*
X116331Y14822D01*
X117955Y18743D01*
X120957Y21745D01*
X124184Y23081D01*
X124209Y23096D01*
X124237Y23105D01*
X124347Y23174D01*
X124460Y23239D01*
X124481Y23259D01*
X124506Y23275D01*
X124595Y23370D01*
X124688Y23460D01*
X124704Y23485D01*
X124724Y23507D01*
X124787Y23620D01*
X124855Y23731D01*
X124863Y23759D01*
X124878Y23785D01*
X124910Y23911D01*
X124948Y24035D01*
X124950Y24065D01*
X124957Y24093D01*
X124967Y24254D01*
X124967Y52951D01*
X125027Y52986D01*
X125048Y53004D01*
X125058Y53011D01*
X125072Y53026D01*
X125147Y53092D01*
X130068Y58012D01*
X130128Y58090D01*
X130196Y58163D01*
X130225Y58216D01*
X130262Y58263D01*
X130302Y58354D01*
X130350Y58441D01*
X130365Y58500D01*
X130389Y58555D01*
X130404Y58653D01*
X130429Y58749D01*
X130435Y58849D01*
X130439Y58869D01*
X130437Y58882D01*
X130439Y58910D01*
X130439Y62636D01*
X130466Y62666D01*
X130484Y62702D01*
X130509Y62734D01*
X130557Y62843D01*
X130611Y62949D01*
X130619Y62989D01*
X130635Y63026D01*
X130654Y63144D01*
X130680Y63259D01*
X130679Y63300D01*
X130685Y63340D01*
X130674Y63459D01*
X130670Y63577D01*
X130659Y63616D01*
X130655Y63656D01*
X130615Y63769D01*
X130582Y63883D01*
X130562Y63918D01*
X130548Y63956D01*
X130481Y64054D01*
X130439Y64125D01*
X130439Y67636D01*
X130466Y67666D01*
X130484Y67702D01*
X130509Y67734D01*
X130557Y67843D01*
X130611Y67949D01*
X130619Y67989D01*
X130635Y68026D01*
X130654Y68144D01*
X130680Y68259D01*
X130679Y68300D01*
X130685Y68340D01*
X130674Y68459D01*
X130670Y68577D01*
X130659Y68616D01*
X130655Y68656D01*
X130615Y68769D01*
X130582Y68883D01*
X130562Y68918D01*
X130548Y68956D01*
X130481Y69054D01*
X130439Y69125D01*
X130439Y72608D01*
X131482Y73651D01*
X137306Y73651D01*
X137404Y73663D01*
X137503Y73666D01*
X137562Y73683D01*
X137622Y73691D01*
X137714Y73727D01*
X137809Y73755D01*
X137861Y73785D01*
X137917Y73808D01*
X137998Y73866D01*
X138083Y73916D01*
X138158Y73982D01*
X138175Y73994D01*
X138183Y74004D01*
X138204Y74022D01*
X138312Y74130D01*
X138372Y74209D01*
X138440Y74281D01*
X138469Y74334D01*
X138506Y74382D01*
X138546Y74472D01*
X138594Y74559D01*
X138609Y74618D01*
X138633Y74673D01*
X138648Y74771D01*
X138673Y74867D01*
X138679Y74967D01*
X138683Y74987D01*
X138681Y75000D01*
X138683Y75028D01*
X138683Y91092D01*
X141064Y93473D01*
X144432Y93473D01*
X145330Y92574D01*
X145408Y92514D01*
X145480Y92446D01*
X145533Y92417D01*
X145581Y92380D01*
X145672Y92340D01*
X145759Y92292D01*
X145817Y92277D01*
X145873Y92253D01*
X145971Y92238D01*
X146067Y92213D01*
X146167Y92207D01*
X146187Y92203D01*
X146199Y92205D01*
X146227Y92203D01*
X152480Y92203D01*
X154042Y90640D01*
X159220Y85462D01*
X160783Y83900D01*
X160783Y77724D01*
X160798Y77606D01*
X160805Y77487D01*
X160818Y77449D01*
X160823Y77408D01*
X160866Y77298D01*
X160903Y77185D01*
X160925Y77150D01*
X160940Y77113D01*
X161009Y77017D01*
X161073Y76916D01*
X161103Y76888D01*
X161126Y76855D01*
X161218Y76779D01*
X161305Y76698D01*
X161340Y76678D01*
X161371Y76653D01*
X161479Y76602D01*
X161583Y76544D01*
X161623Y76534D01*
X161659Y76517D01*
X161776Y76495D01*
X161891Y76465D01*
X161951Y76461D01*
X161971Y76457D01*
X161992Y76459D01*
X162052Y76455D01*
X165514Y76455D01*
X167895Y74074D01*
X167895Y70706D01*
X167504Y70316D01*
X167444Y70238D01*
X167376Y70166D01*
X167347Y70113D01*
X167310Y70065D01*
X167270Y69974D01*
X167222Y69887D01*
X167207Y69829D01*
X167183Y69773D01*
X167168Y69675D01*
X167143Y69579D01*
X167137Y69479D01*
X167133Y69459D01*
X167135Y69447D01*
X167133Y69419D01*
X167133Y57581D01*
X167145Y57483D01*
X167148Y57384D01*
X167165Y57326D01*
X167173Y57266D01*
X167209Y57174D01*
X167237Y57079D01*
X167267Y57027D01*
X167290Y56970D01*
X167348Y56890D01*
X167398Y56805D01*
X167464Y56729D01*
X167476Y56713D01*
X167486Y56705D01*
X167504Y56684D01*
X167895Y56294D01*
X167895Y52926D01*
X165514Y50545D01*
X162146Y50545D01*
X159481Y53211D01*
X159396Y53277D01*
X159348Y53322D01*
X159337Y53328D01*
X159297Y53363D01*
X159261Y53381D01*
X159229Y53406D01*
X159120Y53453D01*
X159014Y53507D01*
X158975Y53516D01*
X158938Y53532D01*
X158820Y53551D01*
X158704Y53577D01*
X158663Y53576D01*
X158623Y53582D01*
X158505Y53571D01*
X158386Y53567D01*
X158347Y53556D01*
X158307Y53552D01*
X158195Y53512D01*
X158080Y53479D01*
X158046Y53458D01*
X158008Y53445D01*
X157909Y53378D01*
X157806Y53317D01*
X157761Y53277D01*
X157744Y53266D01*
X157731Y53251D01*
X157699Y53223D01*
X157697Y53221D01*
X157695Y53220D01*
X157686Y53211D01*
X154804Y50330D01*
X154744Y50252D01*
X154676Y50179D01*
X154647Y50126D01*
X154610Y50079D01*
X154570Y49988D01*
X154522Y49901D01*
X154507Y49842D01*
X154483Y49787D01*
X154468Y49689D01*
X154443Y49593D01*
X154437Y49493D01*
X154433Y49473D01*
X154435Y49460D01*
X154433Y49432D01*
X154433Y24254D01*
X154436Y24225D01*
X154434Y24195D01*
X154456Y24067D01*
X154473Y23938D01*
X154483Y23911D01*
X154488Y23882D01*
X154542Y23763D01*
X154590Y23643D01*
X154607Y23619D01*
X154619Y23592D01*
X154700Y23490D01*
X154776Y23385D01*
X154799Y23366D01*
X154818Y23343D01*
X154921Y23265D01*
X155021Y23182D01*
X155048Y23170D01*
X155072Y23152D01*
X155216Y23081D01*
X158443Y21745D01*
X161445Y18743D01*
X163069Y14822D01*
X163069Y10578D01*
X161445Y6657D01*
X159749Y4961D01*
X159664Y4852D01*
X159575Y4745D01*
X159567Y4726D01*
X159554Y4710D01*
X159499Y4582D01*
X159440Y4457D01*
X159436Y4437D01*
X159428Y4418D01*
X159406Y4280D01*
X159380Y4144D01*
X159381Y4124D01*
X159378Y4104D01*
X159391Y3965D01*
X159400Y3827D01*
X159406Y3808D01*
X159408Y3788D01*
X159455Y3656D01*
X159498Y3525D01*
X159509Y3507D01*
X159516Y3488D01*
X159594Y3373D01*
X159668Y3256D01*
X159683Y3242D01*
X159694Y3225D01*
X159798Y3133D01*
X159900Y3038D01*
X159917Y3028D01*
X159933Y3015D01*
X160057Y2951D01*
X160178Y2884D01*
X160198Y2879D01*
X160216Y2870D01*
X160352Y2840D01*
X160486Y2805D01*
X160514Y2803D01*
X160526Y2800D01*
X160547Y2801D01*
X160647Y2795D01*
X169553Y2795D01*
X169691Y2812D01*
X169830Y2825D01*
X169849Y2832D01*
X169869Y2835D01*
X169998Y2886D01*
X170129Y2933D01*
X170146Y2944D01*
X170164Y2952D01*
X170277Y3033D01*
X170392Y3111D01*
X170405Y3127D01*
X170422Y3138D01*
X170511Y3246D01*
X170602Y3350D01*
X170612Y3368D01*
X170625Y3383D01*
X170684Y3509D01*
X170747Y3633D01*
X170751Y3653D01*
X170760Y3671D01*
X170786Y3808D01*
X170817Y3943D01*
X170816Y3964D01*
X170820Y3983D01*
X170811Y4122D01*
X170807Y4261D01*
X170801Y4281D01*
X170800Y4301D01*
X170757Y4433D01*
X170719Y4567D01*
X170708Y4584D01*
X170702Y4603D01*
X170627Y4721D01*
X170557Y4841D01*
X170539Y4862D01*
X170532Y4872D01*
X170517Y4886D01*
X170451Y4961D01*
X168755Y6657D01*
X167131Y10578D01*
X167131Y14822D01*
X168755Y18743D01*
X171757Y21745D01*
X175678Y23369D01*
X179922Y23369D01*
X183843Y21745D01*
X186845Y18743D01*
X188469Y14822D01*
X188469Y10578D01*
X186845Y6657D01*
X185149Y4961D01*
X185064Y4852D01*
X184975Y4745D01*
X184967Y4726D01*
X184954Y4710D01*
X184899Y4582D01*
X184840Y4457D01*
X184836Y4437D01*
X184828Y4418D01*
X184806Y4280D01*
X184780Y4144D01*
X184781Y4124D01*
X184778Y4104D01*
X184791Y3965D01*
X184800Y3827D01*
X184806Y3808D01*
X184808Y3788D01*
X184855Y3656D01*
X184898Y3525D01*
X184909Y3507D01*
X184916Y3488D01*
X184994Y3373D01*
X185068Y3256D01*
X185083Y3242D01*
X185094Y3225D01*
X185198Y3133D01*
X185300Y3038D01*
X185317Y3028D01*
X185333Y3015D01*
X185457Y2951D01*
X185578Y2884D01*
X185598Y2879D01*
X185616Y2870D01*
X185752Y2840D01*
X185886Y2805D01*
X185914Y2803D01*
X185926Y2800D01*
X185947Y2801D01*
X186047Y2795D01*
X249936Y2795D01*
X250054Y2810D01*
X250173Y2817D01*
X250211Y2830D01*
X250252Y2835D01*
X250362Y2878D01*
X250475Y2915D01*
X250510Y2937D01*
X250547Y2952D01*
X250643Y3021D01*
X250744Y3085D01*
X250772Y3115D01*
X250805Y3138D01*
X250881Y3230D01*
X250962Y3317D01*
X250982Y3352D01*
X251007Y3383D01*
X251058Y3491D01*
X251116Y3595D01*
X251126Y3635D01*
X251143Y3671D01*
X251165Y3788D01*
X251195Y3903D01*
X251199Y3963D01*
X251203Y3983D01*
X251201Y4004D01*
X251205Y4064D01*
X251205Y122936D01*
X251190Y123054D01*
X251183Y123173D01*
X251170Y123211D01*
X251165Y123252D01*
X251122Y123362D01*
X251085Y123475D01*
X251063Y123510D01*
X251048Y123547D01*
X250979Y123643D01*
X250915Y123744D01*
X250885Y123772D01*
X250862Y123805D01*
X250770Y123881D01*
X250683Y123962D01*
X250648Y123982D01*
X250617Y124007D01*
X250509Y124058D01*
X250405Y124116D01*
X250365Y124126D01*
X250329Y124143D01*
X250212Y124165D01*
X250097Y124195D01*
X250037Y124199D01*
X250017Y124203D01*
X249996Y124201D01*
X249936Y124205D01*
X206375Y124205D01*
X206257Y124190D01*
X206138Y124183D01*
X206100Y124170D01*
X206059Y124165D01*
X205949Y124122D01*
X205836Y124085D01*
X205801Y124063D01*
X205764Y124048D01*
X205668Y123979D01*
X205567Y123915D01*
X205539Y123885D01*
X205506Y123862D01*
X205430Y123770D01*
X205349Y123683D01*
X205329Y123648D01*
X205304Y123617D01*
X205253Y123509D01*
X205195Y123405D01*
X205185Y123365D01*
X205168Y123329D01*
X205146Y123212D01*
X205116Y123097D01*
X205112Y123037D01*
X205108Y123017D01*
X205110Y122996D01*
X205106Y122936D01*
X205106Y118809D01*
X202501Y116204D01*
X198819Y116204D01*
X196214Y118809D01*
X196214Y122936D01*
X196199Y123054D01*
X196192Y123173D01*
X196179Y123211D01*
X196174Y123252D01*
X196131Y123362D01*
X196094Y123475D01*
X196072Y123510D01*
X196057Y123547D01*
X195988Y123643D01*
X195924Y123744D01*
X195894Y123772D01*
X195871Y123805D01*
X195779Y123881D01*
X195692Y123962D01*
X195657Y123982D01*
X195626Y124007D01*
X195518Y124058D01*
X195414Y124116D01*
X195374Y124126D01*
X195338Y124143D01*
X195221Y124165D01*
X195106Y124195D01*
X195046Y124199D01*
X195026Y124203D01*
X195005Y124201D01*
X194945Y124205D01*
X4064Y124205D01*
X3946Y124190D01*
X3827Y124183D01*
X3789Y124170D01*
X3748Y124165D01*
X3638Y124122D01*
X3525Y124085D01*
X3490Y124063D01*
X3453Y124048D01*
X3357Y123979D01*
X3256Y123915D01*
X3228Y123885D01*
X3195Y123862D01*
X3119Y123770D01*
X3038Y123683D01*
X3018Y123648D01*
X2993Y123617D01*
X2942Y123509D01*
X2884Y123405D01*
X2874Y123365D01*
X2857Y123329D01*
X2835Y123212D01*
X2805Y123097D01*
X2801Y123037D01*
X2797Y123017D01*
X2799Y122996D01*
X2795Y122936D01*
X2795Y13335D01*
X2810Y13217D01*
X2817Y13098D01*
X2830Y13060D01*
X2835Y13019D01*
X2878Y12909D01*
X2915Y12796D01*
X2937Y12761D01*
X2952Y12724D01*
X3021Y12628D01*
X3085Y12527D01*
X3115Y12499D01*
X3138Y12466D01*
X3230Y12390D01*
X3317Y12309D01*
X3352Y12289D01*
X3383Y12264D01*
X3491Y12213D01*
X3595Y12155D01*
X3635Y12145D01*
X3671Y12128D01*
X3788Y12106D01*
X3903Y12076D01*
X3963Y12072D01*
X3983Y12068D01*
X4004Y12070D01*
X4064Y12066D01*
X8010Y12066D01*
X8148Y12083D01*
X8286Y12096D01*
X8305Y12103D01*
X8325Y12106D01*
X8454Y12157D01*
X8586Y12204D01*
X8602Y12215D01*
X8621Y12223D01*
X8734Y12304D01*
X8849Y12382D01*
X8862Y12398D01*
X8878Y12409D01*
X8967Y12517D01*
X9059Y12621D01*
X9068Y12639D01*
X9081Y12654D01*
X9140Y12780D01*
X9204Y12904D01*
X9208Y12924D01*
X9217Y12942D01*
X9243Y13079D01*
X9273Y13214D01*
X9273Y13235D01*
X9277Y13254D01*
X9268Y13393D01*
X9264Y13532D01*
X9258Y13552D01*
X9257Y13572D01*
X9214Y13704D01*
X9175Y13838D01*
X9165Y13855D01*
X9159Y13874D01*
X9084Y13992D01*
X9014Y14112D01*
X8995Y14133D01*
X8989Y14143D01*
X8974Y14157D01*
X8907Y14233D01*
X8819Y14321D01*
X5841Y21509D01*
X5841Y29291D01*
X8819Y36479D01*
X14321Y41981D01*
X21509Y44959D01*
X29291Y44959D01*
X36479Y41981D01*
X41981Y36479D01*
X44959Y29291D01*
X44959Y21509D01*
X41981Y14321D01*
X36479Y8819D01*
X29290Y5841D01*
X21509Y5841D01*
X14321Y8819D01*
X12962Y10177D01*
X12853Y10262D01*
X12746Y10351D01*
X12727Y10360D01*
X12711Y10372D01*
X12584Y10427D01*
X12458Y10487D01*
X12438Y10491D01*
X12419Y10499D01*
X12281Y10521D01*
X12145Y10547D01*
X12125Y10545D01*
X12105Y10548D01*
X11966Y10535D01*
X11828Y10527D01*
X11809Y10521D01*
X11789Y10519D01*
X11657Y10471D01*
X11526Y10429D01*
X11508Y10418D01*
X11489Y10411D01*
X11374Y10333D01*
X11257Y10259D01*
X11243Y10244D01*
X11226Y10232D01*
X11134Y10128D01*
X11039Y10027D01*
X11029Y10009D01*
X11016Y9994D01*
X10952Y9870D01*
X10885Y9748D01*
X10880Y9729D01*
X10871Y9711D01*
X10841Y9575D01*
X10806Y9441D01*
X10804Y9412D01*
X10801Y9400D01*
X10802Y9380D01*
X10796Y9280D01*
X10796Y5778D01*
X9979Y4961D01*
X9894Y4852D01*
X9805Y4745D01*
X9796Y4726D01*
X9784Y4710D01*
X9729Y4583D01*
X9669Y4457D01*
X9665Y4437D01*
X9657Y4418D01*
X9635Y4280D01*
X9609Y4144D01*
X9611Y4124D01*
X9608Y4104D01*
X9621Y3965D01*
X9629Y3827D01*
X9635Y3808D01*
X9637Y3788D01*
X9685Y3656D01*
X9727Y3525D01*
X9738Y3507D01*
X9745Y3488D01*
X9823Y3373D01*
X9897Y3256D01*
X9912Y3242D01*
X9924Y3225D01*
X10028Y3133D01*
X10129Y3038D01*
X10147Y3028D01*
X10162Y3015D01*
X10286Y2952D01*
X10408Y2884D01*
X10427Y2879D01*
X10445Y2870D01*
X10581Y2840D01*
X10715Y2805D01*
X10744Y2803D01*
X10756Y2800D01*
X10776Y2801D01*
X10876Y2795D01*
X66157Y2795D01*
X66296Y2812D01*
G37*
%LPC*%
G36*
X55371Y38607D02*
X55371Y38607D01*
X55371Y46165D01*
X65913Y46165D01*
X65932Y46177D01*
X65954Y46181D01*
X65961Y46196D01*
X65970Y46202D01*
X65969Y46212D01*
X65976Y46228D01*
X65976Y48768D01*
X65964Y48787D01*
X65960Y48809D01*
X65945Y48816D01*
X65939Y48825D01*
X65929Y48824D01*
X65913Y48831D01*
X55371Y48831D01*
X55371Y56389D01*
X56927Y56389D01*
X57700Y56182D01*
X58392Y55782D01*
X58792Y55382D01*
X58902Y55296D01*
X59009Y55208D01*
X59028Y55199D01*
X59044Y55187D01*
X59172Y55131D01*
X59297Y55072D01*
X59317Y55068D01*
X59336Y55060D01*
X59474Y55038D01*
X59610Y55012D01*
X59630Y55014D01*
X59650Y55010D01*
X59789Y55023D01*
X59927Y55032D01*
X59946Y55038D01*
X59966Y55040D01*
X60097Y55087D01*
X60229Y55130D01*
X60247Y55141D01*
X60266Y55148D01*
X60380Y55226D01*
X60498Y55300D01*
X60512Y55315D01*
X60529Y55326D01*
X60621Y55430D01*
X60716Y55532D01*
X60726Y55550D01*
X60739Y55565D01*
X60802Y55689D01*
X60870Y55810D01*
X60875Y55830D01*
X60884Y55848D01*
X60914Y55984D01*
X60949Y56118D01*
X60951Y56146D01*
X60954Y56158D01*
X60953Y56179D01*
X60959Y56279D01*
X60959Y60706D01*
X60944Y60824D01*
X60937Y60943D01*
X60924Y60981D01*
X60919Y61022D01*
X60876Y61132D01*
X60839Y61245D01*
X60817Y61280D01*
X60802Y61317D01*
X60733Y61413D01*
X60669Y61514D01*
X60639Y61542D01*
X60616Y61575D01*
X60524Y61651D01*
X60437Y61732D01*
X60402Y61752D01*
X60371Y61777D01*
X60263Y61828D01*
X60159Y61886D01*
X60119Y61896D01*
X60083Y61913D01*
X59966Y61935D01*
X59851Y61965D01*
X59791Y61969D01*
X59771Y61973D01*
X59750Y61971D01*
X59690Y61975D01*
X59476Y61975D01*
X59465Y61980D01*
X59359Y62034D01*
X59320Y62043D01*
X59283Y62059D01*
X59165Y62078D01*
X59049Y62104D01*
X59008Y62103D01*
X58968Y62109D01*
X58850Y62098D01*
X58731Y62094D01*
X58692Y62083D01*
X58652Y62079D01*
X58540Y62039D01*
X58425Y62006D01*
X58391Y61985D01*
X58362Y61975D01*
X49961Y61975D01*
X49863Y61963D01*
X49764Y61960D01*
X49706Y61943D01*
X49646Y61935D01*
X49554Y61899D01*
X49459Y61871D01*
X49407Y61841D01*
X49350Y61818D01*
X49270Y61760D01*
X49185Y61710D01*
X49109Y61644D01*
X49093Y61632D01*
X49085Y61622D01*
X49064Y61604D01*
X48166Y60705D01*
X44798Y60705D01*
X42417Y63086D01*
X42417Y66454D01*
X44798Y68835D01*
X48166Y68835D01*
X48251Y68749D01*
X48361Y68664D01*
X48468Y68575D01*
X48487Y68566D01*
X48503Y68554D01*
X48631Y68499D01*
X48756Y68439D01*
X48776Y68436D01*
X48795Y68428D01*
X48933Y68406D01*
X49069Y68380D01*
X49089Y68381D01*
X49109Y68378D01*
X49248Y68391D01*
X49386Y68399D01*
X49405Y68406D01*
X49425Y68408D01*
X49557Y68455D01*
X49688Y68497D01*
X49705Y68508D01*
X49725Y68515D01*
X49840Y68593D01*
X49957Y68668D01*
X49971Y68682D01*
X49988Y68694D01*
X50080Y68798D01*
X50175Y68899D01*
X50185Y68917D01*
X50198Y68932D01*
X50262Y69056D01*
X50329Y69178D01*
X50334Y69197D01*
X50343Y69215D01*
X50373Y69351D01*
X50408Y69486D01*
X50410Y69514D01*
X50413Y69526D01*
X50412Y69546D01*
X50418Y69646D01*
X50418Y76175D01*
X51460Y77217D01*
X56338Y77217D01*
X56476Y77234D01*
X56614Y77247D01*
X56633Y77254D01*
X56653Y77257D01*
X56783Y77308D01*
X56913Y77355D01*
X56930Y77366D01*
X56949Y77374D01*
X57061Y77455D01*
X57176Y77533D01*
X57190Y77549D01*
X57206Y77560D01*
X57295Y77668D01*
X57387Y77772D01*
X57396Y77790D01*
X57409Y77805D01*
X57468Y77931D01*
X57531Y78055D01*
X57536Y78075D01*
X57545Y78093D01*
X57571Y78230D01*
X57601Y78365D01*
X57601Y78386D01*
X57604Y78405D01*
X57596Y78544D01*
X57591Y78683D01*
X57586Y78703D01*
X57585Y78723D01*
X57542Y78855D01*
X57503Y78989D01*
X57493Y79006D01*
X57487Y79025D01*
X57412Y79143D01*
X57342Y79263D01*
X57323Y79284D01*
X57316Y79294D01*
X57301Y79308D01*
X57235Y79384D01*
X56571Y80048D01*
X53171Y83448D01*
X53093Y83508D01*
X53021Y83576D01*
X52968Y83605D01*
X52920Y83642D01*
X52829Y83682D01*
X52742Y83730D01*
X52684Y83745D01*
X52628Y83769D01*
X52530Y83784D01*
X52434Y83809D01*
X52334Y83815D01*
X52314Y83819D01*
X52302Y83817D01*
X52274Y83819D01*
X51460Y83819D01*
X50418Y84861D01*
X50418Y98019D01*
X51460Y99061D01*
X57912Y99061D01*
X58030Y99076D01*
X58149Y99083D01*
X58187Y99096D01*
X58228Y99101D01*
X58338Y99144D01*
X58451Y99181D01*
X58486Y99203D01*
X58523Y99218D01*
X58619Y99287D01*
X58720Y99351D01*
X58748Y99381D01*
X58781Y99404D01*
X58857Y99496D01*
X58938Y99583D01*
X58958Y99618D01*
X58983Y99649D01*
X59034Y99757D01*
X59092Y99861D01*
X59102Y99901D01*
X59119Y99937D01*
X59141Y100054D01*
X59171Y100169D01*
X59175Y100229D01*
X59179Y100249D01*
X59177Y100270D01*
X59181Y100330D01*
X59181Y102327D01*
X59166Y102452D01*
X59156Y102577D01*
X59146Y102609D01*
X59141Y102643D01*
X59095Y102759D01*
X59055Y102879D01*
X59037Y102907D01*
X59024Y102938D01*
X58951Y103040D01*
X58882Y103145D01*
X58857Y103168D01*
X58838Y103196D01*
X58741Y103276D01*
X58648Y103361D01*
X58619Y103377D01*
X58593Y103398D01*
X58479Y103452D01*
X58368Y103512D01*
X58335Y103520D01*
X58305Y103534D01*
X58181Y103558D01*
X58059Y103588D01*
X58026Y103587D01*
X57993Y103594D01*
X57867Y103586D01*
X57741Y103585D01*
X57693Y103575D01*
X57675Y103574D01*
X57655Y103567D01*
X57583Y103553D01*
X56927Y103377D01*
X55371Y103377D01*
X55371Y110935D01*
X65913Y110935D01*
X65932Y110947D01*
X65954Y110951D01*
X65961Y110966D01*
X65970Y110972D01*
X65969Y110982D01*
X65976Y110998D01*
X65976Y113538D01*
X65964Y113557D01*
X65960Y113579D01*
X65945Y113586D01*
X65939Y113595D01*
X65929Y113594D01*
X65913Y113601D01*
X55371Y113601D01*
X55371Y121159D01*
X56927Y121159D01*
X57700Y120952D01*
X58392Y120552D01*
X58928Y120016D01*
X59023Y119942D01*
X59112Y119864D01*
X59148Y119845D01*
X59180Y119821D01*
X59289Y119773D01*
X59395Y119719D01*
X59434Y119710D01*
X59472Y119694D01*
X59589Y119676D01*
X59705Y119649D01*
X59746Y119651D01*
X59786Y119644D01*
X59904Y119656D01*
X60023Y119659D01*
X60062Y119670D01*
X60102Y119674D01*
X60214Y119714D01*
X60329Y119748D01*
X60364Y119768D01*
X60402Y119782D01*
X60500Y119849D01*
X60568Y119889D01*
X67673Y119889D01*
X68708Y118854D01*
X68708Y105682D01*
X67682Y104657D01*
X67622Y104578D01*
X67554Y104506D01*
X67525Y104453D01*
X67488Y104405D01*
X67448Y104314D01*
X67400Y104228D01*
X67385Y104169D01*
X67361Y104113D01*
X67346Y104015D01*
X67321Y103920D01*
X67315Y103820D01*
X67311Y103799D01*
X67313Y103787D01*
X67311Y103759D01*
X67311Y100170D01*
X67196Y100056D01*
X67123Y99961D01*
X67044Y99872D01*
X67026Y99836D01*
X67001Y99804D01*
X66954Y99695D01*
X66900Y99589D01*
X66891Y99550D01*
X66875Y99512D01*
X66856Y99395D01*
X66830Y99279D01*
X66831Y99238D01*
X66825Y99198D01*
X66836Y99079D01*
X66840Y98961D01*
X66851Y98922D01*
X66855Y98882D01*
X66895Y98770D01*
X66928Y98655D01*
X66949Y98620D01*
X66962Y98582D01*
X67029Y98484D01*
X67090Y98381D01*
X67129Y98336D01*
X67141Y98319D01*
X67156Y98306D01*
X67196Y98261D01*
X67438Y98019D01*
X67438Y94742D01*
X67453Y94624D01*
X67460Y94505D01*
X67473Y94467D01*
X67478Y94426D01*
X67521Y94316D01*
X67558Y94203D01*
X67580Y94168D01*
X67595Y94131D01*
X67664Y94035D01*
X67728Y93934D01*
X67758Y93906D01*
X67781Y93873D01*
X67873Y93797D01*
X67960Y93716D01*
X67995Y93696D01*
X68026Y93671D01*
X68134Y93620D01*
X68238Y93562D01*
X68278Y93552D01*
X68314Y93535D01*
X68431Y93513D01*
X68546Y93483D01*
X68606Y93479D01*
X68626Y93475D01*
X68647Y93477D01*
X68707Y93473D01*
X79912Y93473D01*
X80010Y93485D01*
X80109Y93488D01*
X80168Y93505D01*
X80228Y93513D01*
X80320Y93549D01*
X80415Y93577D01*
X80467Y93607D01*
X80523Y93630D01*
X80604Y93688D01*
X80689Y93738D01*
X80764Y93804D01*
X80781Y93816D01*
X80789Y93826D01*
X80810Y93844D01*
X99488Y112523D01*
X109043Y112523D01*
X109141Y112535D01*
X109240Y112538D01*
X109298Y112555D01*
X109358Y112563D01*
X109450Y112599D01*
X109545Y112627D01*
X109597Y112657D01*
X109654Y112680D01*
X109734Y112738D01*
X109819Y112788D01*
X109895Y112854D01*
X109911Y112866D01*
X109919Y112876D01*
X109940Y112894D01*
X111600Y114555D01*
X114968Y114555D01*
X117349Y112174D01*
X117349Y108806D01*
X114968Y106425D01*
X111600Y106425D01*
X109940Y108086D01*
X109862Y108146D01*
X109790Y108214D01*
X109737Y108243D01*
X109689Y108280D01*
X109598Y108320D01*
X109511Y108368D01*
X109453Y108383D01*
X109397Y108407D01*
X109299Y108422D01*
X109203Y108447D01*
X109103Y108453D01*
X109083Y108457D01*
X109071Y108455D01*
X109043Y108457D01*
X101698Y108457D01*
X101600Y108445D01*
X101501Y108442D01*
X101442Y108425D01*
X101382Y108417D01*
X101290Y108381D01*
X101195Y108353D01*
X101143Y108323D01*
X101087Y108300D01*
X101006Y108242D01*
X100921Y108192D01*
X100846Y108126D01*
X100829Y108114D01*
X100821Y108104D01*
X100800Y108086D01*
X82122Y89407D01*
X68707Y89407D01*
X68589Y89392D01*
X68470Y89385D01*
X68432Y89372D01*
X68391Y89367D01*
X68281Y89324D01*
X68168Y89287D01*
X68133Y89265D01*
X68096Y89250D01*
X68000Y89181D01*
X67899Y89117D01*
X67871Y89087D01*
X67838Y89064D01*
X67762Y88972D01*
X67681Y88885D01*
X67661Y88850D01*
X67636Y88819D01*
X67585Y88711D01*
X67527Y88607D01*
X67517Y88567D01*
X67500Y88531D01*
X67478Y88414D01*
X67448Y88299D01*
X67444Y88239D01*
X67440Y88219D01*
X67442Y88198D01*
X67438Y88138D01*
X67438Y84861D01*
X66396Y83819D01*
X63852Y83819D01*
X63714Y83802D01*
X63575Y83789D01*
X63556Y83782D01*
X63536Y83779D01*
X63407Y83728D01*
X63276Y83681D01*
X63259Y83670D01*
X63240Y83662D01*
X63128Y83581D01*
X63013Y83503D01*
X63000Y83487D01*
X62983Y83476D01*
X62894Y83368D01*
X62802Y83264D01*
X62793Y83246D01*
X62780Y83231D01*
X62721Y83105D01*
X62658Y82981D01*
X62653Y82961D01*
X62645Y82943D01*
X62619Y82806D01*
X62588Y82671D01*
X62589Y82650D01*
X62585Y82631D01*
X62594Y82492D01*
X62598Y82353D01*
X62603Y82333D01*
X62605Y82313D01*
X62647Y82181D01*
X62686Y82047D01*
X62697Y82030D01*
X62703Y82011D01*
X62777Y81893D01*
X62848Y81773D01*
X62866Y81752D01*
X62873Y81742D01*
X62888Y81728D01*
X62954Y81652D01*
X63619Y80988D01*
X65025Y79582D01*
X65025Y78486D01*
X65040Y78368D01*
X65047Y78249D01*
X65060Y78211D01*
X65065Y78170D01*
X65108Y78060D01*
X65145Y77947D01*
X65167Y77912D01*
X65182Y77875D01*
X65251Y77779D01*
X65315Y77678D01*
X65345Y77650D01*
X65368Y77617D01*
X65460Y77541D01*
X65547Y77460D01*
X65582Y77440D01*
X65613Y77415D01*
X65721Y77364D01*
X65825Y77306D01*
X65865Y77296D01*
X65901Y77279D01*
X66018Y77257D01*
X66133Y77227D01*
X66193Y77223D01*
X66213Y77219D01*
X66234Y77221D01*
X66294Y77217D01*
X66396Y77217D01*
X67438Y76175D01*
X67438Y63017D01*
X67040Y62619D01*
X66955Y62510D01*
X66866Y62403D01*
X66857Y62384D01*
X66845Y62368D01*
X66790Y62240D01*
X66731Y62115D01*
X66727Y62095D01*
X66719Y62076D01*
X66697Y61938D01*
X66671Y61802D01*
X66672Y61782D01*
X66669Y61762D01*
X66682Y61623D01*
X66691Y61485D01*
X66697Y61466D01*
X66699Y61446D01*
X66746Y61315D01*
X66789Y61183D01*
X66799Y61165D01*
X66806Y61146D01*
X66884Y61032D01*
X66959Y60914D01*
X66973Y60900D01*
X66985Y60883D01*
X67089Y60791D01*
X67190Y60696D01*
X67208Y60686D01*
X67223Y60673D01*
X67347Y60610D01*
X67469Y60542D01*
X67488Y60537D01*
X67506Y60528D01*
X67642Y60498D01*
X67777Y60463D01*
X67805Y60461D01*
X67817Y60458D01*
X67837Y60459D01*
X67937Y60453D01*
X71959Y60453D01*
X72057Y60465D01*
X72156Y60468D01*
X72214Y60485D01*
X72274Y60493D01*
X72366Y60529D01*
X72461Y60557D01*
X72513Y60587D01*
X72570Y60610D01*
X72650Y60668D01*
X72735Y60718D01*
X72811Y60784D01*
X72827Y60796D01*
X72835Y60806D01*
X72856Y60824D01*
X74516Y62485D01*
X77884Y62485D01*
X80265Y60104D01*
X80265Y56736D01*
X77884Y54355D01*
X74516Y54355D01*
X72856Y56016D01*
X72778Y56076D01*
X72706Y56144D01*
X72653Y56173D01*
X72605Y56210D01*
X72514Y56250D01*
X72427Y56298D01*
X72369Y56313D01*
X72313Y56337D01*
X72215Y56352D01*
X72119Y56377D01*
X72019Y56383D01*
X71999Y56387D01*
X71987Y56385D01*
X71959Y56387D01*
X69469Y56387D01*
X69331Y56370D01*
X69193Y56357D01*
X69174Y56350D01*
X69153Y56347D01*
X69024Y56296D01*
X68893Y56249D01*
X68877Y56238D01*
X68858Y56230D01*
X68745Y56149D01*
X68630Y56071D01*
X68617Y56055D01*
X68600Y56044D01*
X68511Y55936D01*
X68420Y55832D01*
X68411Y55814D01*
X68398Y55799D01*
X68338Y55673D01*
X68275Y55549D01*
X68271Y55529D01*
X68262Y55511D01*
X68236Y55375D01*
X68205Y55239D01*
X68206Y55218D01*
X68202Y55199D01*
X68211Y55060D01*
X68215Y54921D01*
X68221Y54901D01*
X68222Y54881D01*
X68265Y54749D01*
X68303Y54615D01*
X68314Y54598D01*
X68320Y54579D01*
X68394Y54461D01*
X68465Y54341D01*
X68484Y54320D01*
X68490Y54310D01*
X68505Y54296D01*
X68571Y54220D01*
X68708Y54084D01*
X68708Y40912D01*
X67673Y39877D01*
X60569Y39877D01*
X60540Y39902D01*
X60504Y39921D01*
X60472Y39945D01*
X60363Y39993D01*
X60257Y40047D01*
X60218Y40056D01*
X60180Y40072D01*
X60063Y40090D01*
X59947Y40117D01*
X59906Y40115D01*
X59866Y40122D01*
X59748Y40110D01*
X59629Y40107D01*
X59590Y40096D01*
X59550Y40092D01*
X59438Y40052D01*
X59323Y40018D01*
X59288Y39998D01*
X59250Y39984D01*
X59152Y39917D01*
X59049Y39857D01*
X59004Y39817D01*
X58987Y39806D01*
X58974Y39790D01*
X58929Y39750D01*
X58392Y39214D01*
X57700Y38814D01*
X56927Y38607D01*
X55371Y38607D01*
G37*
%LPD*%
%LPC*%
G36*
X204118Y60197D02*
X204118Y60197D01*
X199897Y64418D01*
X199897Y67818D01*
X199885Y67916D01*
X199882Y68015D01*
X199865Y68073D01*
X199857Y68134D01*
X199821Y68226D01*
X199793Y68321D01*
X199763Y68373D01*
X199740Y68429D01*
X199682Y68509D01*
X199632Y68595D01*
X199566Y68670D01*
X199554Y68687D01*
X199544Y68694D01*
X199526Y68715D01*
X198891Y69351D01*
X198796Y69424D01*
X198707Y69502D01*
X198671Y69521D01*
X198639Y69545D01*
X198530Y69593D01*
X198424Y69647D01*
X198385Y69656D01*
X198347Y69672D01*
X198230Y69691D01*
X198114Y69717D01*
X198073Y69715D01*
X198033Y69722D01*
X197915Y69711D01*
X197796Y69707D01*
X197757Y69696D01*
X197717Y69692D01*
X197605Y69652D01*
X197490Y69618D01*
X197455Y69598D01*
X197417Y69584D01*
X197319Y69518D01*
X197216Y69457D01*
X197171Y69417D01*
X197154Y69406D01*
X197141Y69390D01*
X197096Y69351D01*
X196324Y68579D01*
X189248Y68579D01*
X188213Y69614D01*
X188213Y82786D01*
X189248Y83821D01*
X189484Y83821D01*
X189602Y83836D01*
X189721Y83843D01*
X189759Y83856D01*
X189800Y83861D01*
X189910Y83904D01*
X190023Y83941D01*
X190058Y83963D01*
X190095Y83978D01*
X190191Y84047D01*
X190292Y84111D01*
X190320Y84141D01*
X190353Y84164D01*
X190429Y84256D01*
X190510Y84343D01*
X190530Y84378D01*
X190555Y84409D01*
X190606Y84517D01*
X190664Y84621D01*
X190674Y84661D01*
X190691Y84697D01*
X190713Y84814D01*
X190743Y84929D01*
X190747Y84989D01*
X190751Y85009D01*
X190749Y85030D01*
X190753Y85090D01*
X190753Y104296D01*
X190741Y104394D01*
X190738Y104493D01*
X190721Y104552D01*
X190713Y104612D01*
X190677Y104704D01*
X190649Y104799D01*
X190619Y104851D01*
X190596Y104907D01*
X190538Y104988D01*
X190488Y105073D01*
X190422Y105148D01*
X190410Y105165D01*
X190400Y105173D01*
X190382Y105194D01*
X188760Y106816D01*
X188681Y106876D01*
X188609Y106944D01*
X188556Y106973D01*
X188508Y107010D01*
X188418Y107050D01*
X188331Y107098D01*
X188272Y107113D01*
X188217Y107137D01*
X188119Y107152D01*
X188023Y107177D01*
X187923Y107183D01*
X187903Y107187D01*
X187890Y107185D01*
X187862Y107187D01*
X158165Y107187D01*
X158067Y107175D01*
X157968Y107172D01*
X157910Y107155D01*
X157850Y107147D01*
X157758Y107111D01*
X157663Y107083D01*
X157611Y107053D01*
X157554Y107030D01*
X157474Y106972D01*
X157389Y106922D01*
X157313Y106856D01*
X157297Y106844D01*
X157289Y106834D01*
X157268Y106816D01*
X155608Y105155D01*
X152240Y105155D01*
X149859Y107536D01*
X149859Y110904D01*
X152240Y113285D01*
X155608Y113285D01*
X157268Y111624D01*
X157346Y111564D01*
X157418Y111496D01*
X157471Y111467D01*
X157519Y111430D01*
X157610Y111390D01*
X157697Y111342D01*
X157755Y111327D01*
X157811Y111303D01*
X157909Y111288D01*
X158005Y111263D01*
X158105Y111257D01*
X158125Y111253D01*
X158137Y111255D01*
X158165Y111253D01*
X190072Y111253D01*
X194819Y106506D01*
X194819Y85090D01*
X194834Y84972D01*
X194841Y84853D01*
X194854Y84815D01*
X194859Y84774D01*
X194902Y84664D01*
X194939Y84551D01*
X194961Y84516D01*
X194976Y84479D01*
X195045Y84383D01*
X195109Y84282D01*
X195139Y84254D01*
X195162Y84221D01*
X195254Y84145D01*
X195341Y84064D01*
X195376Y84044D01*
X195407Y84019D01*
X195515Y83968D01*
X195619Y83910D01*
X195659Y83900D01*
X195695Y83883D01*
X195812Y83861D01*
X195927Y83831D01*
X195987Y83827D01*
X196007Y83823D01*
X196028Y83825D01*
X196088Y83821D01*
X196324Y83821D01*
X197096Y83049D01*
X197190Y82976D01*
X197279Y82898D01*
X197315Y82879D01*
X197347Y82855D01*
X197456Y82807D01*
X197562Y82753D01*
X197601Y82744D01*
X197639Y82728D01*
X197756Y82709D01*
X197872Y82683D01*
X197913Y82685D01*
X197953Y82678D01*
X198071Y82689D01*
X198190Y82693D01*
X198229Y82704D01*
X198269Y82708D01*
X198381Y82748D01*
X198496Y82782D01*
X198531Y82802D01*
X198569Y82816D01*
X198667Y82883D01*
X198770Y82943D01*
X198815Y82983D01*
X198832Y82994D01*
X198845Y83010D01*
X198891Y83049D01*
X199662Y83821D01*
X206738Y83821D01*
X207510Y83049D01*
X207604Y82976D01*
X207693Y82898D01*
X207729Y82879D01*
X207761Y82855D01*
X207870Y82807D01*
X207976Y82753D01*
X208015Y82744D01*
X208053Y82728D01*
X208170Y82709D01*
X208286Y82683D01*
X208327Y82685D01*
X208367Y82678D01*
X208485Y82689D01*
X208604Y82693D01*
X208643Y82704D01*
X208683Y82708D01*
X208795Y82748D01*
X208910Y82782D01*
X208945Y82802D01*
X208983Y82816D01*
X209081Y82883D01*
X209184Y82943D01*
X209229Y82983D01*
X209246Y82994D01*
X209259Y83010D01*
X209305Y83049D01*
X210076Y83821D01*
X210312Y83821D01*
X210430Y83836D01*
X210549Y83843D01*
X210587Y83856D01*
X210628Y83861D01*
X210738Y83904D01*
X210851Y83941D01*
X210886Y83963D01*
X210923Y83978D01*
X211019Y84047D01*
X211120Y84111D01*
X211148Y84141D01*
X211181Y84164D01*
X211257Y84256D01*
X211338Y84343D01*
X211358Y84378D01*
X211383Y84409D01*
X211434Y84517D01*
X211492Y84621D01*
X211502Y84661D01*
X211519Y84697D01*
X211541Y84814D01*
X211571Y84929D01*
X211575Y84989D01*
X211579Y85009D01*
X211577Y85030D01*
X211581Y85090D01*
X211581Y107265D01*
X211569Y107363D01*
X211566Y107462D01*
X211549Y107520D01*
X211541Y107580D01*
X211505Y107672D01*
X211477Y107767D01*
X211447Y107820D01*
X211424Y107876D01*
X211366Y107956D01*
X211316Y108041D01*
X211250Y108117D01*
X211238Y108133D01*
X211228Y108141D01*
X211209Y108162D01*
X210565Y108806D01*
X210565Y112174D01*
X212946Y114555D01*
X216314Y114555D01*
X218695Y112174D01*
X218695Y108806D01*
X216018Y106130D01*
X215958Y106052D01*
X215890Y105980D01*
X215861Y105927D01*
X215824Y105879D01*
X215784Y105788D01*
X215736Y105701D01*
X215721Y105643D01*
X215697Y105587D01*
X215682Y105489D01*
X215657Y105393D01*
X215651Y105293D01*
X215647Y105273D01*
X215649Y105261D01*
X215647Y105233D01*
X215647Y85090D01*
X215662Y84972D01*
X215669Y84853D01*
X215682Y84815D01*
X215687Y84774D01*
X215730Y84664D01*
X215767Y84551D01*
X215789Y84516D01*
X215804Y84479D01*
X215873Y84383D01*
X215937Y84282D01*
X215967Y84254D01*
X215990Y84221D01*
X216082Y84145D01*
X216169Y84064D01*
X216204Y84044D01*
X216235Y84019D01*
X216343Y83968D01*
X216447Y83910D01*
X216487Y83900D01*
X216523Y83883D01*
X216640Y83861D01*
X216755Y83831D01*
X216815Y83827D01*
X216835Y83823D01*
X216856Y83825D01*
X216916Y83821D01*
X217678Y83821D01*
X217771Y83833D01*
X217866Y83835D01*
X217890Y83841D01*
X217915Y83843D01*
X217954Y83856D01*
X217994Y83861D01*
X218081Y83895D01*
X218172Y83921D01*
X218194Y83933D01*
X218217Y83941D01*
X218252Y83963D01*
X218289Y83978D01*
X218365Y84033D01*
X218448Y84081D01*
X218465Y84098D01*
X218486Y84111D01*
X218514Y84141D01*
X218547Y84164D01*
X218606Y84237D01*
X218674Y84304D01*
X218687Y84325D01*
X218704Y84343D01*
X218724Y84378D01*
X218749Y84409D01*
X218789Y84495D01*
X218839Y84576D01*
X218846Y84600D01*
X218858Y84621D01*
X218868Y84661D01*
X218885Y84697D01*
X218903Y84790D01*
X218930Y84881D01*
X218931Y84905D01*
X218937Y84929D01*
X218941Y84990D01*
X218945Y85009D01*
X218943Y85030D01*
X218947Y85090D01*
X218947Y85758D01*
X221328Y88139D01*
X224696Y88139D01*
X227077Y85758D01*
X227077Y82390D01*
X226686Y82000D01*
X226626Y81922D01*
X226558Y81850D01*
X226529Y81797D01*
X226492Y81749D01*
X226452Y81658D01*
X226404Y81571D01*
X226389Y81513D01*
X226365Y81457D01*
X226350Y81359D01*
X226325Y81263D01*
X226319Y81163D01*
X226315Y81143D01*
X226317Y81131D01*
X226315Y81103D01*
X226315Y66958D01*
X219554Y60197D01*
X204118Y60197D01*
G37*
%LPD*%
%LPC*%
G36*
X224709Y5841D02*
X224709Y5841D01*
X217521Y8819D01*
X212019Y14321D01*
X209041Y21509D01*
X209041Y29291D01*
X212019Y36479D01*
X217521Y41981D01*
X224709Y44959D01*
X232491Y44959D01*
X239679Y41981D01*
X245181Y36479D01*
X248159Y29291D01*
X248159Y21509D01*
X245181Y14321D01*
X239679Y8819D01*
X232491Y5841D01*
X224709Y5841D01*
G37*
%LPD*%
G36*
X144291Y2812D02*
X144291Y2812D01*
X144430Y2825D01*
X144449Y2832D01*
X144469Y2835D01*
X144598Y2886D01*
X144729Y2933D01*
X144746Y2944D01*
X144764Y2952D01*
X144877Y3033D01*
X144992Y3111D01*
X145005Y3127D01*
X145022Y3138D01*
X145111Y3246D01*
X145202Y3350D01*
X145212Y3368D01*
X145225Y3383D01*
X145284Y3509D01*
X145347Y3633D01*
X145351Y3653D01*
X145360Y3671D01*
X145386Y3808D01*
X145417Y3943D01*
X145416Y3964D01*
X145420Y3983D01*
X145411Y4122D01*
X145407Y4261D01*
X145401Y4281D01*
X145400Y4301D01*
X145357Y4433D01*
X145319Y4567D01*
X145308Y4584D01*
X145302Y4603D01*
X145227Y4721D01*
X145157Y4841D01*
X145139Y4862D01*
X145132Y4872D01*
X145117Y4886D01*
X145051Y4961D01*
X143355Y6657D01*
X141731Y10578D01*
X141731Y14822D01*
X143355Y18743D01*
X146357Y21745D01*
X149584Y23081D01*
X149609Y23096D01*
X149637Y23105D01*
X149747Y23174D01*
X149860Y23239D01*
X149881Y23259D01*
X149906Y23275D01*
X149995Y23370D01*
X150088Y23460D01*
X150104Y23485D01*
X150124Y23507D01*
X150187Y23620D01*
X150255Y23731D01*
X150263Y23759D01*
X150278Y23785D01*
X150310Y23911D01*
X150348Y24035D01*
X150350Y24065D01*
X150357Y24093D01*
X150367Y24254D01*
X150367Y51642D01*
X151930Y53204D01*
X156346Y57620D01*
X156406Y57698D01*
X156474Y57771D01*
X156503Y57824D01*
X156540Y57871D01*
X156580Y57962D01*
X156628Y58049D01*
X156643Y58108D01*
X156667Y58163D01*
X156682Y58261D01*
X156707Y58357D01*
X156713Y58457D01*
X156717Y58477D01*
X156715Y58490D01*
X156717Y58518D01*
X156717Y81690D01*
X156705Y81788D01*
X156702Y81888D01*
X156685Y81946D01*
X156677Y82006D01*
X156641Y82098D01*
X156613Y82193D01*
X156583Y82245D01*
X156560Y82302D01*
X156502Y82382D01*
X156452Y82467D01*
X156386Y82542D01*
X156374Y82559D01*
X156364Y82567D01*
X156346Y82588D01*
X151168Y87766D01*
X151090Y87826D01*
X151017Y87894D01*
X150964Y87923D01*
X150917Y87960D01*
X150826Y88000D01*
X150739Y88048D01*
X150680Y88063D01*
X150625Y88087D01*
X150527Y88102D01*
X150431Y88127D01*
X150331Y88133D01*
X150311Y88137D01*
X150298Y88135D01*
X150270Y88137D01*
X147751Y88137D01*
X147653Y88125D01*
X147554Y88122D01*
X147496Y88105D01*
X147436Y88097D01*
X147344Y88061D01*
X147249Y88033D01*
X147197Y88003D01*
X147140Y87980D01*
X147060Y87922D01*
X146975Y87872D01*
X146899Y87806D01*
X146883Y87794D01*
X146875Y87784D01*
X146854Y87766D01*
X144432Y85343D01*
X144018Y85343D01*
X143900Y85328D01*
X143781Y85321D01*
X143743Y85308D01*
X143702Y85303D01*
X143592Y85260D01*
X143479Y85223D01*
X143444Y85201D01*
X143407Y85186D01*
X143311Y85117D01*
X143210Y85053D01*
X143182Y85023D01*
X143149Y85000D01*
X143073Y84908D01*
X142992Y84821D01*
X142972Y84786D01*
X142947Y84755D01*
X142896Y84647D01*
X142838Y84543D01*
X142828Y84503D01*
X142811Y84467D01*
X142789Y84350D01*
X142759Y84235D01*
X142755Y84175D01*
X142751Y84155D01*
X142753Y84134D01*
X142749Y84074D01*
X142749Y72818D01*
X140552Y70622D01*
X140492Y70543D01*
X140424Y70471D01*
X140395Y70418D01*
X140358Y70370D01*
X140318Y70280D01*
X140270Y70193D01*
X140255Y70134D01*
X140231Y70079D01*
X140216Y69981D01*
X140191Y69885D01*
X140185Y69785D01*
X140181Y69765D01*
X140183Y69752D01*
X140181Y69724D01*
X140181Y69124D01*
X140154Y69094D01*
X140136Y69058D01*
X140111Y69026D01*
X140064Y68917D01*
X140009Y68811D01*
X140001Y68772D01*
X139985Y68734D01*
X139966Y68617D01*
X139940Y68501D01*
X139941Y68460D01*
X139935Y68420D01*
X139946Y68302D01*
X139949Y68183D01*
X139961Y68144D01*
X139965Y68104D01*
X140005Y67992D01*
X140038Y67877D01*
X140058Y67843D01*
X140072Y67804D01*
X140139Y67706D01*
X140199Y67603D01*
X140239Y67558D01*
X140251Y67541D01*
X140266Y67528D01*
X140306Y67483D01*
X140381Y67407D01*
X140476Y67334D01*
X140565Y67255D01*
X140601Y67237D01*
X140633Y67212D01*
X140742Y67165D01*
X140848Y67111D01*
X140887Y67102D01*
X140925Y67086D01*
X141042Y67067D01*
X141158Y67041D01*
X141199Y67042D01*
X141239Y67036D01*
X141357Y67047D01*
X141476Y67051D01*
X141515Y67062D01*
X141555Y67066D01*
X141667Y67106D01*
X141782Y67139D01*
X141816Y67159D01*
X141855Y67173D01*
X141953Y67240D01*
X142056Y67300D01*
X142101Y67340D01*
X142118Y67352D01*
X142131Y67367D01*
X142176Y67407D01*
X143858Y69089D01*
X147574Y69089D01*
X147692Y69104D01*
X147811Y69111D01*
X147849Y69124D01*
X147890Y69129D01*
X148000Y69172D01*
X148113Y69209D01*
X148148Y69231D01*
X148185Y69246D01*
X148281Y69315D01*
X148382Y69379D01*
X148410Y69409D01*
X148443Y69432D01*
X148519Y69524D01*
X148600Y69611D01*
X148620Y69646D01*
X148645Y69677D01*
X148696Y69785D01*
X148754Y69889D01*
X148764Y69929D01*
X148781Y69965D01*
X148803Y70082D01*
X148833Y70197D01*
X148837Y70257D01*
X148841Y70277D01*
X148839Y70298D01*
X148843Y70358D01*
X148843Y73914D01*
X148828Y74032D01*
X148821Y74151D01*
X148808Y74189D01*
X148803Y74230D01*
X148760Y74340D01*
X148723Y74453D01*
X148701Y74488D01*
X148686Y74525D01*
X148617Y74621D01*
X148553Y74722D01*
X148523Y74750D01*
X148500Y74783D01*
X148408Y74859D01*
X148321Y74940D01*
X148286Y74960D01*
X148255Y74985D01*
X148147Y75036D01*
X148043Y75094D01*
X148003Y75104D01*
X147967Y75121D01*
X147850Y75143D01*
X147735Y75173D01*
X147675Y75177D01*
X145287Y77564D01*
X145287Y80932D01*
X147668Y83313D01*
X151036Y83313D01*
X153417Y80932D01*
X153417Y77564D01*
X153280Y77428D01*
X153220Y77350D01*
X153152Y77278D01*
X153123Y77225D01*
X153086Y77177D01*
X153046Y77086D01*
X152998Y76999D01*
X152983Y76941D01*
X152959Y76885D01*
X152944Y76787D01*
X152919Y76691D01*
X152913Y76591D01*
X152909Y76571D01*
X152911Y76559D01*
X152909Y76531D01*
X152909Y59864D01*
X151346Y58302D01*
X146892Y53847D01*
X140401Y53847D01*
X140303Y53835D01*
X140204Y53832D01*
X140146Y53815D01*
X140086Y53807D01*
X139994Y53771D01*
X139899Y53743D01*
X139846Y53713D01*
X139790Y53690D01*
X139710Y53632D01*
X139625Y53582D01*
X139549Y53516D01*
X139533Y53504D01*
X139525Y53494D01*
X139504Y53476D01*
X139138Y53109D01*
X131440Y53109D01*
X131342Y53097D01*
X131242Y53094D01*
X131184Y53077D01*
X131124Y53069D01*
X131032Y53033D01*
X130937Y53005D01*
X130885Y52975D01*
X130828Y52952D01*
X130748Y52894D01*
X130663Y52844D01*
X130588Y52778D01*
X130571Y52766D01*
X130563Y52756D01*
X130542Y52737D01*
X129404Y51600D01*
X129344Y51522D01*
X129276Y51449D01*
X129247Y51396D01*
X129210Y51348D01*
X129170Y51258D01*
X129122Y51171D01*
X129107Y51112D01*
X129083Y51057D01*
X129068Y50959D01*
X129043Y50863D01*
X129037Y50763D01*
X129033Y50743D01*
X129035Y50730D01*
X129033Y50702D01*
X129033Y24254D01*
X129036Y24225D01*
X129034Y24195D01*
X129056Y24067D01*
X129073Y23938D01*
X129083Y23911D01*
X129088Y23882D01*
X129142Y23763D01*
X129190Y23643D01*
X129207Y23619D01*
X129219Y23592D01*
X129300Y23490D01*
X129376Y23385D01*
X129399Y23366D01*
X129418Y23343D01*
X129521Y23265D01*
X129621Y23182D01*
X129648Y23170D01*
X129672Y23152D01*
X129816Y23081D01*
X133043Y21745D01*
X136045Y18743D01*
X137669Y14822D01*
X137669Y10578D01*
X136045Y6657D01*
X134349Y4961D01*
X134264Y4852D01*
X134175Y4745D01*
X134167Y4726D01*
X134154Y4710D01*
X134099Y4582D01*
X134040Y4457D01*
X134036Y4437D01*
X134028Y4418D01*
X134006Y4280D01*
X133980Y4144D01*
X133981Y4124D01*
X133978Y4104D01*
X133991Y3965D01*
X134000Y3827D01*
X134006Y3808D01*
X134008Y3788D01*
X134055Y3656D01*
X134098Y3525D01*
X134109Y3507D01*
X134116Y3488D01*
X134194Y3373D01*
X134268Y3256D01*
X134283Y3242D01*
X134294Y3225D01*
X134398Y3133D01*
X134500Y3038D01*
X134517Y3028D01*
X134533Y3015D01*
X134657Y2951D01*
X134778Y2884D01*
X134798Y2879D01*
X134816Y2870D01*
X134952Y2840D01*
X135086Y2805D01*
X135114Y2803D01*
X135126Y2800D01*
X135147Y2801D01*
X135247Y2795D01*
X144153Y2795D01*
X144291Y2812D01*
G37*
%LPC*%
G36*
X107282Y51815D02*
X107282Y51815D01*
X106892Y52206D01*
X106814Y52266D01*
X106742Y52334D01*
X106689Y52363D01*
X106641Y52400D01*
X106550Y52440D01*
X106463Y52488D01*
X106405Y52503D01*
X106349Y52527D01*
X106251Y52542D01*
X106155Y52567D01*
X106055Y52573D01*
X106035Y52577D01*
X106023Y52575D01*
X105995Y52577D01*
X104296Y52577D01*
X98297Y58576D01*
X98297Y79579D01*
X98285Y79677D01*
X98282Y79776D01*
X98265Y79834D01*
X98257Y79894D01*
X98221Y79986D01*
X98193Y80081D01*
X98163Y80134D01*
X98140Y80190D01*
X98082Y80270D01*
X98032Y80355D01*
X97966Y80431D01*
X97954Y80447D01*
X97944Y80455D01*
X97925Y80476D01*
X97535Y80866D01*
X97535Y84234D01*
X99916Y86615D01*
X103284Y86615D01*
X105665Y84234D01*
X105665Y80866D01*
X105275Y80476D01*
X105214Y80398D01*
X105146Y80326D01*
X105117Y80273D01*
X105080Y80225D01*
X105040Y80134D01*
X104992Y80047D01*
X104977Y79989D01*
X104953Y79933D01*
X104938Y79835D01*
X104913Y79739D01*
X104907Y79639D01*
X104903Y79619D01*
X104905Y79607D01*
X104903Y79579D01*
X104903Y67233D01*
X104920Y67095D01*
X104933Y66957D01*
X104940Y66938D01*
X104943Y66918D01*
X104994Y66789D01*
X105041Y66658D01*
X105052Y66641D01*
X105060Y66622D01*
X105141Y66510D01*
X105219Y66395D01*
X105235Y66381D01*
X105246Y66365D01*
X105354Y66276D01*
X105458Y66184D01*
X105476Y66175D01*
X105491Y66162D01*
X105617Y66103D01*
X105741Y66040D01*
X105761Y66035D01*
X105779Y66026D01*
X105916Y66000D01*
X106051Y65970D01*
X106072Y65970D01*
X106091Y65967D01*
X106230Y65975D01*
X106369Y65980D01*
X106389Y65985D01*
X106409Y65986D01*
X106541Y66029D01*
X106675Y66068D01*
X106692Y66078D01*
X106711Y66084D01*
X106829Y66159D01*
X106949Y66229D01*
X106970Y66248D01*
X106980Y66255D01*
X106994Y66270D01*
X107069Y66336D01*
X108298Y67565D01*
X110831Y67565D01*
X110956Y67581D01*
X111081Y67590D01*
X111113Y67600D01*
X111146Y67605D01*
X111263Y67651D01*
X111382Y67691D01*
X111411Y67709D01*
X111442Y67722D01*
X111543Y67795D01*
X111649Y67864D01*
X111672Y67889D01*
X111699Y67908D01*
X111780Y68005D01*
X111865Y68098D01*
X111880Y68127D01*
X111902Y68153D01*
X111956Y68267D01*
X112015Y68378D01*
X112023Y68411D01*
X112038Y68441D01*
X112061Y68564D01*
X112091Y68687D01*
X112091Y68720D01*
X112097Y68753D01*
X112090Y68879D01*
X112088Y69005D01*
X112079Y69053D01*
X112078Y69071D01*
X112071Y69091D01*
X112057Y69163D01*
X111969Y69488D01*
X111969Y69611D01*
X118110Y69611D01*
X124251Y69611D01*
X124251Y69488D01*
X124043Y68712D01*
X123641Y68017D01*
X123352Y67728D01*
X123292Y67650D01*
X123224Y67578D01*
X123195Y67525D01*
X123158Y67477D01*
X123118Y67386D01*
X123070Y67299D01*
X123055Y67241D01*
X123031Y67185D01*
X123016Y67087D01*
X122991Y66991D01*
X122985Y66891D01*
X122981Y66871D01*
X122983Y66859D01*
X122981Y66831D01*
X122981Y64124D01*
X122954Y64094D01*
X122936Y64058D01*
X122911Y64026D01*
X122863Y63917D01*
X122809Y63811D01*
X122801Y63771D01*
X122785Y63734D01*
X122766Y63616D01*
X122740Y63501D01*
X122741Y63460D01*
X122735Y63420D01*
X122746Y63301D01*
X122750Y63183D01*
X122761Y63144D01*
X122765Y63104D01*
X122805Y62991D01*
X122838Y62877D01*
X122858Y62842D01*
X122872Y62804D01*
X122939Y62706D01*
X122981Y62635D01*
X122981Y59124D01*
X122954Y59094D01*
X122936Y59058D01*
X122911Y59026D01*
X122863Y58917D01*
X122809Y58811D01*
X122801Y58771D01*
X122785Y58734D01*
X122766Y58616D01*
X122740Y58501D01*
X122741Y58460D01*
X122735Y58420D01*
X122746Y58301D01*
X122750Y58183D01*
X122761Y58144D01*
X122765Y58104D01*
X122805Y57991D01*
X122838Y57877D01*
X122858Y57842D01*
X122872Y57804D01*
X122939Y57706D01*
X122981Y57635D01*
X122981Y54114D01*
X122921Y54079D01*
X122900Y54060D01*
X122890Y54053D01*
X122876Y54038D01*
X122801Y53972D01*
X121938Y53109D01*
X119817Y53109D01*
X119719Y53097D01*
X119620Y53094D01*
X119590Y53085D01*
X112445Y53085D01*
X112347Y53073D01*
X112248Y53070D01*
X112190Y53053D01*
X112130Y53045D01*
X112038Y53009D01*
X111943Y52981D01*
X111891Y52951D01*
X111834Y52928D01*
X111754Y52870D01*
X111669Y52820D01*
X111593Y52754D01*
X111577Y52742D01*
X111569Y52732D01*
X111548Y52714D01*
X110650Y51815D01*
X107282Y51815D01*
G37*
%LPD*%
%LPC*%
G36*
X244417Y75590D02*
X244417Y75590D01*
X242990Y77017D01*
X242957Y77118D01*
X242935Y77152D01*
X242920Y77190D01*
X242851Y77286D01*
X242787Y77386D01*
X242757Y77414D01*
X242734Y77447D01*
X242642Y77523D01*
X242555Y77604D01*
X242520Y77624D01*
X242489Y77650D01*
X242381Y77700D01*
X242277Y77758D01*
X242237Y77768D01*
X242201Y77785D01*
X242084Y77808D01*
X241969Y77837D01*
X241909Y77841D01*
X241889Y77845D01*
X241868Y77844D01*
X241808Y77848D01*
X237433Y77848D01*
X237419Y77846D01*
X237293Y77840D01*
X236474Y77749D01*
X236457Y77758D01*
X236351Y77785D01*
X235758Y78378D01*
X235747Y78387D01*
X235654Y78472D01*
X235010Y78987D01*
X235005Y79005D01*
X234949Y79099D01*
X234949Y79937D01*
X234947Y79952D01*
X234942Y80077D01*
X234851Y80897D01*
X234860Y80913D01*
X234887Y81019D01*
X235480Y81612D01*
X235489Y81623D01*
X235573Y81717D01*
X237285Y83856D01*
X237295Y83872D01*
X237308Y83886D01*
X237378Y84008D01*
X237451Y84127D01*
X237456Y84145D01*
X237466Y84162D01*
X237503Y84297D01*
X237544Y84431D01*
X237545Y84450D01*
X237550Y84468D01*
X237552Y84608D01*
X237559Y84749D01*
X237555Y84768D01*
X237555Y84786D01*
X237523Y84922D01*
X237494Y85060D01*
X237486Y85077D01*
X237482Y85096D01*
X237416Y85219D01*
X237354Y85346D01*
X237342Y85360D01*
X237333Y85377D01*
X237239Y85481D01*
X237148Y85588D01*
X237132Y85598D01*
X237120Y85613D01*
X237002Y85690D01*
X236888Y85770D01*
X236870Y85777D01*
X236854Y85788D01*
X236705Y85849D01*
X236424Y85946D01*
X234949Y88010D01*
X234949Y90547D01*
X236424Y92611D01*
X237155Y92861D01*
X237257Y92911D01*
X237363Y92954D01*
X237400Y92981D01*
X237441Y93001D01*
X237527Y93075D01*
X237619Y93143D01*
X237648Y93178D01*
X237682Y93208D01*
X237748Y93301D01*
X237820Y93389D01*
X237839Y93431D01*
X237865Y93468D01*
X237906Y93575D01*
X237953Y93678D01*
X237961Y93723D01*
X237978Y93766D01*
X237990Y93879D01*
X238011Y93990D01*
X238008Y94036D01*
X238013Y94082D01*
X237997Y94194D01*
X237989Y94308D01*
X237971Y94375D01*
X237968Y94397D01*
X237961Y94414D01*
X237948Y94463D01*
X237476Y95877D01*
X238008Y96940D01*
X238018Y96968D01*
X238033Y96994D01*
X238070Y97118D01*
X238113Y97240D01*
X238116Y97270D01*
X238125Y97298D01*
X238130Y97428D01*
X238141Y97557D01*
X238136Y97586D01*
X238137Y97616D01*
X238110Y97743D01*
X238089Y97871D01*
X238077Y97898D01*
X238071Y97927D01*
X238008Y98075D01*
X237476Y99139D01*
X238075Y100936D01*
X239770Y101783D01*
X244963Y100052D01*
X244971Y100050D01*
X244980Y100046D01*
X245127Y100019D01*
X245275Y99990D01*
X245284Y99991D01*
X245292Y99989D01*
X245441Y99999D01*
X245489Y100002D01*
X246161Y99666D01*
X246170Y99663D01*
X246178Y99658D01*
X246327Y99597D01*
X247032Y99362D01*
X247056Y99326D01*
X247063Y99320D01*
X247068Y99313D01*
X247180Y99215D01*
X247216Y99183D01*
X247453Y98471D01*
X247458Y98462D01*
X247460Y98453D01*
X247522Y98304D01*
X247855Y97640D01*
X247846Y97597D01*
X247847Y97588D01*
X247845Y97579D01*
X247855Y97430D01*
X247858Y97383D01*
X247522Y96711D01*
X247519Y96702D01*
X247514Y96694D01*
X247453Y96545D01*
X247218Y95840D01*
X247182Y95816D01*
X247176Y95809D01*
X247169Y95804D01*
X247071Y95691D01*
X247039Y95656D01*
X246327Y95418D01*
X246318Y95414D01*
X246309Y95412D01*
X246161Y95349D01*
X245625Y95082D01*
X245514Y95008D01*
X245400Y94938D01*
X245382Y94919D01*
X245361Y94905D01*
X245272Y94806D01*
X245179Y94710D01*
X245166Y94687D01*
X245149Y94668D01*
X245087Y94550D01*
X245021Y94434D01*
X245014Y94409D01*
X245002Y94386D01*
X244972Y94256D01*
X244937Y94127D01*
X244936Y94101D01*
X244930Y94076D01*
X244934Y93942D01*
X244931Y93809D01*
X244937Y93784D01*
X244938Y93758D01*
X244974Y93630D01*
X245005Y93500D01*
X245017Y93477D01*
X245024Y93452D01*
X245091Y93337D01*
X245153Y93218D01*
X245171Y93199D01*
X245184Y93177D01*
X245277Y93082D01*
X245367Y92983D01*
X245389Y92969D01*
X245407Y92950D01*
X245521Y92881D01*
X245633Y92808D01*
X245666Y92794D01*
X245679Y92786D01*
X245699Y92780D01*
X245781Y92746D01*
X246176Y92610D01*
X247651Y90546D01*
X247651Y88010D01*
X246330Y86160D01*
X246323Y86148D01*
X246313Y86137D01*
X246247Y86008D01*
X246179Y85880D01*
X246175Y85866D01*
X246169Y85854D01*
X246137Y85712D01*
X246102Y85572D01*
X246102Y85557D01*
X246099Y85543D01*
X246103Y85398D01*
X246104Y85254D01*
X246108Y85240D01*
X246109Y85225D01*
X246149Y85086D01*
X246186Y84946D01*
X246193Y84934D01*
X246197Y84920D01*
X246270Y84795D01*
X246341Y84669D01*
X246351Y84658D01*
X246358Y84646D01*
X246465Y84525D01*
X247651Y83339D01*
X247651Y76929D01*
X246311Y75590D01*
X244417Y75590D01*
G37*
%LPD*%
G36*
X215538Y74879D02*
X215538Y74879D01*
X215560Y74883D01*
X215567Y74898D01*
X215576Y74904D01*
X215575Y74914D01*
X215582Y74930D01*
X215582Y77470D01*
X215570Y77489D01*
X215566Y77511D01*
X215551Y77518D01*
X215545Y77527D01*
X215535Y77526D01*
X215519Y77533D01*
X190881Y77533D01*
X190862Y77521D01*
X190840Y77517D01*
X190833Y77502D01*
X190824Y77496D01*
X190825Y77486D01*
X190818Y77470D01*
X190818Y74930D01*
X190830Y74911D01*
X190834Y74889D01*
X190849Y74882D01*
X190855Y74873D01*
X190865Y74874D01*
X190881Y74867D01*
X215519Y74867D01*
X215538Y74879D01*
G37*
%LPC*%
G36*
X78739Y15239D02*
X78739Y15239D01*
X78739Y24385D01*
X78996Y24345D01*
X80783Y23764D01*
X82457Y22911D01*
X83978Y21806D01*
X85306Y20478D01*
X86411Y18957D01*
X87264Y17283D01*
X87845Y15496D01*
X87885Y15239D01*
X78739Y15239D01*
G37*
%LPD*%
%LPC*%
G36*
X64515Y15239D02*
X64515Y15239D01*
X64555Y15496D01*
X65136Y17283D01*
X65989Y18957D01*
X67094Y20478D01*
X68422Y21806D01*
X69943Y22911D01*
X71617Y23764D01*
X73404Y24345D01*
X73661Y24385D01*
X73661Y15239D01*
X64515Y15239D01*
G37*
%LPD*%
%LPC*%
G36*
X47878Y113918D02*
X47878Y113918D01*
X47878Y118522D01*
X48085Y119295D01*
X48485Y119987D01*
X49050Y120552D01*
X49742Y120952D01*
X50515Y121159D01*
X52071Y121159D01*
X52071Y113918D01*
X47878Y113918D01*
G37*
%LPD*%
%LPC*%
G36*
X50515Y103377D02*
X50515Y103377D01*
X49742Y103584D01*
X49050Y103984D01*
X48485Y104549D01*
X48085Y105241D01*
X47878Y106014D01*
X47878Y110618D01*
X52071Y110618D01*
X52071Y103377D01*
X50515Y103377D01*
G37*
%LPD*%
%LPC*%
G36*
X47878Y49148D02*
X47878Y49148D01*
X47878Y53752D01*
X48085Y54525D01*
X48485Y55217D01*
X49050Y55782D01*
X49742Y56182D01*
X50515Y56389D01*
X52071Y56389D01*
X52071Y49148D01*
X47878Y49148D01*
G37*
%LPD*%
%LPC*%
G36*
X50515Y38607D02*
X50515Y38607D01*
X49742Y38814D01*
X49050Y39214D01*
X48485Y39779D01*
X48085Y40471D01*
X47878Y41244D01*
X47878Y45848D01*
X52071Y45848D01*
X52071Y38607D01*
X50515Y38607D01*
G37*
%LPD*%
%LPC*%
G36*
X119379Y72149D02*
X119379Y72149D01*
X119379Y74921D01*
X121602Y74921D01*
X122378Y74713D01*
X123073Y74311D01*
X123641Y73743D01*
X124043Y73048D01*
X124251Y72272D01*
X124251Y72149D01*
X119379Y72149D01*
G37*
%LPD*%
%LPC*%
G36*
X111969Y72149D02*
X111969Y72149D01*
X111969Y72272D01*
X112177Y73048D01*
X112579Y73743D01*
X113147Y74311D01*
X113842Y74713D01*
X114618Y74921D01*
X116841Y74921D01*
X116841Y72149D01*
X111969Y72149D01*
G37*
%LPD*%
D10*
X239945Y99314D02*
X245364Y97508D01*
X239945Y95702D01*
X241300Y91536D02*
X241140Y91534D01*
X240980Y91528D01*
X240821Y91519D01*
X240661Y91505D01*
X240502Y91488D01*
X240344Y91467D01*
X240186Y91443D01*
X240029Y91414D01*
X239872Y91382D01*
X239716Y91346D01*
X239561Y91306D01*
X239407Y91263D01*
X239255Y91216D01*
X239103Y91165D01*
X238952Y91111D01*
X238803Y91053D01*
X238656Y90992D01*
X238510Y90927D01*
X238365Y90859D01*
X238290Y90831D01*
X238217Y90800D01*
X238145Y90765D01*
X238075Y90727D01*
X238007Y90686D01*
X237941Y90641D01*
X237877Y90594D01*
X237815Y90543D01*
X237756Y90490D01*
X237700Y90433D01*
X237646Y90374D01*
X237595Y90313D01*
X237547Y90249D01*
X237502Y90183D01*
X237461Y90115D01*
X237423Y90045D01*
X237388Y89974D01*
X237356Y89900D01*
X237328Y89826D01*
X237304Y89750D01*
X237283Y89673D01*
X237266Y89595D01*
X237253Y89516D01*
X237244Y89437D01*
X237238Y89358D01*
X237236Y89278D01*
X237238Y89198D01*
X237244Y89119D01*
X237253Y89040D01*
X237266Y88961D01*
X237283Y88883D01*
X237304Y88806D01*
X237328Y88730D01*
X237356Y88656D01*
X237388Y88582D01*
X237423Y88511D01*
X237461Y88441D01*
X237502Y88373D01*
X237547Y88307D01*
X237595Y88243D01*
X237646Y88182D01*
X237700Y88123D01*
X237756Y88066D01*
X237815Y88013D01*
X237877Y87962D01*
X237941Y87915D01*
X238007Y87870D01*
X238075Y87829D01*
X238145Y87791D01*
X238217Y87756D01*
X238290Y87725D01*
X238365Y87697D01*
X238365Y87698D02*
X238510Y87630D01*
X238656Y87565D01*
X238803Y87504D01*
X238952Y87446D01*
X239103Y87392D01*
X239255Y87341D01*
X239407Y87294D01*
X239561Y87251D01*
X239716Y87211D01*
X239872Y87175D01*
X240029Y87143D01*
X240186Y87114D01*
X240344Y87090D01*
X240502Y87069D01*
X240661Y87052D01*
X240821Y87038D01*
X240980Y87029D01*
X241140Y87023D01*
X241300Y87021D01*
X241300Y91536D02*
X241460Y91534D01*
X241620Y91528D01*
X241779Y91519D01*
X241939Y91505D01*
X242098Y91488D01*
X242256Y91467D01*
X242414Y91443D01*
X242571Y91414D01*
X242728Y91382D01*
X242884Y91346D01*
X243039Y91306D01*
X243193Y91263D01*
X243345Y91216D01*
X243497Y91165D01*
X243648Y91111D01*
X243797Y91053D01*
X243944Y90992D01*
X244090Y90927D01*
X244235Y90859D01*
X244310Y90831D01*
X244383Y90800D01*
X244455Y90765D01*
X244525Y90727D01*
X244593Y90686D01*
X244659Y90641D01*
X244723Y90594D01*
X244785Y90543D01*
X244844Y90490D01*
X244900Y90433D01*
X244954Y90374D01*
X245005Y90313D01*
X245053Y90249D01*
X245098Y90183D01*
X245139Y90115D01*
X245177Y90045D01*
X245212Y89974D01*
X245244Y89900D01*
X245272Y89826D01*
X245296Y89750D01*
X245317Y89673D01*
X245334Y89595D01*
X245347Y89516D01*
X245356Y89437D01*
X245362Y89358D01*
X245364Y89278D01*
X244235Y87698D02*
X244090Y87630D01*
X243944Y87565D01*
X243797Y87504D01*
X243648Y87446D01*
X243497Y87392D01*
X243345Y87341D01*
X243193Y87294D01*
X243039Y87251D01*
X242884Y87211D01*
X242728Y87175D01*
X242571Y87143D01*
X242414Y87114D01*
X242256Y87090D01*
X242098Y87069D01*
X241939Y87052D01*
X241779Y87038D01*
X241620Y87029D01*
X241460Y87023D01*
X241300Y87021D01*
X244235Y87697D02*
X244310Y87725D01*
X244383Y87756D01*
X244455Y87791D01*
X244525Y87829D01*
X244593Y87870D01*
X244659Y87915D01*
X244723Y87962D01*
X244785Y88013D01*
X244844Y88066D01*
X244900Y88123D01*
X244954Y88182D01*
X245005Y88243D01*
X245053Y88307D01*
X245098Y88373D01*
X245139Y88441D01*
X245177Y88511D01*
X245212Y88582D01*
X245244Y88656D01*
X245272Y88730D01*
X245296Y88806D01*
X245317Y88883D01*
X245334Y88961D01*
X245347Y89040D01*
X245356Y89119D01*
X245362Y89198D01*
X245364Y89278D01*
X243558Y91084D02*
X239042Y87472D01*
X239042Y82392D02*
X237236Y80134D01*
X245364Y80134D01*
X245364Y77877D02*
X245364Y82392D01*
D11*
X200660Y120650D03*
X6350Y7620D03*
D12*
X210807Y82055D02*
X216421Y82055D01*
X216421Y70345D01*
X210807Y70345D01*
X210807Y82055D01*
X210807Y71286D02*
X216421Y71286D01*
X216421Y72227D02*
X210807Y72227D01*
X210807Y73168D02*
X216421Y73168D01*
X216421Y74109D02*
X210807Y74109D01*
X210807Y75050D02*
X216421Y75050D01*
X216421Y75991D02*
X210807Y75991D01*
X210807Y76932D02*
X216421Y76932D01*
X216421Y77873D02*
X210807Y77873D01*
X210807Y78814D02*
X216421Y78814D01*
X216421Y79755D02*
X210807Y79755D01*
X210807Y80696D02*
X216421Y80696D01*
X216421Y81637D02*
X210807Y81637D01*
X206007Y82055D02*
X200393Y82055D01*
X206007Y82055D02*
X206007Y70345D01*
X200393Y70345D01*
X200393Y82055D01*
X200393Y71286D02*
X206007Y71286D01*
X206007Y72227D02*
X200393Y72227D01*
X200393Y73168D02*
X206007Y73168D01*
X206007Y74109D02*
X200393Y74109D01*
X200393Y75050D02*
X206007Y75050D01*
X206007Y75991D02*
X200393Y75991D01*
X200393Y76932D02*
X206007Y76932D01*
X206007Y77873D02*
X200393Y77873D01*
X200393Y78814D02*
X206007Y78814D01*
X206007Y79755D02*
X200393Y79755D01*
X200393Y80696D02*
X206007Y80696D01*
X206007Y81637D02*
X200393Y81637D01*
X195593Y82055D02*
X189979Y82055D01*
X195593Y82055D02*
X195593Y70345D01*
X189979Y70345D01*
X189979Y82055D01*
X189979Y71286D02*
X195593Y71286D01*
X195593Y72227D02*
X189979Y72227D01*
X189979Y73168D02*
X195593Y73168D01*
X195593Y74109D02*
X189979Y74109D01*
X189979Y75050D02*
X195593Y75050D01*
X195593Y75991D02*
X189979Y75991D01*
X189979Y76932D02*
X195593Y76932D01*
X195593Y77873D02*
X189979Y77873D01*
X189979Y78814D02*
X195593Y78814D01*
X195593Y79755D02*
X189979Y79755D01*
X189979Y80696D02*
X195593Y80696D01*
X195593Y81637D02*
X189979Y81637D01*
X56528Y106413D02*
X50914Y106413D01*
X50914Y118123D01*
X56528Y118123D01*
X56528Y106413D01*
X56528Y107354D02*
X50914Y107354D01*
X50914Y108295D02*
X56528Y108295D01*
X56528Y109236D02*
X50914Y109236D01*
X50914Y110177D02*
X56528Y110177D01*
X56528Y111118D02*
X50914Y111118D01*
X50914Y112059D02*
X56528Y112059D01*
X56528Y113000D02*
X50914Y113000D01*
X50914Y113941D02*
X56528Y113941D01*
X56528Y114882D02*
X50914Y114882D01*
X50914Y115823D02*
X56528Y115823D01*
X56528Y116764D02*
X50914Y116764D01*
X50914Y117705D02*
X56528Y117705D01*
X61328Y106413D02*
X66942Y106413D01*
X61328Y106413D02*
X61328Y118123D01*
X66942Y118123D01*
X66942Y106413D01*
X66942Y107354D02*
X61328Y107354D01*
X61328Y108295D02*
X66942Y108295D01*
X66942Y109236D02*
X61328Y109236D01*
X61328Y110177D02*
X66942Y110177D01*
X66942Y111118D02*
X61328Y111118D01*
X61328Y112059D02*
X66942Y112059D01*
X66942Y113000D02*
X61328Y113000D01*
X61328Y113941D02*
X66942Y113941D01*
X66942Y114882D02*
X61328Y114882D01*
X61328Y115823D02*
X66942Y115823D01*
X66942Y116764D02*
X61328Y116764D01*
X61328Y117705D02*
X66942Y117705D01*
D13*
X115020Y54890D02*
X121200Y54890D01*
X115020Y54890D02*
X115020Y56870D01*
X121200Y56870D01*
X121200Y54890D01*
X121200Y55859D02*
X115020Y55859D01*
X115020Y56828D02*
X121200Y56828D01*
X121200Y59890D02*
X115020Y59890D01*
X115020Y61870D01*
X121200Y61870D01*
X121200Y59890D01*
X121200Y60859D02*
X115020Y60859D01*
X115020Y61828D02*
X121200Y61828D01*
X121200Y64890D02*
X115020Y64890D01*
X115020Y66870D01*
X121200Y66870D01*
X121200Y64890D01*
X121200Y65859D02*
X115020Y65859D01*
X115020Y66828D02*
X121200Y66828D01*
X121200Y69890D02*
X115020Y69890D01*
X115020Y71870D01*
X121200Y71870D01*
X121200Y69890D01*
X121200Y70859D02*
X115020Y70859D01*
X115020Y71828D02*
X121200Y71828D01*
X132220Y69890D02*
X138400Y69890D01*
X132220Y69890D02*
X132220Y71870D01*
X138400Y71870D01*
X138400Y69890D01*
X138400Y70859D02*
X132220Y70859D01*
X132220Y71828D02*
X138400Y71828D01*
X138400Y64890D02*
X132220Y64890D01*
X132220Y66870D01*
X138400Y66870D01*
X138400Y64890D01*
X138400Y65859D02*
X132220Y65859D01*
X132220Y66828D02*
X138400Y66828D01*
X138400Y59890D02*
X132220Y59890D01*
X132220Y61870D01*
X138400Y61870D01*
X138400Y59890D01*
X138400Y60859D02*
X132220Y60859D01*
X132220Y61828D02*
X138400Y61828D01*
X138400Y54890D02*
X132220Y54890D01*
X132220Y56870D01*
X138400Y56870D01*
X138400Y54890D01*
X138400Y55859D02*
X132220Y55859D01*
X132220Y56828D02*
X138400Y56828D01*
D14*
X65659Y75438D02*
X60325Y75438D01*
X65659Y75438D02*
X65659Y63754D01*
X60325Y63754D01*
X60325Y75438D01*
X60325Y64719D02*
X65659Y64719D01*
X65659Y65684D02*
X60325Y65684D01*
X60325Y66649D02*
X65659Y66649D01*
X65659Y67614D02*
X60325Y67614D01*
X60325Y68579D02*
X65659Y68579D01*
X65659Y69544D02*
X60325Y69544D01*
X60325Y70509D02*
X65659Y70509D01*
X65659Y71474D02*
X60325Y71474D01*
X60325Y72439D02*
X65659Y72439D01*
X65659Y73404D02*
X60325Y73404D01*
X60325Y74369D02*
X65659Y74369D01*
X65659Y75334D02*
X60325Y75334D01*
X57531Y75438D02*
X52197Y75438D01*
X57531Y75438D02*
X57531Y63754D01*
X52197Y63754D01*
X52197Y75438D01*
X52197Y64719D02*
X57531Y64719D01*
X57531Y65684D02*
X52197Y65684D01*
X52197Y66649D02*
X57531Y66649D01*
X57531Y67614D02*
X52197Y67614D01*
X52197Y68579D02*
X57531Y68579D01*
X57531Y69544D02*
X52197Y69544D01*
X52197Y70509D02*
X57531Y70509D01*
X57531Y71474D02*
X52197Y71474D01*
X52197Y72439D02*
X57531Y72439D01*
X57531Y73404D02*
X52197Y73404D01*
X52197Y74369D02*
X57531Y74369D01*
X57531Y75334D02*
X52197Y75334D01*
D15*
X76200Y12700D03*
X101600Y12700D03*
X127000Y12700D03*
X152400Y12700D03*
X177800Y12700D03*
D14*
X57531Y85598D02*
X52197Y85598D01*
X52197Y97282D01*
X57531Y97282D01*
X57531Y85598D01*
X57531Y86563D02*
X52197Y86563D01*
X52197Y87528D02*
X57531Y87528D01*
X57531Y88493D02*
X52197Y88493D01*
X52197Y89458D02*
X57531Y89458D01*
X57531Y90423D02*
X52197Y90423D01*
X52197Y91388D02*
X57531Y91388D01*
X57531Y92353D02*
X52197Y92353D01*
X52197Y93318D02*
X57531Y93318D01*
X57531Y94283D02*
X52197Y94283D01*
X52197Y95248D02*
X57531Y95248D01*
X57531Y96213D02*
X52197Y96213D01*
X52197Y97178D02*
X57531Y97178D01*
X60325Y85598D02*
X65659Y85598D01*
X60325Y85598D02*
X60325Y97282D01*
X65659Y97282D01*
X65659Y85598D01*
X65659Y86563D02*
X60325Y86563D01*
X60325Y87528D02*
X65659Y87528D01*
X65659Y88493D02*
X60325Y88493D01*
X60325Y89458D02*
X65659Y89458D01*
X65659Y90423D02*
X60325Y90423D01*
X60325Y91388D02*
X65659Y91388D01*
X65659Y92353D02*
X60325Y92353D01*
X60325Y93318D02*
X65659Y93318D01*
X65659Y94283D02*
X60325Y94283D01*
X60325Y95248D02*
X65659Y95248D01*
X65659Y96213D02*
X60325Y96213D01*
X60325Y97178D02*
X65659Y97178D01*
D12*
X66942Y53353D02*
X61328Y53353D01*
X66942Y53353D02*
X66942Y41643D01*
X61328Y41643D01*
X61328Y53353D01*
X61328Y42584D02*
X66942Y42584D01*
X66942Y43525D02*
X61328Y43525D01*
X61328Y44466D02*
X66942Y44466D01*
X66942Y45407D02*
X61328Y45407D01*
X61328Y46348D02*
X66942Y46348D01*
X66942Y47289D02*
X61328Y47289D01*
X61328Y48230D02*
X66942Y48230D01*
X66942Y49171D02*
X61328Y49171D01*
X61328Y50112D02*
X66942Y50112D01*
X66942Y51053D02*
X61328Y51053D01*
X61328Y51994D02*
X66942Y51994D01*
X66942Y52935D02*
X61328Y52935D01*
X56528Y53353D02*
X50914Y53353D01*
X56528Y53353D02*
X56528Y41643D01*
X50914Y41643D01*
X50914Y53353D01*
X50914Y42584D02*
X56528Y42584D01*
X56528Y43525D02*
X50914Y43525D01*
X50914Y44466D02*
X56528Y44466D01*
X56528Y45407D02*
X50914Y45407D01*
X50914Y46348D02*
X56528Y46348D01*
X56528Y47289D02*
X50914Y47289D01*
X50914Y48230D02*
X56528Y48230D01*
X56528Y49171D02*
X50914Y49171D01*
X50914Y50112D02*
X56528Y50112D01*
X56528Y51053D02*
X50914Y51053D01*
X50914Y51994D02*
X56528Y51994D01*
X56528Y52935D02*
X50914Y52935D01*
D16*
X139700Y38100D03*
X88900Y38100D03*
X76200Y50800D03*
X146050Y109220D03*
X222250Y110490D03*
X170180Y80010D03*
X145796Y72136D03*
X141478Y97282D03*
X12700Y88900D03*
X203200Y12700D03*
X127254Y110744D03*
X165100Y38100D03*
X190500Y38100D03*
X127000Y76200D03*
X44450Y113030D03*
X196850Y64008D03*
X89662Y80264D03*
X101600Y82550D03*
X163830Y54610D03*
D17*
X163830Y72390D01*
D16*
X163830Y72390D03*
X223012Y84074D03*
D17*
X203200Y76200D02*
X203200Y65786D01*
X205486Y63500D01*
X218186Y63500D01*
X223012Y68326D02*
X223012Y84074D01*
X223012Y68326D02*
X218186Y63500D01*
D16*
X108966Y55880D03*
D17*
X105664Y55880D01*
D18*
X108966Y55880D02*
X118110Y55880D01*
D17*
X105664Y55880D02*
X101600Y59944D01*
X101600Y82550D01*
D19*
X135310Y70880D02*
X135550Y71120D01*
X138176Y71120D01*
X140716Y73660D01*
X140716Y87376D02*
X142748Y89408D01*
X140716Y87376D02*
X140716Y73660D01*
D16*
X142748Y89408D03*
D19*
X152400Y50800D02*
X152400Y12700D01*
X158750Y57150D02*
X158750Y83058D01*
X151638Y90170D01*
X143510Y90170D01*
X142748Y89408D01*
X158750Y57150D02*
X152400Y50800D01*
X146050Y55880D02*
X135310Y55880D01*
X146050Y55880D02*
X150876Y60706D01*
X135310Y55880D02*
X130810Y55880D01*
X150876Y77724D02*
X149352Y79248D01*
D16*
X149352Y79248D03*
D19*
X150876Y77724D02*
X150876Y60706D01*
X127000Y52070D02*
X127000Y12700D01*
X127000Y52070D02*
X130810Y55880D01*
X54864Y65532D02*
X54864Y69596D01*
X54864Y65532D02*
X53340Y64008D01*
X47244Y64008D01*
X46482Y64770D01*
D16*
X46482Y64770D03*
D19*
X135310Y60880D02*
X141398Y60880D01*
X145542Y65024D01*
D16*
X145542Y65024D03*
D19*
X118110Y60880D02*
X112602Y60880D01*
X109982Y63500D01*
D16*
X109982Y63500D03*
X76200Y58420D03*
D19*
X64135Y47498D02*
X62992Y48641D01*
X62992Y58166D01*
X62992Y69596D01*
X63246Y58420D02*
X76200Y58420D01*
X63246Y58420D02*
X62992Y58166D01*
X62992Y69596D02*
X62992Y78740D01*
X58975Y80518D02*
X54864Y84629D01*
X54864Y91440D01*
X61214Y80518D02*
X62992Y78740D01*
X61214Y80518D02*
X58975Y80518D01*
X213614Y76200D02*
X213614Y109474D01*
X214630Y110490D01*
D16*
X214630Y110490D03*
D19*
X192786Y105664D02*
X192786Y76200D01*
X189230Y109220D02*
X153924Y109220D01*
D16*
X153924Y109220D03*
D19*
X189230Y109220D02*
X192786Y105664D01*
X64135Y102743D02*
X64135Y112268D01*
X64135Y102743D02*
X63246Y101854D01*
D16*
X63246Y101854D03*
D19*
X100330Y110490D02*
X113284Y110490D01*
D16*
X113284Y110490D03*
D19*
X81280Y91440D02*
X62992Y91440D01*
X81280Y91440D02*
X100330Y110490D01*
M02*
