G04 EAGLE Gerber RS-274X export*
G75*
%MOMM*%
%FSLAX34Y34*%
%LPD*%
%INSoldermask Top*%
%IPPOS*%
%AMOC8*
5,1,8,0,0,1.08239X$1,22.5*%
G01*
%ADD10C,0.762000*%
%ADD11C,3.175000*%
%ADD12C,0.225588*%
%ADD13C,0.225369*%
%ADD14C,0.225400*%
%ADD15C,0.428259*%
%ADD16C,2.006600*%


D10*
X6350Y7620D03*
X200660Y120650D03*
D11*
X228600Y25400D03*
X25400Y25400D03*
D12*
X249457Y55393D02*
X249457Y66407D01*
X249457Y55393D02*
X230443Y55393D01*
X230443Y66407D01*
X249457Y66407D01*
X249457Y57536D02*
X230443Y57536D01*
X230443Y59679D02*
X249457Y59679D01*
X249457Y61822D02*
X230443Y61822D01*
X230443Y63965D02*
X249457Y63965D01*
X249457Y66108D02*
X230443Y66108D01*
X249457Y111393D02*
X249457Y122407D01*
X249457Y111393D02*
X230443Y111393D01*
X230443Y122407D01*
X249457Y122407D01*
X249457Y113536D02*
X230443Y113536D01*
X230443Y115679D02*
X249457Y115679D01*
X249457Y117822D02*
X230443Y117822D01*
X230443Y119965D02*
X249457Y119965D01*
X249457Y122108D02*
X230443Y122108D01*
D13*
X209458Y76408D02*
X209458Y71392D01*
X196942Y71392D01*
X196942Y76408D01*
X209458Y76408D01*
X209458Y73533D02*
X196942Y73533D01*
X196942Y75674D02*
X209458Y75674D01*
X209458Y81392D02*
X209458Y86408D01*
X209458Y81392D02*
X196942Y81392D01*
X196942Y86408D01*
X209458Y86408D01*
X209458Y83533D02*
X196942Y83533D01*
X196942Y85674D02*
X209458Y85674D01*
X209458Y91392D02*
X209458Y96408D01*
X209458Y91392D02*
X196942Y91392D01*
X196942Y96408D01*
X209458Y96408D01*
X209458Y93533D02*
X196942Y93533D01*
X196942Y95674D02*
X209458Y95674D01*
X209458Y101392D02*
X209458Y106408D01*
X209458Y101392D02*
X196942Y101392D01*
X196942Y106408D01*
X209458Y106408D01*
X209458Y103533D02*
X196942Y103533D01*
X196942Y105674D02*
X209458Y105674D01*
D12*
X4543Y111393D02*
X4543Y122407D01*
X23557Y122407D01*
X23557Y111393D01*
X4543Y111393D01*
X4543Y113536D02*
X23557Y113536D01*
X23557Y115679D02*
X4543Y115679D01*
X4543Y117822D02*
X23557Y117822D01*
X23557Y119965D02*
X4543Y119965D01*
X4543Y122108D02*
X23557Y122108D01*
X4543Y66407D02*
X4543Y55393D01*
X4543Y66407D02*
X23557Y66407D01*
X23557Y55393D01*
X4543Y55393D01*
X4543Y57536D02*
X23557Y57536D01*
X23557Y59679D02*
X4543Y59679D01*
X4543Y61822D02*
X23557Y61822D01*
X23557Y63965D02*
X4543Y63965D01*
X4543Y66108D02*
X23557Y66108D01*
D13*
X44542Y101392D02*
X44542Y106408D01*
X57058Y106408D01*
X57058Y101392D01*
X44542Y101392D01*
X44542Y103533D02*
X57058Y103533D01*
X57058Y105674D02*
X44542Y105674D01*
X44542Y96408D02*
X44542Y91392D01*
X44542Y96408D02*
X57058Y96408D01*
X57058Y91392D01*
X44542Y91392D01*
X44542Y93533D02*
X57058Y93533D01*
X57058Y95674D02*
X44542Y95674D01*
X44542Y86408D02*
X44542Y81392D01*
X44542Y86408D02*
X57058Y86408D01*
X57058Y81392D01*
X44542Y81392D01*
X44542Y83533D02*
X57058Y83533D01*
X57058Y85674D02*
X44542Y85674D01*
X44542Y76408D02*
X44542Y71392D01*
X44542Y76408D02*
X57058Y76408D01*
X57058Y71392D01*
X44542Y71392D01*
X44542Y73533D02*
X57058Y73533D01*
X57058Y75674D02*
X44542Y75674D01*
D14*
X184848Y88092D02*
X184848Y98108D01*
X184848Y88092D02*
X175832Y88092D01*
X175832Y98108D01*
X184848Y98108D01*
X184848Y90233D02*
X175832Y90233D01*
X175832Y92374D02*
X184848Y92374D01*
X184848Y94515D02*
X175832Y94515D01*
X175832Y96656D02*
X184848Y96656D01*
X184848Y105092D02*
X184848Y115108D01*
X184848Y105092D02*
X175832Y105092D01*
X175832Y115108D01*
X184848Y115108D01*
X184848Y107233D02*
X175832Y107233D01*
X175832Y109374D02*
X184848Y109374D01*
X184848Y111515D02*
X175832Y111515D01*
X175832Y113656D02*
X184848Y113656D01*
X169608Y98108D02*
X169608Y88092D01*
X160592Y88092D01*
X160592Y98108D01*
X169608Y98108D01*
X169608Y90233D02*
X160592Y90233D01*
X160592Y92374D02*
X169608Y92374D01*
X169608Y94515D02*
X160592Y94515D01*
X160592Y96656D02*
X169608Y96656D01*
X169608Y105092D02*
X169608Y115108D01*
X169608Y105092D02*
X160592Y105092D01*
X160592Y115108D01*
X169608Y115108D01*
X169608Y107233D02*
X160592Y107233D01*
X160592Y109374D02*
X169608Y109374D01*
X169608Y111515D02*
X160592Y111515D01*
X160592Y113656D02*
X169608Y113656D01*
D15*
X78424Y96324D02*
X71436Y96324D01*
X78424Y96324D02*
X78424Y89336D01*
X71436Y89336D01*
X71436Y96324D01*
X71436Y93405D02*
X78424Y93405D01*
X78424Y113864D02*
X71436Y113864D01*
X78424Y113864D02*
X78424Y106876D01*
X71436Y106876D01*
X71436Y113864D01*
X71436Y110945D02*
X78424Y110945D01*
D14*
X84392Y115108D02*
X84392Y105092D01*
X84392Y115108D02*
X93408Y115108D01*
X93408Y105092D01*
X84392Y105092D01*
X84392Y107233D02*
X93408Y107233D01*
X93408Y109374D02*
X84392Y109374D01*
X84392Y111515D02*
X93408Y111515D01*
X93408Y113656D02*
X84392Y113656D01*
X84392Y98108D02*
X84392Y88092D01*
X84392Y98108D02*
X93408Y98108D01*
X93408Y88092D01*
X84392Y88092D01*
X84392Y90233D02*
X93408Y90233D01*
X93408Y92374D02*
X84392Y92374D01*
X84392Y94515D02*
X93408Y94515D01*
X93408Y96656D02*
X84392Y96656D01*
D13*
X129508Y61008D02*
X129508Y55992D01*
X124492Y55992D01*
X124492Y61008D01*
X129508Y61008D01*
X129508Y58133D02*
X124492Y58133D01*
X124492Y60274D02*
X129508Y60274D01*
X129508Y65992D02*
X129508Y71008D01*
X129508Y65992D02*
X124492Y65992D01*
X124492Y71008D01*
X129508Y71008D01*
X129508Y68133D02*
X124492Y68133D01*
X124492Y70274D02*
X129508Y70274D01*
D14*
X184848Y60008D02*
X184848Y49992D01*
X175832Y49992D01*
X175832Y60008D01*
X184848Y60008D01*
X184848Y52133D02*
X175832Y52133D01*
X175832Y54274D02*
X184848Y54274D01*
X184848Y56415D02*
X175832Y56415D01*
X175832Y58556D02*
X184848Y58556D01*
X184848Y66992D02*
X184848Y77008D01*
X184848Y66992D02*
X175832Y66992D01*
X175832Y77008D01*
X184848Y77008D01*
X184848Y69133D02*
X175832Y69133D01*
X175832Y71274D02*
X184848Y71274D01*
X184848Y73415D02*
X175832Y73415D01*
X175832Y75556D02*
X184848Y75556D01*
X99632Y105092D02*
X99632Y115108D01*
X108648Y115108D01*
X108648Y105092D01*
X99632Y105092D01*
X99632Y107233D02*
X108648Y107233D01*
X108648Y109374D02*
X99632Y109374D01*
X99632Y111515D02*
X108648Y111515D01*
X108648Y113656D02*
X99632Y113656D01*
X99632Y98108D02*
X99632Y88092D01*
X99632Y98108D02*
X108648Y98108D01*
X108648Y88092D01*
X99632Y88092D01*
X99632Y90233D02*
X108648Y90233D01*
X108648Y92374D02*
X99632Y92374D01*
X99632Y94515D02*
X108648Y94515D01*
X108648Y96656D02*
X99632Y96656D01*
D16*
X76200Y12700D03*
X101600Y12700D03*
X127000Y12700D03*
X152400Y12700D03*
X177800Y12700D03*
M02*
