G04 EAGLE Gerber RS-274X export*
G75*
%MOMM*%
%FSLAX34Y34*%
%LPD*%
%INSolderpaste Bottom*%
%IPPOS*%
%AMOC8*
5,1,8,0,0,1.08239X$1,22.5*%
G01*
%ADD10C,0.102000*%


D10*
X121200Y54890D02*
X115020Y54890D01*
X115020Y56870D01*
X121200Y56870D01*
X121200Y54890D01*
X121200Y55859D02*
X115020Y55859D01*
X115020Y56828D02*
X121200Y56828D01*
X121200Y59890D02*
X115020Y59890D01*
X115020Y61870D01*
X121200Y61870D01*
X121200Y59890D01*
X121200Y60859D02*
X115020Y60859D01*
X115020Y61828D02*
X121200Y61828D01*
X121200Y64890D02*
X115020Y64890D01*
X115020Y66870D01*
X121200Y66870D01*
X121200Y64890D01*
X121200Y65859D02*
X115020Y65859D01*
X115020Y66828D02*
X121200Y66828D01*
X121200Y69890D02*
X115020Y69890D01*
X115020Y71870D01*
X121200Y71870D01*
X121200Y69890D01*
X121200Y70859D02*
X115020Y70859D01*
X115020Y71828D02*
X121200Y71828D01*
X132220Y69890D02*
X138400Y69890D01*
X132220Y69890D02*
X132220Y71870D01*
X138400Y71870D01*
X138400Y69890D01*
X138400Y70859D02*
X132220Y70859D01*
X132220Y71828D02*
X138400Y71828D01*
X138400Y64890D02*
X132220Y64890D01*
X132220Y66870D01*
X138400Y66870D01*
X138400Y64890D01*
X138400Y65859D02*
X132220Y65859D01*
X132220Y66828D02*
X138400Y66828D01*
X138400Y59890D02*
X132220Y59890D01*
X132220Y61870D01*
X138400Y61870D01*
X138400Y59890D01*
X138400Y60859D02*
X132220Y60859D01*
X132220Y61828D02*
X138400Y61828D01*
X138400Y54890D02*
X132220Y54890D01*
X132220Y56870D01*
X138400Y56870D01*
X138400Y54890D01*
X138400Y55859D02*
X132220Y55859D01*
X132220Y56828D02*
X138400Y56828D01*
M02*
