G04 EAGLE Gerber RS-274X export*
G75*
%MOMM*%
%FSLAX34Y34*%
%LPD*%
%INSilkscreen Top*%
%IPPOS*%
%AMOC8*
5,1,8,0,0,1.08239X$1,22.5*%
G01*
%ADD10C,0.203200*%

G36*
X131928Y21432D02*
X131928Y21432D01*
X131941Y21433D01*
X132141Y21733D01*
X132141Y21739D01*
X132144Y21742D01*
X132140Y21748D01*
X132140Y21753D01*
X132149Y21760D01*
X132149Y47660D01*
X132145Y47666D01*
X132148Y47670D01*
X131948Y48670D01*
X131941Y48676D01*
X131944Y48682D01*
X131745Y49080D01*
X131546Y49578D01*
X131538Y49583D01*
X131539Y49590D01*
X130939Y50390D01*
X130934Y50391D01*
X130935Y50395D01*
X130235Y51095D01*
X130226Y51096D01*
X130225Y51102D01*
X129728Y51401D01*
X129330Y51699D01*
X129320Y51699D01*
X129318Y51706D01*
X128820Y51905D01*
X128422Y52104D01*
X128413Y52102D01*
X128410Y52108D01*
X127910Y52208D01*
X127903Y52205D01*
X127900Y52209D01*
X126400Y52209D01*
X126394Y52205D01*
X126390Y52208D01*
X125390Y52008D01*
X125386Y52003D01*
X125382Y52006D01*
X124882Y51806D01*
X124879Y51801D01*
X124875Y51802D01*
X124377Y51503D01*
X123978Y51304D01*
X123975Y51298D01*
X123970Y51299D01*
X123570Y50999D01*
X123568Y50990D01*
X123561Y50990D01*
X123263Y50592D01*
X122865Y50195D01*
X122864Y50183D01*
X122856Y50182D01*
X122657Y49783D01*
X122358Y49285D01*
X122358Y49282D01*
X122356Y49282D01*
X122156Y48882D01*
X122158Y48873D01*
X122152Y48870D01*
X121852Y47370D01*
X121855Y47363D01*
X121851Y47360D01*
X121851Y24060D01*
X121854Y24055D01*
X121852Y24050D01*
X121862Y24045D01*
X121887Y24013D01*
X121899Y24022D01*
X121900Y24021D01*
X121907Y24021D01*
X121875Y24003D01*
X121861Y23967D01*
X121851Y23960D01*
X121851Y21660D01*
X121872Y21632D01*
X121873Y21619D01*
X122173Y21419D01*
X122193Y21420D01*
X122200Y21411D01*
X131900Y21411D01*
X131928Y21432D01*
G37*
G36*
X81247Y20839D02*
X81247Y20839D01*
X81246Y20841D01*
X81248Y20842D01*
X81348Y21342D01*
X81345Y21349D01*
X81349Y21352D01*
X81349Y49252D01*
X81313Y49299D01*
X81306Y49294D01*
X81300Y49301D01*
X71100Y49301D01*
X71053Y49265D01*
X71058Y49258D01*
X71051Y49252D01*
X71051Y23452D01*
X71056Y23445D01*
X71053Y23436D01*
X71066Y23432D01*
X71087Y23405D01*
X71099Y23414D01*
X71100Y23413D01*
X71102Y23413D01*
X71072Y23393D01*
X71061Y23360D01*
X71051Y23352D01*
X71051Y20852D01*
X71087Y20805D01*
X71094Y20810D01*
X71100Y20803D01*
X81200Y20803D01*
X81247Y20839D01*
G37*
G36*
X106528Y21124D02*
X106528Y21124D01*
X106541Y21125D01*
X106741Y21425D01*
X106741Y21431D01*
X106744Y21434D01*
X106740Y21440D01*
X106740Y21445D01*
X106749Y21452D01*
X106749Y48952D01*
X106713Y48999D01*
X106706Y48994D01*
X106700Y49001D01*
X96600Y49001D01*
X96553Y48965D01*
X96553Y48964D01*
X96552Y48964D01*
X96452Y48564D01*
X96456Y48556D01*
X96451Y48552D01*
X96451Y21252D01*
X96487Y21205D01*
X96488Y21205D01*
X96488Y21204D01*
X96888Y21104D01*
X96896Y21108D01*
X96900Y21103D01*
X106500Y21103D01*
X106528Y21124D01*
G37*
G36*
X157447Y21277D02*
X157447Y21277D01*
X157447Y21278D01*
X157448Y21278D01*
X157548Y21678D01*
X157544Y21686D01*
X157549Y21690D01*
X157549Y45090D01*
X157545Y45096D01*
X157548Y45100D01*
X157348Y46100D01*
X157343Y46104D01*
X157346Y46108D01*
X156946Y47108D01*
X156943Y47110D01*
X156944Y47112D01*
X156744Y47512D01*
X156738Y47515D01*
X156739Y47520D01*
X156139Y48320D01*
X156134Y48321D01*
X156135Y48325D01*
X155735Y48725D01*
X155730Y48726D01*
X155730Y48729D01*
X155330Y49029D01*
X155323Y49029D01*
X155322Y49034D01*
X154923Y49233D01*
X154425Y49532D01*
X154413Y49531D01*
X154410Y49538D01*
X153914Y49637D01*
X153418Y49836D01*
X153405Y49832D01*
X153400Y49839D01*
X152905Y49839D01*
X152410Y49938D01*
X152397Y49932D01*
X152390Y49938D01*
X151895Y49839D01*
X151400Y49839D01*
X151389Y49831D01*
X151382Y49836D01*
X150886Y49637D01*
X150390Y49538D01*
X150384Y49531D01*
X150378Y49534D01*
X149978Y49334D01*
X149977Y49331D01*
X149975Y49332D01*
X149475Y49032D01*
X149473Y49029D01*
X149470Y49029D01*
X149070Y48729D01*
X149068Y48720D01*
X149061Y48720D01*
X148765Y48325D01*
X148370Y48029D01*
X148367Y48016D01*
X148358Y48015D01*
X148058Y47515D01*
X148058Y47512D01*
X148056Y47512D01*
X147856Y47112D01*
X147856Y47110D01*
X147857Y47109D01*
X147854Y47108D01*
X147655Y46610D01*
X147456Y46212D01*
X147458Y46203D01*
X147452Y46200D01*
X147252Y45200D01*
X147255Y45193D01*
X147251Y45190D01*
X147251Y21290D01*
X147287Y21243D01*
X147294Y21248D01*
X147300Y21241D01*
X157400Y21241D01*
X157447Y21277D01*
G37*
G36*
X182593Y21061D02*
X182593Y21061D01*
X182593Y21062D01*
X182594Y21062D01*
X182694Y21462D01*
X182690Y21470D01*
X182695Y21474D01*
X182695Y43274D01*
X182691Y43280D01*
X182694Y43284D01*
X182394Y44784D01*
X182383Y44794D01*
X182385Y44804D01*
X182089Y45198D01*
X181892Y45692D01*
X181884Y45697D01*
X181885Y45704D01*
X181285Y46504D01*
X181276Y46506D01*
X181276Y46513D01*
X180076Y47413D01*
X180066Y47413D01*
X180064Y47420D01*
X179566Y47619D01*
X179168Y47818D01*
X179159Y47816D01*
X179159Y47817D01*
X179158Y47817D01*
X179156Y47822D01*
X177656Y48122D01*
X177644Y48117D01*
X177638Y48123D01*
X177042Y48023D01*
X176546Y48023D01*
X176533Y48014D01*
X176524Y48018D01*
X176130Y47821D01*
X175636Y47722D01*
X175632Y47717D01*
X175628Y47720D01*
X175128Y47520D01*
X175123Y47512D01*
X175116Y47513D01*
X173916Y46613D01*
X173914Y46604D01*
X173907Y46604D01*
X173307Y45804D01*
X173307Y45800D01*
X173304Y45799D01*
X173004Y45299D01*
X173004Y45296D01*
X173002Y45296D01*
X172802Y44896D01*
X172803Y44893D01*
X172800Y44892D01*
X172600Y44392D01*
X172602Y44386D01*
X172598Y44384D01*
X172398Y43384D01*
X172401Y43377D01*
X172397Y43374D01*
X172397Y21174D01*
X172433Y21127D01*
X172434Y21127D01*
X172434Y21126D01*
X172834Y21026D01*
X172842Y21030D01*
X172846Y21025D01*
X182546Y21025D01*
X182593Y21061D01*
G37*
G36*
X195009Y24821D02*
X195009Y24821D01*
X195071Y24823D01*
X195093Y24836D01*
X195119Y24840D01*
X195190Y24888D01*
X195223Y24906D01*
X195229Y24914D01*
X195239Y24921D01*
X195739Y25421D01*
X195758Y25452D01*
X195796Y25494D01*
X196072Y25954D01*
X196539Y26421D01*
X196547Y26434D01*
X196562Y26447D01*
X197051Y27033D01*
X198239Y28221D01*
X198246Y28232D01*
X198259Y28243D01*
X199449Y29632D01*
X200406Y30588D01*
X201304Y31127D01*
X201801Y31210D01*
X203670Y31210D01*
X203696Y31216D01*
X203733Y31215D01*
X204933Y31415D01*
X204948Y31422D01*
X204970Y31423D01*
X206070Y31723D01*
X206087Y31732D01*
X206111Y31737D01*
X207111Y32137D01*
X207133Y32152D01*
X207166Y32164D01*
X208166Y32764D01*
X208186Y32784D01*
X208220Y32804D01*
X209020Y33504D01*
X209027Y33513D01*
X209039Y33521D01*
X209839Y34321D01*
X209850Y34339D01*
X209870Y34357D01*
X210570Y35257D01*
X210581Y35280D01*
X210602Y35305D01*
X211602Y37105D01*
X211613Y37141D01*
X211638Y37193D01*
X212138Y39093D01*
X212139Y39125D01*
X212150Y39168D01*
X212250Y40868D01*
X212243Y40904D01*
X212244Y40960D01*
X211944Y42560D01*
X211935Y42581D01*
X211931Y42610D01*
X211431Y44110D01*
X211412Y44141D01*
X211391Y44194D01*
X210691Y45294D01*
X210672Y45313D01*
X210654Y45343D01*
X210429Y45596D01*
X210091Y45976D01*
X209854Y46243D01*
X209822Y46265D01*
X209772Y46312D01*
X208972Y46812D01*
X208942Y46823D01*
X208922Y46837D01*
X208887Y46843D01*
X208842Y46863D01*
X208825Y46863D01*
X208808Y46868D01*
X208776Y46864D01*
X208770Y46864D01*
X208763Y46862D01*
X208739Y46859D01*
X208669Y46857D01*
X208654Y46848D01*
X208636Y46846D01*
X208606Y46826D01*
X208601Y46825D01*
X208588Y46814D01*
X208578Y46807D01*
X208517Y46774D01*
X208507Y46759D01*
X208492Y46749D01*
X208476Y46721D01*
X208468Y46715D01*
X208454Y46685D01*
X208417Y46632D01*
X208414Y46613D01*
X208406Y46599D01*
X208404Y46573D01*
X208397Y46556D01*
X208398Y46531D01*
X208390Y46490D01*
X208390Y45652D01*
X208318Y45436D01*
X208258Y45315D01*
X208065Y45122D01*
X207908Y45070D01*
X207717Y45070D01*
X207003Y45249D01*
X206661Y45420D01*
X206390Y45601D01*
X206020Y45878D01*
X205466Y46432D01*
X205123Y46946D01*
X205050Y47237D01*
X205050Y47728D01*
X205122Y47944D01*
X205200Y48099D01*
X205350Y48325D01*
X205671Y48565D01*
X205994Y48727D01*
X206445Y48817D01*
X206452Y48821D01*
X206462Y48821D01*
X206817Y48910D01*
X207280Y48910D01*
X207400Y48850D01*
X207415Y48846D01*
X207428Y48837D01*
X207562Y48811D01*
X207569Y48810D01*
X207570Y48810D01*
X207670Y48810D01*
X207695Y48816D01*
X207721Y48813D01*
X207779Y48835D01*
X207839Y48849D01*
X207859Y48866D01*
X207883Y48875D01*
X207925Y48920D01*
X207972Y48959D01*
X207983Y48983D01*
X208000Y49002D01*
X208018Y49061D01*
X208043Y49118D01*
X208042Y49143D01*
X208050Y49168D01*
X208039Y49229D01*
X208037Y49291D01*
X208024Y49313D01*
X208020Y49339D01*
X207972Y49410D01*
X207954Y49443D01*
X207946Y49449D01*
X207939Y49459D01*
X207839Y49559D01*
X207819Y49571D01*
X207798Y49594D01*
X207398Y49894D01*
X207372Y49906D01*
X207340Y49930D01*
X205940Y50630D01*
X205928Y50633D01*
X205919Y50639D01*
X205890Y50645D01*
X205853Y50661D01*
X204953Y50861D01*
X204919Y50861D01*
X204870Y50870D01*
X203870Y50870D01*
X203842Y50864D01*
X203802Y50864D01*
X202702Y50664D01*
X202667Y50649D01*
X202610Y50631D01*
X202595Y50627D01*
X202592Y50625D01*
X202588Y50624D01*
X201488Y50024D01*
X201468Y50006D01*
X201437Y49990D01*
X200537Y49290D01*
X200517Y49266D01*
X200448Y49192D01*
X199948Y48392D01*
X199936Y48358D01*
X199909Y48310D01*
X199609Y47410D01*
X199606Y47373D01*
X199590Y47290D01*
X199590Y46490D01*
X199597Y46457D01*
X199599Y46408D01*
X199799Y45508D01*
X199816Y45472D01*
X199838Y45405D01*
X200338Y44505D01*
X200360Y44481D01*
X200384Y44440D01*
X201084Y43640D01*
X201085Y43639D01*
X201086Y43637D01*
X201886Y42737D01*
X201894Y42732D01*
X201901Y42721D01*
X202543Y42079D01*
X202790Y41421D01*
X202790Y40852D01*
X202631Y40375D01*
X202310Y39974D01*
X201814Y39643D01*
X201123Y39470D01*
X200408Y39470D01*
X199979Y39556D01*
X199584Y39714D01*
X199066Y40232D01*
X198915Y40459D01*
X198850Y40652D01*
X198850Y40928D01*
X198902Y41085D01*
X199375Y41558D01*
X199590Y41629D01*
X199610Y41642D01*
X199640Y41650D01*
X200040Y41850D01*
X200069Y41874D01*
X200139Y41921D01*
X200239Y42021D01*
X200252Y42042D01*
X200271Y42058D01*
X200297Y42115D01*
X200330Y42168D01*
X200333Y42193D01*
X200343Y42216D01*
X200341Y42279D01*
X200347Y42341D01*
X200338Y42364D01*
X200337Y42389D01*
X200307Y42444D01*
X200285Y42503D01*
X200267Y42520D01*
X200255Y42542D01*
X200185Y42596D01*
X200158Y42620D01*
X200149Y42623D01*
X200140Y42630D01*
X199740Y42830D01*
X199725Y42834D01*
X199712Y42843D01*
X199578Y42869D01*
X199572Y42870D01*
X199571Y42870D01*
X199570Y42870D01*
X198370Y42870D01*
X198344Y42864D01*
X198308Y42865D01*
X197708Y42765D01*
X197702Y42763D01*
X197695Y42763D01*
X197195Y42663D01*
X197169Y42651D01*
X197129Y42643D01*
X196629Y42443D01*
X196598Y42421D01*
X196542Y42394D01*
X196142Y42094D01*
X196138Y42090D01*
X196132Y42087D01*
X195632Y41687D01*
X195615Y41664D01*
X195544Y41586D01*
X194944Y40586D01*
X194932Y40550D01*
X194904Y40494D01*
X194704Y39794D01*
X194703Y39769D01*
X194693Y39737D01*
X194593Y38937D01*
X194595Y38916D01*
X194590Y38890D01*
X194590Y25190D01*
X194596Y25165D01*
X194593Y25139D01*
X194615Y25082D01*
X194629Y25021D01*
X194646Y25001D01*
X194655Y24977D01*
X194700Y24935D01*
X194739Y24888D01*
X194763Y24877D01*
X194782Y24860D01*
X194841Y24842D01*
X194898Y24817D01*
X194923Y24818D01*
X194948Y24810D01*
X195009Y24821D01*
G37*
G36*
X8691Y43362D02*
X8691Y43362D01*
X8695Y43361D01*
X9178Y43408D01*
X9193Y43420D01*
X9213Y43423D01*
X9222Y43443D01*
X9231Y43450D01*
X9229Y43459D01*
X9234Y43471D01*
X9234Y46119D01*
X9228Y46128D01*
X9231Y46139D01*
X9211Y46155D01*
X9197Y46176D01*
X9186Y46175D01*
X9178Y46182D01*
X9135Y46167D01*
X9130Y46166D01*
X9130Y46165D01*
X9129Y46165D01*
X8797Y45856D01*
X8358Y45591D01*
X7865Y45453D01*
X7351Y45440D01*
X6840Y45514D01*
X6357Y45689D01*
X5926Y45967D01*
X5568Y46334D01*
X5295Y46771D01*
X5109Y47253D01*
X5003Y47761D01*
X4966Y48280D01*
X5006Y48799D01*
X5120Y49306D01*
X5317Y49783D01*
X5603Y50211D01*
X5975Y50566D01*
X6418Y50827D01*
X6909Y50983D01*
X7424Y51035D01*
X7937Y50994D01*
X8424Y50834D01*
X9137Y50375D01*
X9143Y50375D01*
X9145Y50371D01*
X9175Y50375D01*
X9205Y50375D01*
X9208Y50380D01*
X9213Y50381D01*
X9234Y50428D01*
X9234Y50905D01*
X9624Y50978D01*
X10661Y50978D01*
X10876Y50857D01*
X10887Y50857D01*
X10901Y50849D01*
X10963Y50843D01*
X10963Y50837D01*
X10953Y50815D01*
X10953Y43434D01*
X10966Y43415D01*
X10969Y43393D01*
X10985Y43385D01*
X10990Y43377D01*
X11000Y43378D01*
X11016Y43371D01*
X27957Y43362D01*
X27960Y43364D01*
X27964Y43363D01*
X29015Y43487D01*
X29019Y43490D01*
X29026Y43489D01*
X29532Y43646D01*
X29533Y43648D01*
X29536Y43647D01*
X30027Y43839D01*
X30029Y43842D01*
X30034Y43843D01*
X30500Y44095D01*
X30501Y44098D01*
X30506Y44099D01*
X30938Y44402D01*
X30939Y44404D01*
X30942Y44405D01*
X31350Y44742D01*
X31352Y44746D01*
X31357Y44749D01*
X31707Y45145D01*
X31707Y45146D01*
X31709Y45147D01*
X32040Y45560D01*
X32041Y45565D01*
X32046Y45569D01*
X32299Y46035D01*
X32299Y46036D01*
X32301Y46038D01*
X32525Y46515D01*
X32525Y46519D01*
X32528Y46523D01*
X32685Y47029D01*
X32685Y47032D01*
X32687Y47035D01*
X32793Y47551D01*
X32792Y47554D01*
X32794Y47558D01*
X32847Y48085D01*
X32846Y48088D01*
X32848Y48093D01*
X32834Y48620D01*
X32833Y48622D01*
X32834Y48624D01*
X32780Y49152D01*
X32778Y49155D01*
X32779Y49161D01*
X32646Y49672D01*
X32645Y49673D01*
X32645Y49675D01*
X32488Y50180D01*
X32484Y50184D01*
X32483Y50191D01*
X32234Y50658D01*
X32233Y50659D01*
X32232Y50661D01*
X31964Y51115D01*
X31960Y51117D01*
X31960Y51120D01*
X31959Y51121D01*
X31958Y51123D01*
X31621Y51532D01*
X31619Y51533D01*
X31617Y51536D01*
X31250Y51914D01*
X31247Y51914D01*
X31245Y51918D01*
X30836Y52256D01*
X30832Y52256D01*
X30829Y52260D01*
X30383Y52541D01*
X30381Y52541D01*
X30379Y52543D01*
X29914Y52796D01*
X29908Y52795D01*
X29903Y52800D01*
X28893Y53115D01*
X28888Y53114D01*
X28881Y53118D01*
X28354Y53171D01*
X27948Y53212D01*
X27945Y53210D01*
X27942Y53212D01*
X7812Y53212D01*
X7810Y53211D01*
X7807Y53212D01*
X6752Y53120D01*
X6748Y53117D01*
X6739Y53118D01*
X5727Y52811D01*
X5724Y52807D01*
X5716Y52807D01*
X5250Y52554D01*
X5249Y52552D01*
X5247Y52552D01*
X4798Y52275D01*
X4796Y52271D01*
X4791Y52270D01*
X4382Y51933D01*
X4381Y51930D01*
X4378Y51929D01*
X4007Y51554D01*
X4006Y51551D01*
X4003Y51550D01*
X3666Y51141D01*
X3665Y51137D01*
X3660Y51134D01*
X3388Y50681D01*
X3388Y50680D01*
X3387Y50679D01*
X3134Y50213D01*
X3134Y50207D01*
X3129Y50201D01*
X2833Y49186D01*
X2835Y49181D01*
X2831Y49174D01*
X2778Y48647D01*
X2779Y48645D01*
X2778Y48643D01*
X2759Y48116D01*
X2761Y48113D01*
X2760Y48108D01*
X2813Y47581D01*
X2814Y47578D01*
X2814Y47575D01*
X2915Y47058D01*
X2917Y47055D01*
X2917Y47051D01*
X3074Y46545D01*
X3077Y46543D01*
X3077Y46538D01*
X3297Y46058D01*
X3299Y46057D01*
X3299Y46055D01*
X3552Y45589D01*
X3556Y45587D01*
X3558Y45580D01*
X3886Y45165D01*
X3887Y45165D01*
X3887Y45163D01*
X3908Y45139D01*
X3963Y45076D01*
X4017Y45014D01*
X4071Y44951D01*
X4126Y44888D01*
X4180Y44825D01*
X4234Y44764D01*
X4235Y44763D01*
X4239Y44761D01*
X4241Y44756D01*
X4650Y44419D01*
X4652Y44419D01*
X4653Y44417D01*
X5083Y44110D01*
X5086Y44110D01*
X5089Y44106D01*
X5555Y43854D01*
X5558Y43854D01*
X5561Y43850D01*
X6051Y43654D01*
X6053Y43655D01*
X6056Y43653D01*
X6561Y43496D01*
X6566Y43497D01*
X6571Y43493D01*
X7094Y43418D01*
X7095Y43419D01*
X7096Y43418D01*
X7623Y43365D01*
X7626Y43366D01*
X7629Y43365D01*
X8689Y43361D01*
X8691Y43362D01*
G37*
G36*
X106529Y76284D02*
X106529Y76284D01*
X106536Y76279D01*
X107136Y76479D01*
X107139Y76484D01*
X107142Y76482D01*
X108342Y77082D01*
X108347Y77092D01*
X108355Y77091D01*
X108855Y77591D01*
X108855Y77595D01*
X108858Y77595D01*
X109258Y78095D01*
X109259Y78099D01*
X109261Y78099D01*
X109661Y78699D01*
X109661Y78703D01*
X109664Y78704D01*
X109964Y79304D01*
X109963Y79309D01*
X109967Y79310D01*
X110167Y79910D01*
X110165Y79917D01*
X110169Y79919D01*
X110269Y80619D01*
X110266Y80624D01*
X110269Y80626D01*
X110269Y82026D01*
X110266Y82031D01*
X110269Y82034D01*
X110169Y82634D01*
X110161Y82641D01*
X110164Y82648D01*
X109564Y83848D01*
X109560Y83850D01*
X109561Y83853D01*
X109161Y84453D01*
X109151Y84457D01*
X109151Y84464D01*
X108651Y84864D01*
X108052Y85364D01*
X108043Y85364D01*
X108042Y85370D01*
X107442Y85670D01*
X107437Y85669D01*
X107436Y85673D01*
X106236Y86073D01*
X106225Y86069D01*
X106220Y86075D01*
X105120Y86075D01*
X105116Y86072D01*
X105113Y86075D01*
X104413Y85975D01*
X104408Y85970D01*
X104404Y85973D01*
X103804Y85773D01*
X103801Y85768D01*
X103798Y85770D01*
X103198Y85470D01*
X103196Y85466D01*
X103193Y85467D01*
X102593Y85067D01*
X102590Y85060D01*
X102585Y85061D01*
X102085Y84561D01*
X102085Y84557D01*
X102082Y84557D01*
X101682Y84057D01*
X101681Y84049D01*
X101676Y84048D01*
X101076Y82848D01*
X101077Y82843D01*
X101076Y82842D01*
X101073Y82842D01*
X100873Y82242D01*
X100875Y82235D01*
X100871Y82233D01*
X100771Y81533D01*
X100774Y81528D01*
X100771Y81526D01*
X100771Y80826D01*
X100774Y80822D01*
X100771Y80819D01*
X100871Y80119D01*
X100876Y80114D01*
X100873Y80110D01*
X101273Y78910D01*
X101322Y78877D01*
X101329Y78887D01*
X101337Y78887D01*
X101346Y78884D01*
X101377Y78903D01*
X101676Y78304D01*
X101683Y78301D01*
X101682Y78295D01*
X102082Y77795D01*
X102089Y77793D01*
X102088Y77788D01*
X102688Y77288D01*
X102689Y77288D01*
X103189Y76888D01*
X103197Y76887D01*
X103198Y76882D01*
X103798Y76582D01*
X103803Y76583D01*
X103804Y76579D01*
X104404Y76379D01*
X104411Y76381D01*
X104413Y76377D01*
X105113Y76277D01*
X105118Y76280D01*
X105120Y76277D01*
X106520Y76277D01*
X106529Y76284D01*
G37*
G36*
X146129Y76284D02*
X146129Y76284D01*
X146136Y76279D01*
X146736Y76479D01*
X146739Y76484D01*
X146742Y76482D01*
X147342Y76782D01*
X147345Y76789D01*
X147351Y76788D01*
X147851Y77188D01*
X147853Y77195D01*
X147858Y77195D01*
X148258Y77695D01*
X148259Y77700D01*
X148262Y77701D01*
X148562Y78201D01*
X148561Y78209D01*
X148567Y78210D01*
X148767Y78810D01*
X148766Y78812D01*
X148767Y78812D01*
X148967Y79512D01*
X148967Y79513D01*
X148968Y79514D01*
X148966Y79516D01*
X148966Y79517D01*
X148969Y79519D01*
X149169Y80919D01*
X149164Y80927D01*
X149169Y80932D01*
X149069Y81729D01*
X149069Y82326D01*
X149066Y82330D01*
X149069Y82333D01*
X148969Y83033D01*
X148926Y83075D01*
X148922Y83071D01*
X148920Y83073D01*
X148911Y83073D01*
X148910Y83074D01*
X148864Y83064D01*
X148769Y83733D01*
X148761Y83741D01*
X148764Y83748D01*
X148164Y84948D01*
X148151Y84955D01*
X148151Y84964D01*
X147651Y85364D01*
X147052Y85864D01*
X147038Y85864D01*
X147036Y85873D01*
X146436Y86073D01*
X146430Y86071D01*
X146428Y86075D01*
X145828Y86175D01*
X145823Y86172D01*
X145820Y86175D01*
X145020Y86175D01*
X145015Y86172D01*
X145012Y86175D01*
X144412Y86075D01*
X144405Y86067D01*
X144398Y86070D01*
X143198Y85470D01*
X143191Y85456D01*
X143181Y85456D01*
X142881Y85056D01*
X142881Y85052D01*
X142878Y85051D01*
X142578Y84551D01*
X142578Y84548D01*
X142576Y84548D01*
X142276Y83948D01*
X142277Y83941D01*
X142273Y83940D01*
X142073Y83241D01*
X141873Y82642D01*
X141875Y82635D01*
X141871Y82633D01*
X141771Y81933D01*
X141774Y81928D01*
X141771Y81926D01*
X141771Y80426D01*
X141774Y80422D01*
X141771Y80419D01*
X141871Y79719D01*
X141872Y79718D01*
X141871Y79718D01*
X141971Y79118D01*
X141976Y79114D01*
X141973Y79110D01*
X142173Y78510D01*
X142176Y78509D01*
X142175Y78507D01*
X142475Y77807D01*
X142483Y77802D01*
X142482Y77795D01*
X142882Y77295D01*
X142889Y77293D01*
X142889Y77288D01*
X143389Y76888D01*
X143393Y76887D01*
X143393Y76885D01*
X143993Y76485D01*
X144002Y76486D01*
X144004Y76479D01*
X144604Y76279D01*
X144615Y76283D01*
X144620Y76277D01*
X146120Y76277D01*
X146129Y76284D01*
G37*
G36*
X164125Y76280D02*
X164125Y76280D01*
X164128Y76277D01*
X164728Y76377D01*
X164735Y76385D01*
X164742Y76382D01*
X165342Y76682D01*
X165344Y76686D01*
X165347Y76685D01*
X165947Y77085D01*
X165950Y77092D01*
X165955Y77091D01*
X166455Y77591D01*
X166456Y77603D01*
X166464Y77604D01*
X166764Y78204D01*
X166763Y78209D01*
X166767Y78210D01*
X166967Y78810D01*
X166965Y78817D01*
X166969Y78819D01*
X167069Y79519D01*
X167066Y79524D01*
X167069Y79526D01*
X167069Y79926D01*
X167060Y79939D01*
X167064Y79948D01*
X166764Y80548D01*
X166762Y80549D01*
X166763Y80550D01*
X166363Y81250D01*
X166358Y81252D01*
X166359Y81256D01*
X166079Y81629D01*
X166362Y82100D01*
X166761Y82699D01*
X166760Y82710D01*
X166767Y82715D01*
X166763Y82721D01*
X166769Y82726D01*
X166769Y83426D01*
X166766Y83430D01*
X166769Y83433D01*
X166669Y84133D01*
X166664Y84138D01*
X166667Y84142D01*
X166467Y84742D01*
X166456Y84749D01*
X166458Y84757D01*
X166058Y85257D01*
X166051Y85259D01*
X166052Y85264D01*
X165452Y85764D01*
X165443Y85764D01*
X165442Y85770D01*
X164842Y86070D01*
X164837Y86069D01*
X164836Y86073D01*
X164236Y86273D01*
X164226Y86270D01*
X164222Y86275D01*
X164221Y86275D01*
X164220Y86275D01*
X163520Y86275D01*
X163519Y86275D01*
X163515Y86275D01*
X163514Y86274D01*
X163513Y86275D01*
X162813Y86175D01*
X162808Y86170D01*
X162804Y86173D01*
X162204Y85973D01*
X162201Y85968D01*
X162198Y85970D01*
X161598Y85670D01*
X161593Y85660D01*
X161585Y85661D01*
X161085Y85161D01*
X161085Y85157D01*
X161082Y85157D01*
X160682Y84657D01*
X160681Y84644D01*
X160673Y84642D01*
X160473Y84042D01*
X160475Y84035D01*
X160471Y84033D01*
X160371Y83333D01*
X160376Y83324D01*
X160371Y83319D01*
X160471Y82619D01*
X160478Y82612D01*
X160475Y82607D01*
X160775Y81907D01*
X160782Y81902D01*
X160781Y81896D01*
X161055Y81531D01*
X160685Y81161D01*
X160684Y81154D01*
X160679Y81153D01*
X160279Y80553D01*
X160280Y80542D01*
X160273Y80540D01*
X160073Y79840D01*
X160074Y79837D01*
X160073Y79836D01*
X160075Y79832D01*
X160076Y79830D01*
X160071Y79826D01*
X160071Y79126D01*
X160077Y79118D01*
X160073Y79112D01*
X160273Y78412D01*
X160274Y78411D01*
X160273Y78410D01*
X160473Y77810D01*
X160487Y77801D01*
X160485Y77791D01*
X160985Y77291D01*
X160989Y77291D01*
X160989Y77288D01*
X161489Y76888D01*
X161497Y76887D01*
X161498Y76882D01*
X162698Y76282D01*
X162714Y76285D01*
X162720Y76277D01*
X164120Y76277D01*
X164125Y76280D01*
G37*
G36*
X114341Y76293D02*
X114341Y76293D01*
X114355Y76291D01*
X114755Y76691D01*
X114756Y76703D01*
X114761Y76707D01*
X114758Y76712D01*
X114769Y76718D01*
X114869Y77318D01*
X114866Y77323D01*
X114869Y77326D01*
X114869Y78693D01*
X115329Y78877D01*
X116620Y78877D01*
X116625Y78880D01*
X116628Y78877D01*
X117228Y78977D01*
X117232Y78982D01*
X117236Y78979D01*
X117836Y79179D01*
X117860Y79215D01*
X117865Y79218D01*
X117863Y79220D01*
X117865Y79223D01*
X117877Y79202D01*
X117915Y79185D01*
X117917Y79183D01*
X117921Y79183D01*
X117931Y79178D01*
X117936Y79188D01*
X117937Y79189D01*
X117947Y79185D01*
X118547Y79585D01*
X118548Y79588D01*
X118551Y79588D01*
X119051Y79988D01*
X119053Y79995D01*
X119058Y79995D01*
X119458Y80495D01*
X119459Y80505D01*
X119465Y80507D01*
X119765Y81207D01*
X119763Y81215D01*
X119769Y81218D01*
X119869Y81818D01*
X119868Y81819D01*
X119869Y81819D01*
X119969Y82519D01*
X119966Y82524D01*
X119969Y82526D01*
X119969Y83226D01*
X119960Y83239D01*
X119964Y83248D01*
X119564Y84048D01*
X119557Y84051D01*
X119558Y84057D01*
X119158Y84557D01*
X119154Y84558D01*
X119155Y84561D01*
X118655Y85061D01*
X118648Y85062D01*
X118647Y85067D01*
X118047Y85467D01*
X118043Y85467D01*
X118042Y85470D01*
X117442Y85770D01*
X117432Y85768D01*
X117428Y85775D01*
X116828Y85875D01*
X116823Y85872D01*
X116820Y85875D01*
X113320Y85875D01*
X113311Y85868D01*
X113304Y85873D01*
X112704Y85673D01*
X112687Y85648D01*
X112674Y85644D01*
X112474Y85144D01*
X112478Y85131D01*
X112471Y85126D01*
X112471Y76926D01*
X112480Y76913D01*
X112476Y76904D01*
X112676Y76504D01*
X112702Y76491D01*
X112706Y76479D01*
X113406Y76279D01*
X113416Y76282D01*
X113420Y76277D01*
X114320Y76277D01*
X114341Y76293D01*
G37*
G36*
X113525Y89996D02*
X113525Y89996D01*
X113528Y89993D01*
X114128Y90093D01*
X114134Y90100D01*
X114139Y90097D01*
X114839Y90397D01*
X114842Y90401D01*
X114845Y90400D01*
X115345Y90700D01*
X115347Y90704D01*
X115351Y90704D01*
X115851Y91104D01*
X115853Y91114D01*
X115861Y91115D01*
X116261Y91715D01*
X116260Y91724D01*
X116267Y91726D01*
X116467Y92326D01*
X116465Y92333D01*
X116469Y92335D01*
X116569Y93035D01*
X116564Y93043D01*
X116569Y93048D01*
X116469Y93848D01*
X116464Y93853D01*
X116467Y93858D01*
X116267Y94458D01*
X116256Y94465D01*
X116258Y94473D01*
X115858Y94973D01*
X115851Y94975D01*
X115851Y94980D01*
X115351Y95380D01*
X115346Y95381D01*
X115345Y95384D01*
X114845Y95684D01*
X114836Y95683D01*
X114834Y95689D01*
X114134Y95889D01*
X114132Y95889D01*
X114131Y95890D01*
X112840Y96188D01*
X112261Y96574D01*
X112075Y97132D01*
X112446Y97596D01*
X113115Y97692D01*
X113696Y97498D01*
X114288Y97004D01*
X114312Y97003D01*
X114320Y96993D01*
X114920Y96993D01*
X114935Y97004D01*
X114945Y97000D01*
X115445Y97300D01*
X115451Y97313D01*
X115460Y97313D01*
X115960Y98013D01*
X115959Y98035D01*
X115969Y98042D01*
X115969Y98542D01*
X115953Y98563D01*
X115955Y98577D01*
X115455Y99077D01*
X115451Y99077D01*
X115451Y99080D01*
X114951Y99480D01*
X114937Y99481D01*
X114934Y99489D01*
X114234Y99689D01*
X114230Y99688D01*
X114228Y99691D01*
X113628Y99791D01*
X113627Y99790D01*
X113626Y99791D01*
X112826Y99891D01*
X112818Y99886D01*
X112813Y99891D01*
X112113Y99791D01*
X112108Y99786D01*
X112104Y99789D01*
X111504Y99589D01*
X111501Y99584D01*
X111498Y99586D01*
X110898Y99286D01*
X110895Y99279D01*
X110889Y99280D01*
X110389Y98880D01*
X110387Y98870D01*
X110379Y98869D01*
X109979Y98269D01*
X109980Y98260D01*
X109973Y98258D01*
X109773Y97658D01*
X109775Y97652D01*
X109771Y97650D01*
X109671Y97050D01*
X109677Y97040D01*
X109671Y97035D01*
X109771Y96335D01*
X109775Y96331D01*
X109773Y96328D01*
X109973Y95628D01*
X109984Y95620D01*
X109982Y95611D01*
X110382Y95111D01*
X110389Y95109D01*
X110389Y95104D01*
X110889Y94704D01*
X110897Y94703D01*
X110898Y94698D01*
X112098Y94098D01*
X112105Y94099D01*
X112106Y94095D01*
X112806Y93895D01*
X112810Y93896D01*
X112812Y93893D01*
X113405Y93795D01*
X113980Y93507D01*
X114166Y92948D01*
X113886Y92481D01*
X113213Y92193D01*
X112538Y92289D01*
X111951Y92680D01*
X111455Y93177D01*
X111439Y93179D01*
X111436Y93189D01*
X110836Y93389D01*
X110825Y93385D01*
X110821Y93391D01*
X110819Y93391D01*
X110815Y93388D01*
X110812Y93391D01*
X110212Y93291D01*
X110195Y93273D01*
X110182Y93274D01*
X109682Y92674D01*
X109682Y92666D01*
X109681Y92666D01*
X109682Y92665D01*
X109681Y92656D01*
X109672Y92652D01*
X109572Y92152D01*
X109581Y92133D01*
X109575Y92123D01*
X109875Y91423D01*
X109886Y91416D01*
X109885Y91407D01*
X110285Y91007D01*
X110292Y91006D01*
X110293Y91001D01*
X111493Y90201D01*
X111502Y90202D01*
X111504Y90195D01*
X112104Y89995D01*
X112115Y89999D01*
X112120Y89993D01*
X113520Y89993D01*
X113525Y89996D01*
G37*
G36*
X139141Y76293D02*
X139141Y76293D01*
X139155Y76291D01*
X139555Y76691D01*
X139556Y76703D01*
X139561Y76707D01*
X139558Y76712D01*
X139558Y76713D01*
X139569Y76719D01*
X139669Y77419D01*
X139666Y77424D01*
X139669Y77426D01*
X139669Y84826D01*
X139666Y84830D01*
X139669Y84833D01*
X139569Y85533D01*
X139544Y85557D01*
X139542Y85570D01*
X138942Y85870D01*
X138926Y85867D01*
X138920Y85875D01*
X138220Y85875D01*
X138216Y85872D01*
X138213Y85875D01*
X137513Y85775D01*
X137484Y85745D01*
X137473Y85742D01*
X137273Y85142D01*
X137277Y85131D01*
X137271Y85126D01*
X137271Y81730D01*
X137178Y81175D01*
X135825Y81175D01*
X135379Y81265D01*
X136068Y84516D01*
X136067Y84517D01*
X136069Y84518D01*
X136169Y85118D01*
X136155Y85144D01*
X136158Y85157D01*
X135758Y85657D01*
X135738Y85662D01*
X135734Y85673D01*
X135034Y85873D01*
X135024Y85870D01*
X135020Y85875D01*
X134320Y85875D01*
X134295Y85856D01*
X134282Y85857D01*
X133882Y85357D01*
X133881Y85344D01*
X133873Y85342D01*
X133673Y84742D01*
X133674Y84739D01*
X133672Y84738D01*
X132672Y80738D01*
X132676Y80730D01*
X132671Y80726D01*
X132671Y80126D01*
X132674Y80122D01*
X132671Y80119D01*
X132771Y79419D01*
X132790Y79400D01*
X132790Y79387D01*
X133190Y79087D01*
X133208Y79087D01*
X133209Y79086D01*
X133214Y79077D01*
X134014Y78977D01*
X134018Y78979D01*
X134020Y78977D01*
X137271Y78977D01*
X137271Y77626D01*
X137274Y77622D01*
X137271Y77619D01*
X137371Y76919D01*
X137381Y76909D01*
X137378Y76901D01*
X137678Y76401D01*
X137706Y76390D01*
X137712Y76377D01*
X138312Y76277D01*
X138317Y76280D01*
X138320Y76277D01*
X139120Y76277D01*
X139141Y76293D01*
G37*
G36*
X157338Y76291D02*
X157338Y76291D01*
X157351Y76288D01*
X157851Y76688D01*
X157855Y76703D01*
X157860Y76707D01*
X157857Y76711D01*
X157857Y76713D01*
X157869Y76719D01*
X157969Y77419D01*
X157966Y77424D01*
X157969Y77426D01*
X157969Y84826D01*
X157966Y84830D01*
X157969Y84833D01*
X157869Y85533D01*
X157844Y85557D01*
X157842Y85570D01*
X157242Y85870D01*
X157226Y85867D01*
X157220Y85875D01*
X156520Y85875D01*
X156516Y85872D01*
X156513Y85875D01*
X155813Y85775D01*
X155784Y85745D01*
X155773Y85742D01*
X155573Y85142D01*
X155577Y85131D01*
X155571Y85126D01*
X155571Y81730D01*
X155478Y81175D01*
X154124Y81175D01*
X153580Y81266D01*
X154368Y84514D01*
X154367Y84517D01*
X154369Y84518D01*
X154469Y85118D01*
X154455Y85144D01*
X154458Y85157D01*
X154058Y85657D01*
X154038Y85662D01*
X154034Y85673D01*
X153334Y85873D01*
X153324Y85870D01*
X153320Y85875D01*
X152620Y85875D01*
X152595Y85856D01*
X152582Y85857D01*
X152182Y85357D01*
X152181Y85344D01*
X152173Y85342D01*
X151973Y84742D01*
X151974Y84739D01*
X151972Y84738D01*
X150972Y80738D01*
X150976Y80730D01*
X150971Y80726D01*
X150971Y80126D01*
X150974Y80122D01*
X150971Y80119D01*
X151071Y79419D01*
X151090Y79400D01*
X151090Y79387D01*
X151490Y79087D01*
X151508Y79087D01*
X151509Y79086D01*
X151514Y79077D01*
X152314Y78977D01*
X152318Y78979D01*
X152320Y78977D01*
X155571Y78977D01*
X155571Y77626D01*
X155574Y77622D01*
X155571Y77619D01*
X155671Y76919D01*
X155681Y76909D01*
X155678Y76901D01*
X155978Y76401D01*
X156006Y76390D01*
X156012Y76377D01*
X156612Y76277D01*
X156617Y76280D01*
X156620Y76277D01*
X157320Y76277D01*
X157338Y76291D01*
G37*
G36*
X119574Y100159D02*
X119574Y100159D01*
X119580Y100155D01*
X120980Y100555D01*
X120985Y100562D01*
X120991Y100560D01*
X121491Y100860D01*
X121493Y100864D01*
X121497Y100864D01*
X121997Y101264D01*
X122002Y101283D01*
X122013Y101286D01*
X122213Y101886D01*
X122205Y101910D01*
X122211Y101921D01*
X121911Y102621D01*
X121900Y102628D01*
X121901Y102637D01*
X121401Y103137D01*
X121381Y103140D01*
X121376Y103150D01*
X120876Y103250D01*
X120854Y103240D01*
X120842Y103245D01*
X120143Y102846D01*
X119554Y102551D01*
X118278Y102551D01*
X117691Y102845D01*
X117100Y103239D01*
X116710Y103726D01*
X116514Y104313D01*
X116415Y105005D01*
X116415Y105690D01*
X116709Y106277D01*
X117101Y106865D01*
X117588Y107158D01*
X118280Y107454D01*
X118867Y107552D01*
X119555Y107454D01*
X120144Y107257D01*
X120739Y106861D01*
X120759Y106862D01*
X120766Y106853D01*
X121266Y106853D01*
X121287Y106869D01*
X121301Y106867D01*
X121801Y107367D01*
X121802Y107374D01*
X121807Y107375D01*
X122207Y107975D01*
X122206Y107995D01*
X122215Y108002D01*
X122215Y108602D01*
X122199Y108623D01*
X122201Y108637D01*
X121701Y109137D01*
X121689Y109138D01*
X121688Y109146D01*
X120488Y109746D01*
X120477Y109744D01*
X120473Y109751D01*
X119073Y109951D01*
X119068Y109948D01*
X119066Y109951D01*
X118466Y109951D01*
X118462Y109948D01*
X118459Y109951D01*
X117759Y109851D01*
X117754Y109846D01*
X117750Y109849D01*
X117150Y109649D01*
X117149Y109646D01*
X117147Y109647D01*
X116447Y109347D01*
X116442Y109339D01*
X116435Y109340D01*
X115435Y108540D01*
X115434Y108536D01*
X115431Y108537D01*
X114931Y108037D01*
X114930Y108025D01*
X114922Y108024D01*
X114322Y106824D01*
X114323Y106819D01*
X114319Y106818D01*
X114119Y106218D01*
X114121Y106211D01*
X114117Y106209D01*
X114017Y105509D01*
X114020Y105504D01*
X114017Y105502D01*
X114017Y104802D01*
X114020Y104798D01*
X114017Y104795D01*
X114117Y104095D01*
X114118Y104094D01*
X114117Y104094D01*
X114217Y103494D01*
X114224Y103488D01*
X114221Y103483D01*
X114521Y102783D01*
X114525Y102780D01*
X114524Y102777D01*
X114824Y102277D01*
X114832Y102273D01*
X114831Y102267D01*
X115831Y101267D01*
X115835Y101267D01*
X115835Y101264D01*
X116335Y100864D01*
X116343Y100863D01*
X116344Y100858D01*
X116944Y100558D01*
X116949Y100559D01*
X116950Y100555D01*
X117550Y100355D01*
X117552Y100356D01*
X117552Y100355D01*
X118252Y100155D01*
X118262Y100158D01*
X118266Y100153D01*
X119566Y100153D01*
X119574Y100159D01*
G37*
G36*
X128271Y100156D02*
X128271Y100156D01*
X128274Y100153D01*
X128874Y100253D01*
X128880Y100260D01*
X128885Y100257D01*
X129585Y100557D01*
X129590Y100565D01*
X129597Y100564D01*
X130597Y101364D01*
X130599Y101374D01*
X130607Y101375D01*
X131007Y101975D01*
X131007Y101979D01*
X131010Y101980D01*
X131310Y102580D01*
X131308Y102591D01*
X131315Y102595D01*
X131415Y103295D01*
X131412Y103300D01*
X131415Y103302D01*
X131415Y104002D01*
X131412Y104006D01*
X131415Y104009D01*
X131315Y104709D01*
X131310Y104714D01*
X131313Y104718D01*
X131113Y105318D01*
X131105Y105323D01*
X131107Y105329D01*
X130707Y105929D01*
X130704Y105930D01*
X130704Y105933D01*
X130304Y106433D01*
X130294Y106435D01*
X130293Y106443D01*
X129693Y106843D01*
X129689Y106843D01*
X129688Y106846D01*
X129088Y107146D01*
X129078Y107144D01*
X129077Y107145D01*
X129074Y107151D01*
X128474Y107251D01*
X128473Y107250D01*
X128473Y107251D01*
X127773Y107351D01*
X127764Y107346D01*
X127759Y107351D01*
X127059Y107251D01*
X127054Y107246D01*
X127050Y107249D01*
X126450Y107049D01*
X126447Y107044D01*
X126444Y107046D01*
X125844Y106746D01*
X125840Y106739D01*
X125834Y106740D01*
X125234Y106240D01*
X125234Y106238D01*
X125233Y106239D01*
X124233Y105339D01*
X124228Y105310D01*
X124217Y105302D01*
X124217Y103202D01*
X124223Y103194D01*
X124219Y103188D01*
X124419Y102488D01*
X124424Y102484D01*
X124422Y102480D01*
X124722Y101880D01*
X124726Y101878D01*
X124725Y101875D01*
X125125Y101275D01*
X125135Y101271D01*
X125135Y101264D01*
X125635Y100864D01*
X125639Y100863D01*
X125639Y100861D01*
X126239Y100461D01*
X126250Y100462D01*
X126252Y100455D01*
X126952Y100255D01*
X126956Y100256D01*
X126958Y100253D01*
X127558Y100153D01*
X127563Y100156D01*
X127566Y100153D01*
X128266Y100153D01*
X128271Y100156D01*
G37*
G36*
X142971Y100156D02*
X142971Y100156D01*
X142974Y100153D01*
X143574Y100253D01*
X143580Y100260D01*
X143585Y100257D01*
X144285Y100557D01*
X144290Y100565D01*
X144297Y100564D01*
X145297Y101364D01*
X145299Y101374D01*
X145307Y101375D01*
X145707Y101975D01*
X145707Y101979D01*
X145710Y101980D01*
X146010Y102580D01*
X146008Y102591D01*
X146015Y102595D01*
X146115Y103295D01*
X146112Y103300D01*
X146115Y103302D01*
X146115Y104002D01*
X146112Y104006D01*
X146115Y104009D01*
X146015Y104709D01*
X146010Y104714D01*
X146013Y104718D01*
X145813Y105318D01*
X145805Y105323D01*
X145807Y105329D01*
X145407Y105929D01*
X145404Y105930D01*
X145404Y105933D01*
X145004Y106433D01*
X144994Y106435D01*
X144993Y106443D01*
X144393Y106843D01*
X144389Y106843D01*
X144388Y106846D01*
X143788Y107146D01*
X143778Y107144D01*
X143776Y107146D01*
X143775Y107146D01*
X143773Y107151D01*
X143074Y107251D01*
X142474Y107351D01*
X142464Y107345D01*
X142459Y107351D01*
X141759Y107251D01*
X141754Y107246D01*
X141750Y107249D01*
X141150Y107049D01*
X141147Y107044D01*
X141144Y107046D01*
X140544Y106746D01*
X140540Y106739D01*
X140534Y106740D01*
X139934Y106240D01*
X139934Y106238D01*
X139933Y106239D01*
X138933Y105339D01*
X138928Y105310D01*
X138917Y105302D01*
X138917Y103202D01*
X138923Y103194D01*
X138919Y103188D01*
X139119Y102488D01*
X139124Y102484D01*
X139122Y102480D01*
X139422Y101880D01*
X139426Y101878D01*
X139425Y101875D01*
X139825Y101275D01*
X139835Y101271D01*
X139835Y101264D01*
X140335Y100864D01*
X140339Y100863D01*
X140339Y100861D01*
X140939Y100461D01*
X140950Y100462D01*
X140952Y100455D01*
X141652Y100255D01*
X141656Y100256D01*
X141658Y100253D01*
X142258Y100153D01*
X142263Y100156D01*
X142266Y100153D01*
X142966Y100153D01*
X142971Y100156D01*
G37*
G36*
X147925Y89996D02*
X147925Y89996D01*
X147928Y89993D01*
X148528Y90093D01*
X148534Y90100D01*
X148539Y90097D01*
X149239Y90397D01*
X149244Y90405D01*
X149251Y90404D01*
X150251Y91204D01*
X150253Y91214D01*
X150261Y91215D01*
X150661Y91815D01*
X150661Y91819D01*
X150664Y91820D01*
X150964Y92420D01*
X150962Y92431D01*
X150969Y92435D01*
X151069Y93135D01*
X151066Y93140D01*
X151069Y93142D01*
X151069Y93842D01*
X151066Y93846D01*
X151069Y93849D01*
X150969Y94549D01*
X150964Y94554D01*
X150967Y94558D01*
X150767Y95158D01*
X150759Y95163D01*
X150761Y95169D01*
X150361Y95769D01*
X150358Y95770D01*
X150358Y95773D01*
X149958Y96273D01*
X149948Y96275D01*
X149947Y96283D01*
X149347Y96683D01*
X149343Y96683D01*
X149342Y96686D01*
X148742Y96986D01*
X148732Y96984D01*
X148731Y96985D01*
X148728Y96991D01*
X148128Y97091D01*
X148127Y97090D01*
X148127Y97091D01*
X147427Y97191D01*
X147418Y97186D01*
X147413Y97191D01*
X146713Y97091D01*
X146708Y97086D01*
X146704Y97089D01*
X146104Y96889D01*
X146101Y96884D01*
X146098Y96886D01*
X145498Y96586D01*
X145494Y96579D01*
X145488Y96580D01*
X144888Y96080D01*
X144888Y96078D01*
X144887Y96079D01*
X143887Y95179D01*
X143882Y95150D01*
X143871Y95142D01*
X143871Y93642D01*
X143874Y93637D01*
X143871Y93634D01*
X143971Y93034D01*
X144071Y92335D01*
X144079Y92327D01*
X144076Y92320D01*
X144376Y91720D01*
X144380Y91718D01*
X144379Y91715D01*
X144779Y91115D01*
X144789Y91111D01*
X144789Y91104D01*
X145289Y90704D01*
X145293Y90703D01*
X145293Y90701D01*
X145893Y90301D01*
X145904Y90302D01*
X145906Y90295D01*
X146606Y90095D01*
X146610Y90096D01*
X146612Y90093D01*
X147212Y89993D01*
X147217Y89996D01*
X147220Y89993D01*
X147920Y89993D01*
X147925Y89996D01*
G37*
G36*
X62486Y96353D02*
X62486Y96353D01*
X67786Y98153D01*
X67792Y98163D01*
X67800Y98161D01*
X68200Y98461D01*
X68205Y98479D01*
X68216Y98482D01*
X68416Y98982D01*
X68413Y98993D01*
X68415Y98994D01*
X68411Y98998D01*
X68409Y99007D01*
X68416Y99018D01*
X68216Y99518D01*
X68200Y99528D01*
X68200Y99539D01*
X67800Y99839D01*
X67789Y99839D01*
X67786Y99846D01*
X66087Y100446D01*
X64622Y100996D01*
X67385Y101853D01*
X67386Y101855D01*
X67388Y101854D01*
X67888Y102054D01*
X67896Y102066D01*
X67905Y102065D01*
X68305Y102465D01*
X68307Y102483D01*
X68317Y102491D01*
X68314Y102496D01*
X68319Y102500D01*
X68319Y103000D01*
X68310Y103013D01*
X68314Y103022D01*
X68114Y103422D01*
X68100Y103429D01*
X68100Y103439D01*
X67700Y103739D01*
X67689Y103739D01*
X67687Y103746D01*
X62387Y105646D01*
X62381Y105645D01*
X62380Y105648D01*
X61880Y105748D01*
X61859Y105738D01*
X61848Y105744D01*
X61448Y105544D01*
X61439Y105527D01*
X61428Y105525D01*
X61128Y105025D01*
X61129Y105013D01*
X61122Y105010D01*
X61022Y104510D01*
X61034Y104484D01*
X61031Y104470D01*
X61331Y104070D01*
X61350Y104065D01*
X61354Y104054D01*
X64743Y102857D01*
X64780Y102821D01*
X61954Y101847D01*
X61953Y101845D01*
X61952Y101846D01*
X61452Y101646D01*
X61442Y101630D01*
X61431Y101630D01*
X61131Y101230D01*
X61131Y101201D01*
X61122Y101190D01*
X61222Y100690D01*
X61229Y100684D01*
X61226Y100678D01*
X61426Y100278D01*
X61448Y100267D01*
X61452Y100254D01*
X61952Y100054D01*
X61954Y100055D01*
X61954Y100053D01*
X64780Y99079D01*
X64644Y98943D01*
X61755Y98047D01*
X61754Y98045D01*
X61752Y98046D01*
X61252Y97846D01*
X61237Y97822D01*
X61224Y97818D01*
X61024Y97318D01*
X61030Y97297D01*
X61029Y97297D01*
X61031Y97295D01*
X61031Y97293D01*
X61024Y97282D01*
X61224Y96782D01*
X61229Y96779D01*
X61228Y96775D01*
X61528Y96275D01*
X61550Y96266D01*
X61554Y96253D01*
X61854Y96153D01*
X61875Y96160D01*
X61886Y96153D01*
X62486Y96353D01*
G37*
G36*
X123428Y89999D02*
X123428Y89999D01*
X123434Y89995D01*
X124134Y90195D01*
X124139Y90202D01*
X124145Y90200D01*
X124645Y90500D01*
X124649Y90508D01*
X124655Y90507D01*
X124955Y90807D01*
X124959Y90834D01*
X124969Y90842D01*
X124969Y91342D01*
X124961Y91353D01*
X124965Y91361D01*
X124665Y92061D01*
X124647Y92072D01*
X124645Y92084D01*
X124145Y92384D01*
X124117Y92381D01*
X124106Y92389D01*
X123406Y92189D01*
X123405Y92188D01*
X123404Y92189D01*
X122812Y91991D01*
X122127Y91991D01*
X121449Y92185D01*
X121100Y92621D01*
X121529Y92793D01*
X124220Y92793D01*
X124230Y92800D01*
X124235Y92800D01*
X124236Y92801D01*
X124242Y92798D01*
X124842Y93098D01*
X124845Y93105D01*
X124851Y93104D01*
X125351Y93504D01*
X125355Y93519D01*
X125363Y93525D01*
X125358Y93532D01*
X125358Y93534D01*
X125369Y93542D01*
X125369Y94342D01*
X125366Y94346D01*
X125369Y94349D01*
X125269Y95049D01*
X125264Y95054D01*
X125267Y95058D01*
X125067Y95658D01*
X125056Y95665D01*
X125058Y95673D01*
X124658Y96173D01*
X124654Y96174D01*
X124655Y96177D01*
X124155Y96677D01*
X124143Y96678D01*
X124142Y96686D01*
X123542Y96986D01*
X123532Y96984D01*
X123531Y96985D01*
X123528Y96991D01*
X122928Y97091D01*
X122927Y97090D01*
X122926Y97091D01*
X122126Y97191D01*
X122118Y97186D01*
X122113Y97191D01*
X121413Y97091D01*
X121409Y97087D01*
X121406Y97089D01*
X120706Y96889D01*
X120702Y96884D01*
X120698Y96886D01*
X120098Y96586D01*
X120095Y96579D01*
X120089Y96580D01*
X119589Y96180D01*
X119588Y96176D01*
X119585Y96177D01*
X119185Y95777D01*
X119184Y95770D01*
X119179Y95769D01*
X118779Y95169D01*
X118780Y95160D01*
X118773Y95158D01*
X118573Y94558D01*
X118575Y94551D01*
X118571Y94549D01*
X118471Y93849D01*
X118474Y93844D01*
X118471Y93842D01*
X118471Y93142D01*
X118477Y93134D01*
X118473Y93128D01*
X118673Y92428D01*
X118674Y92427D01*
X118673Y92426D01*
X118873Y91826D01*
X118881Y91821D01*
X118879Y91815D01*
X119279Y91215D01*
X119282Y91214D01*
X119282Y91211D01*
X119682Y90711D01*
X119692Y90709D01*
X119693Y90701D01*
X120293Y90301D01*
X120302Y90302D01*
X120304Y90295D01*
X120904Y90095D01*
X120911Y90097D01*
X120913Y90093D01*
X121613Y89993D01*
X121618Y89996D01*
X121620Y89993D01*
X123420Y89993D01*
X123428Y89999D01*
G37*
%LPC*%
G36*
X73305Y39401D02*
X73305Y39401D01*
X72833Y39496D01*
X72649Y39864D01*
X72649Y42247D01*
X72748Y42742D01*
X72847Y43238D01*
X73043Y43728D01*
X73339Y44122D01*
X73635Y44517D01*
X74030Y44813D01*
X74424Y45109D01*
X74918Y45306D01*
X75409Y45503D01*
X76891Y45503D01*
X77380Y45307D01*
X77778Y45108D01*
X77781Y45109D01*
X77782Y45106D01*
X78272Y44910D01*
X78663Y44520D01*
X78961Y44122D01*
X79258Y43726D01*
X79455Y43332D01*
X79651Y42843D01*
X79651Y42352D01*
X79652Y42350D01*
X79651Y42350D01*
X79751Y40355D01*
X79654Y39776D01*
X79376Y39497D01*
X78895Y39401D01*
X73305Y39401D01*
G37*
%LPD*%
%LPC*%
G36*
X129423Y31204D02*
X129423Y31204D01*
X129409Y31197D01*
X129400Y31209D01*
X123912Y31209D01*
X123544Y31393D01*
X123449Y31865D01*
X123449Y34255D01*
X123547Y34744D01*
X123744Y35138D01*
X123743Y35141D01*
X123746Y35142D01*
X123943Y35636D01*
X124237Y36028D01*
X124632Y36423D01*
X125026Y36718D01*
X125420Y36915D01*
X125914Y37113D01*
X126410Y37212D01*
X126900Y37310D01*
X127390Y37212D01*
X127890Y37112D01*
X128375Y37015D01*
X128358Y36985D01*
X128365Y36926D01*
X128376Y36927D01*
X128378Y36916D01*
X128777Y36717D01*
X129270Y36421D01*
X129958Y35732D01*
X130154Y35242D01*
X130157Y35240D01*
X130156Y35238D01*
X130353Y34844D01*
X130452Y34350D01*
X130551Y33856D01*
X130451Y31766D01*
X130358Y31300D01*
X129994Y31209D01*
X129500Y31209D01*
X129453Y31173D01*
X129452Y31173D01*
X129447Y31152D01*
X129423Y31204D01*
G37*
%LPD*%
%LPC*%
G36*
X151805Y30839D02*
X151805Y30839D01*
X151314Y30937D01*
X150818Y31136D01*
X150324Y31333D01*
X149932Y31627D01*
X149639Y31921D01*
X149342Y32415D01*
X149339Y32417D01*
X149339Y32420D01*
X149043Y32814D01*
X148847Y33304D01*
X148748Y33800D01*
X148650Y34290D01*
X148748Y34780D01*
X148745Y34787D01*
X148749Y34790D01*
X148749Y35281D01*
X148945Y35770D01*
X149142Y36164D01*
X149435Y36555D01*
X149812Y36837D01*
X150276Y36745D01*
X150659Y36361D01*
X150848Y35984D01*
X150755Y35612D01*
X150461Y35220D01*
X150461Y35204D01*
X150452Y35200D01*
X150352Y34700D01*
X150355Y34693D01*
X150351Y34690D01*
X150351Y34090D01*
X150356Y34083D01*
X150352Y34078D01*
X150452Y33678D01*
X150461Y33671D01*
X150458Y33665D01*
X150758Y33165D01*
X150761Y33163D01*
X150761Y33160D01*
X151061Y32760D01*
X151079Y32755D01*
X151082Y32744D01*
X151582Y32544D01*
X151588Y32546D01*
X151590Y32542D01*
X152090Y32442D01*
X152097Y32445D01*
X152100Y32441D01*
X152600Y32441D01*
X152606Y32445D01*
X152610Y32442D01*
X153110Y32542D01*
X153120Y32553D01*
X153130Y32551D01*
X153530Y32851D01*
X153531Y32856D01*
X153535Y32855D01*
X153935Y33255D01*
X153936Y33267D01*
X153944Y33268D01*
X154144Y33668D01*
X154142Y33677D01*
X154148Y33680D01*
X154248Y34180D01*
X154245Y34187D01*
X154249Y34190D01*
X154249Y34690D01*
X154245Y34696D01*
X154248Y34700D01*
X154148Y35200D01*
X154138Y35209D01*
X154141Y35217D01*
X153944Y35513D01*
X153752Y35992D01*
X153842Y36261D01*
X154327Y36648D01*
X154722Y36846D01*
X154738Y36878D01*
X154749Y36884D01*
X154949Y38584D01*
X154919Y38636D01*
X154908Y38629D01*
X154900Y38639D01*
X149315Y38639D01*
X149038Y38824D01*
X148849Y39202D01*
X148849Y39870D01*
X149124Y40145D01*
X149605Y40241D01*
X154500Y40241D01*
X154547Y40277D01*
X154542Y40283D01*
X154547Y40287D01*
X154547Y40288D01*
X154549Y40290D01*
X154549Y42885D01*
X154644Y43360D01*
X154918Y43543D01*
X155487Y43638D01*
X155855Y43362D01*
X155951Y42885D01*
X155951Y39299D01*
X155760Y38823D01*
X155485Y38639D01*
X155000Y38639D01*
X154953Y38603D01*
X154956Y38599D01*
X154951Y38596D01*
X154751Y36896D01*
X154770Y36863D01*
X154770Y36851D01*
X155165Y36555D01*
X155458Y36164D01*
X155655Y35770D01*
X155851Y35281D01*
X155851Y33795D01*
X155753Y33304D01*
X155557Y32814D01*
X155261Y32420D01*
X154963Y32022D01*
X154568Y31627D01*
X154174Y31332D01*
X153780Y31135D01*
X153286Y30937D01*
X152795Y30839D01*
X151805Y30839D01*
G37*
%LPD*%
G36*
X126325Y76280D02*
X126325Y76280D01*
X126328Y76277D01*
X126928Y76377D01*
X126951Y76402D01*
X126964Y76404D01*
X127264Y77004D01*
X127262Y77015D01*
X127269Y77019D01*
X127369Y77719D01*
X127366Y77724D01*
X127369Y77726D01*
X127369Y83784D01*
X127924Y83877D01*
X130020Y83877D01*
X130035Y83888D01*
X130045Y83884D01*
X130545Y84184D01*
X130557Y84212D01*
X130569Y84218D01*
X130669Y84818D01*
X130666Y84823D01*
X130669Y84826D01*
X130669Y85526D01*
X130644Y85559D01*
X130642Y85570D01*
X130042Y85870D01*
X130026Y85867D01*
X130020Y85875D01*
X122520Y85875D01*
X122516Y85872D01*
X122513Y85875D01*
X121813Y85775D01*
X121784Y85745D01*
X121773Y85742D01*
X121573Y85142D01*
X121577Y85131D01*
X121571Y85126D01*
X121571Y84426D01*
X121587Y84405D01*
X121585Y84391D01*
X121985Y83991D01*
X122007Y83988D01*
X122013Y83977D01*
X122713Y83877D01*
X122718Y83880D01*
X122720Y83877D01*
X124790Y83877D01*
X124971Y83514D01*
X124971Y77326D01*
X124974Y77321D01*
X124971Y77318D01*
X125071Y76718D01*
X125090Y76701D01*
X125089Y76688D01*
X125589Y76288D01*
X125612Y76287D01*
X125620Y76277D01*
X126320Y76277D01*
X126325Y76280D01*
G37*
G36*
X129238Y90006D02*
X129238Y90006D01*
X129250Y90003D01*
X129650Y90303D01*
X129654Y90319D01*
X129661Y90324D01*
X129661Y90325D01*
X129667Y90326D01*
X129867Y90926D01*
X129863Y90937D01*
X129869Y90942D01*
X129869Y93630D01*
X130157Y94205D01*
X130732Y94493D01*
X131403Y94493D01*
X131877Y94113D01*
X132071Y93435D01*
X132071Y90742D01*
X132079Y90731D01*
X132074Y90724D01*
X132274Y90224D01*
X132300Y90208D01*
X132304Y90195D01*
X132904Y89995D01*
X132915Y89999D01*
X132920Y89993D01*
X133820Y89993D01*
X133841Y90009D01*
X133855Y90007D01*
X134255Y90407D01*
X134256Y90419D01*
X134261Y90423D01*
X134260Y90424D01*
X134267Y90426D01*
X134467Y91026D01*
X134463Y91037D01*
X134469Y91042D01*
X134469Y93842D01*
X134462Y93851D01*
X134467Y93858D01*
X134267Y94457D01*
X134067Y95156D01*
X134060Y95161D01*
X134062Y95167D01*
X133762Y95667D01*
X133754Y95671D01*
X133755Y95677D01*
X133255Y96177D01*
X133248Y96178D01*
X133247Y96183D01*
X132647Y96583D01*
X132638Y96582D01*
X132636Y96589D01*
X132036Y96789D01*
X132029Y96787D01*
X132027Y96791D01*
X131327Y96891D01*
X131322Y96888D01*
X131316Y96888D01*
X131313Y96891D01*
X130613Y96791D01*
X130600Y96778D01*
X130589Y96780D01*
X130098Y96387D01*
X129743Y96299D01*
X129462Y96767D01*
X129434Y96779D01*
X129427Y96791D01*
X128727Y96891D01*
X128722Y96888D01*
X128717Y96888D01*
X128714Y96891D01*
X127914Y96791D01*
X127898Y96775D01*
X127885Y96777D01*
X127485Y96377D01*
X127484Y96365D01*
X127477Y96359D01*
X127482Y96352D01*
X127482Y96350D01*
X127471Y96342D01*
X127471Y90842D01*
X127478Y90833D01*
X127473Y90826D01*
X127673Y90226D01*
X127700Y90208D01*
X127704Y90195D01*
X128304Y89995D01*
X128315Y89999D01*
X128320Y89993D01*
X129220Y89993D01*
X129238Y90006D01*
G37*
G36*
X67783Y107460D02*
X67783Y107460D01*
X67792Y107456D01*
X68192Y107656D01*
X68202Y107677D01*
X68211Y107684D01*
X68210Y107686D01*
X68218Y107690D01*
X68318Y108190D01*
X68313Y108202D01*
X68319Y108208D01*
X68219Y108808D01*
X68208Y108818D01*
X68211Y108827D01*
X68011Y109127D01*
X67986Y109136D01*
X67980Y109148D01*
X67480Y109248D01*
X67473Y109245D01*
X67470Y109249D01*
X66500Y109249D01*
X66319Y109612D01*
X66319Y110574D01*
X66893Y110956D01*
X68089Y111455D01*
X68098Y111470D01*
X68109Y111470D01*
X68409Y111870D01*
X68409Y111901D01*
X68418Y111912D01*
X68318Y112312D01*
X68308Y112320D01*
X68311Y112327D01*
X67911Y112927D01*
X67898Y112932D01*
X67897Y112941D01*
X67597Y113141D01*
X67563Y113139D01*
X67552Y113146D01*
X67053Y112946D01*
X66754Y112847D01*
X66753Y112845D01*
X66752Y112846D01*
X65753Y112446D01*
X65479Y112355D01*
X65100Y112639D01*
X65096Y112639D01*
X65095Y112642D01*
X64595Y112942D01*
X64585Y112941D01*
X64582Y112948D01*
X64182Y113048D01*
X64174Y113044D01*
X64170Y113049D01*
X63570Y113049D01*
X63564Y113045D01*
X63560Y113048D01*
X62560Y112848D01*
X62550Y112837D01*
X62540Y112839D01*
X62140Y112539D01*
X62139Y112534D01*
X62135Y112535D01*
X61735Y112135D01*
X61734Y112130D01*
X61731Y112130D01*
X61431Y111730D01*
X61431Y111720D01*
X61424Y111718D01*
X61224Y111218D01*
X61226Y111213D01*
X61222Y111212D01*
X61122Y110812D01*
X61123Y110810D01*
X61122Y110810D01*
X61022Y110310D01*
X61025Y110303D01*
X61021Y110300D01*
X61021Y108200D01*
X61029Y108189D01*
X61024Y108182D01*
X61224Y107682D01*
X61246Y107669D01*
X61248Y107656D01*
X61648Y107456D01*
X61664Y107459D01*
X61670Y107451D01*
X67770Y107451D01*
X67783Y107460D01*
G37*
G36*
X139725Y89996D02*
X139725Y89996D01*
X139728Y89993D01*
X140328Y90093D01*
X140332Y90098D01*
X140336Y90095D01*
X140936Y90295D01*
X140945Y90309D01*
X140955Y90307D01*
X141455Y90807D01*
X141456Y90816D01*
X141462Y90817D01*
X141762Y91317D01*
X141761Y91326D01*
X141767Y91328D01*
X141967Y92028D01*
X141964Y92038D01*
X141969Y92042D01*
X141969Y92742D01*
X141962Y92751D01*
X141967Y92758D01*
X141767Y93358D01*
X141756Y93365D01*
X141758Y93373D01*
X141358Y93873D01*
X141348Y93875D01*
X141347Y93883D01*
X140747Y94283D01*
X140736Y94282D01*
X140734Y94289D01*
X140034Y94489D01*
X140030Y94488D01*
X140028Y94491D01*
X139430Y94590D01*
X138661Y94783D01*
X138579Y95110D01*
X139125Y95292D01*
X139810Y95194D01*
X140506Y94995D01*
X140516Y94998D01*
X140520Y94993D01*
X141020Y94993D01*
X141044Y95011D01*
X141058Y95010D01*
X141558Y95610D01*
X141559Y95629D01*
X141569Y95634D01*
X141669Y96234D01*
X141653Y96264D01*
X141655Y96277D01*
X141155Y96777D01*
X141139Y96779D01*
X141136Y96789D01*
X140536Y96989D01*
X140529Y96987D01*
X140527Y96991D01*
X139828Y97091D01*
X139228Y97191D01*
X139219Y97186D01*
X139215Y97191D01*
X138315Y97091D01*
X138310Y97087D01*
X138306Y97089D01*
X137606Y96889D01*
X137601Y96882D01*
X137595Y96884D01*
X137095Y96584D01*
X137091Y96576D01*
X137085Y96577D01*
X136685Y96177D01*
X136684Y96165D01*
X136680Y96162D01*
X136674Y96160D01*
X136474Y95660D01*
X136477Y95652D01*
X136471Y95649D01*
X136371Y94949D01*
X136377Y94939D01*
X136371Y94934D01*
X136471Y94334D01*
X136478Y94328D01*
X136475Y94323D01*
X136775Y93623D01*
X136783Y93618D01*
X136782Y93611D01*
X137182Y93111D01*
X137196Y93108D01*
X137198Y93098D01*
X137798Y92798D01*
X137803Y92799D01*
X137804Y92795D01*
X138404Y92595D01*
X138407Y92596D01*
X138408Y92594D01*
X139206Y92395D01*
X139743Y92216D01*
X139592Y91988D01*
X138825Y91892D01*
X138240Y92087D01*
X137544Y92485D01*
X137527Y92482D01*
X137520Y92491D01*
X136920Y92491D01*
X136896Y92473D01*
X136882Y92474D01*
X136382Y91874D01*
X136382Y91862D01*
X136374Y91860D01*
X136174Y91360D01*
X136181Y91337D01*
X136180Y91337D01*
X136179Y91336D01*
X136179Y91335D01*
X136173Y91326D01*
X136373Y90726D01*
X136395Y90711D01*
X136398Y90698D01*
X136998Y90398D01*
X137000Y90398D01*
X137001Y90397D01*
X137701Y90097D01*
X137709Y90099D01*
X137712Y90093D01*
X138312Y89993D01*
X138317Y89996D01*
X138320Y89993D01*
X139720Y89993D01*
X139725Y89996D01*
G37*
G36*
X67275Y89354D02*
X67275Y89354D01*
X67278Y89351D01*
X67878Y89451D01*
X67882Y89456D01*
X67886Y89453D01*
X68186Y89553D01*
X68203Y89578D01*
X68216Y89582D01*
X68416Y90082D01*
X68411Y90099D01*
X68419Y90107D01*
X68319Y90807D01*
X68303Y90822D01*
X68305Y90835D01*
X68005Y91135D01*
X67986Y91137D01*
X67982Y91148D01*
X67582Y91248D01*
X67574Y91244D01*
X67570Y91249D01*
X66506Y91249D01*
X66419Y91508D01*
X66419Y92500D01*
X66415Y92506D01*
X66418Y92510D01*
X66318Y93010D01*
X66311Y93016D01*
X66314Y93022D01*
X66114Y93422D01*
X66070Y93444D01*
X66093Y93457D01*
X66118Y93511D01*
X66110Y93514D01*
X66114Y93522D01*
X65914Y93922D01*
X65904Y93927D01*
X65905Y93935D01*
X65505Y94335D01*
X65500Y94336D01*
X65500Y94339D01*
X65100Y94639D01*
X65093Y94639D01*
X65092Y94644D01*
X64692Y94844D01*
X64683Y94842D01*
X64680Y94848D01*
X63680Y95048D01*
X63673Y95045D01*
X63670Y95049D01*
X63170Y95049D01*
X63157Y95040D01*
X63148Y95044D01*
X62548Y94744D01*
X62545Y94738D01*
X62540Y94739D01*
X62140Y94439D01*
X62139Y94434D01*
X62135Y94435D01*
X61735Y94035D01*
X61734Y94030D01*
X61731Y94030D01*
X61431Y93630D01*
X61431Y93620D01*
X61424Y93618D01*
X61224Y93118D01*
X61226Y93112D01*
X61222Y93110D01*
X61122Y92610D01*
X61125Y92603D01*
X61121Y92600D01*
X61121Y90000D01*
X61130Y89987D01*
X61126Y89978D01*
X61326Y89578D01*
X61346Y89568D01*
X61348Y89556D01*
X61748Y89356D01*
X61764Y89359D01*
X61770Y89351D01*
X67270Y89351D01*
X67275Y89354D01*
G37*
%LPC*%
G36*
X174895Y27274D02*
X174895Y27274D01*
X174859Y27321D01*
X174852Y27316D01*
X174846Y27323D01*
X174366Y27323D01*
X174091Y27598D01*
X173996Y28074D01*
X174092Y28553D01*
X174381Y28939D01*
X178076Y31735D01*
X178080Y31751D01*
X178093Y31761D01*
X178086Y31771D01*
X178092Y31792D01*
X178064Y31800D01*
X178046Y31823D01*
X174651Y31823D01*
X174176Y31918D01*
X173995Y32189D01*
X173995Y32768D01*
X174090Y33145D01*
X174462Y33425D01*
X180534Y33425D01*
X180902Y33241D01*
X180997Y32769D01*
X180997Y32186D01*
X180807Y31806D01*
X177116Y29013D01*
X177112Y28997D01*
X177099Y28987D01*
X177106Y28977D01*
X177100Y28956D01*
X177128Y28948D01*
X177146Y28925D01*
X180440Y28925D01*
X180812Y28832D01*
X180997Y28462D01*
X180997Y27780D01*
X180906Y27416D01*
X180441Y27323D01*
X174946Y27323D01*
X174899Y27287D01*
X174903Y27281D01*
X174897Y27277D01*
X174895Y27253D01*
X174895Y27274D01*
G37*
%LPD*%
%LPC*%
G36*
X13555Y45497D02*
X13555Y45497D01*
X13283Y45796D01*
X11497Y50774D01*
X11491Y50779D01*
X11491Y50787D01*
X11465Y50804D01*
X11479Y50801D01*
X11499Y50822D01*
X11510Y50828D01*
X11510Y50833D01*
X11515Y50839D01*
X11562Y50978D01*
X13066Y50978D01*
X13251Y50583D01*
X14150Y47540D01*
X14159Y47532D01*
X14159Y47531D01*
X14160Y47524D01*
X14164Y47522D01*
X14172Y47507D01*
X14321Y47396D01*
X14353Y47394D01*
X14385Y47389D01*
X14387Y47391D01*
X14389Y47391D01*
X14392Y47398D01*
X14419Y47429D01*
X15438Y50948D01*
X15897Y50978D01*
X16928Y50978D01*
X17196Y50698D01*
X18084Y47663D01*
X18086Y47660D01*
X18086Y47656D01*
X18235Y47299D01*
X18247Y47291D01*
X18252Y47276D01*
X18273Y47273D01*
X18291Y47261D01*
X18304Y47269D01*
X18319Y47266D01*
X18339Y47290D01*
X18349Y47296D01*
X18349Y47301D01*
X18353Y47306D01*
X19394Y50833D01*
X19764Y50978D01*
X20799Y50978D01*
X21003Y50892D01*
X21012Y50894D01*
X21019Y50891D01*
X21027Y50891D01*
X21036Y50888D01*
X21044Y50889D01*
X21040Y50886D01*
X19265Y45955D01*
X18984Y45497D01*
X17466Y45497D01*
X17252Y45858D01*
X16318Y48888D01*
X16305Y48899D01*
X16301Y48915D01*
X16281Y48919D01*
X16266Y48932D01*
X16250Y48924D01*
X16234Y48928D01*
X16215Y48908D01*
X16204Y48902D01*
X16203Y48895D01*
X16198Y48890D01*
X16041Y48436D01*
X16041Y48435D01*
X16040Y48434D01*
X15254Y45909D01*
X15075Y45497D01*
X13555Y45497D01*
G37*
%LPD*%
%LPC*%
G36*
X73306Y31701D02*
X73306Y31701D01*
X72929Y31796D01*
X72649Y32168D01*
X72649Y32643D01*
X72841Y33121D01*
X76029Y35512D01*
X76627Y35911D01*
X76633Y35928D01*
X76644Y35930D01*
X76744Y36130D01*
X76743Y36135D01*
X76747Y36139D01*
X76741Y36147D01*
X76733Y36188D01*
X76713Y36185D01*
X76700Y36201D01*
X73123Y36201D01*
X72649Y36770D01*
X72649Y37240D01*
X72837Y37615D01*
X73212Y37803D01*
X78800Y37803D01*
X78847Y37839D01*
X78843Y37845D01*
X78849Y37849D01*
X78851Y37873D01*
X78851Y37852D01*
X78887Y37805D01*
X78894Y37810D01*
X78900Y37803D01*
X79284Y37803D01*
X79655Y37524D01*
X79750Y36953D01*
X79655Y36476D01*
X79268Y36089D01*
X75670Y33391D01*
X75667Y33380D01*
X75656Y33374D01*
X75662Y33362D01*
X75654Y33334D01*
X75679Y33327D01*
X75690Y33304D01*
X76190Y33204D01*
X76197Y33207D01*
X76200Y33203D01*
X79194Y33203D01*
X79558Y33112D01*
X79651Y32647D01*
X79651Y31972D01*
X79380Y31701D01*
X73306Y31701D01*
G37*
%LPD*%
%LPC*%
G36*
X75405Y23701D02*
X75405Y23701D01*
X74916Y23799D01*
X74523Y23995D01*
X74028Y24293D01*
X73632Y24589D01*
X73335Y24887D01*
X73311Y24890D01*
X73311Y24891D01*
X73308Y24891D01*
X73299Y24892D01*
X73328Y24911D01*
X73347Y24968D01*
X73336Y24971D01*
X73339Y24982D01*
X73039Y25382D01*
X72743Y25776D01*
X72547Y26266D01*
X72449Y26757D01*
X72449Y27746D01*
X72547Y28137D01*
X72746Y28634D01*
X72943Y29128D01*
X73232Y29513D01*
X73602Y29698D01*
X74072Y29510D01*
X74456Y29127D01*
X74548Y28757D01*
X74155Y27872D01*
X74157Y27863D01*
X74151Y27860D01*
X74051Y27260D01*
X74057Y27249D01*
X74052Y27242D01*
X74152Y26742D01*
X74159Y26736D01*
X74156Y26730D01*
X74356Y26330D01*
X74362Y26327D01*
X74361Y26322D01*
X74661Y25922D01*
X74666Y25921D01*
X74665Y25917D01*
X74965Y25617D01*
X74979Y25615D01*
X74982Y25606D01*
X75482Y25406D01*
X75488Y25408D01*
X75490Y25404D01*
X75990Y25304D01*
X76003Y25310D01*
X76010Y25304D01*
X76510Y25404D01*
X76514Y25409D01*
X76518Y25406D01*
X77018Y25606D01*
X77023Y25614D01*
X77030Y25613D01*
X77430Y25913D01*
X77431Y25918D01*
X77435Y25917D01*
X77835Y26317D01*
X77836Y26329D01*
X77844Y26330D01*
X78044Y26730D01*
X78041Y26744D01*
X78047Y26749D01*
X78046Y26750D01*
X78049Y26752D01*
X78049Y27752D01*
X78041Y27763D01*
X78046Y27770D01*
X77846Y28270D01*
X77805Y28295D01*
X77800Y28301D01*
X76800Y28301D01*
X76753Y28265D01*
X76757Y28260D01*
X76751Y28256D01*
X76653Y27174D01*
X76380Y26901D01*
X75912Y26901D01*
X75537Y27089D01*
X75349Y27464D01*
X75349Y29048D01*
X75444Y29619D01*
X75816Y29805D01*
X76305Y29903D01*
X78291Y29903D01*
X78772Y29710D01*
X79063Y29420D01*
X79358Y29026D01*
X79553Y28636D01*
X79651Y28147D01*
X79651Y26464D01*
X79456Y26074D01*
X79457Y26071D01*
X79454Y26070D01*
X79255Y25572D01*
X79059Y25181D01*
X78668Y24789D01*
X78270Y24491D01*
X77874Y24194D01*
X77480Y23997D01*
X76986Y23799D01*
X76495Y23701D01*
X75405Y23701D01*
G37*
%LPD*%
%LPC*%
G36*
X129417Y38707D02*
X129417Y38707D01*
X123926Y41402D01*
X123541Y41691D01*
X123352Y42164D01*
X123444Y42535D01*
X123829Y42919D01*
X129316Y45613D01*
X129790Y45708D01*
X130066Y45523D01*
X130454Y45039D01*
X130547Y44572D01*
X130268Y44199D01*
X128878Y43504D01*
X128860Y43467D01*
X128851Y43460D01*
X128851Y40960D01*
X128870Y40934D01*
X128870Y40921D01*
X129270Y40621D01*
X129276Y40621D01*
X129276Y40617D01*
X130170Y40120D01*
X130451Y39840D01*
X130451Y39472D01*
X130161Y38892D01*
X129789Y38613D01*
X129417Y38707D01*
G37*
%LPD*%
G36*
X136473Y100158D02*
X136473Y100158D01*
X136478Y100154D01*
X136878Y100254D01*
X136900Y100281D01*
X136901Y100283D01*
X136913Y100286D01*
X137113Y100886D01*
X137109Y100897D01*
X137115Y100902D01*
X137115Y101802D01*
X137106Y101815D01*
X137110Y101824D01*
X136910Y102224D01*
X136884Y102237D01*
X136880Y102249D01*
X136196Y102445D01*
X135915Y102818D01*
X135915Y109602D01*
X135904Y109617D01*
X135908Y109627D01*
X135608Y110127D01*
X135584Y110137D01*
X135580Y110149D01*
X134880Y110349D01*
X134875Y110348D01*
X134863Y110348D01*
X134860Y110351D01*
X134060Y110251D01*
X134044Y110235D01*
X134031Y110237D01*
X133631Y109837D01*
X133630Y109824D01*
X133622Y109819D01*
X133628Y109812D01*
X133628Y109810D01*
X133617Y109802D01*
X133617Y102202D01*
X133620Y102198D01*
X133617Y102195D01*
X133717Y101495D01*
X133719Y101494D01*
X133718Y101492D01*
X133818Y100992D01*
X133833Y100979D01*
X133831Y100967D01*
X134231Y100567D01*
X134243Y100566D01*
X134244Y100558D01*
X134844Y100258D01*
X134856Y100260D01*
X134861Y100253D01*
X135761Y100153D01*
X135764Y100155D01*
X135766Y100153D01*
X136466Y100153D01*
X136473Y100158D01*
G37*
%LPC*%
G36*
X102634Y24094D02*
X102634Y24094D01*
X102449Y24464D01*
X102449Y25144D01*
X102541Y25419D01*
X103025Y25710D01*
X103027Y25713D01*
X103030Y25713D01*
X103430Y26013D01*
X103436Y26037D01*
X103448Y26042D01*
X103548Y26542D01*
X103543Y26554D01*
X103549Y26560D01*
X103449Y27160D01*
X103437Y27172D01*
X103439Y27182D01*
X103139Y27582D01*
X103117Y27588D01*
X103112Y27600D01*
X102712Y27700D01*
X102684Y27688D01*
X102670Y27691D01*
X102270Y27391D01*
X102266Y27375D01*
X102260Y27371D01*
X102263Y27367D01*
X102252Y27362D01*
X102053Y26368D01*
X101867Y25996D01*
X101300Y25902D01*
X100729Y25997D01*
X100546Y26271D01*
X100449Y26760D01*
X100349Y27360D01*
X100319Y27388D01*
X100316Y27399D01*
X100016Y27499D01*
X99983Y27488D01*
X99970Y27491D01*
X99570Y27191D01*
X99566Y27175D01*
X99564Y27174D01*
X99565Y27172D01*
X99564Y27167D01*
X99552Y27162D01*
X99452Y26662D01*
X99458Y26649D01*
X99452Y26642D01*
X99552Y26142D01*
X99570Y26126D01*
X99570Y26113D01*
X99970Y25813D01*
X100351Y25527D01*
X100351Y25061D01*
X100159Y24583D01*
X99784Y24301D01*
X99409Y24301D01*
X98928Y24494D01*
X98535Y24887D01*
X98510Y24890D01*
X98506Y24895D01*
X98490Y24895D01*
X98487Y24893D01*
X98476Y24895D01*
X98476Y24894D01*
X98475Y24894D01*
X98443Y24875D01*
X98244Y25274D01*
X98238Y25277D01*
X98239Y25282D01*
X97946Y25673D01*
X97849Y26157D01*
X97849Y27737D01*
X98038Y28021D01*
X98731Y28713D01*
X99219Y29006D01*
X99611Y29104D01*
X100095Y29201D01*
X100580Y29007D01*
X100968Y28813D01*
X101261Y28422D01*
X101318Y28406D01*
X101322Y28419D01*
X101335Y28417D01*
X102028Y29110D01*
X102509Y29303D01*
X102995Y29303D01*
X103486Y29205D01*
X103976Y29009D01*
X104365Y28717D01*
X104657Y28328D01*
X104854Y27834D01*
X104857Y27832D01*
X104856Y27830D01*
X105051Y27440D01*
X105051Y25861D01*
X104855Y25372D01*
X104658Y24978D01*
X104365Y24587D01*
X103976Y24295D01*
X103486Y24099D01*
X103001Y24002D01*
X102634Y24094D01*
G37*
%LPD*%
%LPC*%
G36*
X102815Y39801D02*
X102815Y39801D01*
X102545Y39981D01*
X102449Y40556D01*
X102449Y41126D01*
X102726Y41310D01*
X103225Y41610D01*
X103233Y41628D01*
X103244Y41630D01*
X103444Y42030D01*
X103442Y42041D01*
X103449Y42044D01*
X103549Y42644D01*
X103540Y42661D01*
X103546Y42670D01*
X103346Y43170D01*
X103330Y43180D01*
X103330Y43191D01*
X102930Y43491D01*
X102899Y43491D01*
X102888Y43500D01*
X102488Y43400D01*
X102473Y43382D01*
X102461Y43382D01*
X102161Y42982D01*
X102161Y42960D01*
X102151Y42952D01*
X102151Y42364D01*
X101959Y41981D01*
X101680Y41701D01*
X101012Y41701D01*
X100637Y41889D01*
X100449Y42264D01*
X100449Y42852D01*
X100440Y42865D01*
X100444Y42874D01*
X100244Y43274D01*
X100191Y43300D01*
X100190Y43298D01*
X100188Y43300D01*
X99788Y43200D01*
X99773Y43182D01*
X99761Y43182D01*
X99461Y42782D01*
X99461Y42760D01*
X99451Y42752D01*
X99451Y42252D01*
X99462Y42237D01*
X99458Y42227D01*
X99758Y41727D01*
X99770Y41722D01*
X99770Y41713D01*
X100164Y41418D01*
X100348Y41142D01*
X100253Y40670D01*
X99968Y40195D01*
X99599Y40102D01*
X99121Y40198D01*
X98732Y40489D01*
X98341Y40881D01*
X98145Y41272D01*
X97947Y41766D01*
X97849Y42257D01*
X97849Y43632D01*
X98532Y44315D01*
X98928Y44611D01*
X99414Y44903D01*
X100388Y44903D01*
X100774Y44710D01*
X101170Y44413D01*
X101192Y44413D01*
X101200Y44403D01*
X101400Y44403D01*
X101421Y44419D01*
X101435Y44417D01*
X101828Y44810D01*
X102314Y45005D01*
X102805Y45103D01*
X103291Y45103D01*
X103776Y44909D01*
X104168Y44615D01*
X104463Y44320D01*
X104757Y43928D01*
X104953Y43438D01*
X105052Y42942D01*
X105150Y42451D01*
X105051Y41860D01*
X104953Y41368D01*
X104758Y40978D01*
X104463Y40584D01*
X104168Y40289D01*
X103777Y39996D01*
X103192Y39801D01*
X102815Y39801D01*
G37*
%LPD*%
%LPC*%
G36*
X128435Y24498D02*
X128435Y24498D01*
X128146Y24979D01*
X128053Y25349D01*
X128337Y25728D01*
X128735Y26125D01*
X128737Y26139D01*
X128746Y26142D01*
X128946Y26642D01*
X128942Y26655D01*
X128949Y26660D01*
X128949Y27260D01*
X128933Y27281D01*
X128935Y27295D01*
X128635Y27595D01*
X128616Y27597D01*
X128612Y27608D01*
X128212Y27708D01*
X128184Y27696D01*
X128170Y27699D01*
X127770Y27399D01*
X127766Y27384D01*
X127756Y27382D01*
X127556Y26982D01*
X127558Y26973D01*
X127552Y26970D01*
X127452Y26470D01*
X127353Y25974D01*
X127157Y25484D01*
X126863Y25092D01*
X126471Y24701D01*
X126084Y24507D01*
X125595Y24409D01*
X125105Y24409D01*
X124621Y24506D01*
X124230Y24799D01*
X123835Y25095D01*
X123542Y25486D01*
X123347Y25876D01*
X123249Y26365D01*
X123249Y26955D01*
X123348Y27450D01*
X123447Y27946D01*
X123643Y28436D01*
X123932Y28821D01*
X124302Y29006D01*
X124772Y28818D01*
X125156Y28435D01*
X125248Y28064D01*
X125057Y27584D01*
X124761Y27190D01*
X124761Y27168D01*
X124751Y27160D01*
X124751Y26660D01*
X124759Y26649D01*
X124754Y26642D01*
X124954Y26142D01*
X124985Y26123D01*
X124990Y26112D01*
X125490Y26012D01*
X125529Y26030D01*
X125539Y26030D01*
X125839Y26430D01*
X125839Y26437D01*
X125844Y26438D01*
X126044Y26838D01*
X126043Y26844D01*
X126047Y26846D01*
X126347Y27846D01*
X126346Y27848D01*
X126348Y27849D01*
X126347Y27850D01*
X126348Y27850D01*
X126446Y28339D01*
X126739Y28730D01*
X127031Y29119D01*
X127514Y29313D01*
X128005Y29411D01*
X128491Y29411D01*
X128982Y29214D01*
X129476Y29017D01*
X129865Y28725D01*
X130157Y28336D01*
X130353Y27845D01*
X130452Y27450D01*
X130550Y26861D01*
X130353Y25876D01*
X130157Y25483D01*
X129861Y24991D01*
X129276Y24405D01*
X128807Y24312D01*
X128435Y24498D01*
G37*
%LPD*%
%LPC*%
G36*
X154214Y24139D02*
X154214Y24139D01*
X153734Y24427D01*
X153453Y24801D01*
X153546Y25170D01*
X154141Y26063D01*
X154141Y26070D01*
X154146Y26072D01*
X154346Y26572D01*
X154340Y26591D01*
X154348Y26600D01*
X154248Y27100D01*
X154237Y27110D01*
X154239Y27120D01*
X153939Y27520D01*
X153908Y27529D01*
X153900Y27539D01*
X153500Y27539D01*
X153479Y27523D01*
X153465Y27525D01*
X153065Y27125D01*
X153062Y27105D01*
X153052Y27100D01*
X152853Y26104D01*
X152655Y25610D01*
X152458Y25216D01*
X152163Y24822D01*
X151775Y24434D01*
X151389Y24338D01*
X150895Y24239D01*
X150405Y24239D01*
X149921Y24336D01*
X149530Y24629D01*
X149130Y24929D01*
X149110Y24929D01*
X149106Y24935D01*
X149127Y24949D01*
X149134Y24967D01*
X149138Y24970D01*
X149136Y24973D01*
X149147Y25005D01*
X149136Y25009D01*
X149139Y25020D01*
X148845Y25412D01*
X148748Y25800D01*
X148649Y26394D01*
X148649Y26885D01*
X148748Y27380D01*
X148846Y27869D01*
X149139Y28260D01*
X149429Y28646D01*
X149792Y28737D01*
X150272Y28449D01*
X150651Y28165D01*
X150651Y27703D01*
X150157Y26814D01*
X150159Y26797D01*
X150151Y26790D01*
X150151Y26290D01*
X150164Y26272D01*
X150161Y26260D01*
X150461Y25860D01*
X150502Y25849D01*
X150510Y25842D01*
X151010Y25942D01*
X151026Y25960D01*
X151039Y25960D01*
X151339Y26360D01*
X151339Y26374D01*
X151348Y26377D01*
X151746Y27872D01*
X151942Y28264D01*
X152235Y28655D01*
X152626Y28948D01*
X153012Y29141D01*
X154095Y29141D01*
X154579Y29044D01*
X154970Y28751D01*
X155359Y28459D01*
X155554Y27972D01*
X155557Y27970D01*
X155556Y27968D01*
X155753Y27574D01*
X155851Y27082D01*
X155950Y26491D01*
X155852Y26000D01*
X155754Y25511D01*
X155461Y25120D01*
X155163Y24722D01*
X154580Y24139D01*
X154214Y24139D01*
G37*
%LPD*%
G36*
X155026Y90093D02*
X155026Y90093D01*
X155039Y90106D01*
X155050Y90103D01*
X155450Y90403D01*
X155454Y90419D01*
X155459Y90423D01*
X155456Y90427D01*
X155457Y90429D01*
X155469Y90435D01*
X155569Y91135D01*
X155566Y91140D01*
X155569Y91142D01*
X155569Y93834D01*
X155760Y94407D01*
X156328Y94691D01*
X157009Y94594D01*
X157604Y94395D01*
X157635Y94405D01*
X157647Y94401D01*
X158247Y94801D01*
X158255Y94824D01*
X158267Y94828D01*
X158467Y95528D01*
X158466Y95532D01*
X158469Y95534D01*
X158569Y96134D01*
X158557Y96157D01*
X158561Y96169D01*
X158161Y96769D01*
X158134Y96779D01*
X158128Y96791D01*
X157528Y96891D01*
X157527Y96890D01*
X157527Y96891D01*
X156827Y96991D01*
X156819Y96986D01*
X156810Y96986D01*
X156805Y96983D01*
X156798Y96986D01*
X156198Y96686D01*
X156196Y96682D01*
X156193Y96683D01*
X155634Y96310D01*
X155461Y96569D01*
X155446Y96574D01*
X155445Y96584D01*
X154945Y96884D01*
X154930Y96883D01*
X154926Y96888D01*
X154923Y96888D01*
X154920Y96891D01*
X154020Y96891D01*
X154015Y96888D01*
X154011Y96888D01*
X154007Y96885D01*
X154002Y96888D01*
X153502Y96688D01*
X153490Y96668D01*
X153478Y96659D01*
X153473Y96658D01*
X153273Y96058D01*
X153277Y96047D01*
X153271Y96042D01*
X153271Y90642D01*
X153282Y90627D01*
X153278Y90617D01*
X153578Y90117D01*
X153606Y90106D01*
X153612Y90093D01*
X154212Y89993D01*
X154221Y89998D01*
X154226Y89993D01*
X155026Y90093D01*
G37*
G36*
X150072Y100253D02*
X150072Y100253D01*
X150085Y100266D01*
X150096Y100263D01*
X150496Y100563D01*
X150500Y100579D01*
X150505Y100583D01*
X150502Y100587D01*
X150503Y100589D01*
X150515Y100595D01*
X150615Y101295D01*
X150612Y101300D01*
X150615Y101302D01*
X150615Y103994D01*
X150806Y104567D01*
X151374Y104851D01*
X152055Y104754D01*
X152650Y104555D01*
X152684Y104567D01*
X152697Y104564D01*
X153197Y104964D01*
X153201Y104980D01*
X153211Y104983D01*
X153511Y105683D01*
X153508Y105696D01*
X153515Y105702D01*
X153515Y106302D01*
X153506Y106315D01*
X153510Y106324D01*
X153210Y106924D01*
X153180Y106939D01*
X153174Y106951D01*
X152574Y107051D01*
X152573Y107050D01*
X152573Y107051D01*
X151873Y107151D01*
X151865Y107146D01*
X151856Y107146D01*
X151851Y107143D01*
X151844Y107146D01*
X151244Y106846D01*
X151242Y106842D01*
X151239Y106843D01*
X150680Y106470D01*
X150507Y106729D01*
X150492Y106734D01*
X150491Y106744D01*
X149991Y107044D01*
X149976Y107043D01*
X149972Y107048D01*
X149969Y107048D01*
X149966Y107051D01*
X149066Y107051D01*
X149061Y107048D01*
X149057Y107048D01*
X149053Y107045D01*
X149048Y107048D01*
X148548Y106848D01*
X148536Y106828D01*
X148524Y106819D01*
X148519Y106818D01*
X148319Y106218D01*
X148323Y106207D01*
X148317Y106202D01*
X148317Y100802D01*
X148328Y100787D01*
X148324Y100777D01*
X148624Y100277D01*
X148652Y100266D01*
X148658Y100253D01*
X149258Y100153D01*
X149267Y100158D01*
X149272Y100153D01*
X150072Y100253D01*
G37*
%LPC*%
G36*
X98520Y30901D02*
X98520Y30901D01*
X98243Y31179D01*
X98049Y31760D01*
X98049Y32127D01*
X98426Y32410D01*
X98821Y32608D01*
X102220Y34107D01*
X102222Y34111D01*
X102225Y34110D01*
X102725Y34410D01*
X102728Y34417D01*
X102736Y34419D01*
X102734Y34430D01*
X102743Y34436D01*
X102738Y34442D01*
X102748Y34465D01*
X102726Y34474D01*
X102722Y34496D01*
X102522Y34596D01*
X102521Y34596D01*
X102521Y34597D01*
X98821Y36297D01*
X98819Y36296D01*
X98818Y36298D01*
X98331Y36493D01*
X98049Y36868D01*
X98049Y37337D01*
X98240Y37623D01*
X98525Y38003D01*
X98891Y38003D01*
X99380Y37807D01*
X104377Y35409D01*
X104862Y35117D01*
X105051Y34740D01*
X105051Y34261D01*
X104862Y33790D01*
X104382Y33598D01*
X104380Y33595D01*
X104378Y33596D01*
X99380Y31097D01*
X98891Y30901D01*
X98520Y30901D01*
G37*
%LPD*%
%LPC*%
G36*
X105032Y78675D02*
X105032Y78675D01*
X104445Y78969D01*
X103851Y79364D01*
X103169Y80046D01*
X103169Y81418D01*
X103366Y82007D01*
X103662Y82599D01*
X104054Y83089D01*
X104642Y83481D01*
X105228Y83677D01*
X105912Y83677D01*
X106498Y83481D01*
X107086Y83089D01*
X107478Y82599D01*
X107773Y82011D01*
X107871Y81422D01*
X107871Y80634D01*
X107674Y80045D01*
X107381Y79458D01*
X106893Y79068D01*
X106305Y78774D01*
X105617Y78675D01*
X105032Y78675D01*
G37*
%LPD*%
%LPC*%
G36*
X174179Y34918D02*
X174179Y34918D01*
X173995Y35286D01*
X173995Y41062D01*
X174179Y41430D01*
X174651Y41525D01*
X175116Y41525D01*
X175297Y41162D01*
X175297Y39074D01*
X175333Y39027D01*
X175340Y39032D01*
X175346Y39025D01*
X180434Y39025D01*
X180809Y38837D01*
X180997Y38462D01*
X180997Y37880D01*
X180906Y37516D01*
X180441Y37423D01*
X175346Y37423D01*
X175299Y37387D01*
X175304Y37380D01*
X175297Y37374D01*
X175297Y35286D01*
X175113Y34918D01*
X174646Y34824D01*
X174179Y34918D01*
G37*
%LPD*%
%LPC*%
G36*
X174462Y24023D02*
X174462Y24023D01*
X174091Y24302D01*
X173996Y24775D01*
X174092Y25350D01*
X174370Y25629D01*
X174851Y25725D01*
X180434Y25725D01*
X180812Y25536D01*
X180997Y25259D01*
X180997Y24586D01*
X180808Y24208D01*
X180531Y24023D01*
X174462Y24023D01*
G37*
%LPD*%
%LPC*%
G36*
X28258Y45504D02*
X28258Y45504D01*
X27744Y45592D01*
X27272Y45777D01*
X26835Y46054D01*
X26473Y46405D01*
X26191Y46838D01*
X25998Y47306D01*
X25907Y47818D01*
X25858Y48329D01*
X26038Y49352D01*
X26308Y49787D01*
X26646Y50214D01*
X26648Y50244D01*
X26656Y50272D01*
X26652Y50277D01*
X26652Y50280D01*
X26683Y50286D01*
X27447Y50796D01*
X27945Y50912D01*
X28461Y51002D01*
X28925Y51023D01*
X28971Y50605D01*
X28971Y49612D01*
X28605Y49611D01*
X28596Y49606D01*
X28581Y49606D01*
X28103Y49409D01*
X28097Y49399D01*
X28078Y49390D01*
X27753Y48986D01*
X27752Y48976D01*
X27745Y48971D01*
X27745Y48968D01*
X27742Y48964D01*
X27601Y48461D01*
X27603Y48453D01*
X27598Y48442D01*
X27610Y47918D01*
X27614Y47912D01*
X27613Y47900D01*
X27778Y47405D01*
X27786Y47399D01*
X27786Y47398D01*
X27787Y47398D01*
X27792Y47382D01*
X27892Y47273D01*
X27950Y47210D01*
X28122Y47022D01*
X28142Y47000D01*
X28153Y46997D01*
X28168Y46983D01*
X28658Y46820D01*
X28971Y46678D01*
X28971Y45683D01*
X28749Y45441D01*
X28258Y45504D01*
G37*
%LPD*%
%LPC*%
G36*
X145425Y78675D02*
X145425Y78675D01*
X144944Y78771D01*
X144661Y79055D01*
X144368Y79641D01*
X144269Y80432D01*
X144170Y81426D01*
X144269Y82417D01*
X144465Y83104D01*
X144755Y83491D01*
X145136Y83777D01*
X145611Y83777D01*
X146089Y83585D01*
X146376Y83203D01*
X146573Y82610D01*
X146622Y82577D01*
X146610Y82574D01*
X146571Y82529D01*
X146576Y82525D01*
X146571Y82520D01*
X146671Y81723D01*
X146671Y80729D01*
X146572Y79837D01*
X146376Y79249D01*
X146089Y78867D01*
X145611Y78675D01*
X145425Y78675D01*
G37*
%LPD*%
%LPC*%
G36*
X21670Y45497D02*
X21670Y45497D01*
X21638Y45535D01*
X21586Y45598D01*
X21463Y45746D01*
X21463Y50915D01*
X21448Y50938D01*
X21444Y50950D01*
X21531Y50963D01*
X21910Y50978D01*
X22943Y50978D01*
X23102Y50820D01*
X23106Y50819D01*
X23108Y50815D01*
X23159Y50803D01*
X23184Y50809D01*
X23181Y50802D01*
X23173Y50793D01*
X23175Y50788D01*
X23172Y50782D01*
X23172Y45497D01*
X21670Y45497D01*
G37*
%LPD*%
%LPC*%
G36*
X23920Y45497D02*
X23920Y45497D01*
X23670Y45703D01*
X23680Y50875D01*
X23664Y50900D01*
X23660Y50910D01*
X23742Y50927D01*
X24071Y50978D01*
X25107Y50978D01*
X25303Y50845D01*
X25308Y50845D01*
X25314Y50839D01*
X25389Y50807D01*
X25389Y50806D01*
X25369Y50762D01*
X25379Y45581D01*
X24951Y45497D01*
X23920Y45497D01*
G37*
%LPD*%
G36*
X128628Y32832D02*
X128628Y32832D01*
X128641Y32833D01*
X128841Y33133D01*
X128841Y33139D01*
X128844Y33142D01*
X128840Y33148D01*
X128840Y33153D01*
X128849Y33160D01*
X128849Y34160D01*
X128840Y34173D01*
X128844Y34182D01*
X128544Y34782D01*
X128538Y34785D01*
X128539Y34790D01*
X128239Y35190D01*
X128230Y35192D01*
X128230Y35199D01*
X127830Y35499D01*
X127814Y35499D01*
X127810Y35508D01*
X127310Y35608D01*
X127303Y35605D01*
X127300Y35609D01*
X126800Y35609D01*
X126794Y35605D01*
X126790Y35608D01*
X126290Y35508D01*
X126286Y35503D01*
X126282Y35506D01*
X125782Y35306D01*
X125772Y35290D01*
X125761Y35290D01*
X125461Y34890D01*
X125461Y34886D01*
X125458Y34885D01*
X125158Y34385D01*
X125159Y34375D01*
X125152Y34372D01*
X125052Y33972D01*
X125056Y33964D01*
X125051Y33960D01*
X125051Y32860D01*
X125087Y32813D01*
X125094Y32818D01*
X125100Y32811D01*
X128600Y32811D01*
X128628Y32832D01*
G37*
G36*
X78047Y41139D02*
X78047Y41139D01*
X78042Y41146D01*
X78049Y41152D01*
X78049Y42652D01*
X78040Y42665D01*
X78044Y42674D01*
X77944Y42874D01*
X77934Y42879D01*
X77935Y42887D01*
X77235Y43587D01*
X77221Y43589D01*
X77218Y43598D01*
X76718Y43798D01*
X76712Y43796D01*
X76710Y43800D01*
X76210Y43900D01*
X76203Y43897D01*
X76200Y43901D01*
X75700Y43901D01*
X75689Y43893D01*
X75682Y43898D01*
X75182Y43698D01*
X75177Y43690D01*
X75170Y43691D01*
X74770Y43391D01*
X74768Y43382D01*
X74761Y43382D01*
X74461Y42982D01*
X74461Y42966D01*
X74452Y42962D01*
X74252Y41962D01*
X74255Y41955D01*
X74251Y41952D01*
X74251Y41452D01*
X74263Y41436D01*
X74259Y41425D01*
X74459Y41125D01*
X74492Y41113D01*
X74500Y41103D01*
X78000Y41103D01*
X78047Y41139D01*
G37*
G36*
X8421Y46843D02*
X8421Y46843D01*
X8429Y46850D01*
X8447Y46853D01*
X8867Y47144D01*
X8872Y47154D01*
X8886Y47165D01*
X9139Y47613D01*
X9139Y47614D01*
X9140Y47615D01*
X9138Y47623D01*
X9146Y47635D01*
X9225Y48144D01*
X9222Y48151D01*
X9225Y48161D01*
X9165Y48670D01*
X9160Y48677D01*
X9160Y48689D01*
X8950Y49153D01*
X8942Y49159D01*
X8935Y49174D01*
X8558Y49514D01*
X8547Y49516D01*
X8532Y49528D01*
X8040Y49660D01*
X8030Y49657D01*
X8014Y49661D01*
X7509Y49580D01*
X7501Y49573D01*
X7483Y49569D01*
X7062Y49279D01*
X7058Y49269D01*
X7044Y49258D01*
X6790Y48811D01*
X6790Y48802D01*
X6787Y48798D01*
X6786Y48796D01*
X6786Y48795D01*
X6782Y48789D01*
X6704Y48280D01*
X6707Y48273D01*
X6703Y48263D01*
X6764Y47754D01*
X6769Y47747D01*
X6769Y47735D01*
X6980Y47271D01*
X6989Y47266D01*
X6995Y47250D01*
X7373Y46911D01*
X7384Y46910D01*
X7399Y46898D01*
X7891Y46765D01*
X7900Y46768D01*
X7917Y46763D01*
X8421Y46843D01*
G37*
%LPC*%
G36*
X114869Y81275D02*
X114869Y81275D01*
X114869Y83201D01*
X115236Y83477D01*
X116512Y83477D01*
X117088Y83285D01*
X117471Y82711D01*
X117471Y82040D01*
X117183Y81560D01*
X116804Y81275D01*
X114869Y81275D01*
G37*
%LPD*%
%LPC*%
G36*
X147037Y92391D02*
X147037Y92391D01*
X146559Y92774D01*
X146271Y93350D01*
X146367Y94022D01*
X146752Y94503D01*
X147332Y94793D01*
X147905Y94793D01*
X148479Y94410D01*
X148670Y93837D01*
X148573Y93062D01*
X148191Y92584D01*
X147612Y92391D01*
X147037Y92391D01*
G37*
%LPD*%
%LPC*%
G36*
X127383Y102551D02*
X127383Y102551D01*
X126905Y102934D01*
X126617Y103510D01*
X126713Y104182D01*
X127098Y104663D01*
X127678Y104953D01*
X128251Y104953D01*
X128825Y104570D01*
X129016Y103997D01*
X128919Y103222D01*
X128537Y102744D01*
X127958Y102551D01*
X127383Y102551D01*
G37*
%LPD*%
%LPC*%
G36*
X142083Y102551D02*
X142083Y102551D01*
X141605Y102934D01*
X141317Y103510D01*
X141413Y104182D01*
X141798Y104663D01*
X142378Y104953D01*
X142951Y104953D01*
X143525Y104570D01*
X143716Y103997D01*
X143619Y103222D01*
X143237Y102744D01*
X142658Y102551D01*
X142083Y102551D01*
G37*
%LPD*%
%LPC*%
G36*
X163040Y78575D02*
X163040Y78575D01*
X162566Y79050D01*
X162472Y79615D01*
X162852Y80185D01*
X163428Y80377D01*
X164100Y80377D01*
X164574Y79902D01*
X164669Y79334D01*
X164386Y78767D01*
X163713Y78575D01*
X163040Y78575D01*
G37*
%LPD*%
%LPC*%
G36*
X63096Y109249D02*
X63096Y109249D01*
X62919Y109515D01*
X62919Y110491D01*
X63109Y110964D01*
X63482Y111151D01*
X63958Y111151D01*
X64331Y110964D01*
X64521Y110491D01*
X64521Y109249D01*
X63096Y109249D01*
G37*
%LPD*%
%LPC*%
G36*
X63090Y91249D02*
X63090Y91249D01*
X62919Y91420D01*
X62919Y92488D01*
X63109Y92868D01*
X63486Y93151D01*
X63958Y93151D01*
X64336Y92962D01*
X64521Y92685D01*
X64521Y91249D01*
X63090Y91249D01*
G37*
%LPD*%
%LPC*%
G36*
X163050Y82771D02*
X163050Y82771D01*
X162776Y83228D01*
X163055Y83786D01*
X163616Y83973D01*
X164174Y83694D01*
X164267Y82954D01*
X163712Y82677D01*
X163050Y82771D01*
G37*
%LPD*%
%LPC*%
G36*
X121246Y94091D02*
X121246Y94091D01*
X121086Y94332D01*
X121644Y94798D01*
X122224Y94991D01*
X122783Y94898D01*
X122962Y94360D01*
X122604Y94091D01*
X121246Y94091D01*
G37*
%LPD*%
G36*
X127494Y41518D02*
X127494Y41518D01*
X127538Y41529D01*
X127533Y41548D01*
X127549Y41560D01*
X127549Y42560D01*
X127524Y42593D01*
X127522Y42604D01*
X127322Y42704D01*
X127292Y42698D01*
X127280Y42705D01*
X126380Y42305D01*
X126351Y42253D01*
X126364Y42246D01*
X126359Y42233D01*
X126559Y41933D01*
X126577Y41926D01*
X126580Y41915D01*
X127480Y41515D01*
X127484Y41516D01*
X127487Y41513D01*
X127494Y41518D01*
G37*
%LPC*%
G36*
X146625Y82581D02*
X146625Y82581D01*
X146628Y82578D01*
X146622Y82577D01*
X146625Y82581D01*
G37*
%LPD*%
%LPC*%
G36*
X117858Y79236D02*
X117858Y79236D01*
X117858Y79236D01*
G37*
%LPD*%
D10*
X249200Y73900D02*
X249200Y103900D01*
X223200Y58900D02*
X206700Y58900D01*
X206700Y111400D02*
X206700Y118900D01*
X223200Y118900D01*
X206700Y66400D02*
X206700Y58900D01*
X199184Y63900D02*
X199186Y63963D01*
X199192Y64026D01*
X199202Y64089D01*
X199215Y64150D01*
X199233Y64211D01*
X199254Y64270D01*
X199279Y64329D01*
X199307Y64385D01*
X199339Y64440D01*
X199374Y64492D01*
X199413Y64542D01*
X199454Y64590D01*
X199499Y64635D01*
X199546Y64677D01*
X199595Y64716D01*
X199647Y64752D01*
X199701Y64785D01*
X199757Y64814D01*
X199815Y64840D01*
X199874Y64862D01*
X199934Y64881D01*
X199996Y64895D01*
X200058Y64906D01*
X200121Y64913D01*
X200184Y64916D01*
X200247Y64915D01*
X200310Y64910D01*
X200373Y64901D01*
X200435Y64888D01*
X200496Y64872D01*
X200556Y64852D01*
X200614Y64828D01*
X200671Y64800D01*
X200726Y64769D01*
X200779Y64735D01*
X200830Y64697D01*
X200878Y64656D01*
X200924Y64613D01*
X200967Y64566D01*
X201007Y64517D01*
X201044Y64466D01*
X201077Y64413D01*
X201107Y64357D01*
X201134Y64300D01*
X201157Y64241D01*
X201176Y64181D01*
X201192Y64119D01*
X201204Y64057D01*
X201212Y63995D01*
X201216Y63932D01*
X201216Y63868D01*
X201212Y63805D01*
X201204Y63743D01*
X201192Y63681D01*
X201176Y63619D01*
X201157Y63559D01*
X201134Y63500D01*
X201107Y63443D01*
X201077Y63387D01*
X201044Y63334D01*
X201007Y63283D01*
X200967Y63234D01*
X200924Y63187D01*
X200878Y63144D01*
X200830Y63103D01*
X200779Y63065D01*
X200726Y63031D01*
X200671Y63000D01*
X200614Y62972D01*
X200556Y62948D01*
X200496Y62928D01*
X200435Y62912D01*
X200373Y62899D01*
X200310Y62890D01*
X200247Y62885D01*
X200184Y62884D01*
X200121Y62887D01*
X200058Y62894D01*
X199996Y62905D01*
X199934Y62919D01*
X199874Y62938D01*
X199815Y62960D01*
X199757Y62986D01*
X199701Y63015D01*
X199647Y63048D01*
X199595Y63084D01*
X199546Y63123D01*
X199499Y63165D01*
X199454Y63210D01*
X199413Y63258D01*
X199374Y63308D01*
X199339Y63360D01*
X199307Y63415D01*
X199279Y63471D01*
X199254Y63530D01*
X199233Y63589D01*
X199215Y63650D01*
X199202Y63711D01*
X199192Y63774D01*
X199186Y63837D01*
X199184Y63900D01*
X4800Y73900D02*
X4800Y103900D01*
X30800Y118900D02*
X47300Y118900D01*
X47300Y66400D02*
X47300Y58900D01*
X30800Y58900D01*
X47300Y111400D02*
X47300Y118900D01*
X52784Y113900D02*
X52786Y113963D01*
X52792Y114026D01*
X52802Y114089D01*
X52815Y114150D01*
X52833Y114211D01*
X52854Y114270D01*
X52879Y114329D01*
X52907Y114385D01*
X52939Y114440D01*
X52974Y114492D01*
X53013Y114542D01*
X53054Y114590D01*
X53099Y114635D01*
X53146Y114677D01*
X53195Y114716D01*
X53247Y114752D01*
X53301Y114785D01*
X53357Y114814D01*
X53415Y114840D01*
X53474Y114862D01*
X53534Y114881D01*
X53596Y114895D01*
X53658Y114906D01*
X53721Y114913D01*
X53784Y114916D01*
X53847Y114915D01*
X53910Y114910D01*
X53973Y114901D01*
X54035Y114888D01*
X54096Y114872D01*
X54156Y114852D01*
X54214Y114828D01*
X54271Y114800D01*
X54326Y114769D01*
X54379Y114735D01*
X54430Y114697D01*
X54478Y114656D01*
X54524Y114613D01*
X54567Y114566D01*
X54607Y114517D01*
X54644Y114466D01*
X54677Y114413D01*
X54707Y114357D01*
X54734Y114300D01*
X54757Y114241D01*
X54776Y114181D01*
X54792Y114119D01*
X54804Y114057D01*
X54812Y113995D01*
X54816Y113932D01*
X54816Y113868D01*
X54812Y113805D01*
X54804Y113743D01*
X54792Y113681D01*
X54776Y113619D01*
X54757Y113559D01*
X54734Y113500D01*
X54707Y113443D01*
X54677Y113387D01*
X54644Y113334D01*
X54607Y113283D01*
X54567Y113234D01*
X54524Y113187D01*
X54478Y113144D01*
X54430Y113103D01*
X54379Y113065D01*
X54326Y113031D01*
X54271Y113000D01*
X54214Y112972D01*
X54156Y112948D01*
X54096Y112928D01*
X54035Y112912D01*
X53973Y112899D01*
X53910Y112890D01*
X53847Y112885D01*
X53784Y112884D01*
X53721Y112887D01*
X53658Y112894D01*
X53596Y112905D01*
X53534Y112919D01*
X53474Y112938D01*
X53415Y112960D01*
X53357Y112986D01*
X53301Y113015D01*
X53247Y113048D01*
X53195Y113084D01*
X53146Y113123D01*
X53099Y113165D01*
X53054Y113210D01*
X53013Y113258D01*
X52974Y113308D01*
X52939Y113360D01*
X52907Y113415D01*
X52879Y113471D01*
X52854Y113530D01*
X52833Y113589D01*
X52815Y113650D01*
X52802Y113711D01*
X52792Y113774D01*
X52786Y113837D01*
X52784Y113900D01*
X70168Y85725D02*
X79693Y85725D01*
M02*
