G04 EAGLE Gerber RS-274X export*
G75*
%MOMM*%
%FSLAX34Y34*%
%LPD*%
%INSoldermask Bottom*%
%IPPOS*%
%AMOC8*
5,1,8,0,0,1.08239X$1,22.5*%
G01*
%ADD10C,0.762000*%
%ADD11C,3.175000*%
%ADD12C,0.228344*%
%ADD13C,0.230578*%
%ADD14C,0.228600*%
%ADD15C,2.006600*%

G36*
X60898Y110375D02*
X60898Y110375D01*
X60964Y110377D01*
X61007Y110395D01*
X61054Y110403D01*
X61111Y110437D01*
X61171Y110462D01*
X61206Y110493D01*
X61247Y110518D01*
X61289Y110569D01*
X61337Y110613D01*
X61359Y110655D01*
X61388Y110692D01*
X61409Y110754D01*
X61440Y110813D01*
X61448Y110867D01*
X61460Y110904D01*
X61459Y110944D01*
X61467Y110998D01*
X61467Y113538D01*
X61456Y113603D01*
X61454Y113669D01*
X61436Y113712D01*
X61428Y113759D01*
X61394Y113816D01*
X61369Y113876D01*
X61338Y113911D01*
X61313Y113952D01*
X61262Y113994D01*
X61218Y114042D01*
X61176Y114064D01*
X61139Y114093D01*
X61077Y114114D01*
X61018Y114145D01*
X60964Y114153D01*
X60927Y114165D01*
X60887Y114164D01*
X60833Y114172D01*
X57023Y114172D01*
X56958Y114161D01*
X56892Y114159D01*
X56849Y114141D01*
X56802Y114133D01*
X56745Y114099D01*
X56685Y114074D01*
X56650Y114043D01*
X56609Y114018D01*
X56568Y113967D01*
X56519Y113923D01*
X56497Y113881D01*
X56468Y113844D01*
X56447Y113782D01*
X56416Y113723D01*
X56408Y113669D01*
X56396Y113632D01*
X56396Y113629D01*
X56397Y113592D01*
X56389Y113538D01*
X56389Y110998D01*
X56400Y110933D01*
X56402Y110867D01*
X56420Y110824D01*
X56428Y110777D01*
X56462Y110720D01*
X56487Y110660D01*
X56518Y110625D01*
X56543Y110584D01*
X56594Y110543D01*
X56638Y110494D01*
X56680Y110472D01*
X56717Y110443D01*
X56779Y110422D01*
X56838Y110391D01*
X56892Y110383D01*
X56929Y110371D01*
X56969Y110372D01*
X57023Y110364D01*
X60833Y110364D01*
X60898Y110375D01*
G37*
G36*
X210250Y74307D02*
X210250Y74307D01*
X210316Y74309D01*
X210359Y74327D01*
X210406Y74335D01*
X210463Y74369D01*
X210523Y74394D01*
X210558Y74425D01*
X210599Y74450D01*
X210641Y74501D01*
X210689Y74545D01*
X210711Y74587D01*
X210740Y74624D01*
X210761Y74686D01*
X210792Y74745D01*
X210800Y74799D01*
X210812Y74836D01*
X210811Y74876D01*
X210819Y74930D01*
X210819Y77470D01*
X210808Y77535D01*
X210806Y77601D01*
X210788Y77644D01*
X210780Y77691D01*
X210746Y77748D01*
X210721Y77808D01*
X210690Y77843D01*
X210665Y77884D01*
X210614Y77926D01*
X210570Y77974D01*
X210528Y77996D01*
X210491Y78025D01*
X210429Y78046D01*
X210370Y78077D01*
X210316Y78085D01*
X210279Y78097D01*
X210239Y78096D01*
X210185Y78104D01*
X206375Y78104D01*
X206310Y78093D01*
X206244Y78091D01*
X206201Y78073D01*
X206154Y78065D01*
X206097Y78031D01*
X206037Y78006D01*
X206002Y77975D01*
X205961Y77950D01*
X205920Y77899D01*
X205871Y77855D01*
X205849Y77813D01*
X205820Y77776D01*
X205799Y77714D01*
X205768Y77655D01*
X205760Y77601D01*
X205748Y77564D01*
X205748Y77561D01*
X205749Y77524D01*
X205741Y77470D01*
X205741Y74930D01*
X205752Y74865D01*
X205754Y74799D01*
X205772Y74756D01*
X205780Y74709D01*
X205814Y74652D01*
X205839Y74592D01*
X205870Y74557D01*
X205895Y74516D01*
X205946Y74475D01*
X205990Y74426D01*
X206032Y74404D01*
X206069Y74375D01*
X206131Y74354D01*
X206190Y74323D01*
X206244Y74315D01*
X206281Y74303D01*
X206321Y74304D01*
X206375Y74296D01*
X210185Y74296D01*
X210250Y74307D01*
G37*
G36*
X200090Y74307D02*
X200090Y74307D01*
X200156Y74309D01*
X200199Y74327D01*
X200246Y74335D01*
X200303Y74369D01*
X200363Y74394D01*
X200398Y74425D01*
X200439Y74450D01*
X200481Y74501D01*
X200529Y74545D01*
X200551Y74587D01*
X200580Y74624D01*
X200601Y74686D01*
X200632Y74745D01*
X200640Y74799D01*
X200652Y74836D01*
X200651Y74876D01*
X200659Y74930D01*
X200659Y77470D01*
X200648Y77535D01*
X200646Y77601D01*
X200628Y77644D01*
X200620Y77691D01*
X200586Y77748D01*
X200561Y77808D01*
X200530Y77843D01*
X200505Y77884D01*
X200454Y77926D01*
X200410Y77974D01*
X200368Y77996D01*
X200331Y78025D01*
X200269Y78046D01*
X200210Y78077D01*
X200156Y78085D01*
X200119Y78097D01*
X200079Y78096D01*
X200025Y78104D01*
X196215Y78104D01*
X196150Y78093D01*
X196084Y78091D01*
X196041Y78073D01*
X195994Y78065D01*
X195937Y78031D01*
X195877Y78006D01*
X195842Y77975D01*
X195801Y77950D01*
X195760Y77899D01*
X195711Y77855D01*
X195689Y77813D01*
X195660Y77776D01*
X195639Y77714D01*
X195608Y77655D01*
X195600Y77601D01*
X195588Y77564D01*
X195588Y77561D01*
X195589Y77524D01*
X195581Y77470D01*
X195581Y74930D01*
X195592Y74865D01*
X195594Y74799D01*
X195612Y74756D01*
X195620Y74709D01*
X195654Y74652D01*
X195679Y74592D01*
X195710Y74557D01*
X195735Y74516D01*
X195786Y74475D01*
X195830Y74426D01*
X195872Y74404D01*
X195909Y74375D01*
X195971Y74354D01*
X196030Y74323D01*
X196084Y74315D01*
X196121Y74303D01*
X196161Y74304D01*
X196215Y74296D01*
X200025Y74296D01*
X200090Y74307D01*
G37*
G36*
X60898Y45605D02*
X60898Y45605D01*
X60964Y45607D01*
X61007Y45625D01*
X61054Y45633D01*
X61111Y45667D01*
X61171Y45692D01*
X61206Y45723D01*
X61247Y45748D01*
X61289Y45799D01*
X61337Y45843D01*
X61359Y45885D01*
X61388Y45922D01*
X61409Y45984D01*
X61440Y46043D01*
X61448Y46097D01*
X61460Y46134D01*
X61459Y46174D01*
X61467Y46228D01*
X61467Y48768D01*
X61456Y48833D01*
X61454Y48899D01*
X61436Y48942D01*
X61428Y48989D01*
X61394Y49046D01*
X61369Y49106D01*
X61338Y49141D01*
X61313Y49182D01*
X61262Y49224D01*
X61218Y49272D01*
X61176Y49294D01*
X61139Y49323D01*
X61077Y49344D01*
X61018Y49375D01*
X60964Y49383D01*
X60927Y49395D01*
X60887Y49394D01*
X60833Y49402D01*
X57023Y49402D01*
X56958Y49391D01*
X56892Y49389D01*
X56849Y49371D01*
X56802Y49363D01*
X56745Y49329D01*
X56685Y49304D01*
X56650Y49273D01*
X56609Y49248D01*
X56568Y49197D01*
X56519Y49153D01*
X56497Y49111D01*
X56468Y49074D01*
X56447Y49012D01*
X56416Y48953D01*
X56408Y48899D01*
X56396Y48862D01*
X56396Y48859D01*
X56397Y48822D01*
X56389Y48768D01*
X56389Y46228D01*
X56400Y46163D01*
X56402Y46097D01*
X56420Y46054D01*
X56428Y46007D01*
X56462Y45950D01*
X56487Y45890D01*
X56518Y45855D01*
X56543Y45814D01*
X56594Y45773D01*
X56638Y45724D01*
X56680Y45702D01*
X56717Y45673D01*
X56779Y45652D01*
X56838Y45621D01*
X56892Y45613D01*
X56929Y45601D01*
X56969Y45602D01*
X57023Y45594D01*
X60833Y45594D01*
X60898Y45605D01*
G37*
D10*
X200660Y120650D03*
X6350Y7620D03*
D11*
X228600Y25400D03*
X25400Y25400D03*
D12*
X210818Y82044D02*
X216410Y82044D01*
X216410Y70356D01*
X210818Y70356D01*
X210818Y82044D01*
X210818Y72525D02*
X216410Y72525D01*
X216410Y74694D02*
X210818Y74694D01*
X210818Y76863D02*
X216410Y76863D01*
X216410Y79032D02*
X210818Y79032D01*
X210818Y81201D02*
X216410Y81201D01*
X205996Y82044D02*
X200404Y82044D01*
X205996Y82044D02*
X205996Y70356D01*
X200404Y70356D01*
X200404Y82044D01*
X200404Y72525D02*
X205996Y72525D01*
X205996Y74694D02*
X200404Y74694D01*
X200404Y76863D02*
X205996Y76863D01*
X205996Y79032D02*
X200404Y79032D01*
X200404Y81201D02*
X205996Y81201D01*
X195582Y82044D02*
X189990Y82044D01*
X195582Y82044D02*
X195582Y70356D01*
X189990Y70356D01*
X189990Y82044D01*
X189990Y72525D02*
X195582Y72525D01*
X195582Y74694D02*
X189990Y74694D01*
X189990Y76863D02*
X195582Y76863D01*
X195582Y79032D02*
X189990Y79032D01*
X189990Y81201D02*
X195582Y81201D01*
X56517Y106424D02*
X50925Y106424D01*
X50925Y118112D01*
X56517Y118112D01*
X56517Y106424D01*
X56517Y108593D02*
X50925Y108593D01*
X50925Y110762D02*
X56517Y110762D01*
X56517Y112931D02*
X50925Y112931D01*
X50925Y115100D02*
X56517Y115100D01*
X56517Y117269D02*
X50925Y117269D01*
X61339Y106424D02*
X66931Y106424D01*
X61339Y106424D02*
X61339Y118112D01*
X66931Y118112D01*
X66931Y106424D01*
X66931Y108593D02*
X61339Y108593D01*
X61339Y110762D02*
X66931Y110762D01*
X66931Y112931D02*
X61339Y112931D01*
X61339Y115100D02*
X66931Y115100D01*
X66931Y117269D02*
X61339Y117269D01*
D13*
X115028Y54898D02*
X121192Y54898D01*
X115028Y54898D02*
X115028Y56862D01*
X121192Y56862D01*
X121192Y54898D01*
X121192Y59898D02*
X115028Y59898D01*
X115028Y61862D01*
X121192Y61862D01*
X121192Y59898D01*
X121192Y64898D02*
X115028Y64898D01*
X115028Y66862D01*
X121192Y66862D01*
X121192Y64898D01*
X121192Y69898D02*
X115028Y69898D01*
X115028Y71862D01*
X121192Y71862D01*
X121192Y69898D01*
X132228Y69898D02*
X138392Y69898D01*
X132228Y69898D02*
X132228Y71862D01*
X138392Y71862D01*
X138392Y69898D01*
X138392Y64898D02*
X132228Y64898D01*
X132228Y66862D01*
X138392Y66862D01*
X138392Y64898D01*
X138392Y59898D02*
X132228Y59898D01*
X132228Y61862D01*
X138392Y61862D01*
X138392Y59898D01*
X138392Y54898D02*
X132228Y54898D01*
X132228Y56862D01*
X138392Y56862D01*
X138392Y54898D01*
D14*
X65659Y75438D02*
X60325Y75438D01*
X65659Y75438D02*
X65659Y63754D01*
X60325Y63754D01*
X60325Y75438D01*
X60325Y65926D02*
X65659Y65926D01*
X65659Y68098D02*
X60325Y68098D01*
X60325Y70270D02*
X65659Y70270D01*
X65659Y72442D02*
X60325Y72442D01*
X60325Y74614D02*
X65659Y74614D01*
X57531Y75438D02*
X52197Y75438D01*
X57531Y75438D02*
X57531Y63754D01*
X52197Y63754D01*
X52197Y75438D01*
X52197Y65926D02*
X57531Y65926D01*
X57531Y68098D02*
X52197Y68098D01*
X52197Y70270D02*
X57531Y70270D01*
X57531Y72442D02*
X52197Y72442D01*
X52197Y74614D02*
X57531Y74614D01*
D15*
X76200Y12700D03*
X101600Y12700D03*
X127000Y12700D03*
X152400Y12700D03*
X177800Y12700D03*
D14*
X57531Y85598D02*
X52197Y85598D01*
X52197Y97282D01*
X57531Y97282D01*
X57531Y85598D01*
X57531Y87770D02*
X52197Y87770D01*
X52197Y89942D02*
X57531Y89942D01*
X57531Y92114D02*
X52197Y92114D01*
X52197Y94286D02*
X57531Y94286D01*
X57531Y96458D02*
X52197Y96458D01*
X60325Y85598D02*
X65659Y85598D01*
X60325Y85598D02*
X60325Y97282D01*
X65659Y97282D01*
X65659Y85598D01*
X65659Y87770D02*
X60325Y87770D01*
X60325Y89942D02*
X65659Y89942D01*
X65659Y92114D02*
X60325Y92114D01*
X60325Y94286D02*
X65659Y94286D01*
X65659Y96458D02*
X60325Y96458D01*
D12*
X61339Y53342D02*
X66931Y53342D01*
X66931Y41654D01*
X61339Y41654D01*
X61339Y53342D01*
X61339Y43823D02*
X66931Y43823D01*
X66931Y45992D02*
X61339Y45992D01*
X61339Y48161D02*
X66931Y48161D01*
X66931Y50330D02*
X61339Y50330D01*
X61339Y52499D02*
X66931Y52499D01*
X56517Y53342D02*
X50925Y53342D01*
X56517Y53342D02*
X56517Y41654D01*
X50925Y41654D01*
X50925Y53342D01*
X50925Y43823D02*
X56517Y43823D01*
X56517Y45992D02*
X50925Y45992D01*
X50925Y48161D02*
X56517Y48161D01*
X56517Y50330D02*
X50925Y50330D01*
X50925Y52499D02*
X56517Y52499D01*
M02*
