M48
;GenerationSoftware,Autodesk,EAGLE,9.6.2*%
;CreationDate,2023-07-21T23:17:00Z*%
FMAT,2
ICI,OFF
METRIC,TZ,000.000
T3C0.305
T2C1.016
T1C3.048
%
G90
M71
T1
X2540Y28448
X28448Y54356
X2540Y22860
X2540Y2540
X22860Y2540
X22860Y22860
X28448Y22860
X28448Y2540
X48768Y2540
X48768Y22860
X54356Y22860
X54356Y2540
X74676Y2540
X74676Y22860
X80264Y22860
X80264Y2540
X100584Y2540
X100584Y22860
X106172Y22860
X106172Y2540
X126492Y2540
X126492Y22860
X132080Y22860
X132080Y2540
X152400Y2540
X152400Y22860
X2540Y48768
X28448Y74676
X22860Y28448
X22860Y48768
X28448Y48768
X28448Y28448
X48768Y28448
X48768Y48768
X54356Y48768
X54356Y28448
X74676Y28448
X74676Y48768
X80264Y48768
X80264Y28448
X100584Y28448
X100584Y48768
X106172Y48768
X106172Y28448
X126492Y28448
X126492Y48768
X132080Y48768
X132080Y28448
X152400Y28448
X152400Y48768
X2540Y74676
X2540Y54356
X22860Y54356
X22860Y74676
X152400Y100584
X48768Y54356
X48768Y74676
X54356Y74676
X54356Y54356
X74676Y54356
X74676Y74676
X80264Y74676
X80264Y54356
X100584Y54356
X100584Y74676
X106172Y74676
X106172Y54356
X126492Y54356
X126492Y74676
X132080Y74676
X132080Y54356
X152400Y54356
X152400Y74676
X2540Y100584
X2540Y80264
X22860Y80264
X22860Y100584
X28448Y100584
X28448Y80264
X48768Y80264
X48768Y100584
X54356Y100584
X54356Y80264
X74676Y80264
X74676Y100584
X80264Y100584
X80264Y80264
X100584Y80264
X100584Y100584
X106172Y100584
X106172Y80264
X126492Y80264
X126492Y100584
X132080Y100584
X132080Y80264
X152400Y80264
T2
X147320Y78994
X7620Y1270
X10160Y1270
X12700Y1270
X15240Y1270
X17780Y1270
X33528Y1270
X36068Y1270
X38608Y1270
X41148Y1270
X43688Y1270
X59436Y1270
X61976Y1270
X64516Y1270
X67056Y1270
X69596Y1270
X85344Y1270
X87884Y1270
X90424Y1270
X92964Y1270
X95504Y1270
X111252Y1270
X113792Y1270
X116332Y1270
X118872Y1270
X121412Y1270
X137160Y1270
X139700Y1270
X142240Y1270
X144780Y1270
X147320Y1270
X7620Y27178
X10160Y27178
X12700Y27178
X15240Y27178
X17780Y27178
X33528Y27178
X36068Y27178
X38608Y27178
X41148Y27178
X43688Y27178
X59436Y27178
X61976Y27178
X64516Y27178
X67056Y27178
X69596Y27178
X85344Y27178
X87884Y27178
X90424Y27178
X92964Y27178
X95504Y27178
X111252Y27178
X113792Y27178
X116332Y27178
X118872Y27178
X121412Y27178
X137160Y27178
X139700Y27178
X142240Y27178
X144780Y27178
X147320Y27178
X7620Y53086
X10160Y53086
X12700Y53086
X15240Y53086
X17780Y53086
X33528Y53086
X36068Y53086
X38608Y53086
X41148Y53086
X43688Y53086
X59436Y53086
X61976Y53086
X64516Y53086
X67056Y53086
X69596Y53086
X85344Y53086
X87884Y53086
X90424Y53086
X92964Y53086
X95504Y53086
X111252Y53086
X113792Y53086
X116332Y53086
X118872Y53086
X121412Y53086
X137160Y53086
X139700Y53086
X142240Y53086
X144780Y53086
X147320Y53086
X7620Y78994
X10160Y78994
X12700Y78994
X15240Y78994
X17780Y78994
X33528Y78994
X36068Y78994
X38608Y78994
X41148Y78994
X43688Y78994
X59436Y78994
X61976Y78994
X64516Y78994
X67056Y78994
X69596Y78994
X85344Y78994
X87884Y78994
X90424Y78994
X92964Y78994
X95504Y78994
X111252Y78994
X113792Y78994
X116332Y78994
X118872Y78994
X121412Y78994
X137160Y78994
X139700Y78994
X142240Y78994
X144780Y78994
T3
X115062Y9195
X113752Y14692
X125552Y12370
X125462Y18833
X121818Y10490
X117881Y11074
X128374Y19962
X114596Y12708
X111074Y10160
X139675Y11379
X148488Y13360
X141402Y14427
X143510Y10160
X130810Y20320
X130810Y17780
X131242Y12649
X130810Y7620
X130810Y5080
X135890Y24130
X142240Y24130
X148590Y24130
X153010Y12725
X153670Y7620
X153670Y5080
X153670Y20320
X135839Y10516
X151028Y11176
X134112Y10236
X149962Y16027
X133350Y13970
X136525Y14478
X140767Y10084
X140741Y7417
X141097Y3378
X138811Y6426
X143510Y3378
X149860Y1270
X148361Y10058
X138659Y14986
X138151Y12548
X137643Y14783
X142291Y12954
X142291Y10287
X135915Y13208
X148590Y12192
X140970Y9195
X139660Y14692
X151460Y12370
X151370Y18833
X147726Y10490
X143789Y11074
X154282Y19962
X140504Y12708
X136982Y10160
X10135Y37287
X18948Y39268
X11862Y40335
X13970Y36068
X1270Y46228
X1270Y43688
X1702Y38557
X1270Y33528
X1270Y30988
X6350Y50038
X12700Y50038
X19050Y50038
X23470Y38633
X24130Y33528
X24130Y30988
X24130Y46228
X6299Y36424
X21488Y37084
X4572Y36144
X20422Y41935
X3810Y39878
X6985Y40386
X11227Y35992
X11201Y33325
X11557Y29286
X9271Y32334
X13970Y29286
X20320Y27178
X18821Y35966
X9119Y40894
X8611Y38456
X8103Y40691
X12751Y38862
X12751Y36195
X6375Y39116
X19050Y38100
X11430Y35103
X10120Y40600
X21920Y38278
X21830Y44741
X18186Y36398
X14249Y36982
X24742Y45870
X10964Y38616
X7442Y36068
X36043Y37287
X44856Y39268
X37770Y40335
X39878Y36068
X27178Y46228
X27178Y43688
X27610Y38557
X27178Y33528
X27178Y30988
X32258Y50038
X38608Y50038
X44958Y50038
X49378Y38633
X50038Y33528
X50038Y30988
X50038Y46228
X32207Y36424
X47396Y37084
X30480Y36144
X46330Y41935
X29718Y39878
X32893Y40386
X37135Y35992
X37109Y33325
X37465Y29286
X35179Y32334
X39878Y29286
X46228Y27178
X44729Y35966
X35027Y40894
X34519Y38456
X34011Y40691
X38659Y38862
X38659Y36195
X32283Y39116
X44958Y38100
X37338Y35103
X36028Y40600
X47828Y38278
X47738Y44741
X44094Y36398
X40157Y36982
X50650Y45870
X36872Y38616
X33350Y36068
X61951Y37287
X70764Y39268
X63678Y40335
X65786Y36068
X53086Y46228
X53086Y43688
X53518Y38557
X53086Y33528
X53086Y30988
X58166Y50038
X64516Y50038
X70866Y50038
X75286Y38633
X75946Y33528
X75946Y30988
X75946Y46228
X58115Y36424
X73304Y37084
X56388Y36144
X72238Y41935
X55626Y39878
X58801Y40386
X63043Y35992
X63017Y33325
X63373Y29286
X61087Y32334
X65786Y29286
X72136Y27178
X70637Y35966
X60935Y40894
X60427Y38456
X59919Y40691
X64567Y38862
X64567Y36195
X58191Y39116
X70866Y38100
X63246Y35103
X61936Y40600
X73736Y38278
X73646Y44741
X70002Y36398
X66065Y36982
X76558Y45870
X62780Y38616
X59258Y36068
X87859Y37287
X96672Y39268
X89586Y40335
X91694Y36068
X78994Y46228
X78994Y43688
X79426Y38557
X78994Y33528
X78994Y30988
X84074Y50038
X90424Y50038
X96774Y50038
X101194Y38633
X101854Y33528
X101854Y30988
X101854Y46228
X84023Y36424
X99212Y37084
X82296Y36144
X98146Y41935
X81534Y39878
X84709Y40386
X88951Y35992
X88925Y33325
X89281Y29286
X86995Y32334
X91694Y29286
X98044Y27178
X96545Y35966
X86843Y40894
X86335Y38456
X85827Y40691
X90475Y38862
X90475Y36195
X84099Y39116
X96774Y38100
X89154Y35103
X87844Y40600
X99644Y38278
X99554Y44741
X95910Y36398
X91973Y36982
X102466Y45870
X88688Y38616
X85166Y36068
X113767Y37287
X122580Y39268
X115494Y40335
X117602Y36068
X104902Y46228
X104902Y43688
X105334Y38557
X104902Y33528
X104902Y30988
X109982Y50038
X116332Y50038
X122682Y50038
X127102Y38633
X127762Y33528
X127762Y30988
X127762Y46228
X109931Y36424
X125120Y37084
X108204Y36144
X124054Y41935
X107442Y39878
X110617Y40386
X114859Y35992
X114833Y33325
X115189Y29286
X112903Y32334
X117602Y29286
X123952Y27178
X122453Y35966
X112751Y40894
X112243Y38456
X111735Y40691
X116383Y38862
X116383Y36195
X110007Y39116
X122682Y38100
X115062Y35103
X113752Y40600
X125552Y38278
X125462Y44741
X121818Y36398
X117881Y36982
X128374Y45870
X114596Y38616
X111074Y36068
X139675Y37287
X148488Y39268
X141402Y40335
X143510Y36068
X130810Y46228
X130810Y43688
X131242Y38557
X130810Y33528
X130810Y30988
X135890Y50038
X142240Y50038
X148590Y50038
X153010Y38633
X153670Y33528
X153670Y30988
X153670Y46228
X135839Y36424
X151028Y37084
X134112Y36144
X149962Y41935
X133350Y39878
X136525Y40386
X140767Y35992
X140741Y33325
X141097Y29286
X138811Y32334
X143510Y29286
X149860Y27178
X148361Y35966
X138659Y40894
X138151Y38456
X137643Y40691
X142291Y38862
X142291Y36195
X135915Y39116
X148590Y38100
X140970Y35103
X139660Y40600
X151460Y38278
X151370Y44741
X147726Y36398
X143789Y36982
X154282Y45870
X140504Y38616
X136982Y36068
X10135Y63195
X18948Y65176
X11862Y66243
X13970Y61976
X1270Y72136
X1270Y69596
X1702Y64465
X1270Y59436
X1270Y56896
X6350Y75946
X12700Y75946
X19050Y75946
X23470Y64541
X24130Y59436
X24130Y56896
X24130Y72136
X6299Y62332
X21488Y62992
X4572Y62052
X20422Y67843
X3810Y65786
X6985Y66294
X11227Y61900
X11201Y59233
X11557Y55194
X9271Y58242
X13970Y55194
X20320Y53086
X18821Y61874
X9119Y66802
X8611Y64364
X8103Y66599
X12751Y64770
X12751Y62103
X6375Y65024
X19050Y64008
X11430Y61011
X10120Y66508
X21920Y64186
X21830Y70649
X18186Y62306
X14249Y62890
X24742Y71778
X10964Y64524
X7442Y61976
X36043Y63195
X44856Y65176
X37770Y66243
X39878Y61976
X27178Y72136
X27178Y69596
X27610Y64465
X27178Y59436
X27178Y56896
X32258Y75946
X38608Y75946
X44958Y75946
X49378Y64541
X50038Y59436
X50038Y56896
X50038Y72136
X32207Y62332
X47396Y62992
X30480Y62052
X46330Y67843
X29718Y65786
X32893Y66294
X37135Y61900
X37109Y59233
X37465Y55194
X35179Y58242
X39878Y55194
X46228Y53086
X44729Y61874
X35027Y66802
X34519Y64364
X34011Y66599
X38659Y64770
X38659Y62103
X32283Y65024
X44958Y64008
X37338Y61011
X36028Y66508
X47828Y64186
X47738Y70649
X44094Y62306
X40157Y62890
X50650Y71778
X36872Y64524
X33350Y61976
X61951Y63195
X70764Y65176
X63678Y66243
X65786Y61976
X53086Y72136
X53086Y69596
X53518Y64465
X53086Y59436
X53086Y56896
X58166Y75946
X64516Y75946
X70866Y75946
X75286Y64541
X75946Y59436
X75946Y56896
X75946Y72136
X58115Y62332
X73304Y62992
X98044Y1270
X72238Y67843
X55626Y65786
X58801Y66294
X63043Y61900
X63017Y59233
X63373Y55194
X61087Y58242
X65786Y55194
X72136Y53086
X70637Y61874
X60935Y66802
X60427Y64364
X59919Y66599
X64567Y64770
X64567Y62103
X58191Y65024
X70866Y64008
X63246Y61011
X61936Y66508
X73736Y64186
X73646Y70649
X70002Y62306
X66065Y62890
X76558Y71778
X62780Y64524
X59258Y61976
X87859Y63195
X96672Y65176
X89586Y66243
X91694Y61976
X78994Y72136
X78994Y69596
X79426Y64465
X78994Y59436
X78994Y56896
X84074Y75946
X90424Y75946
X96774Y75946
X101194Y64541
X101854Y59436
X101854Y56896
X101854Y72136
X84023Y62332
X99212Y62992
X82296Y62052
X98146Y67843
X81534Y65786
X84709Y66294
X88951Y61900
X88925Y59233
X89281Y55194
X86995Y58242
X91694Y55194
X98044Y53086
X96545Y61874
X86843Y66802
X86335Y64364
X85827Y66599
X90475Y64770
X90475Y62103
X84099Y65024
X96774Y64008
X89154Y61011
X87844Y66508
X99644Y64186
X99554Y70649
X95910Y62306
X91973Y62890
X102466Y71778
X88688Y64524
X85166Y61976
X113767Y63195
X122580Y65176
X115494Y66243
X117602Y61976
X104902Y72136
X104902Y69596
X105334Y64465
X104902Y59436
X104902Y56896
X109982Y75946
X116332Y75946
X122682Y75946
X127102Y64541
X127762Y59436
X127762Y56896
X127762Y72136
X109931Y62332
X125120Y62992
X108204Y62052
X124054Y67843
X107442Y65786
X110617Y66294
X114859Y61900
X114833Y59233
X115189Y55194
X112903Y58242
X117602Y55194
X123952Y53086
X122453Y61874
X112751Y66802
X112243Y64364
X111735Y66599
X116383Y64770
X116383Y62103
X110007Y65024
X122682Y64008
X115062Y61011
X113752Y66508
X125552Y64186
X125462Y70649
X121818Y62306
X117881Y62890
X128374Y71778
X114596Y64524
X111074Y61976
X139675Y63195
X148488Y65176
X141402Y66243
X143510Y61976
X130810Y72136
X130810Y69596
X131242Y64465
X130810Y59436
X130810Y56896
X135890Y75946
X142240Y75946
X148590Y75946
X153010Y64541
X153670Y59436
X153670Y56896
X153670Y72136
X135839Y62332
X151028Y62992
X134112Y62052
X149962Y67843
X133350Y65786
X136525Y66294
X140767Y61900
X140741Y59233
X141097Y55194
X138811Y58242
X143510Y55194
X149860Y53086
X148361Y61874
X138659Y66802
X138151Y64364
X137643Y66599
X142291Y64770
X142291Y62103
X135915Y65024
X148590Y64008
X140970Y61011
X139660Y66508
X151460Y64186
X151370Y70649
X147726Y62306
X143789Y62890
X154282Y71778
X140504Y64524
X136982Y61976
X10135Y89103
X18948Y91084
X11862Y92151
X13970Y87884
X1270Y98044
X1270Y95504
X1702Y90373
X1270Y85344
X1270Y82804
X6350Y101854
X12700Y101854
X19050Y101854
X23470Y90449
X24130Y85344
X24130Y82804
X24130Y98044
X6299Y88240
X21488Y88900
X4572Y87960
X20422Y93751
X3810Y91694
X6985Y92202
X11227Y87808
X11201Y85141
X11557Y81102
X9271Y84150
X13970Y81102
X20320Y78994
X18821Y87782
X9119Y92710
X8611Y90272
X8103Y92507
X12751Y90678
X12751Y88011
X6375Y90932
X19050Y89916
X11430Y86919
X10120Y92416
X21920Y90094
X21830Y96557
X18186Y88214
X14249Y88798
X24742Y97686
X10964Y90432
X7442Y87884
X36043Y89103
X44856Y91084
X37770Y92151
X39878Y87884
X27178Y98044
X27178Y95504
X27610Y90373
X27178Y85344
X27178Y82804
X32258Y101854
X38608Y101854
X44958Y101854
X49378Y90449
X50038Y85344
X50038Y82804
X50038Y98044
X32207Y88240
X47396Y88900
X30480Y87960
X46330Y93751
X29718Y91694
X32893Y92202
X37135Y87808
X37109Y85141
X37465Y81102
X35179Y84150
X39878Y81102
X46228Y78994
X44729Y87782
X35027Y92710
X34519Y90272
X34011Y92507
X38659Y90678
X38659Y88011
X32283Y90932
X44958Y89916
X37338Y86919
X36028Y92416
X47828Y90094
X47738Y96557
X44094Y88214
X40157Y88798
X50650Y97686
X36872Y90432
X33350Y87884
X61951Y89103
X70764Y91084
X63678Y92151
X65786Y87884
X53086Y98044
X53086Y95504
X53518Y90373
X53086Y85344
X53086Y82804
X58166Y101854
X64516Y101854
X70866Y101854
X75286Y90449
X75946Y85344
X75946Y82804
X75946Y98044
X58115Y88240
X73304Y88900
X56388Y87960
X72238Y93751
X55626Y91694
X58801Y92202
X63043Y87808
X63017Y85141
X63373Y81102
X61087Y84150
X65786Y81102
X72136Y78994
X70637Y87782
X60935Y92710
X60427Y90272
X59919Y92507
X64567Y90678
X64567Y88011
X58191Y90932
X70866Y89916
X63246Y86919
X61936Y92416
X73736Y90094
X73646Y96557
X70002Y88214
X66065Y88798
X76558Y97686
X62780Y90432
X59258Y87884
X87859Y89103
X96672Y91084
X89586Y92151
X91694Y87884
X78994Y98044
X78994Y95504
X79426Y90373
X78994Y85344
X78994Y82804
X84074Y101854
X90424Y101854
X96774Y101854
X101194Y90449
X101854Y85344
X101854Y82804
X101854Y98044
X84023Y88240
X99212Y88900
X82296Y87960
X98146Y93751
X81534Y91694
X84709Y92202
X88951Y87808
X88925Y85141
X89281Y81102
X86995Y84150
X10135Y11379
X98044Y78994
X96545Y87782
X86843Y92710
X86335Y90272
X85827Y92507
X90475Y90678
X90475Y88011
X84099Y90932
X96774Y89916
X89154Y86919
X87844Y92416
X99644Y90094
X99554Y96557
X95910Y88214
X91973Y88798
X102466Y97686
X88688Y90432
X85166Y87884
X113767Y89103
X122580Y91084
X115494Y92151
X117602Y87884
X104902Y98044
X104902Y95504
X105334Y90373
X104902Y85344
X104902Y82804
X109982Y101854
X116332Y101854
X122682Y101854
X127102Y90449
X127762Y85344
X127762Y82804
X127762Y98044
X109931Y88240
X125120Y88900
X108204Y87960
X124054Y93751
X107442Y91694
X110617Y92202
X114859Y87808
X114833Y85141
X115189Y81102
X112903Y84150
X117602Y81102
X123952Y78994
X122453Y87782
X112751Y92710
X112243Y90272
X111735Y92507
X116383Y90678
X116383Y88011
X110007Y90932
X122682Y89916
X115062Y86919
X113752Y92416
X125552Y90094
X125462Y96557
X121818Y88214
X117881Y88798
X128374Y97686
X114596Y90432
X111074Y87884
X139675Y89103
X148488Y91084
X141402Y92151
X143510Y87884
X130810Y98044
X130810Y95504
X131242Y90373
X130810Y85344
X130810Y82804
X135890Y101854
X142240Y101854
X148590Y101854
X153010Y90449
X153670Y85344
X153670Y82804
X153670Y98044
X135839Y88240
X151028Y88900
X134112Y87960
X149962Y93751
X133350Y91694
X136525Y92202
X140767Y87808
X140741Y85141
X141097Y81102
X138811Y84150
X143510Y81102
X149860Y78994
X148361Y87782
X138659Y92710
X138151Y90272
X137643Y92507
X142291Y90678
X142291Y88011
X135915Y90932
X148590Y89916
X140970Y86919
X139660Y92416
X151460Y90094
X151370Y96557
X147726Y88214
X143789Y88798
X154282Y97686
X140504Y90432
X136982Y87884
X18948Y13360
X11862Y14427
X13970Y10160
X1270Y20320
X1270Y17780
X1702Y12649
X1270Y7620
X1270Y5080
X6350Y24130
X12700Y24130
X19050Y24130
X23470Y12725
X24130Y7620
X24130Y5080
X24130Y20320
X6299Y10516
X21488Y11176
X4572Y10236
X20422Y16027
X3810Y13970
X6985Y14478
X11227Y10084
X11201Y7417
X11557Y3378
X9271Y6426
X13970Y3378
X20320Y1270
X18821Y10058
X9119Y14986
X8611Y12548
X8103Y14783
X12751Y12954
X12751Y10287
X6375Y13208
X19050Y12192
X11430Y9195
X10120Y14692
X21920Y12370
X21830Y18833
X18186Y10490
X14249Y11074
X24742Y19962
X10964Y12708
X7442Y10160
X36043Y11379
X44856Y13360
X37770Y14427
X39878Y10160
X27178Y20320
X27178Y17780
X27610Y12649
X27178Y7620
X27178Y5080
X56388Y62052
X32258Y24130
X38608Y24130
X44958Y24130
X49378Y12725
X50038Y7620
X50038Y5080
X50038Y20320
X32207Y10516
X47396Y11176
X30480Y10236
X46330Y16027
X29718Y13970
X32893Y14478
X37135Y10084
X37109Y7417
X37465Y3378
X35179Y6426
X39878Y3378
X46228Y1270
X44729Y10058
X35027Y14986
X34519Y12548
X34011Y14783
X38659Y12954
X38659Y10287
X32283Y13208
X44958Y12192
X37338Y9195
X36028Y14692
X47828Y12370
X47738Y18833
X44094Y10490
X40157Y11074
X50650Y19962
X36872Y12708
X33350Y10160
X61951Y11379
X70764Y13360
X63678Y14427
X65786Y10160
X53086Y20320
X53086Y17780
X53518Y12649
X53086Y7620
X53086Y5080
X58166Y24130
X64516Y24130
X70866Y24130
X75286Y12725
X75946Y7620
X75946Y5080
X75946Y20320
X58115Y10516
X73304Y11176
X56388Y10236
X72238Y16027
X55626Y13970
X58801Y14478
X63043Y10084
X63017Y7417
X63373Y3378
X61087Y6426
X65786Y3378
X72136Y1270
X70637Y10058
X60935Y14986
X60427Y12548
X59919Y14783
X64567Y12954
X64567Y10287
X58191Y13208
X70866Y12192
X63246Y9195
X61936Y14692
X73736Y12370
X73646Y18833
X70002Y10490
X66065Y11074
X76558Y19962
X62780Y12708
X59258Y10160
X87859Y11379
X96672Y13360
X89586Y14427
X91694Y10160
X78994Y20320
X78994Y17780
X79426Y12649
X78994Y7620
X78994Y5080
X84074Y24130
X90424Y24130
X96774Y24130
X101194Y12725
X101854Y7620
X101854Y5080
X101854Y20320
X84023Y10516
X99212Y11176
X82296Y10236
X98146Y16027
X81534Y13970
X84709Y14478
X88951Y10084
X88925Y7417
X89281Y3378
X86995Y6426
X91694Y3378
X96545Y10058
X86843Y14986
X86335Y12548
X85827Y14783
X90475Y12954
X90475Y10287
X84099Y13208
X96774Y12192
X89154Y9195
X87844Y14692
X99644Y12370
X99554Y18833
X95910Y10490
X91973Y11074
X102466Y19962
X88688Y12708
X85166Y10160
X113767Y11379
X122580Y13360
X115494Y14427
X117602Y10160
X104902Y20320
X104902Y17780
X105334Y12649
X104902Y7620
X104902Y5080
X109982Y24130
X116332Y24130
X122682Y24130
X127102Y12725
X127762Y7620
X127762Y5080
X127762Y20320
X109931Y10516
X125120Y11176
X108204Y10236
X124054Y16027
X107442Y13970
X110617Y14478
X114859Y10084
X114833Y7417
X115189Y3378
X112903Y6426
X117602Y3378
X123952Y1270
X122453Y10058
X112751Y14986
X112243Y12548
X111735Y14783
X116383Y12954
X116383Y10287
X110007Y13208
X122682Y12192
X91694Y81102
M30