G04 EAGLE Gerber RS-274X export*
G75*
%MOMM*%
%FSLAX34Y34*%
%LPD*%
%INSoldermask Top*%
%IPPOS*%
%AMOC8*
5,1,8,0,0,1.08239X$1,22.5*%
G01*
%ADD10C,3.175000*%
%ADD11C,0.225400*%
%ADD12C,0.762000*%
%ADD13C,0.225588*%
%ADD14C,0.225369*%
%ADD15C,0.428259*%
%ADD16C,0.230578*%
%ADD17C,2.006600*%
%ADD18C,1.127000*%
%ADD19C,1.270000*%
%ADD20C,1.627000*%


D10*
X25400Y228600D03*
X25400Y25400D03*
X228600Y25400D03*
D11*
X175578Y130492D02*
X175578Y140508D01*
X184594Y140508D01*
X184594Y130492D01*
X175578Y130492D01*
X175578Y132633D02*
X184594Y132633D01*
X184594Y134774D02*
X175578Y134774D01*
X175578Y136915D02*
X184594Y136915D01*
X184594Y139056D02*
X175578Y139056D01*
X175578Y123508D02*
X175578Y113492D01*
X175578Y123508D02*
X184594Y123508D01*
X184594Y113492D01*
X175578Y113492D01*
X175578Y115633D02*
X184594Y115633D01*
X184594Y117774D02*
X175578Y117774D01*
X175578Y119915D02*
X184594Y119915D01*
X184594Y122056D02*
X175578Y122056D01*
X160592Y130492D02*
X160592Y140508D01*
X169608Y140508D01*
X169608Y130492D01*
X160592Y130492D01*
X160592Y132633D02*
X169608Y132633D01*
X169608Y134774D02*
X160592Y134774D01*
X160592Y136915D02*
X169608Y136915D01*
X169608Y139056D02*
X160592Y139056D01*
X160592Y123508D02*
X160592Y113492D01*
X160592Y123508D02*
X169608Y123508D01*
X169608Y113492D01*
X160592Y113492D01*
X160592Y115633D02*
X169608Y115633D01*
X169608Y117774D02*
X160592Y117774D01*
X160592Y119915D02*
X169608Y119915D01*
X169608Y122056D02*
X160592Y122056D01*
D12*
X41910Y195580D03*
X212344Y55880D03*
D13*
X249203Y93493D02*
X249203Y104507D01*
X249203Y93493D02*
X230189Y93493D01*
X230189Y104507D01*
X249203Y104507D01*
X249203Y95636D02*
X230189Y95636D01*
X230189Y97779D02*
X249203Y97779D01*
X249203Y99922D02*
X230189Y99922D01*
X230189Y102065D02*
X249203Y102065D01*
X249203Y104208D02*
X230189Y104208D01*
X249203Y149493D02*
X249203Y160507D01*
X249203Y149493D02*
X230189Y149493D01*
X230189Y160507D01*
X249203Y160507D01*
X249203Y151636D02*
X230189Y151636D01*
X230189Y153779D02*
X249203Y153779D01*
X249203Y155922D02*
X230189Y155922D01*
X230189Y158065D02*
X249203Y158065D01*
X249203Y160208D02*
X230189Y160208D01*
D14*
X209204Y114508D02*
X209204Y109492D01*
X196688Y109492D01*
X196688Y114508D01*
X209204Y114508D01*
X209204Y111633D02*
X196688Y111633D01*
X196688Y113774D02*
X209204Y113774D01*
X209204Y119492D02*
X209204Y124508D01*
X209204Y119492D02*
X196688Y119492D01*
X196688Y124508D01*
X209204Y124508D01*
X209204Y121633D02*
X196688Y121633D01*
X196688Y123774D02*
X209204Y123774D01*
X209204Y129492D02*
X209204Y134508D01*
X209204Y129492D02*
X196688Y129492D01*
X196688Y134508D01*
X209204Y134508D01*
X209204Y131633D02*
X196688Y131633D01*
X196688Y133774D02*
X209204Y133774D01*
X209204Y139492D02*
X209204Y144508D01*
X209204Y139492D02*
X196688Y139492D01*
X196688Y144508D01*
X209204Y144508D01*
X209204Y141633D02*
X196688Y141633D01*
X196688Y143774D02*
X209204Y143774D01*
D13*
X4543Y149493D02*
X4543Y160507D01*
X23557Y160507D01*
X23557Y149493D01*
X4543Y149493D01*
X4543Y151636D02*
X23557Y151636D01*
X23557Y153779D02*
X4543Y153779D01*
X4543Y155922D02*
X23557Y155922D01*
X23557Y158065D02*
X4543Y158065D01*
X4543Y160208D02*
X23557Y160208D01*
X4543Y104507D02*
X4543Y93493D01*
X4543Y104507D02*
X23557Y104507D01*
X23557Y93493D01*
X4543Y93493D01*
X4543Y95636D02*
X23557Y95636D01*
X23557Y97779D02*
X4543Y97779D01*
X4543Y99922D02*
X23557Y99922D01*
X23557Y102065D02*
X4543Y102065D01*
X4543Y104208D02*
X23557Y104208D01*
D14*
X44542Y139492D02*
X44542Y144508D01*
X57058Y144508D01*
X57058Y139492D01*
X44542Y139492D01*
X44542Y141633D02*
X57058Y141633D01*
X57058Y143774D02*
X44542Y143774D01*
X44542Y134508D02*
X44542Y129492D01*
X44542Y134508D02*
X57058Y134508D01*
X57058Y129492D01*
X44542Y129492D01*
X44542Y131633D02*
X57058Y131633D01*
X57058Y133774D02*
X44542Y133774D01*
X44542Y124508D02*
X44542Y119492D01*
X44542Y124508D02*
X57058Y124508D01*
X57058Y119492D01*
X44542Y119492D01*
X44542Y121633D02*
X57058Y121633D01*
X57058Y123774D02*
X44542Y123774D01*
X44542Y114508D02*
X44542Y109492D01*
X44542Y114508D02*
X57058Y114508D01*
X57058Y109492D01*
X44542Y109492D01*
X44542Y111633D02*
X57058Y111633D01*
X57058Y113774D02*
X44542Y113774D01*
D15*
X240600Y184600D02*
X247588Y184600D01*
X240600Y184600D02*
X240600Y191588D01*
X247588Y191588D01*
X247588Y184600D01*
X247588Y188669D02*
X240600Y188669D01*
X240600Y167060D02*
X247588Y167060D01*
X240600Y167060D02*
X240600Y174048D01*
X247588Y174048D01*
X247588Y167060D01*
X247588Y171129D02*
X240600Y171129D01*
D11*
X232600Y166324D02*
X232600Y176340D01*
X232600Y166324D02*
X223584Y166324D01*
X223584Y176340D01*
X232600Y176340D01*
X232600Y168465D02*
X223584Y168465D01*
X223584Y170606D02*
X232600Y170606D01*
X232600Y172747D02*
X223584Y172747D01*
X223584Y174888D02*
X232600Y174888D01*
X232600Y183324D02*
X232600Y193340D01*
X232600Y183324D02*
X223584Y183324D01*
X223584Y193340D01*
X232600Y193340D01*
X232600Y185465D02*
X223584Y185465D01*
X223584Y187606D02*
X232600Y187606D01*
X232600Y189747D02*
X223584Y189747D01*
X223584Y191888D02*
X232600Y191888D01*
D10*
X228600Y228600D03*
D14*
X99092Y134508D02*
X99092Y129492D01*
X99092Y134508D02*
X104108Y134508D01*
X104108Y129492D01*
X99092Y129492D01*
X99092Y131633D02*
X104108Y131633D01*
X104108Y133774D02*
X99092Y133774D01*
X99092Y124508D02*
X99092Y119492D01*
X99092Y124508D02*
X104108Y124508D01*
X104108Y119492D01*
X99092Y119492D01*
X99092Y121633D02*
X104108Y121633D01*
X104108Y123774D02*
X99092Y123774D01*
D16*
X115028Y133638D02*
X121192Y133638D01*
X115028Y133638D02*
X115028Y135602D01*
X121192Y135602D01*
X121192Y133638D01*
X121192Y128638D02*
X115028Y128638D01*
X115028Y130602D01*
X121192Y130602D01*
X121192Y128638D01*
X121192Y123638D02*
X115028Y123638D01*
X115028Y125602D01*
X121192Y125602D01*
X121192Y123638D01*
X121192Y118638D02*
X115028Y118638D01*
X115028Y120602D01*
X121192Y120602D01*
X121192Y118638D01*
X132228Y118638D02*
X138392Y118638D01*
X132228Y118638D02*
X132228Y120602D01*
X138392Y120602D01*
X138392Y118638D01*
X138392Y123638D02*
X132228Y123638D01*
X132228Y125602D01*
X138392Y125602D01*
X138392Y123638D01*
X138392Y128638D02*
X132228Y128638D01*
X132228Y130602D01*
X138392Y130602D01*
X138392Y128638D01*
X138392Y133638D02*
X132228Y133638D01*
X132228Y135602D01*
X138392Y135602D01*
X138392Y133638D01*
D11*
X106108Y85408D02*
X106108Y75392D01*
X97092Y75392D01*
X97092Y85408D01*
X106108Y85408D01*
X106108Y77533D02*
X97092Y77533D01*
X97092Y79674D02*
X106108Y79674D01*
X106108Y81815D02*
X97092Y81815D01*
X97092Y83956D02*
X106108Y83956D01*
X106108Y92392D02*
X106108Y102408D01*
X106108Y92392D02*
X97092Y92392D01*
X97092Y102408D01*
X106108Y102408D01*
X106108Y94533D02*
X97092Y94533D01*
X97092Y96674D02*
X106108Y96674D01*
X106108Y98815D02*
X97092Y98815D01*
X97092Y100956D02*
X106108Y100956D01*
D17*
X76200Y12700D03*
X101600Y12700D03*
X127000Y12700D03*
X152400Y12700D03*
X177800Y12700D03*
D11*
X90868Y75392D02*
X90868Y85408D01*
X90868Y75392D02*
X81852Y75392D01*
X81852Y85408D01*
X90868Y85408D01*
X90868Y77533D02*
X81852Y77533D01*
X81852Y79674D02*
X90868Y79674D01*
X90868Y81815D02*
X81852Y81815D01*
X81852Y83956D02*
X90868Y83956D01*
X90868Y92392D02*
X90868Y102408D01*
X90868Y92392D02*
X81852Y92392D01*
X81852Y102408D01*
X90868Y102408D01*
X90868Y94533D02*
X81852Y94533D01*
X81852Y96674D02*
X90868Y96674D01*
X90868Y98815D02*
X81852Y98815D01*
X81852Y100956D02*
X90868Y100956D01*
D10*
X284480Y228600D03*
X284480Y25400D03*
X487680Y25400D03*
D11*
X434658Y130492D02*
X434658Y140508D01*
X443674Y140508D01*
X443674Y130492D01*
X434658Y130492D01*
X434658Y132633D02*
X443674Y132633D01*
X443674Y134774D02*
X434658Y134774D01*
X434658Y136915D02*
X443674Y136915D01*
X443674Y139056D02*
X434658Y139056D01*
X434658Y123508D02*
X434658Y113492D01*
X434658Y123508D02*
X443674Y123508D01*
X443674Y113492D01*
X434658Y113492D01*
X434658Y115633D02*
X443674Y115633D01*
X443674Y117774D02*
X434658Y117774D01*
X434658Y119915D02*
X443674Y119915D01*
X443674Y122056D02*
X434658Y122056D01*
X419672Y130492D02*
X419672Y140508D01*
X428688Y140508D01*
X428688Y130492D01*
X419672Y130492D01*
X419672Y132633D02*
X428688Y132633D01*
X428688Y134774D02*
X419672Y134774D01*
X419672Y136915D02*
X428688Y136915D01*
X428688Y139056D02*
X419672Y139056D01*
X419672Y123508D02*
X419672Y113492D01*
X419672Y123508D02*
X428688Y123508D01*
X428688Y113492D01*
X419672Y113492D01*
X419672Y115633D02*
X428688Y115633D01*
X428688Y117774D02*
X419672Y117774D01*
X419672Y119915D02*
X428688Y119915D01*
X428688Y122056D02*
X419672Y122056D01*
D12*
X300990Y195580D03*
X471424Y55880D03*
D13*
X508283Y93493D02*
X508283Y104507D01*
X508283Y93493D02*
X489269Y93493D01*
X489269Y104507D01*
X508283Y104507D01*
X508283Y95636D02*
X489269Y95636D01*
X489269Y97779D02*
X508283Y97779D01*
X508283Y99922D02*
X489269Y99922D01*
X489269Y102065D02*
X508283Y102065D01*
X508283Y104208D02*
X489269Y104208D01*
X508283Y149493D02*
X508283Y160507D01*
X508283Y149493D02*
X489269Y149493D01*
X489269Y160507D01*
X508283Y160507D01*
X508283Y151636D02*
X489269Y151636D01*
X489269Y153779D02*
X508283Y153779D01*
X508283Y155922D02*
X489269Y155922D01*
X489269Y158065D02*
X508283Y158065D01*
X508283Y160208D02*
X489269Y160208D01*
D14*
X468284Y114508D02*
X468284Y109492D01*
X455768Y109492D01*
X455768Y114508D01*
X468284Y114508D01*
X468284Y111633D02*
X455768Y111633D01*
X455768Y113774D02*
X468284Y113774D01*
X468284Y119492D02*
X468284Y124508D01*
X468284Y119492D02*
X455768Y119492D01*
X455768Y124508D01*
X468284Y124508D01*
X468284Y121633D02*
X455768Y121633D01*
X455768Y123774D02*
X468284Y123774D01*
X468284Y129492D02*
X468284Y134508D01*
X468284Y129492D02*
X455768Y129492D01*
X455768Y134508D01*
X468284Y134508D01*
X468284Y131633D02*
X455768Y131633D01*
X455768Y133774D02*
X468284Y133774D01*
X468284Y139492D02*
X468284Y144508D01*
X468284Y139492D02*
X455768Y139492D01*
X455768Y144508D01*
X468284Y144508D01*
X468284Y141633D02*
X455768Y141633D01*
X455768Y143774D02*
X468284Y143774D01*
D13*
X263623Y149493D02*
X263623Y160507D01*
X282637Y160507D01*
X282637Y149493D01*
X263623Y149493D01*
X263623Y151636D02*
X282637Y151636D01*
X282637Y153779D02*
X263623Y153779D01*
X263623Y155922D02*
X282637Y155922D01*
X282637Y158065D02*
X263623Y158065D01*
X263623Y160208D02*
X282637Y160208D01*
X263623Y104507D02*
X263623Y93493D01*
X263623Y104507D02*
X282637Y104507D01*
X282637Y93493D01*
X263623Y93493D01*
X263623Y95636D02*
X282637Y95636D01*
X282637Y97779D02*
X263623Y97779D01*
X263623Y99922D02*
X282637Y99922D01*
X282637Y102065D02*
X263623Y102065D01*
X263623Y104208D02*
X282637Y104208D01*
D14*
X303622Y139492D02*
X303622Y144508D01*
X316138Y144508D01*
X316138Y139492D01*
X303622Y139492D01*
X303622Y141633D02*
X316138Y141633D01*
X316138Y143774D02*
X303622Y143774D01*
X303622Y134508D02*
X303622Y129492D01*
X303622Y134508D02*
X316138Y134508D01*
X316138Y129492D01*
X303622Y129492D01*
X303622Y131633D02*
X316138Y131633D01*
X316138Y133774D02*
X303622Y133774D01*
X303622Y124508D02*
X303622Y119492D01*
X303622Y124508D02*
X316138Y124508D01*
X316138Y119492D01*
X303622Y119492D01*
X303622Y121633D02*
X316138Y121633D01*
X316138Y123774D02*
X303622Y123774D01*
X303622Y114508D02*
X303622Y109492D01*
X303622Y114508D02*
X316138Y114508D01*
X316138Y109492D01*
X303622Y109492D01*
X303622Y111633D02*
X316138Y111633D01*
X316138Y113774D02*
X303622Y113774D01*
D15*
X499680Y184600D02*
X506668Y184600D01*
X499680Y184600D02*
X499680Y191588D01*
X506668Y191588D01*
X506668Y184600D01*
X506668Y188669D02*
X499680Y188669D01*
X499680Y167060D02*
X506668Y167060D01*
X499680Y167060D02*
X499680Y174048D01*
X506668Y174048D01*
X506668Y167060D01*
X506668Y171129D02*
X499680Y171129D01*
D11*
X491680Y166324D02*
X491680Y176340D01*
X491680Y166324D02*
X482664Y166324D01*
X482664Y176340D01*
X491680Y176340D01*
X491680Y168465D02*
X482664Y168465D01*
X482664Y170606D02*
X491680Y170606D01*
X491680Y172747D02*
X482664Y172747D01*
X482664Y174888D02*
X491680Y174888D01*
X491680Y183324D02*
X491680Y193340D01*
X491680Y183324D02*
X482664Y183324D01*
X482664Y193340D01*
X491680Y193340D01*
X491680Y185465D02*
X482664Y185465D01*
X482664Y187606D02*
X491680Y187606D01*
X491680Y189747D02*
X482664Y189747D01*
X482664Y191888D02*
X491680Y191888D01*
D10*
X487680Y228600D03*
D14*
X358172Y134508D02*
X358172Y129492D01*
X358172Y134508D02*
X363188Y134508D01*
X363188Y129492D01*
X358172Y129492D01*
X358172Y131633D02*
X363188Y131633D01*
X363188Y133774D02*
X358172Y133774D01*
X358172Y124508D02*
X358172Y119492D01*
X358172Y124508D02*
X363188Y124508D01*
X363188Y119492D01*
X358172Y119492D01*
X358172Y121633D02*
X363188Y121633D01*
X363188Y123774D02*
X358172Y123774D01*
D16*
X374108Y133638D02*
X380272Y133638D01*
X374108Y133638D02*
X374108Y135602D01*
X380272Y135602D01*
X380272Y133638D01*
X380272Y128638D02*
X374108Y128638D01*
X374108Y130602D01*
X380272Y130602D01*
X380272Y128638D01*
X380272Y123638D02*
X374108Y123638D01*
X374108Y125602D01*
X380272Y125602D01*
X380272Y123638D01*
X380272Y118638D02*
X374108Y118638D01*
X374108Y120602D01*
X380272Y120602D01*
X380272Y118638D01*
X391308Y118638D02*
X397472Y118638D01*
X391308Y118638D02*
X391308Y120602D01*
X397472Y120602D01*
X397472Y118638D01*
X397472Y123638D02*
X391308Y123638D01*
X391308Y125602D01*
X397472Y125602D01*
X397472Y123638D01*
X397472Y128638D02*
X391308Y128638D01*
X391308Y130602D01*
X397472Y130602D01*
X397472Y128638D01*
X397472Y133638D02*
X391308Y133638D01*
X391308Y135602D01*
X397472Y135602D01*
X397472Y133638D01*
D11*
X365188Y85408D02*
X365188Y75392D01*
X356172Y75392D01*
X356172Y85408D01*
X365188Y85408D01*
X365188Y77533D02*
X356172Y77533D01*
X356172Y79674D02*
X365188Y79674D01*
X365188Y81815D02*
X356172Y81815D01*
X356172Y83956D02*
X365188Y83956D01*
X365188Y92392D02*
X365188Y102408D01*
X365188Y92392D02*
X356172Y92392D01*
X356172Y102408D01*
X365188Y102408D01*
X365188Y94533D02*
X356172Y94533D01*
X356172Y96674D02*
X365188Y96674D01*
X365188Y98815D02*
X356172Y98815D01*
X356172Y100956D02*
X365188Y100956D01*
D17*
X335280Y12700D03*
X360680Y12700D03*
X386080Y12700D03*
X411480Y12700D03*
X436880Y12700D03*
D11*
X349948Y75392D02*
X349948Y85408D01*
X349948Y75392D02*
X340932Y75392D01*
X340932Y85408D01*
X349948Y85408D01*
X349948Y77533D02*
X340932Y77533D01*
X340932Y79674D02*
X349948Y79674D01*
X349948Y81815D02*
X340932Y81815D01*
X340932Y83956D02*
X349948Y83956D01*
X349948Y92392D02*
X349948Y102408D01*
X349948Y92392D02*
X340932Y92392D01*
X340932Y102408D01*
X349948Y102408D01*
X349948Y94533D02*
X340932Y94533D01*
X340932Y96674D02*
X349948Y96674D01*
X349948Y98815D02*
X340932Y98815D01*
X340932Y100956D02*
X349948Y100956D01*
D10*
X543560Y228600D03*
X543560Y25400D03*
X746760Y25400D03*
D11*
X693738Y130492D02*
X693738Y140508D01*
X702754Y140508D01*
X702754Y130492D01*
X693738Y130492D01*
X693738Y132633D02*
X702754Y132633D01*
X702754Y134774D02*
X693738Y134774D01*
X693738Y136915D02*
X702754Y136915D01*
X702754Y139056D02*
X693738Y139056D01*
X693738Y123508D02*
X693738Y113492D01*
X693738Y123508D02*
X702754Y123508D01*
X702754Y113492D01*
X693738Y113492D01*
X693738Y115633D02*
X702754Y115633D01*
X702754Y117774D02*
X693738Y117774D01*
X693738Y119915D02*
X702754Y119915D01*
X702754Y122056D02*
X693738Y122056D01*
X678752Y130492D02*
X678752Y140508D01*
X687768Y140508D01*
X687768Y130492D01*
X678752Y130492D01*
X678752Y132633D02*
X687768Y132633D01*
X687768Y134774D02*
X678752Y134774D01*
X678752Y136915D02*
X687768Y136915D01*
X687768Y139056D02*
X678752Y139056D01*
X678752Y123508D02*
X678752Y113492D01*
X678752Y123508D02*
X687768Y123508D01*
X687768Y113492D01*
X678752Y113492D01*
X678752Y115633D02*
X687768Y115633D01*
X687768Y117774D02*
X678752Y117774D01*
X678752Y119915D02*
X687768Y119915D01*
X687768Y122056D02*
X678752Y122056D01*
D12*
X560070Y195580D03*
X730504Y55880D03*
D13*
X767363Y93493D02*
X767363Y104507D01*
X767363Y93493D02*
X748349Y93493D01*
X748349Y104507D01*
X767363Y104507D01*
X767363Y95636D02*
X748349Y95636D01*
X748349Y97779D02*
X767363Y97779D01*
X767363Y99922D02*
X748349Y99922D01*
X748349Y102065D02*
X767363Y102065D01*
X767363Y104208D02*
X748349Y104208D01*
X767363Y149493D02*
X767363Y160507D01*
X767363Y149493D02*
X748349Y149493D01*
X748349Y160507D01*
X767363Y160507D01*
X767363Y151636D02*
X748349Y151636D01*
X748349Y153779D02*
X767363Y153779D01*
X767363Y155922D02*
X748349Y155922D01*
X748349Y158065D02*
X767363Y158065D01*
X767363Y160208D02*
X748349Y160208D01*
D14*
X727364Y114508D02*
X727364Y109492D01*
X714848Y109492D01*
X714848Y114508D01*
X727364Y114508D01*
X727364Y111633D02*
X714848Y111633D01*
X714848Y113774D02*
X727364Y113774D01*
X727364Y119492D02*
X727364Y124508D01*
X727364Y119492D02*
X714848Y119492D01*
X714848Y124508D01*
X727364Y124508D01*
X727364Y121633D02*
X714848Y121633D01*
X714848Y123774D02*
X727364Y123774D01*
X727364Y129492D02*
X727364Y134508D01*
X727364Y129492D02*
X714848Y129492D01*
X714848Y134508D01*
X727364Y134508D01*
X727364Y131633D02*
X714848Y131633D01*
X714848Y133774D02*
X727364Y133774D01*
X727364Y139492D02*
X727364Y144508D01*
X727364Y139492D02*
X714848Y139492D01*
X714848Y144508D01*
X727364Y144508D01*
X727364Y141633D02*
X714848Y141633D01*
X714848Y143774D02*
X727364Y143774D01*
D13*
X522703Y149493D02*
X522703Y160507D01*
X541717Y160507D01*
X541717Y149493D01*
X522703Y149493D01*
X522703Y151636D02*
X541717Y151636D01*
X541717Y153779D02*
X522703Y153779D01*
X522703Y155922D02*
X541717Y155922D01*
X541717Y158065D02*
X522703Y158065D01*
X522703Y160208D02*
X541717Y160208D01*
X522703Y104507D02*
X522703Y93493D01*
X522703Y104507D02*
X541717Y104507D01*
X541717Y93493D01*
X522703Y93493D01*
X522703Y95636D02*
X541717Y95636D01*
X541717Y97779D02*
X522703Y97779D01*
X522703Y99922D02*
X541717Y99922D01*
X541717Y102065D02*
X522703Y102065D01*
X522703Y104208D02*
X541717Y104208D01*
D14*
X562702Y139492D02*
X562702Y144508D01*
X575218Y144508D01*
X575218Y139492D01*
X562702Y139492D01*
X562702Y141633D02*
X575218Y141633D01*
X575218Y143774D02*
X562702Y143774D01*
X562702Y134508D02*
X562702Y129492D01*
X562702Y134508D02*
X575218Y134508D01*
X575218Y129492D01*
X562702Y129492D01*
X562702Y131633D02*
X575218Y131633D01*
X575218Y133774D02*
X562702Y133774D01*
X562702Y124508D02*
X562702Y119492D01*
X562702Y124508D02*
X575218Y124508D01*
X575218Y119492D01*
X562702Y119492D01*
X562702Y121633D02*
X575218Y121633D01*
X575218Y123774D02*
X562702Y123774D01*
X562702Y114508D02*
X562702Y109492D01*
X562702Y114508D02*
X575218Y114508D01*
X575218Y109492D01*
X562702Y109492D01*
X562702Y111633D02*
X575218Y111633D01*
X575218Y113774D02*
X562702Y113774D01*
D15*
X758760Y184600D02*
X765748Y184600D01*
X758760Y184600D02*
X758760Y191588D01*
X765748Y191588D01*
X765748Y184600D01*
X765748Y188669D02*
X758760Y188669D01*
X758760Y167060D02*
X765748Y167060D01*
X758760Y167060D02*
X758760Y174048D01*
X765748Y174048D01*
X765748Y167060D01*
X765748Y171129D02*
X758760Y171129D01*
D11*
X750760Y166324D02*
X750760Y176340D01*
X750760Y166324D02*
X741744Y166324D01*
X741744Y176340D01*
X750760Y176340D01*
X750760Y168465D02*
X741744Y168465D01*
X741744Y170606D02*
X750760Y170606D01*
X750760Y172747D02*
X741744Y172747D01*
X741744Y174888D02*
X750760Y174888D01*
X750760Y183324D02*
X750760Y193340D01*
X750760Y183324D02*
X741744Y183324D01*
X741744Y193340D01*
X750760Y193340D01*
X750760Y185465D02*
X741744Y185465D01*
X741744Y187606D02*
X750760Y187606D01*
X750760Y189747D02*
X741744Y189747D01*
X741744Y191888D02*
X750760Y191888D01*
D10*
X746760Y228600D03*
D14*
X617252Y134508D02*
X617252Y129492D01*
X617252Y134508D02*
X622268Y134508D01*
X622268Y129492D01*
X617252Y129492D01*
X617252Y131633D02*
X622268Y131633D01*
X622268Y133774D02*
X617252Y133774D01*
X617252Y124508D02*
X617252Y119492D01*
X617252Y124508D02*
X622268Y124508D01*
X622268Y119492D01*
X617252Y119492D01*
X617252Y121633D02*
X622268Y121633D01*
X622268Y123774D02*
X617252Y123774D01*
D16*
X633188Y133638D02*
X639352Y133638D01*
X633188Y133638D02*
X633188Y135602D01*
X639352Y135602D01*
X639352Y133638D01*
X639352Y128638D02*
X633188Y128638D01*
X633188Y130602D01*
X639352Y130602D01*
X639352Y128638D01*
X639352Y123638D02*
X633188Y123638D01*
X633188Y125602D01*
X639352Y125602D01*
X639352Y123638D01*
X639352Y118638D02*
X633188Y118638D01*
X633188Y120602D01*
X639352Y120602D01*
X639352Y118638D01*
X650388Y118638D02*
X656552Y118638D01*
X650388Y118638D02*
X650388Y120602D01*
X656552Y120602D01*
X656552Y118638D01*
X656552Y123638D02*
X650388Y123638D01*
X650388Y125602D01*
X656552Y125602D01*
X656552Y123638D01*
X656552Y128638D02*
X650388Y128638D01*
X650388Y130602D01*
X656552Y130602D01*
X656552Y128638D01*
X656552Y133638D02*
X650388Y133638D01*
X650388Y135602D01*
X656552Y135602D01*
X656552Y133638D01*
D11*
X624268Y85408D02*
X624268Y75392D01*
X615252Y75392D01*
X615252Y85408D01*
X624268Y85408D01*
X624268Y77533D02*
X615252Y77533D01*
X615252Y79674D02*
X624268Y79674D01*
X624268Y81815D02*
X615252Y81815D01*
X615252Y83956D02*
X624268Y83956D01*
X624268Y92392D02*
X624268Y102408D01*
X624268Y92392D02*
X615252Y92392D01*
X615252Y102408D01*
X624268Y102408D01*
X624268Y94533D02*
X615252Y94533D01*
X615252Y96674D02*
X624268Y96674D01*
X624268Y98815D02*
X615252Y98815D01*
X615252Y100956D02*
X624268Y100956D01*
D17*
X594360Y12700D03*
X619760Y12700D03*
X645160Y12700D03*
X670560Y12700D03*
X695960Y12700D03*
D11*
X609028Y75392D02*
X609028Y85408D01*
X609028Y75392D02*
X600012Y75392D01*
X600012Y85408D01*
X609028Y85408D01*
X609028Y77533D02*
X600012Y77533D01*
X600012Y79674D02*
X609028Y79674D01*
X609028Y81815D02*
X600012Y81815D01*
X600012Y83956D02*
X609028Y83956D01*
X609028Y92392D02*
X609028Y102408D01*
X609028Y92392D02*
X600012Y92392D01*
X600012Y102408D01*
X609028Y102408D01*
X609028Y94533D02*
X600012Y94533D01*
X600012Y96674D02*
X609028Y96674D01*
X609028Y98815D02*
X600012Y98815D01*
X600012Y100956D02*
X609028Y100956D01*
D10*
X802640Y228600D03*
X802640Y25400D03*
X1005840Y25400D03*
D11*
X952818Y130492D02*
X952818Y140508D01*
X961834Y140508D01*
X961834Y130492D01*
X952818Y130492D01*
X952818Y132633D02*
X961834Y132633D01*
X961834Y134774D02*
X952818Y134774D01*
X952818Y136915D02*
X961834Y136915D01*
X961834Y139056D02*
X952818Y139056D01*
X952818Y123508D02*
X952818Y113492D01*
X952818Y123508D02*
X961834Y123508D01*
X961834Y113492D01*
X952818Y113492D01*
X952818Y115633D02*
X961834Y115633D01*
X961834Y117774D02*
X952818Y117774D01*
X952818Y119915D02*
X961834Y119915D01*
X961834Y122056D02*
X952818Y122056D01*
X937832Y130492D02*
X937832Y140508D01*
X946848Y140508D01*
X946848Y130492D01*
X937832Y130492D01*
X937832Y132633D02*
X946848Y132633D01*
X946848Y134774D02*
X937832Y134774D01*
X937832Y136915D02*
X946848Y136915D01*
X946848Y139056D02*
X937832Y139056D01*
X937832Y123508D02*
X937832Y113492D01*
X937832Y123508D02*
X946848Y123508D01*
X946848Y113492D01*
X937832Y113492D01*
X937832Y115633D02*
X946848Y115633D01*
X946848Y117774D02*
X937832Y117774D01*
X937832Y119915D02*
X946848Y119915D01*
X946848Y122056D02*
X937832Y122056D01*
D12*
X819150Y195580D03*
X989584Y55880D03*
D13*
X1026443Y93493D02*
X1026443Y104507D01*
X1026443Y93493D02*
X1007429Y93493D01*
X1007429Y104507D01*
X1026443Y104507D01*
X1026443Y95636D02*
X1007429Y95636D01*
X1007429Y97779D02*
X1026443Y97779D01*
X1026443Y99922D02*
X1007429Y99922D01*
X1007429Y102065D02*
X1026443Y102065D01*
X1026443Y104208D02*
X1007429Y104208D01*
X1026443Y149493D02*
X1026443Y160507D01*
X1026443Y149493D02*
X1007429Y149493D01*
X1007429Y160507D01*
X1026443Y160507D01*
X1026443Y151636D02*
X1007429Y151636D01*
X1007429Y153779D02*
X1026443Y153779D01*
X1026443Y155922D02*
X1007429Y155922D01*
X1007429Y158065D02*
X1026443Y158065D01*
X1026443Y160208D02*
X1007429Y160208D01*
D14*
X986444Y114508D02*
X986444Y109492D01*
X973928Y109492D01*
X973928Y114508D01*
X986444Y114508D01*
X986444Y111633D02*
X973928Y111633D01*
X973928Y113774D02*
X986444Y113774D01*
X986444Y119492D02*
X986444Y124508D01*
X986444Y119492D02*
X973928Y119492D01*
X973928Y124508D01*
X986444Y124508D01*
X986444Y121633D02*
X973928Y121633D01*
X973928Y123774D02*
X986444Y123774D01*
X986444Y129492D02*
X986444Y134508D01*
X986444Y129492D02*
X973928Y129492D01*
X973928Y134508D01*
X986444Y134508D01*
X986444Y131633D02*
X973928Y131633D01*
X973928Y133774D02*
X986444Y133774D01*
X986444Y139492D02*
X986444Y144508D01*
X986444Y139492D02*
X973928Y139492D01*
X973928Y144508D01*
X986444Y144508D01*
X986444Y141633D02*
X973928Y141633D01*
X973928Y143774D02*
X986444Y143774D01*
D13*
X781783Y149493D02*
X781783Y160507D01*
X800797Y160507D01*
X800797Y149493D01*
X781783Y149493D01*
X781783Y151636D02*
X800797Y151636D01*
X800797Y153779D02*
X781783Y153779D01*
X781783Y155922D02*
X800797Y155922D01*
X800797Y158065D02*
X781783Y158065D01*
X781783Y160208D02*
X800797Y160208D01*
X781783Y104507D02*
X781783Y93493D01*
X781783Y104507D02*
X800797Y104507D01*
X800797Y93493D01*
X781783Y93493D01*
X781783Y95636D02*
X800797Y95636D01*
X800797Y97779D02*
X781783Y97779D01*
X781783Y99922D02*
X800797Y99922D01*
X800797Y102065D02*
X781783Y102065D01*
X781783Y104208D02*
X800797Y104208D01*
D14*
X821782Y139492D02*
X821782Y144508D01*
X834298Y144508D01*
X834298Y139492D01*
X821782Y139492D01*
X821782Y141633D02*
X834298Y141633D01*
X834298Y143774D02*
X821782Y143774D01*
X821782Y134508D02*
X821782Y129492D01*
X821782Y134508D02*
X834298Y134508D01*
X834298Y129492D01*
X821782Y129492D01*
X821782Y131633D02*
X834298Y131633D01*
X834298Y133774D02*
X821782Y133774D01*
X821782Y124508D02*
X821782Y119492D01*
X821782Y124508D02*
X834298Y124508D01*
X834298Y119492D01*
X821782Y119492D01*
X821782Y121633D02*
X834298Y121633D01*
X834298Y123774D02*
X821782Y123774D01*
X821782Y114508D02*
X821782Y109492D01*
X821782Y114508D02*
X834298Y114508D01*
X834298Y109492D01*
X821782Y109492D01*
X821782Y111633D02*
X834298Y111633D01*
X834298Y113774D02*
X821782Y113774D01*
D15*
X1017840Y184600D02*
X1024828Y184600D01*
X1017840Y184600D02*
X1017840Y191588D01*
X1024828Y191588D01*
X1024828Y184600D01*
X1024828Y188669D02*
X1017840Y188669D01*
X1017840Y167060D02*
X1024828Y167060D01*
X1017840Y167060D02*
X1017840Y174048D01*
X1024828Y174048D01*
X1024828Y167060D01*
X1024828Y171129D02*
X1017840Y171129D01*
D11*
X1009840Y166324D02*
X1009840Y176340D01*
X1009840Y166324D02*
X1000824Y166324D01*
X1000824Y176340D01*
X1009840Y176340D01*
X1009840Y168465D02*
X1000824Y168465D01*
X1000824Y170606D02*
X1009840Y170606D01*
X1009840Y172747D02*
X1000824Y172747D01*
X1000824Y174888D02*
X1009840Y174888D01*
X1009840Y183324D02*
X1009840Y193340D01*
X1009840Y183324D02*
X1000824Y183324D01*
X1000824Y193340D01*
X1009840Y193340D01*
X1009840Y185465D02*
X1000824Y185465D01*
X1000824Y187606D02*
X1009840Y187606D01*
X1009840Y189747D02*
X1000824Y189747D01*
X1000824Y191888D02*
X1009840Y191888D01*
D10*
X1005840Y228600D03*
D14*
X876332Y134508D02*
X876332Y129492D01*
X876332Y134508D02*
X881348Y134508D01*
X881348Y129492D01*
X876332Y129492D01*
X876332Y131633D02*
X881348Y131633D01*
X881348Y133774D02*
X876332Y133774D01*
X876332Y124508D02*
X876332Y119492D01*
X876332Y124508D02*
X881348Y124508D01*
X881348Y119492D01*
X876332Y119492D01*
X876332Y121633D02*
X881348Y121633D01*
X881348Y123774D02*
X876332Y123774D01*
D16*
X892268Y133638D02*
X898432Y133638D01*
X892268Y133638D02*
X892268Y135602D01*
X898432Y135602D01*
X898432Y133638D01*
X898432Y128638D02*
X892268Y128638D01*
X892268Y130602D01*
X898432Y130602D01*
X898432Y128638D01*
X898432Y123638D02*
X892268Y123638D01*
X892268Y125602D01*
X898432Y125602D01*
X898432Y123638D01*
X898432Y118638D02*
X892268Y118638D01*
X892268Y120602D01*
X898432Y120602D01*
X898432Y118638D01*
X909468Y118638D02*
X915632Y118638D01*
X909468Y118638D02*
X909468Y120602D01*
X915632Y120602D01*
X915632Y118638D01*
X915632Y123638D02*
X909468Y123638D01*
X909468Y125602D01*
X915632Y125602D01*
X915632Y123638D01*
X915632Y128638D02*
X909468Y128638D01*
X909468Y130602D01*
X915632Y130602D01*
X915632Y128638D01*
X915632Y133638D02*
X909468Y133638D01*
X909468Y135602D01*
X915632Y135602D01*
X915632Y133638D01*
D11*
X883348Y85408D02*
X883348Y75392D01*
X874332Y75392D01*
X874332Y85408D01*
X883348Y85408D01*
X883348Y77533D02*
X874332Y77533D01*
X874332Y79674D02*
X883348Y79674D01*
X883348Y81815D02*
X874332Y81815D01*
X874332Y83956D02*
X883348Y83956D01*
X883348Y92392D02*
X883348Y102408D01*
X883348Y92392D02*
X874332Y92392D01*
X874332Y102408D01*
X883348Y102408D01*
X883348Y94533D02*
X874332Y94533D01*
X874332Y96674D02*
X883348Y96674D01*
X883348Y98815D02*
X874332Y98815D01*
X874332Y100956D02*
X883348Y100956D01*
D17*
X853440Y12700D03*
X878840Y12700D03*
X904240Y12700D03*
X929640Y12700D03*
X955040Y12700D03*
D11*
X868108Y75392D02*
X868108Y85408D01*
X868108Y75392D02*
X859092Y75392D01*
X859092Y85408D01*
X868108Y85408D01*
X868108Y77533D02*
X859092Y77533D01*
X859092Y79674D02*
X868108Y79674D01*
X868108Y81815D02*
X859092Y81815D01*
X859092Y83956D02*
X868108Y83956D01*
X868108Y92392D02*
X868108Y102408D01*
X868108Y92392D02*
X859092Y92392D01*
X859092Y102408D01*
X868108Y102408D01*
X868108Y94533D02*
X859092Y94533D01*
X859092Y96674D02*
X868108Y96674D01*
X868108Y98815D02*
X859092Y98815D01*
X859092Y100956D02*
X868108Y100956D01*
D10*
X1061720Y228600D03*
X1061720Y25400D03*
X1264920Y25400D03*
D11*
X1211898Y130492D02*
X1211898Y140508D01*
X1220914Y140508D01*
X1220914Y130492D01*
X1211898Y130492D01*
X1211898Y132633D02*
X1220914Y132633D01*
X1220914Y134774D02*
X1211898Y134774D01*
X1211898Y136915D02*
X1220914Y136915D01*
X1220914Y139056D02*
X1211898Y139056D01*
X1211898Y123508D02*
X1211898Y113492D01*
X1211898Y123508D02*
X1220914Y123508D01*
X1220914Y113492D01*
X1211898Y113492D01*
X1211898Y115633D02*
X1220914Y115633D01*
X1220914Y117774D02*
X1211898Y117774D01*
X1211898Y119915D02*
X1220914Y119915D01*
X1220914Y122056D02*
X1211898Y122056D01*
X1196912Y130492D02*
X1196912Y140508D01*
X1205928Y140508D01*
X1205928Y130492D01*
X1196912Y130492D01*
X1196912Y132633D02*
X1205928Y132633D01*
X1205928Y134774D02*
X1196912Y134774D01*
X1196912Y136915D02*
X1205928Y136915D01*
X1205928Y139056D02*
X1196912Y139056D01*
X1196912Y123508D02*
X1196912Y113492D01*
X1196912Y123508D02*
X1205928Y123508D01*
X1205928Y113492D01*
X1196912Y113492D01*
X1196912Y115633D02*
X1205928Y115633D01*
X1205928Y117774D02*
X1196912Y117774D01*
X1196912Y119915D02*
X1205928Y119915D01*
X1205928Y122056D02*
X1196912Y122056D01*
D12*
X1078230Y195580D03*
X1248664Y55880D03*
D13*
X1285523Y93493D02*
X1285523Y104507D01*
X1285523Y93493D02*
X1266509Y93493D01*
X1266509Y104507D01*
X1285523Y104507D01*
X1285523Y95636D02*
X1266509Y95636D01*
X1266509Y97779D02*
X1285523Y97779D01*
X1285523Y99922D02*
X1266509Y99922D01*
X1266509Y102065D02*
X1285523Y102065D01*
X1285523Y104208D02*
X1266509Y104208D01*
X1285523Y149493D02*
X1285523Y160507D01*
X1285523Y149493D02*
X1266509Y149493D01*
X1266509Y160507D01*
X1285523Y160507D01*
X1285523Y151636D02*
X1266509Y151636D01*
X1266509Y153779D02*
X1285523Y153779D01*
X1285523Y155922D02*
X1266509Y155922D01*
X1266509Y158065D02*
X1285523Y158065D01*
X1285523Y160208D02*
X1266509Y160208D01*
D14*
X1245524Y114508D02*
X1245524Y109492D01*
X1233008Y109492D01*
X1233008Y114508D01*
X1245524Y114508D01*
X1245524Y111633D02*
X1233008Y111633D01*
X1233008Y113774D02*
X1245524Y113774D01*
X1245524Y119492D02*
X1245524Y124508D01*
X1245524Y119492D02*
X1233008Y119492D01*
X1233008Y124508D01*
X1245524Y124508D01*
X1245524Y121633D02*
X1233008Y121633D01*
X1233008Y123774D02*
X1245524Y123774D01*
X1245524Y129492D02*
X1245524Y134508D01*
X1245524Y129492D02*
X1233008Y129492D01*
X1233008Y134508D01*
X1245524Y134508D01*
X1245524Y131633D02*
X1233008Y131633D01*
X1233008Y133774D02*
X1245524Y133774D01*
X1245524Y139492D02*
X1245524Y144508D01*
X1245524Y139492D02*
X1233008Y139492D01*
X1233008Y144508D01*
X1245524Y144508D01*
X1245524Y141633D02*
X1233008Y141633D01*
X1233008Y143774D02*
X1245524Y143774D01*
D13*
X1040863Y149493D02*
X1040863Y160507D01*
X1059877Y160507D01*
X1059877Y149493D01*
X1040863Y149493D01*
X1040863Y151636D02*
X1059877Y151636D01*
X1059877Y153779D02*
X1040863Y153779D01*
X1040863Y155922D02*
X1059877Y155922D01*
X1059877Y158065D02*
X1040863Y158065D01*
X1040863Y160208D02*
X1059877Y160208D01*
X1040863Y104507D02*
X1040863Y93493D01*
X1040863Y104507D02*
X1059877Y104507D01*
X1059877Y93493D01*
X1040863Y93493D01*
X1040863Y95636D02*
X1059877Y95636D01*
X1059877Y97779D02*
X1040863Y97779D01*
X1040863Y99922D02*
X1059877Y99922D01*
X1059877Y102065D02*
X1040863Y102065D01*
X1040863Y104208D02*
X1059877Y104208D01*
D14*
X1080862Y139492D02*
X1080862Y144508D01*
X1093378Y144508D01*
X1093378Y139492D01*
X1080862Y139492D01*
X1080862Y141633D02*
X1093378Y141633D01*
X1093378Y143774D02*
X1080862Y143774D01*
X1080862Y134508D02*
X1080862Y129492D01*
X1080862Y134508D02*
X1093378Y134508D01*
X1093378Y129492D01*
X1080862Y129492D01*
X1080862Y131633D02*
X1093378Y131633D01*
X1093378Y133774D02*
X1080862Y133774D01*
X1080862Y124508D02*
X1080862Y119492D01*
X1080862Y124508D02*
X1093378Y124508D01*
X1093378Y119492D01*
X1080862Y119492D01*
X1080862Y121633D02*
X1093378Y121633D01*
X1093378Y123774D02*
X1080862Y123774D01*
X1080862Y114508D02*
X1080862Y109492D01*
X1080862Y114508D02*
X1093378Y114508D01*
X1093378Y109492D01*
X1080862Y109492D01*
X1080862Y111633D02*
X1093378Y111633D01*
X1093378Y113774D02*
X1080862Y113774D01*
D15*
X1276920Y184600D02*
X1283908Y184600D01*
X1276920Y184600D02*
X1276920Y191588D01*
X1283908Y191588D01*
X1283908Y184600D01*
X1283908Y188669D02*
X1276920Y188669D01*
X1276920Y167060D02*
X1283908Y167060D01*
X1276920Y167060D02*
X1276920Y174048D01*
X1283908Y174048D01*
X1283908Y167060D01*
X1283908Y171129D02*
X1276920Y171129D01*
D11*
X1268920Y166324D02*
X1268920Y176340D01*
X1268920Y166324D02*
X1259904Y166324D01*
X1259904Y176340D01*
X1268920Y176340D01*
X1268920Y168465D02*
X1259904Y168465D01*
X1259904Y170606D02*
X1268920Y170606D01*
X1268920Y172747D02*
X1259904Y172747D01*
X1259904Y174888D02*
X1268920Y174888D01*
X1268920Y183324D02*
X1268920Y193340D01*
X1268920Y183324D02*
X1259904Y183324D01*
X1259904Y193340D01*
X1268920Y193340D01*
X1268920Y185465D02*
X1259904Y185465D01*
X1259904Y187606D02*
X1268920Y187606D01*
X1268920Y189747D02*
X1259904Y189747D01*
X1259904Y191888D02*
X1268920Y191888D01*
D10*
X1264920Y228600D03*
D14*
X1135412Y134508D02*
X1135412Y129492D01*
X1135412Y134508D02*
X1140428Y134508D01*
X1140428Y129492D01*
X1135412Y129492D01*
X1135412Y131633D02*
X1140428Y131633D01*
X1140428Y133774D02*
X1135412Y133774D01*
X1135412Y124508D02*
X1135412Y119492D01*
X1135412Y124508D02*
X1140428Y124508D01*
X1140428Y119492D01*
X1135412Y119492D01*
X1135412Y121633D02*
X1140428Y121633D01*
X1140428Y123774D02*
X1135412Y123774D01*
D16*
X1151348Y133638D02*
X1157512Y133638D01*
X1151348Y133638D02*
X1151348Y135602D01*
X1157512Y135602D01*
X1157512Y133638D01*
X1157512Y128638D02*
X1151348Y128638D01*
X1151348Y130602D01*
X1157512Y130602D01*
X1157512Y128638D01*
X1157512Y123638D02*
X1151348Y123638D01*
X1151348Y125602D01*
X1157512Y125602D01*
X1157512Y123638D01*
X1157512Y118638D02*
X1151348Y118638D01*
X1151348Y120602D01*
X1157512Y120602D01*
X1157512Y118638D01*
X1168548Y118638D02*
X1174712Y118638D01*
X1168548Y118638D02*
X1168548Y120602D01*
X1174712Y120602D01*
X1174712Y118638D01*
X1174712Y123638D02*
X1168548Y123638D01*
X1168548Y125602D01*
X1174712Y125602D01*
X1174712Y123638D01*
X1174712Y128638D02*
X1168548Y128638D01*
X1168548Y130602D01*
X1174712Y130602D01*
X1174712Y128638D01*
X1174712Y133638D02*
X1168548Y133638D01*
X1168548Y135602D01*
X1174712Y135602D01*
X1174712Y133638D01*
D11*
X1142428Y85408D02*
X1142428Y75392D01*
X1133412Y75392D01*
X1133412Y85408D01*
X1142428Y85408D01*
X1142428Y77533D02*
X1133412Y77533D01*
X1133412Y79674D02*
X1142428Y79674D01*
X1142428Y81815D02*
X1133412Y81815D01*
X1133412Y83956D02*
X1142428Y83956D01*
X1142428Y92392D02*
X1142428Y102408D01*
X1142428Y92392D02*
X1133412Y92392D01*
X1133412Y102408D01*
X1142428Y102408D01*
X1142428Y94533D02*
X1133412Y94533D01*
X1133412Y96674D02*
X1142428Y96674D01*
X1142428Y98815D02*
X1133412Y98815D01*
X1133412Y100956D02*
X1142428Y100956D01*
D17*
X1112520Y12700D03*
X1137920Y12700D03*
X1163320Y12700D03*
X1188720Y12700D03*
X1214120Y12700D03*
D11*
X1127188Y75392D02*
X1127188Y85408D01*
X1127188Y75392D02*
X1118172Y75392D01*
X1118172Y85408D01*
X1127188Y85408D01*
X1127188Y77533D02*
X1118172Y77533D01*
X1118172Y79674D02*
X1127188Y79674D01*
X1127188Y81815D02*
X1118172Y81815D01*
X1118172Y83956D02*
X1127188Y83956D01*
X1127188Y92392D02*
X1127188Y102408D01*
X1127188Y92392D02*
X1118172Y92392D01*
X1118172Y102408D01*
X1127188Y102408D01*
X1127188Y94533D02*
X1118172Y94533D01*
X1118172Y96674D02*
X1127188Y96674D01*
X1127188Y98815D02*
X1118172Y98815D01*
X1118172Y100956D02*
X1127188Y100956D01*
D10*
X1320800Y228600D03*
X1320800Y25400D03*
X1524000Y25400D03*
D11*
X1470978Y130492D02*
X1470978Y140508D01*
X1479994Y140508D01*
X1479994Y130492D01*
X1470978Y130492D01*
X1470978Y132633D02*
X1479994Y132633D01*
X1479994Y134774D02*
X1470978Y134774D01*
X1470978Y136915D02*
X1479994Y136915D01*
X1479994Y139056D02*
X1470978Y139056D01*
X1470978Y123508D02*
X1470978Y113492D01*
X1470978Y123508D02*
X1479994Y123508D01*
X1479994Y113492D01*
X1470978Y113492D01*
X1470978Y115633D02*
X1479994Y115633D01*
X1479994Y117774D02*
X1470978Y117774D01*
X1470978Y119915D02*
X1479994Y119915D01*
X1479994Y122056D02*
X1470978Y122056D01*
X1455992Y130492D02*
X1455992Y140508D01*
X1465008Y140508D01*
X1465008Y130492D01*
X1455992Y130492D01*
X1455992Y132633D02*
X1465008Y132633D01*
X1465008Y134774D02*
X1455992Y134774D01*
X1455992Y136915D02*
X1465008Y136915D01*
X1465008Y139056D02*
X1455992Y139056D01*
X1455992Y123508D02*
X1455992Y113492D01*
X1455992Y123508D02*
X1465008Y123508D01*
X1465008Y113492D01*
X1455992Y113492D01*
X1455992Y115633D02*
X1465008Y115633D01*
X1465008Y117774D02*
X1455992Y117774D01*
X1455992Y119915D02*
X1465008Y119915D01*
X1465008Y122056D02*
X1455992Y122056D01*
D12*
X1337310Y195580D03*
X1507744Y55880D03*
D13*
X1544603Y93493D02*
X1544603Y104507D01*
X1544603Y93493D02*
X1525589Y93493D01*
X1525589Y104507D01*
X1544603Y104507D01*
X1544603Y95636D02*
X1525589Y95636D01*
X1525589Y97779D02*
X1544603Y97779D01*
X1544603Y99922D02*
X1525589Y99922D01*
X1525589Y102065D02*
X1544603Y102065D01*
X1544603Y104208D02*
X1525589Y104208D01*
X1544603Y149493D02*
X1544603Y160507D01*
X1544603Y149493D02*
X1525589Y149493D01*
X1525589Y160507D01*
X1544603Y160507D01*
X1544603Y151636D02*
X1525589Y151636D01*
X1525589Y153779D02*
X1544603Y153779D01*
X1544603Y155922D02*
X1525589Y155922D01*
X1525589Y158065D02*
X1544603Y158065D01*
X1544603Y160208D02*
X1525589Y160208D01*
D14*
X1504604Y114508D02*
X1504604Y109492D01*
X1492088Y109492D01*
X1492088Y114508D01*
X1504604Y114508D01*
X1504604Y111633D02*
X1492088Y111633D01*
X1492088Y113774D02*
X1504604Y113774D01*
X1504604Y119492D02*
X1504604Y124508D01*
X1504604Y119492D02*
X1492088Y119492D01*
X1492088Y124508D01*
X1504604Y124508D01*
X1504604Y121633D02*
X1492088Y121633D01*
X1492088Y123774D02*
X1504604Y123774D01*
X1504604Y129492D02*
X1504604Y134508D01*
X1504604Y129492D02*
X1492088Y129492D01*
X1492088Y134508D01*
X1504604Y134508D01*
X1504604Y131633D02*
X1492088Y131633D01*
X1492088Y133774D02*
X1504604Y133774D01*
X1504604Y139492D02*
X1504604Y144508D01*
X1504604Y139492D02*
X1492088Y139492D01*
X1492088Y144508D01*
X1504604Y144508D01*
X1504604Y141633D02*
X1492088Y141633D01*
X1492088Y143774D02*
X1504604Y143774D01*
D13*
X1299943Y149493D02*
X1299943Y160507D01*
X1318957Y160507D01*
X1318957Y149493D01*
X1299943Y149493D01*
X1299943Y151636D02*
X1318957Y151636D01*
X1318957Y153779D02*
X1299943Y153779D01*
X1299943Y155922D02*
X1318957Y155922D01*
X1318957Y158065D02*
X1299943Y158065D01*
X1299943Y160208D02*
X1318957Y160208D01*
X1299943Y104507D02*
X1299943Y93493D01*
X1299943Y104507D02*
X1318957Y104507D01*
X1318957Y93493D01*
X1299943Y93493D01*
X1299943Y95636D02*
X1318957Y95636D01*
X1318957Y97779D02*
X1299943Y97779D01*
X1299943Y99922D02*
X1318957Y99922D01*
X1318957Y102065D02*
X1299943Y102065D01*
X1299943Y104208D02*
X1318957Y104208D01*
D14*
X1339942Y139492D02*
X1339942Y144508D01*
X1352458Y144508D01*
X1352458Y139492D01*
X1339942Y139492D01*
X1339942Y141633D02*
X1352458Y141633D01*
X1352458Y143774D02*
X1339942Y143774D01*
X1339942Y134508D02*
X1339942Y129492D01*
X1339942Y134508D02*
X1352458Y134508D01*
X1352458Y129492D01*
X1339942Y129492D01*
X1339942Y131633D02*
X1352458Y131633D01*
X1352458Y133774D02*
X1339942Y133774D01*
X1339942Y124508D02*
X1339942Y119492D01*
X1339942Y124508D02*
X1352458Y124508D01*
X1352458Y119492D01*
X1339942Y119492D01*
X1339942Y121633D02*
X1352458Y121633D01*
X1352458Y123774D02*
X1339942Y123774D01*
X1339942Y114508D02*
X1339942Y109492D01*
X1339942Y114508D02*
X1352458Y114508D01*
X1352458Y109492D01*
X1339942Y109492D01*
X1339942Y111633D02*
X1352458Y111633D01*
X1352458Y113774D02*
X1339942Y113774D01*
D15*
X1536000Y184600D02*
X1542988Y184600D01*
X1536000Y184600D02*
X1536000Y191588D01*
X1542988Y191588D01*
X1542988Y184600D01*
X1542988Y188669D02*
X1536000Y188669D01*
X1536000Y167060D02*
X1542988Y167060D01*
X1536000Y167060D02*
X1536000Y174048D01*
X1542988Y174048D01*
X1542988Y167060D01*
X1542988Y171129D02*
X1536000Y171129D01*
D11*
X1528000Y166324D02*
X1528000Y176340D01*
X1528000Y166324D02*
X1518984Y166324D01*
X1518984Y176340D01*
X1528000Y176340D01*
X1528000Y168465D02*
X1518984Y168465D01*
X1518984Y170606D02*
X1528000Y170606D01*
X1528000Y172747D02*
X1518984Y172747D01*
X1518984Y174888D02*
X1528000Y174888D01*
X1528000Y183324D02*
X1528000Y193340D01*
X1528000Y183324D02*
X1518984Y183324D01*
X1518984Y193340D01*
X1528000Y193340D01*
X1528000Y185465D02*
X1518984Y185465D01*
X1518984Y187606D02*
X1528000Y187606D01*
X1528000Y189747D02*
X1518984Y189747D01*
X1518984Y191888D02*
X1528000Y191888D01*
D10*
X1524000Y228600D03*
D14*
X1394492Y134508D02*
X1394492Y129492D01*
X1394492Y134508D02*
X1399508Y134508D01*
X1399508Y129492D01*
X1394492Y129492D01*
X1394492Y131633D02*
X1399508Y131633D01*
X1399508Y133774D02*
X1394492Y133774D01*
X1394492Y124508D02*
X1394492Y119492D01*
X1394492Y124508D02*
X1399508Y124508D01*
X1399508Y119492D01*
X1394492Y119492D01*
X1394492Y121633D02*
X1399508Y121633D01*
X1399508Y123774D02*
X1394492Y123774D01*
D16*
X1410428Y133638D02*
X1416592Y133638D01*
X1410428Y133638D02*
X1410428Y135602D01*
X1416592Y135602D01*
X1416592Y133638D01*
X1416592Y128638D02*
X1410428Y128638D01*
X1410428Y130602D01*
X1416592Y130602D01*
X1416592Y128638D01*
X1416592Y123638D02*
X1410428Y123638D01*
X1410428Y125602D01*
X1416592Y125602D01*
X1416592Y123638D01*
X1416592Y118638D02*
X1410428Y118638D01*
X1410428Y120602D01*
X1416592Y120602D01*
X1416592Y118638D01*
X1427628Y118638D02*
X1433792Y118638D01*
X1427628Y118638D02*
X1427628Y120602D01*
X1433792Y120602D01*
X1433792Y118638D01*
X1433792Y123638D02*
X1427628Y123638D01*
X1427628Y125602D01*
X1433792Y125602D01*
X1433792Y123638D01*
X1433792Y128638D02*
X1427628Y128638D01*
X1427628Y130602D01*
X1433792Y130602D01*
X1433792Y128638D01*
X1433792Y133638D02*
X1427628Y133638D01*
X1427628Y135602D01*
X1433792Y135602D01*
X1433792Y133638D01*
D11*
X1401508Y85408D02*
X1401508Y75392D01*
X1392492Y75392D01*
X1392492Y85408D01*
X1401508Y85408D01*
X1401508Y77533D02*
X1392492Y77533D01*
X1392492Y79674D02*
X1401508Y79674D01*
X1401508Y81815D02*
X1392492Y81815D01*
X1392492Y83956D02*
X1401508Y83956D01*
X1401508Y92392D02*
X1401508Y102408D01*
X1401508Y92392D02*
X1392492Y92392D01*
X1392492Y102408D01*
X1401508Y102408D01*
X1401508Y94533D02*
X1392492Y94533D01*
X1392492Y96674D02*
X1401508Y96674D01*
X1401508Y98815D02*
X1392492Y98815D01*
X1392492Y100956D02*
X1401508Y100956D01*
D17*
X1371600Y12700D03*
X1397000Y12700D03*
X1422400Y12700D03*
X1447800Y12700D03*
X1473200Y12700D03*
D11*
X1386268Y75392D02*
X1386268Y85408D01*
X1386268Y75392D02*
X1377252Y75392D01*
X1377252Y85408D01*
X1386268Y85408D01*
X1386268Y77533D02*
X1377252Y77533D01*
X1377252Y79674D02*
X1386268Y79674D01*
X1386268Y81815D02*
X1377252Y81815D01*
X1377252Y83956D02*
X1386268Y83956D01*
X1386268Y92392D02*
X1386268Y102408D01*
X1386268Y92392D02*
X1377252Y92392D01*
X1377252Y102408D01*
X1386268Y102408D01*
X1386268Y94533D02*
X1377252Y94533D01*
X1377252Y96674D02*
X1386268Y96674D01*
X1386268Y98815D02*
X1377252Y98815D01*
X1377252Y100956D02*
X1386268Y100956D01*
D10*
X25400Y487680D03*
X25400Y284480D03*
X228600Y284480D03*
D11*
X175578Y389572D02*
X175578Y399588D01*
X184594Y399588D01*
X184594Y389572D01*
X175578Y389572D01*
X175578Y391713D02*
X184594Y391713D01*
X184594Y393854D02*
X175578Y393854D01*
X175578Y395995D02*
X184594Y395995D01*
X184594Y398136D02*
X175578Y398136D01*
X175578Y382588D02*
X175578Y372572D01*
X175578Y382588D02*
X184594Y382588D01*
X184594Y372572D01*
X175578Y372572D01*
X175578Y374713D02*
X184594Y374713D01*
X184594Y376854D02*
X175578Y376854D01*
X175578Y378995D02*
X184594Y378995D01*
X184594Y381136D02*
X175578Y381136D01*
X160592Y389572D02*
X160592Y399588D01*
X169608Y399588D01*
X169608Y389572D01*
X160592Y389572D01*
X160592Y391713D02*
X169608Y391713D01*
X169608Y393854D02*
X160592Y393854D01*
X160592Y395995D02*
X169608Y395995D01*
X169608Y398136D02*
X160592Y398136D01*
X160592Y382588D02*
X160592Y372572D01*
X160592Y382588D02*
X169608Y382588D01*
X169608Y372572D01*
X160592Y372572D01*
X160592Y374713D02*
X169608Y374713D01*
X169608Y376854D02*
X160592Y376854D01*
X160592Y378995D02*
X169608Y378995D01*
X169608Y381136D02*
X160592Y381136D01*
D12*
X41910Y454660D03*
X212344Y314960D03*
D13*
X249203Y352573D02*
X249203Y363587D01*
X249203Y352573D02*
X230189Y352573D01*
X230189Y363587D01*
X249203Y363587D01*
X249203Y354716D02*
X230189Y354716D01*
X230189Y356859D02*
X249203Y356859D01*
X249203Y359002D02*
X230189Y359002D01*
X230189Y361145D02*
X249203Y361145D01*
X249203Y363288D02*
X230189Y363288D01*
X249203Y408573D02*
X249203Y419587D01*
X249203Y408573D02*
X230189Y408573D01*
X230189Y419587D01*
X249203Y419587D01*
X249203Y410716D02*
X230189Y410716D01*
X230189Y412859D02*
X249203Y412859D01*
X249203Y415002D02*
X230189Y415002D01*
X230189Y417145D02*
X249203Y417145D01*
X249203Y419288D02*
X230189Y419288D01*
D14*
X209204Y373588D02*
X209204Y368572D01*
X196688Y368572D01*
X196688Y373588D01*
X209204Y373588D01*
X209204Y370713D02*
X196688Y370713D01*
X196688Y372854D02*
X209204Y372854D01*
X209204Y378572D02*
X209204Y383588D01*
X209204Y378572D02*
X196688Y378572D01*
X196688Y383588D01*
X209204Y383588D01*
X209204Y380713D02*
X196688Y380713D01*
X196688Y382854D02*
X209204Y382854D01*
X209204Y388572D02*
X209204Y393588D01*
X209204Y388572D02*
X196688Y388572D01*
X196688Y393588D01*
X209204Y393588D01*
X209204Y390713D02*
X196688Y390713D01*
X196688Y392854D02*
X209204Y392854D01*
X209204Y398572D02*
X209204Y403588D01*
X209204Y398572D02*
X196688Y398572D01*
X196688Y403588D01*
X209204Y403588D01*
X209204Y400713D02*
X196688Y400713D01*
X196688Y402854D02*
X209204Y402854D01*
D13*
X4543Y408573D02*
X4543Y419587D01*
X23557Y419587D01*
X23557Y408573D01*
X4543Y408573D01*
X4543Y410716D02*
X23557Y410716D01*
X23557Y412859D02*
X4543Y412859D01*
X4543Y415002D02*
X23557Y415002D01*
X23557Y417145D02*
X4543Y417145D01*
X4543Y419288D02*
X23557Y419288D01*
X4543Y363587D02*
X4543Y352573D01*
X4543Y363587D02*
X23557Y363587D01*
X23557Y352573D01*
X4543Y352573D01*
X4543Y354716D02*
X23557Y354716D01*
X23557Y356859D02*
X4543Y356859D01*
X4543Y359002D02*
X23557Y359002D01*
X23557Y361145D02*
X4543Y361145D01*
X4543Y363288D02*
X23557Y363288D01*
D14*
X44542Y398572D02*
X44542Y403588D01*
X57058Y403588D01*
X57058Y398572D01*
X44542Y398572D01*
X44542Y400713D02*
X57058Y400713D01*
X57058Y402854D02*
X44542Y402854D01*
X44542Y393588D02*
X44542Y388572D01*
X44542Y393588D02*
X57058Y393588D01*
X57058Y388572D01*
X44542Y388572D01*
X44542Y390713D02*
X57058Y390713D01*
X57058Y392854D02*
X44542Y392854D01*
X44542Y383588D02*
X44542Y378572D01*
X44542Y383588D02*
X57058Y383588D01*
X57058Y378572D01*
X44542Y378572D01*
X44542Y380713D02*
X57058Y380713D01*
X57058Y382854D02*
X44542Y382854D01*
X44542Y373588D02*
X44542Y368572D01*
X44542Y373588D02*
X57058Y373588D01*
X57058Y368572D01*
X44542Y368572D01*
X44542Y370713D02*
X57058Y370713D01*
X57058Y372854D02*
X44542Y372854D01*
D15*
X240600Y443680D02*
X247588Y443680D01*
X240600Y443680D02*
X240600Y450668D01*
X247588Y450668D01*
X247588Y443680D01*
X247588Y447749D02*
X240600Y447749D01*
X240600Y426140D02*
X247588Y426140D01*
X240600Y426140D02*
X240600Y433128D01*
X247588Y433128D01*
X247588Y426140D01*
X247588Y430209D02*
X240600Y430209D01*
D11*
X232600Y425404D02*
X232600Y435420D01*
X232600Y425404D02*
X223584Y425404D01*
X223584Y435420D01*
X232600Y435420D01*
X232600Y427545D02*
X223584Y427545D01*
X223584Y429686D02*
X232600Y429686D01*
X232600Y431827D02*
X223584Y431827D01*
X223584Y433968D02*
X232600Y433968D01*
X232600Y442404D02*
X232600Y452420D01*
X232600Y442404D02*
X223584Y442404D01*
X223584Y452420D01*
X232600Y452420D01*
X232600Y444545D02*
X223584Y444545D01*
X223584Y446686D02*
X232600Y446686D01*
X232600Y448827D02*
X223584Y448827D01*
X223584Y450968D02*
X232600Y450968D01*
D10*
X228600Y487680D03*
D14*
X99092Y393588D02*
X99092Y388572D01*
X99092Y393588D02*
X104108Y393588D01*
X104108Y388572D01*
X99092Y388572D01*
X99092Y390713D02*
X104108Y390713D01*
X104108Y392854D02*
X99092Y392854D01*
X99092Y383588D02*
X99092Y378572D01*
X99092Y383588D02*
X104108Y383588D01*
X104108Y378572D01*
X99092Y378572D01*
X99092Y380713D02*
X104108Y380713D01*
X104108Y382854D02*
X99092Y382854D01*
D16*
X115028Y392718D02*
X121192Y392718D01*
X115028Y392718D02*
X115028Y394682D01*
X121192Y394682D01*
X121192Y392718D01*
X121192Y387718D02*
X115028Y387718D01*
X115028Y389682D01*
X121192Y389682D01*
X121192Y387718D01*
X121192Y382718D02*
X115028Y382718D01*
X115028Y384682D01*
X121192Y384682D01*
X121192Y382718D01*
X121192Y377718D02*
X115028Y377718D01*
X115028Y379682D01*
X121192Y379682D01*
X121192Y377718D01*
X132228Y377718D02*
X138392Y377718D01*
X132228Y377718D02*
X132228Y379682D01*
X138392Y379682D01*
X138392Y377718D01*
X138392Y382718D02*
X132228Y382718D01*
X132228Y384682D01*
X138392Y384682D01*
X138392Y382718D01*
X138392Y387718D02*
X132228Y387718D01*
X132228Y389682D01*
X138392Y389682D01*
X138392Y387718D01*
X138392Y392718D02*
X132228Y392718D01*
X132228Y394682D01*
X138392Y394682D01*
X138392Y392718D01*
D11*
X106108Y344488D02*
X106108Y334472D01*
X97092Y334472D01*
X97092Y344488D01*
X106108Y344488D01*
X106108Y336613D02*
X97092Y336613D01*
X97092Y338754D02*
X106108Y338754D01*
X106108Y340895D02*
X97092Y340895D01*
X97092Y343036D02*
X106108Y343036D01*
X106108Y351472D02*
X106108Y361488D01*
X106108Y351472D02*
X97092Y351472D01*
X97092Y361488D01*
X106108Y361488D01*
X106108Y353613D02*
X97092Y353613D01*
X97092Y355754D02*
X106108Y355754D01*
X106108Y357895D02*
X97092Y357895D01*
X97092Y360036D02*
X106108Y360036D01*
D17*
X76200Y271780D03*
X101600Y271780D03*
X127000Y271780D03*
X152400Y271780D03*
X177800Y271780D03*
D11*
X90868Y334472D02*
X90868Y344488D01*
X90868Y334472D02*
X81852Y334472D01*
X81852Y344488D01*
X90868Y344488D01*
X90868Y336613D02*
X81852Y336613D01*
X81852Y338754D02*
X90868Y338754D01*
X90868Y340895D02*
X81852Y340895D01*
X81852Y343036D02*
X90868Y343036D01*
X90868Y351472D02*
X90868Y361488D01*
X90868Y351472D02*
X81852Y351472D01*
X81852Y361488D01*
X90868Y361488D01*
X90868Y353613D02*
X81852Y353613D01*
X81852Y355754D02*
X90868Y355754D01*
X90868Y357895D02*
X81852Y357895D01*
X81852Y360036D02*
X90868Y360036D01*
D10*
X284480Y487680D03*
X284480Y284480D03*
X487680Y284480D03*
D11*
X434658Y389572D02*
X434658Y399588D01*
X443674Y399588D01*
X443674Y389572D01*
X434658Y389572D01*
X434658Y391713D02*
X443674Y391713D01*
X443674Y393854D02*
X434658Y393854D01*
X434658Y395995D02*
X443674Y395995D01*
X443674Y398136D02*
X434658Y398136D01*
X434658Y382588D02*
X434658Y372572D01*
X434658Y382588D02*
X443674Y382588D01*
X443674Y372572D01*
X434658Y372572D01*
X434658Y374713D02*
X443674Y374713D01*
X443674Y376854D02*
X434658Y376854D01*
X434658Y378995D02*
X443674Y378995D01*
X443674Y381136D02*
X434658Y381136D01*
X419672Y389572D02*
X419672Y399588D01*
X428688Y399588D01*
X428688Y389572D01*
X419672Y389572D01*
X419672Y391713D02*
X428688Y391713D01*
X428688Y393854D02*
X419672Y393854D01*
X419672Y395995D02*
X428688Y395995D01*
X428688Y398136D02*
X419672Y398136D01*
X419672Y382588D02*
X419672Y372572D01*
X419672Y382588D02*
X428688Y382588D01*
X428688Y372572D01*
X419672Y372572D01*
X419672Y374713D02*
X428688Y374713D01*
X428688Y376854D02*
X419672Y376854D01*
X419672Y378995D02*
X428688Y378995D01*
X428688Y381136D02*
X419672Y381136D01*
D12*
X300990Y454660D03*
X471424Y314960D03*
D13*
X508283Y352573D02*
X508283Y363587D01*
X508283Y352573D02*
X489269Y352573D01*
X489269Y363587D01*
X508283Y363587D01*
X508283Y354716D02*
X489269Y354716D01*
X489269Y356859D02*
X508283Y356859D01*
X508283Y359002D02*
X489269Y359002D01*
X489269Y361145D02*
X508283Y361145D01*
X508283Y363288D02*
X489269Y363288D01*
X508283Y408573D02*
X508283Y419587D01*
X508283Y408573D02*
X489269Y408573D01*
X489269Y419587D01*
X508283Y419587D01*
X508283Y410716D02*
X489269Y410716D01*
X489269Y412859D02*
X508283Y412859D01*
X508283Y415002D02*
X489269Y415002D01*
X489269Y417145D02*
X508283Y417145D01*
X508283Y419288D02*
X489269Y419288D01*
D14*
X468284Y373588D02*
X468284Y368572D01*
X455768Y368572D01*
X455768Y373588D01*
X468284Y373588D01*
X468284Y370713D02*
X455768Y370713D01*
X455768Y372854D02*
X468284Y372854D01*
X468284Y378572D02*
X468284Y383588D01*
X468284Y378572D02*
X455768Y378572D01*
X455768Y383588D01*
X468284Y383588D01*
X468284Y380713D02*
X455768Y380713D01*
X455768Y382854D02*
X468284Y382854D01*
X468284Y388572D02*
X468284Y393588D01*
X468284Y388572D02*
X455768Y388572D01*
X455768Y393588D01*
X468284Y393588D01*
X468284Y390713D02*
X455768Y390713D01*
X455768Y392854D02*
X468284Y392854D01*
X468284Y398572D02*
X468284Y403588D01*
X468284Y398572D02*
X455768Y398572D01*
X455768Y403588D01*
X468284Y403588D01*
X468284Y400713D02*
X455768Y400713D01*
X455768Y402854D02*
X468284Y402854D01*
D13*
X263623Y408573D02*
X263623Y419587D01*
X282637Y419587D01*
X282637Y408573D01*
X263623Y408573D01*
X263623Y410716D02*
X282637Y410716D01*
X282637Y412859D02*
X263623Y412859D01*
X263623Y415002D02*
X282637Y415002D01*
X282637Y417145D02*
X263623Y417145D01*
X263623Y419288D02*
X282637Y419288D01*
X263623Y363587D02*
X263623Y352573D01*
X263623Y363587D02*
X282637Y363587D01*
X282637Y352573D01*
X263623Y352573D01*
X263623Y354716D02*
X282637Y354716D01*
X282637Y356859D02*
X263623Y356859D01*
X263623Y359002D02*
X282637Y359002D01*
X282637Y361145D02*
X263623Y361145D01*
X263623Y363288D02*
X282637Y363288D01*
D14*
X303622Y398572D02*
X303622Y403588D01*
X316138Y403588D01*
X316138Y398572D01*
X303622Y398572D01*
X303622Y400713D02*
X316138Y400713D01*
X316138Y402854D02*
X303622Y402854D01*
X303622Y393588D02*
X303622Y388572D01*
X303622Y393588D02*
X316138Y393588D01*
X316138Y388572D01*
X303622Y388572D01*
X303622Y390713D02*
X316138Y390713D01*
X316138Y392854D02*
X303622Y392854D01*
X303622Y383588D02*
X303622Y378572D01*
X303622Y383588D02*
X316138Y383588D01*
X316138Y378572D01*
X303622Y378572D01*
X303622Y380713D02*
X316138Y380713D01*
X316138Y382854D02*
X303622Y382854D01*
X303622Y373588D02*
X303622Y368572D01*
X303622Y373588D02*
X316138Y373588D01*
X316138Y368572D01*
X303622Y368572D01*
X303622Y370713D02*
X316138Y370713D01*
X316138Y372854D02*
X303622Y372854D01*
D15*
X499680Y443680D02*
X506668Y443680D01*
X499680Y443680D02*
X499680Y450668D01*
X506668Y450668D01*
X506668Y443680D01*
X506668Y447749D02*
X499680Y447749D01*
X499680Y426140D02*
X506668Y426140D01*
X499680Y426140D02*
X499680Y433128D01*
X506668Y433128D01*
X506668Y426140D01*
X506668Y430209D02*
X499680Y430209D01*
D11*
X491680Y425404D02*
X491680Y435420D01*
X491680Y425404D02*
X482664Y425404D01*
X482664Y435420D01*
X491680Y435420D01*
X491680Y427545D02*
X482664Y427545D01*
X482664Y429686D02*
X491680Y429686D01*
X491680Y431827D02*
X482664Y431827D01*
X482664Y433968D02*
X491680Y433968D01*
X491680Y442404D02*
X491680Y452420D01*
X491680Y442404D02*
X482664Y442404D01*
X482664Y452420D01*
X491680Y452420D01*
X491680Y444545D02*
X482664Y444545D01*
X482664Y446686D02*
X491680Y446686D01*
X491680Y448827D02*
X482664Y448827D01*
X482664Y450968D02*
X491680Y450968D01*
D10*
X487680Y487680D03*
D14*
X358172Y393588D02*
X358172Y388572D01*
X358172Y393588D02*
X363188Y393588D01*
X363188Y388572D01*
X358172Y388572D01*
X358172Y390713D02*
X363188Y390713D01*
X363188Y392854D02*
X358172Y392854D01*
X358172Y383588D02*
X358172Y378572D01*
X358172Y383588D02*
X363188Y383588D01*
X363188Y378572D01*
X358172Y378572D01*
X358172Y380713D02*
X363188Y380713D01*
X363188Y382854D02*
X358172Y382854D01*
D16*
X374108Y392718D02*
X380272Y392718D01*
X374108Y392718D02*
X374108Y394682D01*
X380272Y394682D01*
X380272Y392718D01*
X380272Y387718D02*
X374108Y387718D01*
X374108Y389682D01*
X380272Y389682D01*
X380272Y387718D01*
X380272Y382718D02*
X374108Y382718D01*
X374108Y384682D01*
X380272Y384682D01*
X380272Y382718D01*
X380272Y377718D02*
X374108Y377718D01*
X374108Y379682D01*
X380272Y379682D01*
X380272Y377718D01*
X391308Y377718D02*
X397472Y377718D01*
X391308Y377718D02*
X391308Y379682D01*
X397472Y379682D01*
X397472Y377718D01*
X397472Y382718D02*
X391308Y382718D01*
X391308Y384682D01*
X397472Y384682D01*
X397472Y382718D01*
X397472Y387718D02*
X391308Y387718D01*
X391308Y389682D01*
X397472Y389682D01*
X397472Y387718D01*
X397472Y392718D02*
X391308Y392718D01*
X391308Y394682D01*
X397472Y394682D01*
X397472Y392718D01*
D11*
X365188Y344488D02*
X365188Y334472D01*
X356172Y334472D01*
X356172Y344488D01*
X365188Y344488D01*
X365188Y336613D02*
X356172Y336613D01*
X356172Y338754D02*
X365188Y338754D01*
X365188Y340895D02*
X356172Y340895D01*
X356172Y343036D02*
X365188Y343036D01*
X365188Y351472D02*
X365188Y361488D01*
X365188Y351472D02*
X356172Y351472D01*
X356172Y361488D01*
X365188Y361488D01*
X365188Y353613D02*
X356172Y353613D01*
X356172Y355754D02*
X365188Y355754D01*
X365188Y357895D02*
X356172Y357895D01*
X356172Y360036D02*
X365188Y360036D01*
D17*
X335280Y271780D03*
X360680Y271780D03*
X386080Y271780D03*
X411480Y271780D03*
X436880Y271780D03*
D11*
X349948Y334472D02*
X349948Y344488D01*
X349948Y334472D02*
X340932Y334472D01*
X340932Y344488D01*
X349948Y344488D01*
X349948Y336613D02*
X340932Y336613D01*
X340932Y338754D02*
X349948Y338754D01*
X349948Y340895D02*
X340932Y340895D01*
X340932Y343036D02*
X349948Y343036D01*
X349948Y351472D02*
X349948Y361488D01*
X349948Y351472D02*
X340932Y351472D01*
X340932Y361488D01*
X349948Y361488D01*
X349948Y353613D02*
X340932Y353613D01*
X340932Y355754D02*
X349948Y355754D01*
X349948Y357895D02*
X340932Y357895D01*
X340932Y360036D02*
X349948Y360036D01*
D10*
X543560Y487680D03*
X543560Y284480D03*
X746760Y284480D03*
D11*
X693738Y389572D02*
X693738Y399588D01*
X702754Y399588D01*
X702754Y389572D01*
X693738Y389572D01*
X693738Y391713D02*
X702754Y391713D01*
X702754Y393854D02*
X693738Y393854D01*
X693738Y395995D02*
X702754Y395995D01*
X702754Y398136D02*
X693738Y398136D01*
X693738Y382588D02*
X693738Y372572D01*
X693738Y382588D02*
X702754Y382588D01*
X702754Y372572D01*
X693738Y372572D01*
X693738Y374713D02*
X702754Y374713D01*
X702754Y376854D02*
X693738Y376854D01*
X693738Y378995D02*
X702754Y378995D01*
X702754Y381136D02*
X693738Y381136D01*
X678752Y389572D02*
X678752Y399588D01*
X687768Y399588D01*
X687768Y389572D01*
X678752Y389572D01*
X678752Y391713D02*
X687768Y391713D01*
X687768Y393854D02*
X678752Y393854D01*
X678752Y395995D02*
X687768Y395995D01*
X687768Y398136D02*
X678752Y398136D01*
X678752Y382588D02*
X678752Y372572D01*
X678752Y382588D02*
X687768Y382588D01*
X687768Y372572D01*
X678752Y372572D01*
X678752Y374713D02*
X687768Y374713D01*
X687768Y376854D02*
X678752Y376854D01*
X678752Y378995D02*
X687768Y378995D01*
X687768Y381136D02*
X678752Y381136D01*
D12*
X560070Y454660D03*
X730504Y314960D03*
D13*
X767363Y352573D02*
X767363Y363587D01*
X767363Y352573D02*
X748349Y352573D01*
X748349Y363587D01*
X767363Y363587D01*
X767363Y354716D02*
X748349Y354716D01*
X748349Y356859D02*
X767363Y356859D01*
X767363Y359002D02*
X748349Y359002D01*
X748349Y361145D02*
X767363Y361145D01*
X767363Y363288D02*
X748349Y363288D01*
X767363Y408573D02*
X767363Y419587D01*
X767363Y408573D02*
X748349Y408573D01*
X748349Y419587D01*
X767363Y419587D01*
X767363Y410716D02*
X748349Y410716D01*
X748349Y412859D02*
X767363Y412859D01*
X767363Y415002D02*
X748349Y415002D01*
X748349Y417145D02*
X767363Y417145D01*
X767363Y419288D02*
X748349Y419288D01*
D14*
X727364Y373588D02*
X727364Y368572D01*
X714848Y368572D01*
X714848Y373588D01*
X727364Y373588D01*
X727364Y370713D02*
X714848Y370713D01*
X714848Y372854D02*
X727364Y372854D01*
X727364Y378572D02*
X727364Y383588D01*
X727364Y378572D02*
X714848Y378572D01*
X714848Y383588D01*
X727364Y383588D01*
X727364Y380713D02*
X714848Y380713D01*
X714848Y382854D02*
X727364Y382854D01*
X727364Y388572D02*
X727364Y393588D01*
X727364Y388572D02*
X714848Y388572D01*
X714848Y393588D01*
X727364Y393588D01*
X727364Y390713D02*
X714848Y390713D01*
X714848Y392854D02*
X727364Y392854D01*
X727364Y398572D02*
X727364Y403588D01*
X727364Y398572D02*
X714848Y398572D01*
X714848Y403588D01*
X727364Y403588D01*
X727364Y400713D02*
X714848Y400713D01*
X714848Y402854D02*
X727364Y402854D01*
D13*
X522703Y408573D02*
X522703Y419587D01*
X541717Y419587D01*
X541717Y408573D01*
X522703Y408573D01*
X522703Y410716D02*
X541717Y410716D01*
X541717Y412859D02*
X522703Y412859D01*
X522703Y415002D02*
X541717Y415002D01*
X541717Y417145D02*
X522703Y417145D01*
X522703Y419288D02*
X541717Y419288D01*
X522703Y363587D02*
X522703Y352573D01*
X522703Y363587D02*
X541717Y363587D01*
X541717Y352573D01*
X522703Y352573D01*
X522703Y354716D02*
X541717Y354716D01*
X541717Y356859D02*
X522703Y356859D01*
X522703Y359002D02*
X541717Y359002D01*
X541717Y361145D02*
X522703Y361145D01*
X522703Y363288D02*
X541717Y363288D01*
D14*
X562702Y398572D02*
X562702Y403588D01*
X575218Y403588D01*
X575218Y398572D01*
X562702Y398572D01*
X562702Y400713D02*
X575218Y400713D01*
X575218Y402854D02*
X562702Y402854D01*
X562702Y393588D02*
X562702Y388572D01*
X562702Y393588D02*
X575218Y393588D01*
X575218Y388572D01*
X562702Y388572D01*
X562702Y390713D02*
X575218Y390713D01*
X575218Y392854D02*
X562702Y392854D01*
X562702Y383588D02*
X562702Y378572D01*
X562702Y383588D02*
X575218Y383588D01*
X575218Y378572D01*
X562702Y378572D01*
X562702Y380713D02*
X575218Y380713D01*
X575218Y382854D02*
X562702Y382854D01*
X562702Y373588D02*
X562702Y368572D01*
X562702Y373588D02*
X575218Y373588D01*
X575218Y368572D01*
X562702Y368572D01*
X562702Y370713D02*
X575218Y370713D01*
X575218Y372854D02*
X562702Y372854D01*
D15*
X758760Y443680D02*
X765748Y443680D01*
X758760Y443680D02*
X758760Y450668D01*
X765748Y450668D01*
X765748Y443680D01*
X765748Y447749D02*
X758760Y447749D01*
X758760Y426140D02*
X765748Y426140D01*
X758760Y426140D02*
X758760Y433128D01*
X765748Y433128D01*
X765748Y426140D01*
X765748Y430209D02*
X758760Y430209D01*
D11*
X750760Y425404D02*
X750760Y435420D01*
X750760Y425404D02*
X741744Y425404D01*
X741744Y435420D01*
X750760Y435420D01*
X750760Y427545D02*
X741744Y427545D01*
X741744Y429686D02*
X750760Y429686D01*
X750760Y431827D02*
X741744Y431827D01*
X741744Y433968D02*
X750760Y433968D01*
X750760Y442404D02*
X750760Y452420D01*
X750760Y442404D02*
X741744Y442404D01*
X741744Y452420D01*
X750760Y452420D01*
X750760Y444545D02*
X741744Y444545D01*
X741744Y446686D02*
X750760Y446686D01*
X750760Y448827D02*
X741744Y448827D01*
X741744Y450968D02*
X750760Y450968D01*
D10*
X746760Y487680D03*
D14*
X617252Y393588D02*
X617252Y388572D01*
X617252Y393588D02*
X622268Y393588D01*
X622268Y388572D01*
X617252Y388572D01*
X617252Y390713D02*
X622268Y390713D01*
X622268Y392854D02*
X617252Y392854D01*
X617252Y383588D02*
X617252Y378572D01*
X617252Y383588D02*
X622268Y383588D01*
X622268Y378572D01*
X617252Y378572D01*
X617252Y380713D02*
X622268Y380713D01*
X622268Y382854D02*
X617252Y382854D01*
D16*
X633188Y392718D02*
X639352Y392718D01*
X633188Y392718D02*
X633188Y394682D01*
X639352Y394682D01*
X639352Y392718D01*
X639352Y387718D02*
X633188Y387718D01*
X633188Y389682D01*
X639352Y389682D01*
X639352Y387718D01*
X639352Y382718D02*
X633188Y382718D01*
X633188Y384682D01*
X639352Y384682D01*
X639352Y382718D01*
X639352Y377718D02*
X633188Y377718D01*
X633188Y379682D01*
X639352Y379682D01*
X639352Y377718D01*
X650388Y377718D02*
X656552Y377718D01*
X650388Y377718D02*
X650388Y379682D01*
X656552Y379682D01*
X656552Y377718D01*
X656552Y382718D02*
X650388Y382718D01*
X650388Y384682D01*
X656552Y384682D01*
X656552Y382718D01*
X656552Y387718D02*
X650388Y387718D01*
X650388Y389682D01*
X656552Y389682D01*
X656552Y387718D01*
X656552Y392718D02*
X650388Y392718D01*
X650388Y394682D01*
X656552Y394682D01*
X656552Y392718D01*
D11*
X624268Y344488D02*
X624268Y334472D01*
X615252Y334472D01*
X615252Y344488D01*
X624268Y344488D01*
X624268Y336613D02*
X615252Y336613D01*
X615252Y338754D02*
X624268Y338754D01*
X624268Y340895D02*
X615252Y340895D01*
X615252Y343036D02*
X624268Y343036D01*
X624268Y351472D02*
X624268Y361488D01*
X624268Y351472D02*
X615252Y351472D01*
X615252Y361488D01*
X624268Y361488D01*
X624268Y353613D02*
X615252Y353613D01*
X615252Y355754D02*
X624268Y355754D01*
X624268Y357895D02*
X615252Y357895D01*
X615252Y360036D02*
X624268Y360036D01*
D17*
X594360Y271780D03*
X619760Y271780D03*
X645160Y271780D03*
X670560Y271780D03*
X695960Y271780D03*
D11*
X609028Y334472D02*
X609028Y344488D01*
X609028Y334472D02*
X600012Y334472D01*
X600012Y344488D01*
X609028Y344488D01*
X609028Y336613D02*
X600012Y336613D01*
X600012Y338754D02*
X609028Y338754D01*
X609028Y340895D02*
X600012Y340895D01*
X600012Y343036D02*
X609028Y343036D01*
X609028Y351472D02*
X609028Y361488D01*
X609028Y351472D02*
X600012Y351472D01*
X600012Y361488D01*
X609028Y361488D01*
X609028Y353613D02*
X600012Y353613D01*
X600012Y355754D02*
X609028Y355754D01*
X609028Y357895D02*
X600012Y357895D01*
X600012Y360036D02*
X609028Y360036D01*
D10*
X802640Y487680D03*
X802640Y284480D03*
X1005840Y284480D03*
D11*
X952818Y389572D02*
X952818Y399588D01*
X961834Y399588D01*
X961834Y389572D01*
X952818Y389572D01*
X952818Y391713D02*
X961834Y391713D01*
X961834Y393854D02*
X952818Y393854D01*
X952818Y395995D02*
X961834Y395995D01*
X961834Y398136D02*
X952818Y398136D01*
X952818Y382588D02*
X952818Y372572D01*
X952818Y382588D02*
X961834Y382588D01*
X961834Y372572D01*
X952818Y372572D01*
X952818Y374713D02*
X961834Y374713D01*
X961834Y376854D02*
X952818Y376854D01*
X952818Y378995D02*
X961834Y378995D01*
X961834Y381136D02*
X952818Y381136D01*
X937832Y389572D02*
X937832Y399588D01*
X946848Y399588D01*
X946848Y389572D01*
X937832Y389572D01*
X937832Y391713D02*
X946848Y391713D01*
X946848Y393854D02*
X937832Y393854D01*
X937832Y395995D02*
X946848Y395995D01*
X946848Y398136D02*
X937832Y398136D01*
X937832Y382588D02*
X937832Y372572D01*
X937832Y382588D02*
X946848Y382588D01*
X946848Y372572D01*
X937832Y372572D01*
X937832Y374713D02*
X946848Y374713D01*
X946848Y376854D02*
X937832Y376854D01*
X937832Y378995D02*
X946848Y378995D01*
X946848Y381136D02*
X937832Y381136D01*
D12*
X819150Y454660D03*
X989584Y314960D03*
D13*
X1026443Y352573D02*
X1026443Y363587D01*
X1026443Y352573D02*
X1007429Y352573D01*
X1007429Y363587D01*
X1026443Y363587D01*
X1026443Y354716D02*
X1007429Y354716D01*
X1007429Y356859D02*
X1026443Y356859D01*
X1026443Y359002D02*
X1007429Y359002D01*
X1007429Y361145D02*
X1026443Y361145D01*
X1026443Y363288D02*
X1007429Y363288D01*
X1026443Y408573D02*
X1026443Y419587D01*
X1026443Y408573D02*
X1007429Y408573D01*
X1007429Y419587D01*
X1026443Y419587D01*
X1026443Y410716D02*
X1007429Y410716D01*
X1007429Y412859D02*
X1026443Y412859D01*
X1026443Y415002D02*
X1007429Y415002D01*
X1007429Y417145D02*
X1026443Y417145D01*
X1026443Y419288D02*
X1007429Y419288D01*
D14*
X986444Y373588D02*
X986444Y368572D01*
X973928Y368572D01*
X973928Y373588D01*
X986444Y373588D01*
X986444Y370713D02*
X973928Y370713D01*
X973928Y372854D02*
X986444Y372854D01*
X986444Y378572D02*
X986444Y383588D01*
X986444Y378572D02*
X973928Y378572D01*
X973928Y383588D01*
X986444Y383588D01*
X986444Y380713D02*
X973928Y380713D01*
X973928Y382854D02*
X986444Y382854D01*
X986444Y388572D02*
X986444Y393588D01*
X986444Y388572D02*
X973928Y388572D01*
X973928Y393588D01*
X986444Y393588D01*
X986444Y390713D02*
X973928Y390713D01*
X973928Y392854D02*
X986444Y392854D01*
X986444Y398572D02*
X986444Y403588D01*
X986444Y398572D02*
X973928Y398572D01*
X973928Y403588D01*
X986444Y403588D01*
X986444Y400713D02*
X973928Y400713D01*
X973928Y402854D02*
X986444Y402854D01*
D13*
X781783Y408573D02*
X781783Y419587D01*
X800797Y419587D01*
X800797Y408573D01*
X781783Y408573D01*
X781783Y410716D02*
X800797Y410716D01*
X800797Y412859D02*
X781783Y412859D01*
X781783Y415002D02*
X800797Y415002D01*
X800797Y417145D02*
X781783Y417145D01*
X781783Y419288D02*
X800797Y419288D01*
X781783Y363587D02*
X781783Y352573D01*
X781783Y363587D02*
X800797Y363587D01*
X800797Y352573D01*
X781783Y352573D01*
X781783Y354716D02*
X800797Y354716D01*
X800797Y356859D02*
X781783Y356859D01*
X781783Y359002D02*
X800797Y359002D01*
X800797Y361145D02*
X781783Y361145D01*
X781783Y363288D02*
X800797Y363288D01*
D14*
X821782Y398572D02*
X821782Y403588D01*
X834298Y403588D01*
X834298Y398572D01*
X821782Y398572D01*
X821782Y400713D02*
X834298Y400713D01*
X834298Y402854D02*
X821782Y402854D01*
X821782Y393588D02*
X821782Y388572D01*
X821782Y393588D02*
X834298Y393588D01*
X834298Y388572D01*
X821782Y388572D01*
X821782Y390713D02*
X834298Y390713D01*
X834298Y392854D02*
X821782Y392854D01*
X821782Y383588D02*
X821782Y378572D01*
X821782Y383588D02*
X834298Y383588D01*
X834298Y378572D01*
X821782Y378572D01*
X821782Y380713D02*
X834298Y380713D01*
X834298Y382854D02*
X821782Y382854D01*
X821782Y373588D02*
X821782Y368572D01*
X821782Y373588D02*
X834298Y373588D01*
X834298Y368572D01*
X821782Y368572D01*
X821782Y370713D02*
X834298Y370713D01*
X834298Y372854D02*
X821782Y372854D01*
D15*
X1017840Y443680D02*
X1024828Y443680D01*
X1017840Y443680D02*
X1017840Y450668D01*
X1024828Y450668D01*
X1024828Y443680D01*
X1024828Y447749D02*
X1017840Y447749D01*
X1017840Y426140D02*
X1024828Y426140D01*
X1017840Y426140D02*
X1017840Y433128D01*
X1024828Y433128D01*
X1024828Y426140D01*
X1024828Y430209D02*
X1017840Y430209D01*
D11*
X1009840Y425404D02*
X1009840Y435420D01*
X1009840Y425404D02*
X1000824Y425404D01*
X1000824Y435420D01*
X1009840Y435420D01*
X1009840Y427545D02*
X1000824Y427545D01*
X1000824Y429686D02*
X1009840Y429686D01*
X1009840Y431827D02*
X1000824Y431827D01*
X1000824Y433968D02*
X1009840Y433968D01*
X1009840Y442404D02*
X1009840Y452420D01*
X1009840Y442404D02*
X1000824Y442404D01*
X1000824Y452420D01*
X1009840Y452420D01*
X1009840Y444545D02*
X1000824Y444545D01*
X1000824Y446686D02*
X1009840Y446686D01*
X1009840Y448827D02*
X1000824Y448827D01*
X1000824Y450968D02*
X1009840Y450968D01*
D10*
X1005840Y487680D03*
D14*
X876332Y393588D02*
X876332Y388572D01*
X876332Y393588D02*
X881348Y393588D01*
X881348Y388572D01*
X876332Y388572D01*
X876332Y390713D02*
X881348Y390713D01*
X881348Y392854D02*
X876332Y392854D01*
X876332Y383588D02*
X876332Y378572D01*
X876332Y383588D02*
X881348Y383588D01*
X881348Y378572D01*
X876332Y378572D01*
X876332Y380713D02*
X881348Y380713D01*
X881348Y382854D02*
X876332Y382854D01*
D16*
X892268Y392718D02*
X898432Y392718D01*
X892268Y392718D02*
X892268Y394682D01*
X898432Y394682D01*
X898432Y392718D01*
X898432Y387718D02*
X892268Y387718D01*
X892268Y389682D01*
X898432Y389682D01*
X898432Y387718D01*
X898432Y382718D02*
X892268Y382718D01*
X892268Y384682D01*
X898432Y384682D01*
X898432Y382718D01*
X898432Y377718D02*
X892268Y377718D01*
X892268Y379682D01*
X898432Y379682D01*
X898432Y377718D01*
X909468Y377718D02*
X915632Y377718D01*
X909468Y377718D02*
X909468Y379682D01*
X915632Y379682D01*
X915632Y377718D01*
X915632Y382718D02*
X909468Y382718D01*
X909468Y384682D01*
X915632Y384682D01*
X915632Y382718D01*
X915632Y387718D02*
X909468Y387718D01*
X909468Y389682D01*
X915632Y389682D01*
X915632Y387718D01*
X915632Y392718D02*
X909468Y392718D01*
X909468Y394682D01*
X915632Y394682D01*
X915632Y392718D01*
D11*
X883348Y344488D02*
X883348Y334472D01*
X874332Y334472D01*
X874332Y344488D01*
X883348Y344488D01*
X883348Y336613D02*
X874332Y336613D01*
X874332Y338754D02*
X883348Y338754D01*
X883348Y340895D02*
X874332Y340895D01*
X874332Y343036D02*
X883348Y343036D01*
X883348Y351472D02*
X883348Y361488D01*
X883348Y351472D02*
X874332Y351472D01*
X874332Y361488D01*
X883348Y361488D01*
X883348Y353613D02*
X874332Y353613D01*
X874332Y355754D02*
X883348Y355754D01*
X883348Y357895D02*
X874332Y357895D01*
X874332Y360036D02*
X883348Y360036D01*
D17*
X853440Y271780D03*
X878840Y271780D03*
X904240Y271780D03*
X929640Y271780D03*
X955040Y271780D03*
D11*
X868108Y334472D02*
X868108Y344488D01*
X868108Y334472D02*
X859092Y334472D01*
X859092Y344488D01*
X868108Y344488D01*
X868108Y336613D02*
X859092Y336613D01*
X859092Y338754D02*
X868108Y338754D01*
X868108Y340895D02*
X859092Y340895D01*
X859092Y343036D02*
X868108Y343036D01*
X868108Y351472D02*
X868108Y361488D01*
X868108Y351472D02*
X859092Y351472D01*
X859092Y361488D01*
X868108Y361488D01*
X868108Y353613D02*
X859092Y353613D01*
X859092Y355754D02*
X868108Y355754D01*
X868108Y357895D02*
X859092Y357895D01*
X859092Y360036D02*
X868108Y360036D01*
D10*
X1061720Y487680D03*
X1061720Y284480D03*
X1264920Y284480D03*
D11*
X1211898Y389572D02*
X1211898Y399588D01*
X1220914Y399588D01*
X1220914Y389572D01*
X1211898Y389572D01*
X1211898Y391713D02*
X1220914Y391713D01*
X1220914Y393854D02*
X1211898Y393854D01*
X1211898Y395995D02*
X1220914Y395995D01*
X1220914Y398136D02*
X1211898Y398136D01*
X1211898Y382588D02*
X1211898Y372572D01*
X1211898Y382588D02*
X1220914Y382588D01*
X1220914Y372572D01*
X1211898Y372572D01*
X1211898Y374713D02*
X1220914Y374713D01*
X1220914Y376854D02*
X1211898Y376854D01*
X1211898Y378995D02*
X1220914Y378995D01*
X1220914Y381136D02*
X1211898Y381136D01*
X1196912Y389572D02*
X1196912Y399588D01*
X1205928Y399588D01*
X1205928Y389572D01*
X1196912Y389572D01*
X1196912Y391713D02*
X1205928Y391713D01*
X1205928Y393854D02*
X1196912Y393854D01*
X1196912Y395995D02*
X1205928Y395995D01*
X1205928Y398136D02*
X1196912Y398136D01*
X1196912Y382588D02*
X1196912Y372572D01*
X1196912Y382588D02*
X1205928Y382588D01*
X1205928Y372572D01*
X1196912Y372572D01*
X1196912Y374713D02*
X1205928Y374713D01*
X1205928Y376854D02*
X1196912Y376854D01*
X1196912Y378995D02*
X1205928Y378995D01*
X1205928Y381136D02*
X1196912Y381136D01*
D12*
X1078230Y454660D03*
X1248664Y314960D03*
D13*
X1285523Y352573D02*
X1285523Y363587D01*
X1285523Y352573D02*
X1266509Y352573D01*
X1266509Y363587D01*
X1285523Y363587D01*
X1285523Y354716D02*
X1266509Y354716D01*
X1266509Y356859D02*
X1285523Y356859D01*
X1285523Y359002D02*
X1266509Y359002D01*
X1266509Y361145D02*
X1285523Y361145D01*
X1285523Y363288D02*
X1266509Y363288D01*
X1285523Y408573D02*
X1285523Y419587D01*
X1285523Y408573D02*
X1266509Y408573D01*
X1266509Y419587D01*
X1285523Y419587D01*
X1285523Y410716D02*
X1266509Y410716D01*
X1266509Y412859D02*
X1285523Y412859D01*
X1285523Y415002D02*
X1266509Y415002D01*
X1266509Y417145D02*
X1285523Y417145D01*
X1285523Y419288D02*
X1266509Y419288D01*
D14*
X1245524Y373588D02*
X1245524Y368572D01*
X1233008Y368572D01*
X1233008Y373588D01*
X1245524Y373588D01*
X1245524Y370713D02*
X1233008Y370713D01*
X1233008Y372854D02*
X1245524Y372854D01*
X1245524Y378572D02*
X1245524Y383588D01*
X1245524Y378572D02*
X1233008Y378572D01*
X1233008Y383588D01*
X1245524Y383588D01*
X1245524Y380713D02*
X1233008Y380713D01*
X1233008Y382854D02*
X1245524Y382854D01*
X1245524Y388572D02*
X1245524Y393588D01*
X1245524Y388572D02*
X1233008Y388572D01*
X1233008Y393588D01*
X1245524Y393588D01*
X1245524Y390713D02*
X1233008Y390713D01*
X1233008Y392854D02*
X1245524Y392854D01*
X1245524Y398572D02*
X1245524Y403588D01*
X1245524Y398572D02*
X1233008Y398572D01*
X1233008Y403588D01*
X1245524Y403588D01*
X1245524Y400713D02*
X1233008Y400713D01*
X1233008Y402854D02*
X1245524Y402854D01*
D13*
X1040863Y408573D02*
X1040863Y419587D01*
X1059877Y419587D01*
X1059877Y408573D01*
X1040863Y408573D01*
X1040863Y410716D02*
X1059877Y410716D01*
X1059877Y412859D02*
X1040863Y412859D01*
X1040863Y415002D02*
X1059877Y415002D01*
X1059877Y417145D02*
X1040863Y417145D01*
X1040863Y419288D02*
X1059877Y419288D01*
X1040863Y363587D02*
X1040863Y352573D01*
X1040863Y363587D02*
X1059877Y363587D01*
X1059877Y352573D01*
X1040863Y352573D01*
X1040863Y354716D02*
X1059877Y354716D01*
X1059877Y356859D02*
X1040863Y356859D01*
X1040863Y359002D02*
X1059877Y359002D01*
X1059877Y361145D02*
X1040863Y361145D01*
X1040863Y363288D02*
X1059877Y363288D01*
D14*
X1080862Y398572D02*
X1080862Y403588D01*
X1093378Y403588D01*
X1093378Y398572D01*
X1080862Y398572D01*
X1080862Y400713D02*
X1093378Y400713D01*
X1093378Y402854D02*
X1080862Y402854D01*
X1080862Y393588D02*
X1080862Y388572D01*
X1080862Y393588D02*
X1093378Y393588D01*
X1093378Y388572D01*
X1080862Y388572D01*
X1080862Y390713D02*
X1093378Y390713D01*
X1093378Y392854D02*
X1080862Y392854D01*
X1080862Y383588D02*
X1080862Y378572D01*
X1080862Y383588D02*
X1093378Y383588D01*
X1093378Y378572D01*
X1080862Y378572D01*
X1080862Y380713D02*
X1093378Y380713D01*
X1093378Y382854D02*
X1080862Y382854D01*
X1080862Y373588D02*
X1080862Y368572D01*
X1080862Y373588D02*
X1093378Y373588D01*
X1093378Y368572D01*
X1080862Y368572D01*
X1080862Y370713D02*
X1093378Y370713D01*
X1093378Y372854D02*
X1080862Y372854D01*
D15*
X1276920Y443680D02*
X1283908Y443680D01*
X1276920Y443680D02*
X1276920Y450668D01*
X1283908Y450668D01*
X1283908Y443680D01*
X1283908Y447749D02*
X1276920Y447749D01*
X1276920Y426140D02*
X1283908Y426140D01*
X1276920Y426140D02*
X1276920Y433128D01*
X1283908Y433128D01*
X1283908Y426140D01*
X1283908Y430209D02*
X1276920Y430209D01*
D11*
X1268920Y425404D02*
X1268920Y435420D01*
X1268920Y425404D02*
X1259904Y425404D01*
X1259904Y435420D01*
X1268920Y435420D01*
X1268920Y427545D02*
X1259904Y427545D01*
X1259904Y429686D02*
X1268920Y429686D01*
X1268920Y431827D02*
X1259904Y431827D01*
X1259904Y433968D02*
X1268920Y433968D01*
X1268920Y442404D02*
X1268920Y452420D01*
X1268920Y442404D02*
X1259904Y442404D01*
X1259904Y452420D01*
X1268920Y452420D01*
X1268920Y444545D02*
X1259904Y444545D01*
X1259904Y446686D02*
X1268920Y446686D01*
X1268920Y448827D02*
X1259904Y448827D01*
X1259904Y450968D02*
X1268920Y450968D01*
D10*
X1264920Y487680D03*
D14*
X1135412Y393588D02*
X1135412Y388572D01*
X1135412Y393588D02*
X1140428Y393588D01*
X1140428Y388572D01*
X1135412Y388572D01*
X1135412Y390713D02*
X1140428Y390713D01*
X1140428Y392854D02*
X1135412Y392854D01*
X1135412Y383588D02*
X1135412Y378572D01*
X1135412Y383588D02*
X1140428Y383588D01*
X1140428Y378572D01*
X1135412Y378572D01*
X1135412Y380713D02*
X1140428Y380713D01*
X1140428Y382854D02*
X1135412Y382854D01*
D16*
X1151348Y392718D02*
X1157512Y392718D01*
X1151348Y392718D02*
X1151348Y394682D01*
X1157512Y394682D01*
X1157512Y392718D01*
X1157512Y387718D02*
X1151348Y387718D01*
X1151348Y389682D01*
X1157512Y389682D01*
X1157512Y387718D01*
X1157512Y382718D02*
X1151348Y382718D01*
X1151348Y384682D01*
X1157512Y384682D01*
X1157512Y382718D01*
X1157512Y377718D02*
X1151348Y377718D01*
X1151348Y379682D01*
X1157512Y379682D01*
X1157512Y377718D01*
X1168548Y377718D02*
X1174712Y377718D01*
X1168548Y377718D02*
X1168548Y379682D01*
X1174712Y379682D01*
X1174712Y377718D01*
X1174712Y382718D02*
X1168548Y382718D01*
X1168548Y384682D01*
X1174712Y384682D01*
X1174712Y382718D01*
X1174712Y387718D02*
X1168548Y387718D01*
X1168548Y389682D01*
X1174712Y389682D01*
X1174712Y387718D01*
X1174712Y392718D02*
X1168548Y392718D01*
X1168548Y394682D01*
X1174712Y394682D01*
X1174712Y392718D01*
D11*
X1142428Y344488D02*
X1142428Y334472D01*
X1133412Y334472D01*
X1133412Y344488D01*
X1142428Y344488D01*
X1142428Y336613D02*
X1133412Y336613D01*
X1133412Y338754D02*
X1142428Y338754D01*
X1142428Y340895D02*
X1133412Y340895D01*
X1133412Y343036D02*
X1142428Y343036D01*
X1142428Y351472D02*
X1142428Y361488D01*
X1142428Y351472D02*
X1133412Y351472D01*
X1133412Y361488D01*
X1142428Y361488D01*
X1142428Y353613D02*
X1133412Y353613D01*
X1133412Y355754D02*
X1142428Y355754D01*
X1142428Y357895D02*
X1133412Y357895D01*
X1133412Y360036D02*
X1142428Y360036D01*
D17*
X1112520Y271780D03*
X1137920Y271780D03*
X1163320Y271780D03*
X1188720Y271780D03*
X1214120Y271780D03*
D11*
X1127188Y334472D02*
X1127188Y344488D01*
X1127188Y334472D02*
X1118172Y334472D01*
X1118172Y344488D01*
X1127188Y344488D01*
X1127188Y336613D02*
X1118172Y336613D01*
X1118172Y338754D02*
X1127188Y338754D01*
X1127188Y340895D02*
X1118172Y340895D01*
X1118172Y343036D02*
X1127188Y343036D01*
X1127188Y351472D02*
X1127188Y361488D01*
X1127188Y351472D02*
X1118172Y351472D01*
X1118172Y361488D01*
X1127188Y361488D01*
X1127188Y353613D02*
X1118172Y353613D01*
X1118172Y355754D02*
X1127188Y355754D01*
X1127188Y357895D02*
X1118172Y357895D01*
X1118172Y360036D02*
X1127188Y360036D01*
D10*
X1320800Y487680D03*
X1320800Y284480D03*
X1524000Y284480D03*
D11*
X1470978Y389572D02*
X1470978Y399588D01*
X1479994Y399588D01*
X1479994Y389572D01*
X1470978Y389572D01*
X1470978Y391713D02*
X1479994Y391713D01*
X1479994Y393854D02*
X1470978Y393854D01*
X1470978Y395995D02*
X1479994Y395995D01*
X1479994Y398136D02*
X1470978Y398136D01*
X1470978Y382588D02*
X1470978Y372572D01*
X1470978Y382588D02*
X1479994Y382588D01*
X1479994Y372572D01*
X1470978Y372572D01*
X1470978Y374713D02*
X1479994Y374713D01*
X1479994Y376854D02*
X1470978Y376854D01*
X1470978Y378995D02*
X1479994Y378995D01*
X1479994Y381136D02*
X1470978Y381136D01*
X1455992Y389572D02*
X1455992Y399588D01*
X1465008Y399588D01*
X1465008Y389572D01*
X1455992Y389572D01*
X1455992Y391713D02*
X1465008Y391713D01*
X1465008Y393854D02*
X1455992Y393854D01*
X1455992Y395995D02*
X1465008Y395995D01*
X1465008Y398136D02*
X1455992Y398136D01*
X1455992Y382588D02*
X1455992Y372572D01*
X1455992Y382588D02*
X1465008Y382588D01*
X1465008Y372572D01*
X1455992Y372572D01*
X1455992Y374713D02*
X1465008Y374713D01*
X1465008Y376854D02*
X1455992Y376854D01*
X1455992Y378995D02*
X1465008Y378995D01*
X1465008Y381136D02*
X1455992Y381136D01*
D12*
X1337310Y454660D03*
X1507744Y314960D03*
D13*
X1544603Y352573D02*
X1544603Y363587D01*
X1544603Y352573D02*
X1525589Y352573D01*
X1525589Y363587D01*
X1544603Y363587D01*
X1544603Y354716D02*
X1525589Y354716D01*
X1525589Y356859D02*
X1544603Y356859D01*
X1544603Y359002D02*
X1525589Y359002D01*
X1525589Y361145D02*
X1544603Y361145D01*
X1544603Y363288D02*
X1525589Y363288D01*
X1544603Y408573D02*
X1544603Y419587D01*
X1544603Y408573D02*
X1525589Y408573D01*
X1525589Y419587D01*
X1544603Y419587D01*
X1544603Y410716D02*
X1525589Y410716D01*
X1525589Y412859D02*
X1544603Y412859D01*
X1544603Y415002D02*
X1525589Y415002D01*
X1525589Y417145D02*
X1544603Y417145D01*
X1544603Y419288D02*
X1525589Y419288D01*
D14*
X1504604Y373588D02*
X1504604Y368572D01*
X1492088Y368572D01*
X1492088Y373588D01*
X1504604Y373588D01*
X1504604Y370713D02*
X1492088Y370713D01*
X1492088Y372854D02*
X1504604Y372854D01*
X1504604Y378572D02*
X1504604Y383588D01*
X1504604Y378572D02*
X1492088Y378572D01*
X1492088Y383588D01*
X1504604Y383588D01*
X1504604Y380713D02*
X1492088Y380713D01*
X1492088Y382854D02*
X1504604Y382854D01*
X1504604Y388572D02*
X1504604Y393588D01*
X1504604Y388572D02*
X1492088Y388572D01*
X1492088Y393588D01*
X1504604Y393588D01*
X1504604Y390713D02*
X1492088Y390713D01*
X1492088Y392854D02*
X1504604Y392854D01*
X1504604Y398572D02*
X1504604Y403588D01*
X1504604Y398572D02*
X1492088Y398572D01*
X1492088Y403588D01*
X1504604Y403588D01*
X1504604Y400713D02*
X1492088Y400713D01*
X1492088Y402854D02*
X1504604Y402854D01*
D13*
X1299943Y408573D02*
X1299943Y419587D01*
X1318957Y419587D01*
X1318957Y408573D01*
X1299943Y408573D01*
X1299943Y410716D02*
X1318957Y410716D01*
X1318957Y412859D02*
X1299943Y412859D01*
X1299943Y415002D02*
X1318957Y415002D01*
X1318957Y417145D02*
X1299943Y417145D01*
X1299943Y419288D02*
X1318957Y419288D01*
X1299943Y363587D02*
X1299943Y352573D01*
X1299943Y363587D02*
X1318957Y363587D01*
X1318957Y352573D01*
X1299943Y352573D01*
X1299943Y354716D02*
X1318957Y354716D01*
X1318957Y356859D02*
X1299943Y356859D01*
X1299943Y359002D02*
X1318957Y359002D01*
X1318957Y361145D02*
X1299943Y361145D01*
X1299943Y363288D02*
X1318957Y363288D01*
D14*
X1339942Y398572D02*
X1339942Y403588D01*
X1352458Y403588D01*
X1352458Y398572D01*
X1339942Y398572D01*
X1339942Y400713D02*
X1352458Y400713D01*
X1352458Y402854D02*
X1339942Y402854D01*
X1339942Y393588D02*
X1339942Y388572D01*
X1339942Y393588D02*
X1352458Y393588D01*
X1352458Y388572D01*
X1339942Y388572D01*
X1339942Y390713D02*
X1352458Y390713D01*
X1352458Y392854D02*
X1339942Y392854D01*
X1339942Y383588D02*
X1339942Y378572D01*
X1339942Y383588D02*
X1352458Y383588D01*
X1352458Y378572D01*
X1339942Y378572D01*
X1339942Y380713D02*
X1352458Y380713D01*
X1352458Y382854D02*
X1339942Y382854D01*
X1339942Y373588D02*
X1339942Y368572D01*
X1339942Y373588D02*
X1352458Y373588D01*
X1352458Y368572D01*
X1339942Y368572D01*
X1339942Y370713D02*
X1352458Y370713D01*
X1352458Y372854D02*
X1339942Y372854D01*
D15*
X1536000Y443680D02*
X1542988Y443680D01*
X1536000Y443680D02*
X1536000Y450668D01*
X1542988Y450668D01*
X1542988Y443680D01*
X1542988Y447749D02*
X1536000Y447749D01*
X1536000Y426140D02*
X1542988Y426140D01*
X1536000Y426140D02*
X1536000Y433128D01*
X1542988Y433128D01*
X1542988Y426140D01*
X1542988Y430209D02*
X1536000Y430209D01*
D11*
X1528000Y425404D02*
X1528000Y435420D01*
X1528000Y425404D02*
X1518984Y425404D01*
X1518984Y435420D01*
X1528000Y435420D01*
X1528000Y427545D02*
X1518984Y427545D01*
X1518984Y429686D02*
X1528000Y429686D01*
X1528000Y431827D02*
X1518984Y431827D01*
X1518984Y433968D02*
X1528000Y433968D01*
X1528000Y442404D02*
X1528000Y452420D01*
X1528000Y442404D02*
X1518984Y442404D01*
X1518984Y452420D01*
X1528000Y452420D01*
X1528000Y444545D02*
X1518984Y444545D01*
X1518984Y446686D02*
X1528000Y446686D01*
X1528000Y448827D02*
X1518984Y448827D01*
X1518984Y450968D02*
X1528000Y450968D01*
D10*
X1524000Y487680D03*
D14*
X1394492Y393588D02*
X1394492Y388572D01*
X1394492Y393588D02*
X1399508Y393588D01*
X1399508Y388572D01*
X1394492Y388572D01*
X1394492Y390713D02*
X1399508Y390713D01*
X1399508Y392854D02*
X1394492Y392854D01*
X1394492Y383588D02*
X1394492Y378572D01*
X1394492Y383588D02*
X1399508Y383588D01*
X1399508Y378572D01*
X1394492Y378572D01*
X1394492Y380713D02*
X1399508Y380713D01*
X1399508Y382854D02*
X1394492Y382854D01*
D16*
X1410428Y392718D02*
X1416592Y392718D01*
X1410428Y392718D02*
X1410428Y394682D01*
X1416592Y394682D01*
X1416592Y392718D01*
X1416592Y387718D02*
X1410428Y387718D01*
X1410428Y389682D01*
X1416592Y389682D01*
X1416592Y387718D01*
X1416592Y382718D02*
X1410428Y382718D01*
X1410428Y384682D01*
X1416592Y384682D01*
X1416592Y382718D01*
X1416592Y377718D02*
X1410428Y377718D01*
X1410428Y379682D01*
X1416592Y379682D01*
X1416592Y377718D01*
X1427628Y377718D02*
X1433792Y377718D01*
X1427628Y377718D02*
X1427628Y379682D01*
X1433792Y379682D01*
X1433792Y377718D01*
X1433792Y382718D02*
X1427628Y382718D01*
X1427628Y384682D01*
X1433792Y384682D01*
X1433792Y382718D01*
X1433792Y387718D02*
X1427628Y387718D01*
X1427628Y389682D01*
X1433792Y389682D01*
X1433792Y387718D01*
X1433792Y392718D02*
X1427628Y392718D01*
X1427628Y394682D01*
X1433792Y394682D01*
X1433792Y392718D01*
D11*
X1401508Y344488D02*
X1401508Y334472D01*
X1392492Y334472D01*
X1392492Y344488D01*
X1401508Y344488D01*
X1401508Y336613D02*
X1392492Y336613D01*
X1392492Y338754D02*
X1401508Y338754D01*
X1401508Y340895D02*
X1392492Y340895D01*
X1392492Y343036D02*
X1401508Y343036D01*
X1401508Y351472D02*
X1401508Y361488D01*
X1401508Y351472D02*
X1392492Y351472D01*
X1392492Y361488D01*
X1401508Y361488D01*
X1401508Y353613D02*
X1392492Y353613D01*
X1392492Y355754D02*
X1401508Y355754D01*
X1401508Y357895D02*
X1392492Y357895D01*
X1392492Y360036D02*
X1401508Y360036D01*
D17*
X1371600Y271780D03*
X1397000Y271780D03*
X1422400Y271780D03*
X1447800Y271780D03*
X1473200Y271780D03*
D11*
X1386268Y334472D02*
X1386268Y344488D01*
X1386268Y334472D02*
X1377252Y334472D01*
X1377252Y344488D01*
X1386268Y344488D01*
X1386268Y336613D02*
X1377252Y336613D01*
X1377252Y338754D02*
X1386268Y338754D01*
X1386268Y340895D02*
X1377252Y340895D01*
X1377252Y343036D02*
X1386268Y343036D01*
X1386268Y351472D02*
X1386268Y361488D01*
X1386268Y351472D02*
X1377252Y351472D01*
X1377252Y361488D01*
X1386268Y361488D01*
X1386268Y353613D02*
X1377252Y353613D01*
X1377252Y355754D02*
X1386268Y355754D01*
X1386268Y357895D02*
X1377252Y357895D01*
X1377252Y360036D02*
X1386268Y360036D01*
D10*
X25400Y746760D03*
X25400Y543560D03*
X228600Y543560D03*
D11*
X175578Y648652D02*
X175578Y658668D01*
X184594Y658668D01*
X184594Y648652D01*
X175578Y648652D01*
X175578Y650793D02*
X184594Y650793D01*
X184594Y652934D02*
X175578Y652934D01*
X175578Y655075D02*
X184594Y655075D01*
X184594Y657216D02*
X175578Y657216D01*
X175578Y641668D02*
X175578Y631652D01*
X175578Y641668D02*
X184594Y641668D01*
X184594Y631652D01*
X175578Y631652D01*
X175578Y633793D02*
X184594Y633793D01*
X184594Y635934D02*
X175578Y635934D01*
X175578Y638075D02*
X184594Y638075D01*
X184594Y640216D02*
X175578Y640216D01*
X160592Y648652D02*
X160592Y658668D01*
X169608Y658668D01*
X169608Y648652D01*
X160592Y648652D01*
X160592Y650793D02*
X169608Y650793D01*
X169608Y652934D02*
X160592Y652934D01*
X160592Y655075D02*
X169608Y655075D01*
X169608Y657216D02*
X160592Y657216D01*
X160592Y641668D02*
X160592Y631652D01*
X160592Y641668D02*
X169608Y641668D01*
X169608Y631652D01*
X160592Y631652D01*
X160592Y633793D02*
X169608Y633793D01*
X169608Y635934D02*
X160592Y635934D01*
X160592Y638075D02*
X169608Y638075D01*
X169608Y640216D02*
X160592Y640216D01*
D12*
X41910Y713740D03*
X212344Y574040D03*
D13*
X249203Y611653D02*
X249203Y622667D01*
X249203Y611653D02*
X230189Y611653D01*
X230189Y622667D01*
X249203Y622667D01*
X249203Y613796D02*
X230189Y613796D01*
X230189Y615939D02*
X249203Y615939D01*
X249203Y618082D02*
X230189Y618082D01*
X230189Y620225D02*
X249203Y620225D01*
X249203Y622368D02*
X230189Y622368D01*
X249203Y667653D02*
X249203Y678667D01*
X249203Y667653D02*
X230189Y667653D01*
X230189Y678667D01*
X249203Y678667D01*
X249203Y669796D02*
X230189Y669796D01*
X230189Y671939D02*
X249203Y671939D01*
X249203Y674082D02*
X230189Y674082D01*
X230189Y676225D02*
X249203Y676225D01*
X249203Y678368D02*
X230189Y678368D01*
D14*
X209204Y632668D02*
X209204Y627652D01*
X196688Y627652D01*
X196688Y632668D01*
X209204Y632668D01*
X209204Y629793D02*
X196688Y629793D01*
X196688Y631934D02*
X209204Y631934D01*
X209204Y637652D02*
X209204Y642668D01*
X209204Y637652D02*
X196688Y637652D01*
X196688Y642668D01*
X209204Y642668D01*
X209204Y639793D02*
X196688Y639793D01*
X196688Y641934D02*
X209204Y641934D01*
X209204Y647652D02*
X209204Y652668D01*
X209204Y647652D02*
X196688Y647652D01*
X196688Y652668D01*
X209204Y652668D01*
X209204Y649793D02*
X196688Y649793D01*
X196688Y651934D02*
X209204Y651934D01*
X209204Y657652D02*
X209204Y662668D01*
X209204Y657652D02*
X196688Y657652D01*
X196688Y662668D01*
X209204Y662668D01*
X209204Y659793D02*
X196688Y659793D01*
X196688Y661934D02*
X209204Y661934D01*
D13*
X4543Y667653D02*
X4543Y678667D01*
X23557Y678667D01*
X23557Y667653D01*
X4543Y667653D01*
X4543Y669796D02*
X23557Y669796D01*
X23557Y671939D02*
X4543Y671939D01*
X4543Y674082D02*
X23557Y674082D01*
X23557Y676225D02*
X4543Y676225D01*
X4543Y678368D02*
X23557Y678368D01*
X4543Y622667D02*
X4543Y611653D01*
X4543Y622667D02*
X23557Y622667D01*
X23557Y611653D01*
X4543Y611653D01*
X4543Y613796D02*
X23557Y613796D01*
X23557Y615939D02*
X4543Y615939D01*
X4543Y618082D02*
X23557Y618082D01*
X23557Y620225D02*
X4543Y620225D01*
X4543Y622368D02*
X23557Y622368D01*
D14*
X44542Y657652D02*
X44542Y662668D01*
X57058Y662668D01*
X57058Y657652D01*
X44542Y657652D01*
X44542Y659793D02*
X57058Y659793D01*
X57058Y661934D02*
X44542Y661934D01*
X44542Y652668D02*
X44542Y647652D01*
X44542Y652668D02*
X57058Y652668D01*
X57058Y647652D01*
X44542Y647652D01*
X44542Y649793D02*
X57058Y649793D01*
X57058Y651934D02*
X44542Y651934D01*
X44542Y642668D02*
X44542Y637652D01*
X44542Y642668D02*
X57058Y642668D01*
X57058Y637652D01*
X44542Y637652D01*
X44542Y639793D02*
X57058Y639793D01*
X57058Y641934D02*
X44542Y641934D01*
X44542Y632668D02*
X44542Y627652D01*
X44542Y632668D02*
X57058Y632668D01*
X57058Y627652D01*
X44542Y627652D01*
X44542Y629793D02*
X57058Y629793D01*
X57058Y631934D02*
X44542Y631934D01*
D15*
X240600Y702760D02*
X247588Y702760D01*
X240600Y702760D02*
X240600Y709748D01*
X247588Y709748D01*
X247588Y702760D01*
X247588Y706829D02*
X240600Y706829D01*
X240600Y685220D02*
X247588Y685220D01*
X240600Y685220D02*
X240600Y692208D01*
X247588Y692208D01*
X247588Y685220D01*
X247588Y689289D02*
X240600Y689289D01*
D11*
X232600Y684484D02*
X232600Y694500D01*
X232600Y684484D02*
X223584Y684484D01*
X223584Y694500D01*
X232600Y694500D01*
X232600Y686625D02*
X223584Y686625D01*
X223584Y688766D02*
X232600Y688766D01*
X232600Y690907D02*
X223584Y690907D01*
X223584Y693048D02*
X232600Y693048D01*
X232600Y701484D02*
X232600Y711500D01*
X232600Y701484D02*
X223584Y701484D01*
X223584Y711500D01*
X232600Y711500D01*
X232600Y703625D02*
X223584Y703625D01*
X223584Y705766D02*
X232600Y705766D01*
X232600Y707907D02*
X223584Y707907D01*
X223584Y710048D02*
X232600Y710048D01*
D10*
X228600Y746760D03*
D14*
X99092Y652668D02*
X99092Y647652D01*
X99092Y652668D02*
X104108Y652668D01*
X104108Y647652D01*
X99092Y647652D01*
X99092Y649793D02*
X104108Y649793D01*
X104108Y651934D02*
X99092Y651934D01*
X99092Y642668D02*
X99092Y637652D01*
X99092Y642668D02*
X104108Y642668D01*
X104108Y637652D01*
X99092Y637652D01*
X99092Y639793D02*
X104108Y639793D01*
X104108Y641934D02*
X99092Y641934D01*
D16*
X115028Y651798D02*
X121192Y651798D01*
X115028Y651798D02*
X115028Y653762D01*
X121192Y653762D01*
X121192Y651798D01*
X121192Y646798D02*
X115028Y646798D01*
X115028Y648762D01*
X121192Y648762D01*
X121192Y646798D01*
X121192Y641798D02*
X115028Y641798D01*
X115028Y643762D01*
X121192Y643762D01*
X121192Y641798D01*
X121192Y636798D02*
X115028Y636798D01*
X115028Y638762D01*
X121192Y638762D01*
X121192Y636798D01*
X132228Y636798D02*
X138392Y636798D01*
X132228Y636798D02*
X132228Y638762D01*
X138392Y638762D01*
X138392Y636798D01*
X138392Y641798D02*
X132228Y641798D01*
X132228Y643762D01*
X138392Y643762D01*
X138392Y641798D01*
X138392Y646798D02*
X132228Y646798D01*
X132228Y648762D01*
X138392Y648762D01*
X138392Y646798D01*
X138392Y651798D02*
X132228Y651798D01*
X132228Y653762D01*
X138392Y653762D01*
X138392Y651798D01*
D11*
X106108Y603568D02*
X106108Y593552D01*
X97092Y593552D01*
X97092Y603568D01*
X106108Y603568D01*
X106108Y595693D02*
X97092Y595693D01*
X97092Y597834D02*
X106108Y597834D01*
X106108Y599975D02*
X97092Y599975D01*
X97092Y602116D02*
X106108Y602116D01*
X106108Y610552D02*
X106108Y620568D01*
X106108Y610552D02*
X97092Y610552D01*
X97092Y620568D01*
X106108Y620568D01*
X106108Y612693D02*
X97092Y612693D01*
X97092Y614834D02*
X106108Y614834D01*
X106108Y616975D02*
X97092Y616975D01*
X97092Y619116D02*
X106108Y619116D01*
D17*
X76200Y530860D03*
X101600Y530860D03*
X127000Y530860D03*
X152400Y530860D03*
X177800Y530860D03*
D11*
X90868Y593552D02*
X90868Y603568D01*
X90868Y593552D02*
X81852Y593552D01*
X81852Y603568D01*
X90868Y603568D01*
X90868Y595693D02*
X81852Y595693D01*
X81852Y597834D02*
X90868Y597834D01*
X90868Y599975D02*
X81852Y599975D01*
X81852Y602116D02*
X90868Y602116D01*
X90868Y610552D02*
X90868Y620568D01*
X90868Y610552D02*
X81852Y610552D01*
X81852Y620568D01*
X90868Y620568D01*
X90868Y612693D02*
X81852Y612693D01*
X81852Y614834D02*
X90868Y614834D01*
X90868Y616975D02*
X81852Y616975D01*
X81852Y619116D02*
X90868Y619116D01*
D10*
X284480Y746760D03*
X284480Y543560D03*
X487680Y543560D03*
D11*
X434658Y648652D02*
X434658Y658668D01*
X443674Y658668D01*
X443674Y648652D01*
X434658Y648652D01*
X434658Y650793D02*
X443674Y650793D01*
X443674Y652934D02*
X434658Y652934D01*
X434658Y655075D02*
X443674Y655075D01*
X443674Y657216D02*
X434658Y657216D01*
X434658Y641668D02*
X434658Y631652D01*
X434658Y641668D02*
X443674Y641668D01*
X443674Y631652D01*
X434658Y631652D01*
X434658Y633793D02*
X443674Y633793D01*
X443674Y635934D02*
X434658Y635934D01*
X434658Y638075D02*
X443674Y638075D01*
X443674Y640216D02*
X434658Y640216D01*
X419672Y648652D02*
X419672Y658668D01*
X428688Y658668D01*
X428688Y648652D01*
X419672Y648652D01*
X419672Y650793D02*
X428688Y650793D01*
X428688Y652934D02*
X419672Y652934D01*
X419672Y655075D02*
X428688Y655075D01*
X428688Y657216D02*
X419672Y657216D01*
X419672Y641668D02*
X419672Y631652D01*
X419672Y641668D02*
X428688Y641668D01*
X428688Y631652D01*
X419672Y631652D01*
X419672Y633793D02*
X428688Y633793D01*
X428688Y635934D02*
X419672Y635934D01*
X419672Y638075D02*
X428688Y638075D01*
X428688Y640216D02*
X419672Y640216D01*
D12*
X300990Y713740D03*
X471424Y574040D03*
D13*
X508283Y611653D02*
X508283Y622667D01*
X508283Y611653D02*
X489269Y611653D01*
X489269Y622667D01*
X508283Y622667D01*
X508283Y613796D02*
X489269Y613796D01*
X489269Y615939D02*
X508283Y615939D01*
X508283Y618082D02*
X489269Y618082D01*
X489269Y620225D02*
X508283Y620225D01*
X508283Y622368D02*
X489269Y622368D01*
X508283Y667653D02*
X508283Y678667D01*
X508283Y667653D02*
X489269Y667653D01*
X489269Y678667D01*
X508283Y678667D01*
X508283Y669796D02*
X489269Y669796D01*
X489269Y671939D02*
X508283Y671939D01*
X508283Y674082D02*
X489269Y674082D01*
X489269Y676225D02*
X508283Y676225D01*
X508283Y678368D02*
X489269Y678368D01*
D14*
X468284Y632668D02*
X468284Y627652D01*
X455768Y627652D01*
X455768Y632668D01*
X468284Y632668D01*
X468284Y629793D02*
X455768Y629793D01*
X455768Y631934D02*
X468284Y631934D01*
X468284Y637652D02*
X468284Y642668D01*
X468284Y637652D02*
X455768Y637652D01*
X455768Y642668D01*
X468284Y642668D01*
X468284Y639793D02*
X455768Y639793D01*
X455768Y641934D02*
X468284Y641934D01*
X468284Y647652D02*
X468284Y652668D01*
X468284Y647652D02*
X455768Y647652D01*
X455768Y652668D01*
X468284Y652668D01*
X468284Y649793D02*
X455768Y649793D01*
X455768Y651934D02*
X468284Y651934D01*
X468284Y657652D02*
X468284Y662668D01*
X468284Y657652D02*
X455768Y657652D01*
X455768Y662668D01*
X468284Y662668D01*
X468284Y659793D02*
X455768Y659793D01*
X455768Y661934D02*
X468284Y661934D01*
D13*
X263623Y667653D02*
X263623Y678667D01*
X282637Y678667D01*
X282637Y667653D01*
X263623Y667653D01*
X263623Y669796D02*
X282637Y669796D01*
X282637Y671939D02*
X263623Y671939D01*
X263623Y674082D02*
X282637Y674082D01*
X282637Y676225D02*
X263623Y676225D01*
X263623Y678368D02*
X282637Y678368D01*
X263623Y622667D02*
X263623Y611653D01*
X263623Y622667D02*
X282637Y622667D01*
X282637Y611653D01*
X263623Y611653D01*
X263623Y613796D02*
X282637Y613796D01*
X282637Y615939D02*
X263623Y615939D01*
X263623Y618082D02*
X282637Y618082D01*
X282637Y620225D02*
X263623Y620225D01*
X263623Y622368D02*
X282637Y622368D01*
D14*
X303622Y657652D02*
X303622Y662668D01*
X316138Y662668D01*
X316138Y657652D01*
X303622Y657652D01*
X303622Y659793D02*
X316138Y659793D01*
X316138Y661934D02*
X303622Y661934D01*
X303622Y652668D02*
X303622Y647652D01*
X303622Y652668D02*
X316138Y652668D01*
X316138Y647652D01*
X303622Y647652D01*
X303622Y649793D02*
X316138Y649793D01*
X316138Y651934D02*
X303622Y651934D01*
X303622Y642668D02*
X303622Y637652D01*
X303622Y642668D02*
X316138Y642668D01*
X316138Y637652D01*
X303622Y637652D01*
X303622Y639793D02*
X316138Y639793D01*
X316138Y641934D02*
X303622Y641934D01*
X303622Y632668D02*
X303622Y627652D01*
X303622Y632668D02*
X316138Y632668D01*
X316138Y627652D01*
X303622Y627652D01*
X303622Y629793D02*
X316138Y629793D01*
X316138Y631934D02*
X303622Y631934D01*
D15*
X499680Y702760D02*
X506668Y702760D01*
X499680Y702760D02*
X499680Y709748D01*
X506668Y709748D01*
X506668Y702760D01*
X506668Y706829D02*
X499680Y706829D01*
X499680Y685220D02*
X506668Y685220D01*
X499680Y685220D02*
X499680Y692208D01*
X506668Y692208D01*
X506668Y685220D01*
X506668Y689289D02*
X499680Y689289D01*
D11*
X491680Y684484D02*
X491680Y694500D01*
X491680Y684484D02*
X482664Y684484D01*
X482664Y694500D01*
X491680Y694500D01*
X491680Y686625D02*
X482664Y686625D01*
X482664Y688766D02*
X491680Y688766D01*
X491680Y690907D02*
X482664Y690907D01*
X482664Y693048D02*
X491680Y693048D01*
X491680Y701484D02*
X491680Y711500D01*
X491680Y701484D02*
X482664Y701484D01*
X482664Y711500D01*
X491680Y711500D01*
X491680Y703625D02*
X482664Y703625D01*
X482664Y705766D02*
X491680Y705766D01*
X491680Y707907D02*
X482664Y707907D01*
X482664Y710048D02*
X491680Y710048D01*
D10*
X487680Y746760D03*
D14*
X358172Y652668D02*
X358172Y647652D01*
X358172Y652668D02*
X363188Y652668D01*
X363188Y647652D01*
X358172Y647652D01*
X358172Y649793D02*
X363188Y649793D01*
X363188Y651934D02*
X358172Y651934D01*
X358172Y642668D02*
X358172Y637652D01*
X358172Y642668D02*
X363188Y642668D01*
X363188Y637652D01*
X358172Y637652D01*
X358172Y639793D02*
X363188Y639793D01*
X363188Y641934D02*
X358172Y641934D01*
D16*
X374108Y651798D02*
X380272Y651798D01*
X374108Y651798D02*
X374108Y653762D01*
X380272Y653762D01*
X380272Y651798D01*
X380272Y646798D02*
X374108Y646798D01*
X374108Y648762D01*
X380272Y648762D01*
X380272Y646798D01*
X380272Y641798D02*
X374108Y641798D01*
X374108Y643762D01*
X380272Y643762D01*
X380272Y641798D01*
X380272Y636798D02*
X374108Y636798D01*
X374108Y638762D01*
X380272Y638762D01*
X380272Y636798D01*
X391308Y636798D02*
X397472Y636798D01*
X391308Y636798D02*
X391308Y638762D01*
X397472Y638762D01*
X397472Y636798D01*
X397472Y641798D02*
X391308Y641798D01*
X391308Y643762D01*
X397472Y643762D01*
X397472Y641798D01*
X397472Y646798D02*
X391308Y646798D01*
X391308Y648762D01*
X397472Y648762D01*
X397472Y646798D01*
X397472Y651798D02*
X391308Y651798D01*
X391308Y653762D01*
X397472Y653762D01*
X397472Y651798D01*
D11*
X365188Y603568D02*
X365188Y593552D01*
X356172Y593552D01*
X356172Y603568D01*
X365188Y603568D01*
X365188Y595693D02*
X356172Y595693D01*
X356172Y597834D02*
X365188Y597834D01*
X365188Y599975D02*
X356172Y599975D01*
X356172Y602116D02*
X365188Y602116D01*
X365188Y610552D02*
X365188Y620568D01*
X365188Y610552D02*
X356172Y610552D01*
X356172Y620568D01*
X365188Y620568D01*
X365188Y612693D02*
X356172Y612693D01*
X356172Y614834D02*
X365188Y614834D01*
X365188Y616975D02*
X356172Y616975D01*
X356172Y619116D02*
X365188Y619116D01*
D17*
X335280Y530860D03*
X360680Y530860D03*
X386080Y530860D03*
X411480Y530860D03*
X436880Y530860D03*
D11*
X349948Y593552D02*
X349948Y603568D01*
X349948Y593552D02*
X340932Y593552D01*
X340932Y603568D01*
X349948Y603568D01*
X349948Y595693D02*
X340932Y595693D01*
X340932Y597834D02*
X349948Y597834D01*
X349948Y599975D02*
X340932Y599975D01*
X340932Y602116D02*
X349948Y602116D01*
X349948Y610552D02*
X349948Y620568D01*
X349948Y610552D02*
X340932Y610552D01*
X340932Y620568D01*
X349948Y620568D01*
X349948Y612693D02*
X340932Y612693D01*
X340932Y614834D02*
X349948Y614834D01*
X349948Y616975D02*
X340932Y616975D01*
X340932Y619116D02*
X349948Y619116D01*
D10*
X543560Y746760D03*
X543560Y543560D03*
X746760Y543560D03*
D11*
X693738Y648652D02*
X693738Y658668D01*
X702754Y658668D01*
X702754Y648652D01*
X693738Y648652D01*
X693738Y650793D02*
X702754Y650793D01*
X702754Y652934D02*
X693738Y652934D01*
X693738Y655075D02*
X702754Y655075D01*
X702754Y657216D02*
X693738Y657216D01*
X693738Y641668D02*
X693738Y631652D01*
X693738Y641668D02*
X702754Y641668D01*
X702754Y631652D01*
X693738Y631652D01*
X693738Y633793D02*
X702754Y633793D01*
X702754Y635934D02*
X693738Y635934D01*
X693738Y638075D02*
X702754Y638075D01*
X702754Y640216D02*
X693738Y640216D01*
X678752Y648652D02*
X678752Y658668D01*
X687768Y658668D01*
X687768Y648652D01*
X678752Y648652D01*
X678752Y650793D02*
X687768Y650793D01*
X687768Y652934D02*
X678752Y652934D01*
X678752Y655075D02*
X687768Y655075D01*
X687768Y657216D02*
X678752Y657216D01*
X678752Y641668D02*
X678752Y631652D01*
X678752Y641668D02*
X687768Y641668D01*
X687768Y631652D01*
X678752Y631652D01*
X678752Y633793D02*
X687768Y633793D01*
X687768Y635934D02*
X678752Y635934D01*
X678752Y638075D02*
X687768Y638075D01*
X687768Y640216D02*
X678752Y640216D01*
D12*
X560070Y713740D03*
X730504Y574040D03*
D13*
X767363Y611653D02*
X767363Y622667D01*
X767363Y611653D02*
X748349Y611653D01*
X748349Y622667D01*
X767363Y622667D01*
X767363Y613796D02*
X748349Y613796D01*
X748349Y615939D02*
X767363Y615939D01*
X767363Y618082D02*
X748349Y618082D01*
X748349Y620225D02*
X767363Y620225D01*
X767363Y622368D02*
X748349Y622368D01*
X767363Y667653D02*
X767363Y678667D01*
X767363Y667653D02*
X748349Y667653D01*
X748349Y678667D01*
X767363Y678667D01*
X767363Y669796D02*
X748349Y669796D01*
X748349Y671939D02*
X767363Y671939D01*
X767363Y674082D02*
X748349Y674082D01*
X748349Y676225D02*
X767363Y676225D01*
X767363Y678368D02*
X748349Y678368D01*
D14*
X727364Y632668D02*
X727364Y627652D01*
X714848Y627652D01*
X714848Y632668D01*
X727364Y632668D01*
X727364Y629793D02*
X714848Y629793D01*
X714848Y631934D02*
X727364Y631934D01*
X727364Y637652D02*
X727364Y642668D01*
X727364Y637652D02*
X714848Y637652D01*
X714848Y642668D01*
X727364Y642668D01*
X727364Y639793D02*
X714848Y639793D01*
X714848Y641934D02*
X727364Y641934D01*
X727364Y647652D02*
X727364Y652668D01*
X727364Y647652D02*
X714848Y647652D01*
X714848Y652668D01*
X727364Y652668D01*
X727364Y649793D02*
X714848Y649793D01*
X714848Y651934D02*
X727364Y651934D01*
X727364Y657652D02*
X727364Y662668D01*
X727364Y657652D02*
X714848Y657652D01*
X714848Y662668D01*
X727364Y662668D01*
X727364Y659793D02*
X714848Y659793D01*
X714848Y661934D02*
X727364Y661934D01*
D13*
X522703Y667653D02*
X522703Y678667D01*
X541717Y678667D01*
X541717Y667653D01*
X522703Y667653D01*
X522703Y669796D02*
X541717Y669796D01*
X541717Y671939D02*
X522703Y671939D01*
X522703Y674082D02*
X541717Y674082D01*
X541717Y676225D02*
X522703Y676225D01*
X522703Y678368D02*
X541717Y678368D01*
X522703Y622667D02*
X522703Y611653D01*
X522703Y622667D02*
X541717Y622667D01*
X541717Y611653D01*
X522703Y611653D01*
X522703Y613796D02*
X541717Y613796D01*
X541717Y615939D02*
X522703Y615939D01*
X522703Y618082D02*
X541717Y618082D01*
X541717Y620225D02*
X522703Y620225D01*
X522703Y622368D02*
X541717Y622368D01*
D14*
X562702Y657652D02*
X562702Y662668D01*
X575218Y662668D01*
X575218Y657652D01*
X562702Y657652D01*
X562702Y659793D02*
X575218Y659793D01*
X575218Y661934D02*
X562702Y661934D01*
X562702Y652668D02*
X562702Y647652D01*
X562702Y652668D02*
X575218Y652668D01*
X575218Y647652D01*
X562702Y647652D01*
X562702Y649793D02*
X575218Y649793D01*
X575218Y651934D02*
X562702Y651934D01*
X562702Y642668D02*
X562702Y637652D01*
X562702Y642668D02*
X575218Y642668D01*
X575218Y637652D01*
X562702Y637652D01*
X562702Y639793D02*
X575218Y639793D01*
X575218Y641934D02*
X562702Y641934D01*
X562702Y632668D02*
X562702Y627652D01*
X562702Y632668D02*
X575218Y632668D01*
X575218Y627652D01*
X562702Y627652D01*
X562702Y629793D02*
X575218Y629793D01*
X575218Y631934D02*
X562702Y631934D01*
D15*
X758760Y702760D02*
X765748Y702760D01*
X758760Y702760D02*
X758760Y709748D01*
X765748Y709748D01*
X765748Y702760D01*
X765748Y706829D02*
X758760Y706829D01*
X758760Y685220D02*
X765748Y685220D01*
X758760Y685220D02*
X758760Y692208D01*
X765748Y692208D01*
X765748Y685220D01*
X765748Y689289D02*
X758760Y689289D01*
D11*
X750760Y684484D02*
X750760Y694500D01*
X750760Y684484D02*
X741744Y684484D01*
X741744Y694500D01*
X750760Y694500D01*
X750760Y686625D02*
X741744Y686625D01*
X741744Y688766D02*
X750760Y688766D01*
X750760Y690907D02*
X741744Y690907D01*
X741744Y693048D02*
X750760Y693048D01*
X750760Y701484D02*
X750760Y711500D01*
X750760Y701484D02*
X741744Y701484D01*
X741744Y711500D01*
X750760Y711500D01*
X750760Y703625D02*
X741744Y703625D01*
X741744Y705766D02*
X750760Y705766D01*
X750760Y707907D02*
X741744Y707907D01*
X741744Y710048D02*
X750760Y710048D01*
D10*
X746760Y746760D03*
D14*
X617252Y652668D02*
X617252Y647652D01*
X617252Y652668D02*
X622268Y652668D01*
X622268Y647652D01*
X617252Y647652D01*
X617252Y649793D02*
X622268Y649793D01*
X622268Y651934D02*
X617252Y651934D01*
X617252Y642668D02*
X617252Y637652D01*
X617252Y642668D02*
X622268Y642668D01*
X622268Y637652D01*
X617252Y637652D01*
X617252Y639793D02*
X622268Y639793D01*
X622268Y641934D02*
X617252Y641934D01*
D16*
X633188Y651798D02*
X639352Y651798D01*
X633188Y651798D02*
X633188Y653762D01*
X639352Y653762D01*
X639352Y651798D01*
X639352Y646798D02*
X633188Y646798D01*
X633188Y648762D01*
X639352Y648762D01*
X639352Y646798D01*
X639352Y641798D02*
X633188Y641798D01*
X633188Y643762D01*
X639352Y643762D01*
X639352Y641798D01*
X639352Y636798D02*
X633188Y636798D01*
X633188Y638762D01*
X639352Y638762D01*
X639352Y636798D01*
X650388Y636798D02*
X656552Y636798D01*
X650388Y636798D02*
X650388Y638762D01*
X656552Y638762D01*
X656552Y636798D01*
X656552Y641798D02*
X650388Y641798D01*
X650388Y643762D01*
X656552Y643762D01*
X656552Y641798D01*
X656552Y646798D02*
X650388Y646798D01*
X650388Y648762D01*
X656552Y648762D01*
X656552Y646798D01*
X656552Y651798D02*
X650388Y651798D01*
X650388Y653762D01*
X656552Y653762D01*
X656552Y651798D01*
D11*
X624268Y603568D02*
X624268Y593552D01*
X615252Y593552D01*
X615252Y603568D01*
X624268Y603568D01*
X624268Y595693D02*
X615252Y595693D01*
X615252Y597834D02*
X624268Y597834D01*
X624268Y599975D02*
X615252Y599975D01*
X615252Y602116D02*
X624268Y602116D01*
X624268Y610552D02*
X624268Y620568D01*
X624268Y610552D02*
X615252Y610552D01*
X615252Y620568D01*
X624268Y620568D01*
X624268Y612693D02*
X615252Y612693D01*
X615252Y614834D02*
X624268Y614834D01*
X624268Y616975D02*
X615252Y616975D01*
X615252Y619116D02*
X624268Y619116D01*
D17*
X594360Y530860D03*
X619760Y530860D03*
X645160Y530860D03*
X670560Y530860D03*
X695960Y530860D03*
D11*
X609028Y593552D02*
X609028Y603568D01*
X609028Y593552D02*
X600012Y593552D01*
X600012Y603568D01*
X609028Y603568D01*
X609028Y595693D02*
X600012Y595693D01*
X600012Y597834D02*
X609028Y597834D01*
X609028Y599975D02*
X600012Y599975D01*
X600012Y602116D02*
X609028Y602116D01*
X609028Y610552D02*
X609028Y620568D01*
X609028Y610552D02*
X600012Y610552D01*
X600012Y620568D01*
X609028Y620568D01*
X609028Y612693D02*
X600012Y612693D01*
X600012Y614834D02*
X609028Y614834D01*
X609028Y616975D02*
X600012Y616975D01*
X600012Y619116D02*
X609028Y619116D01*
D10*
X802640Y746760D03*
X802640Y543560D03*
X1005840Y543560D03*
D11*
X952818Y648652D02*
X952818Y658668D01*
X961834Y658668D01*
X961834Y648652D01*
X952818Y648652D01*
X952818Y650793D02*
X961834Y650793D01*
X961834Y652934D02*
X952818Y652934D01*
X952818Y655075D02*
X961834Y655075D01*
X961834Y657216D02*
X952818Y657216D01*
X952818Y641668D02*
X952818Y631652D01*
X952818Y641668D02*
X961834Y641668D01*
X961834Y631652D01*
X952818Y631652D01*
X952818Y633793D02*
X961834Y633793D01*
X961834Y635934D02*
X952818Y635934D01*
X952818Y638075D02*
X961834Y638075D01*
X961834Y640216D02*
X952818Y640216D01*
X937832Y648652D02*
X937832Y658668D01*
X946848Y658668D01*
X946848Y648652D01*
X937832Y648652D01*
X937832Y650793D02*
X946848Y650793D01*
X946848Y652934D02*
X937832Y652934D01*
X937832Y655075D02*
X946848Y655075D01*
X946848Y657216D02*
X937832Y657216D01*
X937832Y641668D02*
X937832Y631652D01*
X937832Y641668D02*
X946848Y641668D01*
X946848Y631652D01*
X937832Y631652D01*
X937832Y633793D02*
X946848Y633793D01*
X946848Y635934D02*
X937832Y635934D01*
X937832Y638075D02*
X946848Y638075D01*
X946848Y640216D02*
X937832Y640216D01*
D12*
X819150Y713740D03*
X989584Y574040D03*
D13*
X1026443Y611653D02*
X1026443Y622667D01*
X1026443Y611653D02*
X1007429Y611653D01*
X1007429Y622667D01*
X1026443Y622667D01*
X1026443Y613796D02*
X1007429Y613796D01*
X1007429Y615939D02*
X1026443Y615939D01*
X1026443Y618082D02*
X1007429Y618082D01*
X1007429Y620225D02*
X1026443Y620225D01*
X1026443Y622368D02*
X1007429Y622368D01*
X1026443Y667653D02*
X1026443Y678667D01*
X1026443Y667653D02*
X1007429Y667653D01*
X1007429Y678667D01*
X1026443Y678667D01*
X1026443Y669796D02*
X1007429Y669796D01*
X1007429Y671939D02*
X1026443Y671939D01*
X1026443Y674082D02*
X1007429Y674082D01*
X1007429Y676225D02*
X1026443Y676225D01*
X1026443Y678368D02*
X1007429Y678368D01*
D14*
X986444Y632668D02*
X986444Y627652D01*
X973928Y627652D01*
X973928Y632668D01*
X986444Y632668D01*
X986444Y629793D02*
X973928Y629793D01*
X973928Y631934D02*
X986444Y631934D01*
X986444Y637652D02*
X986444Y642668D01*
X986444Y637652D02*
X973928Y637652D01*
X973928Y642668D01*
X986444Y642668D01*
X986444Y639793D02*
X973928Y639793D01*
X973928Y641934D02*
X986444Y641934D01*
X986444Y647652D02*
X986444Y652668D01*
X986444Y647652D02*
X973928Y647652D01*
X973928Y652668D01*
X986444Y652668D01*
X986444Y649793D02*
X973928Y649793D01*
X973928Y651934D02*
X986444Y651934D01*
X986444Y657652D02*
X986444Y662668D01*
X986444Y657652D02*
X973928Y657652D01*
X973928Y662668D01*
X986444Y662668D01*
X986444Y659793D02*
X973928Y659793D01*
X973928Y661934D02*
X986444Y661934D01*
D13*
X781783Y667653D02*
X781783Y678667D01*
X800797Y678667D01*
X800797Y667653D01*
X781783Y667653D01*
X781783Y669796D02*
X800797Y669796D01*
X800797Y671939D02*
X781783Y671939D01*
X781783Y674082D02*
X800797Y674082D01*
X800797Y676225D02*
X781783Y676225D01*
X781783Y678368D02*
X800797Y678368D01*
X781783Y622667D02*
X781783Y611653D01*
X781783Y622667D02*
X800797Y622667D01*
X800797Y611653D01*
X781783Y611653D01*
X781783Y613796D02*
X800797Y613796D01*
X800797Y615939D02*
X781783Y615939D01*
X781783Y618082D02*
X800797Y618082D01*
X800797Y620225D02*
X781783Y620225D01*
X781783Y622368D02*
X800797Y622368D01*
D14*
X821782Y657652D02*
X821782Y662668D01*
X834298Y662668D01*
X834298Y657652D01*
X821782Y657652D01*
X821782Y659793D02*
X834298Y659793D01*
X834298Y661934D02*
X821782Y661934D01*
X821782Y652668D02*
X821782Y647652D01*
X821782Y652668D02*
X834298Y652668D01*
X834298Y647652D01*
X821782Y647652D01*
X821782Y649793D02*
X834298Y649793D01*
X834298Y651934D02*
X821782Y651934D01*
X821782Y642668D02*
X821782Y637652D01*
X821782Y642668D02*
X834298Y642668D01*
X834298Y637652D01*
X821782Y637652D01*
X821782Y639793D02*
X834298Y639793D01*
X834298Y641934D02*
X821782Y641934D01*
X821782Y632668D02*
X821782Y627652D01*
X821782Y632668D02*
X834298Y632668D01*
X834298Y627652D01*
X821782Y627652D01*
X821782Y629793D02*
X834298Y629793D01*
X834298Y631934D02*
X821782Y631934D01*
D15*
X1017840Y702760D02*
X1024828Y702760D01*
X1017840Y702760D02*
X1017840Y709748D01*
X1024828Y709748D01*
X1024828Y702760D01*
X1024828Y706829D02*
X1017840Y706829D01*
X1017840Y685220D02*
X1024828Y685220D01*
X1017840Y685220D02*
X1017840Y692208D01*
X1024828Y692208D01*
X1024828Y685220D01*
X1024828Y689289D02*
X1017840Y689289D01*
D11*
X1009840Y684484D02*
X1009840Y694500D01*
X1009840Y684484D02*
X1000824Y684484D01*
X1000824Y694500D01*
X1009840Y694500D01*
X1009840Y686625D02*
X1000824Y686625D01*
X1000824Y688766D02*
X1009840Y688766D01*
X1009840Y690907D02*
X1000824Y690907D01*
X1000824Y693048D02*
X1009840Y693048D01*
X1009840Y701484D02*
X1009840Y711500D01*
X1009840Y701484D02*
X1000824Y701484D01*
X1000824Y711500D01*
X1009840Y711500D01*
X1009840Y703625D02*
X1000824Y703625D01*
X1000824Y705766D02*
X1009840Y705766D01*
X1009840Y707907D02*
X1000824Y707907D01*
X1000824Y710048D02*
X1009840Y710048D01*
D10*
X1005840Y746760D03*
D14*
X876332Y652668D02*
X876332Y647652D01*
X876332Y652668D02*
X881348Y652668D01*
X881348Y647652D01*
X876332Y647652D01*
X876332Y649793D02*
X881348Y649793D01*
X881348Y651934D02*
X876332Y651934D01*
X876332Y642668D02*
X876332Y637652D01*
X876332Y642668D02*
X881348Y642668D01*
X881348Y637652D01*
X876332Y637652D01*
X876332Y639793D02*
X881348Y639793D01*
X881348Y641934D02*
X876332Y641934D01*
D16*
X892268Y651798D02*
X898432Y651798D01*
X892268Y651798D02*
X892268Y653762D01*
X898432Y653762D01*
X898432Y651798D01*
X898432Y646798D02*
X892268Y646798D01*
X892268Y648762D01*
X898432Y648762D01*
X898432Y646798D01*
X898432Y641798D02*
X892268Y641798D01*
X892268Y643762D01*
X898432Y643762D01*
X898432Y641798D01*
X898432Y636798D02*
X892268Y636798D01*
X892268Y638762D01*
X898432Y638762D01*
X898432Y636798D01*
X909468Y636798D02*
X915632Y636798D01*
X909468Y636798D02*
X909468Y638762D01*
X915632Y638762D01*
X915632Y636798D01*
X915632Y641798D02*
X909468Y641798D01*
X909468Y643762D01*
X915632Y643762D01*
X915632Y641798D01*
X915632Y646798D02*
X909468Y646798D01*
X909468Y648762D01*
X915632Y648762D01*
X915632Y646798D01*
X915632Y651798D02*
X909468Y651798D01*
X909468Y653762D01*
X915632Y653762D01*
X915632Y651798D01*
D11*
X883348Y603568D02*
X883348Y593552D01*
X874332Y593552D01*
X874332Y603568D01*
X883348Y603568D01*
X883348Y595693D02*
X874332Y595693D01*
X874332Y597834D02*
X883348Y597834D01*
X883348Y599975D02*
X874332Y599975D01*
X874332Y602116D02*
X883348Y602116D01*
X883348Y610552D02*
X883348Y620568D01*
X883348Y610552D02*
X874332Y610552D01*
X874332Y620568D01*
X883348Y620568D01*
X883348Y612693D02*
X874332Y612693D01*
X874332Y614834D02*
X883348Y614834D01*
X883348Y616975D02*
X874332Y616975D01*
X874332Y619116D02*
X883348Y619116D01*
D17*
X853440Y530860D03*
X878840Y530860D03*
X904240Y530860D03*
X929640Y530860D03*
X955040Y530860D03*
D11*
X868108Y593552D02*
X868108Y603568D01*
X868108Y593552D02*
X859092Y593552D01*
X859092Y603568D01*
X868108Y603568D01*
X868108Y595693D02*
X859092Y595693D01*
X859092Y597834D02*
X868108Y597834D01*
X868108Y599975D02*
X859092Y599975D01*
X859092Y602116D02*
X868108Y602116D01*
X868108Y610552D02*
X868108Y620568D01*
X868108Y610552D02*
X859092Y610552D01*
X859092Y620568D01*
X868108Y620568D01*
X868108Y612693D02*
X859092Y612693D01*
X859092Y614834D02*
X868108Y614834D01*
X868108Y616975D02*
X859092Y616975D01*
X859092Y619116D02*
X868108Y619116D01*
D10*
X1061720Y746760D03*
X1061720Y543560D03*
X1264920Y543560D03*
D11*
X1211898Y648652D02*
X1211898Y658668D01*
X1220914Y658668D01*
X1220914Y648652D01*
X1211898Y648652D01*
X1211898Y650793D02*
X1220914Y650793D01*
X1220914Y652934D02*
X1211898Y652934D01*
X1211898Y655075D02*
X1220914Y655075D01*
X1220914Y657216D02*
X1211898Y657216D01*
X1211898Y641668D02*
X1211898Y631652D01*
X1211898Y641668D02*
X1220914Y641668D01*
X1220914Y631652D01*
X1211898Y631652D01*
X1211898Y633793D02*
X1220914Y633793D01*
X1220914Y635934D02*
X1211898Y635934D01*
X1211898Y638075D02*
X1220914Y638075D01*
X1220914Y640216D02*
X1211898Y640216D01*
X1196912Y648652D02*
X1196912Y658668D01*
X1205928Y658668D01*
X1205928Y648652D01*
X1196912Y648652D01*
X1196912Y650793D02*
X1205928Y650793D01*
X1205928Y652934D02*
X1196912Y652934D01*
X1196912Y655075D02*
X1205928Y655075D01*
X1205928Y657216D02*
X1196912Y657216D01*
X1196912Y641668D02*
X1196912Y631652D01*
X1196912Y641668D02*
X1205928Y641668D01*
X1205928Y631652D01*
X1196912Y631652D01*
X1196912Y633793D02*
X1205928Y633793D01*
X1205928Y635934D02*
X1196912Y635934D01*
X1196912Y638075D02*
X1205928Y638075D01*
X1205928Y640216D02*
X1196912Y640216D01*
D12*
X1078230Y713740D03*
X1248664Y574040D03*
D13*
X1285523Y611653D02*
X1285523Y622667D01*
X1285523Y611653D02*
X1266509Y611653D01*
X1266509Y622667D01*
X1285523Y622667D01*
X1285523Y613796D02*
X1266509Y613796D01*
X1266509Y615939D02*
X1285523Y615939D01*
X1285523Y618082D02*
X1266509Y618082D01*
X1266509Y620225D02*
X1285523Y620225D01*
X1285523Y622368D02*
X1266509Y622368D01*
X1285523Y667653D02*
X1285523Y678667D01*
X1285523Y667653D02*
X1266509Y667653D01*
X1266509Y678667D01*
X1285523Y678667D01*
X1285523Y669796D02*
X1266509Y669796D01*
X1266509Y671939D02*
X1285523Y671939D01*
X1285523Y674082D02*
X1266509Y674082D01*
X1266509Y676225D02*
X1285523Y676225D01*
X1285523Y678368D02*
X1266509Y678368D01*
D14*
X1245524Y632668D02*
X1245524Y627652D01*
X1233008Y627652D01*
X1233008Y632668D01*
X1245524Y632668D01*
X1245524Y629793D02*
X1233008Y629793D01*
X1233008Y631934D02*
X1245524Y631934D01*
X1245524Y637652D02*
X1245524Y642668D01*
X1245524Y637652D02*
X1233008Y637652D01*
X1233008Y642668D01*
X1245524Y642668D01*
X1245524Y639793D02*
X1233008Y639793D01*
X1233008Y641934D02*
X1245524Y641934D01*
X1245524Y647652D02*
X1245524Y652668D01*
X1245524Y647652D02*
X1233008Y647652D01*
X1233008Y652668D01*
X1245524Y652668D01*
X1245524Y649793D02*
X1233008Y649793D01*
X1233008Y651934D02*
X1245524Y651934D01*
X1245524Y657652D02*
X1245524Y662668D01*
X1245524Y657652D02*
X1233008Y657652D01*
X1233008Y662668D01*
X1245524Y662668D01*
X1245524Y659793D02*
X1233008Y659793D01*
X1233008Y661934D02*
X1245524Y661934D01*
D13*
X1040863Y667653D02*
X1040863Y678667D01*
X1059877Y678667D01*
X1059877Y667653D01*
X1040863Y667653D01*
X1040863Y669796D02*
X1059877Y669796D01*
X1059877Y671939D02*
X1040863Y671939D01*
X1040863Y674082D02*
X1059877Y674082D01*
X1059877Y676225D02*
X1040863Y676225D01*
X1040863Y678368D02*
X1059877Y678368D01*
X1040863Y622667D02*
X1040863Y611653D01*
X1040863Y622667D02*
X1059877Y622667D01*
X1059877Y611653D01*
X1040863Y611653D01*
X1040863Y613796D02*
X1059877Y613796D01*
X1059877Y615939D02*
X1040863Y615939D01*
X1040863Y618082D02*
X1059877Y618082D01*
X1059877Y620225D02*
X1040863Y620225D01*
X1040863Y622368D02*
X1059877Y622368D01*
D14*
X1080862Y657652D02*
X1080862Y662668D01*
X1093378Y662668D01*
X1093378Y657652D01*
X1080862Y657652D01*
X1080862Y659793D02*
X1093378Y659793D01*
X1093378Y661934D02*
X1080862Y661934D01*
X1080862Y652668D02*
X1080862Y647652D01*
X1080862Y652668D02*
X1093378Y652668D01*
X1093378Y647652D01*
X1080862Y647652D01*
X1080862Y649793D02*
X1093378Y649793D01*
X1093378Y651934D02*
X1080862Y651934D01*
X1080862Y642668D02*
X1080862Y637652D01*
X1080862Y642668D02*
X1093378Y642668D01*
X1093378Y637652D01*
X1080862Y637652D01*
X1080862Y639793D02*
X1093378Y639793D01*
X1093378Y641934D02*
X1080862Y641934D01*
X1080862Y632668D02*
X1080862Y627652D01*
X1080862Y632668D02*
X1093378Y632668D01*
X1093378Y627652D01*
X1080862Y627652D01*
X1080862Y629793D02*
X1093378Y629793D01*
X1093378Y631934D02*
X1080862Y631934D01*
D15*
X1276920Y702760D02*
X1283908Y702760D01*
X1276920Y702760D02*
X1276920Y709748D01*
X1283908Y709748D01*
X1283908Y702760D01*
X1283908Y706829D02*
X1276920Y706829D01*
X1276920Y685220D02*
X1283908Y685220D01*
X1276920Y685220D02*
X1276920Y692208D01*
X1283908Y692208D01*
X1283908Y685220D01*
X1283908Y689289D02*
X1276920Y689289D01*
D11*
X1268920Y684484D02*
X1268920Y694500D01*
X1268920Y684484D02*
X1259904Y684484D01*
X1259904Y694500D01*
X1268920Y694500D01*
X1268920Y686625D02*
X1259904Y686625D01*
X1259904Y688766D02*
X1268920Y688766D01*
X1268920Y690907D02*
X1259904Y690907D01*
X1259904Y693048D02*
X1268920Y693048D01*
X1268920Y701484D02*
X1268920Y711500D01*
X1268920Y701484D02*
X1259904Y701484D01*
X1259904Y711500D01*
X1268920Y711500D01*
X1268920Y703625D02*
X1259904Y703625D01*
X1259904Y705766D02*
X1268920Y705766D01*
X1268920Y707907D02*
X1259904Y707907D01*
X1259904Y710048D02*
X1268920Y710048D01*
D10*
X1264920Y746760D03*
D14*
X1135412Y652668D02*
X1135412Y647652D01*
X1135412Y652668D02*
X1140428Y652668D01*
X1140428Y647652D01*
X1135412Y647652D01*
X1135412Y649793D02*
X1140428Y649793D01*
X1140428Y651934D02*
X1135412Y651934D01*
X1135412Y642668D02*
X1135412Y637652D01*
X1135412Y642668D02*
X1140428Y642668D01*
X1140428Y637652D01*
X1135412Y637652D01*
X1135412Y639793D02*
X1140428Y639793D01*
X1140428Y641934D02*
X1135412Y641934D01*
D16*
X1151348Y651798D02*
X1157512Y651798D01*
X1151348Y651798D02*
X1151348Y653762D01*
X1157512Y653762D01*
X1157512Y651798D01*
X1157512Y646798D02*
X1151348Y646798D01*
X1151348Y648762D01*
X1157512Y648762D01*
X1157512Y646798D01*
X1157512Y641798D02*
X1151348Y641798D01*
X1151348Y643762D01*
X1157512Y643762D01*
X1157512Y641798D01*
X1157512Y636798D02*
X1151348Y636798D01*
X1151348Y638762D01*
X1157512Y638762D01*
X1157512Y636798D01*
X1168548Y636798D02*
X1174712Y636798D01*
X1168548Y636798D02*
X1168548Y638762D01*
X1174712Y638762D01*
X1174712Y636798D01*
X1174712Y641798D02*
X1168548Y641798D01*
X1168548Y643762D01*
X1174712Y643762D01*
X1174712Y641798D01*
X1174712Y646798D02*
X1168548Y646798D01*
X1168548Y648762D01*
X1174712Y648762D01*
X1174712Y646798D01*
X1174712Y651798D02*
X1168548Y651798D01*
X1168548Y653762D01*
X1174712Y653762D01*
X1174712Y651798D01*
D11*
X1142428Y603568D02*
X1142428Y593552D01*
X1133412Y593552D01*
X1133412Y603568D01*
X1142428Y603568D01*
X1142428Y595693D02*
X1133412Y595693D01*
X1133412Y597834D02*
X1142428Y597834D01*
X1142428Y599975D02*
X1133412Y599975D01*
X1133412Y602116D02*
X1142428Y602116D01*
X1142428Y610552D02*
X1142428Y620568D01*
X1142428Y610552D02*
X1133412Y610552D01*
X1133412Y620568D01*
X1142428Y620568D01*
X1142428Y612693D02*
X1133412Y612693D01*
X1133412Y614834D02*
X1142428Y614834D01*
X1142428Y616975D02*
X1133412Y616975D01*
X1133412Y619116D02*
X1142428Y619116D01*
D17*
X1112520Y530860D03*
X1137920Y530860D03*
X1163320Y530860D03*
X1188720Y530860D03*
X1214120Y530860D03*
D11*
X1127188Y593552D02*
X1127188Y603568D01*
X1127188Y593552D02*
X1118172Y593552D01*
X1118172Y603568D01*
X1127188Y603568D01*
X1127188Y595693D02*
X1118172Y595693D01*
X1118172Y597834D02*
X1127188Y597834D01*
X1127188Y599975D02*
X1118172Y599975D01*
X1118172Y602116D02*
X1127188Y602116D01*
X1127188Y610552D02*
X1127188Y620568D01*
X1127188Y610552D02*
X1118172Y610552D01*
X1118172Y620568D01*
X1127188Y620568D01*
X1127188Y612693D02*
X1118172Y612693D01*
X1118172Y614834D02*
X1127188Y614834D01*
X1127188Y616975D02*
X1118172Y616975D01*
X1118172Y619116D02*
X1127188Y619116D01*
D10*
X1320800Y746760D03*
X1320800Y543560D03*
X1524000Y543560D03*
D11*
X1470978Y648652D02*
X1470978Y658668D01*
X1479994Y658668D01*
X1479994Y648652D01*
X1470978Y648652D01*
X1470978Y650793D02*
X1479994Y650793D01*
X1479994Y652934D02*
X1470978Y652934D01*
X1470978Y655075D02*
X1479994Y655075D01*
X1479994Y657216D02*
X1470978Y657216D01*
X1470978Y641668D02*
X1470978Y631652D01*
X1470978Y641668D02*
X1479994Y641668D01*
X1479994Y631652D01*
X1470978Y631652D01*
X1470978Y633793D02*
X1479994Y633793D01*
X1479994Y635934D02*
X1470978Y635934D01*
X1470978Y638075D02*
X1479994Y638075D01*
X1479994Y640216D02*
X1470978Y640216D01*
X1455992Y648652D02*
X1455992Y658668D01*
X1465008Y658668D01*
X1465008Y648652D01*
X1455992Y648652D01*
X1455992Y650793D02*
X1465008Y650793D01*
X1465008Y652934D02*
X1455992Y652934D01*
X1455992Y655075D02*
X1465008Y655075D01*
X1465008Y657216D02*
X1455992Y657216D01*
X1455992Y641668D02*
X1455992Y631652D01*
X1455992Y641668D02*
X1465008Y641668D01*
X1465008Y631652D01*
X1455992Y631652D01*
X1455992Y633793D02*
X1465008Y633793D01*
X1465008Y635934D02*
X1455992Y635934D01*
X1455992Y638075D02*
X1465008Y638075D01*
X1465008Y640216D02*
X1455992Y640216D01*
D12*
X1337310Y713740D03*
X1507744Y574040D03*
D13*
X1544603Y611653D02*
X1544603Y622667D01*
X1544603Y611653D02*
X1525589Y611653D01*
X1525589Y622667D01*
X1544603Y622667D01*
X1544603Y613796D02*
X1525589Y613796D01*
X1525589Y615939D02*
X1544603Y615939D01*
X1544603Y618082D02*
X1525589Y618082D01*
X1525589Y620225D02*
X1544603Y620225D01*
X1544603Y622368D02*
X1525589Y622368D01*
X1544603Y667653D02*
X1544603Y678667D01*
X1544603Y667653D02*
X1525589Y667653D01*
X1525589Y678667D01*
X1544603Y678667D01*
X1544603Y669796D02*
X1525589Y669796D01*
X1525589Y671939D02*
X1544603Y671939D01*
X1544603Y674082D02*
X1525589Y674082D01*
X1525589Y676225D02*
X1544603Y676225D01*
X1544603Y678368D02*
X1525589Y678368D01*
D14*
X1504604Y632668D02*
X1504604Y627652D01*
X1492088Y627652D01*
X1492088Y632668D01*
X1504604Y632668D01*
X1504604Y629793D02*
X1492088Y629793D01*
X1492088Y631934D02*
X1504604Y631934D01*
X1504604Y637652D02*
X1504604Y642668D01*
X1504604Y637652D02*
X1492088Y637652D01*
X1492088Y642668D01*
X1504604Y642668D01*
X1504604Y639793D02*
X1492088Y639793D01*
X1492088Y641934D02*
X1504604Y641934D01*
X1504604Y647652D02*
X1504604Y652668D01*
X1504604Y647652D02*
X1492088Y647652D01*
X1492088Y652668D01*
X1504604Y652668D01*
X1504604Y649793D02*
X1492088Y649793D01*
X1492088Y651934D02*
X1504604Y651934D01*
X1504604Y657652D02*
X1504604Y662668D01*
X1504604Y657652D02*
X1492088Y657652D01*
X1492088Y662668D01*
X1504604Y662668D01*
X1504604Y659793D02*
X1492088Y659793D01*
X1492088Y661934D02*
X1504604Y661934D01*
D13*
X1299943Y667653D02*
X1299943Y678667D01*
X1318957Y678667D01*
X1318957Y667653D01*
X1299943Y667653D01*
X1299943Y669796D02*
X1318957Y669796D01*
X1318957Y671939D02*
X1299943Y671939D01*
X1299943Y674082D02*
X1318957Y674082D01*
X1318957Y676225D02*
X1299943Y676225D01*
X1299943Y678368D02*
X1318957Y678368D01*
X1299943Y622667D02*
X1299943Y611653D01*
X1299943Y622667D02*
X1318957Y622667D01*
X1318957Y611653D01*
X1299943Y611653D01*
X1299943Y613796D02*
X1318957Y613796D01*
X1318957Y615939D02*
X1299943Y615939D01*
X1299943Y618082D02*
X1318957Y618082D01*
X1318957Y620225D02*
X1299943Y620225D01*
X1299943Y622368D02*
X1318957Y622368D01*
D14*
X1339942Y657652D02*
X1339942Y662668D01*
X1352458Y662668D01*
X1352458Y657652D01*
X1339942Y657652D01*
X1339942Y659793D02*
X1352458Y659793D01*
X1352458Y661934D02*
X1339942Y661934D01*
X1339942Y652668D02*
X1339942Y647652D01*
X1339942Y652668D02*
X1352458Y652668D01*
X1352458Y647652D01*
X1339942Y647652D01*
X1339942Y649793D02*
X1352458Y649793D01*
X1352458Y651934D02*
X1339942Y651934D01*
X1339942Y642668D02*
X1339942Y637652D01*
X1339942Y642668D02*
X1352458Y642668D01*
X1352458Y637652D01*
X1339942Y637652D01*
X1339942Y639793D02*
X1352458Y639793D01*
X1352458Y641934D02*
X1339942Y641934D01*
X1339942Y632668D02*
X1339942Y627652D01*
X1339942Y632668D02*
X1352458Y632668D01*
X1352458Y627652D01*
X1339942Y627652D01*
X1339942Y629793D02*
X1352458Y629793D01*
X1352458Y631934D02*
X1339942Y631934D01*
D15*
X1536000Y702760D02*
X1542988Y702760D01*
X1536000Y702760D02*
X1536000Y709748D01*
X1542988Y709748D01*
X1542988Y702760D01*
X1542988Y706829D02*
X1536000Y706829D01*
X1536000Y685220D02*
X1542988Y685220D01*
X1536000Y685220D02*
X1536000Y692208D01*
X1542988Y692208D01*
X1542988Y685220D01*
X1542988Y689289D02*
X1536000Y689289D01*
D11*
X1528000Y684484D02*
X1528000Y694500D01*
X1528000Y684484D02*
X1518984Y684484D01*
X1518984Y694500D01*
X1528000Y694500D01*
X1528000Y686625D02*
X1518984Y686625D01*
X1518984Y688766D02*
X1528000Y688766D01*
X1528000Y690907D02*
X1518984Y690907D01*
X1518984Y693048D02*
X1528000Y693048D01*
X1528000Y701484D02*
X1528000Y711500D01*
X1528000Y701484D02*
X1518984Y701484D01*
X1518984Y711500D01*
X1528000Y711500D01*
X1528000Y703625D02*
X1518984Y703625D01*
X1518984Y705766D02*
X1528000Y705766D01*
X1528000Y707907D02*
X1518984Y707907D01*
X1518984Y710048D02*
X1528000Y710048D01*
D10*
X1524000Y746760D03*
D14*
X1394492Y652668D02*
X1394492Y647652D01*
X1394492Y652668D02*
X1399508Y652668D01*
X1399508Y647652D01*
X1394492Y647652D01*
X1394492Y649793D02*
X1399508Y649793D01*
X1399508Y651934D02*
X1394492Y651934D01*
X1394492Y642668D02*
X1394492Y637652D01*
X1394492Y642668D02*
X1399508Y642668D01*
X1399508Y637652D01*
X1394492Y637652D01*
X1394492Y639793D02*
X1399508Y639793D01*
X1399508Y641934D02*
X1394492Y641934D01*
D16*
X1410428Y651798D02*
X1416592Y651798D01*
X1410428Y651798D02*
X1410428Y653762D01*
X1416592Y653762D01*
X1416592Y651798D01*
X1416592Y646798D02*
X1410428Y646798D01*
X1410428Y648762D01*
X1416592Y648762D01*
X1416592Y646798D01*
X1416592Y641798D02*
X1410428Y641798D01*
X1410428Y643762D01*
X1416592Y643762D01*
X1416592Y641798D01*
X1416592Y636798D02*
X1410428Y636798D01*
X1410428Y638762D01*
X1416592Y638762D01*
X1416592Y636798D01*
X1427628Y636798D02*
X1433792Y636798D01*
X1427628Y636798D02*
X1427628Y638762D01*
X1433792Y638762D01*
X1433792Y636798D01*
X1433792Y641798D02*
X1427628Y641798D01*
X1427628Y643762D01*
X1433792Y643762D01*
X1433792Y641798D01*
X1433792Y646798D02*
X1427628Y646798D01*
X1427628Y648762D01*
X1433792Y648762D01*
X1433792Y646798D01*
X1433792Y651798D02*
X1427628Y651798D01*
X1427628Y653762D01*
X1433792Y653762D01*
X1433792Y651798D01*
D11*
X1401508Y603568D02*
X1401508Y593552D01*
X1392492Y593552D01*
X1392492Y603568D01*
X1401508Y603568D01*
X1401508Y595693D02*
X1392492Y595693D01*
X1392492Y597834D02*
X1401508Y597834D01*
X1401508Y599975D02*
X1392492Y599975D01*
X1392492Y602116D02*
X1401508Y602116D01*
X1401508Y610552D02*
X1401508Y620568D01*
X1401508Y610552D02*
X1392492Y610552D01*
X1392492Y620568D01*
X1401508Y620568D01*
X1401508Y612693D02*
X1392492Y612693D01*
X1392492Y614834D02*
X1401508Y614834D01*
X1401508Y616975D02*
X1392492Y616975D01*
X1392492Y619116D02*
X1401508Y619116D01*
D17*
X1371600Y530860D03*
X1397000Y530860D03*
X1422400Y530860D03*
X1447800Y530860D03*
X1473200Y530860D03*
D11*
X1386268Y593552D02*
X1386268Y603568D01*
X1386268Y593552D02*
X1377252Y593552D01*
X1377252Y603568D01*
X1386268Y603568D01*
X1386268Y595693D02*
X1377252Y595693D01*
X1377252Y597834D02*
X1386268Y597834D01*
X1386268Y599975D02*
X1377252Y599975D01*
X1377252Y602116D02*
X1386268Y602116D01*
X1386268Y610552D02*
X1386268Y620568D01*
X1386268Y610552D02*
X1377252Y610552D01*
X1377252Y620568D01*
X1386268Y620568D01*
X1386268Y612693D02*
X1377252Y612693D01*
X1377252Y614834D02*
X1386268Y614834D01*
X1386268Y616975D02*
X1377252Y616975D01*
X1377252Y619116D02*
X1386268Y619116D01*
D10*
X25400Y1005840D03*
X25400Y802640D03*
X228600Y802640D03*
D11*
X175578Y907732D02*
X175578Y917748D01*
X184594Y917748D01*
X184594Y907732D01*
X175578Y907732D01*
X175578Y909873D02*
X184594Y909873D01*
X184594Y912014D02*
X175578Y912014D01*
X175578Y914155D02*
X184594Y914155D01*
X184594Y916296D02*
X175578Y916296D01*
X175578Y900748D02*
X175578Y890732D01*
X175578Y900748D02*
X184594Y900748D01*
X184594Y890732D01*
X175578Y890732D01*
X175578Y892873D02*
X184594Y892873D01*
X184594Y895014D02*
X175578Y895014D01*
X175578Y897155D02*
X184594Y897155D01*
X184594Y899296D02*
X175578Y899296D01*
X160592Y907732D02*
X160592Y917748D01*
X169608Y917748D01*
X169608Y907732D01*
X160592Y907732D01*
X160592Y909873D02*
X169608Y909873D01*
X169608Y912014D02*
X160592Y912014D01*
X160592Y914155D02*
X169608Y914155D01*
X169608Y916296D02*
X160592Y916296D01*
X160592Y900748D02*
X160592Y890732D01*
X160592Y900748D02*
X169608Y900748D01*
X169608Y890732D01*
X160592Y890732D01*
X160592Y892873D02*
X169608Y892873D01*
X169608Y895014D02*
X160592Y895014D01*
X160592Y897155D02*
X169608Y897155D01*
X169608Y899296D02*
X160592Y899296D01*
D12*
X41910Y972820D03*
X212344Y833120D03*
D13*
X249203Y870733D02*
X249203Y881747D01*
X249203Y870733D02*
X230189Y870733D01*
X230189Y881747D01*
X249203Y881747D01*
X249203Y872876D02*
X230189Y872876D01*
X230189Y875019D02*
X249203Y875019D01*
X249203Y877162D02*
X230189Y877162D01*
X230189Y879305D02*
X249203Y879305D01*
X249203Y881448D02*
X230189Y881448D01*
X249203Y926733D02*
X249203Y937747D01*
X249203Y926733D02*
X230189Y926733D01*
X230189Y937747D01*
X249203Y937747D01*
X249203Y928876D02*
X230189Y928876D01*
X230189Y931019D02*
X249203Y931019D01*
X249203Y933162D02*
X230189Y933162D01*
X230189Y935305D02*
X249203Y935305D01*
X249203Y937448D02*
X230189Y937448D01*
D14*
X209204Y891748D02*
X209204Y886732D01*
X196688Y886732D01*
X196688Y891748D01*
X209204Y891748D01*
X209204Y888873D02*
X196688Y888873D01*
X196688Y891014D02*
X209204Y891014D01*
X209204Y896732D02*
X209204Y901748D01*
X209204Y896732D02*
X196688Y896732D01*
X196688Y901748D01*
X209204Y901748D01*
X209204Y898873D02*
X196688Y898873D01*
X196688Y901014D02*
X209204Y901014D01*
X209204Y906732D02*
X209204Y911748D01*
X209204Y906732D02*
X196688Y906732D01*
X196688Y911748D01*
X209204Y911748D01*
X209204Y908873D02*
X196688Y908873D01*
X196688Y911014D02*
X209204Y911014D01*
X209204Y916732D02*
X209204Y921748D01*
X209204Y916732D02*
X196688Y916732D01*
X196688Y921748D01*
X209204Y921748D01*
X209204Y918873D02*
X196688Y918873D01*
X196688Y921014D02*
X209204Y921014D01*
D13*
X4543Y926733D02*
X4543Y937747D01*
X23557Y937747D01*
X23557Y926733D01*
X4543Y926733D01*
X4543Y928876D02*
X23557Y928876D01*
X23557Y931019D02*
X4543Y931019D01*
X4543Y933162D02*
X23557Y933162D01*
X23557Y935305D02*
X4543Y935305D01*
X4543Y937448D02*
X23557Y937448D01*
X4543Y881747D02*
X4543Y870733D01*
X4543Y881747D02*
X23557Y881747D01*
X23557Y870733D01*
X4543Y870733D01*
X4543Y872876D02*
X23557Y872876D01*
X23557Y875019D02*
X4543Y875019D01*
X4543Y877162D02*
X23557Y877162D01*
X23557Y879305D02*
X4543Y879305D01*
X4543Y881448D02*
X23557Y881448D01*
D14*
X44542Y916732D02*
X44542Y921748D01*
X57058Y921748D01*
X57058Y916732D01*
X44542Y916732D01*
X44542Y918873D02*
X57058Y918873D01*
X57058Y921014D02*
X44542Y921014D01*
X44542Y911748D02*
X44542Y906732D01*
X44542Y911748D02*
X57058Y911748D01*
X57058Y906732D01*
X44542Y906732D01*
X44542Y908873D02*
X57058Y908873D01*
X57058Y911014D02*
X44542Y911014D01*
X44542Y901748D02*
X44542Y896732D01*
X44542Y901748D02*
X57058Y901748D01*
X57058Y896732D01*
X44542Y896732D01*
X44542Y898873D02*
X57058Y898873D01*
X57058Y901014D02*
X44542Y901014D01*
X44542Y891748D02*
X44542Y886732D01*
X44542Y891748D02*
X57058Y891748D01*
X57058Y886732D01*
X44542Y886732D01*
X44542Y888873D02*
X57058Y888873D01*
X57058Y891014D02*
X44542Y891014D01*
D15*
X240600Y961840D02*
X247588Y961840D01*
X240600Y961840D02*
X240600Y968828D01*
X247588Y968828D01*
X247588Y961840D01*
X247588Y965909D02*
X240600Y965909D01*
X240600Y944300D02*
X247588Y944300D01*
X240600Y944300D02*
X240600Y951288D01*
X247588Y951288D01*
X247588Y944300D01*
X247588Y948369D02*
X240600Y948369D01*
D11*
X232600Y943564D02*
X232600Y953580D01*
X232600Y943564D02*
X223584Y943564D01*
X223584Y953580D01*
X232600Y953580D01*
X232600Y945705D02*
X223584Y945705D01*
X223584Y947846D02*
X232600Y947846D01*
X232600Y949987D02*
X223584Y949987D01*
X223584Y952128D02*
X232600Y952128D01*
X232600Y960564D02*
X232600Y970580D01*
X232600Y960564D02*
X223584Y960564D01*
X223584Y970580D01*
X232600Y970580D01*
X232600Y962705D02*
X223584Y962705D01*
X223584Y964846D02*
X232600Y964846D01*
X232600Y966987D02*
X223584Y966987D01*
X223584Y969128D02*
X232600Y969128D01*
D10*
X228600Y1005840D03*
D14*
X99092Y911748D02*
X99092Y906732D01*
X99092Y911748D02*
X104108Y911748D01*
X104108Y906732D01*
X99092Y906732D01*
X99092Y908873D02*
X104108Y908873D01*
X104108Y911014D02*
X99092Y911014D01*
X99092Y901748D02*
X99092Y896732D01*
X99092Y901748D02*
X104108Y901748D01*
X104108Y896732D01*
X99092Y896732D01*
X99092Y898873D02*
X104108Y898873D01*
X104108Y901014D02*
X99092Y901014D01*
D16*
X115028Y910878D02*
X121192Y910878D01*
X115028Y910878D02*
X115028Y912842D01*
X121192Y912842D01*
X121192Y910878D01*
X121192Y905878D02*
X115028Y905878D01*
X115028Y907842D01*
X121192Y907842D01*
X121192Y905878D01*
X121192Y900878D02*
X115028Y900878D01*
X115028Y902842D01*
X121192Y902842D01*
X121192Y900878D01*
X121192Y895878D02*
X115028Y895878D01*
X115028Y897842D01*
X121192Y897842D01*
X121192Y895878D01*
X132228Y895878D02*
X138392Y895878D01*
X132228Y895878D02*
X132228Y897842D01*
X138392Y897842D01*
X138392Y895878D01*
X138392Y900878D02*
X132228Y900878D01*
X132228Y902842D01*
X138392Y902842D01*
X138392Y900878D01*
X138392Y905878D02*
X132228Y905878D01*
X132228Y907842D01*
X138392Y907842D01*
X138392Y905878D01*
X138392Y910878D02*
X132228Y910878D01*
X132228Y912842D01*
X138392Y912842D01*
X138392Y910878D01*
D11*
X106108Y862648D02*
X106108Y852632D01*
X97092Y852632D01*
X97092Y862648D01*
X106108Y862648D01*
X106108Y854773D02*
X97092Y854773D01*
X97092Y856914D02*
X106108Y856914D01*
X106108Y859055D02*
X97092Y859055D01*
X97092Y861196D02*
X106108Y861196D01*
X106108Y869632D02*
X106108Y879648D01*
X106108Y869632D02*
X97092Y869632D01*
X97092Y879648D01*
X106108Y879648D01*
X106108Y871773D02*
X97092Y871773D01*
X97092Y873914D02*
X106108Y873914D01*
X106108Y876055D02*
X97092Y876055D01*
X97092Y878196D02*
X106108Y878196D01*
D17*
X76200Y789940D03*
X101600Y789940D03*
X127000Y789940D03*
X152400Y789940D03*
X177800Y789940D03*
D11*
X90868Y852632D02*
X90868Y862648D01*
X90868Y852632D02*
X81852Y852632D01*
X81852Y862648D01*
X90868Y862648D01*
X90868Y854773D02*
X81852Y854773D01*
X81852Y856914D02*
X90868Y856914D01*
X90868Y859055D02*
X81852Y859055D01*
X81852Y861196D02*
X90868Y861196D01*
X90868Y869632D02*
X90868Y879648D01*
X90868Y869632D02*
X81852Y869632D01*
X81852Y879648D01*
X90868Y879648D01*
X90868Y871773D02*
X81852Y871773D01*
X81852Y873914D02*
X90868Y873914D01*
X90868Y876055D02*
X81852Y876055D01*
X81852Y878196D02*
X90868Y878196D01*
D10*
X284480Y1005840D03*
X284480Y802640D03*
X487680Y802640D03*
D11*
X434658Y907732D02*
X434658Y917748D01*
X443674Y917748D01*
X443674Y907732D01*
X434658Y907732D01*
X434658Y909873D02*
X443674Y909873D01*
X443674Y912014D02*
X434658Y912014D01*
X434658Y914155D02*
X443674Y914155D01*
X443674Y916296D02*
X434658Y916296D01*
X434658Y900748D02*
X434658Y890732D01*
X434658Y900748D02*
X443674Y900748D01*
X443674Y890732D01*
X434658Y890732D01*
X434658Y892873D02*
X443674Y892873D01*
X443674Y895014D02*
X434658Y895014D01*
X434658Y897155D02*
X443674Y897155D01*
X443674Y899296D02*
X434658Y899296D01*
X419672Y907732D02*
X419672Y917748D01*
X428688Y917748D01*
X428688Y907732D01*
X419672Y907732D01*
X419672Y909873D02*
X428688Y909873D01*
X428688Y912014D02*
X419672Y912014D01*
X419672Y914155D02*
X428688Y914155D01*
X428688Y916296D02*
X419672Y916296D01*
X419672Y900748D02*
X419672Y890732D01*
X419672Y900748D02*
X428688Y900748D01*
X428688Y890732D01*
X419672Y890732D01*
X419672Y892873D02*
X428688Y892873D01*
X428688Y895014D02*
X419672Y895014D01*
X419672Y897155D02*
X428688Y897155D01*
X428688Y899296D02*
X419672Y899296D01*
D12*
X300990Y972820D03*
X471424Y833120D03*
D13*
X508283Y870733D02*
X508283Y881747D01*
X508283Y870733D02*
X489269Y870733D01*
X489269Y881747D01*
X508283Y881747D01*
X508283Y872876D02*
X489269Y872876D01*
X489269Y875019D02*
X508283Y875019D01*
X508283Y877162D02*
X489269Y877162D01*
X489269Y879305D02*
X508283Y879305D01*
X508283Y881448D02*
X489269Y881448D01*
X508283Y926733D02*
X508283Y937747D01*
X508283Y926733D02*
X489269Y926733D01*
X489269Y937747D01*
X508283Y937747D01*
X508283Y928876D02*
X489269Y928876D01*
X489269Y931019D02*
X508283Y931019D01*
X508283Y933162D02*
X489269Y933162D01*
X489269Y935305D02*
X508283Y935305D01*
X508283Y937448D02*
X489269Y937448D01*
D14*
X468284Y891748D02*
X468284Y886732D01*
X455768Y886732D01*
X455768Y891748D01*
X468284Y891748D01*
X468284Y888873D02*
X455768Y888873D01*
X455768Y891014D02*
X468284Y891014D01*
X468284Y896732D02*
X468284Y901748D01*
X468284Y896732D02*
X455768Y896732D01*
X455768Y901748D01*
X468284Y901748D01*
X468284Y898873D02*
X455768Y898873D01*
X455768Y901014D02*
X468284Y901014D01*
X468284Y906732D02*
X468284Y911748D01*
X468284Y906732D02*
X455768Y906732D01*
X455768Y911748D01*
X468284Y911748D01*
X468284Y908873D02*
X455768Y908873D01*
X455768Y911014D02*
X468284Y911014D01*
X468284Y916732D02*
X468284Y921748D01*
X468284Y916732D02*
X455768Y916732D01*
X455768Y921748D01*
X468284Y921748D01*
X468284Y918873D02*
X455768Y918873D01*
X455768Y921014D02*
X468284Y921014D01*
D13*
X263623Y926733D02*
X263623Y937747D01*
X282637Y937747D01*
X282637Y926733D01*
X263623Y926733D01*
X263623Y928876D02*
X282637Y928876D01*
X282637Y931019D02*
X263623Y931019D01*
X263623Y933162D02*
X282637Y933162D01*
X282637Y935305D02*
X263623Y935305D01*
X263623Y937448D02*
X282637Y937448D01*
X263623Y881747D02*
X263623Y870733D01*
X263623Y881747D02*
X282637Y881747D01*
X282637Y870733D01*
X263623Y870733D01*
X263623Y872876D02*
X282637Y872876D01*
X282637Y875019D02*
X263623Y875019D01*
X263623Y877162D02*
X282637Y877162D01*
X282637Y879305D02*
X263623Y879305D01*
X263623Y881448D02*
X282637Y881448D01*
D14*
X303622Y916732D02*
X303622Y921748D01*
X316138Y921748D01*
X316138Y916732D01*
X303622Y916732D01*
X303622Y918873D02*
X316138Y918873D01*
X316138Y921014D02*
X303622Y921014D01*
X303622Y911748D02*
X303622Y906732D01*
X303622Y911748D02*
X316138Y911748D01*
X316138Y906732D01*
X303622Y906732D01*
X303622Y908873D02*
X316138Y908873D01*
X316138Y911014D02*
X303622Y911014D01*
X303622Y901748D02*
X303622Y896732D01*
X303622Y901748D02*
X316138Y901748D01*
X316138Y896732D01*
X303622Y896732D01*
X303622Y898873D02*
X316138Y898873D01*
X316138Y901014D02*
X303622Y901014D01*
X303622Y891748D02*
X303622Y886732D01*
X303622Y891748D02*
X316138Y891748D01*
X316138Y886732D01*
X303622Y886732D01*
X303622Y888873D02*
X316138Y888873D01*
X316138Y891014D02*
X303622Y891014D01*
D15*
X499680Y961840D02*
X506668Y961840D01*
X499680Y961840D02*
X499680Y968828D01*
X506668Y968828D01*
X506668Y961840D01*
X506668Y965909D02*
X499680Y965909D01*
X499680Y944300D02*
X506668Y944300D01*
X499680Y944300D02*
X499680Y951288D01*
X506668Y951288D01*
X506668Y944300D01*
X506668Y948369D02*
X499680Y948369D01*
D11*
X491680Y943564D02*
X491680Y953580D01*
X491680Y943564D02*
X482664Y943564D01*
X482664Y953580D01*
X491680Y953580D01*
X491680Y945705D02*
X482664Y945705D01*
X482664Y947846D02*
X491680Y947846D01*
X491680Y949987D02*
X482664Y949987D01*
X482664Y952128D02*
X491680Y952128D01*
X491680Y960564D02*
X491680Y970580D01*
X491680Y960564D02*
X482664Y960564D01*
X482664Y970580D01*
X491680Y970580D01*
X491680Y962705D02*
X482664Y962705D01*
X482664Y964846D02*
X491680Y964846D01*
X491680Y966987D02*
X482664Y966987D01*
X482664Y969128D02*
X491680Y969128D01*
D10*
X487680Y1005840D03*
D14*
X358172Y911748D02*
X358172Y906732D01*
X358172Y911748D02*
X363188Y911748D01*
X363188Y906732D01*
X358172Y906732D01*
X358172Y908873D02*
X363188Y908873D01*
X363188Y911014D02*
X358172Y911014D01*
X358172Y901748D02*
X358172Y896732D01*
X358172Y901748D02*
X363188Y901748D01*
X363188Y896732D01*
X358172Y896732D01*
X358172Y898873D02*
X363188Y898873D01*
X363188Y901014D02*
X358172Y901014D01*
D16*
X374108Y910878D02*
X380272Y910878D01*
X374108Y910878D02*
X374108Y912842D01*
X380272Y912842D01*
X380272Y910878D01*
X380272Y905878D02*
X374108Y905878D01*
X374108Y907842D01*
X380272Y907842D01*
X380272Y905878D01*
X380272Y900878D02*
X374108Y900878D01*
X374108Y902842D01*
X380272Y902842D01*
X380272Y900878D01*
X380272Y895878D02*
X374108Y895878D01*
X374108Y897842D01*
X380272Y897842D01*
X380272Y895878D01*
X391308Y895878D02*
X397472Y895878D01*
X391308Y895878D02*
X391308Y897842D01*
X397472Y897842D01*
X397472Y895878D01*
X397472Y900878D02*
X391308Y900878D01*
X391308Y902842D01*
X397472Y902842D01*
X397472Y900878D01*
X397472Y905878D02*
X391308Y905878D01*
X391308Y907842D01*
X397472Y907842D01*
X397472Y905878D01*
X397472Y910878D02*
X391308Y910878D01*
X391308Y912842D01*
X397472Y912842D01*
X397472Y910878D01*
D11*
X365188Y862648D02*
X365188Y852632D01*
X356172Y852632D01*
X356172Y862648D01*
X365188Y862648D01*
X365188Y854773D02*
X356172Y854773D01*
X356172Y856914D02*
X365188Y856914D01*
X365188Y859055D02*
X356172Y859055D01*
X356172Y861196D02*
X365188Y861196D01*
X365188Y869632D02*
X365188Y879648D01*
X365188Y869632D02*
X356172Y869632D01*
X356172Y879648D01*
X365188Y879648D01*
X365188Y871773D02*
X356172Y871773D01*
X356172Y873914D02*
X365188Y873914D01*
X365188Y876055D02*
X356172Y876055D01*
X356172Y878196D02*
X365188Y878196D01*
D17*
X335280Y789940D03*
X360680Y789940D03*
X386080Y789940D03*
X411480Y789940D03*
X436880Y789940D03*
D11*
X349948Y852632D02*
X349948Y862648D01*
X349948Y852632D02*
X340932Y852632D01*
X340932Y862648D01*
X349948Y862648D01*
X349948Y854773D02*
X340932Y854773D01*
X340932Y856914D02*
X349948Y856914D01*
X349948Y859055D02*
X340932Y859055D01*
X340932Y861196D02*
X349948Y861196D01*
X349948Y869632D02*
X349948Y879648D01*
X349948Y869632D02*
X340932Y869632D01*
X340932Y879648D01*
X349948Y879648D01*
X349948Y871773D02*
X340932Y871773D01*
X340932Y873914D02*
X349948Y873914D01*
X349948Y876055D02*
X340932Y876055D01*
X340932Y878196D02*
X349948Y878196D01*
D10*
X543560Y1005840D03*
X543560Y802640D03*
X746760Y802640D03*
D11*
X693738Y907732D02*
X693738Y917748D01*
X702754Y917748D01*
X702754Y907732D01*
X693738Y907732D01*
X693738Y909873D02*
X702754Y909873D01*
X702754Y912014D02*
X693738Y912014D01*
X693738Y914155D02*
X702754Y914155D01*
X702754Y916296D02*
X693738Y916296D01*
X693738Y900748D02*
X693738Y890732D01*
X693738Y900748D02*
X702754Y900748D01*
X702754Y890732D01*
X693738Y890732D01*
X693738Y892873D02*
X702754Y892873D01*
X702754Y895014D02*
X693738Y895014D01*
X693738Y897155D02*
X702754Y897155D01*
X702754Y899296D02*
X693738Y899296D01*
X678752Y907732D02*
X678752Y917748D01*
X687768Y917748D01*
X687768Y907732D01*
X678752Y907732D01*
X678752Y909873D02*
X687768Y909873D01*
X687768Y912014D02*
X678752Y912014D01*
X678752Y914155D02*
X687768Y914155D01*
X687768Y916296D02*
X678752Y916296D01*
X678752Y900748D02*
X678752Y890732D01*
X678752Y900748D02*
X687768Y900748D01*
X687768Y890732D01*
X678752Y890732D01*
X678752Y892873D02*
X687768Y892873D01*
X687768Y895014D02*
X678752Y895014D01*
X678752Y897155D02*
X687768Y897155D01*
X687768Y899296D02*
X678752Y899296D01*
D12*
X560070Y972820D03*
X730504Y833120D03*
D13*
X767363Y870733D02*
X767363Y881747D01*
X767363Y870733D02*
X748349Y870733D01*
X748349Y881747D01*
X767363Y881747D01*
X767363Y872876D02*
X748349Y872876D01*
X748349Y875019D02*
X767363Y875019D01*
X767363Y877162D02*
X748349Y877162D01*
X748349Y879305D02*
X767363Y879305D01*
X767363Y881448D02*
X748349Y881448D01*
X767363Y926733D02*
X767363Y937747D01*
X767363Y926733D02*
X748349Y926733D01*
X748349Y937747D01*
X767363Y937747D01*
X767363Y928876D02*
X748349Y928876D01*
X748349Y931019D02*
X767363Y931019D01*
X767363Y933162D02*
X748349Y933162D01*
X748349Y935305D02*
X767363Y935305D01*
X767363Y937448D02*
X748349Y937448D01*
D14*
X727364Y891748D02*
X727364Y886732D01*
X714848Y886732D01*
X714848Y891748D01*
X727364Y891748D01*
X727364Y888873D02*
X714848Y888873D01*
X714848Y891014D02*
X727364Y891014D01*
X727364Y896732D02*
X727364Y901748D01*
X727364Y896732D02*
X714848Y896732D01*
X714848Y901748D01*
X727364Y901748D01*
X727364Y898873D02*
X714848Y898873D01*
X714848Y901014D02*
X727364Y901014D01*
X727364Y906732D02*
X727364Y911748D01*
X727364Y906732D02*
X714848Y906732D01*
X714848Y911748D01*
X727364Y911748D01*
X727364Y908873D02*
X714848Y908873D01*
X714848Y911014D02*
X727364Y911014D01*
X727364Y916732D02*
X727364Y921748D01*
X727364Y916732D02*
X714848Y916732D01*
X714848Y921748D01*
X727364Y921748D01*
X727364Y918873D02*
X714848Y918873D01*
X714848Y921014D02*
X727364Y921014D01*
D13*
X522703Y926733D02*
X522703Y937747D01*
X541717Y937747D01*
X541717Y926733D01*
X522703Y926733D01*
X522703Y928876D02*
X541717Y928876D01*
X541717Y931019D02*
X522703Y931019D01*
X522703Y933162D02*
X541717Y933162D01*
X541717Y935305D02*
X522703Y935305D01*
X522703Y937448D02*
X541717Y937448D01*
X522703Y881747D02*
X522703Y870733D01*
X522703Y881747D02*
X541717Y881747D01*
X541717Y870733D01*
X522703Y870733D01*
X522703Y872876D02*
X541717Y872876D01*
X541717Y875019D02*
X522703Y875019D01*
X522703Y877162D02*
X541717Y877162D01*
X541717Y879305D02*
X522703Y879305D01*
X522703Y881448D02*
X541717Y881448D01*
D14*
X562702Y916732D02*
X562702Y921748D01*
X575218Y921748D01*
X575218Y916732D01*
X562702Y916732D01*
X562702Y918873D02*
X575218Y918873D01*
X575218Y921014D02*
X562702Y921014D01*
X562702Y911748D02*
X562702Y906732D01*
X562702Y911748D02*
X575218Y911748D01*
X575218Y906732D01*
X562702Y906732D01*
X562702Y908873D02*
X575218Y908873D01*
X575218Y911014D02*
X562702Y911014D01*
X562702Y901748D02*
X562702Y896732D01*
X562702Y901748D02*
X575218Y901748D01*
X575218Y896732D01*
X562702Y896732D01*
X562702Y898873D02*
X575218Y898873D01*
X575218Y901014D02*
X562702Y901014D01*
X562702Y891748D02*
X562702Y886732D01*
X562702Y891748D02*
X575218Y891748D01*
X575218Y886732D01*
X562702Y886732D01*
X562702Y888873D02*
X575218Y888873D01*
X575218Y891014D02*
X562702Y891014D01*
D15*
X758760Y961840D02*
X765748Y961840D01*
X758760Y961840D02*
X758760Y968828D01*
X765748Y968828D01*
X765748Y961840D01*
X765748Y965909D02*
X758760Y965909D01*
X758760Y944300D02*
X765748Y944300D01*
X758760Y944300D02*
X758760Y951288D01*
X765748Y951288D01*
X765748Y944300D01*
X765748Y948369D02*
X758760Y948369D01*
D11*
X750760Y943564D02*
X750760Y953580D01*
X750760Y943564D02*
X741744Y943564D01*
X741744Y953580D01*
X750760Y953580D01*
X750760Y945705D02*
X741744Y945705D01*
X741744Y947846D02*
X750760Y947846D01*
X750760Y949987D02*
X741744Y949987D01*
X741744Y952128D02*
X750760Y952128D01*
X750760Y960564D02*
X750760Y970580D01*
X750760Y960564D02*
X741744Y960564D01*
X741744Y970580D01*
X750760Y970580D01*
X750760Y962705D02*
X741744Y962705D01*
X741744Y964846D02*
X750760Y964846D01*
X750760Y966987D02*
X741744Y966987D01*
X741744Y969128D02*
X750760Y969128D01*
D10*
X746760Y1005840D03*
D14*
X617252Y911748D02*
X617252Y906732D01*
X617252Y911748D02*
X622268Y911748D01*
X622268Y906732D01*
X617252Y906732D01*
X617252Y908873D02*
X622268Y908873D01*
X622268Y911014D02*
X617252Y911014D01*
X617252Y901748D02*
X617252Y896732D01*
X617252Y901748D02*
X622268Y901748D01*
X622268Y896732D01*
X617252Y896732D01*
X617252Y898873D02*
X622268Y898873D01*
X622268Y901014D02*
X617252Y901014D01*
D16*
X633188Y910878D02*
X639352Y910878D01*
X633188Y910878D02*
X633188Y912842D01*
X639352Y912842D01*
X639352Y910878D01*
X639352Y905878D02*
X633188Y905878D01*
X633188Y907842D01*
X639352Y907842D01*
X639352Y905878D01*
X639352Y900878D02*
X633188Y900878D01*
X633188Y902842D01*
X639352Y902842D01*
X639352Y900878D01*
X639352Y895878D02*
X633188Y895878D01*
X633188Y897842D01*
X639352Y897842D01*
X639352Y895878D01*
X650388Y895878D02*
X656552Y895878D01*
X650388Y895878D02*
X650388Y897842D01*
X656552Y897842D01*
X656552Y895878D01*
X656552Y900878D02*
X650388Y900878D01*
X650388Y902842D01*
X656552Y902842D01*
X656552Y900878D01*
X656552Y905878D02*
X650388Y905878D01*
X650388Y907842D01*
X656552Y907842D01*
X656552Y905878D01*
X656552Y910878D02*
X650388Y910878D01*
X650388Y912842D01*
X656552Y912842D01*
X656552Y910878D01*
D11*
X624268Y862648D02*
X624268Y852632D01*
X615252Y852632D01*
X615252Y862648D01*
X624268Y862648D01*
X624268Y854773D02*
X615252Y854773D01*
X615252Y856914D02*
X624268Y856914D01*
X624268Y859055D02*
X615252Y859055D01*
X615252Y861196D02*
X624268Y861196D01*
X624268Y869632D02*
X624268Y879648D01*
X624268Y869632D02*
X615252Y869632D01*
X615252Y879648D01*
X624268Y879648D01*
X624268Y871773D02*
X615252Y871773D01*
X615252Y873914D02*
X624268Y873914D01*
X624268Y876055D02*
X615252Y876055D01*
X615252Y878196D02*
X624268Y878196D01*
D17*
X594360Y789940D03*
X619760Y789940D03*
X645160Y789940D03*
X670560Y789940D03*
X695960Y789940D03*
D11*
X609028Y852632D02*
X609028Y862648D01*
X609028Y852632D02*
X600012Y852632D01*
X600012Y862648D01*
X609028Y862648D01*
X609028Y854773D02*
X600012Y854773D01*
X600012Y856914D02*
X609028Y856914D01*
X609028Y859055D02*
X600012Y859055D01*
X600012Y861196D02*
X609028Y861196D01*
X609028Y869632D02*
X609028Y879648D01*
X609028Y869632D02*
X600012Y869632D01*
X600012Y879648D01*
X609028Y879648D01*
X609028Y871773D02*
X600012Y871773D01*
X600012Y873914D02*
X609028Y873914D01*
X609028Y876055D02*
X600012Y876055D01*
X600012Y878196D02*
X609028Y878196D01*
D10*
X802640Y1005840D03*
X802640Y802640D03*
X1005840Y802640D03*
D11*
X952818Y907732D02*
X952818Y917748D01*
X961834Y917748D01*
X961834Y907732D01*
X952818Y907732D01*
X952818Y909873D02*
X961834Y909873D01*
X961834Y912014D02*
X952818Y912014D01*
X952818Y914155D02*
X961834Y914155D01*
X961834Y916296D02*
X952818Y916296D01*
X952818Y900748D02*
X952818Y890732D01*
X952818Y900748D02*
X961834Y900748D01*
X961834Y890732D01*
X952818Y890732D01*
X952818Y892873D02*
X961834Y892873D01*
X961834Y895014D02*
X952818Y895014D01*
X952818Y897155D02*
X961834Y897155D01*
X961834Y899296D02*
X952818Y899296D01*
X937832Y907732D02*
X937832Y917748D01*
X946848Y917748D01*
X946848Y907732D01*
X937832Y907732D01*
X937832Y909873D02*
X946848Y909873D01*
X946848Y912014D02*
X937832Y912014D01*
X937832Y914155D02*
X946848Y914155D01*
X946848Y916296D02*
X937832Y916296D01*
X937832Y900748D02*
X937832Y890732D01*
X937832Y900748D02*
X946848Y900748D01*
X946848Y890732D01*
X937832Y890732D01*
X937832Y892873D02*
X946848Y892873D01*
X946848Y895014D02*
X937832Y895014D01*
X937832Y897155D02*
X946848Y897155D01*
X946848Y899296D02*
X937832Y899296D01*
D12*
X819150Y972820D03*
X989584Y833120D03*
D13*
X1026443Y870733D02*
X1026443Y881747D01*
X1026443Y870733D02*
X1007429Y870733D01*
X1007429Y881747D01*
X1026443Y881747D01*
X1026443Y872876D02*
X1007429Y872876D01*
X1007429Y875019D02*
X1026443Y875019D01*
X1026443Y877162D02*
X1007429Y877162D01*
X1007429Y879305D02*
X1026443Y879305D01*
X1026443Y881448D02*
X1007429Y881448D01*
X1026443Y926733D02*
X1026443Y937747D01*
X1026443Y926733D02*
X1007429Y926733D01*
X1007429Y937747D01*
X1026443Y937747D01*
X1026443Y928876D02*
X1007429Y928876D01*
X1007429Y931019D02*
X1026443Y931019D01*
X1026443Y933162D02*
X1007429Y933162D01*
X1007429Y935305D02*
X1026443Y935305D01*
X1026443Y937448D02*
X1007429Y937448D01*
D14*
X986444Y891748D02*
X986444Y886732D01*
X973928Y886732D01*
X973928Y891748D01*
X986444Y891748D01*
X986444Y888873D02*
X973928Y888873D01*
X973928Y891014D02*
X986444Y891014D01*
X986444Y896732D02*
X986444Y901748D01*
X986444Y896732D02*
X973928Y896732D01*
X973928Y901748D01*
X986444Y901748D01*
X986444Y898873D02*
X973928Y898873D01*
X973928Y901014D02*
X986444Y901014D01*
X986444Y906732D02*
X986444Y911748D01*
X986444Y906732D02*
X973928Y906732D01*
X973928Y911748D01*
X986444Y911748D01*
X986444Y908873D02*
X973928Y908873D01*
X973928Y911014D02*
X986444Y911014D01*
X986444Y916732D02*
X986444Y921748D01*
X986444Y916732D02*
X973928Y916732D01*
X973928Y921748D01*
X986444Y921748D01*
X986444Y918873D02*
X973928Y918873D01*
X973928Y921014D02*
X986444Y921014D01*
D13*
X781783Y926733D02*
X781783Y937747D01*
X800797Y937747D01*
X800797Y926733D01*
X781783Y926733D01*
X781783Y928876D02*
X800797Y928876D01*
X800797Y931019D02*
X781783Y931019D01*
X781783Y933162D02*
X800797Y933162D01*
X800797Y935305D02*
X781783Y935305D01*
X781783Y937448D02*
X800797Y937448D01*
X781783Y881747D02*
X781783Y870733D01*
X781783Y881747D02*
X800797Y881747D01*
X800797Y870733D01*
X781783Y870733D01*
X781783Y872876D02*
X800797Y872876D01*
X800797Y875019D02*
X781783Y875019D01*
X781783Y877162D02*
X800797Y877162D01*
X800797Y879305D02*
X781783Y879305D01*
X781783Y881448D02*
X800797Y881448D01*
D14*
X821782Y916732D02*
X821782Y921748D01*
X834298Y921748D01*
X834298Y916732D01*
X821782Y916732D01*
X821782Y918873D02*
X834298Y918873D01*
X834298Y921014D02*
X821782Y921014D01*
X821782Y911748D02*
X821782Y906732D01*
X821782Y911748D02*
X834298Y911748D01*
X834298Y906732D01*
X821782Y906732D01*
X821782Y908873D02*
X834298Y908873D01*
X834298Y911014D02*
X821782Y911014D01*
X821782Y901748D02*
X821782Y896732D01*
X821782Y901748D02*
X834298Y901748D01*
X834298Y896732D01*
X821782Y896732D01*
X821782Y898873D02*
X834298Y898873D01*
X834298Y901014D02*
X821782Y901014D01*
X821782Y891748D02*
X821782Y886732D01*
X821782Y891748D02*
X834298Y891748D01*
X834298Y886732D01*
X821782Y886732D01*
X821782Y888873D02*
X834298Y888873D01*
X834298Y891014D02*
X821782Y891014D01*
D15*
X1017840Y961840D02*
X1024828Y961840D01*
X1017840Y961840D02*
X1017840Y968828D01*
X1024828Y968828D01*
X1024828Y961840D01*
X1024828Y965909D02*
X1017840Y965909D01*
X1017840Y944300D02*
X1024828Y944300D01*
X1017840Y944300D02*
X1017840Y951288D01*
X1024828Y951288D01*
X1024828Y944300D01*
X1024828Y948369D02*
X1017840Y948369D01*
D11*
X1009840Y943564D02*
X1009840Y953580D01*
X1009840Y943564D02*
X1000824Y943564D01*
X1000824Y953580D01*
X1009840Y953580D01*
X1009840Y945705D02*
X1000824Y945705D01*
X1000824Y947846D02*
X1009840Y947846D01*
X1009840Y949987D02*
X1000824Y949987D01*
X1000824Y952128D02*
X1009840Y952128D01*
X1009840Y960564D02*
X1009840Y970580D01*
X1009840Y960564D02*
X1000824Y960564D01*
X1000824Y970580D01*
X1009840Y970580D01*
X1009840Y962705D02*
X1000824Y962705D01*
X1000824Y964846D02*
X1009840Y964846D01*
X1009840Y966987D02*
X1000824Y966987D01*
X1000824Y969128D02*
X1009840Y969128D01*
D10*
X1005840Y1005840D03*
D14*
X876332Y911748D02*
X876332Y906732D01*
X876332Y911748D02*
X881348Y911748D01*
X881348Y906732D01*
X876332Y906732D01*
X876332Y908873D02*
X881348Y908873D01*
X881348Y911014D02*
X876332Y911014D01*
X876332Y901748D02*
X876332Y896732D01*
X876332Y901748D02*
X881348Y901748D01*
X881348Y896732D01*
X876332Y896732D01*
X876332Y898873D02*
X881348Y898873D01*
X881348Y901014D02*
X876332Y901014D01*
D16*
X892268Y910878D02*
X898432Y910878D01*
X892268Y910878D02*
X892268Y912842D01*
X898432Y912842D01*
X898432Y910878D01*
X898432Y905878D02*
X892268Y905878D01*
X892268Y907842D01*
X898432Y907842D01*
X898432Y905878D01*
X898432Y900878D02*
X892268Y900878D01*
X892268Y902842D01*
X898432Y902842D01*
X898432Y900878D01*
X898432Y895878D02*
X892268Y895878D01*
X892268Y897842D01*
X898432Y897842D01*
X898432Y895878D01*
X909468Y895878D02*
X915632Y895878D01*
X909468Y895878D02*
X909468Y897842D01*
X915632Y897842D01*
X915632Y895878D01*
X915632Y900878D02*
X909468Y900878D01*
X909468Y902842D01*
X915632Y902842D01*
X915632Y900878D01*
X915632Y905878D02*
X909468Y905878D01*
X909468Y907842D01*
X915632Y907842D01*
X915632Y905878D01*
X915632Y910878D02*
X909468Y910878D01*
X909468Y912842D01*
X915632Y912842D01*
X915632Y910878D01*
D11*
X883348Y862648D02*
X883348Y852632D01*
X874332Y852632D01*
X874332Y862648D01*
X883348Y862648D01*
X883348Y854773D02*
X874332Y854773D01*
X874332Y856914D02*
X883348Y856914D01*
X883348Y859055D02*
X874332Y859055D01*
X874332Y861196D02*
X883348Y861196D01*
X883348Y869632D02*
X883348Y879648D01*
X883348Y869632D02*
X874332Y869632D01*
X874332Y879648D01*
X883348Y879648D01*
X883348Y871773D02*
X874332Y871773D01*
X874332Y873914D02*
X883348Y873914D01*
X883348Y876055D02*
X874332Y876055D01*
X874332Y878196D02*
X883348Y878196D01*
D17*
X853440Y789940D03*
X878840Y789940D03*
X904240Y789940D03*
X929640Y789940D03*
X955040Y789940D03*
D11*
X868108Y852632D02*
X868108Y862648D01*
X868108Y852632D02*
X859092Y852632D01*
X859092Y862648D01*
X868108Y862648D01*
X868108Y854773D02*
X859092Y854773D01*
X859092Y856914D02*
X868108Y856914D01*
X868108Y859055D02*
X859092Y859055D01*
X859092Y861196D02*
X868108Y861196D01*
X868108Y869632D02*
X868108Y879648D01*
X868108Y869632D02*
X859092Y869632D01*
X859092Y879648D01*
X868108Y879648D01*
X868108Y871773D02*
X859092Y871773D01*
X859092Y873914D02*
X868108Y873914D01*
X868108Y876055D02*
X859092Y876055D01*
X859092Y878196D02*
X868108Y878196D01*
D10*
X1061720Y1005840D03*
X1061720Y802640D03*
X1264920Y802640D03*
D11*
X1211898Y907732D02*
X1211898Y917748D01*
X1220914Y917748D01*
X1220914Y907732D01*
X1211898Y907732D01*
X1211898Y909873D02*
X1220914Y909873D01*
X1220914Y912014D02*
X1211898Y912014D01*
X1211898Y914155D02*
X1220914Y914155D01*
X1220914Y916296D02*
X1211898Y916296D01*
X1211898Y900748D02*
X1211898Y890732D01*
X1211898Y900748D02*
X1220914Y900748D01*
X1220914Y890732D01*
X1211898Y890732D01*
X1211898Y892873D02*
X1220914Y892873D01*
X1220914Y895014D02*
X1211898Y895014D01*
X1211898Y897155D02*
X1220914Y897155D01*
X1220914Y899296D02*
X1211898Y899296D01*
X1196912Y907732D02*
X1196912Y917748D01*
X1205928Y917748D01*
X1205928Y907732D01*
X1196912Y907732D01*
X1196912Y909873D02*
X1205928Y909873D01*
X1205928Y912014D02*
X1196912Y912014D01*
X1196912Y914155D02*
X1205928Y914155D01*
X1205928Y916296D02*
X1196912Y916296D01*
X1196912Y900748D02*
X1196912Y890732D01*
X1196912Y900748D02*
X1205928Y900748D01*
X1205928Y890732D01*
X1196912Y890732D01*
X1196912Y892873D02*
X1205928Y892873D01*
X1205928Y895014D02*
X1196912Y895014D01*
X1196912Y897155D02*
X1205928Y897155D01*
X1205928Y899296D02*
X1196912Y899296D01*
D12*
X1078230Y972820D03*
X1248664Y833120D03*
D13*
X1285523Y870733D02*
X1285523Y881747D01*
X1285523Y870733D02*
X1266509Y870733D01*
X1266509Y881747D01*
X1285523Y881747D01*
X1285523Y872876D02*
X1266509Y872876D01*
X1266509Y875019D02*
X1285523Y875019D01*
X1285523Y877162D02*
X1266509Y877162D01*
X1266509Y879305D02*
X1285523Y879305D01*
X1285523Y881448D02*
X1266509Y881448D01*
X1285523Y926733D02*
X1285523Y937747D01*
X1285523Y926733D02*
X1266509Y926733D01*
X1266509Y937747D01*
X1285523Y937747D01*
X1285523Y928876D02*
X1266509Y928876D01*
X1266509Y931019D02*
X1285523Y931019D01*
X1285523Y933162D02*
X1266509Y933162D01*
X1266509Y935305D02*
X1285523Y935305D01*
X1285523Y937448D02*
X1266509Y937448D01*
D14*
X1245524Y891748D02*
X1245524Y886732D01*
X1233008Y886732D01*
X1233008Y891748D01*
X1245524Y891748D01*
X1245524Y888873D02*
X1233008Y888873D01*
X1233008Y891014D02*
X1245524Y891014D01*
X1245524Y896732D02*
X1245524Y901748D01*
X1245524Y896732D02*
X1233008Y896732D01*
X1233008Y901748D01*
X1245524Y901748D01*
X1245524Y898873D02*
X1233008Y898873D01*
X1233008Y901014D02*
X1245524Y901014D01*
X1245524Y906732D02*
X1245524Y911748D01*
X1245524Y906732D02*
X1233008Y906732D01*
X1233008Y911748D01*
X1245524Y911748D01*
X1245524Y908873D02*
X1233008Y908873D01*
X1233008Y911014D02*
X1245524Y911014D01*
X1245524Y916732D02*
X1245524Y921748D01*
X1245524Y916732D02*
X1233008Y916732D01*
X1233008Y921748D01*
X1245524Y921748D01*
X1245524Y918873D02*
X1233008Y918873D01*
X1233008Y921014D02*
X1245524Y921014D01*
D13*
X1040863Y926733D02*
X1040863Y937747D01*
X1059877Y937747D01*
X1059877Y926733D01*
X1040863Y926733D01*
X1040863Y928876D02*
X1059877Y928876D01*
X1059877Y931019D02*
X1040863Y931019D01*
X1040863Y933162D02*
X1059877Y933162D01*
X1059877Y935305D02*
X1040863Y935305D01*
X1040863Y937448D02*
X1059877Y937448D01*
X1040863Y881747D02*
X1040863Y870733D01*
X1040863Y881747D02*
X1059877Y881747D01*
X1059877Y870733D01*
X1040863Y870733D01*
X1040863Y872876D02*
X1059877Y872876D01*
X1059877Y875019D02*
X1040863Y875019D01*
X1040863Y877162D02*
X1059877Y877162D01*
X1059877Y879305D02*
X1040863Y879305D01*
X1040863Y881448D02*
X1059877Y881448D01*
D14*
X1080862Y916732D02*
X1080862Y921748D01*
X1093378Y921748D01*
X1093378Y916732D01*
X1080862Y916732D01*
X1080862Y918873D02*
X1093378Y918873D01*
X1093378Y921014D02*
X1080862Y921014D01*
X1080862Y911748D02*
X1080862Y906732D01*
X1080862Y911748D02*
X1093378Y911748D01*
X1093378Y906732D01*
X1080862Y906732D01*
X1080862Y908873D02*
X1093378Y908873D01*
X1093378Y911014D02*
X1080862Y911014D01*
X1080862Y901748D02*
X1080862Y896732D01*
X1080862Y901748D02*
X1093378Y901748D01*
X1093378Y896732D01*
X1080862Y896732D01*
X1080862Y898873D02*
X1093378Y898873D01*
X1093378Y901014D02*
X1080862Y901014D01*
X1080862Y891748D02*
X1080862Y886732D01*
X1080862Y891748D02*
X1093378Y891748D01*
X1093378Y886732D01*
X1080862Y886732D01*
X1080862Y888873D02*
X1093378Y888873D01*
X1093378Y891014D02*
X1080862Y891014D01*
D15*
X1276920Y961840D02*
X1283908Y961840D01*
X1276920Y961840D02*
X1276920Y968828D01*
X1283908Y968828D01*
X1283908Y961840D01*
X1283908Y965909D02*
X1276920Y965909D01*
X1276920Y944300D02*
X1283908Y944300D01*
X1276920Y944300D02*
X1276920Y951288D01*
X1283908Y951288D01*
X1283908Y944300D01*
X1283908Y948369D02*
X1276920Y948369D01*
D11*
X1268920Y943564D02*
X1268920Y953580D01*
X1268920Y943564D02*
X1259904Y943564D01*
X1259904Y953580D01*
X1268920Y953580D01*
X1268920Y945705D02*
X1259904Y945705D01*
X1259904Y947846D02*
X1268920Y947846D01*
X1268920Y949987D02*
X1259904Y949987D01*
X1259904Y952128D02*
X1268920Y952128D01*
X1268920Y960564D02*
X1268920Y970580D01*
X1268920Y960564D02*
X1259904Y960564D01*
X1259904Y970580D01*
X1268920Y970580D01*
X1268920Y962705D02*
X1259904Y962705D01*
X1259904Y964846D02*
X1268920Y964846D01*
X1268920Y966987D02*
X1259904Y966987D01*
X1259904Y969128D02*
X1268920Y969128D01*
D10*
X1264920Y1005840D03*
D14*
X1135412Y911748D02*
X1135412Y906732D01*
X1135412Y911748D02*
X1140428Y911748D01*
X1140428Y906732D01*
X1135412Y906732D01*
X1135412Y908873D02*
X1140428Y908873D01*
X1140428Y911014D02*
X1135412Y911014D01*
X1135412Y901748D02*
X1135412Y896732D01*
X1135412Y901748D02*
X1140428Y901748D01*
X1140428Y896732D01*
X1135412Y896732D01*
X1135412Y898873D02*
X1140428Y898873D01*
X1140428Y901014D02*
X1135412Y901014D01*
D16*
X1151348Y910878D02*
X1157512Y910878D01*
X1151348Y910878D02*
X1151348Y912842D01*
X1157512Y912842D01*
X1157512Y910878D01*
X1157512Y905878D02*
X1151348Y905878D01*
X1151348Y907842D01*
X1157512Y907842D01*
X1157512Y905878D01*
X1157512Y900878D02*
X1151348Y900878D01*
X1151348Y902842D01*
X1157512Y902842D01*
X1157512Y900878D01*
X1157512Y895878D02*
X1151348Y895878D01*
X1151348Y897842D01*
X1157512Y897842D01*
X1157512Y895878D01*
X1168548Y895878D02*
X1174712Y895878D01*
X1168548Y895878D02*
X1168548Y897842D01*
X1174712Y897842D01*
X1174712Y895878D01*
X1174712Y900878D02*
X1168548Y900878D01*
X1168548Y902842D01*
X1174712Y902842D01*
X1174712Y900878D01*
X1174712Y905878D02*
X1168548Y905878D01*
X1168548Y907842D01*
X1174712Y907842D01*
X1174712Y905878D01*
X1174712Y910878D02*
X1168548Y910878D01*
X1168548Y912842D01*
X1174712Y912842D01*
X1174712Y910878D01*
D11*
X1142428Y862648D02*
X1142428Y852632D01*
X1133412Y852632D01*
X1133412Y862648D01*
X1142428Y862648D01*
X1142428Y854773D02*
X1133412Y854773D01*
X1133412Y856914D02*
X1142428Y856914D01*
X1142428Y859055D02*
X1133412Y859055D01*
X1133412Y861196D02*
X1142428Y861196D01*
X1142428Y869632D02*
X1142428Y879648D01*
X1142428Y869632D02*
X1133412Y869632D01*
X1133412Y879648D01*
X1142428Y879648D01*
X1142428Y871773D02*
X1133412Y871773D01*
X1133412Y873914D02*
X1142428Y873914D01*
X1142428Y876055D02*
X1133412Y876055D01*
X1133412Y878196D02*
X1142428Y878196D01*
D17*
X1112520Y789940D03*
X1137920Y789940D03*
X1163320Y789940D03*
X1188720Y789940D03*
X1214120Y789940D03*
D11*
X1127188Y852632D02*
X1127188Y862648D01*
X1127188Y852632D02*
X1118172Y852632D01*
X1118172Y862648D01*
X1127188Y862648D01*
X1127188Y854773D02*
X1118172Y854773D01*
X1118172Y856914D02*
X1127188Y856914D01*
X1127188Y859055D02*
X1118172Y859055D01*
X1118172Y861196D02*
X1127188Y861196D01*
X1127188Y869632D02*
X1127188Y879648D01*
X1127188Y869632D02*
X1118172Y869632D01*
X1118172Y879648D01*
X1127188Y879648D01*
X1127188Y871773D02*
X1118172Y871773D01*
X1118172Y873914D02*
X1127188Y873914D01*
X1127188Y876055D02*
X1118172Y876055D01*
X1118172Y878196D02*
X1127188Y878196D01*
D10*
X1320800Y1005840D03*
X1320800Y802640D03*
X1524000Y802640D03*
D11*
X1470978Y907732D02*
X1470978Y917748D01*
X1479994Y917748D01*
X1479994Y907732D01*
X1470978Y907732D01*
X1470978Y909873D02*
X1479994Y909873D01*
X1479994Y912014D02*
X1470978Y912014D01*
X1470978Y914155D02*
X1479994Y914155D01*
X1479994Y916296D02*
X1470978Y916296D01*
X1470978Y900748D02*
X1470978Y890732D01*
X1470978Y900748D02*
X1479994Y900748D01*
X1479994Y890732D01*
X1470978Y890732D01*
X1470978Y892873D02*
X1479994Y892873D01*
X1479994Y895014D02*
X1470978Y895014D01*
X1470978Y897155D02*
X1479994Y897155D01*
X1479994Y899296D02*
X1470978Y899296D01*
X1455992Y907732D02*
X1455992Y917748D01*
X1465008Y917748D01*
X1465008Y907732D01*
X1455992Y907732D01*
X1455992Y909873D02*
X1465008Y909873D01*
X1465008Y912014D02*
X1455992Y912014D01*
X1455992Y914155D02*
X1465008Y914155D01*
X1465008Y916296D02*
X1455992Y916296D01*
X1455992Y900748D02*
X1455992Y890732D01*
X1455992Y900748D02*
X1465008Y900748D01*
X1465008Y890732D01*
X1455992Y890732D01*
X1455992Y892873D02*
X1465008Y892873D01*
X1465008Y895014D02*
X1455992Y895014D01*
X1455992Y897155D02*
X1465008Y897155D01*
X1465008Y899296D02*
X1455992Y899296D01*
D12*
X1337310Y972820D03*
X1507744Y833120D03*
D13*
X1544603Y870733D02*
X1544603Y881747D01*
X1544603Y870733D02*
X1525589Y870733D01*
X1525589Y881747D01*
X1544603Y881747D01*
X1544603Y872876D02*
X1525589Y872876D01*
X1525589Y875019D02*
X1544603Y875019D01*
X1544603Y877162D02*
X1525589Y877162D01*
X1525589Y879305D02*
X1544603Y879305D01*
X1544603Y881448D02*
X1525589Y881448D01*
X1544603Y926733D02*
X1544603Y937747D01*
X1544603Y926733D02*
X1525589Y926733D01*
X1525589Y937747D01*
X1544603Y937747D01*
X1544603Y928876D02*
X1525589Y928876D01*
X1525589Y931019D02*
X1544603Y931019D01*
X1544603Y933162D02*
X1525589Y933162D01*
X1525589Y935305D02*
X1544603Y935305D01*
X1544603Y937448D02*
X1525589Y937448D01*
D14*
X1504604Y891748D02*
X1504604Y886732D01*
X1492088Y886732D01*
X1492088Y891748D01*
X1504604Y891748D01*
X1504604Y888873D02*
X1492088Y888873D01*
X1492088Y891014D02*
X1504604Y891014D01*
X1504604Y896732D02*
X1504604Y901748D01*
X1504604Y896732D02*
X1492088Y896732D01*
X1492088Y901748D01*
X1504604Y901748D01*
X1504604Y898873D02*
X1492088Y898873D01*
X1492088Y901014D02*
X1504604Y901014D01*
X1504604Y906732D02*
X1504604Y911748D01*
X1504604Y906732D02*
X1492088Y906732D01*
X1492088Y911748D01*
X1504604Y911748D01*
X1504604Y908873D02*
X1492088Y908873D01*
X1492088Y911014D02*
X1504604Y911014D01*
X1504604Y916732D02*
X1504604Y921748D01*
X1504604Y916732D02*
X1492088Y916732D01*
X1492088Y921748D01*
X1504604Y921748D01*
X1504604Y918873D02*
X1492088Y918873D01*
X1492088Y921014D02*
X1504604Y921014D01*
D13*
X1299943Y926733D02*
X1299943Y937747D01*
X1318957Y937747D01*
X1318957Y926733D01*
X1299943Y926733D01*
X1299943Y928876D02*
X1318957Y928876D01*
X1318957Y931019D02*
X1299943Y931019D01*
X1299943Y933162D02*
X1318957Y933162D01*
X1318957Y935305D02*
X1299943Y935305D01*
X1299943Y937448D02*
X1318957Y937448D01*
X1299943Y881747D02*
X1299943Y870733D01*
X1299943Y881747D02*
X1318957Y881747D01*
X1318957Y870733D01*
X1299943Y870733D01*
X1299943Y872876D02*
X1318957Y872876D01*
X1318957Y875019D02*
X1299943Y875019D01*
X1299943Y877162D02*
X1318957Y877162D01*
X1318957Y879305D02*
X1299943Y879305D01*
X1299943Y881448D02*
X1318957Y881448D01*
D14*
X1339942Y916732D02*
X1339942Y921748D01*
X1352458Y921748D01*
X1352458Y916732D01*
X1339942Y916732D01*
X1339942Y918873D02*
X1352458Y918873D01*
X1352458Y921014D02*
X1339942Y921014D01*
X1339942Y911748D02*
X1339942Y906732D01*
X1339942Y911748D02*
X1352458Y911748D01*
X1352458Y906732D01*
X1339942Y906732D01*
X1339942Y908873D02*
X1352458Y908873D01*
X1352458Y911014D02*
X1339942Y911014D01*
X1339942Y901748D02*
X1339942Y896732D01*
X1339942Y901748D02*
X1352458Y901748D01*
X1352458Y896732D01*
X1339942Y896732D01*
X1339942Y898873D02*
X1352458Y898873D01*
X1352458Y901014D02*
X1339942Y901014D01*
X1339942Y891748D02*
X1339942Y886732D01*
X1339942Y891748D02*
X1352458Y891748D01*
X1352458Y886732D01*
X1339942Y886732D01*
X1339942Y888873D02*
X1352458Y888873D01*
X1352458Y891014D02*
X1339942Y891014D01*
D15*
X1536000Y961840D02*
X1542988Y961840D01*
X1536000Y961840D02*
X1536000Y968828D01*
X1542988Y968828D01*
X1542988Y961840D01*
X1542988Y965909D02*
X1536000Y965909D01*
X1536000Y944300D02*
X1542988Y944300D01*
X1536000Y944300D02*
X1536000Y951288D01*
X1542988Y951288D01*
X1542988Y944300D01*
X1542988Y948369D02*
X1536000Y948369D01*
D11*
X1528000Y943564D02*
X1528000Y953580D01*
X1528000Y943564D02*
X1518984Y943564D01*
X1518984Y953580D01*
X1528000Y953580D01*
X1528000Y945705D02*
X1518984Y945705D01*
X1518984Y947846D02*
X1528000Y947846D01*
X1528000Y949987D02*
X1518984Y949987D01*
X1518984Y952128D02*
X1528000Y952128D01*
X1528000Y960564D02*
X1528000Y970580D01*
X1528000Y960564D02*
X1518984Y960564D01*
X1518984Y970580D01*
X1528000Y970580D01*
X1528000Y962705D02*
X1518984Y962705D01*
X1518984Y964846D02*
X1528000Y964846D01*
X1528000Y966987D02*
X1518984Y966987D01*
X1518984Y969128D02*
X1528000Y969128D01*
D10*
X1524000Y1005840D03*
D14*
X1394492Y911748D02*
X1394492Y906732D01*
X1394492Y911748D02*
X1399508Y911748D01*
X1399508Y906732D01*
X1394492Y906732D01*
X1394492Y908873D02*
X1399508Y908873D01*
X1399508Y911014D02*
X1394492Y911014D01*
X1394492Y901748D02*
X1394492Y896732D01*
X1394492Y901748D02*
X1399508Y901748D01*
X1399508Y896732D01*
X1394492Y896732D01*
X1394492Y898873D02*
X1399508Y898873D01*
X1399508Y901014D02*
X1394492Y901014D01*
D16*
X1410428Y910878D02*
X1416592Y910878D01*
X1410428Y910878D02*
X1410428Y912842D01*
X1416592Y912842D01*
X1416592Y910878D01*
X1416592Y905878D02*
X1410428Y905878D01*
X1410428Y907842D01*
X1416592Y907842D01*
X1416592Y905878D01*
X1416592Y900878D02*
X1410428Y900878D01*
X1410428Y902842D01*
X1416592Y902842D01*
X1416592Y900878D01*
X1416592Y895878D02*
X1410428Y895878D01*
X1410428Y897842D01*
X1416592Y897842D01*
X1416592Y895878D01*
X1427628Y895878D02*
X1433792Y895878D01*
X1427628Y895878D02*
X1427628Y897842D01*
X1433792Y897842D01*
X1433792Y895878D01*
X1433792Y900878D02*
X1427628Y900878D01*
X1427628Y902842D01*
X1433792Y902842D01*
X1433792Y900878D01*
X1433792Y905878D02*
X1427628Y905878D01*
X1427628Y907842D01*
X1433792Y907842D01*
X1433792Y905878D01*
X1433792Y910878D02*
X1427628Y910878D01*
X1427628Y912842D01*
X1433792Y912842D01*
X1433792Y910878D01*
D11*
X1401508Y862648D02*
X1401508Y852632D01*
X1392492Y852632D01*
X1392492Y862648D01*
X1401508Y862648D01*
X1401508Y854773D02*
X1392492Y854773D01*
X1392492Y856914D02*
X1401508Y856914D01*
X1401508Y859055D02*
X1392492Y859055D01*
X1392492Y861196D02*
X1401508Y861196D01*
X1401508Y869632D02*
X1401508Y879648D01*
X1401508Y869632D02*
X1392492Y869632D01*
X1392492Y879648D01*
X1401508Y879648D01*
X1401508Y871773D02*
X1392492Y871773D01*
X1392492Y873914D02*
X1401508Y873914D01*
X1401508Y876055D02*
X1392492Y876055D01*
X1392492Y878196D02*
X1401508Y878196D01*
D17*
X1371600Y789940D03*
X1397000Y789940D03*
X1422400Y789940D03*
X1447800Y789940D03*
X1473200Y789940D03*
D11*
X1386268Y852632D02*
X1386268Y862648D01*
X1386268Y852632D02*
X1377252Y852632D01*
X1377252Y862648D01*
X1386268Y862648D01*
X1386268Y854773D02*
X1377252Y854773D01*
X1377252Y856914D02*
X1386268Y856914D01*
X1386268Y859055D02*
X1377252Y859055D01*
X1377252Y861196D02*
X1386268Y861196D01*
X1386268Y869632D02*
X1386268Y879648D01*
X1386268Y869632D02*
X1377252Y869632D01*
X1377252Y879648D01*
X1386268Y879648D01*
X1386268Y871773D02*
X1377252Y871773D01*
X1377252Y873914D02*
X1386268Y873914D01*
X1386268Y876055D02*
X1377252Y876055D01*
X1377252Y878196D02*
X1386268Y878196D01*
D18*
X-26238Y1004570D03*
X1570558Y1004570D03*
D19*
X-35293Y63500D02*
X-35290Y63722D01*
X-35282Y63944D01*
X-35268Y64166D01*
X-35249Y64388D01*
X-35225Y64608D01*
X-35195Y64829D01*
X-35160Y65048D01*
X-35119Y65267D01*
X-35073Y65484D01*
X-35022Y65700D01*
X-34965Y65915D01*
X-34903Y66129D01*
X-34836Y66340D01*
X-34764Y66551D01*
X-34686Y66759D01*
X-34604Y66965D01*
X-34516Y67169D01*
X-34424Y67372D01*
X-34326Y67571D01*
X-34224Y67768D01*
X-34117Y67963D01*
X-34005Y68155D01*
X-33888Y68344D01*
X-33767Y68531D01*
X-33641Y68714D01*
X-33511Y68894D01*
X-33376Y69071D01*
X-33238Y69244D01*
X-33095Y69414D01*
X-32947Y69581D01*
X-32796Y69744D01*
X-32641Y69903D01*
X-32482Y70058D01*
X-32319Y70209D01*
X-32152Y70357D01*
X-31982Y70500D01*
X-31809Y70638D01*
X-31632Y70773D01*
X-31452Y70903D01*
X-31269Y71029D01*
X-31082Y71150D01*
X-30893Y71267D01*
X-30701Y71379D01*
X-30506Y71486D01*
X-30309Y71588D01*
X-30110Y71686D01*
X-29907Y71778D01*
X-29703Y71866D01*
X-29497Y71948D01*
X-29289Y72026D01*
X-29078Y72098D01*
X-28867Y72165D01*
X-28653Y72227D01*
X-28438Y72284D01*
X-28222Y72335D01*
X-28005Y72381D01*
X-27786Y72422D01*
X-27567Y72457D01*
X-27346Y72487D01*
X-27126Y72511D01*
X-26904Y72530D01*
X-26682Y72544D01*
X-26460Y72552D01*
X-26238Y72555D01*
X-26016Y72552D01*
X-25794Y72544D01*
X-25572Y72530D01*
X-25350Y72511D01*
X-25130Y72487D01*
X-24909Y72457D01*
X-24690Y72422D01*
X-24471Y72381D01*
X-24254Y72335D01*
X-24038Y72284D01*
X-23823Y72227D01*
X-23609Y72165D01*
X-23398Y72098D01*
X-23187Y72026D01*
X-22979Y71948D01*
X-22773Y71866D01*
X-22569Y71778D01*
X-22366Y71686D01*
X-22167Y71588D01*
X-21970Y71486D01*
X-21775Y71379D01*
X-21583Y71267D01*
X-21394Y71150D01*
X-21207Y71029D01*
X-21024Y70903D01*
X-20844Y70773D01*
X-20667Y70638D01*
X-20494Y70500D01*
X-20324Y70357D01*
X-20157Y70209D01*
X-19994Y70058D01*
X-19835Y69903D01*
X-19680Y69744D01*
X-19529Y69581D01*
X-19381Y69414D01*
X-19238Y69244D01*
X-19100Y69071D01*
X-18965Y68894D01*
X-18835Y68714D01*
X-18709Y68531D01*
X-18588Y68344D01*
X-18471Y68155D01*
X-18359Y67963D01*
X-18252Y67768D01*
X-18150Y67571D01*
X-18052Y67372D01*
X-17960Y67169D01*
X-17872Y66965D01*
X-17790Y66759D01*
X-17712Y66551D01*
X-17640Y66340D01*
X-17573Y66129D01*
X-17511Y65915D01*
X-17454Y65700D01*
X-17403Y65484D01*
X-17357Y65267D01*
X-17316Y65048D01*
X-17281Y64829D01*
X-17251Y64608D01*
X-17227Y64388D01*
X-17208Y64166D01*
X-17194Y63944D01*
X-17186Y63722D01*
X-17183Y63500D01*
X-17186Y63278D01*
X-17194Y63056D01*
X-17208Y62834D01*
X-17227Y62612D01*
X-17251Y62392D01*
X-17281Y62171D01*
X-17316Y61952D01*
X-17357Y61733D01*
X-17403Y61516D01*
X-17454Y61300D01*
X-17511Y61085D01*
X-17573Y60871D01*
X-17640Y60660D01*
X-17712Y60449D01*
X-17790Y60241D01*
X-17872Y60035D01*
X-17960Y59831D01*
X-18052Y59628D01*
X-18150Y59429D01*
X-18252Y59232D01*
X-18359Y59037D01*
X-18471Y58845D01*
X-18588Y58656D01*
X-18709Y58469D01*
X-18835Y58286D01*
X-18965Y58106D01*
X-19100Y57929D01*
X-19238Y57756D01*
X-19381Y57586D01*
X-19529Y57419D01*
X-19680Y57256D01*
X-19835Y57097D01*
X-19994Y56942D01*
X-20157Y56791D01*
X-20324Y56643D01*
X-20494Y56500D01*
X-20667Y56362D01*
X-20844Y56227D01*
X-21024Y56097D01*
X-21207Y55971D01*
X-21394Y55850D01*
X-21583Y55733D01*
X-21775Y55621D01*
X-21970Y55514D01*
X-22167Y55412D01*
X-22366Y55314D01*
X-22569Y55222D01*
X-22773Y55134D01*
X-22979Y55052D01*
X-23187Y54974D01*
X-23398Y54902D01*
X-23609Y54835D01*
X-23823Y54773D01*
X-24038Y54716D01*
X-24254Y54665D01*
X-24471Y54619D01*
X-24690Y54578D01*
X-24909Y54543D01*
X-25130Y54513D01*
X-25350Y54489D01*
X-25572Y54470D01*
X-25794Y54456D01*
X-26016Y54448D01*
X-26238Y54445D01*
X-26460Y54448D01*
X-26682Y54456D01*
X-26904Y54470D01*
X-27126Y54489D01*
X-27346Y54513D01*
X-27567Y54543D01*
X-27786Y54578D01*
X-28005Y54619D01*
X-28222Y54665D01*
X-28438Y54716D01*
X-28653Y54773D01*
X-28867Y54835D01*
X-29078Y54902D01*
X-29289Y54974D01*
X-29497Y55052D01*
X-29703Y55134D01*
X-29907Y55222D01*
X-30110Y55314D01*
X-30309Y55412D01*
X-30506Y55514D01*
X-30701Y55621D01*
X-30893Y55733D01*
X-31082Y55850D01*
X-31269Y55971D01*
X-31452Y56097D01*
X-31632Y56227D01*
X-31809Y56362D01*
X-31982Y56500D01*
X-32152Y56643D01*
X-32319Y56791D01*
X-32482Y56942D01*
X-32641Y57097D01*
X-32796Y57256D01*
X-32947Y57419D01*
X-33095Y57586D01*
X-33238Y57756D01*
X-33376Y57929D01*
X-33511Y58106D01*
X-33641Y58286D01*
X-33767Y58469D01*
X-33888Y58656D01*
X-34005Y58845D01*
X-34117Y59037D01*
X-34224Y59232D01*
X-34326Y59429D01*
X-34424Y59628D01*
X-34516Y59831D01*
X-34604Y60035D01*
X-34686Y60241D01*
X-34764Y60449D01*
X-34836Y60660D01*
X-34903Y60871D01*
X-34965Y61085D01*
X-35022Y61300D01*
X-35073Y61516D01*
X-35119Y61733D01*
X-35160Y61952D01*
X-35195Y62171D01*
X-35225Y62392D01*
X-35249Y62612D01*
X-35268Y62834D01*
X-35282Y63056D01*
X-35290Y63278D01*
X-35293Y63500D01*
D20*
X-26238Y63500D03*
M02*
